<?xml version="1.0" encoding="utf-8" standalone="no"?>
<!DOCTYPE svg PUBLIC "-//W3C//DTD SVG 1.1//EN"
  "http://www.w3.org/Graphics/SVG/1.1/DTD/svg11.dtd">
<svg xmlns:xlink="http://www.w3.org/1999/xlink" width="1080pt" height="216pt" viewBox="0 0 1080 216" xmlns="http://www.w3.org/2000/svg" version="1.1">
 <metadata>
  <rdf:RDF xmlns:dc="http://purl.org/dc/elements/1.1/" xmlns:cc="http://creativecommons.org/ns#" xmlns:rdf="http://www.w3.org/1999/02/22-rdf-syntax-ns#">
   <cc:Work>
    <dc:type rdf:resource="http://purl.org/dc/dcmitype/StillImage"/>
    <dc:date>2026-02-09T10:07:33.963804</dc:date>
    <dc:format>image/svg+xml</dc:format>
    <dc:creator>
     <cc:Agent>
      <dc:title>Matplotlib v3.10.8, https://matplotlib.org/</dc:title>
     </cc:Agent>
    </dc:creator>
   </cc:Work>
  </rdf:RDF>
 </metadata>
 <defs>
  <style type="text/css">*{stroke-linejoin: round; stroke-linecap: butt}</style>
 </defs>
 <g id="figure_1">
  <g id="patch_1">
   <path d="M 0 216 
L 1080 216 
L 1080 0 
L 0 0 
z
" style="fill: #ffffff"/>
  </g>
  <g id="axes_1">
   <g id="patch_2">
    <path d="M 50.24 170.44 
L 1069.2 170.44 
L 1069.2 29.76 
L 50.24 29.76 
z
" style="fill: #ffffff"/>
   </g>
   <g id="matplotlib.axis_1">
    <g id="xtick_1">
     <g id="line2d_1">
      <defs>
       <path id="mbd4cf8eebb" d="M 0 0 
L 0 3.5 
" style="stroke: #000000; stroke-width: 0.8"/>
      </defs>
      <g>
       <use xlink:href="#mbd4cf8eebb" x="50.24" y="170.44" style="stroke: #000000; stroke-width: 0.8"/>
      </g>
     </g>
     <g id="text_1">
      <!-- 0 -->
      <g transform="translate(47.05875 185.038437) scale(0.1 -0.1)">
       <defs>
        <path id="DejaVuSans-30" d="M 2034 4250 
Q 1547 4250 1301 3770 
Q 1056 3291 1056 2328 
Q 1056 1369 1301 889 
Q 1547 409 2034 409 
Q 2525 409 2770 889 
Q 3016 1369 3016 2328 
Q 3016 3291 2770 3770 
Q 2525 4250 2034 4250 
z
M 2034 4750 
Q 2819 4750 3233 4129 
Q 3647 3509 3647 2328 
Q 3647 1150 3233 529 
Q 2819 -91 2034 -91 
Q 1250 -91 836 529 
Q 422 1150 422 2328 
Q 422 3509 836 4129 
Q 1250 4750 2034 4750 
z
" transform="scale(0.015625)"/>
       </defs>
       <use xlink:href="#DejaVuSans-30"/>
      </g>
     </g>
    </g>
    <g id="xtick_2">
     <g id="line2d_2">
      <g>
       <use xlink:href="#mbd4cf8eebb" x="183.26784" y="170.44" style="stroke: #000000; stroke-width: 0.8"/>
      </g>
     </g>
     <g id="text_2">
      <!-- 200 -->
      <g transform="translate(173.72409 185.038437) scale(0.1 -0.1)">
       <defs>
        <path id="DejaVuSans-32" d="M 1228 531 
L 3431 531 
L 3431 0 
L 469 0 
L 469 531 
Q 828 903 1448 1529 
Q 2069 2156 2228 2338 
Q 2531 2678 2651 2914 
Q 2772 3150 2772 3378 
Q 2772 3750 2511 3984 
Q 2250 4219 1831 4219 
Q 1534 4219 1204 4116 
Q 875 4013 500 3803 
L 500 4441 
Q 881 4594 1212 4672 
Q 1544 4750 1819 4750 
Q 2544 4750 2975 4387 
Q 3406 4025 3406 3419 
Q 3406 3131 3298 2873 
Q 3191 2616 2906 2266 
Q 2828 2175 2409 1742 
Q 1991 1309 1228 531 
z
" transform="scale(0.015625)"/>
       </defs>
       <use xlink:href="#DejaVuSans-32"/>
       <use xlink:href="#DejaVuSans-30" transform="translate(63.623047 0)"/>
       <use xlink:href="#DejaVuSans-30" transform="translate(127.246094 0)"/>
      </g>
     </g>
    </g>
    <g id="xtick_3">
     <g id="line2d_3">
      <g>
       <use xlink:href="#mbd4cf8eebb" x="316.295681" y="170.44" style="stroke: #000000; stroke-width: 0.8"/>
      </g>
     </g>
     <g id="text_3">
      <!-- 400 -->
      <g transform="translate(306.751931 185.038437) scale(0.1 -0.1)">
       <defs>
        <path id="DejaVuSans-34" d="M 2419 4116 
L 825 1625 
L 2419 1625 
L 2419 4116 
z
M 2253 4666 
L 3047 4666 
L 3047 1625 
L 3713 1625 
L 3713 1100 
L 3047 1100 
L 3047 0 
L 2419 0 
L 2419 1100 
L 313 1100 
L 313 1709 
L 2253 4666 
z
" transform="scale(0.015625)"/>
       </defs>
       <use xlink:href="#DejaVuSans-34"/>
       <use xlink:href="#DejaVuSans-30" transform="translate(63.623047 0)"/>
       <use xlink:href="#DejaVuSans-30" transform="translate(127.246094 0)"/>
      </g>
     </g>
    </g>
    <g id="xtick_4">
     <g id="line2d_4">
      <g>
       <use xlink:href="#mbd4cf8eebb" x="449.323521" y="170.44" style="stroke: #000000; stroke-width: 0.8"/>
      </g>
     </g>
     <g id="text_4">
      <!-- 600 -->
      <g transform="translate(439.779771 185.038437) scale(0.1 -0.1)">
       <defs>
        <path id="DejaVuSans-36" d="M 2113 2584 
Q 1688 2584 1439 2293 
Q 1191 2003 1191 1497 
Q 1191 994 1439 701 
Q 1688 409 2113 409 
Q 2538 409 2786 701 
Q 3034 994 3034 1497 
Q 3034 2003 2786 2293 
Q 2538 2584 2113 2584 
z
M 3366 4563 
L 3366 3988 
Q 3128 4100 2886 4159 
Q 2644 4219 2406 4219 
Q 1781 4219 1451 3797 
Q 1122 3375 1075 2522 
Q 1259 2794 1537 2939 
Q 1816 3084 2150 3084 
Q 2853 3084 3261 2657 
Q 3669 2231 3669 1497 
Q 3669 778 3244 343 
Q 2819 -91 2113 -91 
Q 1303 -91 875 529 
Q 447 1150 447 2328 
Q 447 3434 972 4092 
Q 1497 4750 2381 4750 
Q 2619 4750 2861 4703 
Q 3103 4656 3366 4563 
z
" transform="scale(0.015625)"/>
       </defs>
       <use xlink:href="#DejaVuSans-36"/>
       <use xlink:href="#DejaVuSans-30" transform="translate(63.623047 0)"/>
       <use xlink:href="#DejaVuSans-30" transform="translate(127.246094 0)"/>
      </g>
     </g>
    </g>
    <g id="xtick_5">
     <g id="line2d_5">
      <g>
       <use xlink:href="#mbd4cf8eebb" x="582.351361" y="170.44" style="stroke: #000000; stroke-width: 0.8"/>
      </g>
     </g>
     <g id="text_5">
      <!-- 800 -->
      <g transform="translate(572.807611 185.038437) scale(0.1 -0.1)">
       <defs>
        <path id="DejaVuSans-38" d="M 2034 2216 
Q 1584 2216 1326 1975 
Q 1069 1734 1069 1313 
Q 1069 891 1326 650 
Q 1584 409 2034 409 
Q 2484 409 2743 651 
Q 3003 894 3003 1313 
Q 3003 1734 2745 1975 
Q 2488 2216 2034 2216 
z
M 1403 2484 
Q 997 2584 770 2862 
Q 544 3141 544 3541 
Q 544 4100 942 4425 
Q 1341 4750 2034 4750 
Q 2731 4750 3128 4425 
Q 3525 4100 3525 3541 
Q 3525 3141 3298 2862 
Q 3072 2584 2669 2484 
Q 3125 2378 3379 2068 
Q 3634 1759 3634 1313 
Q 3634 634 3220 271 
Q 2806 -91 2034 -91 
Q 1263 -91 848 271 
Q 434 634 434 1313 
Q 434 1759 690 2068 
Q 947 2378 1403 2484 
z
M 1172 3481 
Q 1172 3119 1398 2916 
Q 1625 2713 2034 2713 
Q 2441 2713 2670 2916 
Q 2900 3119 2900 3481 
Q 2900 3844 2670 4047 
Q 2441 4250 2034 4250 
Q 1625 4250 1398 4047 
Q 1172 3844 1172 3481 
z
" transform="scale(0.015625)"/>
       </defs>
       <use xlink:href="#DejaVuSans-38"/>
       <use xlink:href="#DejaVuSans-30" transform="translate(63.623047 0)"/>
       <use xlink:href="#DejaVuSans-30" transform="translate(127.246094 0)"/>
      </g>
     </g>
    </g>
    <g id="xtick_6">
     <g id="line2d_6">
      <g>
       <use xlink:href="#mbd4cf8eebb" x="715.379202" y="170.44" style="stroke: #000000; stroke-width: 0.8"/>
      </g>
     </g>
     <g id="text_6">
      <!-- 1000 -->
      <g transform="translate(702.654202 185.038437) scale(0.1 -0.1)">
       <defs>
        <path id="DejaVuSans-31" d="M 794 531 
L 1825 531 
L 1825 4091 
L 703 3866 
L 703 4441 
L 1819 4666 
L 2450 4666 
L 2450 531 
L 3481 531 
L 3481 0 
L 794 0 
L 794 531 
z
" transform="scale(0.015625)"/>
       </defs>
       <use xlink:href="#DejaVuSans-31"/>
       <use xlink:href="#DejaVuSans-30" transform="translate(63.623047 0)"/>
       <use xlink:href="#DejaVuSans-30" transform="translate(127.246094 0)"/>
       <use xlink:href="#DejaVuSans-30" transform="translate(190.869141 0)"/>
      </g>
     </g>
    </g>
    <g id="xtick_7">
     <g id="line2d_7">
      <g>
       <use xlink:href="#mbd4cf8eebb" x="848.407042" y="170.44" style="stroke: #000000; stroke-width: 0.8"/>
      </g>
     </g>
     <g id="text_7">
      <!-- 1200 -->
      <g transform="translate(835.682042 185.038437) scale(0.1 -0.1)">
       <use xlink:href="#DejaVuSans-31"/>
       <use xlink:href="#DejaVuSans-32" transform="translate(63.623047 0)"/>
       <use xlink:href="#DejaVuSans-30" transform="translate(127.246094 0)"/>
       <use xlink:href="#DejaVuSans-30" transform="translate(190.869141 0)"/>
      </g>
     </g>
    </g>
    <g id="xtick_8">
     <g id="line2d_8">
      <g>
       <use xlink:href="#mbd4cf8eebb" x="981.434882" y="170.44" style="stroke: #000000; stroke-width: 0.8"/>
      </g>
     </g>
     <g id="text_8">
      <!-- 1400 -->
      <g transform="translate(968.709882 185.038437) scale(0.1 -0.1)">
       <use xlink:href="#DejaVuSans-31"/>
       <use xlink:href="#DejaVuSans-34" transform="translate(63.623047 0)"/>
       <use xlink:href="#DejaVuSans-30" transform="translate(127.246094 0)"/>
       <use xlink:href="#DejaVuSans-30" transform="translate(190.869141 0)"/>
      </g>
     </g>
    </g>
    <g id="text_9">
     <!-- Simulation Days -->
     <g transform="translate(502.74 201.755937) scale(0.14 -0.14)">
      <defs>
       <path id="DejaVuSans-53" d="M 3425 4513 
L 3425 3897 
Q 3066 4069 2747 4153 
Q 2428 4238 2131 4238 
Q 1616 4238 1336 4038 
Q 1056 3838 1056 3469 
Q 1056 3159 1242 3001 
Q 1428 2844 1947 2747 
L 2328 2669 
Q 3034 2534 3370 2195 
Q 3706 1856 3706 1288 
Q 3706 609 3251 259 
Q 2797 -91 1919 -91 
Q 1588 -91 1214 -16 
Q 841 59 441 206 
L 441 856 
Q 825 641 1194 531 
Q 1563 422 1919 422 
Q 2459 422 2753 634 
Q 3047 847 3047 1241 
Q 3047 1584 2836 1778 
Q 2625 1972 2144 2069 
L 1759 2144 
Q 1053 2284 737 2584 
Q 422 2884 422 3419 
Q 422 4038 858 4394 
Q 1294 4750 2059 4750 
Q 2388 4750 2728 4690 
Q 3069 4631 3425 4513 
z
" transform="scale(0.015625)"/>
       <path id="DejaVuSans-69" d="M 603 3500 
L 1178 3500 
L 1178 0 
L 603 0 
L 603 3500 
z
M 603 4863 
L 1178 4863 
L 1178 4134 
L 603 4134 
L 603 4863 
z
" transform="scale(0.015625)"/>
       <path id="DejaVuSans-6d" d="M 3328 2828 
Q 3544 3216 3844 3400 
Q 4144 3584 4550 3584 
Q 5097 3584 5394 3201 
Q 5691 2819 5691 2113 
L 5691 0 
L 5113 0 
L 5113 2094 
Q 5113 2597 4934 2840 
Q 4756 3084 4391 3084 
Q 3944 3084 3684 2787 
Q 3425 2491 3425 1978 
L 3425 0 
L 2847 0 
L 2847 2094 
Q 2847 2600 2669 2842 
Q 2491 3084 2119 3084 
Q 1678 3084 1418 2786 
Q 1159 2488 1159 1978 
L 1159 0 
L 581 0 
L 581 3500 
L 1159 3500 
L 1159 2956 
Q 1356 3278 1631 3431 
Q 1906 3584 2284 3584 
Q 2666 3584 2933 3390 
Q 3200 3197 3328 2828 
z
" transform="scale(0.015625)"/>
       <path id="DejaVuSans-75" d="M 544 1381 
L 544 3500 
L 1119 3500 
L 1119 1403 
Q 1119 906 1312 657 
Q 1506 409 1894 409 
Q 2359 409 2629 706 
Q 2900 1003 2900 1516 
L 2900 3500 
L 3475 3500 
L 3475 0 
L 2900 0 
L 2900 538 
Q 2691 219 2414 64 
Q 2138 -91 1772 -91 
Q 1169 -91 856 284 
Q 544 659 544 1381 
z
M 1991 3584 
L 1991 3584 
z
" transform="scale(0.015625)"/>
       <path id="DejaVuSans-6c" d="M 603 4863 
L 1178 4863 
L 1178 0 
L 603 0 
L 603 4863 
z
" transform="scale(0.015625)"/>
       <path id="DejaVuSans-61" d="M 2194 1759 
Q 1497 1759 1228 1600 
Q 959 1441 959 1056 
Q 959 750 1161 570 
Q 1363 391 1709 391 
Q 2188 391 2477 730 
Q 2766 1069 2766 1631 
L 2766 1759 
L 2194 1759 
z
M 3341 1997 
L 3341 0 
L 2766 0 
L 2766 531 
Q 2569 213 2275 61 
Q 1981 -91 1556 -91 
Q 1019 -91 701 211 
Q 384 513 384 1019 
Q 384 1609 779 1909 
Q 1175 2209 1959 2209 
L 2766 2209 
L 2766 2266 
Q 2766 2663 2505 2880 
Q 2244 3097 1772 3097 
Q 1472 3097 1187 3025 
Q 903 2953 641 2809 
L 641 3341 
Q 956 3463 1253 3523 
Q 1550 3584 1831 3584 
Q 2591 3584 2966 3190 
Q 3341 2797 3341 1997 
z
" transform="scale(0.015625)"/>
       <path id="DejaVuSans-74" d="M 1172 4494 
L 1172 3500 
L 2356 3500 
L 2356 3053 
L 1172 3053 
L 1172 1153 
Q 1172 725 1289 603 
Q 1406 481 1766 481 
L 2356 481 
L 2356 0 
L 1766 0 
Q 1100 0 847 248 
Q 594 497 594 1153 
L 594 3053 
L 172 3053 
L 172 3500 
L 594 3500 
L 594 4494 
L 1172 4494 
z
" transform="scale(0.015625)"/>
       <path id="DejaVuSans-6f" d="M 1959 3097 
Q 1497 3097 1228 2736 
Q 959 2375 959 1747 
Q 959 1119 1226 758 
Q 1494 397 1959 397 
Q 2419 397 2687 759 
Q 2956 1122 2956 1747 
Q 2956 2369 2687 2733 
Q 2419 3097 1959 3097 
z
M 1959 3584 
Q 2709 3584 3137 3096 
Q 3566 2609 3566 1747 
Q 3566 888 3137 398 
Q 2709 -91 1959 -91 
Q 1206 -91 779 398 
Q 353 888 353 1747 
Q 353 2609 779 3096 
Q 1206 3584 1959 3584 
z
" transform="scale(0.015625)"/>
       <path id="DejaVuSans-6e" d="M 3513 2113 
L 3513 0 
L 2938 0 
L 2938 2094 
Q 2938 2591 2744 2837 
Q 2550 3084 2163 3084 
Q 1697 3084 1428 2787 
Q 1159 2491 1159 1978 
L 1159 0 
L 581 0 
L 581 3500 
L 1159 3500 
L 1159 2956 
Q 1366 3272 1645 3428 
Q 1925 3584 2291 3584 
Q 2894 3584 3203 3211 
Q 3513 2838 3513 2113 
z
" transform="scale(0.015625)"/>
       <path id="DejaVuSans-20" transform="scale(0.015625)"/>
       <path id="DejaVuSans-44" d="M 1259 4147 
L 1259 519 
L 2022 519 
Q 2988 519 3436 956 
Q 3884 1394 3884 2338 
Q 3884 3275 3436 3711 
Q 2988 4147 2022 4147 
L 1259 4147 
z
M 628 4666 
L 1925 4666 
Q 3281 4666 3915 4102 
Q 4550 3538 4550 2338 
Q 4550 1131 3912 565 
Q 3275 0 1925 0 
L 628 0 
L 628 4666 
z
" transform="scale(0.015625)"/>
       <path id="DejaVuSans-79" d="M 2059 -325 
Q 1816 -950 1584 -1140 
Q 1353 -1331 966 -1331 
L 506 -1331 
L 506 -850 
L 844 -850 
Q 1081 -850 1212 -737 
Q 1344 -625 1503 -206 
L 1606 56 
L 191 3500 
L 800 3500 
L 1894 763 
L 2988 3500 
L 3597 3500 
L 2059 -325 
z
" transform="scale(0.015625)"/>
       <path id="DejaVuSans-73" d="M 2834 3397 
L 2834 2853 
Q 2591 2978 2328 3040 
Q 2066 3103 1784 3103 
Q 1356 3103 1142 2972 
Q 928 2841 928 2578 
Q 928 2378 1081 2264 
Q 1234 2150 1697 2047 
L 1894 2003 
Q 2506 1872 2764 1633 
Q 3022 1394 3022 966 
Q 3022 478 2636 193 
Q 2250 -91 1575 -91 
Q 1294 -91 989 -36 
Q 684 19 347 128 
L 347 722 
Q 666 556 975 473 
Q 1284 391 1588 391 
Q 1994 391 2212 530 
Q 2431 669 2431 922 
Q 2431 1156 2273 1281 
Q 2116 1406 1581 1522 
L 1381 1569 
Q 847 1681 609 1914 
Q 372 2147 372 2553 
Q 372 3047 722 3315 
Q 1072 3584 1716 3584 
Q 2034 3584 2315 3537 
Q 2597 3491 2834 3397 
z
" transform="scale(0.015625)"/>
      </defs>
      <use xlink:href="#DejaVuSans-53"/>
      <use xlink:href="#DejaVuSans-69" transform="translate(63.476562 0)"/>
      <use xlink:href="#DejaVuSans-6d" transform="translate(91.259766 0)"/>
      <use xlink:href="#DejaVuSans-75" transform="translate(188.671875 0)"/>
      <use xlink:href="#DejaVuSans-6c" transform="translate(252.050781 0)"/>
      <use xlink:href="#DejaVuSans-61" transform="translate(279.833984 0)"/>
      <use xlink:href="#DejaVuSans-74" transform="translate(341.113281 0)"/>
      <use xlink:href="#DejaVuSans-69" transform="translate(380.322266 0)"/>
      <use xlink:href="#DejaVuSans-6f" transform="translate(408.105469 0)"/>
      <use xlink:href="#DejaVuSans-6e" transform="translate(469.287109 0)"/>
      <use xlink:href="#DejaVuSans-20" transform="translate(532.666016 0)"/>
      <use xlink:href="#DejaVuSans-44" transform="translate(564.453125 0)"/>
      <use xlink:href="#DejaVuSans-61" transform="translate(641.455078 0)"/>
      <use xlink:href="#DejaVuSans-79" transform="translate(702.734375 0)"/>
      <use xlink:href="#DejaVuSans-73" transform="translate(761.914062 0)"/>
     </g>
    </g>
   </g>
   <g id="matplotlib.axis_2">
    <g id="ytick_1">
     <g id="line2d_9">
      <defs>
       <path id="m12674a7cd0" d="M 0 0 
L -3.5 0 
" style="stroke: #000000; stroke-width: 0.8"/>
      </defs>
      <g>
       <use xlink:href="#m12674a7cd0" x="50.24" y="164.612859" style="stroke: #000000; stroke-width: 0.8"/>
      </g>
     </g>
     <g id="text_10">
      <!-- −8 -->
      <g transform="translate(28.497813 168.412078) scale(0.1 -0.1)">
       <defs>
        <path id="DejaVuSans-2212" d="M 678 2272 
L 4684 2272 
L 4684 1741 
L 678 1741 
L 678 2272 
z
" transform="scale(0.015625)"/>
       </defs>
       <use xlink:href="#DejaVuSans-2212"/>
       <use xlink:href="#DejaVuSans-38" transform="translate(83.789062 0)"/>
      </g>
     </g>
    </g>
    <g id="ytick_2">
     <g id="line2d_10">
      <g>
       <use xlink:href="#m12674a7cd0" x="50.24" y="131.654274" style="stroke: #000000; stroke-width: 0.8"/>
      </g>
     </g>
     <g id="text_11">
      <!-- −4 -->
      <g transform="translate(28.497813 135.453493) scale(0.1 -0.1)">
       <use xlink:href="#DejaVuSans-2212"/>
       <use xlink:href="#DejaVuSans-34" transform="translate(83.789062 0)"/>
      </g>
     </g>
    </g>
    <g id="ytick_3">
     <g id="line2d_11">
      <g>
       <use xlink:href="#m12674a7cd0" x="50.24" y="98.695689" style="stroke: #000000; stroke-width: 0.8"/>
      </g>
     </g>
     <g id="text_12">
      <!-- 0 -->
      <g transform="translate(36.8775 102.494908) scale(0.1 -0.1)">
       <use xlink:href="#DejaVuSans-30"/>
      </g>
     </g>
    </g>
    <g id="ytick_4">
     <g id="line2d_12">
      <g>
       <use xlink:href="#m12674a7cd0" x="50.24" y="65.737104" style="stroke: #000000; stroke-width: 0.8"/>
      </g>
     </g>
     <g id="text_13">
      <!-- 4 -->
      <g transform="translate(36.8775 69.536323) scale(0.1 -0.1)">
       <use xlink:href="#DejaVuSans-34"/>
      </g>
     </g>
    </g>
    <g id="ytick_5">
     <g id="line2d_13">
      <g>
       <use xlink:href="#m12674a7cd0" x="50.24" y="32.778519" style="stroke: #000000; stroke-width: 0.8"/>
      </g>
     </g>
     <g id="text_14">
      <!-- 8 -->
      <g transform="translate(36.8775 36.577738) scale(0.1 -0.1)">
       <use xlink:href="#DejaVuSans-38"/>
      </g>
     </g>
    </g>
    <g id="text_15">
     <!-- Temperature (℃) -->
     <g transform="translate(21.58625 159.986094) rotate(-90) scale(0.14 -0.14)">
      <defs>
       <path id="DejaVuSans-54" d="M -19 4666 
L 3928 4666 
L 3928 4134 
L 2272 4134 
L 2272 0 
L 1638 0 
L 1638 4134 
L -19 4134 
L -19 4666 
z
" transform="scale(0.015625)"/>
       <path id="DejaVuSans-65" d="M 3597 1894 
L 3597 1613 
L 953 1613 
Q 991 1019 1311 708 
Q 1631 397 2203 397 
Q 2534 397 2845 478 
Q 3156 559 3463 722 
L 3463 178 
Q 3153 47 2828 -22 
Q 2503 -91 2169 -91 
Q 1331 -91 842 396 
Q 353 884 353 1716 
Q 353 2575 817 3079 
Q 1281 3584 2069 3584 
Q 2775 3584 3186 3129 
Q 3597 2675 3597 1894 
z
M 3022 2063 
Q 3016 2534 2758 2815 
Q 2500 3097 2075 3097 
Q 1594 3097 1305 2825 
Q 1016 2553 972 2059 
L 3022 2063 
z
" transform="scale(0.015625)"/>
       <path id="DejaVuSans-70" d="M 1159 525 
L 1159 -1331 
L 581 -1331 
L 581 3500 
L 1159 3500 
L 1159 2969 
Q 1341 3281 1617 3432 
Q 1894 3584 2278 3584 
Q 2916 3584 3314 3078 
Q 3713 2572 3713 1747 
Q 3713 922 3314 415 
Q 2916 -91 2278 -91 
Q 1894 -91 1617 61 
Q 1341 213 1159 525 
z
M 3116 1747 
Q 3116 2381 2855 2742 
Q 2594 3103 2138 3103 
Q 1681 3103 1420 2742 
Q 1159 2381 1159 1747 
Q 1159 1113 1420 752 
Q 1681 391 2138 391 
Q 2594 391 2855 752 
Q 3116 1113 3116 1747 
z
" transform="scale(0.015625)"/>
       <path id="DejaVuSans-72" d="M 2631 2963 
Q 2534 3019 2420 3045 
Q 2306 3072 2169 3072 
Q 1681 3072 1420 2755 
Q 1159 2438 1159 1844 
L 1159 0 
L 581 0 
L 581 3500 
L 1159 3500 
L 1159 2956 
Q 1341 3275 1631 3429 
Q 1922 3584 2338 3584 
Q 2397 3584 2469 3576 
Q 2541 3569 2628 3553 
L 2631 2963 
z
" transform="scale(0.015625)"/>
       <path id="DejaVuSans-28" d="M 1984 4856 
Q 1566 4138 1362 3434 
Q 1159 2731 1159 2009 
Q 1159 1288 1364 580 
Q 1569 -128 1984 -844 
L 1484 -844 
Q 1016 -109 783 600 
Q 550 1309 550 2009 
Q 550 2706 781 3412 
Q 1013 4119 1484 4856 
L 1984 4856 
z
" transform="scale(0.015625)"/>
       <path id="DejaVuSans-2103" d="M 1600 4347 
Q 1350 4347 1178 4173 
Q 1006 4000 1006 3750 
Q 1006 3503 1178 3333 
Q 1350 3163 1600 3163 
Q 1850 3163 2022 3333 
Q 2194 3503 2194 3750 
Q 2194 3997 2020 4172 
Q 1847 4347 1600 4347 
z
M 1600 4750 
Q 1800 4750 1984 4673 
Q 2169 4597 2303 4453 
Q 2447 4313 2519 4134 
Q 2591 3956 2591 3750 
Q 2591 3338 2302 3052 
Q 2013 2766 1594 2766 
Q 1172 2766 890 3047 
Q 609 3328 609 3750 
Q 609 4169 896 4459 
Q 1184 4750 1600 4750 
z
M 6741 4306 
L 6741 3641 
Q 6422 3938 6061 4084 
Q 5700 4231 5294 4231 
Q 4494 4231 4069 3742 
Q 3644 3253 3644 2328 
Q 3644 1406 4069 917 
Q 4494 428 5294 428 
Q 5700 428 6061 575 
Q 6422 722 6741 1019 
L 6741 359 
Q 6409 134 6039 21 
Q 5669 -91 5256 -91 
Q 4197 -91 3587 557 
Q 2978 1206 2978 2328 
Q 2978 3453 3587 4101 
Q 4197 4750 5256 4750 
Q 5675 4750 6045 4639 
Q 6416 4528 6741 4306 
z
" transform="scale(0.015625)"/>
       <path id="DejaVuSans-29" d="M 513 4856 
L 1013 4856 
Q 1481 4119 1714 3412 
Q 1947 2706 1947 2009 
Q 1947 1309 1714 600 
Q 1481 -109 1013 -844 
L 513 -844 
Q 928 -128 1133 580 
Q 1338 1288 1338 2009 
Q 1338 2731 1133 3434 
Q 928 4138 513 4856 
z
" transform="scale(0.015625)"/>
      </defs>
      <use xlink:href="#DejaVuSans-54"/>
      <use xlink:href="#DejaVuSans-65" transform="translate(44.083984 0)"/>
      <use xlink:href="#DejaVuSans-6d" transform="translate(105.607422 0)"/>
      <use xlink:href="#DejaVuSans-70" transform="translate(203.019531 0)"/>
      <use xlink:href="#DejaVuSans-65" transform="translate(266.496094 0)"/>
      <use xlink:href="#DejaVuSans-72" transform="translate(328.019531 0)"/>
      <use xlink:href="#DejaVuSans-61" transform="translate(369.132812 0)"/>
      <use xlink:href="#DejaVuSans-74" transform="translate(430.412109 0)"/>
      <use xlink:href="#DejaVuSans-75" transform="translate(469.621094 0)"/>
      <use xlink:href="#DejaVuSans-72" transform="translate(533 0)"/>
      <use xlink:href="#DejaVuSans-65" transform="translate(571.863281 0)"/>
      <use xlink:href="#DejaVuSans-20" transform="translate(633.386719 0)"/>
      <use xlink:href="#DejaVuSans-28" transform="translate(665.173828 0)"/>
      <use xlink:href="#DejaVuSans-2103" transform="translate(704.1875 0)"/>
      <use xlink:href="#DejaVuSans-29" transform="translate(816.492188 0)"/>
     </g>
    </g>
   </g>
   <g id="line2d_14">
    <path d="M 50.24 152.822779 
L 52.900557 152.997895 
L 54.895974 153.344473 
L 56.891392 153.938297 
L 58.88681 154.840756 
L 60.882227 156.052878 
L 65.538202 159.197222 
L 66.86848 159.825461 
L 68.198758 160.20529 
L 69.529037 160.304493 
L 70.859315 160.118553 
L 72.189594 159.664924 
L 73.519872 158.974724 
L 75.51529 157.580422 
L 77.510707 155.878445 
L 85.492378 148.59917 
L 88.152934 146.668334 
L 90.813491 145.085214 
L 93.474048 143.800001 
L 96.799744 142.501197 
L 100.790579 141.221464 
L 107.441971 139.168593 
L 110.767667 137.817401 
L 117.419059 134.901575 
L 120.079616 134.040693 
L 122.740173 133.40449 
L 126.731008 132.710242 
L 133.3824 131.591417 
L 137.373235 130.679293 
L 140.698931 129.725432 
L 143.359488 128.738395 
L 145.354906 127.72183 
L 146.685184 126.822825 
L 148.015463 125.680763 
L 149.345741 124.246011 
L 150.676019 122.4903 
L 152.006298 120.42004 
L 154.001715 116.844202 
L 157.992551 109.35948 
L 159.322829 107.219657 
L 160.653107 105.406215 
L 161.983386 103.948417 
L 163.313664 102.835702 
L 164.643943 102.027961 
L 165.974221 101.468633 
L 167.969639 100.963164 
L 170.630196 100.63616 
L 175.28617 100.184009 
L 177.281588 99.780349 
L 179.277005 99.108151 
L 180.607284 98.464721 
L 181.937562 97.636051 
L 183.26784 96.59772 
L 184.598119 95.325684 
L 185.928397 93.792176 
L 187.258676 91.96334 
L 188.588954 89.807118 
L 189.919232 87.3074 
L 191.91465 82.98342 
L 195.240346 75.419474 
L 196.570624 73.005542 
L 197.235764 72.081383 
L 197.900903 71.391069 
L 198.566042 70.961124 
L 199.231181 70.810241 
L 199.89632 70.947996 
L 200.56146 71.374068 
L 201.226599 72.077925 
L 201.891738 73.03914 
L 203.222016 75.608193 
L 205.217434 80.43969 
L 207.212852 85.272033 
L 208.54313 87.886338 
L 209.208269 88.907548 
L 209.873408 89.709107 
L 210.538548 90.27969 
L 211.203687 90.616954 
L 211.868826 90.727528 
L 212.533965 90.626255 
L 213.199104 90.33597 
L 214.529383 89.311896 
L 218.520218 85.457519 
L 219.185357 85.08427 
L 219.850496 84.856546 
L 220.515636 84.785138 
L 221.180775 84.873555 
L 221.845914 85.118385 
L 222.511053 85.510778 
L 223.841332 86.679809 
L 225.17161 88.24707 
L 227.167028 91.049631 
L 230.492724 96.255001 
L 233.81842 101.902741 
L 237.809255 109.235387 
L 243.795508 120.457968 
L 245.790925 123.69858 
L 247.121204 125.501279 
L 248.451482 126.933362 
L 249.781761 127.952771 
L 251.112039 128.553386 
L 252.442317 128.767098 
L 253.772596 128.660123 
L 255.102874 128.326263 
L 258.42857 127.296784 
L 259.758849 127.169159 
L 261.089127 127.401881 
L 262.419405 128.085857 
L 263.749684 129.253283 
L 265.079962 130.863131 
L 267.07538 133.844064 
L 269.735937 137.935667 
L 271.066215 139.634352 
L 272.396493 140.943471 
L 273.726772 141.824696 
L 275.05705 142.302418 
L 276.387329 142.447143 
L 277.717607 142.357197 
L 283.038721 141.630451 
L 284.368999 141.709953 
L 286.364417 142.116241 
L 289.024973 143.001437 
L 291.68553 143.820796 
L 293.015809 144.054722 
L 294.346087 144.12339 
L 295.676365 144.019137 
L 297.671783 143.569139 
L 299.667201 142.850816 
L 302.992897 141.347395 
L 306.318593 139.850639 
L 308.31401 139.168123 
L 309.644289 138.893843 
L 310.974567 138.820343 
L 312.304845 138.988784 
L 313.635124 139.424881 
L 314.965402 140.132994 
L 316.295681 141.094151 
L 318.291098 142.918956 
L 321.616794 146.486088 
L 324.277351 149.254136 
L 326.272769 151.039937 
L 328.268186 152.529218 
L 330.928743 154.176716 
L 336.249857 157.099824 
L 337.580135 157.660503 
L 338.910414 157.994916 
L 340.240692 157.982242 
L 340.905831 157.807838 
L 341.57097 157.503627 
L 342.23611 157.059209 
L 342.901249 156.46743 
L 344.231527 154.833325 
L 345.561806 152.630524 
L 346.892084 149.964276 
L 352.213198 138.453357 
L 353.543476 136.26477 
L 354.873754 134.518237 
L 356.204033 133.169619 
L 357.534311 132.128232 
L 359.529729 130.917632 
L 362.190286 129.591034 
L 364.850842 128.458854 
L 370.837095 126.134345 
L 372.167374 125.212706 
L 373.497652 123.940933 
L 374.82793 122.264808 
L 376.158209 120.185181 
L 378.153626 116.464878 
L 382.144462 108.626379 
L 383.47474 106.452248 
L 384.805018 104.660883 
L 386.135297 103.270574 
L 387.465575 102.252942 
L 388.795854 101.548867 
L 390.126132 101.084049 
L 392.12155 100.676418 
L 396.777524 99.947684 
L 398.107802 99.499201 
L 399.438081 98.789427 
L 400.768359 97.716184 
L 402.098638 96.183397 
L 403.428916 94.125206 
L 404.759194 91.536674 
L 406.754612 86.866083 
L 409.415169 80.310495 
L 410.745447 77.528705 
L 412.075726 75.390555 
L 412.740865 74.592589 
L 413.406004 73.969353 
L 414.736283 73.157948 
L 418.061979 71.764202 
L 418.727118 71.223196 
L 419.392257 70.510225 
L 420.722535 68.525181 
L 422.052814 65.86185 
L 426.043649 56.925651 
L 427.373927 54.867722 
L 428.039067 54.147128 
L 428.704206 53.637612 
L 429.369345 53.330763 
L 430.034484 53.209846 
L 430.699623 53.252381 
L 432.029902 53.725227 
L 433.36018 54.553215 
L 435.355598 56.159314 
L 437.351015 58.051054 
L 439.346433 60.229199 
L 445.332686 67.18697 
L 447.328103 68.880281 
L 452.649217 72.783443 
L 453.979495 74.264347 
L 455.309774 76.15002 
L 456.640052 78.4787 
L 457.970331 81.244965 
L 459.965748 86.111691 
L 462.626305 93.47456 
L 465.286862 100.879603 
L 466.61714 104.202468 
L 467.947419 107.059577 
L 469.277697 109.31965 
L 470.607975 110.89374 
L 471.273115 111.410233 
L 471.938254 111.746398 
L 472.603393 111.906737 
L 473.268532 111.899694 
L 473.933671 111.736905 
L 474.598811 111.43286 
L 475.929089 110.470677 
L 477.259367 109.166498 
L 481.915342 104.134021 
L 483.24562 103.055609 
L 484.575899 102.274999 
L 485.906177 101.838012 
L 487.236455 101.788381 
L 487.901595 101.924696 
L 488.566734 102.177602 
L 489.231873 102.553967 
L 490.562152 103.702781 
L 491.89243 105.410536 
L 493.222708 107.684893 
L 494.552987 110.487814 
L 496.548404 115.48308 
L 503.864936 135.317346 
L 505.860353 139.84143 
L 507.855771 143.839141 
L 509.851188 147.381387 
L 512.511745 151.624721 
L 516.50258 157.534587 
L 518.497998 160.221443 
L 519.828276 161.757794 
L 521.158555 162.969752 
L 522.488833 163.756957 
L 523.153972 163.966652 
L 523.819112 164.045455 
L 524.484251 163.991197 
L 525.14939 163.805115 
L 526.479668 163.060767 
L 527.809947 161.892844 
L 529.805364 159.625241 
L 533.13106 155.700725 
L 534.461339 154.445521 
L 535.791617 153.485255 
L 537.121896 152.847871 
L 538.452174 152.53193 
L 539.782452 152.513197 
L 541.112731 152.749883 
L 542.443009 153.186895 
L 544.438427 154.078764 
L 548.429262 155.954386 
L 550.42468 156.669914 
L 553.085236 157.37142 
L 560.401768 158.927797 
L 562.397185 159.100796 
L 563.727464 159.038067 
L 565.057742 158.813417 
L 567.05316 158.208839 
L 573.039413 156.032217 
L 576.365109 155.314852 
L 578.360526 154.83144 
L 580.355944 154.089567 
L 581.686222 153.393479 
L 583.68164 152.027521 
L 585.677057 150.330806 
L 592.328449 144.256848 
L 594.323867 142.933803 
L 596.319285 141.962857 
L 598.314702 141.275137 
L 601.640398 140.450868 
L 607.626651 138.981522 
L 616.9386 136.384846 
L 619.599157 135.413047 
L 621.594574 134.47047 
L 623.589992 133.230141 
L 624.92027 132.165589 
L 626.250549 130.850341 
L 627.580827 129.233298 
L 628.911105 127.276431 
L 630.241384 124.968653 
L 632.236801 120.922823 
L 637.557915 109.259892 
L 638.888193 106.874073 
L 640.218472 104.892546 
L 641.54875 103.333521 
L 642.879029 102.171684 
L 644.209307 101.351385 
L 645.539585 100.80206 
L 646.869864 100.451923 
L 648.865282 100.165181 
L 656.181813 99.512696 
L 657.512091 99.173212 
L 658.84237 98.665986 
L 660.172648 97.949269 
L 661.502926 96.993463 
L 662.833205 95.789599 
L 664.828622 93.560952 
L 666.82404 90.956452 
L 670.149736 86.174054 
L 672.810293 81.990336 
L 674.80571 78.498727 
L 677.466267 73.315334 
L 684.782798 58.549172 
L 688.108494 52.585096 
L 690.769051 48.186279 
L 692.764469 45.215392 
L 694.094747 43.502152 
L 695.425026 42.114595 
L 696.755304 41.177741 
L 697.420443 40.920827 
L 698.085582 40.828604 
L 698.750722 40.917874 
L 699.415861 41.203374 
L 700.081 41.69748 
L 700.746139 42.408685 
L 701.411278 43.3411 
L 702.741557 45.858642 
L 704.071835 49.165739 
L 706.067253 55.179498 
L 709.392949 65.56285 
L 710.723227 68.995622 
L 712.053506 71.75839 
L 713.383784 73.856649 
L 714.714062 75.422836 
L 719.370037 80.044043 
L 720.700315 81.950465 
L 722.030594 84.280592 
L 723.360872 86.995804 
L 725.35629 91.575195 
L 729.347125 100.985949 
L 731.342543 105.16574 
L 733.33796 108.903651 
L 737.993935 116.931167 
L 741.319631 122.495648 
L 743.315048 125.329333 
L 744.645327 126.818852 
L 745.975605 127.935105 
L 747.305883 128.695966 
L 748.636162 129.177458 
L 753.292136 130.477059 
L 754.622415 131.171326 
L 756.617832 132.555172 
L 759.943528 135.043725 
L 761.273807 135.791685 
L 762.604085 136.28663 
L 763.934363 136.510086 
L 765.264642 136.482813 
L 766.59492 136.25335 
L 768.590338 135.668357 
L 773.246312 134.170832 
L 775.906869 133.638429 
L 778.567426 133.368642 
L 782.558261 133.250307 
L 792.535349 133.165382 
L 795.861045 132.688246 
L 799.85188 132.10992 
L 803.842715 131.818302 
L 807.168412 131.528556 
L 809.828968 131.051347 
L 813.154664 130.153725 
L 816.48036 129.242017 
L 818.475778 128.871369 
L 820.471196 128.70031 
L 823.131752 128.749285 
L 830.448284 129.163846 
L 833.10884 129.018897 
L 835.104258 128.691092 
L 836.434536 128.302566 
L 837.764815 127.716423 
L 839.095093 126.873263 
L 840.425372 125.720883 
L 841.75565 124.229927 
L 843.085928 122.408761 
L 845.081346 119.190354 
L 849.072181 112.476233 
L 850.40246 110.629136 
L 851.732738 109.115032 
L 853.063016 107.941644 
L 854.393295 107.069429 
L 855.723573 106.426693 
L 858.38413 105.495233 
L 861.709826 104.344603 
L 870.356636 101.019062 
L 873.017192 100.483763 
L 875.677749 100.201943 
L 879.668584 100.043169 
L 890.310812 99.969223 
L 896.297065 99.833144 
L 898.292482 99.603219 
L 899.622761 99.29586 
L 900.953039 98.782633 
L 902.283317 97.96899 
L 903.613596 96.746661 
L 904.943874 95.003939 
L 906.274153 92.646096 
L 907.604431 89.619545 
L 908.934709 85.930914 
L 910.930127 79.363442 
L 916.251241 60.65656 
L 917.581519 56.848597 
L 918.911797 53.589246 
L 920.242076 50.839744 
L 921.572354 48.521428 
L 922.902633 46.561491 
L 924.232911 44.926453 
L 925.563189 43.632914 
L 926.893468 42.727269 
L 928.223746 42.255505 
L 928.888885 42.189195 
L 930.219164 42.388312 
L 931.549442 42.999101 
L 932.879721 43.982474 
L 934.209999 45.326764 
L 935.540277 47.072604 
L 936.870556 49.313068 
L 938.200834 52.17101 
L 939.531113 55.753505 
L 940.861391 60.106903 
L 942.191669 65.178538 
L 944.187087 73.741539 
L 946.847644 85.388675 
L 948.177922 90.568887 
L 949.508201 94.968201 
L 950.838479 98.453083 
L 952.168757 101.013398 
L 953.499036 102.742351 
L 954.829314 103.80086 
L 956.159593 104.369289 
L 957.489871 104.607385 
L 958.820149 104.630423 
L 960.815567 104.39787 
L 962.810985 103.91016 
L 964.806402 103.206422 
L 970.792655 100.881693 
L 972.122934 100.606933 
L 973.453212 100.526071 
L 974.78349 100.706437 
L 976.113769 101.237792 
L 976.778908 101.670318 
L 977.444047 102.235452 
L 978.109186 102.950048 
L 979.439465 104.891906 
L 980.769743 107.606531 
L 982.100022 111.154584 
L 983.4303 115.519415 
L 984.760578 120.593166 
L 987.421135 132.019564 
L 990.081692 143.244172 
L 991.41197 148.045911 
L 992.742249 151.98976 
L 994.072527 154.928399 
L 994.737666 156.00026 
L 995.402806 156.808882 
L 996.067945 157.363402 
L 996.733084 157.678826 
L 997.398223 157.775262 
L 998.063362 157.676985 
L 998.728502 157.411257 
L 1000.05878 156.494054 
L 1002.054198 154.578047 
L 1004.714754 151.953886 
L 1006.045033 150.857673 
L 1007.375311 149.970954 
L 1008.70559 149.309858 
L 1010.035868 148.875636 
L 1011.366146 148.656926 
L 1012.696425 148.629584 
L 1014.691842 148.85696 
L 1020.012956 149.727635 
L 1020.678095 149.75627 
L 1020.678095 149.75627 
" clip-path="url(#p51c3f8eb6a)" style="fill: none; stroke: #0000ff; stroke-width: 1.5; stroke-linecap: square"/>
   </g>
   <g id="line2d_15">
    <path d="M 50.24 151.293008 
L 52.235418 151.468775 
L 54.230835 151.913966 
L 56.226253 152.645474 
L 58.22167 153.68192 
L 60.217088 155.007268 
L 65.538202 158.916691 
L 66.86848 159.615489 
L 68.198758 160.079037 
L 69.529037 160.278707 
L 70.859315 160.21004 
L 72.189594 159.888238 
L 73.519872 159.341098 
L 74.85015 158.601921 
L 76.845568 157.206001 
L 79.506125 154.966713 
L 88.818074 146.645678 
L 91.478631 144.811556 
L 94.139187 143.308875 
L 96.799744 142.067254 
L 100.790579 140.491776 
L 117.419059 134.430901 
L 121.409895 133.324798 
L 126.065869 132.318632 
L 136.042957 130.268998 
L 139.368653 129.35924 
L 142.02921 128.396326 
L 144.024627 127.417828 
L 145.354906 126.576734 
L 146.685184 125.534384 
L 148.015463 124.249014 
L 149.345741 122.689537 
L 150.676019 120.845675 
L 152.671437 117.597983 
L 159.322829 105.933803 
L 160.653107 104.173456 
L 161.983386 102.738937 
L 163.313664 101.62474 
L 164.643943 100.799409 
L 165.974221 100.215107 
L 167.969639 99.670543 
L 170.630196 99.291114 
L 175.28617 98.689717 
L 177.281588 98.204658 
L 179.277005 97.466549 
L 180.607284 96.793761 
L 181.937562 95.945402 
L 183.26784 94.891009 
L 184.598119 93.595351 
L 185.928397 92.018962 
L 187.258676 90.122484 
L 188.588954 87.876786 
L 189.919232 85.279468 
L 191.91465 80.839759 
L 195.240346 73.284604 
L 196.570624 70.925523 
L 197.235764 70.026239 
L 197.900903 69.353281 
L 198.566042 68.929394 
L 199.231181 68.770165 
L 199.89632 68.883062 
L 200.56146 69.266716 
L 201.226599 69.910808 
L 201.891738 70.796332 
L 203.222016 73.176877 
L 205.217434 77.689197 
L 207.212852 82.259592 
L 208.54313 84.778538 
L 209.873408 86.588632 
L 210.538548 87.185174 
L 211.203687 87.568845 
L 211.868826 87.744108 
L 212.533965 87.722955 
L 213.199104 87.524278 
L 214.529383 86.698938 
L 216.5248 84.88385 
L 217.855079 83.701685 
L 219.185357 82.836913 
L 219.850496 82.581833 
L 220.515636 82.464782 
L 221.180775 82.493032 
L 221.845914 82.668024 
L 222.511053 82.985885 
L 223.841332 84.01276 
L 225.17161 85.469229 
L 227.167028 88.182912 
L 230.492724 93.292517 
L 234.483559 99.754746 
L 237.809255 105.566329 
L 244.460647 117.48663 
L 246.456064 120.381159 
L 247.786343 121.929564 
L 249.116621 123.11893 
L 250.4469 123.931186 
L 251.777178 124.379259 
L 253.107457 124.508534 
L 254.437735 124.394405 
L 259.093709 123.634957 
L 260.423988 123.793868 
L 261.754266 124.292908 
L 263.084545 125.173614 
L 264.414823 126.430617 
L 265.745101 128.010363 
L 267.740519 130.77071 
L 271.066215 135.397164 
L 272.396493 136.949916 
L 273.726772 138.244567 
L 275.05705 139.273442 
L 276.387329 140.058493 
L 277.717607 140.640134 
L 279.713025 141.234552 
L 282.373581 141.725115 
L 287.029556 142.270193 
L 291.020391 142.53519 
L 293.680948 142.510465 
L 296.341505 142.232518 
L 299.002061 141.667717 
L 302.327757 140.644865 
L 306.318593 139.39249 
L 308.31401 139.018782 
L 309.644289 138.953282 
L 310.974567 139.076125 
L 312.304845 139.412402 
L 313.635124 139.973074 
L 314.965402 140.75233 
L 316.96082 142.27778 
L 319.621377 144.763533 
L 324.94249 149.967641 
L 327.603047 152.25185 
L 330.263604 154.26481 
L 332.924161 156.025633 
L 334.919578 157.146415 
L 336.914996 157.991308 
L 338.245274 158.315067 
L 339.575553 158.365212 
L 340.905831 158.06289 
L 342.23611 157.334251 
L 343.566388 156.125684 
L 344.896666 154.419392 
L 346.226945 152.245171 
L 348.222362 148.297098 
L 352.878337 138.397164 
L 354.208615 136.029473 
L 355.538894 134.020748 
L 356.869172 132.378407 
L 358.19945 131.071015 
L 359.529729 130.043041 
L 361.525146 128.884954 
L 363.520564 128.01432 
L 369.506817 125.685378 
L 370.837095 124.940074 
L 372.167374 123.98935 
L 373.497652 122.777766 
L 374.82793 121.268093 
L 376.158209 119.453357 
L 378.153626 116.239289 
L 383.47474 107.057578 
L 384.805018 105.212468 
L 386.135297 103.687662 
L 387.465575 102.489658 
L 388.795854 101.592207 
L 390.126132 100.946296 
L 392.12155 100.31393 
L 397.442663 99.033486 
L 398.772942 98.426674 
L 400.10322 97.546979 
L 401.433498 96.314854 
L 402.763777 94.669019 
L 404.094055 92.585379 
L 405.424334 90.095514 
L 407.419751 85.832803 
L 410.080308 80.120553 
L 411.410587 77.706282 
L 412.740865 75.773889 
L 414.071143 74.340497 
L 415.401422 73.304602 
L 418.727118 71.039604 
L 420.057396 69.669687 
L 421.387675 67.848727 
L 422.717953 65.625494 
L 426.708788 58.563627 
L 428.039067 56.890523 
L 428.704206 56.283941 
L 429.369345 55.842639 
L 430.034484 55.567996 
L 430.699623 55.455962 
L 431.364763 55.4979 
L 432.029902 55.681579 
L 433.36018 56.413499 
L 434.690459 57.520238 
L 436.685876 59.601197 
L 441.341851 64.766594 
L 443.337268 66.662149 
L 445.332686 68.273633 
L 448.658382 70.559924 
L 450.653799 72.027636 
L 451.984078 73.218774 
L 453.314356 74.677526 
L 454.644635 76.471411 
L 455.974913 78.643386 
L 457.305191 81.205049 
L 459.300609 85.716705 
L 461.961166 92.580555 
L 464.621723 99.515256 
L 466.61714 104.053171 
L 467.947419 106.50352 
L 469.277697 108.374709 
L 469.942836 109.073754 
L 470.607975 109.610668 
L 471.273115 109.986008 
L 471.938254 110.203384 
L 472.603393 110.269348 
L 473.268532 110.193174 
L 473.933671 109.986553 
L 475.26395 109.23857 
L 476.594228 108.152174 
L 479.254785 105.514648 
L 481.250203 103.631418 
L 482.580481 102.616103 
L 483.910759 101.884644 
L 485.241038 101.500191 
L 486.571316 101.517314 
L 487.236455 101.691777 
L 487.901595 101.984128 
L 489.231873 102.940413 
L 490.562152 104.411993 
L 491.89243 106.403229 
L 493.222708 108.890518 
L 494.552987 111.819509 
L 496.548404 116.854239 
L 503.864936 136.485359 
L 505.860353 140.981318 
L 507.855771 144.949353 
L 509.851188 148.471054 
L 512.511745 152.679192 
L 515.172302 156.505549 
L 517.16772 159.086563 
L 518.497998 160.58798 
L 519.828276 161.83784 
L 521.158555 162.767949 
L 522.488833 163.321745 
L 523.819112 163.466441 
L 525.14939 163.201668 
L 526.479668 162.562711 
L 527.809947 161.61759 
L 529.805364 159.831539 
L 533.13106 156.726671 
L 535.126478 155.243909 
L 536.456756 154.509341 
L 537.787035 153.98768 
L 539.117313 153.665132 
L 540.447592 153.515234 
L 542.443009 153.54256 
L 545.103566 153.884352 
L 549.094401 154.685348 
L 556.410932 156.191471 
L 559.071489 156.55479 
L 561.732046 156.693833 
L 563.727464 156.606645 
L 565.722881 156.340414 
L 568.383438 155.72511 
L 571.043995 154.875486 
L 575.03483 153.340308 
L 582.351361 150.224062 
L 596.984424 143.710706 
L 606.296373 139.379167 
L 612.947765 136.047872 
L 616.273461 134.188204 
L 618.934017 132.473237 
L 620.929435 130.970756 
L 622.924853 129.221757 
L 624.92027 127.191446 
L 626.915688 124.882094 
L 629.576245 121.457864 
L 636.227637 112.658425 
L 638.223054 110.374223 
L 640.218472 108.375185 
L 642.213889 106.682467 
L 644.209307 105.288077 
L 646.204725 104.157595 
L 648.865282 102.958865 
L 655.516674 100.234193 
L 657.512091 99.086114 
L 659.507509 97.63026 
L 661.502926 95.820873 
L 663.498344 93.649155 
L 665.493762 91.136929 
L 667.489179 88.320412 
L 670.149736 84.142797 
L 672.810293 79.49514 
L 675.47085 74.333843 
L 678.131406 68.607289 
L 680.791963 62.331592 
L 688.773634 42.76251 
L 690.103912 40.184395 
L 691.43419 38.129701 
L 692.09933 37.344509 
L 692.764469 36.743785 
L 693.429608 36.34283 
L 694.094747 36.154545 
L 694.759886 36.188814 
L 695.425026 36.451894 
L 696.090165 36.945966 
L 696.755304 37.668755 
L 697.420443 38.613334 
L 698.750722 41.117011 
L 700.081 44.312705 
L 702.076418 49.956159 
L 705.402114 59.714422 
L 707.397531 64.757911 
L 708.72781 67.595381 
L 710.058088 70.031018 
L 712.053506 73.117778 
L 716.70948 79.794134 
L 718.704898 83.213239 
L 720.700315 87.117621 
L 723.360872 92.87657 
L 729.347125 106.096001 
L 732.007682 111.411693 
L 734.668239 116.174869 
L 736.663656 119.326117 
L 738.659074 122.081193 
L 740.654491 124.430171 
L 742.649909 126.392999 
L 744.645327 128.018675 
L 746.640744 129.374176 
L 749.301301 130.878584 
L 752.626997 132.435754 
L 755.952693 133.707947 
L 758.61325 134.481471 
L 760.608667 134.87909 
L 762.604085 135.099167 
L 764.599503 135.141463 
L 767.260059 134.959272 
L 770.585755 134.477593 
L 779.897704 132.965529 
L 785.883957 132.332945 
L 799.186741 130.991141 
L 819.140917 128.624479 
L 826.457448 127.662255 
L 829.783144 127.011462 
L 832.443701 126.242569 
L 834.439119 125.432015 
L 836.434536 124.347257 
L 838.429954 122.931392 
L 840.425372 121.157423 
L 842.420789 119.046726 
L 845.081346 115.853264 
L 849.73732 110.184049 
L 851.732738 108.112443 
L 853.728156 106.385963 
L 855.723573 105.004637 
L 857.718991 103.914674 
L 860.379548 102.784275 
L 863.705244 101.692296 
L 867.03094 100.853522 
L 870.356636 100.270507 
L 873.682332 99.94325 
L 877.673167 99.810548 
L 884.324559 99.886134 
L 890.975951 99.940124 
L 893.636508 99.729764 
L 895.631925 99.282652 
L 896.962204 98.744708 
L 898.292482 97.93164 
L 899.622761 96.764036 
L 900.953039 95.164004 
L 902.283317 93.06604 
L 903.613596 90.429071 
L 904.943874 87.247455 
L 906.274153 83.558435 
L 908.26957 77.262957 
L 914.255823 57.292087 
L 916.251241 51.794099 
L 917.581519 48.691003 
L 918.911797 46.063721 
L 920.242076 43.913093 
L 921.572354 42.230504 
L 922.902633 41.004391 
L 924.232911 40.224031 
L 925.563189 39.881087 
L 926.893468 39.970333 
L 928.223746 40.490788 
L 929.554025 41.44748 
L 930.884303 42.853226 
L 932.214581 44.728547 
L 933.54486 47.098238 
L 934.875138 49.983563 
L 936.205417 53.390954 
L 937.535695 57.299576 
L 939.531113 63.962609 
L 946.182505 87.428934 
L 947.512783 91.119353 
L 948.843061 94.195879 
L 950.17334 96.629083 
L 951.503618 98.437739 
L 952.833897 99.679545 
L 954.164175 100.438243 
L 955.494453 100.809744 
L 956.824732 100.889955 
L 958.15501 100.76594 
L 960.150428 100.353729 
L 965.471541 99.092707 
L 967.466959 98.922262 
L 968.797238 99.008896 
L 970.127516 99.313214 
L 971.457794 99.889348 
L 972.788073 100.793159 
L 974.118351 102.07871 
L 975.44863 103.79388 
L 976.778908 105.975129 
L 978.109186 108.641282 
L 979.439465 111.786972 
L 981.434882 117.318227 
L 984.095439 125.76369 
L 987.421135 136.563007 
L 989.416553 142.281489 
L 990.746831 145.513777 
L 992.07711 148.188164 
L 993.407388 150.268585 
L 994.737666 151.759519 
L 996.067945 152.702416 
L 997.398223 153.168404 
L 998.728502 153.24839 
L 1000.05878 153.041816 
L 1002.054198 152.404671 
L 1007.375311 150.42794 
L 1010.035868 149.765441 
L 1012.696425 149.338531 
L 1016.022121 149.02283 
L 1020.012956 148.858332 
L 1020.678095 148.852136 
L 1020.678095 148.852136 
" clip-path="url(#p51c3f8eb6a)" style="fill: none; stroke: #ff0000; stroke-width: 1.5; stroke-linecap: square"/>
   </g>
   <g id="line2d_16">
    <path d="M 535.791617 170.44 
L 535.791617 29.76 
" clip-path="url(#p51c3f8eb6a)" style="fill: none; stroke: #1f77b4; stroke-width: 1.5; stroke-linecap: square"/>
   </g>
   <g id="patch_3">
    <path d="M 50.24 170.44 
L 50.24 29.76 
" style="fill: none; stroke: #000000; stroke-width: 0.8; stroke-linejoin: miter; stroke-linecap: square"/>
   </g>
   <g id="patch_4">
    <path d="M 1069.2 170.44 
L 1069.2 29.76 
" style="fill: none; stroke: #000000; stroke-width: 0.8; stroke-linejoin: miter; stroke-linecap: square"/>
   </g>
   <g id="patch_5">
    <path d="M 50.24 170.44 
L 1069.2 170.44 
" style="fill: none; stroke: #000000; stroke-width: 0.8; stroke-linejoin: miter; stroke-linecap: square"/>
   </g>
   <g id="patch_6">
    <path d="M 50.24 29.76 
L 1069.2 29.76 
" style="fill: none; stroke: #000000; stroke-width: 0.8; stroke-linejoin: miter; stroke-linecap: square"/>
   </g>
   <g id="text_16">
    <!-- Heat Conduction Equation Solution at x=0.25M -->
    <g transform="translate(370.395 23.76) scale(0.16 -0.16)">
     <defs>
      <path id="DejaVuSans-48" d="M 628 4666 
L 1259 4666 
L 1259 2753 
L 3553 2753 
L 3553 4666 
L 4184 4666 
L 4184 0 
L 3553 0 
L 3553 2222 
L 1259 2222 
L 1259 0 
L 628 0 
L 628 4666 
z
" transform="scale(0.015625)"/>
      <path id="DejaVuSans-43" d="M 4122 4306 
L 4122 3641 
Q 3803 3938 3442 4084 
Q 3081 4231 2675 4231 
Q 1875 4231 1450 3742 
Q 1025 3253 1025 2328 
Q 1025 1406 1450 917 
Q 1875 428 2675 428 
Q 3081 428 3442 575 
Q 3803 722 4122 1019 
L 4122 359 
Q 3791 134 3420 21 
Q 3050 -91 2638 -91 
Q 1578 -91 968 557 
Q 359 1206 359 2328 
Q 359 3453 968 4101 
Q 1578 4750 2638 4750 
Q 3056 4750 3426 4639 
Q 3797 4528 4122 4306 
z
" transform="scale(0.015625)"/>
      <path id="DejaVuSans-64" d="M 2906 2969 
L 2906 4863 
L 3481 4863 
L 3481 0 
L 2906 0 
L 2906 525 
Q 2725 213 2448 61 
Q 2172 -91 1784 -91 
Q 1150 -91 751 415 
Q 353 922 353 1747 
Q 353 2572 751 3078 
Q 1150 3584 1784 3584 
Q 2172 3584 2448 3432 
Q 2725 3281 2906 2969 
z
M 947 1747 
Q 947 1113 1208 752 
Q 1469 391 1925 391 
Q 2381 391 2643 752 
Q 2906 1113 2906 1747 
Q 2906 2381 2643 2742 
Q 2381 3103 1925 3103 
Q 1469 3103 1208 2742 
Q 947 2381 947 1747 
z
" transform="scale(0.015625)"/>
      <path id="DejaVuSans-63" d="M 3122 3366 
L 3122 2828 
Q 2878 2963 2633 3030 
Q 2388 3097 2138 3097 
Q 1578 3097 1268 2742 
Q 959 2388 959 1747 
Q 959 1106 1268 751 
Q 1578 397 2138 397 
Q 2388 397 2633 464 
Q 2878 531 3122 666 
L 3122 134 
Q 2881 22 2623 -34 
Q 2366 -91 2075 -91 
Q 1284 -91 818 406 
Q 353 903 353 1747 
Q 353 2603 823 3093 
Q 1294 3584 2113 3584 
Q 2378 3584 2631 3529 
Q 2884 3475 3122 3366 
z
" transform="scale(0.015625)"/>
      <path id="DejaVuSans-45" d="M 628 4666 
L 3578 4666 
L 3578 4134 
L 1259 4134 
L 1259 2753 
L 3481 2753 
L 3481 2222 
L 1259 2222 
L 1259 531 
L 3634 531 
L 3634 0 
L 628 0 
L 628 4666 
z
" transform="scale(0.015625)"/>
      <path id="DejaVuSans-71" d="M 947 1747 
Q 947 1113 1208 752 
Q 1469 391 1925 391 
Q 2381 391 2643 752 
Q 2906 1113 2906 1747 
Q 2906 2381 2643 2742 
Q 2381 3103 1925 3103 
Q 1469 3103 1208 2742 
Q 947 2381 947 1747 
z
M 2906 525 
Q 2725 213 2448 61 
Q 2172 -91 1784 -91 
Q 1150 -91 751 415 
Q 353 922 353 1747 
Q 353 2572 751 3078 
Q 1150 3584 1784 3584 
Q 2172 3584 2448 3432 
Q 2725 3281 2906 2969 
L 2906 3500 
L 3481 3500 
L 3481 -1331 
L 2906 -1331 
L 2906 525 
z
" transform="scale(0.015625)"/>
      <path id="DejaVuSans-78" d="M 3513 3500 
L 2247 1797 
L 3578 0 
L 2900 0 
L 1881 1375 
L 863 0 
L 184 0 
L 1544 1831 
L 300 3500 
L 978 3500 
L 1906 2253 
L 2834 3500 
L 3513 3500 
z
" transform="scale(0.015625)"/>
      <path id="DejaVuSans-3d" d="M 678 2906 
L 4684 2906 
L 4684 2381 
L 678 2381 
L 678 2906 
z
M 678 1631 
L 4684 1631 
L 4684 1100 
L 678 1100 
L 678 1631 
z
" transform="scale(0.015625)"/>
      <path id="DejaVuSans-2e" d="M 684 794 
L 1344 794 
L 1344 0 
L 684 0 
L 684 794 
z
" transform="scale(0.015625)"/>
      <path id="DejaVuSans-35" d="M 691 4666 
L 3169 4666 
L 3169 4134 
L 1269 4134 
L 1269 2991 
Q 1406 3038 1543 3061 
Q 1681 3084 1819 3084 
Q 2600 3084 3056 2656 
Q 3513 2228 3513 1497 
Q 3513 744 3044 326 
Q 2575 -91 1722 -91 
Q 1428 -91 1123 -41 
Q 819 9 494 109 
L 494 744 
Q 775 591 1075 516 
Q 1375 441 1709 441 
Q 2250 441 2565 725 
Q 2881 1009 2881 1497 
Q 2881 1984 2565 2268 
Q 2250 2553 1709 2553 
Q 1456 2553 1204 2497 
Q 953 2441 691 2322 
L 691 4666 
z
" transform="scale(0.015625)"/>
      <path id="DejaVuSans-4d" d="M 628 4666 
L 1569 4666 
L 2759 1491 
L 3956 4666 
L 4897 4666 
L 4897 0 
L 4281 0 
L 4281 4097 
L 3078 897 
L 2444 897 
L 1241 4097 
L 1241 0 
L 628 0 
L 628 4666 
z
" transform="scale(0.015625)"/>
     </defs>
     <use xlink:href="#DejaVuSans-48"/>
     <use xlink:href="#DejaVuSans-65" transform="translate(75.195312 0)"/>
     <use xlink:href="#DejaVuSans-61" transform="translate(136.71875 0)"/>
     <use xlink:href="#DejaVuSans-74" transform="translate(197.998047 0)"/>
     <use xlink:href="#DejaVuSans-20" transform="translate(237.207031 0)"/>
     <use xlink:href="#DejaVuSans-43" transform="translate(268.994141 0)"/>
     <use xlink:href="#DejaVuSans-6f" transform="translate(338.818359 0)"/>
     <use xlink:href="#DejaVuSans-6e" transform="translate(400 0)"/>
     <use xlink:href="#DejaVuSans-64" transform="translate(463.378906 0)"/>
     <use xlink:href="#DejaVuSans-75" transform="translate(526.855469 0)"/>
     <use xlink:href="#DejaVuSans-63" transform="translate(590.234375 0)"/>
     <use xlink:href="#DejaVuSans-74" transform="translate(645.214844 0)"/>
     <use xlink:href="#DejaVuSans-69" transform="translate(684.423828 0)"/>
     <use xlink:href="#DejaVuSans-6f" transform="translate(712.207031 0)"/>
     <use xlink:href="#DejaVuSans-6e" transform="translate(773.388672 0)"/>
     <use xlink:href="#DejaVuSans-20" transform="translate(836.767578 0)"/>
     <use xlink:href="#DejaVuSans-45" transform="translate(868.554688 0)"/>
     <use xlink:href="#DejaVuSans-71" transform="translate(931.738281 0)"/>
     <use xlink:href="#DejaVuSans-75" transform="translate(995.214844 0)"/>
     <use xlink:href="#DejaVuSans-61" transform="translate(1058.59375 0)"/>
     <use xlink:href="#DejaVuSans-74" transform="translate(1119.873047 0)"/>
     <use xlink:href="#DejaVuSans-69" transform="translate(1159.082031 0)"/>
     <use xlink:href="#DejaVuSans-6f" transform="translate(1186.865234 0)"/>
     <use xlink:href="#DejaVuSans-6e" transform="translate(1248.046875 0)"/>
     <use xlink:href="#DejaVuSans-20" transform="translate(1311.425781 0)"/>
     <use xlink:href="#DejaVuSans-53" transform="translate(1343.212891 0)"/>
     <use xlink:href="#DejaVuSans-6f" transform="translate(1406.689453 0)"/>
     <use xlink:href="#DejaVuSans-6c" transform="translate(1467.871094 0)"/>
     <use xlink:href="#DejaVuSans-75" transform="translate(1495.654297 0)"/>
     <use xlink:href="#DejaVuSans-74" transform="translate(1559.033203 0)"/>
     <use xlink:href="#DejaVuSans-69" transform="translate(1598.242188 0)"/>
     <use xlink:href="#DejaVuSans-6f" transform="translate(1626.025391 0)"/>
     <use xlink:href="#DejaVuSans-6e" transform="translate(1687.207031 0)"/>
     <use xlink:href="#DejaVuSans-20" transform="translate(1750.585938 0)"/>
     <use xlink:href="#DejaVuSans-61" transform="translate(1782.373047 0)"/>
     <use xlink:href="#DejaVuSans-74" transform="translate(1843.652344 0)"/>
     <use xlink:href="#DejaVuSans-20" transform="translate(1882.861328 0)"/>
     <use xlink:href="#DejaVuSans-78" transform="translate(1914.648438 0)"/>
     <use xlink:href="#DejaVuSans-3d" transform="translate(1973.828125 0)"/>
     <use xlink:href="#DejaVuSans-30" transform="translate(2057.617188 0)"/>
     <use xlink:href="#DejaVuSans-2e" transform="translate(2121.240234 0)"/>
     <use xlink:href="#DejaVuSans-32" transform="translate(2153.027344 0)"/>
     <use xlink:href="#DejaVuSans-35" transform="translate(2216.650391 0)"/>
     <use xlink:href="#DejaVuSans-4d" transform="translate(2280.273438 0)"/>
    </g>
   </g>
   <g id="legend_1">
    <g id="patch_7">
     <path d="M 949.325625 74.5875 
L 1060.8 74.5875 
Q 1063.2 74.5875 1063.2 72.1875 
L 1063.2 38.16 
Q 1063.2 35.76 1060.8 35.76 
L 949.325625 35.76 
Q 946.925625 35.76 946.925625 38.16 
L 946.925625 72.1875 
Q 946.925625 74.5875 949.325625 74.5875 
z
" style="fill: #ffffff; opacity: 0.8; stroke: #cccccc; stroke-linejoin: miter"/>
    </g>
    <g id="line2d_17">
     <path d="M 951.725625 45.478125 
L 963.725625 45.478125 
L 975.725625 45.478125 
" style="fill: none; stroke: #0000ff; stroke-width: 1.5; stroke-linecap: square"/>
    </g>
    <g id="text_17">
     <!-- Observation -->
     <g transform="translate(985.325625 49.678125) scale(0.12 -0.12)">
      <defs>
       <path id="DejaVuSans-4f" d="M 2522 4238 
Q 1834 4238 1429 3725 
Q 1025 3213 1025 2328 
Q 1025 1447 1429 934 
Q 1834 422 2522 422 
Q 3209 422 3611 934 
Q 4013 1447 4013 2328 
Q 4013 3213 3611 3725 
Q 3209 4238 2522 4238 
z
M 2522 4750 
Q 3503 4750 4090 4092 
Q 4678 3434 4678 2328 
Q 4678 1225 4090 567 
Q 3503 -91 2522 -91 
Q 1538 -91 948 565 
Q 359 1222 359 2328 
Q 359 3434 948 4092 
Q 1538 4750 2522 4750 
z
" transform="scale(0.015625)"/>
       <path id="DejaVuSans-62" d="M 3116 1747 
Q 3116 2381 2855 2742 
Q 2594 3103 2138 3103 
Q 1681 3103 1420 2742 
Q 1159 2381 1159 1747 
Q 1159 1113 1420 752 
Q 1681 391 2138 391 
Q 2594 391 2855 752 
Q 3116 1113 3116 1747 
z
M 1159 2969 
Q 1341 3281 1617 3432 
Q 1894 3584 2278 3584 
Q 2916 3584 3314 3078 
Q 3713 2572 3713 1747 
Q 3713 922 3314 415 
Q 2916 -91 2278 -91 
Q 1894 -91 1617 61 
Q 1341 213 1159 525 
L 1159 0 
L 581 0 
L 581 4863 
L 1159 4863 
L 1159 2969 
z
" transform="scale(0.015625)"/>
       <path id="DejaVuSans-76" d="M 191 3500 
L 800 3500 
L 1894 563 
L 2988 3500 
L 3597 3500 
L 2284 0 
L 1503 0 
L 191 3500 
z
" transform="scale(0.015625)"/>
      </defs>
      <use xlink:href="#DejaVuSans-4f"/>
      <use xlink:href="#DejaVuSans-62" transform="translate(78.710938 0)"/>
      <use xlink:href="#DejaVuSans-73" transform="translate(142.1875 0)"/>
      <use xlink:href="#DejaVuSans-65" transform="translate(194.287109 0)"/>
      <use xlink:href="#DejaVuSans-72" transform="translate(255.810547 0)"/>
      <use xlink:href="#DejaVuSans-76" transform="translate(296.923828 0)"/>
      <use xlink:href="#DejaVuSans-61" transform="translate(356.103516 0)"/>
      <use xlink:href="#DejaVuSans-74" transform="translate(417.382812 0)"/>
      <use xlink:href="#DejaVuSans-69" transform="translate(456.591797 0)"/>
      <use xlink:href="#DejaVuSans-6f" transform="translate(484.375 0)"/>
      <use xlink:href="#DejaVuSans-6e" transform="translate(545.556641 0)"/>
     </g>
    </g>
    <g id="line2d_18">
     <path d="M 951.725625 63.091875 
L 963.725625 63.091875 
L 975.725625 63.091875 
" style="fill: none; stroke: #ff0000; stroke-width: 1.5; stroke-linecap: square"/>
    </g>
    <g id="text_18">
     <!-- Predicted -->
     <g transform="translate(985.325625 67.291875) scale(0.12 -0.12)">
      <defs>
       <path id="DejaVuSans-50" d="M 1259 4147 
L 1259 2394 
L 2053 2394 
Q 2494 2394 2734 2622 
Q 2975 2850 2975 3272 
Q 2975 3691 2734 3919 
Q 2494 4147 2053 4147 
L 1259 4147 
z
M 628 4666 
L 2053 4666 
Q 2838 4666 3239 4311 
Q 3641 3956 3641 3272 
Q 3641 2581 3239 2228 
Q 2838 1875 2053 1875 
L 1259 1875 
L 1259 0 
L 628 0 
L 628 4666 
z
" transform="scale(0.015625)"/>
      </defs>
      <use xlink:href="#DejaVuSans-50"/>
      <use xlink:href="#DejaVuSans-72" transform="translate(58.552734 0)"/>
      <use xlink:href="#DejaVuSans-65" transform="translate(97.416016 0)"/>
      <use xlink:href="#DejaVuSans-64" transform="translate(158.939453 0)"/>
      <use xlink:href="#DejaVuSans-69" transform="translate(222.416016 0)"/>
      <use xlink:href="#DejaVuSans-63" transform="translate(250.199219 0)"/>
      <use xlink:href="#DejaVuSans-74" transform="translate(305.179688 0)"/>
      <use xlink:href="#DejaVuSans-65" transform="translate(344.388672 0)"/>
      <use xlink:href="#DejaVuSans-64" transform="translate(405.912109 0)"/>
     </g>
    </g>
   </g>
  </g>
 </g>
 <defs>
  <clipPath id="p51c3f8eb6a">
   <rect x="50.24" y="29.76" width="1018.96" height="140.68"/>
  </clipPath>
 </defs>
</svg>
