<?xml version="1.0" encoding="utf-8" standalone="no"?>
<!DOCTYPE svg PUBLIC "-//W3C//DTD SVG 1.1//EN"
  "http://www.w3.org/Graphics/SVG/1.1/DTD/svg11.dtd">
<svg xmlns:xlink="http://www.w3.org/1999/xlink" width="1080pt" height="216pt" viewBox="0 0 1080 216" xmlns="http://www.w3.org/2000/svg" version="1.1">
 <metadata>
  <rdf:RDF xmlns:dc="http://purl.org/dc/elements/1.1/" xmlns:cc="http://creativecommons.org/ns#" xmlns:rdf="http://www.w3.org/1999/02/22-rdf-syntax-ns#">
   <cc:Work>
    <dc:type rdf:resource="http://purl.org/dc/dcmitype/StillImage"/>
    <dc:date>2026-02-09T10:07:34.079808</dc:date>
    <dc:format>image/svg+xml</dc:format>
    <dc:creator>
     <cc:Agent>
      <dc:title>Matplotlib v3.10.8, https://matplotlib.org/</dc:title>
     </cc:Agent>
    </dc:creator>
   </cc:Work>
  </rdf:RDF>
 </metadata>
 <defs>
  <style type="text/css">*{stroke-linejoin: round; stroke-linecap: butt}</style>
 </defs>
 <g id="figure_1">
  <g id="patch_1">
   <path d="M 0 216 
L 1080 216 
L 1080 0 
L 0 0 
z
" style="fill: #ffffff"/>
  </g>
  <g id="axes_1">
   <g id="patch_2">
    <path d="M 50.24 170.44 
L 1069.2 170.44 
L 1069.2 29.76 
L 50.24 29.76 
z
" style="fill: #ffffff"/>
   </g>
   <g id="matplotlib.axis_1">
    <g id="xtick_1">
     <g id="line2d_1">
      <defs>
       <path id="mf57086f42d" d="M 0 0 
L 0 3.5 
" style="stroke: #000000; stroke-width: 0.8"/>
      </defs>
      <g>
       <use xlink:href="#mf57086f42d" x="50.24" y="170.44" style="stroke: #000000; stroke-width: 0.8"/>
      </g>
     </g>
     <g id="text_1">
      <!-- 0 -->
      <g transform="translate(47.05875 185.038437) scale(0.1 -0.1)">
       <defs>
        <path id="DejaVuSans-30" d="M 2034 4250 
Q 1547 4250 1301 3770 
Q 1056 3291 1056 2328 
Q 1056 1369 1301 889 
Q 1547 409 2034 409 
Q 2525 409 2770 889 
Q 3016 1369 3016 2328 
Q 3016 3291 2770 3770 
Q 2525 4250 2034 4250 
z
M 2034 4750 
Q 2819 4750 3233 4129 
Q 3647 3509 3647 2328 
Q 3647 1150 3233 529 
Q 2819 -91 2034 -91 
Q 1250 -91 836 529 
Q 422 1150 422 2328 
Q 422 3509 836 4129 
Q 1250 4750 2034 4750 
z
" transform="scale(0.015625)"/>
       </defs>
       <use xlink:href="#DejaVuSans-30"/>
      </g>
     </g>
    </g>
    <g id="xtick_2">
     <g id="line2d_2">
      <g>
       <use xlink:href="#mf57086f42d" x="183.26784" y="170.44" style="stroke: #000000; stroke-width: 0.8"/>
      </g>
     </g>
     <g id="text_2">
      <!-- 200 -->
      <g transform="translate(173.72409 185.038437) scale(0.1 -0.1)">
       <defs>
        <path id="DejaVuSans-32" d="M 1228 531 
L 3431 531 
L 3431 0 
L 469 0 
L 469 531 
Q 828 903 1448 1529 
Q 2069 2156 2228 2338 
Q 2531 2678 2651 2914 
Q 2772 3150 2772 3378 
Q 2772 3750 2511 3984 
Q 2250 4219 1831 4219 
Q 1534 4219 1204 4116 
Q 875 4013 500 3803 
L 500 4441 
Q 881 4594 1212 4672 
Q 1544 4750 1819 4750 
Q 2544 4750 2975 4387 
Q 3406 4025 3406 3419 
Q 3406 3131 3298 2873 
Q 3191 2616 2906 2266 
Q 2828 2175 2409 1742 
Q 1991 1309 1228 531 
z
" transform="scale(0.015625)"/>
       </defs>
       <use xlink:href="#DejaVuSans-32"/>
       <use xlink:href="#DejaVuSans-30" transform="translate(63.623047 0)"/>
       <use xlink:href="#DejaVuSans-30" transform="translate(127.246094 0)"/>
      </g>
     </g>
    </g>
    <g id="xtick_3">
     <g id="line2d_3">
      <g>
       <use xlink:href="#mf57086f42d" x="316.295681" y="170.44" style="stroke: #000000; stroke-width: 0.8"/>
      </g>
     </g>
     <g id="text_3">
      <!-- 400 -->
      <g transform="translate(306.751931 185.038437) scale(0.1 -0.1)">
       <defs>
        <path id="DejaVuSans-34" d="M 2419 4116 
L 825 1625 
L 2419 1625 
L 2419 4116 
z
M 2253 4666 
L 3047 4666 
L 3047 1625 
L 3713 1625 
L 3713 1100 
L 3047 1100 
L 3047 0 
L 2419 0 
L 2419 1100 
L 313 1100 
L 313 1709 
L 2253 4666 
z
" transform="scale(0.015625)"/>
       </defs>
       <use xlink:href="#DejaVuSans-34"/>
       <use xlink:href="#DejaVuSans-30" transform="translate(63.623047 0)"/>
       <use xlink:href="#DejaVuSans-30" transform="translate(127.246094 0)"/>
      </g>
     </g>
    </g>
    <g id="xtick_4">
     <g id="line2d_4">
      <g>
       <use xlink:href="#mf57086f42d" x="449.323521" y="170.44" style="stroke: #000000; stroke-width: 0.8"/>
      </g>
     </g>
     <g id="text_4">
      <!-- 600 -->
      <g transform="translate(439.779771 185.038437) scale(0.1 -0.1)">
       <defs>
        <path id="DejaVuSans-36" d="M 2113 2584 
Q 1688 2584 1439 2293 
Q 1191 2003 1191 1497 
Q 1191 994 1439 701 
Q 1688 409 2113 409 
Q 2538 409 2786 701 
Q 3034 994 3034 1497 
Q 3034 2003 2786 2293 
Q 2538 2584 2113 2584 
z
M 3366 4563 
L 3366 3988 
Q 3128 4100 2886 4159 
Q 2644 4219 2406 4219 
Q 1781 4219 1451 3797 
Q 1122 3375 1075 2522 
Q 1259 2794 1537 2939 
Q 1816 3084 2150 3084 
Q 2853 3084 3261 2657 
Q 3669 2231 3669 1497 
Q 3669 778 3244 343 
Q 2819 -91 2113 -91 
Q 1303 -91 875 529 
Q 447 1150 447 2328 
Q 447 3434 972 4092 
Q 1497 4750 2381 4750 
Q 2619 4750 2861 4703 
Q 3103 4656 3366 4563 
z
" transform="scale(0.015625)"/>
       </defs>
       <use xlink:href="#DejaVuSans-36"/>
       <use xlink:href="#DejaVuSans-30" transform="translate(63.623047 0)"/>
       <use xlink:href="#DejaVuSans-30" transform="translate(127.246094 0)"/>
      </g>
     </g>
    </g>
    <g id="xtick_5">
     <g id="line2d_5">
      <g>
       <use xlink:href="#mf57086f42d" x="582.351361" y="170.44" style="stroke: #000000; stroke-width: 0.8"/>
      </g>
     </g>
     <g id="text_5">
      <!-- 800 -->
      <g transform="translate(572.807611 185.038437) scale(0.1 -0.1)">
       <defs>
        <path id="DejaVuSans-38" d="M 2034 2216 
Q 1584 2216 1326 1975 
Q 1069 1734 1069 1313 
Q 1069 891 1326 650 
Q 1584 409 2034 409 
Q 2484 409 2743 651 
Q 3003 894 3003 1313 
Q 3003 1734 2745 1975 
Q 2488 2216 2034 2216 
z
M 1403 2484 
Q 997 2584 770 2862 
Q 544 3141 544 3541 
Q 544 4100 942 4425 
Q 1341 4750 2034 4750 
Q 2731 4750 3128 4425 
Q 3525 4100 3525 3541 
Q 3525 3141 3298 2862 
Q 3072 2584 2669 2484 
Q 3125 2378 3379 2068 
Q 3634 1759 3634 1313 
Q 3634 634 3220 271 
Q 2806 -91 2034 -91 
Q 1263 -91 848 271 
Q 434 634 434 1313 
Q 434 1759 690 2068 
Q 947 2378 1403 2484 
z
M 1172 3481 
Q 1172 3119 1398 2916 
Q 1625 2713 2034 2713 
Q 2441 2713 2670 2916 
Q 2900 3119 2900 3481 
Q 2900 3844 2670 4047 
Q 2441 4250 2034 4250 
Q 1625 4250 1398 4047 
Q 1172 3844 1172 3481 
z
" transform="scale(0.015625)"/>
       </defs>
       <use xlink:href="#DejaVuSans-38"/>
       <use xlink:href="#DejaVuSans-30" transform="translate(63.623047 0)"/>
       <use xlink:href="#DejaVuSans-30" transform="translate(127.246094 0)"/>
      </g>
     </g>
    </g>
    <g id="xtick_6">
     <g id="line2d_6">
      <g>
       <use xlink:href="#mf57086f42d" x="715.379202" y="170.44" style="stroke: #000000; stroke-width: 0.8"/>
      </g>
     </g>
     <g id="text_6">
      <!-- 1000 -->
      <g transform="translate(702.654202 185.038437) scale(0.1 -0.1)">
       <defs>
        <path id="DejaVuSans-31" d="M 794 531 
L 1825 531 
L 1825 4091 
L 703 3866 
L 703 4441 
L 1819 4666 
L 2450 4666 
L 2450 531 
L 3481 531 
L 3481 0 
L 794 0 
L 794 531 
z
" transform="scale(0.015625)"/>
       </defs>
       <use xlink:href="#DejaVuSans-31"/>
       <use xlink:href="#DejaVuSans-30" transform="translate(63.623047 0)"/>
       <use xlink:href="#DejaVuSans-30" transform="translate(127.246094 0)"/>
       <use xlink:href="#DejaVuSans-30" transform="translate(190.869141 0)"/>
      </g>
     </g>
    </g>
    <g id="xtick_7">
     <g id="line2d_7">
      <g>
       <use xlink:href="#mf57086f42d" x="848.407042" y="170.44" style="stroke: #000000; stroke-width: 0.8"/>
      </g>
     </g>
     <g id="text_7">
      <!-- 1200 -->
      <g transform="translate(835.682042 185.038437) scale(0.1 -0.1)">
       <use xlink:href="#DejaVuSans-31"/>
       <use xlink:href="#DejaVuSans-32" transform="translate(63.623047 0)"/>
       <use xlink:href="#DejaVuSans-30" transform="translate(127.246094 0)"/>
       <use xlink:href="#DejaVuSans-30" transform="translate(190.869141 0)"/>
      </g>
     </g>
    </g>
    <g id="xtick_8">
     <g id="line2d_8">
      <g>
       <use xlink:href="#mf57086f42d" x="981.434882" y="170.44" style="stroke: #000000; stroke-width: 0.8"/>
      </g>
     </g>
     <g id="text_8">
      <!-- 1400 -->
      <g transform="translate(968.709882 185.038437) scale(0.1 -0.1)">
       <use xlink:href="#DejaVuSans-31"/>
       <use xlink:href="#DejaVuSans-34" transform="translate(63.623047 0)"/>
       <use xlink:href="#DejaVuSans-30" transform="translate(127.246094 0)"/>
       <use xlink:href="#DejaVuSans-30" transform="translate(190.869141 0)"/>
      </g>
     </g>
    </g>
    <g id="text_9">
     <!-- Simulation Days -->
     <g transform="translate(502.74 201.755937) scale(0.14 -0.14)">
      <defs>
       <path id="DejaVuSans-53" d="M 3425 4513 
L 3425 3897 
Q 3066 4069 2747 4153 
Q 2428 4238 2131 4238 
Q 1616 4238 1336 4038 
Q 1056 3838 1056 3469 
Q 1056 3159 1242 3001 
Q 1428 2844 1947 2747 
L 2328 2669 
Q 3034 2534 3370 2195 
Q 3706 1856 3706 1288 
Q 3706 609 3251 259 
Q 2797 -91 1919 -91 
Q 1588 -91 1214 -16 
Q 841 59 441 206 
L 441 856 
Q 825 641 1194 531 
Q 1563 422 1919 422 
Q 2459 422 2753 634 
Q 3047 847 3047 1241 
Q 3047 1584 2836 1778 
Q 2625 1972 2144 2069 
L 1759 2144 
Q 1053 2284 737 2584 
Q 422 2884 422 3419 
Q 422 4038 858 4394 
Q 1294 4750 2059 4750 
Q 2388 4750 2728 4690 
Q 3069 4631 3425 4513 
z
" transform="scale(0.015625)"/>
       <path id="DejaVuSans-69" d="M 603 3500 
L 1178 3500 
L 1178 0 
L 603 0 
L 603 3500 
z
M 603 4863 
L 1178 4863 
L 1178 4134 
L 603 4134 
L 603 4863 
z
" transform="scale(0.015625)"/>
       <path id="DejaVuSans-6d" d="M 3328 2828 
Q 3544 3216 3844 3400 
Q 4144 3584 4550 3584 
Q 5097 3584 5394 3201 
Q 5691 2819 5691 2113 
L 5691 0 
L 5113 0 
L 5113 2094 
Q 5113 2597 4934 2840 
Q 4756 3084 4391 3084 
Q 3944 3084 3684 2787 
Q 3425 2491 3425 1978 
L 3425 0 
L 2847 0 
L 2847 2094 
Q 2847 2600 2669 2842 
Q 2491 3084 2119 3084 
Q 1678 3084 1418 2786 
Q 1159 2488 1159 1978 
L 1159 0 
L 581 0 
L 581 3500 
L 1159 3500 
L 1159 2956 
Q 1356 3278 1631 3431 
Q 1906 3584 2284 3584 
Q 2666 3584 2933 3390 
Q 3200 3197 3328 2828 
z
" transform="scale(0.015625)"/>
       <path id="DejaVuSans-75" d="M 544 1381 
L 544 3500 
L 1119 3500 
L 1119 1403 
Q 1119 906 1312 657 
Q 1506 409 1894 409 
Q 2359 409 2629 706 
Q 2900 1003 2900 1516 
L 2900 3500 
L 3475 3500 
L 3475 0 
L 2900 0 
L 2900 538 
Q 2691 219 2414 64 
Q 2138 -91 1772 -91 
Q 1169 -91 856 284 
Q 544 659 544 1381 
z
M 1991 3584 
L 1991 3584 
z
" transform="scale(0.015625)"/>
       <path id="DejaVuSans-6c" d="M 603 4863 
L 1178 4863 
L 1178 0 
L 603 0 
L 603 4863 
z
" transform="scale(0.015625)"/>
       <path id="DejaVuSans-61" d="M 2194 1759 
Q 1497 1759 1228 1600 
Q 959 1441 959 1056 
Q 959 750 1161 570 
Q 1363 391 1709 391 
Q 2188 391 2477 730 
Q 2766 1069 2766 1631 
L 2766 1759 
L 2194 1759 
z
M 3341 1997 
L 3341 0 
L 2766 0 
L 2766 531 
Q 2569 213 2275 61 
Q 1981 -91 1556 -91 
Q 1019 -91 701 211 
Q 384 513 384 1019 
Q 384 1609 779 1909 
Q 1175 2209 1959 2209 
L 2766 2209 
L 2766 2266 
Q 2766 2663 2505 2880 
Q 2244 3097 1772 3097 
Q 1472 3097 1187 3025 
Q 903 2953 641 2809 
L 641 3341 
Q 956 3463 1253 3523 
Q 1550 3584 1831 3584 
Q 2591 3584 2966 3190 
Q 3341 2797 3341 1997 
z
" transform="scale(0.015625)"/>
       <path id="DejaVuSans-74" d="M 1172 4494 
L 1172 3500 
L 2356 3500 
L 2356 3053 
L 1172 3053 
L 1172 1153 
Q 1172 725 1289 603 
Q 1406 481 1766 481 
L 2356 481 
L 2356 0 
L 1766 0 
Q 1100 0 847 248 
Q 594 497 594 1153 
L 594 3053 
L 172 3053 
L 172 3500 
L 594 3500 
L 594 4494 
L 1172 4494 
z
" transform="scale(0.015625)"/>
       <path id="DejaVuSans-6f" d="M 1959 3097 
Q 1497 3097 1228 2736 
Q 959 2375 959 1747 
Q 959 1119 1226 758 
Q 1494 397 1959 397 
Q 2419 397 2687 759 
Q 2956 1122 2956 1747 
Q 2956 2369 2687 2733 
Q 2419 3097 1959 3097 
z
M 1959 3584 
Q 2709 3584 3137 3096 
Q 3566 2609 3566 1747 
Q 3566 888 3137 398 
Q 2709 -91 1959 -91 
Q 1206 -91 779 398 
Q 353 888 353 1747 
Q 353 2609 779 3096 
Q 1206 3584 1959 3584 
z
" transform="scale(0.015625)"/>
       <path id="DejaVuSans-6e" d="M 3513 2113 
L 3513 0 
L 2938 0 
L 2938 2094 
Q 2938 2591 2744 2837 
Q 2550 3084 2163 3084 
Q 1697 3084 1428 2787 
Q 1159 2491 1159 1978 
L 1159 0 
L 581 0 
L 581 3500 
L 1159 3500 
L 1159 2956 
Q 1366 3272 1645 3428 
Q 1925 3584 2291 3584 
Q 2894 3584 3203 3211 
Q 3513 2838 3513 2113 
z
" transform="scale(0.015625)"/>
       <path id="DejaVuSans-20" transform="scale(0.015625)"/>
       <path id="DejaVuSans-44" d="M 1259 4147 
L 1259 519 
L 2022 519 
Q 2988 519 3436 956 
Q 3884 1394 3884 2338 
Q 3884 3275 3436 3711 
Q 2988 4147 2022 4147 
L 1259 4147 
z
M 628 4666 
L 1925 4666 
Q 3281 4666 3915 4102 
Q 4550 3538 4550 2338 
Q 4550 1131 3912 565 
Q 3275 0 1925 0 
L 628 0 
L 628 4666 
z
" transform="scale(0.015625)"/>
       <path id="DejaVuSans-79" d="M 2059 -325 
Q 1816 -950 1584 -1140 
Q 1353 -1331 966 -1331 
L 506 -1331 
L 506 -850 
L 844 -850 
Q 1081 -850 1212 -737 
Q 1344 -625 1503 -206 
L 1606 56 
L 191 3500 
L 800 3500 
L 1894 763 
L 2988 3500 
L 3597 3500 
L 2059 -325 
z
" transform="scale(0.015625)"/>
       <path id="DejaVuSans-73" d="M 2834 3397 
L 2834 2853 
Q 2591 2978 2328 3040 
Q 2066 3103 1784 3103 
Q 1356 3103 1142 2972 
Q 928 2841 928 2578 
Q 928 2378 1081 2264 
Q 1234 2150 1697 2047 
L 1894 2003 
Q 2506 1872 2764 1633 
Q 3022 1394 3022 966 
Q 3022 478 2636 193 
Q 2250 -91 1575 -91 
Q 1294 -91 989 -36 
Q 684 19 347 128 
L 347 722 
Q 666 556 975 473 
Q 1284 391 1588 391 
Q 1994 391 2212 530 
Q 2431 669 2431 922 
Q 2431 1156 2273 1281 
Q 2116 1406 1581 1522 
L 1381 1569 
Q 847 1681 609 1914 
Q 372 2147 372 2553 
Q 372 3047 722 3315 
Q 1072 3584 1716 3584 
Q 2034 3584 2315 3537 
Q 2597 3491 2834 3397 
z
" transform="scale(0.015625)"/>
      </defs>
      <use xlink:href="#DejaVuSans-53"/>
      <use xlink:href="#DejaVuSans-69" transform="translate(63.476562 0)"/>
      <use xlink:href="#DejaVuSans-6d" transform="translate(91.259766 0)"/>
      <use xlink:href="#DejaVuSans-75" transform="translate(188.671875 0)"/>
      <use xlink:href="#DejaVuSans-6c" transform="translate(252.050781 0)"/>
      <use xlink:href="#DejaVuSans-61" transform="translate(279.833984 0)"/>
      <use xlink:href="#DejaVuSans-74" transform="translate(341.113281 0)"/>
      <use xlink:href="#DejaVuSans-69" transform="translate(380.322266 0)"/>
      <use xlink:href="#DejaVuSans-6f" transform="translate(408.105469 0)"/>
      <use xlink:href="#DejaVuSans-6e" transform="translate(469.287109 0)"/>
      <use xlink:href="#DejaVuSans-20" transform="translate(532.666016 0)"/>
      <use xlink:href="#DejaVuSans-44" transform="translate(564.453125 0)"/>
      <use xlink:href="#DejaVuSans-61" transform="translate(641.455078 0)"/>
      <use xlink:href="#DejaVuSans-79" transform="translate(702.734375 0)"/>
      <use xlink:href="#DejaVuSans-73" transform="translate(761.914062 0)"/>
     </g>
    </g>
   </g>
   <g id="matplotlib.axis_2">
    <g id="ytick_1">
     <g id="line2d_9">
      <defs>
       <path id="mb2ccebd307" d="M 0 0 
L -3.5 0 
" style="stroke: #000000; stroke-width: 0.8"/>
      </defs>
      <g>
       <use xlink:href="#mb2ccebd307" x="50.24" y="168.099511" style="stroke: #000000; stroke-width: 0.8"/>
      </g>
     </g>
     <g id="text_10">
      <!-- −8 -->
      <g transform="translate(28.497813 171.89873) scale(0.1 -0.1)">
       <defs>
        <path id="DejaVuSans-2212" d="M 678 2272 
L 4684 2272 
L 4684 1741 
L 678 1741 
L 678 2272 
z
" transform="scale(0.015625)"/>
       </defs>
       <use xlink:href="#DejaVuSans-2212"/>
       <use xlink:href="#DejaVuSans-38" transform="translate(83.789062 0)"/>
      </g>
     </g>
    </g>
    <g id="ytick_2">
     <g id="line2d_10">
      <g>
       <use xlink:href="#mb2ccebd307" x="50.24" y="132.991327" style="stroke: #000000; stroke-width: 0.8"/>
      </g>
     </g>
     <g id="text_11">
      <!-- −4 -->
      <g transform="translate(28.497813 136.790546) scale(0.1 -0.1)">
       <use xlink:href="#DejaVuSans-2212"/>
       <use xlink:href="#DejaVuSans-34" transform="translate(83.789062 0)"/>
      </g>
     </g>
    </g>
    <g id="ytick_3">
     <g id="line2d_11">
      <g>
       <use xlink:href="#mb2ccebd307" x="50.24" y="97.883142" style="stroke: #000000; stroke-width: 0.8"/>
      </g>
     </g>
     <g id="text_12">
      <!-- 0 -->
      <g transform="translate(36.8775 101.682361) scale(0.1 -0.1)">
       <use xlink:href="#DejaVuSans-30"/>
      </g>
     </g>
    </g>
    <g id="ytick_4">
     <g id="line2d_12">
      <g>
       <use xlink:href="#mb2ccebd307" x="50.24" y="62.774958" style="stroke: #000000; stroke-width: 0.8"/>
      </g>
     </g>
     <g id="text_13">
      <!-- 4 -->
      <g transform="translate(36.8775 66.574177) scale(0.1 -0.1)">
       <use xlink:href="#DejaVuSans-34"/>
      </g>
     </g>
    </g>
    <g id="text_14">
     <!-- Temperature (℃) -->
     <g transform="translate(21.58625 159.986094) rotate(-90) scale(0.14 -0.14)">
      <defs>
       <path id="DejaVuSans-54" d="M -19 4666 
L 3928 4666 
L 3928 4134 
L 2272 4134 
L 2272 0 
L 1638 0 
L 1638 4134 
L -19 4134 
L -19 4666 
z
" transform="scale(0.015625)"/>
       <path id="DejaVuSans-65" d="M 3597 1894 
L 3597 1613 
L 953 1613 
Q 991 1019 1311 708 
Q 1631 397 2203 397 
Q 2534 397 2845 478 
Q 3156 559 3463 722 
L 3463 178 
Q 3153 47 2828 -22 
Q 2503 -91 2169 -91 
Q 1331 -91 842 396 
Q 353 884 353 1716 
Q 353 2575 817 3079 
Q 1281 3584 2069 3584 
Q 2775 3584 3186 3129 
Q 3597 2675 3597 1894 
z
M 3022 2063 
Q 3016 2534 2758 2815 
Q 2500 3097 2075 3097 
Q 1594 3097 1305 2825 
Q 1016 2553 972 2059 
L 3022 2063 
z
" transform="scale(0.015625)"/>
       <path id="DejaVuSans-70" d="M 1159 525 
L 1159 -1331 
L 581 -1331 
L 581 3500 
L 1159 3500 
L 1159 2969 
Q 1341 3281 1617 3432 
Q 1894 3584 2278 3584 
Q 2916 3584 3314 3078 
Q 3713 2572 3713 1747 
Q 3713 922 3314 415 
Q 2916 -91 2278 -91 
Q 1894 -91 1617 61 
Q 1341 213 1159 525 
z
M 3116 1747 
Q 3116 2381 2855 2742 
Q 2594 3103 2138 3103 
Q 1681 3103 1420 2742 
Q 1159 2381 1159 1747 
Q 1159 1113 1420 752 
Q 1681 391 2138 391 
Q 2594 391 2855 752 
Q 3116 1113 3116 1747 
z
" transform="scale(0.015625)"/>
       <path id="DejaVuSans-72" d="M 2631 2963 
Q 2534 3019 2420 3045 
Q 2306 3072 2169 3072 
Q 1681 3072 1420 2755 
Q 1159 2438 1159 1844 
L 1159 0 
L 581 0 
L 581 3500 
L 1159 3500 
L 1159 2956 
Q 1341 3275 1631 3429 
Q 1922 3584 2338 3584 
Q 2397 3584 2469 3576 
Q 2541 3569 2628 3553 
L 2631 2963 
z
" transform="scale(0.015625)"/>
       <path id="DejaVuSans-28" d="M 1984 4856 
Q 1566 4138 1362 3434 
Q 1159 2731 1159 2009 
Q 1159 1288 1364 580 
Q 1569 -128 1984 -844 
L 1484 -844 
Q 1016 -109 783 600 
Q 550 1309 550 2009 
Q 550 2706 781 3412 
Q 1013 4119 1484 4856 
L 1984 4856 
z
" transform="scale(0.015625)"/>
       <path id="DejaVuSans-2103" d="M 1600 4347 
Q 1350 4347 1178 4173 
Q 1006 4000 1006 3750 
Q 1006 3503 1178 3333 
Q 1350 3163 1600 3163 
Q 1850 3163 2022 3333 
Q 2194 3503 2194 3750 
Q 2194 3997 2020 4172 
Q 1847 4347 1600 4347 
z
M 1600 4750 
Q 1800 4750 1984 4673 
Q 2169 4597 2303 4453 
Q 2447 4313 2519 4134 
Q 2591 3956 2591 3750 
Q 2591 3338 2302 3052 
Q 2013 2766 1594 2766 
Q 1172 2766 890 3047 
Q 609 3328 609 3750 
Q 609 4169 896 4459 
Q 1184 4750 1600 4750 
z
M 6741 4306 
L 6741 3641 
Q 6422 3938 6061 4084 
Q 5700 4231 5294 4231 
Q 4494 4231 4069 3742 
Q 3644 3253 3644 2328 
Q 3644 1406 4069 917 
Q 4494 428 5294 428 
Q 5700 428 6061 575 
Q 6422 722 6741 1019 
L 6741 359 
Q 6409 134 6039 21 
Q 5669 -91 5256 -91 
Q 4197 -91 3587 557 
Q 2978 1206 2978 2328 
Q 2978 3453 3587 4101 
Q 4197 4750 5256 4750 
Q 5675 4750 6045 4639 
Q 6416 4528 6741 4306 
z
" transform="scale(0.015625)"/>
       <path id="DejaVuSans-29" d="M 513 4856 
L 1013 4856 
Q 1481 4119 1714 3412 
Q 1947 2706 1947 2009 
Q 1947 1309 1714 600 
Q 1481 -109 1013 -844 
L 513 -844 
Q 928 -128 1133 580 
Q 1338 1288 1338 2009 
Q 1338 2731 1133 3434 
Q 928 4138 513 4856 
z
" transform="scale(0.015625)"/>
      </defs>
      <use xlink:href="#DejaVuSans-54"/>
      <use xlink:href="#DejaVuSans-65" transform="translate(44.083984 0)"/>
      <use xlink:href="#DejaVuSans-6d" transform="translate(105.607422 0)"/>
      <use xlink:href="#DejaVuSans-70" transform="translate(203.019531 0)"/>
      <use xlink:href="#DejaVuSans-65" transform="translate(266.496094 0)"/>
      <use xlink:href="#DejaVuSans-72" transform="translate(328.019531 0)"/>
      <use xlink:href="#DejaVuSans-61" transform="translate(369.132812 0)"/>
      <use xlink:href="#DejaVuSans-74" transform="translate(430.412109 0)"/>
      <use xlink:href="#DejaVuSans-75" transform="translate(469.621094 0)"/>
      <use xlink:href="#DejaVuSans-72" transform="translate(533 0)"/>
      <use xlink:href="#DejaVuSans-65" transform="translate(571.863281 0)"/>
      <use xlink:href="#DejaVuSans-20" transform="translate(633.386719 0)"/>
      <use xlink:href="#DejaVuSans-28" transform="translate(665.173828 0)"/>
      <use xlink:href="#DejaVuSans-2103" transform="translate(704.1875 0)"/>
      <use xlink:href="#DejaVuSans-29" transform="translate(816.492188 0)"/>
     </g>
    </g>
   </g>
   <g id="line2d_13">
    <path d="M 50.24 151.325702 
L 52.235418 151.445176 
L 54.230835 151.767256 
L 56.226253 152.350191 
L 57.556531 152.920439 
L 59.551949 154.081626 
L 61.547366 155.56611 
L 65.538202 158.69112 
L 66.86848 159.463981 
L 68.198758 159.980101 
L 69.529037 160.203011 
L 70.859315 160.124014 
L 72.189594 159.756714 
L 73.519872 159.129138 
L 74.85015 158.278024 
L 76.845568 156.67348 
L 79.506125 154.160729 
L 83.49696 150.316162 
L 86.157517 148.084633 
L 88.152934 146.662597 
L 90.813491 145.085184 
L 93.474048 143.802277 
L 96.799744 142.484528 
L 100.790579 141.17021 
L 108.77225 138.662271 
L 112.097946 137.277886 
L 116.75392 135.300757 
L 119.414477 134.399738 
L 122.075034 133.712931 
L 125.40073 133.075733 
L 135.377818 131.34776 
L 139.368653 130.330669 
L 142.02921 129.46412 
L 144.024627 128.621472 
L 145.354906 127.898347 
L 146.685184 126.983728 
L 148.015463 125.818085 
L 149.345741 124.348571 
L 150.676019 122.543563 
L 152.006298 120.40671 
L 154.001715 116.696176 
L 158.65769 107.67422 
L 159.987968 105.563949 
L 161.318247 103.809692 
L 162.648525 102.424365 
L 163.978803 101.383681 
L 165.309082 100.638366 
L 166.63936 100.127507 
L 168.634778 99.667866 
L 171.295335 99.360734 
L 175.28617 98.956813 
L 177.281588 98.559252 
L 179.277005 97.89714 
L 180.607284 97.26297 
L 181.937562 96.447418 
L 183.26784 95.428934 
L 184.598119 94.18768 
L 185.928397 92.702506 
L 187.258676 90.947927 
L 188.588954 88.900625 
L 190.584372 85.26974 
L 193.244928 79.670693 
L 195.240346 75.580129 
L 196.570624 73.36917 
L 197.235764 72.521841 
L 197.900903 71.88752 
L 198.566042 71.490387 
L 199.231181 71.347638 
L 199.89632 71.468448 
L 200.56146 71.853173 
L 201.226599 72.493165 
L 201.891738 73.370909 
L 203.222016 75.730132 
L 205.217434 80.215547 
L 207.212852 84.794231 
L 208.54313 87.349443 
L 209.873408 89.220259 
L 210.538548 89.853886 
L 211.203687 90.276916 
L 211.868826 90.491959 
L 212.533965 90.508981 
L 213.199104 90.345126 
L 213.864244 90.02398 
L 215.194522 89.029446 
L 218.520218 86.139433 
L 219.850496 85.511987 
L 220.515636 85.401391 
L 221.180775 85.437471 
L 221.845914 85.620045 
L 222.511053 85.943177 
L 223.841332 86.961584 
L 225.17161 88.367829 
L 227.167028 90.898569 
L 231.823002 97.345004 
L 234.483559 101.333667 
L 236.478976 104.666095 
L 238.474394 108.370846 
L 241.134951 113.843513 
L 245.125786 122.182963 
L 246.456064 124.542109 
L 247.786343 126.47884 
L 249.116621 127.903611 
L 250.4469 128.779396 
L 251.112039 129.015823 
L 251.777178 129.127446 
L 253.107457 129.023137 
L 254.437735 128.582752 
L 259.093709 126.51414 
L 260.423988 126.387627 
L 261.089127 126.481249 
L 261.754266 126.692887 
L 262.419405 127.028325 
L 263.749684 128.07317 
L 265.079962 129.576491 
L 266.410241 131.431024 
L 270.401076 137.395979 
L 271.731354 138.957017 
L 273.061633 140.126971 
L 274.391911 140.892595 
L 275.722189 141.295535 
L 277.052468 141.417487 
L 279.047885 141.297613 
L 281.708442 141.09316 
L 283.038721 141.142902 
L 284.368999 141.347313 
L 286.364417 141.93776 
L 291.68553 143.958651 
L 293.015809 144.200196 
L 294.346087 144.244878 
L 295.676365 144.08958 
L 297.006644 143.754213 
L 299.002061 142.992424 
L 302.327757 141.377222 
L 305.653453 139.801408 
L 307.648871 139.077353 
L 308.979149 138.766348 
L 310.309428 138.644902 
L 311.639706 138.755157 
L 312.969985 139.127625 
L 314.300263 139.774095 
L 315.630541 140.683582 
L 316.96082 141.823127 
L 318.956237 143.850024 
L 324.277351 149.60096 
L 326.272769 151.363551 
L 328.268186 152.799496 
L 330.928743 154.361879 
L 338.245274 158.246001 
L 339.575553 158.563643 
L 340.240692 158.586413 
L 340.905831 158.497172 
L 341.57097 158.281733 
L 342.23611 157.928264 
L 342.901249 157.428049 
L 344.231527 155.972173 
L 345.561806 153.92944 
L 346.892084 151.391844 
L 349.552641 145.519589 
L 351.548058 141.238313 
L 352.878337 138.777101 
L 354.208615 136.738327 
L 355.538894 135.126758 
L 356.869172 133.882672 
L 358.19945 132.909702 
L 360.194868 131.744242 
L 363.520564 130.110237 
L 366.84626 128.724186 
L 369.506817 127.619384 
L 370.837095 126.883611 
L 372.167374 125.891157 
L 373.497652 124.547593 
L 374.82793 122.791564 
L 376.158209 120.615346 
L 378.153626 116.704085 
L 382.144462 108.324995 
L 383.47474 105.954438 
L 384.805018 103.97876 
L 386.135297 102.426369 
L 387.465575 101.275086 
L 388.795854 100.467639 
L 390.126132 99.928322 
L 392.12155 99.45581 
L 397.442663 98.598317 
L 398.772942 98.119422 
L 400.10322 97.368621 
L 401.433498 96.247569 
L 402.763777 94.669213 
L 404.094055 92.584399 
L 405.424334 90.010897 
L 407.419751 85.496551 
L 410.080308 79.478116 
L 411.410587 77.086135 
L 412.740865 75.366952 
L 413.406004 74.771799 
L 414.071143 74.337044 
L 415.401422 73.834819 
L 417.396839 73.371552 
L 418.061979 73.104436 
L 418.727118 72.70865 
L 419.392257 72.152458 
L 420.057396 71.415968 
L 421.387675 69.387976 
L 422.717953 66.729743 
L 426.043649 59.419906 
L 427.373927 57.182474 
L 428.039067 56.338566 
L 428.704206 55.691682 
L 429.369345 55.239892 
L 430.034484 54.972693 
L 430.699623 54.873056 
L 431.364763 54.919728 
L 432.695041 55.361147 
L 434.025319 56.127953 
L 436.020737 57.645286 
L 438.016155 59.478712 
L 440.011572 61.59292 
L 444.667547 66.733628 
L 446.662964 68.454786 
L 448.658382 69.791312 
L 451.318939 71.436448 
L 452.649217 72.473535 
L 453.979495 73.80829 
L 455.309774 75.519609 
L 456.640052 77.646139 
L 457.970331 80.184391 
L 459.965748 84.671409 
L 462.626305 91.515048 
L 465.952001 100.179344 
L 467.282279 103.231197 
L 468.612558 105.828584 
L 469.942836 107.85082 
L 470.607975 108.618796 
L 471.273115 109.216266 
L 471.938254 109.641285 
L 472.603393 109.895533 
L 473.268532 109.984707 
L 473.933671 109.91813 
L 474.598811 109.708351 
L 475.929089 108.923531 
L 477.259367 107.776516 
L 482.580481 102.588203 
L 483.910759 101.709866 
L 485.241038 101.13513 
L 486.571316 100.906453 
L 487.901595 101.069188 
L 489.231873 101.675519 
L 490.562152 102.776394 
L 491.89243 104.409384 
L 493.222708 106.581819 
L 494.552987 109.257613 
L 496.548404 114.025593 
L 500.53924 124.704949 
L 503.199796 131.461313 
L 505.195214 136.021023 
L 507.190632 140.129412 
L 509.851188 145.032306 
L 513.842024 151.731597 
L 517.16772 157.037416 
L 519.163137 159.861126 
L 520.493416 161.414465 
L 521.823694 162.586707 
L 523.153972 163.292415 
L 523.819112 163.452333 
L 524.484251 163.479582 
L 525.14939 163.375104 
L 525.814529 163.14326 
L 527.144808 162.332336 
L 528.475086 161.144306 
L 530.470504 158.949329 
L 533.13106 156.000745 
L 534.461339 154.781246 
L 535.791617 153.828847 
L 537.121896 153.174055 
L 538.452174 152.819286 
L 539.782452 152.745226 
L 541.112731 152.915677 
L 542.443009 153.281184 
L 544.438427 154.066386 
L 549.094401 156.006593 
L 551.754958 156.783319 
L 559.071489 158.653266 
L 561.732046 159.270651 
L 563.062324 159.408177 
L 564.392603 159.380332 
L 565.722881 159.178346 
L 567.718299 158.602854 
L 573.039413 156.780944 
L 575.699969 156.260665 
L 579.025665 155.633467 
L 581.021083 154.951725 
L 582.351361 154.291215 
L 583.68164 153.453047 
L 585.677057 151.889947 
L 588.337614 149.414768 
L 591.66331 146.268395 
L 593.658728 144.658294 
L 595.654145 143.373469 
L 597.649563 142.401869 
L 600.31012 141.44619 
L 608.956929 138.902849 
L 619.599157 135.753197 
L 621.594574 134.854916 
L 623.589992 133.650173 
L 624.92027 132.597822 
L 626.250549 131.280217 
L 627.580827 129.64186 
L 628.911105 127.641256 
L 630.241384 125.26549 
L 632.236801 121.073351 
L 638.223054 107.539128 
L 639.553333 105.207216 
L 640.883611 103.305494 
L 642.213889 101.832935 
L 643.544168 100.749598 
L 644.874446 99.99149 
L 646.204725 99.485597 
L 648.200142 99.0497 
L 650.860699 98.791916 
L 656.181813 98.384669 
L 658.17723 97.973793 
L 659.507509 97.526514 
L 660.837787 96.897096 
L 662.168066 96.057298 
L 663.498344 94.993842 
L 664.828622 93.711494 
L 666.82404 91.424386 
L 668.819458 88.780628 
L 670.814875 85.83032 
L 672.810293 82.564776 
L 675.47085 77.743776 
L 679.461685 70.406952 
L 680.791963 68.304382 
L 682.122242 66.503367 
L 683.45252 65.030295 
L 684.782798 63.873044 
L 686.113077 62.9889 
L 688.108494 62.038799 
L 690.769051 61.134281 
L 694.094747 60.005729 
L 699.415861 57.994213 
L 700.746139 57.885733 
L 701.411278 57.980739 
L 702.076418 58.197817 
L 702.741557 58.550741 
L 703.406696 59.049288 
L 704.736974 60.497844 
L 706.067253 62.514636 
L 707.397531 64.977961 
L 712.053506 74.152574 
L 713.383784 76.210704 
L 714.714062 77.92438 
L 716.70948 80.065432 
L 719.370037 82.876702 
L 720.700315 84.537983 
L 722.695733 87.492518 
L 724.69115 90.935389 
L 731.342543 102.991267 
L 734.668239 108.205653 
L 739.324213 115.508269 
L 741.98477 119.655177 
L 743.980187 122.303234 
L 745.310466 123.699097 
L 746.640744 124.765774 
L 747.971023 125.536713 
L 749.96644 126.335267 
L 752.626997 127.368967 
L 753.957275 128.098457 
L 755.952693 129.540123 
L 760.608667 133.2768 
L 761.938946 133.996249 
L 763.269224 134.446937 
L 764.599503 134.630676 
L 765.929781 134.582719 
L 767.925199 134.201074 
L 774.576591 132.469019 
L 777.237147 132.130502 
L 780.562843 131.970461 
L 784.553679 132.013479 
L 790.539931 132.134083 
L 793.200488 131.876627 
L 801.847298 130.662353 
L 807.168412 130.268 
L 809.828968 129.744653 
L 813.154664 128.766296 
L 816.48036 127.816541 
L 818.475778 127.469058 
L 820.471196 127.356759 
L 823.131752 127.516057 
L 829.118005 128.109868 
L 831.778562 128.111774 
L 833.77398 127.937903 
L 835.769397 127.531252 
L 837.099676 127.05972 
L 838.429954 126.36132 
L 839.760232 125.377989 
L 841.090511 124.066206 
L 842.420789 122.413264 
L 843.751068 120.449687 
L 846.411624 115.943751 
L 849.072181 111.541929 
L 850.40246 109.69616 
L 851.732738 108.185021 
L 853.063016 107.016401 
L 854.393295 106.150238 
L 855.723573 105.513666 
L 858.38413 104.587737 
L 861.709826 103.408991 
L 865.035522 101.921729 
L 868.361218 100.447768 
L 871.021775 99.548081 
L 873.017192 99.083683 
L 875.677749 98.702341 
L 879.003445 98.473118 
L 884.989698 98.346161 
L 897.627343 98.182326 
L 899.622761 97.950162 
L 900.953039 97.644523 
L 902.283317 97.139649 
L 903.613596 96.347829 
L 904.943874 95.167458 
L 906.274153 93.495489 
L 907.604431 91.247707 
L 908.934709 88.377992 
L 910.264988 84.902206 
L 912.260405 78.765901 
L 916.91638 63.456968 
L 918.911797 57.94083 
L 920.242076 54.798288 
L 921.572354 52.046753 
L 922.902633 49.639541 
L 924.232911 47.554099 
L 925.563189 45.808981 
L 926.893468 44.451153 
L 928.223746 43.531971 
L 929.554025 43.080625 
L 930.219164 43.030214 
L 931.549442 43.264034 
L 932.879721 43.917502 
L 934.209999 44.975264 
L 935.540277 46.461055 
L 936.870556 48.442198 
L 938.200834 51.013754 
L 939.531113 54.262855 
L 940.861391 58.229577 
L 942.191669 62.873979 
L 944.187087 70.787566 
L 947.512783 84.35007 
L 948.843061 89.06608 
L 950.17334 93.044613 
L 951.503618 96.191876 
L 952.833897 98.516861 
L 954.164175 100.112535 
L 955.494453 101.122716 
L 956.824732 101.70303 
L 958.15501 101.98878 
L 959.485289 102.078223 
L 961.480706 101.96334 
L 963.476124 101.615175 
L 966.136681 100.874536 
L 970.127516 99.653689 
L 972.122934 99.304451 
L 973.453212 99.288886 
L 974.78349 99.532686 
L 976.113769 100.133833 
L 976.778908 100.605659 
L 977.444047 101.213857 
L 978.109186 101.975673 
L 979.439465 104.025686 
L 980.769743 106.867012 
L 982.100022 110.557988 
L 983.4303 115.076796 
L 984.760578 120.307062 
L 987.421135 132.002986 
L 989.416553 140.681423 
L 990.746831 145.840358 
L 992.07711 150.190908 
L 993.407388 153.548094 
L 994.072527 154.82079 
L 994.737666 155.817517 
L 995.402806 156.542316 
L 996.067945 157.005492 
L 996.733084 157.223257 
L 997.398223 157.216883 
L 998.063362 157.011886 
L 998.728502 156.636842 
L 1000.05878 155.498809 
L 1002.054198 153.268557 
L 1004.714754 150.312279 
L 1006.045033 149.10076 
L 1007.375311 148.132191 
L 1008.70559 147.417581 
L 1010.035868 146.952565 
L 1011.366146 146.720381 
L 1012.696425 146.693427 
L 1014.691842 146.943903 
L 1020.012956 147.919126 
L 1020.678095 147.951781 
L 1020.678095 147.951781 
" clip-path="url(#p4b6a9a1ba8)" style="fill: none; stroke: #0000ff; stroke-width: 1.5; stroke-linecap: square"/>
   </g>
   <g id="line2d_14">
    <path d="M 50.24 151.587242 
L 52.235418 151.792414 
L 54.230835 152.307854 
L 56.226253 153.140035 
L 58.22167 154.287844 
L 60.217088 155.708451 
L 64.873062 159.230729 
L 66.203341 159.983868 
L 67.533619 160.508524 
L 68.863898 160.771603 
L 70.194176 160.764797 
L 71.524454 160.501049 
L 72.854733 160.00754 
L 74.185011 159.318037 
L 76.180429 157.990594 
L 78.175846 156.402181 
L 81.501542 153.417394 
L 86.157517 149.20912 
L 88.818074 147.124963 
L 91.478631 145.379433 
L 94.139187 143.932585 
L 97.464883 142.398676 
L 103.451136 139.949095 
L 112.763085 136.356994 
L 116.75392 135.066343 
L 120.744755 134.0539 
L 126.731008 132.856215 
L 134.047539 131.354043 
L 138.703514 130.17078 
L 141.364071 129.281044 
L 143.359488 128.382642 
L 144.689767 127.602986 
L 146.020045 126.623207 
L 147.350323 125.394518 
L 148.680602 123.87659 
L 150.01088 122.048368 
L 151.341159 119.918283 
L 153.336576 116.264084 
L 157.992551 107.332948 
L 159.322829 105.180576 
L 160.653107 103.352395 
L 161.983386 101.872379 
L 163.313664 100.730047 
L 164.643943 99.888774 
L 165.974221 99.296354 
L 167.969639 98.747969 
L 170.630196 98.372499 
L 175.28617 97.793073 
L 177.281588 97.315307 
L 179.277005 96.576857 
L 180.607284 95.899062 
L 181.937562 95.043542 
L 183.26784 93.983455 
L 184.598119 92.689396 
L 185.928397 91.129648 
L 187.258676 89.273569 
L 188.588954 87.10003 
L 190.584372 83.261673 
L 195.905485 72.163396 
L 197.235764 70.329988 
L 197.900903 69.72368 
L 198.566042 69.354819 
L 199.231181 69.238275 
L 199.89632 69.381299 
L 200.56146 69.782838 
L 201.226599 70.433342 
L 201.891738 71.315026 
L 203.222016 73.66372 
L 205.217434 78.098561 
L 207.212852 82.607517 
L 208.54313 85.11787 
L 209.873408 86.953108 
L 210.538548 87.574441 
L 211.203687 87.989726 
L 211.868826 88.201807 
L 212.533965 88.220653 
L 213.199104 88.062846 
L 213.864244 87.750822 
L 215.194522 86.777212 
L 218.520218 83.847137 
L 219.850496 83.125288 
L 220.515636 82.949064 
L 221.180775 82.909431 
L 221.845914 83.009279 
L 222.511053 83.246207 
L 223.841332 84.099337 
L 225.17161 85.373716 
L 227.167028 87.812337 
L 229.827584 91.528766 
L 233.15328 96.496156 
L 235.813837 100.852438 
L 238.474394 105.684761 
L 245.125786 118.28405 
L 246.456064 120.345265 
L 247.786343 122.068082 
L 249.116621 123.39738 
L 250.4469 124.307241 
L 251.777178 124.806766 
L 253.107457 124.941587 
L 254.437735 124.790952 
L 256.433153 124.267726 
L 258.42857 123.769046 
L 259.758849 123.663022 
L 261.089127 123.864373 
L 262.419405 124.445311 
L 263.749684 125.433536 
L 265.079962 126.806392 
L 266.410241 128.492933 
L 269.070797 132.353549 
L 271.066215 135.179675 
L 273.061633 137.573504 
L 274.391911 138.849298 
L 275.722189 139.8656 
L 277.052468 140.649404 
L 279.047885 141.480518 
L 281.043303 142.028623 
L 283.70386 142.516176 
L 287.694695 142.99666 
L 291.020391 143.204 
L 293.680948 143.166476 
L 296.341505 142.867726 
L 299.002061 142.276706 
L 302.327757 141.222742 
L 305.653453 140.14968 
L 307.648871 139.725646 
L 308.979149 139.619542 
L 310.309428 139.69753 
L 311.639706 139.985749 
L 312.969985 140.496191 
L 314.300263 141.224303 
L 316.295681 142.675386 
L 318.291098 144.445756 
L 327.603047 153.234248 
L 330.928743 155.823704 
L 333.5893 157.634796 
L 335.584718 158.779533 
L 336.914996 159.379535 
L 338.245274 159.784911 
L 339.575553 159.923681 
L 340.905831 159.715294 
L 342.23611 159.081987 
L 343.566388 157.96406 
L 344.896666 156.336138 
L 346.226945 154.220308 
L 347.557223 151.69163 
L 350.21778 145.920866 
L 352.878337 140.25899 
L 354.208615 137.811731 
L 355.538894 135.721841 
L 356.869172 134.003427 
L 358.19945 132.629468 
L 359.529729 131.546354 
L 360.860007 130.689507 
L 362.855425 129.692843 
L 366.181121 128.391088 
L 368.841678 127.295883 
L 370.837095 126.181314 
L 372.167374 125.182645 
L 373.497652 123.910185 
L 374.82793 122.323289 
L 376.158209 120.411773 
L 378.153626 117.010907 
L 384.139879 106.058752 
L 385.470158 104.176899 
L 386.800436 102.635324 
L 388.130714 101.429752 
L 389.460993 100.526183 
L 390.791271 99.871646 
L 392.786689 99.221269 
L 398.107802 97.917829 
L 399.438081 97.320405 
L 400.768359 96.457036 
L 402.098638 95.249093 
L 403.428916 93.638095 
L 404.759194 91.60528 
L 406.089473 89.189923 
L 408.75003 83.701404 
L 410.745447 79.752239 
L 412.075726 77.557753 
L 413.406004 75.843528 
L 414.736283 74.600641 
L 416.066561 73.705303 
L 418.727118 72.080736 
L 420.057396 70.898904 
L 421.387675 69.284886 
L 422.717953 67.248276 
L 427.373927 59.346094 
L 428.704206 57.810038 
L 429.369345 57.267905 
L 430.034484 56.885748 
L 430.699623 56.663639 
L 431.364763 56.596763 
L 432.029902 56.67624 
L 432.695041 56.889996 
L 434.025319 57.66163 
L 435.355598 58.78504 
L 437.351015 60.856331 
L 441.341851 65.191476 
L 443.337268 67.051595 
L 445.332686 68.612359 
L 447.993243 70.35365 
L 450.653799 72.121274 
L 451.984078 73.208797 
L 453.314356 74.538248 
L 454.644635 76.17487 
L 455.974913 78.162671 
L 457.305191 80.518377 
L 459.300609 84.701818 
L 461.296027 89.489871 
L 465.952001 100.940736 
L 467.282279 103.66418 
L 468.612558 105.903076 
L 469.942836 107.56655 
L 470.607975 108.165578 
L 471.273115 108.60646 
L 471.938254 108.89089 
L 472.603393 109.023669 
L 473.268532 109.012551 
L 473.933671 108.867975 
L 475.26395 108.2315 
L 476.594228 107.236768 
L 478.589646 105.375298 
L 481.250203 102.900619 
L 482.580481 101.916944 
L 483.910759 101.216474 
L 485.241038 100.865722 
L 486.571316 100.921105 
L 487.236455 101.116513 
L 487.901595 101.43085 
L 489.231873 102.433025 
L 490.562152 103.949762 
L 491.89243 105.97961 
L 493.222708 108.491126 
L 494.552987 111.420858 
L 496.548404 116.39438 
L 503.199796 133.705799 
L 505.195214 138.182726 
L 507.190632 142.214388 
L 509.851188 147.028925 
L 513.176884 152.492455 
L 516.50258 157.546324 
L 518.497998 160.214713 
L 519.828276 161.708682 
L 521.158555 162.88416 
L 522.488833 163.673359 
L 523.819112 164.032154 
L 525.14939 163.950287 
L 526.479668 163.455732 
L 527.809947 162.612213 
L 529.140225 161.510482 
L 535.126478 156.046717 
L 536.456756 155.169281 
L 537.787035 154.4892 
L 539.117313 154.003254 
L 540.447592 153.695732 
L 542.443009 153.517274 
L 544.438427 153.598794 
L 547.098984 153.969378 
L 551.089819 154.796052 
L 557.741211 156.193933 
L 560.401768 156.54437 
L 563.062324 156.641103 
L 565.057742 156.505091 
L 567.05316 156.181247 
L 569.713717 155.48532 
L 572.374273 154.556904 
L 576.365109 152.903963 
L 583.016501 149.863554 
L 593.658728 144.745254 
L 602.970677 140.048824 
L 609.622069 136.448429 
L 613.612904 134.080594 
L 616.9386 131.840657 
L 619.599157 129.754215 
L 622.259713 127.328515 
L 624.92027 124.5635 
L 628.911105 120.002431 
L 633.56708 114.704285 
L 636.227637 111.962351 
L 638.888193 109.535847 
L 641.54875 107.458248 
L 644.209307 105.709288 
L 647.535003 103.855154 
L 652.856117 100.976753 
L 655.516674 99.223898 
L 657.512091 97.653846 
L 659.507509 95.817181 
L 661.502926 93.686848 
L 663.498344 91.25216 
L 665.493762 88.518269 
L 668.154318 84.434551 
L 670.814875 79.876391 
L 673.475432 74.830588 
L 676.135989 69.239232 
L 678.796546 63.063184 
L 682.122242 54.694228 
L 685.447938 46.415688 
L 686.778216 43.491771 
L 688.108494 40.999567 
L 689.438773 39.089206 
L 690.103912 38.396113 
L 690.769051 37.8979 
L 691.43419 37.606604 
L 692.09933 37.531136 
L 692.764469 37.676798 
L 693.429608 38.044935 
L 694.094747 38.632665 
L 694.759886 39.432834 
L 696.090165 41.620884 
L 697.420443 44.472213 
L 699.415861 49.579021 
L 703.406696 60.211447 
L 705.402114 64.656299 
L 706.732392 67.143974 
L 708.06267 69.286592 
L 710.058088 72.042908 
L 714.048923 77.318511 
L 716.044341 80.485604 
L 718.039758 84.194163 
L 720.035176 88.381625 
L 724.026011 97.493368 
L 728.016847 106.406764 
L 730.677403 111.782534 
L 732.672821 115.410357 
L 734.668239 118.649248 
L 736.663656 121.48054 
L 738.659074 123.90858 
L 740.654491 125.96232 
L 742.649909 127.691189 
L 744.645327 129.155935 
L 747.305883 130.80277 
L 750.631579 132.525372 
L 753.957275 133.969869 
L 756.617832 134.908954 
L 759.278389 135.594263 
L 761.273807 135.906275 
L 763.269224 136.033694 
L 765.929781 135.939209 
L 769.255477 135.511914 
L 781.227983 133.609597 
L 820.471196 129.00125 
L 825.792309 128.143315 
L 829.118005 127.394049 
L 831.778562 126.579827 
L 833.77398 125.775691 
L 835.769397 124.739777 
L 837.764815 123.409829 
L 839.760232 121.739802 
L 841.75565 119.72223 
L 844.416207 116.586664 
L 849.73732 109.997223 
L 851.732738 107.901723 
L 853.728156 106.168086 
L 855.723573 104.798536 
L 857.718991 103.739511 
L 859.714408 102.913806 
L 862.374965 102.05558 
L 865.700661 101.235667 
L 869.026357 100.640518 
L 872.352053 100.265818 
L 876.342888 100.070258 
L 881.664002 100.069258 
L 891.64109 100.111001 
L 893.636508 99.92376 
L 895.631925 99.479448 
L 896.962204 98.947027 
L 898.292482 98.1408 
L 899.622761 96.977915 
L 900.953039 95.374785 
L 902.283317 93.258009 
L 903.613596 90.577049 
L 904.943874 87.316492 
L 906.274153 83.505222 
L 908.26957 76.935195 
L 914.920962 53.533616 
L 916.91638 47.892732 
L 918.246658 44.740176 
L 919.576937 42.093383 
L 920.907215 39.949407 
L 922.237493 38.297274 
L 923.567772 37.123295 
L 924.89805 36.41354 
L 926.228329 36.154545 
L 927.558607 36.333949 
L 928.888885 36.942267 
L 930.219164 37.975887 
L 931.549442 39.440083 
L 932.879721 41.350155 
L 934.209999 43.728855 
L 935.540277 46.59921 
L 936.870556 49.973595 
L 938.200834 53.841213 
L 940.196252 60.458375 
L 943.521948 72.755555 
L 946.182505 82.315396 
L 948.177922 88.471772 
L 949.508201 91.873986 
L 950.838479 94.648534 
L 952.168757 96.791627 
L 953.499036 98.340576 
L 954.829314 99.363657 
L 956.159593 99.94785 
L 957.489871 100.186764 
L 958.820149 100.170687 
L 960.815567 99.840618 
L 967.466959 98.29944 
L 968.797238 98.218265 
L 970.127516 98.308099 
L 971.457794 98.615781 
L 972.788073 99.190136 
L 974.118351 100.08005 
L 975.44863 101.332274 
L 976.778908 102.989024 
L 978.109186 105.085063 
L 979.439465 107.64356 
L 980.769743 110.670507 
L 982.100022 114.148332 
L 984.095439 120.098875 
L 987.421135 131.150666 
L 990.081692 139.758257 
L 992.07711 145.306593 
L 993.407388 148.359687 
L 994.737666 150.821091 
L 996.067945 152.674534 
L 997.398223 153.945368 
L 998.728502 154.694393 
L 1000.05878 155.007916 
L 1001.389058 154.985638 
L 1002.719337 154.728502 
L 1004.714754 154.099183 
L 1009.370729 152.530888 
L 1012.031286 151.898388 
L 1014.691842 151.477246 
L 1018.017538 151.183109 
L 1020.678095 151.102037 
L 1020.678095 151.102037 
" clip-path="url(#p4b6a9a1ba8)" style="fill: none; stroke: #ff0000; stroke-width: 1.5; stroke-linecap: square"/>
   </g>
   <g id="line2d_15">
    <path d="M 535.791617 170.44 
L 535.791617 29.76 
" clip-path="url(#p4b6a9a1ba8)" style="fill: none; stroke: #1f77b4; stroke-width: 1.5; stroke-linecap: square"/>
   </g>
   <g id="patch_3">
    <path d="M 50.24 170.44 
L 50.24 29.76 
" style="fill: none; stroke: #000000; stroke-width: 0.8; stroke-linejoin: miter; stroke-linecap: square"/>
   </g>
   <g id="patch_4">
    <path d="M 1069.2 170.44 
L 1069.2 29.76 
" style="fill: none; stroke: #000000; stroke-width: 0.8; stroke-linejoin: miter; stroke-linecap: square"/>
   </g>
   <g id="patch_5">
    <path d="M 50.24 170.44 
L 1069.2 170.44 
" style="fill: none; stroke: #000000; stroke-width: 0.8; stroke-linejoin: miter; stroke-linecap: square"/>
   </g>
   <g id="patch_6">
    <path d="M 50.24 29.76 
L 1069.2 29.76 
" style="fill: none; stroke: #000000; stroke-width: 0.8; stroke-linejoin: miter; stroke-linecap: square"/>
   </g>
   <g id="text_15">
    <!-- Heat Conduction Equation Solution at x=0.4M -->
    <g transform="translate(375.485 23.76) scale(0.16 -0.16)">
     <defs>
      <path id="DejaVuSans-48" d="M 628 4666 
L 1259 4666 
L 1259 2753 
L 3553 2753 
L 3553 4666 
L 4184 4666 
L 4184 0 
L 3553 0 
L 3553 2222 
L 1259 2222 
L 1259 0 
L 628 0 
L 628 4666 
z
" transform="scale(0.015625)"/>
      <path id="DejaVuSans-43" d="M 4122 4306 
L 4122 3641 
Q 3803 3938 3442 4084 
Q 3081 4231 2675 4231 
Q 1875 4231 1450 3742 
Q 1025 3253 1025 2328 
Q 1025 1406 1450 917 
Q 1875 428 2675 428 
Q 3081 428 3442 575 
Q 3803 722 4122 1019 
L 4122 359 
Q 3791 134 3420 21 
Q 3050 -91 2638 -91 
Q 1578 -91 968 557 
Q 359 1206 359 2328 
Q 359 3453 968 4101 
Q 1578 4750 2638 4750 
Q 3056 4750 3426 4639 
Q 3797 4528 4122 4306 
z
" transform="scale(0.015625)"/>
      <path id="DejaVuSans-64" d="M 2906 2969 
L 2906 4863 
L 3481 4863 
L 3481 0 
L 2906 0 
L 2906 525 
Q 2725 213 2448 61 
Q 2172 -91 1784 -91 
Q 1150 -91 751 415 
Q 353 922 353 1747 
Q 353 2572 751 3078 
Q 1150 3584 1784 3584 
Q 2172 3584 2448 3432 
Q 2725 3281 2906 2969 
z
M 947 1747 
Q 947 1113 1208 752 
Q 1469 391 1925 391 
Q 2381 391 2643 752 
Q 2906 1113 2906 1747 
Q 2906 2381 2643 2742 
Q 2381 3103 1925 3103 
Q 1469 3103 1208 2742 
Q 947 2381 947 1747 
z
" transform="scale(0.015625)"/>
      <path id="DejaVuSans-63" d="M 3122 3366 
L 3122 2828 
Q 2878 2963 2633 3030 
Q 2388 3097 2138 3097 
Q 1578 3097 1268 2742 
Q 959 2388 959 1747 
Q 959 1106 1268 751 
Q 1578 397 2138 397 
Q 2388 397 2633 464 
Q 2878 531 3122 666 
L 3122 134 
Q 2881 22 2623 -34 
Q 2366 -91 2075 -91 
Q 1284 -91 818 406 
Q 353 903 353 1747 
Q 353 2603 823 3093 
Q 1294 3584 2113 3584 
Q 2378 3584 2631 3529 
Q 2884 3475 3122 3366 
z
" transform="scale(0.015625)"/>
      <path id="DejaVuSans-45" d="M 628 4666 
L 3578 4666 
L 3578 4134 
L 1259 4134 
L 1259 2753 
L 3481 2753 
L 3481 2222 
L 1259 2222 
L 1259 531 
L 3634 531 
L 3634 0 
L 628 0 
L 628 4666 
z
" transform="scale(0.015625)"/>
      <path id="DejaVuSans-71" d="M 947 1747 
Q 947 1113 1208 752 
Q 1469 391 1925 391 
Q 2381 391 2643 752 
Q 2906 1113 2906 1747 
Q 2906 2381 2643 2742 
Q 2381 3103 1925 3103 
Q 1469 3103 1208 2742 
Q 947 2381 947 1747 
z
M 2906 525 
Q 2725 213 2448 61 
Q 2172 -91 1784 -91 
Q 1150 -91 751 415 
Q 353 922 353 1747 
Q 353 2572 751 3078 
Q 1150 3584 1784 3584 
Q 2172 3584 2448 3432 
Q 2725 3281 2906 2969 
L 2906 3500 
L 3481 3500 
L 3481 -1331 
L 2906 -1331 
L 2906 525 
z
" transform="scale(0.015625)"/>
      <path id="DejaVuSans-78" d="M 3513 3500 
L 2247 1797 
L 3578 0 
L 2900 0 
L 1881 1375 
L 863 0 
L 184 0 
L 1544 1831 
L 300 3500 
L 978 3500 
L 1906 2253 
L 2834 3500 
L 3513 3500 
z
" transform="scale(0.015625)"/>
      <path id="DejaVuSans-3d" d="M 678 2906 
L 4684 2906 
L 4684 2381 
L 678 2381 
L 678 2906 
z
M 678 1631 
L 4684 1631 
L 4684 1100 
L 678 1100 
L 678 1631 
z
" transform="scale(0.015625)"/>
      <path id="DejaVuSans-2e" d="M 684 794 
L 1344 794 
L 1344 0 
L 684 0 
L 684 794 
z
" transform="scale(0.015625)"/>
      <path id="DejaVuSans-4d" d="M 628 4666 
L 1569 4666 
L 2759 1491 
L 3956 4666 
L 4897 4666 
L 4897 0 
L 4281 0 
L 4281 4097 
L 3078 897 
L 2444 897 
L 1241 4097 
L 1241 0 
L 628 0 
L 628 4666 
z
" transform="scale(0.015625)"/>
     </defs>
     <use xlink:href="#DejaVuSans-48"/>
     <use xlink:href="#DejaVuSans-65" transform="translate(75.195312 0)"/>
     <use xlink:href="#DejaVuSans-61" transform="translate(136.71875 0)"/>
     <use xlink:href="#DejaVuSans-74" transform="translate(197.998047 0)"/>
     <use xlink:href="#DejaVuSans-20" transform="translate(237.207031 0)"/>
     <use xlink:href="#DejaVuSans-43" transform="translate(268.994141 0)"/>
     <use xlink:href="#DejaVuSans-6f" transform="translate(338.818359 0)"/>
     <use xlink:href="#DejaVuSans-6e" transform="translate(400 0)"/>
     <use xlink:href="#DejaVuSans-64" transform="translate(463.378906 0)"/>
     <use xlink:href="#DejaVuSans-75" transform="translate(526.855469 0)"/>
     <use xlink:href="#DejaVuSans-63" transform="translate(590.234375 0)"/>
     <use xlink:href="#DejaVuSans-74" transform="translate(645.214844 0)"/>
     <use xlink:href="#DejaVuSans-69" transform="translate(684.423828 0)"/>
     <use xlink:href="#DejaVuSans-6f" transform="translate(712.207031 0)"/>
     <use xlink:href="#DejaVuSans-6e" transform="translate(773.388672 0)"/>
     <use xlink:href="#DejaVuSans-20" transform="translate(836.767578 0)"/>
     <use xlink:href="#DejaVuSans-45" transform="translate(868.554688 0)"/>
     <use xlink:href="#DejaVuSans-71" transform="translate(931.738281 0)"/>
     <use xlink:href="#DejaVuSans-75" transform="translate(995.214844 0)"/>
     <use xlink:href="#DejaVuSans-61" transform="translate(1058.59375 0)"/>
     <use xlink:href="#DejaVuSans-74" transform="translate(1119.873047 0)"/>
     <use xlink:href="#DejaVuSans-69" transform="translate(1159.082031 0)"/>
     <use xlink:href="#DejaVuSans-6f" transform="translate(1186.865234 0)"/>
     <use xlink:href="#DejaVuSans-6e" transform="translate(1248.046875 0)"/>
     <use xlink:href="#DejaVuSans-20" transform="translate(1311.425781 0)"/>
     <use xlink:href="#DejaVuSans-53" transform="translate(1343.212891 0)"/>
     <use xlink:href="#DejaVuSans-6f" transform="translate(1406.689453 0)"/>
     <use xlink:href="#DejaVuSans-6c" transform="translate(1467.871094 0)"/>
     <use xlink:href="#DejaVuSans-75" transform="translate(1495.654297 0)"/>
     <use xlink:href="#DejaVuSans-74" transform="translate(1559.033203 0)"/>
     <use xlink:href="#DejaVuSans-69" transform="translate(1598.242188 0)"/>
     <use xlink:href="#DejaVuSans-6f" transform="translate(1626.025391 0)"/>
     <use xlink:href="#DejaVuSans-6e" transform="translate(1687.207031 0)"/>
     <use xlink:href="#DejaVuSans-20" transform="translate(1750.585938 0)"/>
     <use xlink:href="#DejaVuSans-61" transform="translate(1782.373047 0)"/>
     <use xlink:href="#DejaVuSans-74" transform="translate(1843.652344 0)"/>
     <use xlink:href="#DejaVuSans-20" transform="translate(1882.861328 0)"/>
     <use xlink:href="#DejaVuSans-78" transform="translate(1914.648438 0)"/>
     <use xlink:href="#DejaVuSans-3d" transform="translate(1973.828125 0)"/>
     <use xlink:href="#DejaVuSans-30" transform="translate(2057.617188 0)"/>
     <use xlink:href="#DejaVuSans-2e" transform="translate(2121.240234 0)"/>
     <use xlink:href="#DejaVuSans-34" transform="translate(2153.027344 0)"/>
     <use xlink:href="#DejaVuSans-4d" transform="translate(2216.650391 0)"/>
    </g>
   </g>
   <g id="legend_1">
    <g id="patch_7">
     <path d="M 949.325625 74.5875 
L 1060.8 74.5875 
Q 1063.2 74.5875 1063.2 72.1875 
L 1063.2 38.16 
Q 1063.2 35.76 1060.8 35.76 
L 949.325625 35.76 
Q 946.925625 35.76 946.925625 38.16 
L 946.925625 72.1875 
Q 946.925625 74.5875 949.325625 74.5875 
z
" style="fill: #ffffff; opacity: 0.8; stroke: #cccccc; stroke-linejoin: miter"/>
    </g>
    <g id="line2d_16">
     <path d="M 951.725625 45.478125 
L 963.725625 45.478125 
L 975.725625 45.478125 
" style="fill: none; stroke: #0000ff; stroke-width: 1.5; stroke-linecap: square"/>
    </g>
    <g id="text_16">
     <!-- Observation -->
     <g transform="translate(985.325625 49.678125) scale(0.12 -0.12)">
      <defs>
       <path id="DejaVuSans-4f" d="M 2522 4238 
Q 1834 4238 1429 3725 
Q 1025 3213 1025 2328 
Q 1025 1447 1429 934 
Q 1834 422 2522 422 
Q 3209 422 3611 934 
Q 4013 1447 4013 2328 
Q 4013 3213 3611 3725 
Q 3209 4238 2522 4238 
z
M 2522 4750 
Q 3503 4750 4090 4092 
Q 4678 3434 4678 2328 
Q 4678 1225 4090 567 
Q 3503 -91 2522 -91 
Q 1538 -91 948 565 
Q 359 1222 359 2328 
Q 359 3434 948 4092 
Q 1538 4750 2522 4750 
z
" transform="scale(0.015625)"/>
       <path id="DejaVuSans-62" d="M 3116 1747 
Q 3116 2381 2855 2742 
Q 2594 3103 2138 3103 
Q 1681 3103 1420 2742 
Q 1159 2381 1159 1747 
Q 1159 1113 1420 752 
Q 1681 391 2138 391 
Q 2594 391 2855 752 
Q 3116 1113 3116 1747 
z
M 1159 2969 
Q 1341 3281 1617 3432 
Q 1894 3584 2278 3584 
Q 2916 3584 3314 3078 
Q 3713 2572 3713 1747 
Q 3713 922 3314 415 
Q 2916 -91 2278 -91 
Q 1894 -91 1617 61 
Q 1341 213 1159 525 
L 1159 0 
L 581 0 
L 581 4863 
L 1159 4863 
L 1159 2969 
z
" transform="scale(0.015625)"/>
       <path id="DejaVuSans-76" d="M 191 3500 
L 800 3500 
L 1894 563 
L 2988 3500 
L 3597 3500 
L 2284 0 
L 1503 0 
L 191 3500 
z
" transform="scale(0.015625)"/>
      </defs>
      <use xlink:href="#DejaVuSans-4f"/>
      <use xlink:href="#DejaVuSans-62" transform="translate(78.710938 0)"/>
      <use xlink:href="#DejaVuSans-73" transform="translate(142.1875 0)"/>
      <use xlink:href="#DejaVuSans-65" transform="translate(194.287109 0)"/>
      <use xlink:href="#DejaVuSans-72" transform="translate(255.810547 0)"/>
      <use xlink:href="#DejaVuSans-76" transform="translate(296.923828 0)"/>
      <use xlink:href="#DejaVuSans-61" transform="translate(356.103516 0)"/>
      <use xlink:href="#DejaVuSans-74" transform="translate(417.382812 0)"/>
      <use xlink:href="#DejaVuSans-69" transform="translate(456.591797 0)"/>
      <use xlink:href="#DejaVuSans-6f" transform="translate(484.375 0)"/>
      <use xlink:href="#DejaVuSans-6e" transform="translate(545.556641 0)"/>
     </g>
    </g>
    <g id="line2d_17">
     <path d="M 951.725625 63.091875 
L 963.725625 63.091875 
L 975.725625 63.091875 
" style="fill: none; stroke: #ff0000; stroke-width: 1.5; stroke-linecap: square"/>
    </g>
    <g id="text_17">
     <!-- Predicted -->
     <g transform="translate(985.325625 67.291875) scale(0.12 -0.12)">
      <defs>
       <path id="DejaVuSans-50" d="M 1259 4147 
L 1259 2394 
L 2053 2394 
Q 2494 2394 2734 2622 
Q 2975 2850 2975 3272 
Q 2975 3691 2734 3919 
Q 2494 4147 2053 4147 
L 1259 4147 
z
M 628 4666 
L 2053 4666 
Q 2838 4666 3239 4311 
Q 3641 3956 3641 3272 
Q 3641 2581 3239 2228 
Q 2838 1875 2053 1875 
L 1259 1875 
L 1259 0 
L 628 0 
L 628 4666 
z
" transform="scale(0.015625)"/>
      </defs>
      <use xlink:href="#DejaVuSans-50"/>
      <use xlink:href="#DejaVuSans-72" transform="translate(58.552734 0)"/>
      <use xlink:href="#DejaVuSans-65" transform="translate(97.416016 0)"/>
      <use xlink:href="#DejaVuSans-64" transform="translate(158.939453 0)"/>
      <use xlink:href="#DejaVuSans-69" transform="translate(222.416016 0)"/>
      <use xlink:href="#DejaVuSans-63" transform="translate(250.199219 0)"/>
      <use xlink:href="#DejaVuSans-74" transform="translate(305.179688 0)"/>
      <use xlink:href="#DejaVuSans-65" transform="translate(344.388672 0)"/>
      <use xlink:href="#DejaVuSans-64" transform="translate(405.912109 0)"/>
     </g>
    </g>
   </g>
  </g>
 </g>
 <defs>
  <clipPath id="p4b6a9a1ba8">
   <rect x="50.24" y="29.76" width="1018.96" height="140.68"/>
  </clipPath>
 </defs>
</svg>
