<?xml version="1.0" encoding="utf-8" standalone="no"?>
<!DOCTYPE svg PUBLIC "-//W3C//DTD SVG 1.1//EN"
  "http://www.w3.org/Graphics/SVG/1.1/DTD/svg11.dtd">
<svg xmlns:xlink="http://www.w3.org/1999/xlink" width="1080pt" height="216pt" viewBox="0 0 1080 216" xmlns="http://www.w3.org/2000/svg" version="1.1">
 <metadata>
  <rdf:RDF xmlns:dc="http://purl.org/dc/elements/1.1/" xmlns:cc="http://creativecommons.org/ns#" xmlns:rdf="http://www.w3.org/1999/02/22-rdf-syntax-ns#">
   <cc:Work>
    <dc:type rdf:resource="http://purl.org/dc/dcmitype/StillImage"/>
    <dc:date>2026-02-09T10:07:34.205233</dc:date>
    <dc:format>image/svg+xml</dc:format>
    <dc:creator>
     <cc:Agent>
      <dc:title>Matplotlib v3.10.8, https://matplotlib.org/</dc:title>
     </cc:Agent>
    </dc:creator>
   </cc:Work>
  </rdf:RDF>
 </metadata>
 <defs>
  <style type="text/css">*{stroke-linejoin: round; stroke-linecap: butt}</style>
 </defs>
 <g id="figure_1">
  <g id="patch_1">
   <path d="M 0 216 
L 1080 216 
L 1080 0 
L 0 0 
z
" style="fill: #ffffff"/>
  </g>
  <g id="axes_1">
   <g id="patch_2">
    <path d="M 50.24 170.44 
L 1069.2 170.44 
L 1069.2 29.76 
L 50.24 29.76 
z
" style="fill: #ffffff"/>
   </g>
   <g id="matplotlib.axis_1">
    <g id="xtick_1">
     <g id="line2d_1">
      <defs>
       <path id="mbaa1ca0204" d="M 0 0 
L 0 3.5 
" style="stroke: #000000; stroke-width: 0.8"/>
      </defs>
      <g>
       <use xlink:href="#mbaa1ca0204" x="50.24" y="170.44" style="stroke: #000000; stroke-width: 0.8"/>
      </g>
     </g>
     <g id="text_1">
      <!-- 0 -->
      <g transform="translate(47.05875 185.038437) scale(0.1 -0.1)">
       <defs>
        <path id="DejaVuSans-30" d="M 2034 4250 
Q 1547 4250 1301 3770 
Q 1056 3291 1056 2328 
Q 1056 1369 1301 889 
Q 1547 409 2034 409 
Q 2525 409 2770 889 
Q 3016 1369 3016 2328 
Q 3016 3291 2770 3770 
Q 2525 4250 2034 4250 
z
M 2034 4750 
Q 2819 4750 3233 4129 
Q 3647 3509 3647 2328 
Q 3647 1150 3233 529 
Q 2819 -91 2034 -91 
Q 1250 -91 836 529 
Q 422 1150 422 2328 
Q 422 3509 836 4129 
Q 1250 4750 2034 4750 
z
" transform="scale(0.015625)"/>
       </defs>
       <use xlink:href="#DejaVuSans-30"/>
      </g>
     </g>
    </g>
    <g id="xtick_2">
     <g id="line2d_2">
      <g>
       <use xlink:href="#mbaa1ca0204" x="183.26784" y="170.44" style="stroke: #000000; stroke-width: 0.8"/>
      </g>
     </g>
     <g id="text_2">
      <!-- 200 -->
      <g transform="translate(173.72409 185.038437) scale(0.1 -0.1)">
       <defs>
        <path id="DejaVuSans-32" d="M 1228 531 
L 3431 531 
L 3431 0 
L 469 0 
L 469 531 
Q 828 903 1448 1529 
Q 2069 2156 2228 2338 
Q 2531 2678 2651 2914 
Q 2772 3150 2772 3378 
Q 2772 3750 2511 3984 
Q 2250 4219 1831 4219 
Q 1534 4219 1204 4116 
Q 875 4013 500 3803 
L 500 4441 
Q 881 4594 1212 4672 
Q 1544 4750 1819 4750 
Q 2544 4750 2975 4387 
Q 3406 4025 3406 3419 
Q 3406 3131 3298 2873 
Q 3191 2616 2906 2266 
Q 2828 2175 2409 1742 
Q 1991 1309 1228 531 
z
" transform="scale(0.015625)"/>
       </defs>
       <use xlink:href="#DejaVuSans-32"/>
       <use xlink:href="#DejaVuSans-30" transform="translate(63.623047 0)"/>
       <use xlink:href="#DejaVuSans-30" transform="translate(127.246094 0)"/>
      </g>
     </g>
    </g>
    <g id="xtick_3">
     <g id="line2d_3">
      <g>
       <use xlink:href="#mbaa1ca0204" x="316.295681" y="170.44" style="stroke: #000000; stroke-width: 0.8"/>
      </g>
     </g>
     <g id="text_3">
      <!-- 400 -->
      <g transform="translate(306.751931 185.038437) scale(0.1 -0.1)">
       <defs>
        <path id="DejaVuSans-34" d="M 2419 4116 
L 825 1625 
L 2419 1625 
L 2419 4116 
z
M 2253 4666 
L 3047 4666 
L 3047 1625 
L 3713 1625 
L 3713 1100 
L 3047 1100 
L 3047 0 
L 2419 0 
L 2419 1100 
L 313 1100 
L 313 1709 
L 2253 4666 
z
" transform="scale(0.015625)"/>
       </defs>
       <use xlink:href="#DejaVuSans-34"/>
       <use xlink:href="#DejaVuSans-30" transform="translate(63.623047 0)"/>
       <use xlink:href="#DejaVuSans-30" transform="translate(127.246094 0)"/>
      </g>
     </g>
    </g>
    <g id="xtick_4">
     <g id="line2d_4">
      <g>
       <use xlink:href="#mbaa1ca0204" x="449.323521" y="170.44" style="stroke: #000000; stroke-width: 0.8"/>
      </g>
     </g>
     <g id="text_4">
      <!-- 600 -->
      <g transform="translate(439.779771 185.038437) scale(0.1 -0.1)">
       <defs>
        <path id="DejaVuSans-36" d="M 2113 2584 
Q 1688 2584 1439 2293 
Q 1191 2003 1191 1497 
Q 1191 994 1439 701 
Q 1688 409 2113 409 
Q 2538 409 2786 701 
Q 3034 994 3034 1497 
Q 3034 2003 2786 2293 
Q 2538 2584 2113 2584 
z
M 3366 4563 
L 3366 3988 
Q 3128 4100 2886 4159 
Q 2644 4219 2406 4219 
Q 1781 4219 1451 3797 
Q 1122 3375 1075 2522 
Q 1259 2794 1537 2939 
Q 1816 3084 2150 3084 
Q 2853 3084 3261 2657 
Q 3669 2231 3669 1497 
Q 3669 778 3244 343 
Q 2819 -91 2113 -91 
Q 1303 -91 875 529 
Q 447 1150 447 2328 
Q 447 3434 972 4092 
Q 1497 4750 2381 4750 
Q 2619 4750 2861 4703 
Q 3103 4656 3366 4563 
z
" transform="scale(0.015625)"/>
       </defs>
       <use xlink:href="#DejaVuSans-36"/>
       <use xlink:href="#DejaVuSans-30" transform="translate(63.623047 0)"/>
       <use xlink:href="#DejaVuSans-30" transform="translate(127.246094 0)"/>
      </g>
     </g>
    </g>
    <g id="xtick_5">
     <g id="line2d_5">
      <g>
       <use xlink:href="#mbaa1ca0204" x="582.351361" y="170.44" style="stroke: #000000; stroke-width: 0.8"/>
      </g>
     </g>
     <g id="text_5">
      <!-- 800 -->
      <g transform="translate(572.807611 185.038437) scale(0.1 -0.1)">
       <defs>
        <path id="DejaVuSans-38" d="M 2034 2216 
Q 1584 2216 1326 1975 
Q 1069 1734 1069 1313 
Q 1069 891 1326 650 
Q 1584 409 2034 409 
Q 2484 409 2743 651 
Q 3003 894 3003 1313 
Q 3003 1734 2745 1975 
Q 2488 2216 2034 2216 
z
M 1403 2484 
Q 997 2584 770 2862 
Q 544 3141 544 3541 
Q 544 4100 942 4425 
Q 1341 4750 2034 4750 
Q 2731 4750 3128 4425 
Q 3525 4100 3525 3541 
Q 3525 3141 3298 2862 
Q 3072 2584 2669 2484 
Q 3125 2378 3379 2068 
Q 3634 1759 3634 1313 
Q 3634 634 3220 271 
Q 2806 -91 2034 -91 
Q 1263 -91 848 271 
Q 434 634 434 1313 
Q 434 1759 690 2068 
Q 947 2378 1403 2484 
z
M 1172 3481 
Q 1172 3119 1398 2916 
Q 1625 2713 2034 2713 
Q 2441 2713 2670 2916 
Q 2900 3119 2900 3481 
Q 2900 3844 2670 4047 
Q 2441 4250 2034 4250 
Q 1625 4250 1398 4047 
Q 1172 3844 1172 3481 
z
" transform="scale(0.015625)"/>
       </defs>
       <use xlink:href="#DejaVuSans-38"/>
       <use xlink:href="#DejaVuSans-30" transform="translate(63.623047 0)"/>
       <use xlink:href="#DejaVuSans-30" transform="translate(127.246094 0)"/>
      </g>
     </g>
    </g>
    <g id="xtick_6">
     <g id="line2d_6">
      <g>
       <use xlink:href="#mbaa1ca0204" x="715.379202" y="170.44" style="stroke: #000000; stroke-width: 0.8"/>
      </g>
     </g>
     <g id="text_6">
      <!-- 1000 -->
      <g transform="translate(702.654202 185.038437) scale(0.1 -0.1)">
       <defs>
        <path id="DejaVuSans-31" d="M 794 531 
L 1825 531 
L 1825 4091 
L 703 3866 
L 703 4441 
L 1819 4666 
L 2450 4666 
L 2450 531 
L 3481 531 
L 3481 0 
L 794 0 
L 794 531 
z
" transform="scale(0.015625)"/>
       </defs>
       <use xlink:href="#DejaVuSans-31"/>
       <use xlink:href="#DejaVuSans-30" transform="translate(63.623047 0)"/>
       <use xlink:href="#DejaVuSans-30" transform="translate(127.246094 0)"/>
       <use xlink:href="#DejaVuSans-30" transform="translate(190.869141 0)"/>
      </g>
     </g>
    </g>
    <g id="xtick_7">
     <g id="line2d_7">
      <g>
       <use xlink:href="#mbaa1ca0204" x="848.407042" y="170.44" style="stroke: #000000; stroke-width: 0.8"/>
      </g>
     </g>
     <g id="text_7">
      <!-- 1200 -->
      <g transform="translate(835.682042 185.038437) scale(0.1 -0.1)">
       <use xlink:href="#DejaVuSans-31"/>
       <use xlink:href="#DejaVuSans-32" transform="translate(63.623047 0)"/>
       <use xlink:href="#DejaVuSans-30" transform="translate(127.246094 0)"/>
       <use xlink:href="#DejaVuSans-30" transform="translate(190.869141 0)"/>
      </g>
     </g>
    </g>
    <g id="xtick_8">
     <g id="line2d_8">
      <g>
       <use xlink:href="#mbaa1ca0204" x="981.434882" y="170.44" style="stroke: #000000; stroke-width: 0.8"/>
      </g>
     </g>
     <g id="text_8">
      <!-- 1400 -->
      <g transform="translate(968.709882 185.038437) scale(0.1 -0.1)">
       <use xlink:href="#DejaVuSans-31"/>
       <use xlink:href="#DejaVuSans-34" transform="translate(63.623047 0)"/>
       <use xlink:href="#DejaVuSans-30" transform="translate(127.246094 0)"/>
       <use xlink:href="#DejaVuSans-30" transform="translate(190.869141 0)"/>
      </g>
     </g>
    </g>
    <g id="text_9">
     <!-- Simulation Days -->
     <g transform="translate(502.74 201.755937) scale(0.14 -0.14)">
      <defs>
       <path id="DejaVuSans-53" d="M 3425 4513 
L 3425 3897 
Q 3066 4069 2747 4153 
Q 2428 4238 2131 4238 
Q 1616 4238 1336 4038 
Q 1056 3838 1056 3469 
Q 1056 3159 1242 3001 
Q 1428 2844 1947 2747 
L 2328 2669 
Q 3034 2534 3370 2195 
Q 3706 1856 3706 1288 
Q 3706 609 3251 259 
Q 2797 -91 1919 -91 
Q 1588 -91 1214 -16 
Q 841 59 441 206 
L 441 856 
Q 825 641 1194 531 
Q 1563 422 1919 422 
Q 2459 422 2753 634 
Q 3047 847 3047 1241 
Q 3047 1584 2836 1778 
Q 2625 1972 2144 2069 
L 1759 2144 
Q 1053 2284 737 2584 
Q 422 2884 422 3419 
Q 422 4038 858 4394 
Q 1294 4750 2059 4750 
Q 2388 4750 2728 4690 
Q 3069 4631 3425 4513 
z
" transform="scale(0.015625)"/>
       <path id="DejaVuSans-69" d="M 603 3500 
L 1178 3500 
L 1178 0 
L 603 0 
L 603 3500 
z
M 603 4863 
L 1178 4863 
L 1178 4134 
L 603 4134 
L 603 4863 
z
" transform="scale(0.015625)"/>
       <path id="DejaVuSans-6d" d="M 3328 2828 
Q 3544 3216 3844 3400 
Q 4144 3584 4550 3584 
Q 5097 3584 5394 3201 
Q 5691 2819 5691 2113 
L 5691 0 
L 5113 0 
L 5113 2094 
Q 5113 2597 4934 2840 
Q 4756 3084 4391 3084 
Q 3944 3084 3684 2787 
Q 3425 2491 3425 1978 
L 3425 0 
L 2847 0 
L 2847 2094 
Q 2847 2600 2669 2842 
Q 2491 3084 2119 3084 
Q 1678 3084 1418 2786 
Q 1159 2488 1159 1978 
L 1159 0 
L 581 0 
L 581 3500 
L 1159 3500 
L 1159 2956 
Q 1356 3278 1631 3431 
Q 1906 3584 2284 3584 
Q 2666 3584 2933 3390 
Q 3200 3197 3328 2828 
z
" transform="scale(0.015625)"/>
       <path id="DejaVuSans-75" d="M 544 1381 
L 544 3500 
L 1119 3500 
L 1119 1403 
Q 1119 906 1312 657 
Q 1506 409 1894 409 
Q 2359 409 2629 706 
Q 2900 1003 2900 1516 
L 2900 3500 
L 3475 3500 
L 3475 0 
L 2900 0 
L 2900 538 
Q 2691 219 2414 64 
Q 2138 -91 1772 -91 
Q 1169 -91 856 284 
Q 544 659 544 1381 
z
M 1991 3584 
L 1991 3584 
z
" transform="scale(0.015625)"/>
       <path id="DejaVuSans-6c" d="M 603 4863 
L 1178 4863 
L 1178 0 
L 603 0 
L 603 4863 
z
" transform="scale(0.015625)"/>
       <path id="DejaVuSans-61" d="M 2194 1759 
Q 1497 1759 1228 1600 
Q 959 1441 959 1056 
Q 959 750 1161 570 
Q 1363 391 1709 391 
Q 2188 391 2477 730 
Q 2766 1069 2766 1631 
L 2766 1759 
L 2194 1759 
z
M 3341 1997 
L 3341 0 
L 2766 0 
L 2766 531 
Q 2569 213 2275 61 
Q 1981 -91 1556 -91 
Q 1019 -91 701 211 
Q 384 513 384 1019 
Q 384 1609 779 1909 
Q 1175 2209 1959 2209 
L 2766 2209 
L 2766 2266 
Q 2766 2663 2505 2880 
Q 2244 3097 1772 3097 
Q 1472 3097 1187 3025 
Q 903 2953 641 2809 
L 641 3341 
Q 956 3463 1253 3523 
Q 1550 3584 1831 3584 
Q 2591 3584 2966 3190 
Q 3341 2797 3341 1997 
z
" transform="scale(0.015625)"/>
       <path id="DejaVuSans-74" d="M 1172 4494 
L 1172 3500 
L 2356 3500 
L 2356 3053 
L 1172 3053 
L 1172 1153 
Q 1172 725 1289 603 
Q 1406 481 1766 481 
L 2356 481 
L 2356 0 
L 1766 0 
Q 1100 0 847 248 
Q 594 497 594 1153 
L 594 3053 
L 172 3053 
L 172 3500 
L 594 3500 
L 594 4494 
L 1172 4494 
z
" transform="scale(0.015625)"/>
       <path id="DejaVuSans-6f" d="M 1959 3097 
Q 1497 3097 1228 2736 
Q 959 2375 959 1747 
Q 959 1119 1226 758 
Q 1494 397 1959 397 
Q 2419 397 2687 759 
Q 2956 1122 2956 1747 
Q 2956 2369 2687 2733 
Q 2419 3097 1959 3097 
z
M 1959 3584 
Q 2709 3584 3137 3096 
Q 3566 2609 3566 1747 
Q 3566 888 3137 398 
Q 2709 -91 1959 -91 
Q 1206 -91 779 398 
Q 353 888 353 1747 
Q 353 2609 779 3096 
Q 1206 3584 1959 3584 
z
" transform="scale(0.015625)"/>
       <path id="DejaVuSans-6e" d="M 3513 2113 
L 3513 0 
L 2938 0 
L 2938 2094 
Q 2938 2591 2744 2837 
Q 2550 3084 2163 3084 
Q 1697 3084 1428 2787 
Q 1159 2491 1159 1978 
L 1159 0 
L 581 0 
L 581 3500 
L 1159 3500 
L 1159 2956 
Q 1366 3272 1645 3428 
Q 1925 3584 2291 3584 
Q 2894 3584 3203 3211 
Q 3513 2838 3513 2113 
z
" transform="scale(0.015625)"/>
       <path id="DejaVuSans-20" transform="scale(0.015625)"/>
       <path id="DejaVuSans-44" d="M 1259 4147 
L 1259 519 
L 2022 519 
Q 2988 519 3436 956 
Q 3884 1394 3884 2338 
Q 3884 3275 3436 3711 
Q 2988 4147 2022 4147 
L 1259 4147 
z
M 628 4666 
L 1925 4666 
Q 3281 4666 3915 4102 
Q 4550 3538 4550 2338 
Q 4550 1131 3912 565 
Q 3275 0 1925 0 
L 628 0 
L 628 4666 
z
" transform="scale(0.015625)"/>
       <path id="DejaVuSans-79" d="M 2059 -325 
Q 1816 -950 1584 -1140 
Q 1353 -1331 966 -1331 
L 506 -1331 
L 506 -850 
L 844 -850 
Q 1081 -850 1212 -737 
Q 1344 -625 1503 -206 
L 1606 56 
L 191 3500 
L 800 3500 
L 1894 763 
L 2988 3500 
L 3597 3500 
L 2059 -325 
z
" transform="scale(0.015625)"/>
       <path id="DejaVuSans-73" d="M 2834 3397 
L 2834 2853 
Q 2591 2978 2328 3040 
Q 2066 3103 1784 3103 
Q 1356 3103 1142 2972 
Q 928 2841 928 2578 
Q 928 2378 1081 2264 
Q 1234 2150 1697 2047 
L 1894 2003 
Q 2506 1872 2764 1633 
Q 3022 1394 3022 966 
Q 3022 478 2636 193 
Q 2250 -91 1575 -91 
Q 1294 -91 989 -36 
Q 684 19 347 128 
L 347 722 
Q 666 556 975 473 
Q 1284 391 1588 391 
Q 1994 391 2212 530 
Q 2431 669 2431 922 
Q 2431 1156 2273 1281 
Q 2116 1406 1581 1522 
L 1381 1569 
Q 847 1681 609 1914 
Q 372 2147 372 2553 
Q 372 3047 722 3315 
Q 1072 3584 1716 3584 
Q 2034 3584 2315 3537 
Q 2597 3491 2834 3397 
z
" transform="scale(0.015625)"/>
      </defs>
      <use xlink:href="#DejaVuSans-53"/>
      <use xlink:href="#DejaVuSans-69" transform="translate(63.476562 0)"/>
      <use xlink:href="#DejaVuSans-6d" transform="translate(91.259766 0)"/>
      <use xlink:href="#DejaVuSans-75" transform="translate(188.671875 0)"/>
      <use xlink:href="#DejaVuSans-6c" transform="translate(252.050781 0)"/>
      <use xlink:href="#DejaVuSans-61" transform="translate(279.833984 0)"/>
      <use xlink:href="#DejaVuSans-74" transform="translate(341.113281 0)"/>
      <use xlink:href="#DejaVuSans-69" transform="translate(380.322266 0)"/>
      <use xlink:href="#DejaVuSans-6f" transform="translate(408.105469 0)"/>
      <use xlink:href="#DejaVuSans-6e" transform="translate(469.287109 0)"/>
      <use xlink:href="#DejaVuSans-20" transform="translate(532.666016 0)"/>
      <use xlink:href="#DejaVuSans-44" transform="translate(564.453125 0)"/>
      <use xlink:href="#DejaVuSans-61" transform="translate(641.455078 0)"/>
      <use xlink:href="#DejaVuSans-79" transform="translate(702.734375 0)"/>
      <use xlink:href="#DejaVuSans-73" transform="translate(761.914062 0)"/>
     </g>
    </g>
   </g>
   <g id="matplotlib.axis_2">
    <g id="ytick_1">
     <g id="line2d_9">
      <defs>
       <path id="m0ddd91d235" d="M 0 0 
L -3.5 0 
" style="stroke: #000000; stroke-width: 0.8"/>
      </defs>
      <g>
       <use xlink:href="#m0ddd91d235" x="50.24" y="160.12772" style="stroke: #000000; stroke-width: 0.8"/>
      </g>
     </g>
     <g id="text_10">
      <!-- −6 -->
      <g transform="translate(28.497813 163.926939) scale(0.1 -0.1)">
       <defs>
        <path id="DejaVuSans-2212" d="M 678 2272 
L 4684 2272 
L 4684 1741 
L 678 1741 
L 678 2272 
z
" transform="scale(0.015625)"/>
       </defs>
       <use xlink:href="#DejaVuSans-2212"/>
       <use xlink:href="#DejaVuSans-36" transform="translate(83.789062 0)"/>
      </g>
     </g>
    </g>
    <g id="ytick_2">
     <g id="line2d_10">
      <g>
       <use xlink:href="#m0ddd91d235" x="50.24" y="129.911528" style="stroke: #000000; stroke-width: 0.8"/>
      </g>
     </g>
     <g id="text_11">
      <!-- −3 -->
      <g transform="translate(28.497813 133.710747) scale(0.1 -0.1)">
       <defs>
        <path id="DejaVuSans-33" d="M 2597 2516 
Q 3050 2419 3304 2112 
Q 3559 1806 3559 1356 
Q 3559 666 3084 287 
Q 2609 -91 1734 -91 
Q 1441 -91 1130 -33 
Q 819 25 488 141 
L 488 750 
Q 750 597 1062 519 
Q 1375 441 1716 441 
Q 2309 441 2620 675 
Q 2931 909 2931 1356 
Q 2931 1769 2642 2001 
Q 2353 2234 1838 2234 
L 1294 2234 
L 1294 2753 
L 1863 2753 
Q 2328 2753 2575 2939 
Q 2822 3125 2822 3475 
Q 2822 3834 2567 4026 
Q 2313 4219 1838 4219 
Q 1578 4219 1281 4162 
Q 984 4106 628 3988 
L 628 4550 
Q 988 4650 1302 4700 
Q 1616 4750 1894 4750 
Q 2613 4750 3031 4423 
Q 3450 4097 3450 3541 
Q 3450 3153 3228 2886 
Q 3006 2619 2597 2516 
z
" transform="scale(0.015625)"/>
       </defs>
       <use xlink:href="#DejaVuSans-2212"/>
       <use xlink:href="#DejaVuSans-33" transform="translate(83.789062 0)"/>
      </g>
     </g>
    </g>
    <g id="ytick_3">
     <g id="line2d_11">
      <g>
       <use xlink:href="#m0ddd91d235" x="50.24" y="99.695336" style="stroke: #000000; stroke-width: 0.8"/>
      </g>
     </g>
     <g id="text_12">
      <!-- 0 -->
      <g transform="translate(36.8775 103.494555) scale(0.1 -0.1)">
       <use xlink:href="#DejaVuSans-30"/>
      </g>
     </g>
    </g>
    <g id="ytick_4">
     <g id="line2d_12">
      <g>
       <use xlink:href="#m0ddd91d235" x="50.24" y="69.479144" style="stroke: #000000; stroke-width: 0.8"/>
      </g>
     </g>
     <g id="text_13">
      <!-- 3 -->
      <g transform="translate(36.8775 73.278363) scale(0.1 -0.1)">
       <use xlink:href="#DejaVuSans-33"/>
      </g>
     </g>
    </g>
    <g id="ytick_5">
     <g id="line2d_13">
      <g>
       <use xlink:href="#m0ddd91d235" x="50.24" y="39.262952" style="stroke: #000000; stroke-width: 0.8"/>
      </g>
     </g>
     <g id="text_14">
      <!-- 6 -->
      <g transform="translate(36.8775 43.062171) scale(0.1 -0.1)">
       <use xlink:href="#DejaVuSans-36"/>
      </g>
     </g>
    </g>
    <g id="text_15">
     <!-- Temperature (℃) -->
     <g transform="translate(21.58625 159.986094) rotate(-90) scale(0.14 -0.14)">
      <defs>
       <path id="DejaVuSans-54" d="M -19 4666 
L 3928 4666 
L 3928 4134 
L 2272 4134 
L 2272 0 
L 1638 0 
L 1638 4134 
L -19 4134 
L -19 4666 
z
" transform="scale(0.015625)"/>
       <path id="DejaVuSans-65" d="M 3597 1894 
L 3597 1613 
L 953 1613 
Q 991 1019 1311 708 
Q 1631 397 2203 397 
Q 2534 397 2845 478 
Q 3156 559 3463 722 
L 3463 178 
Q 3153 47 2828 -22 
Q 2503 -91 2169 -91 
Q 1331 -91 842 396 
Q 353 884 353 1716 
Q 353 2575 817 3079 
Q 1281 3584 2069 3584 
Q 2775 3584 3186 3129 
Q 3597 2675 3597 1894 
z
M 3022 2063 
Q 3016 2534 2758 2815 
Q 2500 3097 2075 3097 
Q 1594 3097 1305 2825 
Q 1016 2553 972 2059 
L 3022 2063 
z
" transform="scale(0.015625)"/>
       <path id="DejaVuSans-70" d="M 1159 525 
L 1159 -1331 
L 581 -1331 
L 581 3500 
L 1159 3500 
L 1159 2969 
Q 1341 3281 1617 3432 
Q 1894 3584 2278 3584 
Q 2916 3584 3314 3078 
Q 3713 2572 3713 1747 
Q 3713 922 3314 415 
Q 2916 -91 2278 -91 
Q 1894 -91 1617 61 
Q 1341 213 1159 525 
z
M 3116 1747 
Q 3116 2381 2855 2742 
Q 2594 3103 2138 3103 
Q 1681 3103 1420 2742 
Q 1159 2381 1159 1747 
Q 1159 1113 1420 752 
Q 1681 391 2138 391 
Q 2594 391 2855 752 
Q 3116 1113 3116 1747 
z
" transform="scale(0.015625)"/>
       <path id="DejaVuSans-72" d="M 2631 2963 
Q 2534 3019 2420 3045 
Q 2306 3072 2169 3072 
Q 1681 3072 1420 2755 
Q 1159 2438 1159 1844 
L 1159 0 
L 581 0 
L 581 3500 
L 1159 3500 
L 1159 2956 
Q 1341 3275 1631 3429 
Q 1922 3584 2338 3584 
Q 2397 3584 2469 3576 
Q 2541 3569 2628 3553 
L 2631 2963 
z
" transform="scale(0.015625)"/>
       <path id="DejaVuSans-28" d="M 1984 4856 
Q 1566 4138 1362 3434 
Q 1159 2731 1159 2009 
Q 1159 1288 1364 580 
Q 1569 -128 1984 -844 
L 1484 -844 
Q 1016 -109 783 600 
Q 550 1309 550 2009 
Q 550 2706 781 3412 
Q 1013 4119 1484 4856 
L 1984 4856 
z
" transform="scale(0.015625)"/>
       <path id="DejaVuSans-2103" d="M 1600 4347 
Q 1350 4347 1178 4173 
Q 1006 4000 1006 3750 
Q 1006 3503 1178 3333 
Q 1350 3163 1600 3163 
Q 1850 3163 2022 3333 
Q 2194 3503 2194 3750 
Q 2194 3997 2020 4172 
Q 1847 4347 1600 4347 
z
M 1600 4750 
Q 1800 4750 1984 4673 
Q 2169 4597 2303 4453 
Q 2447 4313 2519 4134 
Q 2591 3956 2591 3750 
Q 2591 3338 2302 3052 
Q 2013 2766 1594 2766 
Q 1172 2766 890 3047 
Q 609 3328 609 3750 
Q 609 4169 896 4459 
Q 1184 4750 1600 4750 
z
M 6741 4306 
L 6741 3641 
Q 6422 3938 6061 4084 
Q 5700 4231 5294 4231 
Q 4494 4231 4069 3742 
Q 3644 3253 3644 2328 
Q 3644 1406 4069 917 
Q 4494 428 5294 428 
Q 5700 428 6061 575 
Q 6422 722 6741 1019 
L 6741 359 
Q 6409 134 6039 21 
Q 5669 -91 5256 -91 
Q 4197 -91 3587 557 
Q 2978 1206 2978 2328 
Q 2978 3453 3587 4101 
Q 4197 4750 5256 4750 
Q 5675 4750 6045 4639 
Q 6416 4528 6741 4306 
z
" transform="scale(0.015625)"/>
       <path id="DejaVuSans-29" d="M 513 4856 
L 1013 4856 
Q 1481 4119 1714 3412 
Q 1947 2706 1947 2009 
Q 1947 1309 1714 600 
Q 1481 -109 1013 -844 
L 513 -844 
Q 928 -128 1133 580 
Q 1338 1288 1338 2009 
Q 1338 2731 1133 3434 
Q 928 4138 513 4856 
z
" transform="scale(0.015625)"/>
      </defs>
      <use xlink:href="#DejaVuSans-54"/>
      <use xlink:href="#DejaVuSans-65" transform="translate(44.083984 0)"/>
      <use xlink:href="#DejaVuSans-6d" transform="translate(105.607422 0)"/>
      <use xlink:href="#DejaVuSans-70" transform="translate(203.019531 0)"/>
      <use xlink:href="#DejaVuSans-65" transform="translate(266.496094 0)"/>
      <use xlink:href="#DejaVuSans-72" transform="translate(328.019531 0)"/>
      <use xlink:href="#DejaVuSans-61" transform="translate(369.132812 0)"/>
      <use xlink:href="#DejaVuSans-74" transform="translate(430.412109 0)"/>
      <use xlink:href="#DejaVuSans-75" transform="translate(469.621094 0)"/>
      <use xlink:href="#DejaVuSans-72" transform="translate(533 0)"/>
      <use xlink:href="#DejaVuSans-65" transform="translate(571.863281 0)"/>
      <use xlink:href="#DejaVuSans-20" transform="translate(633.386719 0)"/>
      <use xlink:href="#DejaVuSans-28" transform="translate(665.173828 0)"/>
      <use xlink:href="#DejaVuSans-2103" transform="translate(704.1875 0)"/>
      <use xlink:href="#DejaVuSans-29" transform="translate(816.492188 0)"/>
     </g>
    </g>
   </g>
   <g id="line2d_14">
    <path d="M 50.24 149.034473 
L 52.235418 149.219938 
L 54.230835 149.706874 
L 55.561114 150.225282 
L 56.891392 150.921432 
L 58.22167 151.809452 
L 60.217088 153.491277 
L 62.877645 156.170923 
L 65.538202 158.765475 
L 66.86848 159.801524 
L 68.198758 160.569656 
L 69.529037 161.032527 
L 70.859315 161.178597 
L 72.189594 161.01675 
L 73.519872 160.569192 
L 74.85015 159.867539 
L 76.180429 158.950508 
L 78.175846 157.273 
L 85.492378 150.616029 
L 87.487795 149.197037 
L 89.483213 148.00713 
L 92.14377 146.705684 
L 95.469466 145.373322 
L 99.460301 144.017757 
L 104.116275 142.690131 
L 109.437389 141.150563 
L 120.079616 137.694314 
L 124.070451 136.836881 
L 129.391565 135.987792 
L 134.712679 135.117376 
L 138.038375 134.376054 
L 140.698931 133.606515 
L 142.694349 132.852602 
L 144.689767 131.81718 
L 146.020045 130.877068 
L 147.350323 129.658086 
L 148.680602 128.096518 
L 150.01088 126.14998 
L 151.341159 123.814367 
L 153.336576 119.696926 
L 157.992551 109.449826 
L 159.322829 107.016178 
L 160.653107 104.985663 
L 161.983386 103.379435 
L 163.313664 102.173471 
L 164.643943 101.312654 
L 165.974221 100.726837 
L 167.304499 100.344565 
L 169.299917 100.016207 
L 177.281588 99.090043 
L 179.277005 98.459072 
L 181.272423 97.496872 
L 182.602701 96.645679 
L 184.598119 95.036045 
L 186.593536 93.026671 
L 188.588954 90.627559 
L 190.584372 87.880556 
L 195.240346 81.245845 
L 196.570624 79.861244 
L 197.235764 79.357311 
L 197.900903 79.004086 
L 198.566042 78.816291 
L 199.231181 78.804093 
L 199.89632 78.972623 
L 200.56146 79.321443 
L 201.226599 79.844489 
L 202.556877 81.361055 
L 203.887156 83.37026 
L 208.54313 91.145692 
L 209.873408 92.71835 
L 211.203687 93.744789 
L 211.868826 94.03935 
L 212.533965 94.190183 
L 213.199104 94.204732 
L 214.529383 93.877572 
L 215.859661 93.201991 
L 219.185357 91.280913 
L 220.515636 90.919141 
L 221.845914 90.973316 
L 223.176192 91.45753 
L 224.506471 92.309375 
L 226.501888 94.029948 
L 235.148698 102.360599 
L 236.478976 104.092981 
L 237.809255 106.144983 
L 239.139533 108.546352 
L 241.134951 112.76247 
L 246.456064 124.984073 
L 247.786343 127.319782 
L 249.116621 129.039497 
L 249.781761 129.644049 
L 250.4469 130.07599 
L 251.112039 130.34033 
L 251.777178 130.447062 
L 252.442317 130.410607 
L 253.772596 129.982916 
L 255.102874 129.228906 
L 258.42857 127.117064 
L 259.758849 126.605994 
L 261.089127 126.470089 
L 261.754266 126.567302 
L 262.419405 126.782205 
L 263.749684 127.568618 
L 265.079962 128.801849 
L 266.410241 130.399805 
L 269.070797 134.145851 
L 271.066215 136.826141 
L 272.396493 138.311127 
L 273.726772 139.478027 
L 275.05705 140.322816 
L 276.387329 140.887656 
L 278.382746 141.380604 
L 281.708442 142.012503 
L 283.70386 142.668191 
L 285.699277 143.628836 
L 290.355252 146.18576 
L 291.68553 146.654526 
L 293.015809 146.890446 
L 294.346087 146.872239 
L 295.676365 146.610977 
L 297.006644 146.144633 
L 299.002061 145.183247 
L 304.323175 142.411246 
L 306.318593 141.672144 
L 307.648871 141.348149 
L 308.979149 141.195875 
L 310.309428 141.249016 
L 311.639706 141.537475 
L 312.969985 142.079365 
L 314.300263 142.875234 
L 315.630541 143.905267 
L 317.625959 145.801854 
L 321.616794 150.1539 
L 323.612212 152.192397 
L 325.607629 153.911633 
L 327.603047 155.252384 
L 329.598465 156.288942 
L 334.254439 158.556163 
L 338.910414 161.221567 
L 340.240692 161.659664 
L 341.57097 161.719829 
L 342.23611 161.57074 
L 342.901249 161.286931 
L 343.566388 160.86112 
L 344.896666 159.574818 
L 346.226945 157.740089 
L 347.557223 155.456905 
L 350.21778 150.215802 
L 352.213198 146.442148 
L 353.543476 144.28687 
L 354.873754 142.501512 
L 356.204033 141.079014 
L 357.534311 139.959495 
L 359.529729 138.656393 
L 362.855425 136.877618 
L 368.841678 133.739861 
L 370.171956 132.845157 
L 371.502234 131.71284 
L 372.832513 130.239588 
L 374.162791 128.341184 
L 375.49307 125.978172 
L 376.823348 123.176357 
L 378.818766 118.38103 
L 382.144462 110.276973 
L 383.47474 107.524997 
L 384.805018 105.233942 
L 386.135297 103.436869 
L 387.465575 102.108137 
L 388.795854 101.181193 
L 390.126132 100.569023 
L 391.45641 100.184393 
L 393.451828 99.866307 
L 398.107802 99.333004 
L 399.438081 98.996203 
L 400.768359 98.459258 
L 402.098638 97.64726 
L 403.428916 96.494091 
L 404.759194 94.96467 
L 406.089473 93.077293 
L 408.75003 88.65974 
L 410.745447 85.528128 
L 412.075726 83.910348 
L 413.406004 82.810034 
L 414.736283 82.210157 
L 416.066561 81.954799 
L 418.061979 81.629986 
L 418.727118 81.386604 
L 419.392257 81.020883 
L 420.057396 80.510315 
L 420.722535 79.8419 
L 422.052814 78.031059 
L 423.383092 75.691126 
L 426.708788 69.246077 
L 428.039067 67.190275 
L 429.369345 65.718829 
L 430.034484 65.216304 
L 430.699623 64.862885 
L 431.364763 64.647324 
L 432.695041 64.570375 
L 434.025319 64.859393 
L 435.355598 65.404183 
L 437.351015 66.547905 
L 439.346433 67.974157 
L 445.332686 72.633757 
L 447.328103 73.777316 
L 452.649217 76.342144 
L 453.979495 77.343145 
L 455.309774 78.654312 
L 456.640052 80.31246 
L 457.970331 82.318163 
L 459.965748 85.907874 
L 461.961166 90.02024 
L 467.282279 101.315204 
L 468.612558 103.600621 
L 469.942836 105.428051 
L 471.273115 106.709151 
L 471.938254 107.129695 
L 472.603393 107.402315 
L 473.268532 107.530731 
L 473.933671 107.522365 
L 475.26395 107.141261 
L 476.594228 106.376047 
L 478.589646 104.818295 
L 481.250203 102.68835 
L 482.580481 101.833229 
L 483.910759 101.205397 
L 485.241038 100.845615 
L 486.571316 100.787568 
L 487.901595 101.065807 
L 489.231873 101.718998 
L 490.562152 102.782105 
L 491.89243 104.276154 
L 493.222708 106.195221 
L 494.552987 108.498114 
L 496.548404 112.501343 
L 505.195214 130.886674 
L 517.832859 155.607381 
L 519.828276 158.777024 
L 521.158555 160.46338 
L 522.488833 161.722997 
L 523.819112 162.506302 
L 524.484251 162.712369 
L 525.14939 162.795747 
L 525.814529 162.760593 
L 527.144808 162.365189 
L 528.475086 161.609533 
L 530.470504 160.050413 
L 533.7962 157.316044 
L 535.126478 156.450086 
L 536.456756 155.79453 
L 537.787035 155.366791 
L 539.117313 155.164597 
L 540.447592 155.170222 
L 541.77787 155.352926 
L 543.773288 155.865963 
L 549.75954 157.692084 
L 555.745793 159.198614 
L 558.40635 160.27977 
L 561.732046 161.728522 
L 563.062324 162.138967 
L 564.392603 162.369469 
L 565.722881 162.399102 
L 567.05316 162.241449 
L 569.048577 161.758367 
L 572.374273 160.85295 
L 574.369691 160.526966 
L 577.695387 160.313804 
L 579.690805 160.109774 
L 581.021083 159.819928 
L 582.351361 159.357461 
L 583.68164 158.701874 
L 585.011918 157.853395 
L 587.007336 156.266066 
L 589.667893 153.7767 
L 592.993589 150.643638 
L 594.989006 149.012457 
L 596.984424 147.644661 
L 598.979841 146.516038 
L 601.640398 145.266048 
L 606.296373 143.389355 
L 610.287208 142.001333 
L 614.278043 140.884405 
L 618.934017 139.593297 
L 620.929435 138.829258 
L 622.259713 138.160476 
L 623.589992 137.300753 
L 624.92027 136.183291 
L 626.250549 134.736539 
L 627.580827 132.89581 
L 628.911105 130.619111 
L 630.241384 127.903859 
L 632.236801 123.13104 
L 637.557915 109.58456 
L 638.888193 106.861791 
L 640.218472 104.608137 
L 641.54875 102.835072 
L 642.879029 101.508245 
L 644.209307 100.562938 
L 645.539585 99.920848 
L 646.869864 99.504239 
L 648.865282 99.157318 
L 651.525838 98.966655 
L 658.17723 98.654117 
L 660.172648 98.35073 
L 662.168066 97.798632 
L 663.498344 97.241157 
L 664.828622 96.499567 
L 666.158901 95.551109 
L 667.489179 94.377458 
L 668.819458 92.963167 
L 670.149736 91.295258 
L 671.480014 89.366871 
L 673.475432 86.011551 
L 676.801128 79.691227 
L 678.796546 76.123892 
L 680.126824 74.147037 
L 681.457102 72.627825 
L 682.787381 71.625028 
L 683.45252 71.319299 
L 684.117659 71.13823 
L 685.447938 71.116225 
L 686.778216 71.471901 
L 688.108494 72.100767 
L 690.769051 73.75348 
L 692.764469 74.948587 
L 694.094747 75.555844 
L 695.425026 75.923842 
L 696.755304 76.004655 
L 698.085582 75.788425 
L 699.415861 75.320312 
L 702.741557 73.849104 
L 704.071835 73.587368 
L 704.736974 73.609169 
L 705.402114 73.751321 
L 706.067253 74.021635 
L 707.397531 74.948743 
L 708.72781 76.337667 
L 710.723227 78.99901 
L 714.048923 83.670903 
L 716.044341 86.099656 
L 722.695733 93.717558 
L 726.021429 98.258533 
L 728.681986 101.829699 
L 730.677403 104.229467 
L 733.33796 107.054825 
L 736.663656 110.513047 
L 739.324213 113.637668 
L 743.315048 118.502657 
L 745.310466 120.543643 
L 747.305883 122.174806 
L 753.292136 126.516268 
L 755.287554 128.502874 
L 759.278389 132.735609 
L 760.608667 133.860206 
L 761.938946 134.713532 
L 763.269224 135.274423 
L 764.599503 135.560677 
L 765.929781 135.618907 
L 767.925199 135.415645 
L 773.911451 134.462389 
L 776.572008 134.358108 
L 779.897704 134.472025 
L 784.553679 134.87793 
L 788.544514 135.257919 
L 790.539931 135.269883 
L 792.535349 135.083543 
L 795.861045 134.467913 
L 799.186741 133.929415 
L 801.847298 133.747668 
L 805.838133 133.541506 
L 807.833551 133.254378 
L 810.494108 132.596791 
L 816.48036 130.840384 
L 818.475778 130.584955 
L 820.471196 130.601797 
L 823.131752 130.946779 
L 827.787727 131.685392 
L 830.448284 131.859447 
L 833.10884 131.769895 
L 835.104258 131.45738 
L 836.434536 131.064175 
L 837.764815 130.459252 
L 839.095093 129.583386 
L 840.425372 128.387451 
L 841.75565 126.848716 
L 843.085928 124.984813 
L 845.081346 121.733167 
L 848.407042 116.123637 
L 849.73732 114.197584 
L 851.067599 112.587779 
L 852.397877 111.314726 
L 853.728156 110.34775 
L 855.058434 109.618121 
L 857.718991 108.518824 
L 860.379548 107.39426 
L 863.040104 105.964469 
L 868.361218 102.83807 
L 870.356636 101.949136 
L 872.352053 101.308426 
L 874.347471 100.890185 
L 877.008028 100.580501 
L 880.998863 100.393424 
L 888.980533 100.307478 
L 900.2879 100.181143 
L 902.283317 99.962386 
L 903.613596 99.663497 
L 904.943874 99.159194 
L 906.274153 98.355851 
L 907.604431 97.150695 
L 908.934709 95.445936 
L 910.264988 93.173709 
L 911.595266 90.318442 
L 912.925545 86.932972 
L 914.920962 81.138934 
L 918.911797 69.120741 
L 920.907215 63.787564 
L 922.902633 59.113488 
L 924.89805 55.129318 
L 926.228329 52.907418 
L 927.558607 51.091384 
L 928.888885 49.728319 
L 930.219164 48.84426 
L 931.549442 48.440161 
L 932.214581 48.413964 
L 932.879721 48.502772 
L 934.209999 49.025218 
L 935.540277 50.025508 
L 936.870556 51.552964 
L 938.200834 53.678273 
L 939.531113 56.467734 
L 940.861391 59.951172 
L 942.191669 64.093845 
L 944.187087 71.265678 
L 948.177922 86.195822 
L 949.508201 90.411683 
L 950.838479 93.941096 
L 952.168757 96.727299 
L 953.499036 98.798444 
L 954.829314 100.248002 
L 956.159593 101.202839 
L 957.489871 101.793264 
L 958.820149 102.12918 
L 960.815567 102.322875 
L 962.810985 102.268518 
L 965.471541 101.932365 
L 970.792655 101.079837 
L 972.122934 101.03918 
L 973.453212 101.172792 
L 974.78349 101.562866 
L 976.113769 102.316088 
L 977.444047 103.560675 
L 978.774326 105.43392 
L 980.104604 108.057681 
L 981.434882 111.507421 
L 982.765161 115.782857 
L 984.095439 120.789291 
L 986.090857 129.232176 
L 989.416553 143.388137 
L 990.746831 148.204468 
L 992.07711 152.17686 
L 993.407388 155.164322 
L 994.072527 156.268403 
L 994.737666 157.113075 
L 995.402806 157.705489 
L 996.067945 158.057976 
L 996.733084 158.187697 
L 997.398223 158.11568 
L 998.063362 157.866281 
L 999.393641 156.943081 
L 1000.723919 155.639925 
L 1004.714754 151.35347 
L 1006.045033 150.214439 
L 1007.375311 149.317709 
L 1008.70559 148.67644 
L 1010.035868 148.287594 
L 1011.366146 148.134863 
L 1012.696425 148.189901 
L 1014.691842 148.564448 
L 1019.347817 149.700352 
L 1020.678095 149.817178 
L 1020.678095 149.817178 
" clip-path="url(#p5ee85c4133)" style="fill: none; stroke: #0000ff; stroke-width: 1.5; stroke-linecap: square"/>
   </g>
   <g id="line2d_15">
    <path d="M 50.24 149.612148 
L 51.570278 149.72931 
L 52.900557 150.008176 
L 54.230835 150.460152 
L 55.561114 151.098104 
L 56.891392 151.930086 
L 58.88681 153.527966 
L 60.882227 155.452066 
L 64.873062 159.381639 
L 66.203341 160.412272 
L 67.533619 161.186958 
L 68.863898 161.668552 
L 70.194176 161.84622 
L 71.524454 161.732213 
L 72.854733 161.355491 
L 74.185011 160.754525 
L 76.180429 159.52344 
L 78.175846 158.014527 
L 82.166682 154.612197 
L 86.157517 151.30247 
L 88.818074 149.408094 
L 91.478631 147.834084 
L 94.139187 146.545381 
L 97.464883 145.203381 
L 106.111693 142.104009 
L 113.428224 139.586497 
L 118.084199 138.228824 
L 122.075034 137.32951 
L 126.065869 136.690146 
L 137.373235 135.132883 
L 140.033792 134.451716 
L 142.02921 133.720356 
L 143.359488 133.064518 
L 144.689767 132.21692 
L 146.020045 131.11979 
L 147.350323 129.715939 
L 148.680602 127.960602 
L 150.01088 125.83507 
L 151.341159 123.35866 
L 153.336576 119.136914 
L 157.327411 110.392304 
L 158.65769 107.882571 
L 159.987968 105.738686 
L 161.318247 103.99547 
L 162.648525 102.64478 
L 163.978803 101.64534 
L 165.309082 100.936044 
L 166.63936 100.448829 
L 168.634778 99.993741 
L 176.616448 98.64635 
L 178.611866 97.922941 
L 180.607284 96.901011 
L 182.602701 95.536429 
L 184.598119 93.797318 
L 186.593536 91.654381 
L 188.588954 89.087082 
L 190.584372 86.130422 
L 194.575207 79.951105 
L 195.905485 78.307564 
L 197.235764 77.158162 
L 197.900903 76.816471 
L 198.566042 76.648935 
L 199.231181 76.663994 
L 199.89632 76.864835 
L 200.56146 77.249029 
L 201.226599 77.808524 
L 202.556877 79.394826 
L 203.887156 81.462469 
L 208.54313 89.32734 
L 209.873408 90.913931 
L 211.203687 91.967775 
L 211.868826 92.28442 
L 212.533965 92.464075 
L 213.199104 92.5144 
L 214.529383 92.276592 
L 215.859661 91.700979 
L 219.850496 89.620348 
L 221.180775 89.31356 
L 222.511053 89.349947 
L 223.841332 89.736816 
L 225.17161 90.434333 
L 226.501888 91.37424 
L 228.497306 93.078605 
L 231.157863 95.647602 
L 233.81842 98.536163 
L 235.813837 101.079916 
L 237.809255 104.099605 
L 239.804672 107.641861 
L 242.465229 112.971769 
L 245.125786 118.32829 
L 246.456064 120.707729 
L 247.786343 122.725929 
L 249.116621 124.292763 
L 250.4469 125.359921 
L 251.777178 125.928215 
L 253.107457 126.047699 
L 254.437735 125.811126 
L 256.433153 125.065399 
L 258.42857 124.279227 
L 259.758849 123.961526 
L 261.089127 123.93866 
L 262.419405 124.282567 
L 263.749684 125.021634 
L 265.079962 126.138346 
L 266.410241 127.573331 
L 268.405658 130.118812 
L 272.396493 135.338841 
L 274.391911 137.497104 
L 276.387329 139.233011 
L 278.382746 140.593568 
L 280.378164 141.668098 
L 283.038721 142.79615 
L 285.699277 143.678355 
L 288.359834 144.341041 
L 291.020391 144.746627 
L 293.015809 144.842735 
L 295.011226 144.736868 
L 297.006644 144.430919 
L 299.667201 143.774256 
L 304.988314 142.297026 
L 306.983732 141.995275 
L 308.31401 141.956248 
L 309.644289 142.079294 
L 310.974567 142.384954 
L 312.304845 142.884074 
L 313.635124 143.57562 
L 315.630541 144.940955 
L 317.625959 146.616567 
L 320.951655 149.772592 
L 325.607629 154.159247 
L 328.933326 156.951854 
L 332.259022 159.426204 
L 334.919578 161.141097 
L 336.914996 162.169535 
L 338.245274 162.652834 
L 339.575553 162.902721 
L 340.905831 162.848483 
L 342.23611 162.421218 
L 343.566388 161.566773 
L 344.896666 160.259613 
L 346.226945 158.514213 
L 347.557223 156.390357 
L 349.552641 152.726178 
L 352.878337 146.474079 
L 354.873754 143.295903 
L 356.204033 141.553082 
L 357.534311 140.115504 
L 358.86459 138.950185 
L 360.860007 137.597296 
L 362.855425 136.547089 
L 368.176538 133.998369 
L 369.506817 133.166608 
L 370.837095 132.139468 
L 372.167374 130.847629 
L 373.497652 129.228522 
L 374.82793 127.240391 
L 376.158209 124.876291 
L 378.153626 120.72091 
L 383.47474 108.815416 
L 384.805018 106.389534 
L 386.135297 104.374516 
L 387.465575 102.790905 
L 388.795854 101.61764 
L 390.126132 100.803371 
L 391.45641 100.279609 
L 392.786689 99.972114 
L 394.782106 99.758143 
L 398.107802 99.497797 
L 399.438081 99.232389 
L 400.768359 98.772552 
L 402.098638 98.055489 
L 403.428916 97.034374 
L 404.759194 95.691832 
L 406.089473 94.052482 
L 408.08489 91.210713 
L 410.745447 87.401837 
L 412.075726 85.810532 
L 413.406004 84.554075 
L 414.736283 83.635372 
L 416.7317 82.688604 
L 418.727118 81.759153 
L 420.057396 80.850832 
L 421.387675 79.570432 
L 422.717953 77.895444 
L 424.713371 74.827846 
L 427.373927 70.60478 
L 428.704206 68.862197 
L 430.034484 67.552897 
L 431.364763 66.738797 
L 432.029902 66.519046 
L 433.36018 66.427811 
L 434.690459 66.738814 
L 436.020737 67.359925 
L 438.016155 68.660323 
L 443.337268 72.431935 
L 445.332686 73.536734 
L 448.658382 75.045871 
L 450.653799 76.013146 
L 451.984078 76.822076 
L 453.314356 77.843569 
L 454.644635 79.137421 
L 455.974913 80.745846 
L 457.305191 82.686778 
L 458.63547 84.949645 
L 460.630887 88.851662 
L 466.61714 101.353628 
L 467.947419 103.558753 
L 469.277697 105.324327 
L 470.607975 106.586841 
L 471.938254 107.322608 
L 472.603393 107.497624 
L 473.268532 107.55203 
L 474.598811 107.337601 
L 475.929089 106.775544 
L 477.924507 105.538352 
L 480.585063 103.775265 
L 481.915342 103.069191 
L 483.24562 102.575714 
L 484.575899 102.342923 
L 485.906177 102.405678 
L 487.236455 102.790663 
L 488.566734 103.519257 
L 489.897012 104.607209 
L 491.227291 106.061413 
L 492.557569 107.875336 
L 493.887848 110.025344 
L 495.883265 113.784639 
L 498.543822 119.468381 
L 505.195214 134.046997 
L 508.52091 140.69749 
L 513.842024 150.735454 
L 517.16772 156.583461 
L 519.163137 159.616555 
L 520.493416 161.292657 
L 521.823694 162.609 
L 523.153972 163.512303 
L 524.484251 163.976718 
L 525.814529 164.010198 
L 527.144808 163.654867 
L 528.475086 162.981169 
L 530.470504 161.567186 
L 536.456756 156.854705 
L 539.117313 155.197732 
L 541.77787 153.869882 
L 543.773288 153.090336 
L 545.768705 152.517499 
L 547.764123 152.174353 
L 549.75954 152.068655 
L 551.754958 152.182216 
L 554.415515 152.596884 
L 562.397185 154.125973 
L 564.392603 154.205934 
L 566.38802 154.066833 
L 568.383438 153.706123 
L 571.043995 152.930981 
L 574.369691 151.650769 
L 582.351361 148.177297 
L 596.984424 141.660265 
L 608.29179 136.29162 
L 616.9386 132.035636 
L 620.264296 130.124904 
L 622.924853 128.339367 
L 625.585409 126.305102 
L 628.911105 123.487069 
L 644.874446 109.256726 
L 651.525838 102.885056 
L 658.84237 95.697458 
L 661.502926 92.743398 
L 663.498344 90.252742 
L 665.493762 87.464227 
L 667.489179 84.349209 
L 670.149736 79.700969 
L 673.475432 73.293219 
L 677.466267 65.57417 
L 679.461685 62.204716 
L 680.791963 60.304783 
L 682.122242 58.754638 
L 683.45252 57.600863 
L 684.782798 56.873008 
L 686.113077 56.58313 
L 687.443355 56.726698 
L 688.773634 57.283628 
L 690.103912 58.21873 
L 691.43419 59.481618 
L 693.429608 61.844199 
L 700.081 70.524267 
L 702.076418 72.615296 
L 705.402114 75.657379 
L 707.397531 77.576763 
L 709.392949 79.872182 
L 710.723227 81.705527 
L 712.053506 83.814448 
L 714.048923 87.483413 
L 716.044341 91.651996 
L 724.69115 110.583046 
L 726.686568 114.294623 
L 728.681986 117.644152 
L 730.677403 120.645865 
L 732.672821 123.325702 
L 734.668239 125.712495 
L 736.663656 127.834881 
L 739.324213 130.303222 
L 741.98477 132.422777 
L 744.645327 134.261148 
L 747.971023 136.242812 
L 751.296719 137.914639 
L 753.957275 139.013022 
L 756.617832 139.851041 
L 758.61325 140.276309 
L 760.608667 140.512436 
L 762.604085 140.565362 
L 765.264642 140.399773 
L 769.255477 139.860022 
L 776.572008 138.843915 
L 786.549096 137.831516 
L 796.526184 136.6951 
L 805.172994 135.509057 
L 811.159247 134.479044 
L 815.815221 133.46383 
L 821.136335 132.079857 
L 826.457448 130.470449 
L 829.783144 129.273038 
L 833.10884 127.826507 
L 835.769397 126.437557 
L 838.429954 124.814047 
L 841.090511 122.934406 
L 843.751068 120.789464 
L 847.741903 117.223512 
L 851.067599 114.358944 
L 853.063016 112.899611 
L 855.058434 111.704378 
L 857.053852 110.764367 
L 859.714408 109.817878 
L 863.040104 108.924976 
L 867.696079 107.933682 
L 871.686914 107.290588 
L 875.677749 106.870968 
L 880.333724 106.617761 
L 889.645673 106.414391 
L 900.2879 106.095517 
L 902.948457 105.841121 
L 904.943874 105.438557 
L 906.274153 104.986409 
L 907.604431 104.315109 
L 908.934709 103.350891 
L 910.264988 102.014967 
L 911.595266 100.231747 
L 912.925545 97.939219 
L 914.255823 95.099994 
L 915.586101 91.710929 
L 916.91638 87.809062 
L 918.911797 81.174526 
L 926.228329 55.427049 
L 928.223746 49.717477 
L 929.554025 46.430169 
L 930.884303 43.578723 
L 932.214581 41.173691 
L 933.54486 39.225236 
L 934.875138 37.744846 
L 936.205417 36.74363 
L 937.535695 36.228935 
L 938.200834 36.154545 
L 938.865973 36.201406 
L 939.531113 36.368411 
L 940.861391 37.056883 
L 942.191669 38.206874 
L 943.521948 39.807361 
L 944.852226 41.853657 
L 946.182505 44.348457 
L 947.512783 47.297975 
L 948.843061 50.703584 
L 950.838479 56.628083 
L 952.833897 63.369038 
L 958.820149 84.42627 
L 960.150428 88.32033 
L 961.480706 91.672101 
L 962.810985 94.435552 
L 964.141263 96.61155 
L 965.471541 98.243335 
L 966.80182 99.40757 
L 968.132098 100.202841 
L 969.462377 100.737663 
L 972.122934 101.447509 
L 974.118351 102.015349 
L 976.113769 102.855727 
L 977.444047 103.636981 
L 978.774326 104.628894 
L 980.104604 105.855711 
L 981.434882 107.34214 
L 982.765161 109.115802 
L 984.095439 111.207153 
L 985.425718 113.646288 
L 986.755996 116.456742 
L 988.751414 121.381699 
L 990.746831 127.080345 
L 994.072527 137.592829 
L 996.733084 145.801721 
L 998.728502 151.138197 
L 1000.05878 154.111325 
L 1001.389058 156.550341 
L 1002.719337 158.441859 
L 1004.049615 159.808713 
L 1005.379894 160.703131 
L 1006.710172 161.197299 
L 1008.04045 161.373059 
L 1009.370729 161.312598 
L 1011.366146 160.94137 
L 1018.017538 159.339289 
L 1020.012956 159.133333 
L 1020.678095 159.109891 
L 1020.678095 159.109891 
" clip-path="url(#p5ee85c4133)" style="fill: none; stroke: #ff0000; stroke-width: 1.5; stroke-linecap: square"/>
   </g>
   <g id="line2d_16">
    <path d="M 535.791617 170.44 
L 535.791617 29.76 
" clip-path="url(#p5ee85c4133)" style="fill: none; stroke: #1f77b4; stroke-width: 1.5; stroke-linecap: square"/>
   </g>
   <g id="patch_3">
    <path d="M 50.24 170.44 
L 50.24 29.76 
" style="fill: none; stroke: #000000; stroke-width: 0.8; stroke-linejoin: miter; stroke-linecap: square"/>
   </g>
   <g id="patch_4">
    <path d="M 1069.2 170.44 
L 1069.2 29.76 
" style="fill: none; stroke: #000000; stroke-width: 0.8; stroke-linejoin: miter; stroke-linecap: square"/>
   </g>
   <g id="patch_5">
    <path d="M 50.24 170.44 
L 1069.2 170.44 
" style="fill: none; stroke: #000000; stroke-width: 0.8; stroke-linejoin: miter; stroke-linecap: square"/>
   </g>
   <g id="patch_6">
    <path d="M 50.24 29.76 
L 1069.2 29.76 
" style="fill: none; stroke: #000000; stroke-width: 0.8; stroke-linejoin: miter; stroke-linecap: square"/>
   </g>
   <g id="text_16">
    <!-- Heat Conduction Equation Solution at x=0.8M -->
    <g transform="translate(375.485 23.76) scale(0.16 -0.16)">
     <defs>
      <path id="DejaVuSans-48" d="M 628 4666 
L 1259 4666 
L 1259 2753 
L 3553 2753 
L 3553 4666 
L 4184 4666 
L 4184 0 
L 3553 0 
L 3553 2222 
L 1259 2222 
L 1259 0 
L 628 0 
L 628 4666 
z
" transform="scale(0.015625)"/>
      <path id="DejaVuSans-43" d="M 4122 4306 
L 4122 3641 
Q 3803 3938 3442 4084 
Q 3081 4231 2675 4231 
Q 1875 4231 1450 3742 
Q 1025 3253 1025 2328 
Q 1025 1406 1450 917 
Q 1875 428 2675 428 
Q 3081 428 3442 575 
Q 3803 722 4122 1019 
L 4122 359 
Q 3791 134 3420 21 
Q 3050 -91 2638 -91 
Q 1578 -91 968 557 
Q 359 1206 359 2328 
Q 359 3453 968 4101 
Q 1578 4750 2638 4750 
Q 3056 4750 3426 4639 
Q 3797 4528 4122 4306 
z
" transform="scale(0.015625)"/>
      <path id="DejaVuSans-64" d="M 2906 2969 
L 2906 4863 
L 3481 4863 
L 3481 0 
L 2906 0 
L 2906 525 
Q 2725 213 2448 61 
Q 2172 -91 1784 -91 
Q 1150 -91 751 415 
Q 353 922 353 1747 
Q 353 2572 751 3078 
Q 1150 3584 1784 3584 
Q 2172 3584 2448 3432 
Q 2725 3281 2906 2969 
z
M 947 1747 
Q 947 1113 1208 752 
Q 1469 391 1925 391 
Q 2381 391 2643 752 
Q 2906 1113 2906 1747 
Q 2906 2381 2643 2742 
Q 2381 3103 1925 3103 
Q 1469 3103 1208 2742 
Q 947 2381 947 1747 
z
" transform="scale(0.015625)"/>
      <path id="DejaVuSans-63" d="M 3122 3366 
L 3122 2828 
Q 2878 2963 2633 3030 
Q 2388 3097 2138 3097 
Q 1578 3097 1268 2742 
Q 959 2388 959 1747 
Q 959 1106 1268 751 
Q 1578 397 2138 397 
Q 2388 397 2633 464 
Q 2878 531 3122 666 
L 3122 134 
Q 2881 22 2623 -34 
Q 2366 -91 2075 -91 
Q 1284 -91 818 406 
Q 353 903 353 1747 
Q 353 2603 823 3093 
Q 1294 3584 2113 3584 
Q 2378 3584 2631 3529 
Q 2884 3475 3122 3366 
z
" transform="scale(0.015625)"/>
      <path id="DejaVuSans-45" d="M 628 4666 
L 3578 4666 
L 3578 4134 
L 1259 4134 
L 1259 2753 
L 3481 2753 
L 3481 2222 
L 1259 2222 
L 1259 531 
L 3634 531 
L 3634 0 
L 628 0 
L 628 4666 
z
" transform="scale(0.015625)"/>
      <path id="DejaVuSans-71" d="M 947 1747 
Q 947 1113 1208 752 
Q 1469 391 1925 391 
Q 2381 391 2643 752 
Q 2906 1113 2906 1747 
Q 2906 2381 2643 2742 
Q 2381 3103 1925 3103 
Q 1469 3103 1208 2742 
Q 947 2381 947 1747 
z
M 2906 525 
Q 2725 213 2448 61 
Q 2172 -91 1784 -91 
Q 1150 -91 751 415 
Q 353 922 353 1747 
Q 353 2572 751 3078 
Q 1150 3584 1784 3584 
Q 2172 3584 2448 3432 
Q 2725 3281 2906 2969 
L 2906 3500 
L 3481 3500 
L 3481 -1331 
L 2906 -1331 
L 2906 525 
z
" transform="scale(0.015625)"/>
      <path id="DejaVuSans-78" d="M 3513 3500 
L 2247 1797 
L 3578 0 
L 2900 0 
L 1881 1375 
L 863 0 
L 184 0 
L 1544 1831 
L 300 3500 
L 978 3500 
L 1906 2253 
L 2834 3500 
L 3513 3500 
z
" transform="scale(0.015625)"/>
      <path id="DejaVuSans-3d" d="M 678 2906 
L 4684 2906 
L 4684 2381 
L 678 2381 
L 678 2906 
z
M 678 1631 
L 4684 1631 
L 4684 1100 
L 678 1100 
L 678 1631 
z
" transform="scale(0.015625)"/>
      <path id="DejaVuSans-2e" d="M 684 794 
L 1344 794 
L 1344 0 
L 684 0 
L 684 794 
z
" transform="scale(0.015625)"/>
      <path id="DejaVuSans-4d" d="M 628 4666 
L 1569 4666 
L 2759 1491 
L 3956 4666 
L 4897 4666 
L 4897 0 
L 4281 0 
L 4281 4097 
L 3078 897 
L 2444 897 
L 1241 4097 
L 1241 0 
L 628 0 
L 628 4666 
z
" transform="scale(0.015625)"/>
     </defs>
     <use xlink:href="#DejaVuSans-48"/>
     <use xlink:href="#DejaVuSans-65" transform="translate(75.195312 0)"/>
     <use xlink:href="#DejaVuSans-61" transform="translate(136.71875 0)"/>
     <use xlink:href="#DejaVuSans-74" transform="translate(197.998047 0)"/>
     <use xlink:href="#DejaVuSans-20" transform="translate(237.207031 0)"/>
     <use xlink:href="#DejaVuSans-43" transform="translate(268.994141 0)"/>
     <use xlink:href="#DejaVuSans-6f" transform="translate(338.818359 0)"/>
     <use xlink:href="#DejaVuSans-6e" transform="translate(400 0)"/>
     <use xlink:href="#DejaVuSans-64" transform="translate(463.378906 0)"/>
     <use xlink:href="#DejaVuSans-75" transform="translate(526.855469 0)"/>
     <use xlink:href="#DejaVuSans-63" transform="translate(590.234375 0)"/>
     <use xlink:href="#DejaVuSans-74" transform="translate(645.214844 0)"/>
     <use xlink:href="#DejaVuSans-69" transform="translate(684.423828 0)"/>
     <use xlink:href="#DejaVuSans-6f" transform="translate(712.207031 0)"/>
     <use xlink:href="#DejaVuSans-6e" transform="translate(773.388672 0)"/>
     <use xlink:href="#DejaVuSans-20" transform="translate(836.767578 0)"/>
     <use xlink:href="#DejaVuSans-45" transform="translate(868.554688 0)"/>
     <use xlink:href="#DejaVuSans-71" transform="translate(931.738281 0)"/>
     <use xlink:href="#DejaVuSans-75" transform="translate(995.214844 0)"/>
     <use xlink:href="#DejaVuSans-61" transform="translate(1058.59375 0)"/>
     <use xlink:href="#DejaVuSans-74" transform="translate(1119.873047 0)"/>
     <use xlink:href="#DejaVuSans-69" transform="translate(1159.082031 0)"/>
     <use xlink:href="#DejaVuSans-6f" transform="translate(1186.865234 0)"/>
     <use xlink:href="#DejaVuSans-6e" transform="translate(1248.046875 0)"/>
     <use xlink:href="#DejaVuSans-20" transform="translate(1311.425781 0)"/>
     <use xlink:href="#DejaVuSans-53" transform="translate(1343.212891 0)"/>
     <use xlink:href="#DejaVuSans-6f" transform="translate(1406.689453 0)"/>
     <use xlink:href="#DejaVuSans-6c" transform="translate(1467.871094 0)"/>
     <use xlink:href="#DejaVuSans-75" transform="translate(1495.654297 0)"/>
     <use xlink:href="#DejaVuSans-74" transform="translate(1559.033203 0)"/>
     <use xlink:href="#DejaVuSans-69" transform="translate(1598.242188 0)"/>
     <use xlink:href="#DejaVuSans-6f" transform="translate(1626.025391 0)"/>
     <use xlink:href="#DejaVuSans-6e" transform="translate(1687.207031 0)"/>
     <use xlink:href="#DejaVuSans-20" transform="translate(1750.585938 0)"/>
     <use xlink:href="#DejaVuSans-61" transform="translate(1782.373047 0)"/>
     <use xlink:href="#DejaVuSans-74" transform="translate(1843.652344 0)"/>
     <use xlink:href="#DejaVuSans-20" transform="translate(1882.861328 0)"/>
     <use xlink:href="#DejaVuSans-78" transform="translate(1914.648438 0)"/>
     <use xlink:href="#DejaVuSans-3d" transform="translate(1973.828125 0)"/>
     <use xlink:href="#DejaVuSans-30" transform="translate(2057.617188 0)"/>
     <use xlink:href="#DejaVuSans-2e" transform="translate(2121.240234 0)"/>
     <use xlink:href="#DejaVuSans-38" transform="translate(2153.027344 0)"/>
     <use xlink:href="#DejaVuSans-4d" transform="translate(2216.650391 0)"/>
    </g>
   </g>
   <g id="legend_1">
    <g id="patch_7">
     <path d="M 58.64 74.5875 
L 170.114375 74.5875 
Q 172.514375 74.5875 172.514375 72.1875 
L 172.514375 38.16 
Q 172.514375 35.76 170.114375 35.76 
L 58.64 35.76 
Q 56.24 35.76 56.24 38.16 
L 56.24 72.1875 
Q 56.24 74.5875 58.64 74.5875 
z
" style="fill: #ffffff; opacity: 0.8; stroke: #cccccc; stroke-linejoin: miter"/>
    </g>
    <g id="line2d_17">
     <path d="M 61.04 45.478125 
L 73.04 45.478125 
L 85.04 45.478125 
" style="fill: none; stroke: #0000ff; stroke-width: 1.5; stroke-linecap: square"/>
    </g>
    <g id="text_17">
     <!-- Observation -->
     <g transform="translate(94.64 49.678125) scale(0.12 -0.12)">
      <defs>
       <path id="DejaVuSans-4f" d="M 2522 4238 
Q 1834 4238 1429 3725 
Q 1025 3213 1025 2328 
Q 1025 1447 1429 934 
Q 1834 422 2522 422 
Q 3209 422 3611 934 
Q 4013 1447 4013 2328 
Q 4013 3213 3611 3725 
Q 3209 4238 2522 4238 
z
M 2522 4750 
Q 3503 4750 4090 4092 
Q 4678 3434 4678 2328 
Q 4678 1225 4090 567 
Q 3503 -91 2522 -91 
Q 1538 -91 948 565 
Q 359 1222 359 2328 
Q 359 3434 948 4092 
Q 1538 4750 2522 4750 
z
" transform="scale(0.015625)"/>
       <path id="DejaVuSans-62" d="M 3116 1747 
Q 3116 2381 2855 2742 
Q 2594 3103 2138 3103 
Q 1681 3103 1420 2742 
Q 1159 2381 1159 1747 
Q 1159 1113 1420 752 
Q 1681 391 2138 391 
Q 2594 391 2855 752 
Q 3116 1113 3116 1747 
z
M 1159 2969 
Q 1341 3281 1617 3432 
Q 1894 3584 2278 3584 
Q 2916 3584 3314 3078 
Q 3713 2572 3713 1747 
Q 3713 922 3314 415 
Q 2916 -91 2278 -91 
Q 1894 -91 1617 61 
Q 1341 213 1159 525 
L 1159 0 
L 581 0 
L 581 4863 
L 1159 4863 
L 1159 2969 
z
" transform="scale(0.015625)"/>
       <path id="DejaVuSans-76" d="M 191 3500 
L 800 3500 
L 1894 563 
L 2988 3500 
L 3597 3500 
L 2284 0 
L 1503 0 
L 191 3500 
z
" transform="scale(0.015625)"/>
      </defs>
      <use xlink:href="#DejaVuSans-4f"/>
      <use xlink:href="#DejaVuSans-62" transform="translate(78.710938 0)"/>
      <use xlink:href="#DejaVuSans-73" transform="translate(142.1875 0)"/>
      <use xlink:href="#DejaVuSans-65" transform="translate(194.287109 0)"/>
      <use xlink:href="#DejaVuSans-72" transform="translate(255.810547 0)"/>
      <use xlink:href="#DejaVuSans-76" transform="translate(296.923828 0)"/>
      <use xlink:href="#DejaVuSans-61" transform="translate(356.103516 0)"/>
      <use xlink:href="#DejaVuSans-74" transform="translate(417.382812 0)"/>
      <use xlink:href="#DejaVuSans-69" transform="translate(456.591797 0)"/>
      <use xlink:href="#DejaVuSans-6f" transform="translate(484.375 0)"/>
      <use xlink:href="#DejaVuSans-6e" transform="translate(545.556641 0)"/>
     </g>
    </g>
    <g id="line2d_18">
     <path d="M 61.04 63.091875 
L 73.04 63.091875 
L 85.04 63.091875 
" style="fill: none; stroke: #ff0000; stroke-width: 1.5; stroke-linecap: square"/>
    </g>
    <g id="text_18">
     <!-- Predicted -->
     <g transform="translate(94.64 67.291875) scale(0.12 -0.12)">
      <defs>
       <path id="DejaVuSans-50" d="M 1259 4147 
L 1259 2394 
L 2053 2394 
Q 2494 2394 2734 2622 
Q 2975 2850 2975 3272 
Q 2975 3691 2734 3919 
Q 2494 4147 2053 4147 
L 1259 4147 
z
M 628 4666 
L 2053 4666 
Q 2838 4666 3239 4311 
Q 3641 3956 3641 3272 
Q 3641 2581 3239 2228 
Q 2838 1875 2053 1875 
L 1259 1875 
L 1259 0 
L 628 0 
L 628 4666 
z
" transform="scale(0.015625)"/>
      </defs>
      <use xlink:href="#DejaVuSans-50"/>
      <use xlink:href="#DejaVuSans-72" transform="translate(58.552734 0)"/>
      <use xlink:href="#DejaVuSans-65" transform="translate(97.416016 0)"/>
      <use xlink:href="#DejaVuSans-64" transform="translate(158.939453 0)"/>
      <use xlink:href="#DejaVuSans-69" transform="translate(222.416016 0)"/>
      <use xlink:href="#DejaVuSans-63" transform="translate(250.199219 0)"/>
      <use xlink:href="#DejaVuSans-74" transform="translate(305.179688 0)"/>
      <use xlink:href="#DejaVuSans-65" transform="translate(344.388672 0)"/>
      <use xlink:href="#DejaVuSans-64" transform="translate(405.912109 0)"/>
     </g>
    </g>
   </g>
  </g>
 </g>
 <defs>
  <clipPath id="p5ee85c4133">
   <rect x="50.24" y="29.76" width="1018.96" height="140.68"/>
  </clipPath>
 </defs>
</svg>
