<?xml version="1.0" encoding="utf-8" standalone="no"?>
<!DOCTYPE svg PUBLIC "-//W3C//DTD SVG 1.1//EN"
  "http://www.w3.org/Graphics/SVG/1.1/DTD/svg11.dtd">
<svg xmlns:xlink="http://www.w3.org/1999/xlink" width="1080pt" height="216pt" viewBox="0 0 1080 216" xmlns="http://www.w3.org/2000/svg" version="1.1">
 <metadata>
  <rdf:RDF xmlns:dc="http://purl.org/dc/elements/1.1/" xmlns:cc="http://creativecommons.org/ns#" xmlns:rdf="http://www.w3.org/1999/02/22-rdf-syntax-ns#">
   <cc:Work>
    <dc:type rdf:resource="http://purl.org/dc/dcmitype/StillImage"/>
    <dc:date>2026-02-09T10:07:33.830005</dc:date>
    <dc:format>image/svg+xml</dc:format>
    <dc:creator>
     <cc:Agent>
      <dc:title>Matplotlib v3.10.8, https://matplotlib.org/</dc:title>
     </cc:Agent>
    </dc:creator>
   </cc:Work>
  </rdf:RDF>
 </metadata>
 <defs>
  <style type="text/css">*{stroke-linejoin: round; stroke-linecap: butt}</style>
 </defs>
 <g id="figure_1">
  <g id="patch_1">
   <path d="M 0 216 
L 1080 216 
L 1080 0 
L 0 0 
z
" style="fill: #ffffff"/>
  </g>
  <g id="axes_1">
   <g id="patch_2">
    <path d="M 50.24 170.44 
L 1069.2 170.44 
L 1069.2 29.76 
L 50.24 29.76 
z
" style="fill: #ffffff"/>
   </g>
   <g id="matplotlib.axis_1">
    <g id="xtick_1">
     <g id="line2d_1">
      <defs>
       <path id="m6125685a7f" d="M 0 0 
L 0 3.5 
" style="stroke: #000000; stroke-width: 0.8"/>
      </defs>
      <g>
       <use xlink:href="#m6125685a7f" x="50.24" y="170.44" style="stroke: #000000; stroke-width: 0.8"/>
      </g>
     </g>
     <g id="text_1">
      <!-- 0 -->
      <g transform="translate(47.05875 185.038437) scale(0.1 -0.1)">
       <defs>
        <path id="DejaVuSans-30" d="M 2034 4250 
Q 1547 4250 1301 3770 
Q 1056 3291 1056 2328 
Q 1056 1369 1301 889 
Q 1547 409 2034 409 
Q 2525 409 2770 889 
Q 3016 1369 3016 2328 
Q 3016 3291 2770 3770 
Q 2525 4250 2034 4250 
z
M 2034 4750 
Q 2819 4750 3233 4129 
Q 3647 3509 3647 2328 
Q 3647 1150 3233 529 
Q 2819 -91 2034 -91 
Q 1250 -91 836 529 
Q 422 1150 422 2328 
Q 422 3509 836 4129 
Q 1250 4750 2034 4750 
z
" transform="scale(0.015625)"/>
       </defs>
       <use xlink:href="#DejaVuSans-30"/>
      </g>
     </g>
    </g>
    <g id="xtick_2">
     <g id="line2d_2">
      <g>
       <use xlink:href="#m6125685a7f" x="183.26784" y="170.44" style="stroke: #000000; stroke-width: 0.8"/>
      </g>
     </g>
     <g id="text_2">
      <!-- 200 -->
      <g transform="translate(173.72409 185.038437) scale(0.1 -0.1)">
       <defs>
        <path id="DejaVuSans-32" d="M 1228 531 
L 3431 531 
L 3431 0 
L 469 0 
L 469 531 
Q 828 903 1448 1529 
Q 2069 2156 2228 2338 
Q 2531 2678 2651 2914 
Q 2772 3150 2772 3378 
Q 2772 3750 2511 3984 
Q 2250 4219 1831 4219 
Q 1534 4219 1204 4116 
Q 875 4013 500 3803 
L 500 4441 
Q 881 4594 1212 4672 
Q 1544 4750 1819 4750 
Q 2544 4750 2975 4387 
Q 3406 4025 3406 3419 
Q 3406 3131 3298 2873 
Q 3191 2616 2906 2266 
Q 2828 2175 2409 1742 
Q 1991 1309 1228 531 
z
" transform="scale(0.015625)"/>
       </defs>
       <use xlink:href="#DejaVuSans-32"/>
       <use xlink:href="#DejaVuSans-30" transform="translate(63.623047 0)"/>
       <use xlink:href="#DejaVuSans-30" transform="translate(127.246094 0)"/>
      </g>
     </g>
    </g>
    <g id="xtick_3">
     <g id="line2d_3">
      <g>
       <use xlink:href="#m6125685a7f" x="316.295681" y="170.44" style="stroke: #000000; stroke-width: 0.8"/>
      </g>
     </g>
     <g id="text_3">
      <!-- 400 -->
      <g transform="translate(306.751931 185.038437) scale(0.1 -0.1)">
       <defs>
        <path id="DejaVuSans-34" d="M 2419 4116 
L 825 1625 
L 2419 1625 
L 2419 4116 
z
M 2253 4666 
L 3047 4666 
L 3047 1625 
L 3713 1625 
L 3713 1100 
L 3047 1100 
L 3047 0 
L 2419 0 
L 2419 1100 
L 313 1100 
L 313 1709 
L 2253 4666 
z
" transform="scale(0.015625)"/>
       </defs>
       <use xlink:href="#DejaVuSans-34"/>
       <use xlink:href="#DejaVuSans-30" transform="translate(63.623047 0)"/>
       <use xlink:href="#DejaVuSans-30" transform="translate(127.246094 0)"/>
      </g>
     </g>
    </g>
    <g id="xtick_4">
     <g id="line2d_4">
      <g>
       <use xlink:href="#m6125685a7f" x="449.323521" y="170.44" style="stroke: #000000; stroke-width: 0.8"/>
      </g>
     </g>
     <g id="text_4">
      <!-- 600 -->
      <g transform="translate(439.779771 185.038437) scale(0.1 -0.1)">
       <defs>
        <path id="DejaVuSans-36" d="M 2113 2584 
Q 1688 2584 1439 2293 
Q 1191 2003 1191 1497 
Q 1191 994 1439 701 
Q 1688 409 2113 409 
Q 2538 409 2786 701 
Q 3034 994 3034 1497 
Q 3034 2003 2786 2293 
Q 2538 2584 2113 2584 
z
M 3366 4563 
L 3366 3988 
Q 3128 4100 2886 4159 
Q 2644 4219 2406 4219 
Q 1781 4219 1451 3797 
Q 1122 3375 1075 2522 
Q 1259 2794 1537 2939 
Q 1816 3084 2150 3084 
Q 2853 3084 3261 2657 
Q 3669 2231 3669 1497 
Q 3669 778 3244 343 
Q 2819 -91 2113 -91 
Q 1303 -91 875 529 
Q 447 1150 447 2328 
Q 447 3434 972 4092 
Q 1497 4750 2381 4750 
Q 2619 4750 2861 4703 
Q 3103 4656 3366 4563 
z
" transform="scale(0.015625)"/>
       </defs>
       <use xlink:href="#DejaVuSans-36"/>
       <use xlink:href="#DejaVuSans-30" transform="translate(63.623047 0)"/>
       <use xlink:href="#DejaVuSans-30" transform="translate(127.246094 0)"/>
      </g>
     </g>
    </g>
    <g id="xtick_5">
     <g id="line2d_5">
      <g>
       <use xlink:href="#m6125685a7f" x="582.351361" y="170.44" style="stroke: #000000; stroke-width: 0.8"/>
      </g>
     </g>
     <g id="text_5">
      <!-- 800 -->
      <g transform="translate(572.807611 185.038437) scale(0.1 -0.1)">
       <defs>
        <path id="DejaVuSans-38" d="M 2034 2216 
Q 1584 2216 1326 1975 
Q 1069 1734 1069 1313 
Q 1069 891 1326 650 
Q 1584 409 2034 409 
Q 2484 409 2743 651 
Q 3003 894 3003 1313 
Q 3003 1734 2745 1975 
Q 2488 2216 2034 2216 
z
M 1403 2484 
Q 997 2584 770 2862 
Q 544 3141 544 3541 
Q 544 4100 942 4425 
Q 1341 4750 2034 4750 
Q 2731 4750 3128 4425 
Q 3525 4100 3525 3541 
Q 3525 3141 3298 2862 
Q 3072 2584 2669 2484 
Q 3125 2378 3379 2068 
Q 3634 1759 3634 1313 
Q 3634 634 3220 271 
Q 2806 -91 2034 -91 
Q 1263 -91 848 271 
Q 434 634 434 1313 
Q 434 1759 690 2068 
Q 947 2378 1403 2484 
z
M 1172 3481 
Q 1172 3119 1398 2916 
Q 1625 2713 2034 2713 
Q 2441 2713 2670 2916 
Q 2900 3119 2900 3481 
Q 2900 3844 2670 4047 
Q 2441 4250 2034 4250 
Q 1625 4250 1398 4047 
Q 1172 3844 1172 3481 
z
" transform="scale(0.015625)"/>
       </defs>
       <use xlink:href="#DejaVuSans-38"/>
       <use xlink:href="#DejaVuSans-30" transform="translate(63.623047 0)"/>
       <use xlink:href="#DejaVuSans-30" transform="translate(127.246094 0)"/>
      </g>
     </g>
    </g>
    <g id="xtick_6">
     <g id="line2d_6">
      <g>
       <use xlink:href="#m6125685a7f" x="715.379202" y="170.44" style="stroke: #000000; stroke-width: 0.8"/>
      </g>
     </g>
     <g id="text_6">
      <!-- 1000 -->
      <g transform="translate(702.654202 185.038437) scale(0.1 -0.1)">
       <defs>
        <path id="DejaVuSans-31" d="M 794 531 
L 1825 531 
L 1825 4091 
L 703 3866 
L 703 4441 
L 1819 4666 
L 2450 4666 
L 2450 531 
L 3481 531 
L 3481 0 
L 794 0 
L 794 531 
z
" transform="scale(0.015625)"/>
       </defs>
       <use xlink:href="#DejaVuSans-31"/>
       <use xlink:href="#DejaVuSans-30" transform="translate(63.623047 0)"/>
       <use xlink:href="#DejaVuSans-30" transform="translate(127.246094 0)"/>
       <use xlink:href="#DejaVuSans-30" transform="translate(190.869141 0)"/>
      </g>
     </g>
    </g>
    <g id="xtick_7">
     <g id="line2d_7">
      <g>
       <use xlink:href="#m6125685a7f" x="848.407042" y="170.44" style="stroke: #000000; stroke-width: 0.8"/>
      </g>
     </g>
     <g id="text_7">
      <!-- 1200 -->
      <g transform="translate(835.682042 185.038437) scale(0.1 -0.1)">
       <use xlink:href="#DejaVuSans-31"/>
       <use xlink:href="#DejaVuSans-32" transform="translate(63.623047 0)"/>
       <use xlink:href="#DejaVuSans-30" transform="translate(127.246094 0)"/>
       <use xlink:href="#DejaVuSans-30" transform="translate(190.869141 0)"/>
      </g>
     </g>
    </g>
    <g id="xtick_8">
     <g id="line2d_8">
      <g>
       <use xlink:href="#m6125685a7f" x="981.434882" y="170.44" style="stroke: #000000; stroke-width: 0.8"/>
      </g>
     </g>
     <g id="text_8">
      <!-- 1400 -->
      <g transform="translate(968.709882 185.038437) scale(0.1 -0.1)">
       <use xlink:href="#DejaVuSans-31"/>
       <use xlink:href="#DejaVuSans-34" transform="translate(63.623047 0)"/>
       <use xlink:href="#DejaVuSans-30" transform="translate(127.246094 0)"/>
       <use xlink:href="#DejaVuSans-30" transform="translate(190.869141 0)"/>
      </g>
     </g>
    </g>
    <g id="text_9">
     <!-- Simulation Days -->
     <g transform="translate(502.74 201.755937) scale(0.14 -0.14)">
      <defs>
       <path id="DejaVuSans-53" d="M 3425 4513 
L 3425 3897 
Q 3066 4069 2747 4153 
Q 2428 4238 2131 4238 
Q 1616 4238 1336 4038 
Q 1056 3838 1056 3469 
Q 1056 3159 1242 3001 
Q 1428 2844 1947 2747 
L 2328 2669 
Q 3034 2534 3370 2195 
Q 3706 1856 3706 1288 
Q 3706 609 3251 259 
Q 2797 -91 1919 -91 
Q 1588 -91 1214 -16 
Q 841 59 441 206 
L 441 856 
Q 825 641 1194 531 
Q 1563 422 1919 422 
Q 2459 422 2753 634 
Q 3047 847 3047 1241 
Q 3047 1584 2836 1778 
Q 2625 1972 2144 2069 
L 1759 2144 
Q 1053 2284 737 2584 
Q 422 2884 422 3419 
Q 422 4038 858 4394 
Q 1294 4750 2059 4750 
Q 2388 4750 2728 4690 
Q 3069 4631 3425 4513 
z
" transform="scale(0.015625)"/>
       <path id="DejaVuSans-69" d="M 603 3500 
L 1178 3500 
L 1178 0 
L 603 0 
L 603 3500 
z
M 603 4863 
L 1178 4863 
L 1178 4134 
L 603 4134 
L 603 4863 
z
" transform="scale(0.015625)"/>
       <path id="DejaVuSans-6d" d="M 3328 2828 
Q 3544 3216 3844 3400 
Q 4144 3584 4550 3584 
Q 5097 3584 5394 3201 
Q 5691 2819 5691 2113 
L 5691 0 
L 5113 0 
L 5113 2094 
Q 5113 2597 4934 2840 
Q 4756 3084 4391 3084 
Q 3944 3084 3684 2787 
Q 3425 2491 3425 1978 
L 3425 0 
L 2847 0 
L 2847 2094 
Q 2847 2600 2669 2842 
Q 2491 3084 2119 3084 
Q 1678 3084 1418 2786 
Q 1159 2488 1159 1978 
L 1159 0 
L 581 0 
L 581 3500 
L 1159 3500 
L 1159 2956 
Q 1356 3278 1631 3431 
Q 1906 3584 2284 3584 
Q 2666 3584 2933 3390 
Q 3200 3197 3328 2828 
z
" transform="scale(0.015625)"/>
       <path id="DejaVuSans-75" d="M 544 1381 
L 544 3500 
L 1119 3500 
L 1119 1403 
Q 1119 906 1312 657 
Q 1506 409 1894 409 
Q 2359 409 2629 706 
Q 2900 1003 2900 1516 
L 2900 3500 
L 3475 3500 
L 3475 0 
L 2900 0 
L 2900 538 
Q 2691 219 2414 64 
Q 2138 -91 1772 -91 
Q 1169 -91 856 284 
Q 544 659 544 1381 
z
M 1991 3584 
L 1991 3584 
z
" transform="scale(0.015625)"/>
       <path id="DejaVuSans-6c" d="M 603 4863 
L 1178 4863 
L 1178 0 
L 603 0 
L 603 4863 
z
" transform="scale(0.015625)"/>
       <path id="DejaVuSans-61" d="M 2194 1759 
Q 1497 1759 1228 1600 
Q 959 1441 959 1056 
Q 959 750 1161 570 
Q 1363 391 1709 391 
Q 2188 391 2477 730 
Q 2766 1069 2766 1631 
L 2766 1759 
L 2194 1759 
z
M 3341 1997 
L 3341 0 
L 2766 0 
L 2766 531 
Q 2569 213 2275 61 
Q 1981 -91 1556 -91 
Q 1019 -91 701 211 
Q 384 513 384 1019 
Q 384 1609 779 1909 
Q 1175 2209 1959 2209 
L 2766 2209 
L 2766 2266 
Q 2766 2663 2505 2880 
Q 2244 3097 1772 3097 
Q 1472 3097 1187 3025 
Q 903 2953 641 2809 
L 641 3341 
Q 956 3463 1253 3523 
Q 1550 3584 1831 3584 
Q 2591 3584 2966 3190 
Q 3341 2797 3341 1997 
z
" transform="scale(0.015625)"/>
       <path id="DejaVuSans-74" d="M 1172 4494 
L 1172 3500 
L 2356 3500 
L 2356 3053 
L 1172 3053 
L 1172 1153 
Q 1172 725 1289 603 
Q 1406 481 1766 481 
L 2356 481 
L 2356 0 
L 1766 0 
Q 1100 0 847 248 
Q 594 497 594 1153 
L 594 3053 
L 172 3053 
L 172 3500 
L 594 3500 
L 594 4494 
L 1172 4494 
z
" transform="scale(0.015625)"/>
       <path id="DejaVuSans-6f" d="M 1959 3097 
Q 1497 3097 1228 2736 
Q 959 2375 959 1747 
Q 959 1119 1226 758 
Q 1494 397 1959 397 
Q 2419 397 2687 759 
Q 2956 1122 2956 1747 
Q 2956 2369 2687 2733 
Q 2419 3097 1959 3097 
z
M 1959 3584 
Q 2709 3584 3137 3096 
Q 3566 2609 3566 1747 
Q 3566 888 3137 398 
Q 2709 -91 1959 -91 
Q 1206 -91 779 398 
Q 353 888 353 1747 
Q 353 2609 779 3096 
Q 1206 3584 1959 3584 
z
" transform="scale(0.015625)"/>
       <path id="DejaVuSans-6e" d="M 3513 2113 
L 3513 0 
L 2938 0 
L 2938 2094 
Q 2938 2591 2744 2837 
Q 2550 3084 2163 3084 
Q 1697 3084 1428 2787 
Q 1159 2491 1159 1978 
L 1159 0 
L 581 0 
L 581 3500 
L 1159 3500 
L 1159 2956 
Q 1366 3272 1645 3428 
Q 1925 3584 2291 3584 
Q 2894 3584 3203 3211 
Q 3513 2838 3513 2113 
z
" transform="scale(0.015625)"/>
       <path id="DejaVuSans-20" transform="scale(0.015625)"/>
       <path id="DejaVuSans-44" d="M 1259 4147 
L 1259 519 
L 2022 519 
Q 2988 519 3436 956 
Q 3884 1394 3884 2338 
Q 3884 3275 3436 3711 
Q 2988 4147 2022 4147 
L 1259 4147 
z
M 628 4666 
L 1925 4666 
Q 3281 4666 3915 4102 
Q 4550 3538 4550 2338 
Q 4550 1131 3912 565 
Q 3275 0 1925 0 
L 628 0 
L 628 4666 
z
" transform="scale(0.015625)"/>
       <path id="DejaVuSans-79" d="M 2059 -325 
Q 1816 -950 1584 -1140 
Q 1353 -1331 966 -1331 
L 506 -1331 
L 506 -850 
L 844 -850 
Q 1081 -850 1212 -737 
Q 1344 -625 1503 -206 
L 1606 56 
L 191 3500 
L 800 3500 
L 1894 763 
L 2988 3500 
L 3597 3500 
L 2059 -325 
z
" transform="scale(0.015625)"/>
       <path id="DejaVuSans-73" d="M 2834 3397 
L 2834 2853 
Q 2591 2978 2328 3040 
Q 2066 3103 1784 3103 
Q 1356 3103 1142 2972 
Q 928 2841 928 2578 
Q 928 2378 1081 2264 
Q 1234 2150 1697 2047 
L 1894 2003 
Q 2506 1872 2764 1633 
Q 3022 1394 3022 966 
Q 3022 478 2636 193 
Q 2250 -91 1575 -91 
Q 1294 -91 989 -36 
Q 684 19 347 128 
L 347 722 
Q 666 556 975 473 
Q 1284 391 1588 391 
Q 1994 391 2212 530 
Q 2431 669 2431 922 
Q 2431 1156 2273 1281 
Q 2116 1406 1581 1522 
L 1381 1569 
Q 847 1681 609 1914 
Q 372 2147 372 2553 
Q 372 3047 722 3315 
Q 1072 3584 1716 3584 
Q 2034 3584 2315 3537 
Q 2597 3491 2834 3397 
z
" transform="scale(0.015625)"/>
      </defs>
      <use xlink:href="#DejaVuSans-53"/>
      <use xlink:href="#DejaVuSans-69" transform="translate(63.476562 0)"/>
      <use xlink:href="#DejaVuSans-6d" transform="translate(91.259766 0)"/>
      <use xlink:href="#DejaVuSans-75" transform="translate(188.671875 0)"/>
      <use xlink:href="#DejaVuSans-6c" transform="translate(252.050781 0)"/>
      <use xlink:href="#DejaVuSans-61" transform="translate(279.833984 0)"/>
      <use xlink:href="#DejaVuSans-74" transform="translate(341.113281 0)"/>
      <use xlink:href="#DejaVuSans-69" transform="translate(380.322266 0)"/>
      <use xlink:href="#DejaVuSans-6f" transform="translate(408.105469 0)"/>
      <use xlink:href="#DejaVuSans-6e" transform="translate(469.287109 0)"/>
      <use xlink:href="#DejaVuSans-20" transform="translate(532.666016 0)"/>
      <use xlink:href="#DejaVuSans-44" transform="translate(564.453125 0)"/>
      <use xlink:href="#DejaVuSans-61" transform="translate(641.455078 0)"/>
      <use xlink:href="#DejaVuSans-79" transform="translate(702.734375 0)"/>
      <use xlink:href="#DejaVuSans-73" transform="translate(761.914062 0)"/>
     </g>
    </g>
   </g>
   <g id="matplotlib.axis_2">
    <g id="ytick_1">
     <g id="line2d_9">
      <defs>
       <path id="m260f5b2e59" d="M 0 0 
L -3.5 0 
" style="stroke: #000000; stroke-width: 0.8"/>
      </defs>
      <g>
       <use xlink:href="#m260f5b2e59" x="50.24" y="163.32432" style="stroke: #000000; stroke-width: 0.8"/>
      </g>
     </g>
     <g id="text_10">
      <!-- −8 -->
      <g transform="translate(28.497813 167.123539) scale(0.1 -0.1)">
       <defs>
        <path id="DejaVuSans-2212" d="M 678 2272 
L 4684 2272 
L 4684 1741 
L 678 1741 
L 678 2272 
z
" transform="scale(0.015625)"/>
       </defs>
       <use xlink:href="#DejaVuSans-2212"/>
       <use xlink:href="#DejaVuSans-38" transform="translate(83.789062 0)"/>
      </g>
     </g>
    </g>
    <g id="ytick_2">
     <g id="line2d_10">
      <g>
       <use xlink:href="#m260f5b2e59" x="50.24" y="133.621594" style="stroke: #000000; stroke-width: 0.8"/>
      </g>
     </g>
     <g id="text_11">
      <!-- −4 -->
      <g transform="translate(28.497813 137.420813) scale(0.1 -0.1)">
       <use xlink:href="#DejaVuSans-2212"/>
       <use xlink:href="#DejaVuSans-34" transform="translate(83.789062 0)"/>
      </g>
     </g>
    </g>
    <g id="ytick_3">
     <g id="line2d_11">
      <g>
       <use xlink:href="#m260f5b2e59" x="50.24" y="103.918868" style="stroke: #000000; stroke-width: 0.8"/>
      </g>
     </g>
     <g id="text_12">
      <!-- 0 -->
      <g transform="translate(36.8775 107.718087) scale(0.1 -0.1)">
       <use xlink:href="#DejaVuSans-30"/>
      </g>
     </g>
    </g>
    <g id="ytick_4">
     <g id="line2d_12">
      <g>
       <use xlink:href="#m260f5b2e59" x="50.24" y="74.216142" style="stroke: #000000; stroke-width: 0.8"/>
      </g>
     </g>
     <g id="text_13">
      <!-- 4 -->
      <g transform="translate(36.8775 78.015361) scale(0.1 -0.1)">
       <use xlink:href="#DejaVuSans-34"/>
      </g>
     </g>
    </g>
    <g id="ytick_5">
     <g id="line2d_13">
      <g>
       <use xlink:href="#m260f5b2e59" x="50.24" y="44.513417" style="stroke: #000000; stroke-width: 0.8"/>
      </g>
     </g>
     <g id="text_14">
      <!-- 8 -->
      <g transform="translate(36.8775 48.312635) scale(0.1 -0.1)">
       <use xlink:href="#DejaVuSans-38"/>
      </g>
     </g>
    </g>
    <g id="text_15">
     <!-- Temperature (℃) -->
     <g transform="translate(21.58625 159.986094) rotate(-90) scale(0.14 -0.14)">
      <defs>
       <path id="DejaVuSans-54" d="M -19 4666 
L 3928 4666 
L 3928 4134 
L 2272 4134 
L 2272 0 
L 1638 0 
L 1638 4134 
L -19 4134 
L -19 4666 
z
" transform="scale(0.015625)"/>
       <path id="DejaVuSans-65" d="M 3597 1894 
L 3597 1613 
L 953 1613 
Q 991 1019 1311 708 
Q 1631 397 2203 397 
Q 2534 397 2845 478 
Q 3156 559 3463 722 
L 3463 178 
Q 3153 47 2828 -22 
Q 2503 -91 2169 -91 
Q 1331 -91 842 396 
Q 353 884 353 1716 
Q 353 2575 817 3079 
Q 1281 3584 2069 3584 
Q 2775 3584 3186 3129 
Q 3597 2675 3597 1894 
z
M 3022 2063 
Q 3016 2534 2758 2815 
Q 2500 3097 2075 3097 
Q 1594 3097 1305 2825 
Q 1016 2553 972 2059 
L 3022 2063 
z
" transform="scale(0.015625)"/>
       <path id="DejaVuSans-70" d="M 1159 525 
L 1159 -1331 
L 581 -1331 
L 581 3500 
L 1159 3500 
L 1159 2969 
Q 1341 3281 1617 3432 
Q 1894 3584 2278 3584 
Q 2916 3584 3314 3078 
Q 3713 2572 3713 1747 
Q 3713 922 3314 415 
Q 2916 -91 2278 -91 
Q 1894 -91 1617 61 
Q 1341 213 1159 525 
z
M 3116 1747 
Q 3116 2381 2855 2742 
Q 2594 3103 2138 3103 
Q 1681 3103 1420 2742 
Q 1159 2381 1159 1747 
Q 1159 1113 1420 752 
Q 1681 391 2138 391 
Q 2594 391 2855 752 
Q 3116 1113 3116 1747 
z
" transform="scale(0.015625)"/>
       <path id="DejaVuSans-72" d="M 2631 2963 
Q 2534 3019 2420 3045 
Q 2306 3072 2169 3072 
Q 1681 3072 1420 2755 
Q 1159 2438 1159 1844 
L 1159 0 
L 581 0 
L 581 3500 
L 1159 3500 
L 1159 2956 
Q 1341 3275 1631 3429 
Q 1922 3584 2338 3584 
Q 2397 3584 2469 3576 
Q 2541 3569 2628 3553 
L 2631 2963 
z
" transform="scale(0.015625)"/>
       <path id="DejaVuSans-28" d="M 1984 4856 
Q 1566 4138 1362 3434 
Q 1159 2731 1159 2009 
Q 1159 1288 1364 580 
Q 1569 -128 1984 -844 
L 1484 -844 
Q 1016 -109 783 600 
Q 550 1309 550 2009 
Q 550 2706 781 3412 
Q 1013 4119 1484 4856 
L 1984 4856 
z
" transform="scale(0.015625)"/>
       <path id="DejaVuSans-2103" d="M 1600 4347 
Q 1350 4347 1178 4173 
Q 1006 4000 1006 3750 
Q 1006 3503 1178 3333 
Q 1350 3163 1600 3163 
Q 1850 3163 2022 3333 
Q 2194 3503 2194 3750 
Q 2194 3997 2020 4172 
Q 1847 4347 1600 4347 
z
M 1600 4750 
Q 1800 4750 1984 4673 
Q 2169 4597 2303 4453 
Q 2447 4313 2519 4134 
Q 2591 3956 2591 3750 
Q 2591 3338 2302 3052 
Q 2013 2766 1594 2766 
Q 1172 2766 890 3047 
Q 609 3328 609 3750 
Q 609 4169 896 4459 
Q 1184 4750 1600 4750 
z
M 6741 4306 
L 6741 3641 
Q 6422 3938 6061 4084 
Q 5700 4231 5294 4231 
Q 4494 4231 4069 3742 
Q 3644 3253 3644 2328 
Q 3644 1406 4069 917 
Q 4494 428 5294 428 
Q 5700 428 6061 575 
Q 6422 722 6741 1019 
L 6741 359 
Q 6409 134 6039 21 
Q 5669 -91 5256 -91 
Q 4197 -91 3587 557 
Q 2978 1206 2978 2328 
Q 2978 3453 3587 4101 
Q 4197 4750 5256 4750 
Q 5675 4750 6045 4639 
Q 6416 4528 6741 4306 
z
" transform="scale(0.015625)"/>
       <path id="DejaVuSans-29" d="M 513 4856 
L 1013 4856 
Q 1481 4119 1714 3412 
Q 1947 2706 1947 2009 
Q 1947 1309 1714 600 
Q 1481 -109 1013 -844 
L 513 -844 
Q 928 -128 1133 580 
Q 1338 1288 1338 2009 
Q 1338 2731 1133 3434 
Q 928 4138 513 4856 
z
" transform="scale(0.015625)"/>
      </defs>
      <use xlink:href="#DejaVuSans-54"/>
      <use xlink:href="#DejaVuSans-65" transform="translate(44.083984 0)"/>
      <use xlink:href="#DejaVuSans-6d" transform="translate(105.607422 0)"/>
      <use xlink:href="#DejaVuSans-70" transform="translate(203.019531 0)"/>
      <use xlink:href="#DejaVuSans-65" transform="translate(266.496094 0)"/>
      <use xlink:href="#DejaVuSans-72" transform="translate(328.019531 0)"/>
      <use xlink:href="#DejaVuSans-61" transform="translate(369.132812 0)"/>
      <use xlink:href="#DejaVuSans-74" transform="translate(430.412109 0)"/>
      <use xlink:href="#DejaVuSans-75" transform="translate(469.621094 0)"/>
      <use xlink:href="#DejaVuSans-72" transform="translate(533 0)"/>
      <use xlink:href="#DejaVuSans-65" transform="translate(571.863281 0)"/>
      <use xlink:href="#DejaVuSans-20" transform="translate(633.386719 0)"/>
      <use xlink:href="#DejaVuSans-28" transform="translate(665.173828 0)"/>
      <use xlink:href="#DejaVuSans-2103" transform="translate(704.1875 0)"/>
      <use xlink:href="#DejaVuSans-29" transform="translate(816.492188 0)"/>
     </g>
    </g>
   </g>
   <g id="line2d_14">
    <path d="M 50.24 154.404124 
L 52.900557 154.544833 
L 54.895974 154.822817 
L 56.891392 155.300353 
L 58.88681 156.030471 
L 60.882227 157.015673 
L 65.538202 159.536278 
L 66.86848 160.004793 
L 68.198758 160.248828 
L 69.529037 160.241273 
L 70.859315 159.980424 
L 72.189594 159.484713 
L 73.519872 158.784891 
L 75.51529 157.433217 
L 78.175846 155.264332 
L 84.162099 150.151333 
L 86.822656 148.205377 
L 89.483213 146.569094 
L 92.14377 145.234657 
L 94.804327 144.157369 
L 98.130023 143.066849 
L 108.107111 140.030274 
L 111.432807 138.598536 
L 116.088781 136.527281 
L 118.749338 135.594795 
L 121.409895 134.911862 
L 124.735591 134.31571 
L 134.047539 132.825122 
L 138.038375 131.900966 
L 141.364071 130.9427 
L 143.359488 130.212323 
L 145.354906 129.243573 
L 146.685184 128.387779 
L 148.015463 127.303363 
L 149.345741 125.946579 
L 150.676019 124.295177 
L 152.671437 121.300883 
L 155.331994 116.707563 
L 157.992551 112.241814 
L 159.322829 110.331204 
L 160.653107 108.727674 
L 161.983386 107.451441 
L 163.313664 106.487106 
L 164.643943 105.793984 
L 165.974221 105.318422 
L 167.969639 104.892289 
L 170.630196 104.616191 
L 175.28617 104.210905 
L 177.281588 103.839527 
L 179.277005 103.217704 
L 180.607284 102.619586 
L 181.937562 101.844434 
L 183.26784 100.864603 
L 184.598119 99.650571 
L 185.928397 98.166276 
L 187.258676 96.367907 
L 188.588954 94.213326 
L 189.919232 91.67797 
L 191.91465 87.222903 
L 195.240346 79.281008 
L 196.570624 76.699847 
L 197.235764 75.696814 
L 197.900903 74.93305 
L 198.566042 74.436331 
L 199.231181 74.226254 
L 199.89632 74.312819 
L 200.56146 74.695685 
L 201.226599 75.36377 
L 201.891738 76.295731 
L 203.222016 78.820932 
L 205.217434 83.598155 
L 207.212852 88.34744 
L 208.54313 90.872741 
L 209.208269 91.838 
L 209.873408 92.576601 
L 210.538548 93.078401 
L 211.203687 93.342825 
L 211.868826 93.378718 
L 212.533965 93.203429 
L 213.199104 92.842475 
L 214.529383 91.69731 
L 217.855079 88.231826 
L 219.185357 87.387763 
L 219.850496 87.184876 
L 220.515636 87.141818 
L 221.180775 87.26005 
L 221.845914 87.534486 
L 222.511053 87.955152 
L 223.841332 89.175418 
L 225.17161 90.791143 
L 227.167028 93.687202 
L 229.827584 98.042361 
L 233.15328 104.003015 
L 239.804672 116.192372 
L 242.465229 120.605283 
L 244.460647 123.595364 
L 246.456064 126.153601 
L 247.786343 127.53304 
L 249.116621 128.602341 
L 250.4469 129.341538 
L 251.777178 129.755255 
L 253.107457 129.875347 
L 254.437735 129.75878 
L 257.098292 129.159732 
L 258.42857 128.903337 
L 259.758849 128.84853 
L 261.089127 129.117973 
L 262.419405 129.801724 
L 263.749684 130.934065 
L 265.079962 132.478673 
L 267.07538 135.321609 
L 269.735937 139.206335 
L 271.066215 140.814116 
L 272.396493 142.050203 
L 273.726772 142.879043 
L 275.05705 143.32397 
L 276.387329 143.451462 
L 277.717607 143.353786 
L 283.038721 142.563198 
L 285.034138 142.66787 
L 287.029556 143.072314 
L 292.350669 144.480155 
L 294.346087 144.636547 
L 296.341505 144.464387 
L 298.336922 144.001807 
L 300.997479 143.071371 
L 308.31401 140.21755 
L 309.644289 139.940832 
L 310.974567 139.8458 
L 312.304845 139.972795 
L 313.635124 140.347727 
L 314.965402 140.976386 
L 316.295681 141.842419 
L 318.291098 143.503121 
L 320.951655 146.106572 
L 324.277351 149.339804 
L 326.272769 151.012524 
L 328.268186 152.428558 
L 330.928743 154.016198 
L 334.919578 156.119693 
L 336.914996 156.976178 
L 338.245274 157.332988 
L 339.575553 157.398718 
L 340.240692 157.287622 
L 340.905831 157.062961 
L 341.57097 156.713683 
L 342.23611 156.231152 
L 343.566388 154.848239 
L 344.896666 152.918231 
L 346.226945 150.515299 
L 348.222362 146.346546 
L 350.882919 140.757509 
L 352.213198 138.354593 
L 353.543476 136.355208 
L 354.873754 134.773213 
L 356.204033 133.557022 
L 357.534311 132.615725 
L 359.529729 131.50897 
L 362.190286 130.287576 
L 364.850842 129.281106 
L 370.837095 127.357487 
L 372.167374 126.549516 
L 373.497652 125.41099 
L 374.82793 123.895001 
L 376.158209 122.007419 
L 378.153626 118.634392 
L 382.144462 111.592793 
L 383.47474 109.663735 
L 384.805018 108.086431 
L 386.135297 106.872903 
L 387.465575 105.993585 
L 388.795854 105.392239 
L 390.126132 104.99991 
L 392.12155 104.65722 
L 396.112385 104.104197 
L 397.442663 103.728415 
L 398.772942 103.123672 
L 400.10322 102.191324 
L 401.433498 100.832202 
L 402.763777 98.967432 
L 404.094055 96.566902 
L 405.424334 93.676235 
L 408.08489 87.066947 
L 410.080308 82.392604 
L 411.410587 79.903344 
L 412.740865 78.086318 
L 414.071143 76.906959 
L 415.401422 76.157702 
L 417.396839 75.098275 
L 418.061979 74.579833 
L 418.727118 73.916865 
L 420.057396 72.082527 
L 421.387675 69.580827 
L 423.383092 65.053939 
L 425.37851 60.72075 
L 426.708788 58.548275 
L 427.373927 57.763584 
L 428.039067 57.192387 
L 428.704206 56.830373 
L 429.369345 56.664024 
L 430.034484 56.672316 
L 430.699623 56.829558 
L 432.029902 57.481386 
L 433.36018 58.420471 
L 435.355598 60.092106 
L 437.351015 61.984238 
L 439.346433 64.151543 
L 445.332686 71.143611 
L 446.662964 72.325375 
L 448.658382 73.766201 
L 451.318939 75.56841 
L 452.649217 76.712354 
L 453.979495 78.1793 
L 455.309774 80.049321 
L 456.640052 82.361836 
L 457.970331 85.113736 
L 459.965748 89.96752 
L 462.626305 97.328585 
L 465.286862 104.706911 
L 466.61714 107.986817 
L 467.947419 110.777013 
L 469.277697 112.951809 
L 469.942836 113.782237 
L 470.607975 114.434344 
L 471.273115 114.907454 
L 471.938254 115.204296 
L 472.603393 115.330998 
L 473.268532 115.297281 
L 473.933671 115.115514 
L 475.26395 114.368892 
L 476.594228 113.228196 
L 478.589646 111.107749 
L 481.250203 108.241794 
L 482.580481 107.03547 
L 483.910759 106.079861 
L 485.241038 105.428063 
L 486.571316 105.126244 
L 487.901595 105.224774 
L 488.566734 105.441732 
L 489.231873 105.779782 
L 490.562152 106.844842 
L 491.89243 108.458936 
L 493.222708 110.629142 
L 494.552987 113.317274 
L 496.548404 118.121826 
L 503.864936 137.182226 
L 505.860353 141.508888 
L 507.855771 145.309866 
L 509.851188 148.641259 
L 512.511745 152.563908 
L 516.50258 157.933445 
L 518.497998 160.357905 
L 519.828276 161.733304 
L 521.158555 162.799974 
L 522.488833 163.461465 
L 523.153972 163.6169 
L 523.819112 163.647895 
L 524.484251 163.5528 
L 525.14939 163.333324 
L 526.479668 162.545952 
L 527.809947 161.367536 
L 529.805364 159.141397 
L 532.465921 156.069961 
L 533.7962 154.771353 
L 535.126478 153.741452 
L 536.456756 153.019266 
L 537.787035 152.612841 
L 539.117313 152.50578 
L 540.447592 152.663205 
L 541.77787 153.036018 
L 543.773288 153.869298 
L 549.094401 156.304605 
L 551.089819 156.94766 
L 553.750376 157.578607 
L 559.071489 158.581435 
L 561.066907 158.80089 
L 563.062324 158.768391 
L 565.057742 158.409604 
L 567.05316 157.761159 
L 572.374273 155.79822 
L 575.03483 155.161423 
L 577.695387 154.529743 
L 579.690805 153.807468 
L 581.021083 153.135418 
L 583.016501 151.817745 
L 585.011918 150.183294 
L 590.998171 144.910755 
L 592.993589 143.590538 
L 594.989006 142.636932 
L 596.984424 142.004814 
L 599.644981 141.471099 
L 605.631233 140.411841 
L 610.952347 139.157854 
L 616.273461 137.738182 
L 618.934017 136.842201 
L 620.929435 135.991952 
L 622.924853 134.89913 
L 624.255131 133.978328 
L 625.585409 132.853041 
L 626.915688 131.476899 
L 628.245966 129.810074 
L 629.576245 127.831046 
L 631.571662 124.307259 
L 634.232219 118.927773 
L 636.892776 113.629116 
L 638.223054 111.324728 
L 639.553333 109.369002 
L 640.883611 107.797593 
L 642.213889 106.602923 
L 643.544168 105.743809 
L 644.874446 105.159374 
L 646.204725 104.782384 
L 648.200142 104.47205 
L 652.190978 104.219361 
L 654.851534 103.974569 
L 656.846952 103.557736 
L 658.17723 103.084943 
L 659.507509 102.400532 
L 660.837787 101.466067 
L 662.168066 100.263029 
L 663.498344 98.800868 
L 665.493762 96.213273 
L 668.819458 91.36878 
L 673.475432 84.241952 
L 675.47085 80.827127 
L 677.466267 77.028036 
L 680.126824 71.373046 
L 683.45252 63.620858 
L 691.43419 44.445407 
L 693.429608 40.443753 
L 694.759886 38.320413 
L 695.425026 37.484782 
L 696.090165 36.830449 
L 696.755304 36.379792 
L 697.420443 36.154545 
L 698.085582 36.17522 
L 698.750722 36.458865 
L 699.415861 37.018367 
L 700.081 37.861653 
L 700.746139 38.990451 
L 701.411278 40.399513 
L 702.741557 44.000088 
L 704.071835 48.470072 
L 706.732392 58.732849 
L 708.72781 66.066682 
L 710.058088 70.144587 
L 711.388366 73.355459 
L 712.718645 75.690331 
L 714.048923 77.295081 
L 715.379202 78.429932 
L 717.374619 79.931768 
L 718.704898 81.211999 
L 720.035176 82.942589 
L 721.365454 85.202784 
L 722.695733 87.973789 
L 724.69115 92.862307 
L 729.347125 104.979716 
L 731.342543 109.464508 
L 733.33796 113.373165 
L 735.998517 118.041099 
L 740.654491 125.728294 
L 742.649909 128.535258 
L 743.980187 130.031216 
L 745.310466 131.158128 
L 746.640744 131.915131 
L 747.971023 132.360003 
L 749.96644 132.685163 
L 751.961858 133.004787 
L 753.292136 133.400943 
L 754.622415 134.005268 
L 756.617832 135.251548 
L 759.943528 137.496359 
L 761.273807 138.150717 
L 762.604085 138.56112 
L 763.934363 138.712566 
L 765.264642 138.627524 
L 767.260059 138.167055 
L 774.576591 135.92886 
L 777.237147 135.569269 
L 780.562843 135.412873 
L 785.883957 135.439389 
L 790.539931 135.447961 
L 793.200488 135.257445 
L 797.856463 134.624067 
L 801.182159 134.263747 
L 808.49869 133.642633 
L 811.159247 133.111504 
L 818.475778 131.416513 
L 820.471196 131.227734 
L 823.131752 131.217852 
L 831.113423 131.479064 
L 833.77398 131.268885 
L 835.769397 130.873086 
L 837.099676 130.42208 
L 838.429954 129.759461 
L 839.760232 128.831722 
L 841.090511 127.59891 
L 842.420789 126.049305 
L 843.751068 124.210757 
L 846.411624 119.990061 
L 849.072181 115.848333 
L 850.40246 114.098602 
L 851.732738 112.654703 
L 853.063016 111.526033 
L 854.393295 110.678308 
L 856.388712 109.788774 
L 869.026357 105.436149 
L 871.686914 104.874609 
L 874.347471 104.569371 
L 878.338306 104.395623 
L 887.650255 104.32726 
L 895.631925 104.193827 
L 897.627343 103.97101 
L 898.957621 103.666936 
L 900.2879 103.152882 
L 901.618178 102.328638 
L 902.948457 101.078323 
L 904.278735 99.282826 
L 905.609013 96.839786 
L 906.939292 93.691281 
L 908.26957 89.84477 
L 910.264988 82.98674 
L 914.920962 65.734257 
L 916.251241 61.583606 
L 917.581519 58.060528 
L 918.911797 55.168932 
L 920.242076 52.837003 
L 921.572354 50.960252 
L 922.902633 49.449099 
L 924.232911 48.260578 
L 925.563189 47.404339 
L 926.893468 46.918532 
L 928.223746 46.837648 
L 929.554025 47.164864 
L 930.884303 47.867546 
L 932.214581 48.897791 
L 933.54486 50.22622 
L 934.875138 51.873522 
L 936.205417 53.921321 
L 937.535695 56.496695 
L 938.865973 59.732406 
L 940.196252 63.715959 
L 941.52653 68.446461 
L 943.521948 76.654088 
L 946.847644 90.990477 
L 948.177922 95.991023 
L 949.508201 100.175322 
L 950.838479 103.426856 
L 952.168757 105.755283 
L 952.833897 106.605179 
L 953.499036 107.272356 
L 954.829314 108.151994 
L 956.159593 108.579587 
L 957.489871 108.711937 
L 959.485289 108.577651 
L 961.480706 108.173485 
L 963.476124 107.53388 
L 966.136681 106.400514 
L 969.462377 104.934572 
L 971.457794 104.282601 
L 972.788073 104.027009 
L 974.118351 103.972325 
L 975.44863 104.188038 
L 976.778908 104.77031 
L 977.444047 105.235904 
L 978.109186 105.839478 
L 978.774326 106.597071 
L 980.104604 108.632528 
L 981.434882 111.433627 
L 982.765161 115.031255 
L 984.095439 119.375338 
L 986.090857 126.972779 
L 990.081692 143.046528 
L 991.41197 147.649767 
L 992.742249 151.474246 
L 994.072527 154.370862 
L 994.737666 155.448907 
L 995.402806 156.280453 
L 996.067945 156.873394 
L 996.733084 157.241313 
L 997.398223 157.402804 
L 998.063362 157.380454 
L 998.728502 157.199697 
L 1000.05878 156.471742 
L 1002.054198 154.857233 
L 1004.714754 152.592949 
L 1006.710172 151.226655 
L 1008.04045 150.549637 
L 1009.370729 150.074847 
L 1010.701007 149.800476 
L 1012.031286 149.712389 
L 1014.026703 149.861862 
L 1020.678095 150.808924 
L 1020.678095 150.808924 
" clip-path="url(#p8d586d2327)" style="fill: none; stroke: #0000ff; stroke-width: 1.5; stroke-linecap: square"/>
   </g>
   <g id="line2d_15">
    <path d="M 50.24 153.000141 
L 52.235418 153.109029 
L 54.230835 153.408588 
L 56.226253 153.957673 
L 58.22167 154.812439 
L 60.217088 155.973846 
L 66.203341 159.823051 
L 67.533619 160.314357 
L 68.863898 160.556459 
L 70.194176 160.536071 
L 71.524454 160.262346 
L 72.854733 159.760633 
L 74.185011 159.065262 
L 76.180429 157.740463 
L 78.840986 155.633582 
L 85.492378 150.128332 
L 88.152934 148.272131 
L 90.813491 146.709714 
L 93.474048 145.407237 
L 96.799744 144.041435 
L 102.120858 142.14892 
L 119.414477 136.325246 
L 123.405312 135.268443 
L 128.061287 134.30128 
L 136.042957 132.705293 
L 139.368653 131.8177 
L 142.02921 130.882932 
L 144.024627 129.944286 
L 145.354906 129.143641 
L 146.685184 128.156391 
L 148.015463 126.944404 
L 149.345741 125.480695 
L 150.676019 123.758985 
L 152.671437 120.749728 
L 158.65769 111.09289 
L 159.987968 109.406181 
L 161.318247 108.01503 
L 162.648525 106.923413 
L 163.978803 106.108651 
L 165.309082 105.529559 
L 167.304499 104.990808 
L 169.965056 104.619445 
L 173.955892 104.144218 
L 175.951309 103.73529 
L 177.946727 103.117938 
L 179.942144 102.22763 
L 181.272423 101.446555 
L 182.602701 100.484155 
L 183.93298 99.305889 
L 185.263258 97.869241 
L 186.593536 96.126433 
L 187.923815 94.03314 
L 189.254093 91.564364 
L 191.249511 87.208452 
L 195.240346 77.822467 
L 196.570624 75.381796 
L 197.235764 74.449061 
L 197.900903 73.747569 
L 198.566042 73.299543 
L 199.231181 73.119629 
L 199.89632 73.214014 
L 200.56146 73.579818 
L 201.226599 74.205067 
L 201.891738 75.069069 
L 203.222016 77.392085 
L 205.217434 81.76323 
L 207.212852 86.114317 
L 208.54313 88.450602 
L 209.208269 89.357064 
L 209.873408 90.064283 
L 210.538548 90.56362 
L 211.203687 90.854587 
L 211.868826 90.944647 
L 212.533965 90.848705 
L 213.199104 90.588309 
L 214.529383 89.686986 
L 218.520218 86.373906 
L 219.185357 86.062973 
L 219.850496 85.880345 
L 220.515636 85.836169 
L 221.180775 85.934833 
L 221.845914 86.175469 
L 223.176192 87.056568 
L 224.506471 88.394908 
L 225.836749 90.076699 
L 227.832167 93.001755 
L 231.157863 98.35428 
L 235.148698 105.150026 
L 243.130368 118.964262 
L 245.125786 121.860195 
L 246.456064 123.499964 
L 247.786343 124.85549 
L 249.116621 125.897567 
L 250.4469 126.617308 
L 251.777178 127.0304 
L 253.107457 127.178646 
L 255.102874 127.055478 
L 258.42857 126.71693 
L 259.758849 126.835178 
L 261.089127 127.231787 
L 262.419405 127.960005 
L 263.749684 129.033989 
L 265.079962 130.424367 
L 267.07538 132.940917 
L 271.066215 138.194105 
L 272.396493 139.645449 
L 273.726772 140.850776 
L 275.05705 141.802753 
L 276.387329 142.521614 
L 277.717607 143.045227 
L 279.713025 143.562799 
L 282.373581 143.962574 
L 287.029556 144.370634 
L 291.020391 144.539947 
L 293.680948 144.472419 
L 296.341505 144.181932 
L 299.002061 143.642113 
L 302.327757 142.693203 
L 306.318593 141.528759 
L 308.31401 141.162314 
L 309.644289 141.077525 
L 310.974567 141.158589 
L 312.304845 141.430423 
L 313.635124 141.906545 
L 314.965402 142.586408 
L 316.96082 143.951289 
L 318.956237 145.635161 
L 328.268186 154.02382 
L 330.928743 155.897165 
L 333.5893 157.447151 
L 335.584718 158.333321 
L 336.914996 158.729746 
L 338.245274 158.907252 
L 339.575553 158.797889 
L 340.905831 158.330222 
L 342.23611 157.441747 
L 343.566388 156.093611 
L 344.896666 154.284376 
L 346.226945 152.058972 
L 348.222362 148.152575 
L 352.213198 140.032779 
L 353.543476 137.727918 
L 354.873754 135.761625 
L 356.204033 134.148938 
L 357.534311 132.865748 
L 358.86459 131.862007 
L 360.194868 131.076482 
L 362.190286 130.178167 
L 364.850842 129.258625 
L 368.841678 127.899023 
L 370.837095 126.93149 
L 372.167374 126.060557 
L 373.497652 124.950248 
L 374.82793 123.568329 
L 376.158209 121.910729 
L 378.153626 118.986322 
L 383.47474 110.743676 
L 384.805018 109.12104 
L 386.135297 107.797527 
L 387.465575 106.775503 
L 388.795854 106.027053 
L 390.126132 105.503295 
L 392.12155 105.006035 
L 396.777524 104.053443 
L 398.107802 103.525605 
L 399.438081 102.744344 
L 400.768359 101.631263 
L 402.098638 100.120945 
L 403.428916 98.177565 
L 404.759194 95.812852 
L 406.754612 91.652339 
L 410.080308 84.43537 
L 411.410587 81.998709 
L 412.740865 80.009948 
L 414.071143 78.466548 
L 415.401422 77.255255 
L 418.061979 75.001283 
L 419.392257 73.528901 
L 420.722535 71.654464 
L 422.052814 69.398414 
L 426.043649 62.153868 
L 427.373927 60.379687 
L 428.039067 59.720535 
L 428.704206 59.227628 
L 429.369345 58.903858 
L 430.034484 58.746311 
L 430.699623 58.747055 
L 431.364763 58.894141 
L 432.695041 59.56592 
L 434.025319 60.626565 
L 436.020737 62.656051 
L 442.00699 69.170179 
L 444.667547 71.574498 
L 447.328103 73.627991 
L 450.653799 76.192192 
L 451.984078 77.443656 
L 453.314356 78.94533 
L 454.644635 80.76716 
L 455.974913 82.958478 
L 457.305191 85.539817 
L 459.300609 90.101247 
L 461.961166 97.09291 
L 465.286862 105.840343 
L 466.61714 108.834918 
L 467.947419 111.324523 
L 469.277697 113.20932 
L 469.942836 113.906504 
L 470.607975 114.436832 
L 471.273115 114.80184 
L 471.938254 115.006184 
L 472.603393 115.057444 
L 473.268532 114.965837 
L 474.598811 114.405899 
L 475.929089 113.446358 
L 477.924507 111.555958 
L 481.250203 108.296153 
L 482.580481 107.270936 
L 483.910759 106.526846 
L 485.241038 106.125266 
L 486.571316 106.118852 
L 487.236455 106.278436 
L 488.566734 106.947999 
L 489.897012 108.108834 
L 491.227291 109.77346 
L 492.557569 111.929335 
L 493.887848 114.534143 
L 495.883265 119.118597 
L 499.208961 127.699279 
L 501.869518 134.459229 
L 503.864936 139.072474 
L 505.860353 143.181701 
L 507.855771 146.803153 
L 509.851188 150.022822 
L 512.511745 153.883029 
L 515.172302 157.411987 
L 517.16772 159.813141 
L 519.163137 161.84945 
L 520.493416 162.900414 
L 521.823694 163.633379 
L 523.153972 164.003304 
L 524.484251 163.993015 
L 525.814529 163.619661 
L 527.144808 162.934962 
L 529.140225 161.504558 
L 533.13106 158.396415 
L 534.461339 157.586157 
L 535.791617 156.963858 
L 537.121896 156.536192 
L 538.452174 156.289721 
L 540.447592 156.200261 
L 542.443009 156.350428 
L 545.768705 156.879419 
L 556.410932 158.77879 
L 559.071489 159.004289 
L 561.732046 159.00301 
L 564.392603 158.735659 
L 567.05316 158.212174 
L 570.378856 157.28248 
L 575.03483 155.701367 
L 583.68164 152.482439 
L 605.631233 143.960739 
L 613.612904 140.691386 
L 617.603739 138.861865 
L 620.264296 137.446825 
L 622.924853 135.747685 
L 624.92027 134.209922 
L 626.915688 132.396498 
L 628.911105 130.28402 
L 630.906523 127.876086 
L 633.56708 124.268714 
L 641.54875 112.885509 
L 643.544168 110.612478 
L 645.539585 108.774576 
L 647.535003 107.373727 
L 649.530421 106.348536 
L 651.525838 105.595854 
L 658.84237 103.195627 
L 660.837787 102.128774 
L 662.833205 100.717352 
L 664.828622 98.929118 
L 666.82404 96.773565 
L 668.819458 94.287554 
L 671.480014 90.526746 
L 674.140571 86.293816 
L 676.801128 81.564694 
L 679.461685 76.296542 
L 682.122242 70.502714 
L 686.113077 61.113505 
L 690.103912 51.751274 
L 692.09933 47.61025 
L 693.429608 45.274446 
L 694.759886 43.42521 
L 695.425026 42.724824 
L 696.090165 42.195639 
L 696.755304 41.852609 
L 697.420443 41.708858 
L 698.085582 41.775029 
L 698.750722 42.058693 
L 699.415861 42.563737 
L 700.081 43.289999 
L 700.746139 44.232897 
L 702.076418 46.727681 
L 703.406696 49.923042 
L 705.402114 55.614586 
L 709.392949 67.471527 
L 711.388366 72.430029 
L 712.718645 75.205436 
L 714.048923 77.600857 
L 716.044341 80.703147 
L 720.035176 86.687044 
L 722.030594 90.201693 
L 724.026011 94.185265 
L 727.351707 101.498494 
L 731.342543 110.253324 
L 734.003099 115.547121 
L 735.998517 119.126507 
L 737.993935 122.341077 
L 739.989352 125.1694 
L 741.98477 127.595837 
L 743.980187 129.622914 
L 745.975605 131.2817 
L 747.971023 132.630208 
L 749.96644 133.739284 
L 752.626997 134.954912 
L 755.287554 135.951453 
L 757.948111 136.742799 
L 760.608667 137.289275 
L 763.269224 137.548128 
L 765.929781 137.519638 
L 768.590338 137.260622 
L 773.246312 136.521847 
L 779.232565 135.579311 
L 783.888539 135.064586 
L 810.494108 132.590653 
L 829.118005 130.398705 
L 831.778562 129.822406 
L 833.77398 129.172644 
L 835.769397 128.25431 
L 837.764815 127.007293 
L 839.760232 125.404609 
L 841.75565 123.465795 
L 844.416207 120.485252 
L 849.73732 114.308958 
L 851.732738 112.337844 
L 853.728156 110.689903 
L 855.723573 109.367188 
L 857.718991 108.320331 
L 860.379548 107.227305 
L 863.705244 106.142863 
L 867.696079 105.094466 
L 871.021775 104.437869 
L 874.347471 104.000517 
L 878.338306 103.730449 
L 882.99428 103.658141 
L 892.306229 103.621597 
L 894.301647 103.35968 
L 895.631925 103.016392 
L 896.962204 102.470628 
L 898.292482 101.653724 
L 899.622761 100.493227 
L 900.953039 98.921205 
L 902.283317 96.884514 
L 903.613596 94.355433 
L 904.943874 91.340573 
L 906.939292 86.018749 
L 909.599849 77.957657 
L 912.925545 67.837767 
L 914.920962 62.491023 
L 916.251241 59.400014 
L 917.581519 56.731106 
L 918.911797 54.494204 
L 920.242076 52.68391 
L 921.572354 51.287304 
L 922.902633 50.289732 
L 924.232911 49.678165 
L 925.563189 49.442798 
L 926.893468 49.578033 
L 928.223746 50.083825 
L 929.554025 50.96747 
L 930.884303 52.245062 
L 932.214581 53.940994 
L 933.54486 56.08418 
L 934.875138 58.70028 
L 936.205417 61.800864 
L 937.535695 65.371664 
L 939.531113 71.489734 
L 946.182505 93.345429 
L 947.512783 96.84641 
L 948.843061 99.791271 
L 950.17334 102.146536 
L 951.503618 103.922798 
L 952.833897 105.167058 
L 954.164175 105.951576 
L 955.494453 106.361616 
L 956.824732 106.48422 
L 958.15501 106.399714 
L 960.150428 106.031201 
L 966.80182 104.495986 
L 968.797238 104.39012 
L 970.127516 104.537962 
L 971.457794 104.925815 
L 972.788073 105.616587 
L 974.118351 106.674944 
L 975.44863 108.161068 
L 976.778908 110.122572 
L 978.109186 112.58549 
L 979.439465 115.545797 
L 980.769743 118.963239 
L 982.765161 124.764528 
L 988.086274 140.965836 
L 989.416553 144.369809 
L 990.746831 147.272293 
L 992.07711 149.61064 
L 993.407388 151.364156 
L 994.737666 152.552763 
L 996.067945 153.231504 
L 997.398223 153.481643 
L 998.728502 153.399608 
L 1000.05878 153.085529 
L 1002.719337 152.120993 
L 1006.045033 150.930456 
L 1008.70559 150.266832 
L 1011.366146 149.864437 
L 1014.691842 149.602563 
L 1019.347817 149.461995 
L 1020.678095 149.452722 
L 1020.678095 149.452722 
" clip-path="url(#p8d586d2327)" style="fill: none; stroke: #ff0000; stroke-width: 1.5; stroke-linecap: square"/>
   </g>
   <g id="line2d_16">
    <path d="M 535.791617 170.44 
L 535.791617 29.76 
" clip-path="url(#p8d586d2327)" style="fill: none; stroke: #1f77b4; stroke-width: 1.5; stroke-linecap: square"/>
   </g>
   <g id="patch_3">
    <path d="M 50.24 170.44 
L 50.24 29.76 
" style="fill: none; stroke: #000000; stroke-width: 0.8; stroke-linejoin: miter; stroke-linecap: square"/>
   </g>
   <g id="patch_4">
    <path d="M 1069.2 170.44 
L 1069.2 29.76 
" style="fill: none; stroke: #000000; stroke-width: 0.8; stroke-linejoin: miter; stroke-linecap: square"/>
   </g>
   <g id="patch_5">
    <path d="M 50.24 170.44 
L 1069.2 170.44 
" style="fill: none; stroke: #000000; stroke-width: 0.8; stroke-linejoin: miter; stroke-linecap: square"/>
   </g>
   <g id="patch_6">
    <path d="M 50.24 29.76 
L 1069.2 29.76 
" style="fill: none; stroke: #000000; stroke-width: 0.8; stroke-linejoin: miter; stroke-linecap: square"/>
   </g>
   <g id="text_16">
    <!-- Heat Conduction Equation Solution at x=0M -->
    <g transform="translate(383.1175 23.76) scale(0.16 -0.16)">
     <defs>
      <path id="DejaVuSans-48" d="M 628 4666 
L 1259 4666 
L 1259 2753 
L 3553 2753 
L 3553 4666 
L 4184 4666 
L 4184 0 
L 3553 0 
L 3553 2222 
L 1259 2222 
L 1259 0 
L 628 0 
L 628 4666 
z
" transform="scale(0.015625)"/>
      <path id="DejaVuSans-43" d="M 4122 4306 
L 4122 3641 
Q 3803 3938 3442 4084 
Q 3081 4231 2675 4231 
Q 1875 4231 1450 3742 
Q 1025 3253 1025 2328 
Q 1025 1406 1450 917 
Q 1875 428 2675 428 
Q 3081 428 3442 575 
Q 3803 722 4122 1019 
L 4122 359 
Q 3791 134 3420 21 
Q 3050 -91 2638 -91 
Q 1578 -91 968 557 
Q 359 1206 359 2328 
Q 359 3453 968 4101 
Q 1578 4750 2638 4750 
Q 3056 4750 3426 4639 
Q 3797 4528 4122 4306 
z
" transform="scale(0.015625)"/>
      <path id="DejaVuSans-64" d="M 2906 2969 
L 2906 4863 
L 3481 4863 
L 3481 0 
L 2906 0 
L 2906 525 
Q 2725 213 2448 61 
Q 2172 -91 1784 -91 
Q 1150 -91 751 415 
Q 353 922 353 1747 
Q 353 2572 751 3078 
Q 1150 3584 1784 3584 
Q 2172 3584 2448 3432 
Q 2725 3281 2906 2969 
z
M 947 1747 
Q 947 1113 1208 752 
Q 1469 391 1925 391 
Q 2381 391 2643 752 
Q 2906 1113 2906 1747 
Q 2906 2381 2643 2742 
Q 2381 3103 1925 3103 
Q 1469 3103 1208 2742 
Q 947 2381 947 1747 
z
" transform="scale(0.015625)"/>
      <path id="DejaVuSans-63" d="M 3122 3366 
L 3122 2828 
Q 2878 2963 2633 3030 
Q 2388 3097 2138 3097 
Q 1578 3097 1268 2742 
Q 959 2388 959 1747 
Q 959 1106 1268 751 
Q 1578 397 2138 397 
Q 2388 397 2633 464 
Q 2878 531 3122 666 
L 3122 134 
Q 2881 22 2623 -34 
Q 2366 -91 2075 -91 
Q 1284 -91 818 406 
Q 353 903 353 1747 
Q 353 2603 823 3093 
Q 1294 3584 2113 3584 
Q 2378 3584 2631 3529 
Q 2884 3475 3122 3366 
z
" transform="scale(0.015625)"/>
      <path id="DejaVuSans-45" d="M 628 4666 
L 3578 4666 
L 3578 4134 
L 1259 4134 
L 1259 2753 
L 3481 2753 
L 3481 2222 
L 1259 2222 
L 1259 531 
L 3634 531 
L 3634 0 
L 628 0 
L 628 4666 
z
" transform="scale(0.015625)"/>
      <path id="DejaVuSans-71" d="M 947 1747 
Q 947 1113 1208 752 
Q 1469 391 1925 391 
Q 2381 391 2643 752 
Q 2906 1113 2906 1747 
Q 2906 2381 2643 2742 
Q 2381 3103 1925 3103 
Q 1469 3103 1208 2742 
Q 947 2381 947 1747 
z
M 2906 525 
Q 2725 213 2448 61 
Q 2172 -91 1784 -91 
Q 1150 -91 751 415 
Q 353 922 353 1747 
Q 353 2572 751 3078 
Q 1150 3584 1784 3584 
Q 2172 3584 2448 3432 
Q 2725 3281 2906 2969 
L 2906 3500 
L 3481 3500 
L 3481 -1331 
L 2906 -1331 
L 2906 525 
z
" transform="scale(0.015625)"/>
      <path id="DejaVuSans-78" d="M 3513 3500 
L 2247 1797 
L 3578 0 
L 2900 0 
L 1881 1375 
L 863 0 
L 184 0 
L 1544 1831 
L 300 3500 
L 978 3500 
L 1906 2253 
L 2834 3500 
L 3513 3500 
z
" transform="scale(0.015625)"/>
      <path id="DejaVuSans-3d" d="M 678 2906 
L 4684 2906 
L 4684 2381 
L 678 2381 
L 678 2906 
z
M 678 1631 
L 4684 1631 
L 4684 1100 
L 678 1100 
L 678 1631 
z
" transform="scale(0.015625)"/>
      <path id="DejaVuSans-4d" d="M 628 4666 
L 1569 4666 
L 2759 1491 
L 3956 4666 
L 4897 4666 
L 4897 0 
L 4281 0 
L 4281 4097 
L 3078 897 
L 2444 897 
L 1241 4097 
L 1241 0 
L 628 0 
L 628 4666 
z
" transform="scale(0.015625)"/>
     </defs>
     <use xlink:href="#DejaVuSans-48"/>
     <use xlink:href="#DejaVuSans-65" transform="translate(75.195312 0)"/>
     <use xlink:href="#DejaVuSans-61" transform="translate(136.71875 0)"/>
     <use xlink:href="#DejaVuSans-74" transform="translate(197.998047 0)"/>
     <use xlink:href="#DejaVuSans-20" transform="translate(237.207031 0)"/>
     <use xlink:href="#DejaVuSans-43" transform="translate(268.994141 0)"/>
     <use xlink:href="#DejaVuSans-6f" transform="translate(338.818359 0)"/>
     <use xlink:href="#DejaVuSans-6e" transform="translate(400 0)"/>
     <use xlink:href="#DejaVuSans-64" transform="translate(463.378906 0)"/>
     <use xlink:href="#DejaVuSans-75" transform="translate(526.855469 0)"/>
     <use xlink:href="#DejaVuSans-63" transform="translate(590.234375 0)"/>
     <use xlink:href="#DejaVuSans-74" transform="translate(645.214844 0)"/>
     <use xlink:href="#DejaVuSans-69" transform="translate(684.423828 0)"/>
     <use xlink:href="#DejaVuSans-6f" transform="translate(712.207031 0)"/>
     <use xlink:href="#DejaVuSans-6e" transform="translate(773.388672 0)"/>
     <use xlink:href="#DejaVuSans-20" transform="translate(836.767578 0)"/>
     <use xlink:href="#DejaVuSans-45" transform="translate(868.554688 0)"/>
     <use xlink:href="#DejaVuSans-71" transform="translate(931.738281 0)"/>
     <use xlink:href="#DejaVuSans-75" transform="translate(995.214844 0)"/>
     <use xlink:href="#DejaVuSans-61" transform="translate(1058.59375 0)"/>
     <use xlink:href="#DejaVuSans-74" transform="translate(1119.873047 0)"/>
     <use xlink:href="#DejaVuSans-69" transform="translate(1159.082031 0)"/>
     <use xlink:href="#DejaVuSans-6f" transform="translate(1186.865234 0)"/>
     <use xlink:href="#DejaVuSans-6e" transform="translate(1248.046875 0)"/>
     <use xlink:href="#DejaVuSans-20" transform="translate(1311.425781 0)"/>
     <use xlink:href="#DejaVuSans-53" transform="translate(1343.212891 0)"/>
     <use xlink:href="#DejaVuSans-6f" transform="translate(1406.689453 0)"/>
     <use xlink:href="#DejaVuSans-6c" transform="translate(1467.871094 0)"/>
     <use xlink:href="#DejaVuSans-75" transform="translate(1495.654297 0)"/>
     <use xlink:href="#DejaVuSans-74" transform="translate(1559.033203 0)"/>
     <use xlink:href="#DejaVuSans-69" transform="translate(1598.242188 0)"/>
     <use xlink:href="#DejaVuSans-6f" transform="translate(1626.025391 0)"/>
     <use xlink:href="#DejaVuSans-6e" transform="translate(1687.207031 0)"/>
     <use xlink:href="#DejaVuSans-20" transform="translate(1750.585938 0)"/>
     <use xlink:href="#DejaVuSans-61" transform="translate(1782.373047 0)"/>
     <use xlink:href="#DejaVuSans-74" transform="translate(1843.652344 0)"/>
     <use xlink:href="#DejaVuSans-20" transform="translate(1882.861328 0)"/>
     <use xlink:href="#DejaVuSans-78" transform="translate(1914.648438 0)"/>
     <use xlink:href="#DejaVuSans-3d" transform="translate(1973.828125 0)"/>
     <use xlink:href="#DejaVuSans-30" transform="translate(2057.617188 0)"/>
     <use xlink:href="#DejaVuSans-4d" transform="translate(2121.240234 0)"/>
    </g>
   </g>
   <g id="legend_1">
    <g id="patch_7">
     <path d="M 949.325625 74.5875 
L 1060.8 74.5875 
Q 1063.2 74.5875 1063.2 72.1875 
L 1063.2 38.16 
Q 1063.2 35.76 1060.8 35.76 
L 949.325625 35.76 
Q 946.925625 35.76 946.925625 38.16 
L 946.925625 72.1875 
Q 946.925625 74.5875 949.325625 74.5875 
z
" style="fill: #ffffff; opacity: 0.8; stroke: #cccccc; stroke-linejoin: miter"/>
    </g>
    <g id="line2d_17">
     <path d="M 951.725625 45.478125 
L 963.725625 45.478125 
L 975.725625 45.478125 
" style="fill: none; stroke: #0000ff; stroke-width: 1.5; stroke-linecap: square"/>
    </g>
    <g id="text_17">
     <!-- Observation -->
     <g transform="translate(985.325625 49.678125) scale(0.12 -0.12)">
      <defs>
       <path id="DejaVuSans-4f" d="M 2522 4238 
Q 1834 4238 1429 3725 
Q 1025 3213 1025 2328 
Q 1025 1447 1429 934 
Q 1834 422 2522 422 
Q 3209 422 3611 934 
Q 4013 1447 4013 2328 
Q 4013 3213 3611 3725 
Q 3209 4238 2522 4238 
z
M 2522 4750 
Q 3503 4750 4090 4092 
Q 4678 3434 4678 2328 
Q 4678 1225 4090 567 
Q 3503 -91 2522 -91 
Q 1538 -91 948 565 
Q 359 1222 359 2328 
Q 359 3434 948 4092 
Q 1538 4750 2522 4750 
z
" transform="scale(0.015625)"/>
       <path id="DejaVuSans-62" d="M 3116 1747 
Q 3116 2381 2855 2742 
Q 2594 3103 2138 3103 
Q 1681 3103 1420 2742 
Q 1159 2381 1159 1747 
Q 1159 1113 1420 752 
Q 1681 391 2138 391 
Q 2594 391 2855 752 
Q 3116 1113 3116 1747 
z
M 1159 2969 
Q 1341 3281 1617 3432 
Q 1894 3584 2278 3584 
Q 2916 3584 3314 3078 
Q 3713 2572 3713 1747 
Q 3713 922 3314 415 
Q 2916 -91 2278 -91 
Q 1894 -91 1617 61 
Q 1341 213 1159 525 
L 1159 0 
L 581 0 
L 581 4863 
L 1159 4863 
L 1159 2969 
z
" transform="scale(0.015625)"/>
       <path id="DejaVuSans-76" d="M 191 3500 
L 800 3500 
L 1894 563 
L 2988 3500 
L 3597 3500 
L 2284 0 
L 1503 0 
L 191 3500 
z
" transform="scale(0.015625)"/>
      </defs>
      <use xlink:href="#DejaVuSans-4f"/>
      <use xlink:href="#DejaVuSans-62" transform="translate(78.710938 0)"/>
      <use xlink:href="#DejaVuSans-73" transform="translate(142.1875 0)"/>
      <use xlink:href="#DejaVuSans-65" transform="translate(194.287109 0)"/>
      <use xlink:href="#DejaVuSans-72" transform="translate(255.810547 0)"/>
      <use xlink:href="#DejaVuSans-76" transform="translate(296.923828 0)"/>
      <use xlink:href="#DejaVuSans-61" transform="translate(356.103516 0)"/>
      <use xlink:href="#DejaVuSans-74" transform="translate(417.382812 0)"/>
      <use xlink:href="#DejaVuSans-69" transform="translate(456.591797 0)"/>
      <use xlink:href="#DejaVuSans-6f" transform="translate(484.375 0)"/>
      <use xlink:href="#DejaVuSans-6e" transform="translate(545.556641 0)"/>
     </g>
    </g>
    <g id="line2d_18">
     <path d="M 951.725625 63.091875 
L 963.725625 63.091875 
L 975.725625 63.091875 
" style="fill: none; stroke: #ff0000; stroke-width: 1.5; stroke-linecap: square"/>
    </g>
    <g id="text_18">
     <!-- Predicted -->
     <g transform="translate(985.325625 67.291875) scale(0.12 -0.12)">
      <defs>
       <path id="DejaVuSans-50" d="M 1259 4147 
L 1259 2394 
L 2053 2394 
Q 2494 2394 2734 2622 
Q 2975 2850 2975 3272 
Q 2975 3691 2734 3919 
Q 2494 4147 2053 4147 
L 1259 4147 
z
M 628 4666 
L 2053 4666 
Q 2838 4666 3239 4311 
Q 3641 3956 3641 3272 
Q 3641 2581 3239 2228 
Q 2838 1875 2053 1875 
L 1259 1875 
L 1259 0 
L 628 0 
L 628 4666 
z
" transform="scale(0.015625)"/>
      </defs>
      <use xlink:href="#DejaVuSans-50"/>
      <use xlink:href="#DejaVuSans-72" transform="translate(58.552734 0)"/>
      <use xlink:href="#DejaVuSans-65" transform="translate(97.416016 0)"/>
      <use xlink:href="#DejaVuSans-64" transform="translate(158.939453 0)"/>
      <use xlink:href="#DejaVuSans-69" transform="translate(222.416016 0)"/>
      <use xlink:href="#DejaVuSans-63" transform="translate(250.199219 0)"/>
      <use xlink:href="#DejaVuSans-74" transform="translate(305.179688 0)"/>
      <use xlink:href="#DejaVuSans-65" transform="translate(344.388672 0)"/>
      <use xlink:href="#DejaVuSans-64" transform="translate(405.912109 0)"/>
     </g>
    </g>
   </g>
  </g>
 </g>
 <defs>
  <clipPath id="p8d586d2327">
   <rect x="50.24" y="29.76" width="1018.96" height="140.68"/>
  </clipPath>
 </defs>
</svg>
