<?xml version="1.0" encoding="utf-8" standalone="no"?>
<!DOCTYPE svg PUBLIC "-//W3C//DTD SVG 1.1//EN"
  "http://www.w3.org/Graphics/SVG/1.1/DTD/svg11.dtd">
<svg xmlns:xlink="http://www.w3.org/1999/xlink" width="1080pt" height="216pt" viewBox="0 0 1080 216" xmlns="http://www.w3.org/2000/svg" version="1.1">
 <metadata>
  <rdf:RDF xmlns:dc="http://purl.org/dc/elements/1.1/" xmlns:cc="http://creativecommons.org/ns#" xmlns:rdf="http://www.w3.org/1999/02/22-rdf-syntax-ns#">
   <cc:Work>
    <dc:type rdf:resource="http://purl.org/dc/dcmitype/StillImage"/>
    <dc:date>2026-02-09T10:07:34.338763</dc:date>
    <dc:format>image/svg+xml</dc:format>
    <dc:creator>
     <cc:Agent>
      <dc:title>Matplotlib v3.10.8, https://matplotlib.org/</dc:title>
     </cc:Agent>
    </dc:creator>
   </cc:Work>
  </rdf:RDF>
 </metadata>
 <defs>
  <style type="text/css">*{stroke-linejoin: round; stroke-linecap: butt}</style>
 </defs>
 <g id="figure_1">
  <g id="patch_1">
   <path d="M 0 216 
L 1080 216 
L 1080 0 
L 0 0 
z
" style="fill: #ffffff"/>
  </g>
  <g id="axes_1">
   <g id="patch_2">
    <path d="M 59.78 170.44 
L 1069.2 170.44 
L 1069.2 29.76 
L 59.78 29.76 
z
" style="fill: #ffffff"/>
   </g>
   <g id="matplotlib.axis_1">
    <g id="xtick_1">
     <g id="line2d_1">
      <defs>
       <path id="ma4ce75fd3f" d="M 0 0 
L 0 3.5 
" style="stroke: #000000; stroke-width: 0.8"/>
      </defs>
      <g>
       <use xlink:href="#ma4ce75fd3f" x="59.78" y="170.44" style="stroke: #000000; stroke-width: 0.8"/>
      </g>
     </g>
     <g id="text_1">
      <!-- 0 -->
      <g transform="translate(56.59875 185.038437) scale(0.1 -0.1)">
       <defs>
        <path id="DejaVuSans-30" d="M 2034 4250 
Q 1547 4250 1301 3770 
Q 1056 3291 1056 2328 
Q 1056 1369 1301 889 
Q 1547 409 2034 409 
Q 2525 409 2770 889 
Q 3016 1369 3016 2328 
Q 3016 3291 2770 3770 
Q 2525 4250 2034 4250 
z
M 2034 4750 
Q 2819 4750 3233 4129 
Q 3647 3509 3647 2328 
Q 3647 1150 3233 529 
Q 2819 -91 2034 -91 
Q 1250 -91 836 529 
Q 422 1150 422 2328 
Q 422 3509 836 4129 
Q 1250 4750 2034 4750 
z
" transform="scale(0.015625)"/>
       </defs>
       <use xlink:href="#DejaVuSans-30"/>
      </g>
     </g>
    </g>
    <g id="xtick_2">
     <g id="line2d_2">
      <g>
       <use xlink:href="#ma4ce75fd3f" x="191.562369" y="170.44" style="stroke: #000000; stroke-width: 0.8"/>
      </g>
     </g>
     <g id="text_2">
      <!-- 200 -->
      <g transform="translate(182.018619 185.038437) scale(0.1 -0.1)">
       <defs>
        <path id="DejaVuSans-32" d="M 1228 531 
L 3431 531 
L 3431 0 
L 469 0 
L 469 531 
Q 828 903 1448 1529 
Q 2069 2156 2228 2338 
Q 2531 2678 2651 2914 
Q 2772 3150 2772 3378 
Q 2772 3750 2511 3984 
Q 2250 4219 1831 4219 
Q 1534 4219 1204 4116 
Q 875 4013 500 3803 
L 500 4441 
Q 881 4594 1212 4672 
Q 1544 4750 1819 4750 
Q 2544 4750 2975 4387 
Q 3406 4025 3406 3419 
Q 3406 3131 3298 2873 
Q 3191 2616 2906 2266 
Q 2828 2175 2409 1742 
Q 1991 1309 1228 531 
z
" transform="scale(0.015625)"/>
       </defs>
       <use xlink:href="#DejaVuSans-32"/>
       <use xlink:href="#DejaVuSans-30" transform="translate(63.623047 0)"/>
       <use xlink:href="#DejaVuSans-30" transform="translate(127.246094 0)"/>
      </g>
     </g>
    </g>
    <g id="xtick_3">
     <g id="line2d_3">
      <g>
       <use xlink:href="#ma4ce75fd3f" x="323.344738" y="170.44" style="stroke: #000000; stroke-width: 0.8"/>
      </g>
     </g>
     <g id="text_3">
      <!-- 400 -->
      <g transform="translate(313.800988 185.038437) scale(0.1 -0.1)">
       <defs>
        <path id="DejaVuSans-34" d="M 2419 4116 
L 825 1625 
L 2419 1625 
L 2419 4116 
z
M 2253 4666 
L 3047 4666 
L 3047 1625 
L 3713 1625 
L 3713 1100 
L 3047 1100 
L 3047 0 
L 2419 0 
L 2419 1100 
L 313 1100 
L 313 1709 
L 2253 4666 
z
" transform="scale(0.015625)"/>
       </defs>
       <use xlink:href="#DejaVuSans-34"/>
       <use xlink:href="#DejaVuSans-30" transform="translate(63.623047 0)"/>
       <use xlink:href="#DejaVuSans-30" transform="translate(127.246094 0)"/>
      </g>
     </g>
    </g>
    <g id="xtick_4">
     <g id="line2d_4">
      <g>
       <use xlink:href="#ma4ce75fd3f" x="455.127107" y="170.44" style="stroke: #000000; stroke-width: 0.8"/>
      </g>
     </g>
     <g id="text_4">
      <!-- 600 -->
      <g transform="translate(445.583357 185.038437) scale(0.1 -0.1)">
       <defs>
        <path id="DejaVuSans-36" d="M 2113 2584 
Q 1688 2584 1439 2293 
Q 1191 2003 1191 1497 
Q 1191 994 1439 701 
Q 1688 409 2113 409 
Q 2538 409 2786 701 
Q 3034 994 3034 1497 
Q 3034 2003 2786 2293 
Q 2538 2584 2113 2584 
z
M 3366 4563 
L 3366 3988 
Q 3128 4100 2886 4159 
Q 2644 4219 2406 4219 
Q 1781 4219 1451 3797 
Q 1122 3375 1075 2522 
Q 1259 2794 1537 2939 
Q 1816 3084 2150 3084 
Q 2853 3084 3261 2657 
Q 3669 2231 3669 1497 
Q 3669 778 3244 343 
Q 2819 -91 2113 -91 
Q 1303 -91 875 529 
Q 447 1150 447 2328 
Q 447 3434 972 4092 
Q 1497 4750 2381 4750 
Q 2619 4750 2861 4703 
Q 3103 4656 3366 4563 
z
" transform="scale(0.015625)"/>
       </defs>
       <use xlink:href="#DejaVuSans-36"/>
       <use xlink:href="#DejaVuSans-30" transform="translate(63.623047 0)"/>
       <use xlink:href="#DejaVuSans-30" transform="translate(127.246094 0)"/>
      </g>
     </g>
    </g>
    <g id="xtick_5">
     <g id="line2d_5">
      <g>
       <use xlink:href="#ma4ce75fd3f" x="586.909476" y="170.44" style="stroke: #000000; stroke-width: 0.8"/>
      </g>
     </g>
     <g id="text_5">
      <!-- 800 -->
      <g transform="translate(577.365726 185.038437) scale(0.1 -0.1)">
       <defs>
        <path id="DejaVuSans-38" d="M 2034 2216 
Q 1584 2216 1326 1975 
Q 1069 1734 1069 1313 
Q 1069 891 1326 650 
Q 1584 409 2034 409 
Q 2484 409 2743 651 
Q 3003 894 3003 1313 
Q 3003 1734 2745 1975 
Q 2488 2216 2034 2216 
z
M 1403 2484 
Q 997 2584 770 2862 
Q 544 3141 544 3541 
Q 544 4100 942 4425 
Q 1341 4750 2034 4750 
Q 2731 4750 3128 4425 
Q 3525 4100 3525 3541 
Q 3525 3141 3298 2862 
Q 3072 2584 2669 2484 
Q 3125 2378 3379 2068 
Q 3634 1759 3634 1313 
Q 3634 634 3220 271 
Q 2806 -91 2034 -91 
Q 1263 -91 848 271 
Q 434 634 434 1313 
Q 434 1759 690 2068 
Q 947 2378 1403 2484 
z
M 1172 3481 
Q 1172 3119 1398 2916 
Q 1625 2713 2034 2713 
Q 2441 2713 2670 2916 
Q 2900 3119 2900 3481 
Q 2900 3844 2670 4047 
Q 2441 4250 2034 4250 
Q 1625 4250 1398 4047 
Q 1172 3844 1172 3481 
z
" transform="scale(0.015625)"/>
       </defs>
       <use xlink:href="#DejaVuSans-38"/>
       <use xlink:href="#DejaVuSans-30" transform="translate(63.623047 0)"/>
       <use xlink:href="#DejaVuSans-30" transform="translate(127.246094 0)"/>
      </g>
     </g>
    </g>
    <g id="xtick_6">
     <g id="line2d_6">
      <g>
       <use xlink:href="#ma4ce75fd3f" x="718.691844" y="170.44" style="stroke: #000000; stroke-width: 0.8"/>
      </g>
     </g>
     <g id="text_6">
      <!-- 1000 -->
      <g transform="translate(705.966844 185.038437) scale(0.1 -0.1)">
       <defs>
        <path id="DejaVuSans-31" d="M 794 531 
L 1825 531 
L 1825 4091 
L 703 3866 
L 703 4441 
L 1819 4666 
L 2450 4666 
L 2450 531 
L 3481 531 
L 3481 0 
L 794 0 
L 794 531 
z
" transform="scale(0.015625)"/>
       </defs>
       <use xlink:href="#DejaVuSans-31"/>
       <use xlink:href="#DejaVuSans-30" transform="translate(63.623047 0)"/>
       <use xlink:href="#DejaVuSans-30" transform="translate(127.246094 0)"/>
       <use xlink:href="#DejaVuSans-30" transform="translate(190.869141 0)"/>
      </g>
     </g>
    </g>
    <g id="xtick_7">
     <g id="line2d_7">
      <g>
       <use xlink:href="#ma4ce75fd3f" x="850.474213" y="170.44" style="stroke: #000000; stroke-width: 0.8"/>
      </g>
     </g>
     <g id="text_7">
      <!-- 1200 -->
      <g transform="translate(837.749213 185.038437) scale(0.1 -0.1)">
       <use xlink:href="#DejaVuSans-31"/>
       <use xlink:href="#DejaVuSans-32" transform="translate(63.623047 0)"/>
       <use xlink:href="#DejaVuSans-30" transform="translate(127.246094 0)"/>
       <use xlink:href="#DejaVuSans-30" transform="translate(190.869141 0)"/>
      </g>
     </g>
    </g>
    <g id="xtick_8">
     <g id="line2d_8">
      <g>
       <use xlink:href="#ma4ce75fd3f" x="982.256582" y="170.44" style="stroke: #000000; stroke-width: 0.8"/>
      </g>
     </g>
     <g id="text_8">
      <!-- 1400 -->
      <g transform="translate(969.531582 185.038437) scale(0.1 -0.1)">
       <use xlink:href="#DejaVuSans-31"/>
       <use xlink:href="#DejaVuSans-34" transform="translate(63.623047 0)"/>
       <use xlink:href="#DejaVuSans-30" transform="translate(127.246094 0)"/>
       <use xlink:href="#DejaVuSans-30" transform="translate(190.869141 0)"/>
      </g>
     </g>
    </g>
    <g id="text_9">
     <!-- Simulation Days -->
     <g transform="translate(507.51 201.755937) scale(0.14 -0.14)">
      <defs>
       <path id="DejaVuSans-53" d="M 3425 4513 
L 3425 3897 
Q 3066 4069 2747 4153 
Q 2428 4238 2131 4238 
Q 1616 4238 1336 4038 
Q 1056 3838 1056 3469 
Q 1056 3159 1242 3001 
Q 1428 2844 1947 2747 
L 2328 2669 
Q 3034 2534 3370 2195 
Q 3706 1856 3706 1288 
Q 3706 609 3251 259 
Q 2797 -91 1919 -91 
Q 1588 -91 1214 -16 
Q 841 59 441 206 
L 441 856 
Q 825 641 1194 531 
Q 1563 422 1919 422 
Q 2459 422 2753 634 
Q 3047 847 3047 1241 
Q 3047 1584 2836 1778 
Q 2625 1972 2144 2069 
L 1759 2144 
Q 1053 2284 737 2584 
Q 422 2884 422 3419 
Q 422 4038 858 4394 
Q 1294 4750 2059 4750 
Q 2388 4750 2728 4690 
Q 3069 4631 3425 4513 
z
" transform="scale(0.015625)"/>
       <path id="DejaVuSans-69" d="M 603 3500 
L 1178 3500 
L 1178 0 
L 603 0 
L 603 3500 
z
M 603 4863 
L 1178 4863 
L 1178 4134 
L 603 4134 
L 603 4863 
z
" transform="scale(0.015625)"/>
       <path id="DejaVuSans-6d" d="M 3328 2828 
Q 3544 3216 3844 3400 
Q 4144 3584 4550 3584 
Q 5097 3584 5394 3201 
Q 5691 2819 5691 2113 
L 5691 0 
L 5113 0 
L 5113 2094 
Q 5113 2597 4934 2840 
Q 4756 3084 4391 3084 
Q 3944 3084 3684 2787 
Q 3425 2491 3425 1978 
L 3425 0 
L 2847 0 
L 2847 2094 
Q 2847 2600 2669 2842 
Q 2491 3084 2119 3084 
Q 1678 3084 1418 2786 
Q 1159 2488 1159 1978 
L 1159 0 
L 581 0 
L 581 3500 
L 1159 3500 
L 1159 2956 
Q 1356 3278 1631 3431 
Q 1906 3584 2284 3584 
Q 2666 3584 2933 3390 
Q 3200 3197 3328 2828 
z
" transform="scale(0.015625)"/>
       <path id="DejaVuSans-75" d="M 544 1381 
L 544 3500 
L 1119 3500 
L 1119 1403 
Q 1119 906 1312 657 
Q 1506 409 1894 409 
Q 2359 409 2629 706 
Q 2900 1003 2900 1516 
L 2900 3500 
L 3475 3500 
L 3475 0 
L 2900 0 
L 2900 538 
Q 2691 219 2414 64 
Q 2138 -91 1772 -91 
Q 1169 -91 856 284 
Q 544 659 544 1381 
z
M 1991 3584 
L 1991 3584 
z
" transform="scale(0.015625)"/>
       <path id="DejaVuSans-6c" d="M 603 4863 
L 1178 4863 
L 1178 0 
L 603 0 
L 603 4863 
z
" transform="scale(0.015625)"/>
       <path id="DejaVuSans-61" d="M 2194 1759 
Q 1497 1759 1228 1600 
Q 959 1441 959 1056 
Q 959 750 1161 570 
Q 1363 391 1709 391 
Q 2188 391 2477 730 
Q 2766 1069 2766 1631 
L 2766 1759 
L 2194 1759 
z
M 3341 1997 
L 3341 0 
L 2766 0 
L 2766 531 
Q 2569 213 2275 61 
Q 1981 -91 1556 -91 
Q 1019 -91 701 211 
Q 384 513 384 1019 
Q 384 1609 779 1909 
Q 1175 2209 1959 2209 
L 2766 2209 
L 2766 2266 
Q 2766 2663 2505 2880 
Q 2244 3097 1772 3097 
Q 1472 3097 1187 3025 
Q 903 2953 641 2809 
L 641 3341 
Q 956 3463 1253 3523 
Q 1550 3584 1831 3584 
Q 2591 3584 2966 3190 
Q 3341 2797 3341 1997 
z
" transform="scale(0.015625)"/>
       <path id="DejaVuSans-74" d="M 1172 4494 
L 1172 3500 
L 2356 3500 
L 2356 3053 
L 1172 3053 
L 1172 1153 
Q 1172 725 1289 603 
Q 1406 481 1766 481 
L 2356 481 
L 2356 0 
L 1766 0 
Q 1100 0 847 248 
Q 594 497 594 1153 
L 594 3053 
L 172 3053 
L 172 3500 
L 594 3500 
L 594 4494 
L 1172 4494 
z
" transform="scale(0.015625)"/>
       <path id="DejaVuSans-6f" d="M 1959 3097 
Q 1497 3097 1228 2736 
Q 959 2375 959 1747 
Q 959 1119 1226 758 
Q 1494 397 1959 397 
Q 2419 397 2687 759 
Q 2956 1122 2956 1747 
Q 2956 2369 2687 2733 
Q 2419 3097 1959 3097 
z
M 1959 3584 
Q 2709 3584 3137 3096 
Q 3566 2609 3566 1747 
Q 3566 888 3137 398 
Q 2709 -91 1959 -91 
Q 1206 -91 779 398 
Q 353 888 353 1747 
Q 353 2609 779 3096 
Q 1206 3584 1959 3584 
z
" transform="scale(0.015625)"/>
       <path id="DejaVuSans-6e" d="M 3513 2113 
L 3513 0 
L 2938 0 
L 2938 2094 
Q 2938 2591 2744 2837 
Q 2550 3084 2163 3084 
Q 1697 3084 1428 2787 
Q 1159 2491 1159 1978 
L 1159 0 
L 581 0 
L 581 3500 
L 1159 3500 
L 1159 2956 
Q 1366 3272 1645 3428 
Q 1925 3584 2291 3584 
Q 2894 3584 3203 3211 
Q 3513 2838 3513 2113 
z
" transform="scale(0.015625)"/>
       <path id="DejaVuSans-20" transform="scale(0.015625)"/>
       <path id="DejaVuSans-44" d="M 1259 4147 
L 1259 519 
L 2022 519 
Q 2988 519 3436 956 
Q 3884 1394 3884 2338 
Q 3884 3275 3436 3711 
Q 2988 4147 2022 4147 
L 1259 4147 
z
M 628 4666 
L 1925 4666 
Q 3281 4666 3915 4102 
Q 4550 3538 4550 2338 
Q 4550 1131 3912 565 
Q 3275 0 1925 0 
L 628 0 
L 628 4666 
z
" transform="scale(0.015625)"/>
       <path id="DejaVuSans-79" d="M 2059 -325 
Q 1816 -950 1584 -1140 
Q 1353 -1331 966 -1331 
L 506 -1331 
L 506 -850 
L 844 -850 
Q 1081 -850 1212 -737 
Q 1344 -625 1503 -206 
L 1606 56 
L 191 3500 
L 800 3500 
L 1894 763 
L 2988 3500 
L 3597 3500 
L 2059 -325 
z
" transform="scale(0.015625)"/>
       <path id="DejaVuSans-73" d="M 2834 3397 
L 2834 2853 
Q 2591 2978 2328 3040 
Q 2066 3103 1784 3103 
Q 1356 3103 1142 2972 
Q 928 2841 928 2578 
Q 928 2378 1081 2264 
Q 1234 2150 1697 2047 
L 1894 2003 
Q 2506 1872 2764 1633 
Q 3022 1394 3022 966 
Q 3022 478 2636 193 
Q 2250 -91 1575 -91 
Q 1294 -91 989 -36 
Q 684 19 347 128 
L 347 722 
Q 666 556 975 473 
Q 1284 391 1588 391 
Q 1994 391 2212 530 
Q 2431 669 2431 922 
Q 2431 1156 2273 1281 
Q 2116 1406 1581 1522 
L 1381 1569 
Q 847 1681 609 1914 
Q 372 2147 372 2553 
Q 372 3047 722 3315 
Q 1072 3584 1716 3584 
Q 2034 3584 2315 3537 
Q 2597 3491 2834 3397 
z
" transform="scale(0.015625)"/>
      </defs>
      <use xlink:href="#DejaVuSans-53"/>
      <use xlink:href="#DejaVuSans-69" transform="translate(63.476562 0)"/>
      <use xlink:href="#DejaVuSans-6d" transform="translate(91.259766 0)"/>
      <use xlink:href="#DejaVuSans-75" transform="translate(188.671875 0)"/>
      <use xlink:href="#DejaVuSans-6c" transform="translate(252.050781 0)"/>
      <use xlink:href="#DejaVuSans-61" transform="translate(279.833984 0)"/>
      <use xlink:href="#DejaVuSans-74" transform="translate(341.113281 0)"/>
      <use xlink:href="#DejaVuSans-69" transform="translate(380.322266 0)"/>
      <use xlink:href="#DejaVuSans-6f" transform="translate(408.105469 0)"/>
      <use xlink:href="#DejaVuSans-6e" transform="translate(469.287109 0)"/>
      <use xlink:href="#DejaVuSans-20" transform="translate(532.666016 0)"/>
      <use xlink:href="#DejaVuSans-44" transform="translate(564.453125 0)"/>
      <use xlink:href="#DejaVuSans-61" transform="translate(641.455078 0)"/>
      <use xlink:href="#DejaVuSans-79" transform="translate(702.734375 0)"/>
      <use xlink:href="#DejaVuSans-73" transform="translate(761.914062 0)"/>
     </g>
    </g>
   </g>
   <g id="matplotlib.axis_2">
    <g id="ytick_1">
     <g id="line2d_9">
      <defs>
       <path id="m3b1d60114a" d="M 0 0 
L -3.5 0 
" style="stroke: #000000; stroke-width: 0.8"/>
      </defs>
      <g>
       <use xlink:href="#m3b1d60114a" x="59.78" y="153.507192" style="stroke: #000000; stroke-width: 0.8"/>
      </g>
     </g>
     <g id="text_10">
      <!-- −5.0 -->
      <g transform="translate(28.497187 157.306411) scale(0.1 -0.1)">
       <defs>
        <path id="DejaVuSans-2212" d="M 678 2272 
L 4684 2272 
L 4684 1741 
L 678 1741 
L 678 2272 
z
" transform="scale(0.015625)"/>
        <path id="DejaVuSans-35" d="M 691 4666 
L 3169 4666 
L 3169 4134 
L 1269 4134 
L 1269 2991 
Q 1406 3038 1543 3061 
Q 1681 3084 1819 3084 
Q 2600 3084 3056 2656 
Q 3513 2228 3513 1497 
Q 3513 744 3044 326 
Q 2575 -91 1722 -91 
Q 1428 -91 1123 -41 
Q 819 9 494 109 
L 494 744 
Q 775 591 1075 516 
Q 1375 441 1709 441 
Q 2250 441 2565 725 
Q 2881 1009 2881 1497 
Q 2881 1984 2565 2268 
Q 2250 2553 1709 2553 
Q 1456 2553 1204 2497 
Q 953 2441 691 2322 
L 691 4666 
z
" transform="scale(0.015625)"/>
        <path id="DejaVuSans-2e" d="M 684 794 
L 1344 794 
L 1344 0 
L 684 0 
L 684 794 
z
" transform="scale(0.015625)"/>
       </defs>
       <use xlink:href="#DejaVuSans-2212"/>
       <use xlink:href="#DejaVuSans-35" transform="translate(83.789062 0)"/>
       <use xlink:href="#DejaVuSans-2e" transform="translate(147.412109 0)"/>
       <use xlink:href="#DejaVuSans-30" transform="translate(179.199219 0)"/>
      </g>
     </g>
    </g>
    <g id="ytick_2">
     <g id="line2d_10">
      <g>
       <use xlink:href="#m3b1d60114a" x="59.78" y="123.620444" style="stroke: #000000; stroke-width: 0.8"/>
      </g>
     </g>
     <g id="text_11">
      <!-- −2.5 -->
      <g transform="translate(28.497187 127.419663) scale(0.1 -0.1)">
       <use xlink:href="#DejaVuSans-2212"/>
       <use xlink:href="#DejaVuSans-32" transform="translate(83.789062 0)"/>
       <use xlink:href="#DejaVuSans-2e" transform="translate(147.412109 0)"/>
       <use xlink:href="#DejaVuSans-35" transform="translate(179.199219 0)"/>
      </g>
     </g>
    </g>
    <g id="ytick_3">
     <g id="line2d_11">
      <g>
       <use xlink:href="#m3b1d60114a" x="59.78" y="93.733696" style="stroke: #000000; stroke-width: 0.8"/>
      </g>
     </g>
     <g id="text_12">
      <!-- 0.0 -->
      <g transform="translate(36.876875 97.532915) scale(0.1 -0.1)">
       <use xlink:href="#DejaVuSans-30"/>
       <use xlink:href="#DejaVuSans-2e" transform="translate(63.623047 0)"/>
       <use xlink:href="#DejaVuSans-30" transform="translate(95.410156 0)"/>
      </g>
     </g>
    </g>
    <g id="ytick_4">
     <g id="line2d_12">
      <g>
       <use xlink:href="#m3b1d60114a" x="59.78" y="63.846947" style="stroke: #000000; stroke-width: 0.8"/>
      </g>
     </g>
     <g id="text_13">
      <!-- 2.5 -->
      <g transform="translate(36.876875 67.646166) scale(0.1 -0.1)">
       <use xlink:href="#DejaVuSans-32"/>
       <use xlink:href="#DejaVuSans-2e" transform="translate(63.623047 0)"/>
       <use xlink:href="#DejaVuSans-35" transform="translate(95.410156 0)"/>
      </g>
     </g>
    </g>
    <g id="ytick_5">
     <g id="line2d_13">
      <g>
       <use xlink:href="#m3b1d60114a" x="59.78" y="33.960199" style="stroke: #000000; stroke-width: 0.8"/>
      </g>
     </g>
     <g id="text_14">
      <!-- 5.0 -->
      <g transform="translate(36.876875 37.759418) scale(0.1 -0.1)">
       <use xlink:href="#DejaVuSans-35"/>
       <use xlink:href="#DejaVuSans-2e" transform="translate(63.623047 0)"/>
       <use xlink:href="#DejaVuSans-30" transform="translate(95.410156 0)"/>
      </g>
     </g>
    </g>
    <g id="text_15">
     <!-- Temperature (℃) -->
     <g transform="translate(21.585625 159.986094) rotate(-90) scale(0.14 -0.14)">
      <defs>
       <path id="DejaVuSans-54" d="M -19 4666 
L 3928 4666 
L 3928 4134 
L 2272 4134 
L 2272 0 
L 1638 0 
L 1638 4134 
L -19 4134 
L -19 4666 
z
" transform="scale(0.015625)"/>
       <path id="DejaVuSans-65" d="M 3597 1894 
L 3597 1613 
L 953 1613 
Q 991 1019 1311 708 
Q 1631 397 2203 397 
Q 2534 397 2845 478 
Q 3156 559 3463 722 
L 3463 178 
Q 3153 47 2828 -22 
Q 2503 -91 2169 -91 
Q 1331 -91 842 396 
Q 353 884 353 1716 
Q 353 2575 817 3079 
Q 1281 3584 2069 3584 
Q 2775 3584 3186 3129 
Q 3597 2675 3597 1894 
z
M 3022 2063 
Q 3016 2534 2758 2815 
Q 2500 3097 2075 3097 
Q 1594 3097 1305 2825 
Q 1016 2553 972 2059 
L 3022 2063 
z
" transform="scale(0.015625)"/>
       <path id="DejaVuSans-70" d="M 1159 525 
L 1159 -1331 
L 581 -1331 
L 581 3500 
L 1159 3500 
L 1159 2969 
Q 1341 3281 1617 3432 
Q 1894 3584 2278 3584 
Q 2916 3584 3314 3078 
Q 3713 2572 3713 1747 
Q 3713 922 3314 415 
Q 2916 -91 2278 -91 
Q 1894 -91 1617 61 
Q 1341 213 1159 525 
z
M 3116 1747 
Q 3116 2381 2855 2742 
Q 2594 3103 2138 3103 
Q 1681 3103 1420 2742 
Q 1159 2381 1159 1747 
Q 1159 1113 1420 752 
Q 1681 391 2138 391 
Q 2594 391 2855 752 
Q 3116 1113 3116 1747 
z
" transform="scale(0.015625)"/>
       <path id="DejaVuSans-72" d="M 2631 2963 
Q 2534 3019 2420 3045 
Q 2306 3072 2169 3072 
Q 1681 3072 1420 2755 
Q 1159 2438 1159 1844 
L 1159 0 
L 581 0 
L 581 3500 
L 1159 3500 
L 1159 2956 
Q 1341 3275 1631 3429 
Q 1922 3584 2338 3584 
Q 2397 3584 2469 3576 
Q 2541 3569 2628 3553 
L 2631 2963 
z
" transform="scale(0.015625)"/>
       <path id="DejaVuSans-28" d="M 1984 4856 
Q 1566 4138 1362 3434 
Q 1159 2731 1159 2009 
Q 1159 1288 1364 580 
Q 1569 -128 1984 -844 
L 1484 -844 
Q 1016 -109 783 600 
Q 550 1309 550 2009 
Q 550 2706 781 3412 
Q 1013 4119 1484 4856 
L 1984 4856 
z
" transform="scale(0.015625)"/>
       <path id="DejaVuSans-2103" d="M 1600 4347 
Q 1350 4347 1178 4173 
Q 1006 4000 1006 3750 
Q 1006 3503 1178 3333 
Q 1350 3163 1600 3163 
Q 1850 3163 2022 3333 
Q 2194 3503 2194 3750 
Q 2194 3997 2020 4172 
Q 1847 4347 1600 4347 
z
M 1600 4750 
Q 1800 4750 1984 4673 
Q 2169 4597 2303 4453 
Q 2447 4313 2519 4134 
Q 2591 3956 2591 3750 
Q 2591 3338 2302 3052 
Q 2013 2766 1594 2766 
Q 1172 2766 890 3047 
Q 609 3328 609 3750 
Q 609 4169 896 4459 
Q 1184 4750 1600 4750 
z
M 6741 4306 
L 6741 3641 
Q 6422 3938 6061 4084 
Q 5700 4231 5294 4231 
Q 4494 4231 4069 3742 
Q 3644 3253 3644 2328 
Q 3644 1406 4069 917 
Q 4494 428 5294 428 
Q 5700 428 6061 575 
Q 6422 722 6741 1019 
L 6741 359 
Q 6409 134 6039 21 
Q 5669 -91 5256 -91 
Q 4197 -91 3587 557 
Q 2978 1206 2978 2328 
Q 2978 3453 3587 4101 
Q 4197 4750 5256 4750 
Q 5675 4750 6045 4639 
Q 6416 4528 6741 4306 
z
" transform="scale(0.015625)"/>
       <path id="DejaVuSans-29" d="M 513 4856 
L 1013 4856 
Q 1481 4119 1714 3412 
Q 1947 2706 1947 2009 
Q 1947 1309 1714 600 
Q 1481 -109 1013 -844 
L 513 -844 
Q 928 -128 1133 580 
Q 1338 1288 1338 2009 
Q 1338 2731 1133 3434 
Q 928 4138 513 4856 
z
" transform="scale(0.015625)"/>
      </defs>
      <use xlink:href="#DejaVuSans-54"/>
      <use xlink:href="#DejaVuSans-65" transform="translate(44.083984 0)"/>
      <use xlink:href="#DejaVuSans-6d" transform="translate(105.607422 0)"/>
      <use xlink:href="#DejaVuSans-70" transform="translate(203.019531 0)"/>
      <use xlink:href="#DejaVuSans-65" transform="translate(266.496094 0)"/>
      <use xlink:href="#DejaVuSans-72" transform="translate(328.019531 0)"/>
      <use xlink:href="#DejaVuSans-61" transform="translate(369.132812 0)"/>
      <use xlink:href="#DejaVuSans-74" transform="translate(430.412109 0)"/>
      <use xlink:href="#DejaVuSans-75" transform="translate(469.621094 0)"/>
      <use xlink:href="#DejaVuSans-72" transform="translate(533 0)"/>
      <use xlink:href="#DejaVuSans-65" transform="translate(571.863281 0)"/>
      <use xlink:href="#DejaVuSans-20" transform="translate(633.386719 0)"/>
      <use xlink:href="#DejaVuSans-28" transform="translate(665.173828 0)"/>
      <use xlink:href="#DejaVuSans-2103" transform="translate(704.1875 0)"/>
      <use xlink:href="#DejaVuSans-29" transform="translate(816.492188 0)"/>
     </g>
    </g>
   </g>
   <g id="line2d_14">
    <path d="M 59.78 143.063743 
L 61.097824 143.212891 
L 62.415647 143.561331 
L 63.733471 144.110352 
L 65.051295 144.861382 
L 66.369118 145.814203 
L 68.345854 147.604469 
L 70.32259 149.749287 
L 74.934972 154.981702 
L 76.252796 156.185426 
L 77.57062 157.143252 
L 78.888443 157.823782 
L 80.206267 158.214917 
L 81.524091 158.319136 
L 82.841915 158.148283 
L 84.159738 157.721862 
L 85.477562 157.066886 
L 87.454297 155.737224 
L 90.089945 153.565323 
L 94.043416 150.254075 
L 96.020151 148.834121 
L 97.996887 147.635813 
L 99.973623 146.648069 
L 102.60927 145.589502 
L 106.562741 144.318928 
L 113.810771 142.310071 
L 119.082066 140.769398 
L 126.989008 138.355568 
L 130.942479 137.405142 
L 134.89595 136.663802 
L 146.097452 134.816821 
L 148.733099 134.078315 
L 150.709835 133.311526 
L 152.027658 132.623587 
L 153.345482 131.719468 
L 154.663306 130.519303 
L 155.981129 128.940985 
L 157.298953 126.918089 
L 158.616777 124.421254 
L 159.9346 121.476971 
L 161.911336 116.438702 
L 165.205895 107.812099 
L 166.523719 104.821284 
L 167.841542 102.293905 
L 169.159366 100.278906 
L 170.47719 98.763179 
L 171.795014 97.687113 
L 173.112837 96.965454 
L 174.430661 96.507059 
L 176.407396 96.136455 
L 179.043044 95.927727 
L 184.314339 95.55391 
L 186.949986 95.081292 
L 188.926721 94.492539 
L 190.903457 93.668819 
L 192.880193 92.613312 
L 195.51584 90.907739 
L 198.810399 88.469993 
L 202.104958 86.029119 
L 204.081694 84.853742 
L 205.399518 84.330495 
L 206.717341 84.093959 
L 208.035165 84.189555 
L 209.352989 84.6299 
L 210.670812 85.38885 
L 211.988636 86.401694 
L 217.259931 90.945965 
L 218.577754 91.689193 
L 219.895578 92.13362 
L 221.213402 92.265667 
L 222.531226 92.112757 
L 223.849049 91.742461 
L 227.80252 90.405991 
L 229.120344 90.251502 
L 230.438168 90.356264 
L 231.755991 90.717665 
L 233.073815 91.289436 
L 235.709462 92.76887 
L 243.616405 97.535364 
L 244.934228 98.690124 
L 246.252052 100.096784 
L 247.569876 101.793522 
L 248.887699 103.796531 
L 250.864435 107.333575 
L 256.13573 117.652189 
L 257.453553 119.648751 
L 258.771377 121.156196 
L 260.089201 122.136598 
L 261.407024 122.621899 
L 262.724848 122.704442 
L 264.042672 122.51715 
L 267.337231 121.852956 
L 268.655055 121.868165 
L 269.972878 122.197995 
L 271.290702 122.894806 
L 272.608526 123.964855 
L 273.926349 125.366292 
L 275.903085 127.892854 
L 279.197644 132.233728 
L 280.515468 133.702073 
L 281.833292 134.929421 
L 283.151115 135.913735 
L 285.127851 137.017616 
L 291.716969 140.083821 
L 294.352617 141.817354 
L 296.988264 143.551468 
L 298.306088 144.241466 
L 299.623911 144.727873 
L 300.941735 144.973267 
L 302.259559 144.969816 
L 303.577382 144.739146 
L 305.554118 144.06858 
L 312.802148 141.098301 
L 314.778884 140.711025 
L 316.096707 140.634868 
L 317.414531 140.733141 
L 318.732355 141.028951 
L 320.050179 141.537567 
L 321.368002 142.2616 
L 322.685826 143.188198 
L 324.662561 144.894402 
L 327.298209 147.53349 
L 330.592768 150.83495 
L 332.569504 152.522069 
L 334.546239 153.878484 
L 336.522975 154.947599 
L 341.135358 157.236097 
L 344.429917 159.273732 
L 346.406652 160.376116 
L 347.724476 160.844332 
L 349.0423 160.963934 
L 349.701212 160.862698 
L 350.360123 160.642611 
L 351.677947 159.830279 
L 352.995771 158.532343 
L 354.313594 156.813011 
L 356.29033 153.705264 
L 359.584889 148.356076 
L 360.902713 146.522567 
L 362.220537 144.95622 
L 363.53836 143.65005 
L 365.515096 142.077189 
L 368.150743 140.385833 
L 374.739862 136.345899 
L 376.057685 135.299732 
L 377.375509 134.005232 
L 378.693333 132.353753 
L 380.011156 130.247483 
L 381.32898 127.627158 
L 382.646804 124.49814 
L 384.623539 119.056073 
L 387.918099 109.549008 
L 389.235922 106.21424 
L 390.553746 103.38672 
L 391.87157 101.129726 
L 393.189393 99.434095 
L 394.507217 98.235708 
L 395.825041 97.439759 
L 397.142864 96.943871 
L 398.460688 96.655011 
L 400.437424 96.450563 
L 407.685454 96.005644 
L 409.662189 95.570782 
L 411.638925 94.850366 
L 413.61566 93.830959 
L 420.204779 89.980787 
L 424.817162 87.880536 
L 426.134985 86.917661 
L 427.452809 85.643288 
L 428.770633 84.06041 
L 430.747368 81.28707 
L 433.383016 77.590444 
L 434.700839 76.059084 
L 436.018663 74.852336 
L 437.336487 73.98508 
L 438.654311 73.427112 
L 439.972134 73.125104 
L 441.289958 73.023107 
L 443.266693 73.148836 
L 445.243429 73.519441 
L 447.879076 74.253833 
L 452.491459 75.595395 
L 457.762754 76.916483 
L 459.080578 77.473944 
L 460.398401 78.251751 
L 461.716225 79.300264 
L 463.034049 80.646104 
L 464.351872 82.288751 
L 466.328608 85.243615 
L 468.964255 89.785825 
L 471.599903 94.368793 
L 472.917726 96.404466 
L 474.23555 98.121602 
L 475.553374 99.43057 
L 476.871197 100.2759 
L 478.189021 100.646837 
L 479.506845 100.579826 
L 480.824669 100.152923 
L 482.142492 99.472193 
L 487.413787 96.355902 
L 488.731611 95.865245 
L 490.049434 95.573084 
L 491.367258 95.50052 
L 492.685082 95.668576 
L 494.002905 96.101887 
L 495.320729 96.824896 
L 496.638553 97.85444 
L 497.956377 99.190731 
L 499.2742 100.810826 
L 501.250936 103.670783 
L 503.886583 107.986214 
L 507.181142 113.81983 
L 509.81679 118.955085 
L 511.793525 123.227133 
L 514.429173 129.496607 
L 522.336115 149.008757 
L 524.31285 152.95996 
L 525.630674 155.155982 
L 526.948498 156.934448 
L 528.266321 158.253768 
L 529.584145 159.095358 
L 530.901969 159.470855 
L 532.219792 159.426945 
L 533.537616 159.042436 
L 534.85544 158.419183 
L 540.126735 155.592087 
L 541.444558 155.164584 
L 542.762382 154.914156 
L 544.080206 154.841004 
L 545.398029 154.933144 
L 547.374765 155.32933 
L 550.010412 156.159273 
L 555.281707 157.88357 
L 558.576266 158.920995 
L 560.553002 159.7311 
L 563.188649 161.120163 
L 566.483208 162.958326 
L 567.801032 163.518417 
L 569.118856 163.889504 
L 570.436679 164.045455 
L 571.754503 163.994426 
L 573.731239 163.625258 
L 578.343622 162.540005 
L 580.979269 162.294333 
L 584.273828 162.075014 
L 586.250564 161.670491 
L 587.568387 161.201803 
L 588.886211 160.556705 
L 590.862947 159.276873 
L 592.839682 157.702601 
L 600.087712 151.524882 
L 602.72336 149.722668 
L 605.359007 148.184953 
L 609.312478 146.183842 
L 612.607037 144.728211 
L 615.901597 143.515607 
L 620.51398 142.131052 
L 623.149627 141.263136 
L 625.126362 140.375908 
L 626.444186 139.566058 
L 627.76201 138.490341 
L 629.079834 137.057821 
L 630.397657 135.178935 
L 631.715481 132.783908 
L 633.033305 129.84416 
L 634.351128 126.390857 
L 636.327864 120.483673 
L 640.281335 108.363856 
L 641.599159 104.955408 
L 642.916982 102.085826 
L 644.234806 99.792369 
L 645.55263 98.051309 
L 646.870453 96.794956 
L 648.188277 95.932336 
L 649.506101 95.367973 
L 650.823924 95.015388 
L 652.80066 94.734628 
L 656.095219 94.570706 
L 663.343249 94.325395 
L 665.978897 94.006517 
L 667.955632 93.560423 
L 669.932368 92.84699 
L 671.250192 92.1776 
L 672.568015 91.321031 
L 673.885839 90.253548 
L 675.203663 88.961431 
L 677.180398 86.620036 
L 679.816046 82.999586 
L 682.451693 79.502292 
L 683.769517 78.079713 
L 685.08734 76.989648 
L 686.405164 76.270418 
L 687.722988 75.917305 
L 689.040811 75.890108 
L 690.358635 76.124917 
L 692.335371 76.804171 
L 696.947754 78.630281 
L 698.265577 78.903613 
L 699.583401 78.953054 
L 700.901225 78.738909 
L 702.219048 78.253008 
L 703.536872 77.532185 
L 707.490343 75.023081 
L 708.808167 74.559621 
L 710.12599 74.496077 
L 711.443814 74.880282 
L 712.761638 75.685038 
L 714.079461 76.820694 
L 716.715109 79.579296 
L 720.009668 82.976264 
L 723.963139 86.927833 
L 726.598787 89.970397 
L 731.211169 95.578669 
L 733.187905 97.579108 
L 735.16464 99.212347 
L 741.094847 103.676564 
L 743.071583 105.620332 
L 750.319613 113.188475 
L 754.273084 116.931688 
L 756.24982 119.147515 
L 758.885467 122.54205 
L 761.521114 125.93148 
L 762.838938 127.377542 
L 764.156762 128.553609 
L 765.474585 129.426879 
L 766.792409 130.004177 
L 768.110233 130.324727 
L 769.428056 130.446908 
L 771.404792 130.399434 
L 776.676087 130.112201 
L 779.311734 130.228887 
L 783.265205 130.674189 
L 787.877588 131.436979 
L 791.172147 131.963042 
L 793.148883 132.093273 
L 795.125618 132.012019 
L 797.761266 131.648491 
L 801.714737 131.09475 
L 805.009296 130.927099 
L 808.303855 130.744349 
L 810.280591 130.459856 
L 812.916238 129.828464 
L 818.846445 128.201426 
L 820.82318 127.982974 
L 822.799916 128.025807 
L 825.435563 128.392325 
L 830.706858 129.257115 
L 833.342505 129.434218 
L 835.319241 129.393309 
L 837.295976 129.118733 
L 838.6138 128.732012 
L 839.931624 128.112581 
L 841.249447 127.198628 
L 842.567271 125.941641 
L 843.885095 124.323326 
L 845.202919 122.369395 
L 847.179654 118.986775 
L 850.474213 113.253968 
L 851.792037 111.324342 
L 853.109861 109.730182 
L 854.427684 108.479854 
L 855.745508 107.527615 
L 857.722244 106.468383 
L 861.016803 104.866355 
L 862.993538 103.611932 
L 864.970274 102.062958 
L 870.241569 97.607785 
L 872.218304 96.343851 
L 874.19504 95.442671 
L 876.171775 94.866247 
L 878.148511 94.53025 
L 880.784158 94.307621 
L 885.396541 94.172722 
L 898.574778 94.092184 
L 903.846073 93.990759 
L 905.822808 93.804602 
L 907.799544 93.375129 
L 909.117367 92.860325 
L 910.435191 92.084298 
L 911.753015 90.98128 
L 913.070838 89.500845 
L 914.388662 87.620253 
L 915.706486 85.3518 
L 917.683221 81.333101 
L 920.318869 75.221862 
L 926.907987 59.519019 
L 928.884723 55.574497 
L 930.202546 53.380217 
L 931.52037 51.603388 
L 932.838194 50.27615 
L 934.156017 49.412389 
L 934.814929 49.157196 
L 935.473841 49.022381 
L 936.132753 49.011324 
L 936.791665 49.12888 
L 937.450577 49.381395 
L 938.109489 49.776515 
L 938.7684 50.322771 
L 939.427312 51.028998 
L 940.745136 52.952678 
L 942.06296 55.589458 
L 943.380783 58.929164 
L 944.698607 62.886654 
L 946.675343 69.60005 
L 949.31099 78.69807 
L 950.628814 82.737908 
L 951.946637 86.187751 
L 953.264461 88.964795 
L 954.582285 91.072483 
L 955.900108 92.582539 
L 957.217932 93.605683 
L 958.535756 94.262322 
L 959.853579 94.659086 
L 961.830315 94.940674 
L 963.80705 94.99152 
L 967.10161 94.799792 
L 971.713993 94.493674 
L 973.690728 94.615406 
L 975.008552 94.903407 
L 976.326376 95.453318 
L 977.644199 96.374279 
L 978.962023 97.791393 
L 980.279847 99.828916 
L 981.59767 102.584592 
L 982.915494 106.102293 
L 984.233318 110.349492 
L 986.210053 117.808827 
L 990.822436 136.222472 
L 992.14026 140.58861 
L 993.458083 144.187405 
L 994.775907 146.917728 
L 995.434819 147.946151 
L 996.093731 148.753743 
L 996.752643 149.349004 
L 997.411555 149.744765 
L 998.070466 149.95734 
L 998.729378 150.006149 
L 999.38829 149.912788 
L 1000.706114 149.391914 
L 1002.023937 148.578852 
L 1005.977409 145.878857 
L 1007.295232 145.21008 
L 1008.613056 144.735948 
L 1009.93088 144.473235 
L 1011.248703 144.422794 
L 1012.566527 144.571043 
L 1014.543263 145.094582 
L 1019.155645 146.669563 
L 1020.473469 146.903918 
L 1021.132381 146.952777 
L 1021.132381 146.952777 
" clip-path="url(#pf81e8f85aa)" style="fill: none; stroke: #0000ff; stroke-width: 1.5; stroke-linecap: square"/>
   </g>
   <g id="line2d_15">
    <path d="M 59.78 142.200212 
L 61.097824 142.388372 
L 62.415647 142.824838 
L 63.733471 143.503259 
L 65.051295 144.413005 
L 66.369118 145.537418 
L 68.345854 147.567409 
L 71.640413 151.475993 
L 74.276061 154.459817 
L 75.593884 155.698404 
L 76.911708 156.689779 
L 78.229532 157.400619 
L 79.547355 157.820178 
L 80.865179 157.957325 
L 82.183003 157.83513 
L 83.500826 157.484723 
L 84.81865 156.940268 
L 86.795386 155.83388 
L 89.431033 153.987335 
L 96.679063 148.587452 
L 99.314711 147.045653 
L 101.950358 145.806729 
L 105.244917 144.564876 
L 112.492948 142.222763 
L 119.740978 139.738982 
L 125.012273 137.990975 
L 128.306832 137.109717 
L 131.601391 136.449466 
L 135.554862 135.888668 
L 143.461804 134.856642 
L 146.097452 134.3153 
L 148.733099 133.533275 
L 150.709835 132.675207 
L 152.027658 131.896986 
L 153.345482 130.886262 
L 154.663306 129.576497 
L 155.981129 127.903975 
L 157.298953 125.822116 
L 158.616777 123.317309 
L 160.593512 118.852239 
L 166.523719 104.264058 
L 167.841542 101.725593 
L 169.159366 99.646777 
L 170.47719 98.030644 
L 171.795014 96.838137 
L 173.112837 96.003006 
L 174.430661 95.447218 
L 176.407396 94.97006 
L 179.043044 94.667118 
L 182.996515 94.242123 
L 185.632162 93.70602 
L 187.608898 93.107553 
L 189.585633 92.324707 
L 192.221281 90.995142 
L 194.856928 89.374969 
L 198.810399 86.597149 
L 202.104958 84.357065 
L 204.081694 83.346875 
L 205.399518 82.938163 
L 206.717341 82.80711 
L 208.035165 82.988909 
L 209.352989 83.487644 
L 210.670812 84.270445 
L 212.647548 85.820311 
L 215.942107 88.55955 
L 217.259931 89.413803 
L 218.577754 90.017771 
L 219.895578 90.337327 
L 221.213402 90.372873 
L 222.531226 90.159066 
L 224.507961 89.519651 
L 227.143608 88.556673 
L 228.461432 88.235705 
L 229.779256 88.110471 
L 231.09708 88.20714 
L 232.414903 88.517513 
L 234.391639 89.302107 
L 237.027286 90.684828 
L 240.980757 93.018801 
L 242.957493 94.38177 
L 244.934228 96.059745 
L 246.252052 97.432092 
L 247.569876 99.048649 
L 249.546611 101.951541 
L 251.523347 105.34258 
L 256.13573 113.537905 
L 257.453553 115.441886 
L 258.771377 116.978967 
L 260.089201 118.111947 
L 261.407024 118.849976 
L 262.724848 119.24594 
L 264.042672 119.387795 
L 268.655055 119.52476 
L 269.972878 119.905022 
L 271.290702 120.573422 
L 272.608526 121.552291 
L 273.926349 122.827219 
L 275.903085 125.182497 
L 281.833292 132.896775 
L 283.810027 134.945612 
L 285.786763 136.616227 
L 287.763498 137.970462 
L 290.399146 139.432808 
L 293.034793 140.645039 
L 295.67044 141.662956 
L 298.306088 142.448945 
L 300.282823 142.837345 
L 302.259559 143.019879 
L 304.236294 142.987495 
L 306.21303 142.759095 
L 308.848677 142.235937 
L 313.46106 141.268714 
L 315.437796 141.098989 
L 317.414531 141.218199 
L 318.732355 141.490601 
L 320.050179 141.926933 
L 322.026914 142.880537 
L 324.00365 144.152614 
L 325.980385 145.676474 
L 328.616033 147.973195 
L 338.49971 156.906641 
L 341.135358 158.921737 
L 343.112093 160.223673 
L 345.088829 161.247063 
L 346.406652 161.704124 
L 347.724476 161.918142 
L 349.0423 161.831415 
L 350.360123 161.392487 
L 351.677947 160.567034 
L 352.995771 159.348353 
L 354.313594 157.764478 
L 356.29033 154.852657 
L 361.561625 146.437552 
L 363.53836 143.92023 
L 364.856184 142.538282 
L 366.832919 140.852216 
L 368.809655 139.490565 
L 374.08095 136.105045 
L 376.057685 134.436539 
L 377.375509 133.048156 
L 378.693333 131.364632 
L 380.011156 129.331087 
L 381.32898 126.915153 
L 382.646804 124.120861 
L 384.623539 119.343152 
L 389.235922 107.663809 
L 390.553746 104.858408 
L 391.87157 102.492285 
L 393.189393 100.601324 
L 394.507217 99.172712 
L 395.825041 98.155693 
L 397.142864 97.476637 
L 398.460688 97.054144 
L 400.437424 96.736063 
L 403.731983 96.575806 
L 407.026542 96.40523 
L 409.003278 96.143861 
L 410.980013 95.675444 
L 412.956749 94.948967 
L 414.933484 93.966277 
L 418.228043 91.977695 
L 425.476074 87.424443 
L 427.452809 85.749668 
L 429.429545 83.688738 
L 434.700839 77.690659 
L 436.018663 76.558454 
L 437.336487 75.708171 
L 438.654311 75.152543 
L 439.972134 74.871304 
L 441.289958 74.81946 
L 443.266693 75.042111 
L 453.150371 76.813487 
L 455.786018 77.237463 
L 457.762754 77.782011 
L 459.080578 78.34387 
L 460.398401 79.123588 
L 461.716225 80.163242 
L 463.034049 81.488807 
L 464.351872 83.103357 
L 466.328608 86.006693 
L 468.964255 90.439384 
L 471.599903 94.815975 
L 472.917726 96.718614 
L 474.23555 98.306347 
L 475.553374 99.513394 
L 476.871197 100.305326 
L 478.189021 100.683023 
L 479.506845 100.682215 
L 480.824669 100.368255 
L 482.142492 99.826975 
L 488.072699 96.977652 
L 489.390523 96.65874 
L 490.708346 96.539449 
L 492.02617 96.637873 
L 493.343994 96.967401 
L 494.661817 97.538997 
L 495.979641 98.36163 
L 497.297465 99.441291 
L 498.615288 100.779619 
L 499.933112 102.373002 
L 501.909848 105.221027 
L 503.886583 108.576738 
L 505.863319 112.383472 
L 508.498966 118.049396 
L 511.793525 125.815512 
L 519.700467 144.87026 
L 522.336115 150.470548 
L 524.31285 154.09378 
L 525.630674 156.131193 
L 526.948498 157.802255 
L 528.266321 159.064305 
L 529.584145 159.895447 
L 530.901969 160.301353 
L 532.219792 160.317582 
L 533.537616 160.006224 
L 534.85544 159.447181 
L 536.832175 158.330333 
L 542.10347 155.189975 
L 545.398029 153.567007 
L 550.669324 151.265943 
L 554.622795 149.752805 
L 557.258443 148.991009 
L 559.235178 148.617157 
L 561.211914 148.430485 
L 563.847561 148.436738 
L 572.413415 148.802268 
L 575.049062 148.534877 
L 577.68471 148.033317 
L 580.979269 147.156794 
L 584.93274 145.860701 
L 590.204035 143.873857 
L 598.110977 140.884013 
L 602.72336 139.403736 
L 613.265949 136.16063 
L 616.560509 134.894456 
L 619.196156 133.68747 
L 621.831803 132.244895 
L 624.467451 130.51125 
L 627.103098 128.453105 
L 629.738745 126.07285 
L 632.374393 123.408296 
L 636.327864 119.02592 
L 662.025426 89.554657 
L 672.568015 78.334169 
L 675.203663 75.87428 
L 677.180398 74.383933 
L 678.498222 73.608009 
L 679.816046 73.016523 
L 681.133869 72.600951 
L 683.110605 72.255391 
L 685.746252 72.134475 
L 691.676459 72.24229 
L 694.971018 72.482328 
L 696.947754 72.824457 
L 698.924489 73.369221 
L 700.901225 74.128546 
L 702.87796 75.10197 
L 704.854696 76.299431 
L 706.831431 77.752631 
L 708.808167 79.507016 
L 710.784902 81.600815 
L 712.761638 84.045168 
L 714.738373 86.815235 
L 717.374021 90.91122 
L 727.91661 108.011819 
L 731.211169 112.61324 
L 734.505729 116.763145 
L 737.800288 120.493223 
L 741.094847 123.81528 
L 744.389406 126.757952 
L 747.683966 129.386706 
L 751.637437 132.220178 
L 754.931996 134.330334 
L 757.567643 135.80946 
L 760.203291 137.030145 
L 762.180026 137.728541 
L 764.156762 138.213207 
L 766.133497 138.480064 
L 768.110233 138.55034 
L 770.74588 138.413489 
L 775.358263 137.86459 
L 785.900853 136.328212 
L 791.172147 135.318592 
L 799.079089 133.517947 
L 826.094475 127.174785 
L 831.36577 125.704612 
L 834.660329 124.568183 
L 837.295976 123.453971 
L 840.590536 121.783148 
L 845.202919 119.116457 
L 851.133125 115.740138 
L 854.427684 114.084783 
L 857.063332 112.951335 
L 859.698979 112.04836 
L 862.334626 111.407262 
L 864.970274 111.002765 
L 870.241569 110.526478 
L 874.19504 110.043683 
L 878.148511 109.298622 
L 888.032188 107.248782 
L 892.644571 106.583821 
L 897.915866 106.067298 
L 905.163896 105.606442 
L 923.613428 104.533674 
L 925.590164 104.117294 
L 926.907987 103.657428 
L 928.225811 102.978626 
L 929.543635 102.00776 
L 930.861458 100.670188 
L 932.179282 98.900113 
L 933.497106 96.6522 
L 934.814929 93.911723 
L 936.132753 90.70041 
L 938.109489 85.134983 
L 940.745136 76.810346 
L 946.016431 59.853635 
L 948.652078 52.160471 
L 950.628814 46.996977 
L 952.605549 42.570966 
L 953.923373 40.156212 
L 955.241197 38.260894 
L 956.55902 36.948971 
L 957.217932 36.525433 
L 957.876844 36.260511 
L 958.535756 36.154545 
L 959.194668 36.20602 
L 959.853579 36.411784 
L 960.512491 36.767309 
L 961.830315 37.90477 
L 963.148139 39.568696 
L 964.465962 41.71082 
L 965.783786 44.292518 
L 967.10161 47.287095 
L 969.078345 52.51214 
L 971.055081 58.545631 
L 973.690728 67.558339 
L 978.303111 83.833239 
L 980.279847 90.003295 
L 982.256582 95.282865 
L 983.574406 98.267068 
L 984.89223 100.844325 
L 986.210053 103.064753 
L 988.186789 105.88112 
L 990.822436 109.100945 
L 994.116995 113.103128 
L 996.093731 115.812305 
L 998.070466 118.861864 
L 1000.047202 122.26829 
L 1002.682849 127.314424 
L 1006.63632 135.560465 
L 1009.271968 140.939909 
L 1011.248703 144.521222 
L 1012.566527 146.572071 
L 1013.884351 148.305685 
L 1015.202174 149.707567 
L 1016.519998 150.785675 
L 1017.837822 151.564373 
L 1019.155645 152.075315 
L 1020.473469 152.347921 
L 1021.132381 152.401414 
L 1021.132381 152.401414 
" clip-path="url(#pf81e8f85aa)" style="fill: none; stroke: #ff0000; stroke-width: 1.5; stroke-linecap: square"/>
   </g>
   <g id="line2d_16">
    <path d="M 540.785646 170.44 
L 540.785646 29.76 
" clip-path="url(#pf81e8f85aa)" style="fill: none; stroke: #1f77b4; stroke-width: 1.5; stroke-linecap: square"/>
   </g>
   <g id="patch_3">
    <path d="M 59.78 170.44 
L 59.78 29.76 
" style="fill: none; stroke: #000000; stroke-width: 0.8; stroke-linejoin: miter; stroke-linecap: square"/>
   </g>
   <g id="patch_4">
    <path d="M 1069.2 170.44 
L 1069.2 29.76 
" style="fill: none; stroke: #000000; stroke-width: 0.8; stroke-linejoin: miter; stroke-linecap: square"/>
   </g>
   <g id="patch_5">
    <path d="M 59.78 170.44 
L 1069.2 170.44 
" style="fill: none; stroke: #000000; stroke-width: 0.8; stroke-linejoin: miter; stroke-linecap: square"/>
   </g>
   <g id="patch_6">
    <path d="M 59.78 29.76 
L 1069.2 29.76 
" style="fill: none; stroke: #000000; stroke-width: 0.8; stroke-linejoin: miter; stroke-linecap: square"/>
   </g>
   <g id="text_16">
    <!-- Heat Conduction Equation Solution at x=1.2M -->
    <g transform="translate(380.255 23.76) scale(0.16 -0.16)">
     <defs>
      <path id="DejaVuSans-48" d="M 628 4666 
L 1259 4666 
L 1259 2753 
L 3553 2753 
L 3553 4666 
L 4184 4666 
L 4184 0 
L 3553 0 
L 3553 2222 
L 1259 2222 
L 1259 0 
L 628 0 
L 628 4666 
z
" transform="scale(0.015625)"/>
      <path id="DejaVuSans-43" d="M 4122 4306 
L 4122 3641 
Q 3803 3938 3442 4084 
Q 3081 4231 2675 4231 
Q 1875 4231 1450 3742 
Q 1025 3253 1025 2328 
Q 1025 1406 1450 917 
Q 1875 428 2675 428 
Q 3081 428 3442 575 
Q 3803 722 4122 1019 
L 4122 359 
Q 3791 134 3420 21 
Q 3050 -91 2638 -91 
Q 1578 -91 968 557 
Q 359 1206 359 2328 
Q 359 3453 968 4101 
Q 1578 4750 2638 4750 
Q 3056 4750 3426 4639 
Q 3797 4528 4122 4306 
z
" transform="scale(0.015625)"/>
      <path id="DejaVuSans-64" d="M 2906 2969 
L 2906 4863 
L 3481 4863 
L 3481 0 
L 2906 0 
L 2906 525 
Q 2725 213 2448 61 
Q 2172 -91 1784 -91 
Q 1150 -91 751 415 
Q 353 922 353 1747 
Q 353 2572 751 3078 
Q 1150 3584 1784 3584 
Q 2172 3584 2448 3432 
Q 2725 3281 2906 2969 
z
M 947 1747 
Q 947 1113 1208 752 
Q 1469 391 1925 391 
Q 2381 391 2643 752 
Q 2906 1113 2906 1747 
Q 2906 2381 2643 2742 
Q 2381 3103 1925 3103 
Q 1469 3103 1208 2742 
Q 947 2381 947 1747 
z
" transform="scale(0.015625)"/>
      <path id="DejaVuSans-63" d="M 3122 3366 
L 3122 2828 
Q 2878 2963 2633 3030 
Q 2388 3097 2138 3097 
Q 1578 3097 1268 2742 
Q 959 2388 959 1747 
Q 959 1106 1268 751 
Q 1578 397 2138 397 
Q 2388 397 2633 464 
Q 2878 531 3122 666 
L 3122 134 
Q 2881 22 2623 -34 
Q 2366 -91 2075 -91 
Q 1284 -91 818 406 
Q 353 903 353 1747 
Q 353 2603 823 3093 
Q 1294 3584 2113 3584 
Q 2378 3584 2631 3529 
Q 2884 3475 3122 3366 
z
" transform="scale(0.015625)"/>
      <path id="DejaVuSans-45" d="M 628 4666 
L 3578 4666 
L 3578 4134 
L 1259 4134 
L 1259 2753 
L 3481 2753 
L 3481 2222 
L 1259 2222 
L 1259 531 
L 3634 531 
L 3634 0 
L 628 0 
L 628 4666 
z
" transform="scale(0.015625)"/>
      <path id="DejaVuSans-71" d="M 947 1747 
Q 947 1113 1208 752 
Q 1469 391 1925 391 
Q 2381 391 2643 752 
Q 2906 1113 2906 1747 
Q 2906 2381 2643 2742 
Q 2381 3103 1925 3103 
Q 1469 3103 1208 2742 
Q 947 2381 947 1747 
z
M 2906 525 
Q 2725 213 2448 61 
Q 2172 -91 1784 -91 
Q 1150 -91 751 415 
Q 353 922 353 1747 
Q 353 2572 751 3078 
Q 1150 3584 1784 3584 
Q 2172 3584 2448 3432 
Q 2725 3281 2906 2969 
L 2906 3500 
L 3481 3500 
L 3481 -1331 
L 2906 -1331 
L 2906 525 
z
" transform="scale(0.015625)"/>
      <path id="DejaVuSans-78" d="M 3513 3500 
L 2247 1797 
L 3578 0 
L 2900 0 
L 1881 1375 
L 863 0 
L 184 0 
L 1544 1831 
L 300 3500 
L 978 3500 
L 1906 2253 
L 2834 3500 
L 3513 3500 
z
" transform="scale(0.015625)"/>
      <path id="DejaVuSans-3d" d="M 678 2906 
L 4684 2906 
L 4684 2381 
L 678 2381 
L 678 2906 
z
M 678 1631 
L 4684 1631 
L 4684 1100 
L 678 1100 
L 678 1631 
z
" transform="scale(0.015625)"/>
      <path id="DejaVuSans-4d" d="M 628 4666 
L 1569 4666 
L 2759 1491 
L 3956 4666 
L 4897 4666 
L 4897 0 
L 4281 0 
L 4281 4097 
L 3078 897 
L 2444 897 
L 1241 4097 
L 1241 0 
L 628 0 
L 628 4666 
z
" transform="scale(0.015625)"/>
     </defs>
     <use xlink:href="#DejaVuSans-48"/>
     <use xlink:href="#DejaVuSans-65" transform="translate(75.195312 0)"/>
     <use xlink:href="#DejaVuSans-61" transform="translate(136.71875 0)"/>
     <use xlink:href="#DejaVuSans-74" transform="translate(197.998047 0)"/>
     <use xlink:href="#DejaVuSans-20" transform="translate(237.207031 0)"/>
     <use xlink:href="#DejaVuSans-43" transform="translate(268.994141 0)"/>
     <use xlink:href="#DejaVuSans-6f" transform="translate(338.818359 0)"/>
     <use xlink:href="#DejaVuSans-6e" transform="translate(400 0)"/>
     <use xlink:href="#DejaVuSans-64" transform="translate(463.378906 0)"/>
     <use xlink:href="#DejaVuSans-75" transform="translate(526.855469 0)"/>
     <use xlink:href="#DejaVuSans-63" transform="translate(590.234375 0)"/>
     <use xlink:href="#DejaVuSans-74" transform="translate(645.214844 0)"/>
     <use xlink:href="#DejaVuSans-69" transform="translate(684.423828 0)"/>
     <use xlink:href="#DejaVuSans-6f" transform="translate(712.207031 0)"/>
     <use xlink:href="#DejaVuSans-6e" transform="translate(773.388672 0)"/>
     <use xlink:href="#DejaVuSans-20" transform="translate(836.767578 0)"/>
     <use xlink:href="#DejaVuSans-45" transform="translate(868.554688 0)"/>
     <use xlink:href="#DejaVuSans-71" transform="translate(931.738281 0)"/>
     <use xlink:href="#DejaVuSans-75" transform="translate(995.214844 0)"/>
     <use xlink:href="#DejaVuSans-61" transform="translate(1058.59375 0)"/>
     <use xlink:href="#DejaVuSans-74" transform="translate(1119.873047 0)"/>
     <use xlink:href="#DejaVuSans-69" transform="translate(1159.082031 0)"/>
     <use xlink:href="#DejaVuSans-6f" transform="translate(1186.865234 0)"/>
     <use xlink:href="#DejaVuSans-6e" transform="translate(1248.046875 0)"/>
     <use xlink:href="#DejaVuSans-20" transform="translate(1311.425781 0)"/>
     <use xlink:href="#DejaVuSans-53" transform="translate(1343.212891 0)"/>
     <use xlink:href="#DejaVuSans-6f" transform="translate(1406.689453 0)"/>
     <use xlink:href="#DejaVuSans-6c" transform="translate(1467.871094 0)"/>
     <use xlink:href="#DejaVuSans-75" transform="translate(1495.654297 0)"/>
     <use xlink:href="#DejaVuSans-74" transform="translate(1559.033203 0)"/>
     <use xlink:href="#DejaVuSans-69" transform="translate(1598.242188 0)"/>
     <use xlink:href="#DejaVuSans-6f" transform="translate(1626.025391 0)"/>
     <use xlink:href="#DejaVuSans-6e" transform="translate(1687.207031 0)"/>
     <use xlink:href="#DejaVuSans-20" transform="translate(1750.585938 0)"/>
     <use xlink:href="#DejaVuSans-61" transform="translate(1782.373047 0)"/>
     <use xlink:href="#DejaVuSans-74" transform="translate(1843.652344 0)"/>
     <use xlink:href="#DejaVuSans-20" transform="translate(1882.861328 0)"/>
     <use xlink:href="#DejaVuSans-78" transform="translate(1914.648438 0)"/>
     <use xlink:href="#DejaVuSans-3d" transform="translate(1973.828125 0)"/>
     <use xlink:href="#DejaVuSans-31" transform="translate(2057.617188 0)"/>
     <use xlink:href="#DejaVuSans-2e" transform="translate(2121.240234 0)"/>
     <use xlink:href="#DejaVuSans-32" transform="translate(2153.027344 0)"/>
     <use xlink:href="#DejaVuSans-4d" transform="translate(2216.650391 0)"/>
    </g>
   </g>
   <g id="legend_1">
    <g id="patch_7">
     <path d="M 68.18 74.5875 
L 179.654375 74.5875 
Q 182.054375 74.5875 182.054375 72.1875 
L 182.054375 38.16 
Q 182.054375 35.76 179.654375 35.76 
L 68.18 35.76 
Q 65.78 35.76 65.78 38.16 
L 65.78 72.1875 
Q 65.78 74.5875 68.18 74.5875 
z
" style="fill: #ffffff; opacity: 0.8; stroke: #cccccc; stroke-linejoin: miter"/>
    </g>
    <g id="line2d_17">
     <path d="M 70.58 45.478125 
L 82.58 45.478125 
L 94.58 45.478125 
" style="fill: none; stroke: #0000ff; stroke-width: 1.5; stroke-linecap: square"/>
    </g>
    <g id="text_17">
     <!-- Observation -->
     <g transform="translate(104.18 49.678125) scale(0.12 -0.12)">
      <defs>
       <path id="DejaVuSans-4f" d="M 2522 4238 
Q 1834 4238 1429 3725 
Q 1025 3213 1025 2328 
Q 1025 1447 1429 934 
Q 1834 422 2522 422 
Q 3209 422 3611 934 
Q 4013 1447 4013 2328 
Q 4013 3213 3611 3725 
Q 3209 4238 2522 4238 
z
M 2522 4750 
Q 3503 4750 4090 4092 
Q 4678 3434 4678 2328 
Q 4678 1225 4090 567 
Q 3503 -91 2522 -91 
Q 1538 -91 948 565 
Q 359 1222 359 2328 
Q 359 3434 948 4092 
Q 1538 4750 2522 4750 
z
" transform="scale(0.015625)"/>
       <path id="DejaVuSans-62" d="M 3116 1747 
Q 3116 2381 2855 2742 
Q 2594 3103 2138 3103 
Q 1681 3103 1420 2742 
Q 1159 2381 1159 1747 
Q 1159 1113 1420 752 
Q 1681 391 2138 391 
Q 2594 391 2855 752 
Q 3116 1113 3116 1747 
z
M 1159 2969 
Q 1341 3281 1617 3432 
Q 1894 3584 2278 3584 
Q 2916 3584 3314 3078 
Q 3713 2572 3713 1747 
Q 3713 922 3314 415 
Q 2916 -91 2278 -91 
Q 1894 -91 1617 61 
Q 1341 213 1159 525 
L 1159 0 
L 581 0 
L 581 4863 
L 1159 4863 
L 1159 2969 
z
" transform="scale(0.015625)"/>
       <path id="DejaVuSans-76" d="M 191 3500 
L 800 3500 
L 1894 563 
L 2988 3500 
L 3597 3500 
L 2284 0 
L 1503 0 
L 191 3500 
z
" transform="scale(0.015625)"/>
      </defs>
      <use xlink:href="#DejaVuSans-4f"/>
      <use xlink:href="#DejaVuSans-62" transform="translate(78.710938 0)"/>
      <use xlink:href="#DejaVuSans-73" transform="translate(142.1875 0)"/>
      <use xlink:href="#DejaVuSans-65" transform="translate(194.287109 0)"/>
      <use xlink:href="#DejaVuSans-72" transform="translate(255.810547 0)"/>
      <use xlink:href="#DejaVuSans-76" transform="translate(296.923828 0)"/>
      <use xlink:href="#DejaVuSans-61" transform="translate(356.103516 0)"/>
      <use xlink:href="#DejaVuSans-74" transform="translate(417.382812 0)"/>
      <use xlink:href="#DejaVuSans-69" transform="translate(456.591797 0)"/>
      <use xlink:href="#DejaVuSans-6f" transform="translate(484.375 0)"/>
      <use xlink:href="#DejaVuSans-6e" transform="translate(545.556641 0)"/>
     </g>
    </g>
    <g id="line2d_18">
     <path d="M 70.58 63.091875 
L 82.58 63.091875 
L 94.58 63.091875 
" style="fill: none; stroke: #ff0000; stroke-width: 1.5; stroke-linecap: square"/>
    </g>
    <g id="text_18">
     <!-- Predicted -->
     <g transform="translate(104.18 67.291875) scale(0.12 -0.12)">
      <defs>
       <path id="DejaVuSans-50" d="M 1259 4147 
L 1259 2394 
L 2053 2394 
Q 2494 2394 2734 2622 
Q 2975 2850 2975 3272 
Q 2975 3691 2734 3919 
Q 2494 4147 2053 4147 
L 1259 4147 
z
M 628 4666 
L 2053 4666 
Q 2838 4666 3239 4311 
Q 3641 3956 3641 3272 
Q 3641 2581 3239 2228 
Q 2838 1875 2053 1875 
L 1259 1875 
L 1259 0 
L 628 0 
L 628 4666 
z
" transform="scale(0.015625)"/>
      </defs>
      <use xlink:href="#DejaVuSans-50"/>
      <use xlink:href="#DejaVuSans-72" transform="translate(58.552734 0)"/>
      <use xlink:href="#DejaVuSans-65" transform="translate(97.416016 0)"/>
      <use xlink:href="#DejaVuSans-64" transform="translate(158.939453 0)"/>
      <use xlink:href="#DejaVuSans-69" transform="translate(222.416016 0)"/>
      <use xlink:href="#DejaVuSans-63" transform="translate(250.199219 0)"/>
      <use xlink:href="#DejaVuSans-74" transform="translate(305.179688 0)"/>
      <use xlink:href="#DejaVuSans-65" transform="translate(344.388672 0)"/>
      <use xlink:href="#DejaVuSans-64" transform="translate(405.912109 0)"/>
     </g>
    </g>
   </g>
  </g>
 </g>
 <defs>
  <clipPath id="pf81e8f85aa">
   <rect x="59.78" y="29.76" width="1009.42" height="140.68"/>
  </clipPath>
 </defs>
</svg>
