<?xml version="1.0" encoding="utf-8" standalone="no"?>
<!DOCTYPE svg PUBLIC "-//W3C//DTD SVG 1.1//EN"
  "http://www.w3.org/Graphics/SVG/1.1/DTD/svg11.dtd">
<svg xmlns:xlink="http://www.w3.org/1999/xlink" width="1080pt" height="216pt" viewBox="0 0 1080 216" xmlns="http://www.w3.org/2000/svg" version="1.1">
 <metadata>
  <rdf:RDF xmlns:dc="http://purl.org/dc/elements/1.1/" xmlns:cc="http://creativecommons.org/ns#" xmlns:rdf="http://www.w3.org/1999/02/22-rdf-syntax-ns#">
   <cc:Work>
    <dc:type rdf:resource="http://purl.org/dc/dcmitype/StillImage"/>
    <dc:date>2026-02-09T10:07:34.404510</dc:date>
    <dc:format>image/svg+xml</dc:format>
    <dc:creator>
     <cc:Agent>
      <dc:title>Matplotlib v3.10.8, https://matplotlib.org/</dc:title>
     </cc:Agent>
    </dc:creator>
   </cc:Work>
  </rdf:RDF>
 </metadata>
 <defs>
  <style type="text/css">*{stroke-linejoin: round; stroke-linecap: butt}</style>
 </defs>
 <g id="figure_1">
  <g id="patch_1">
   <path d="M 0 216 
L 1080 216 
L 1080 0 
L 0 0 
z
" style="fill: #ffffff"/>
  </g>
  <g id="axes_1">
   <g id="patch_2">
    <path d="M 59.78 170.44 
L 1069.2 170.44 
L 1069.2 29.76 
L 59.78 29.76 
z
" style="fill: #ffffff"/>
   </g>
   <g id="matplotlib.axis_1">
    <g id="xtick_1">
     <g id="line2d_1">
      <defs>
       <path id="m5b85d87a15" d="M 0 0 
L 0 3.5 
" style="stroke: #000000; stroke-width: 0.8"/>
      </defs>
      <g>
       <use xlink:href="#m5b85d87a15" x="59.78" y="170.44" style="stroke: #000000; stroke-width: 0.8"/>
      </g>
     </g>
     <g id="text_1">
      <!-- 0 -->
      <g transform="translate(56.59875 185.038437) scale(0.1 -0.1)">
       <defs>
        <path id="DejaVuSans-30" d="M 2034 4250 
Q 1547 4250 1301 3770 
Q 1056 3291 1056 2328 
Q 1056 1369 1301 889 
Q 1547 409 2034 409 
Q 2525 409 2770 889 
Q 3016 1369 3016 2328 
Q 3016 3291 2770 3770 
Q 2525 4250 2034 4250 
z
M 2034 4750 
Q 2819 4750 3233 4129 
Q 3647 3509 3647 2328 
Q 3647 1150 3233 529 
Q 2819 -91 2034 -91 
Q 1250 -91 836 529 
Q 422 1150 422 2328 
Q 422 3509 836 4129 
Q 1250 4750 2034 4750 
z
" transform="scale(0.015625)"/>
       </defs>
       <use xlink:href="#DejaVuSans-30"/>
      </g>
     </g>
    </g>
    <g id="xtick_2">
     <g id="line2d_2">
      <g>
       <use xlink:href="#m5b85d87a15" x="191.562369" y="170.44" style="stroke: #000000; stroke-width: 0.8"/>
      </g>
     </g>
     <g id="text_2">
      <!-- 200 -->
      <g transform="translate(182.018619 185.038437) scale(0.1 -0.1)">
       <defs>
        <path id="DejaVuSans-32" d="M 1228 531 
L 3431 531 
L 3431 0 
L 469 0 
L 469 531 
Q 828 903 1448 1529 
Q 2069 2156 2228 2338 
Q 2531 2678 2651 2914 
Q 2772 3150 2772 3378 
Q 2772 3750 2511 3984 
Q 2250 4219 1831 4219 
Q 1534 4219 1204 4116 
Q 875 4013 500 3803 
L 500 4441 
Q 881 4594 1212 4672 
Q 1544 4750 1819 4750 
Q 2544 4750 2975 4387 
Q 3406 4025 3406 3419 
Q 3406 3131 3298 2873 
Q 3191 2616 2906 2266 
Q 2828 2175 2409 1742 
Q 1991 1309 1228 531 
z
" transform="scale(0.015625)"/>
       </defs>
       <use xlink:href="#DejaVuSans-32"/>
       <use xlink:href="#DejaVuSans-30" transform="translate(63.623047 0)"/>
       <use xlink:href="#DejaVuSans-30" transform="translate(127.246094 0)"/>
      </g>
     </g>
    </g>
    <g id="xtick_3">
     <g id="line2d_3">
      <g>
       <use xlink:href="#m5b85d87a15" x="323.344738" y="170.44" style="stroke: #000000; stroke-width: 0.8"/>
      </g>
     </g>
     <g id="text_3">
      <!-- 400 -->
      <g transform="translate(313.800988 185.038437) scale(0.1 -0.1)">
       <defs>
        <path id="DejaVuSans-34" d="M 2419 4116 
L 825 1625 
L 2419 1625 
L 2419 4116 
z
M 2253 4666 
L 3047 4666 
L 3047 1625 
L 3713 1625 
L 3713 1100 
L 3047 1100 
L 3047 0 
L 2419 0 
L 2419 1100 
L 313 1100 
L 313 1709 
L 2253 4666 
z
" transform="scale(0.015625)"/>
       </defs>
       <use xlink:href="#DejaVuSans-34"/>
       <use xlink:href="#DejaVuSans-30" transform="translate(63.623047 0)"/>
       <use xlink:href="#DejaVuSans-30" transform="translate(127.246094 0)"/>
      </g>
     </g>
    </g>
    <g id="xtick_4">
     <g id="line2d_4">
      <g>
       <use xlink:href="#m5b85d87a15" x="455.127107" y="170.44" style="stroke: #000000; stroke-width: 0.8"/>
      </g>
     </g>
     <g id="text_4">
      <!-- 600 -->
      <g transform="translate(445.583357 185.038437) scale(0.1 -0.1)">
       <defs>
        <path id="DejaVuSans-36" d="M 2113 2584 
Q 1688 2584 1439 2293 
Q 1191 2003 1191 1497 
Q 1191 994 1439 701 
Q 1688 409 2113 409 
Q 2538 409 2786 701 
Q 3034 994 3034 1497 
Q 3034 2003 2786 2293 
Q 2538 2584 2113 2584 
z
M 3366 4563 
L 3366 3988 
Q 3128 4100 2886 4159 
Q 2644 4219 2406 4219 
Q 1781 4219 1451 3797 
Q 1122 3375 1075 2522 
Q 1259 2794 1537 2939 
Q 1816 3084 2150 3084 
Q 2853 3084 3261 2657 
Q 3669 2231 3669 1497 
Q 3669 778 3244 343 
Q 2819 -91 2113 -91 
Q 1303 -91 875 529 
Q 447 1150 447 2328 
Q 447 3434 972 4092 
Q 1497 4750 2381 4750 
Q 2619 4750 2861 4703 
Q 3103 4656 3366 4563 
z
" transform="scale(0.015625)"/>
       </defs>
       <use xlink:href="#DejaVuSans-36"/>
       <use xlink:href="#DejaVuSans-30" transform="translate(63.623047 0)"/>
       <use xlink:href="#DejaVuSans-30" transform="translate(127.246094 0)"/>
      </g>
     </g>
    </g>
    <g id="xtick_5">
     <g id="line2d_5">
      <g>
       <use xlink:href="#m5b85d87a15" x="586.909476" y="170.44" style="stroke: #000000; stroke-width: 0.8"/>
      </g>
     </g>
     <g id="text_5">
      <!-- 800 -->
      <g transform="translate(577.365726 185.038437) scale(0.1 -0.1)">
       <defs>
        <path id="DejaVuSans-38" d="M 2034 2216 
Q 1584 2216 1326 1975 
Q 1069 1734 1069 1313 
Q 1069 891 1326 650 
Q 1584 409 2034 409 
Q 2484 409 2743 651 
Q 3003 894 3003 1313 
Q 3003 1734 2745 1975 
Q 2488 2216 2034 2216 
z
M 1403 2484 
Q 997 2584 770 2862 
Q 544 3141 544 3541 
Q 544 4100 942 4425 
Q 1341 4750 2034 4750 
Q 2731 4750 3128 4425 
Q 3525 4100 3525 3541 
Q 3525 3141 3298 2862 
Q 3072 2584 2669 2484 
Q 3125 2378 3379 2068 
Q 3634 1759 3634 1313 
Q 3634 634 3220 271 
Q 2806 -91 2034 -91 
Q 1263 -91 848 271 
Q 434 634 434 1313 
Q 434 1759 690 2068 
Q 947 2378 1403 2484 
z
M 1172 3481 
Q 1172 3119 1398 2916 
Q 1625 2713 2034 2713 
Q 2441 2713 2670 2916 
Q 2900 3119 2900 3481 
Q 2900 3844 2670 4047 
Q 2441 4250 2034 4250 
Q 1625 4250 1398 4047 
Q 1172 3844 1172 3481 
z
" transform="scale(0.015625)"/>
       </defs>
       <use xlink:href="#DejaVuSans-38"/>
       <use xlink:href="#DejaVuSans-30" transform="translate(63.623047 0)"/>
       <use xlink:href="#DejaVuSans-30" transform="translate(127.246094 0)"/>
      </g>
     </g>
    </g>
    <g id="xtick_6">
     <g id="line2d_6">
      <g>
       <use xlink:href="#m5b85d87a15" x="718.691844" y="170.44" style="stroke: #000000; stroke-width: 0.8"/>
      </g>
     </g>
     <g id="text_6">
      <!-- 1000 -->
      <g transform="translate(705.966844 185.038437) scale(0.1 -0.1)">
       <defs>
        <path id="DejaVuSans-31" d="M 794 531 
L 1825 531 
L 1825 4091 
L 703 3866 
L 703 4441 
L 1819 4666 
L 2450 4666 
L 2450 531 
L 3481 531 
L 3481 0 
L 794 0 
L 794 531 
z
" transform="scale(0.015625)"/>
       </defs>
       <use xlink:href="#DejaVuSans-31"/>
       <use xlink:href="#DejaVuSans-30" transform="translate(63.623047 0)"/>
       <use xlink:href="#DejaVuSans-30" transform="translate(127.246094 0)"/>
       <use xlink:href="#DejaVuSans-30" transform="translate(190.869141 0)"/>
      </g>
     </g>
    </g>
    <g id="xtick_7">
     <g id="line2d_7">
      <g>
       <use xlink:href="#m5b85d87a15" x="850.474213" y="170.44" style="stroke: #000000; stroke-width: 0.8"/>
      </g>
     </g>
     <g id="text_7">
      <!-- 1200 -->
      <g transform="translate(837.749213 185.038437) scale(0.1 -0.1)">
       <use xlink:href="#DejaVuSans-31"/>
       <use xlink:href="#DejaVuSans-32" transform="translate(63.623047 0)"/>
       <use xlink:href="#DejaVuSans-30" transform="translate(127.246094 0)"/>
       <use xlink:href="#DejaVuSans-30" transform="translate(190.869141 0)"/>
      </g>
     </g>
    </g>
    <g id="xtick_8">
     <g id="line2d_8">
      <g>
       <use xlink:href="#m5b85d87a15" x="982.256582" y="170.44" style="stroke: #000000; stroke-width: 0.8"/>
      </g>
     </g>
     <g id="text_8">
      <!-- 1400 -->
      <g transform="translate(969.531582 185.038437) scale(0.1 -0.1)">
       <use xlink:href="#DejaVuSans-31"/>
       <use xlink:href="#DejaVuSans-34" transform="translate(63.623047 0)"/>
       <use xlink:href="#DejaVuSans-30" transform="translate(127.246094 0)"/>
       <use xlink:href="#DejaVuSans-30" transform="translate(190.869141 0)"/>
      </g>
     </g>
    </g>
    <g id="text_9">
     <!-- Simulation Days -->
     <g transform="translate(507.51 201.755937) scale(0.14 -0.14)">
      <defs>
       <path id="DejaVuSans-53" d="M 3425 4513 
L 3425 3897 
Q 3066 4069 2747 4153 
Q 2428 4238 2131 4238 
Q 1616 4238 1336 4038 
Q 1056 3838 1056 3469 
Q 1056 3159 1242 3001 
Q 1428 2844 1947 2747 
L 2328 2669 
Q 3034 2534 3370 2195 
Q 3706 1856 3706 1288 
Q 3706 609 3251 259 
Q 2797 -91 1919 -91 
Q 1588 -91 1214 -16 
Q 841 59 441 206 
L 441 856 
Q 825 641 1194 531 
Q 1563 422 1919 422 
Q 2459 422 2753 634 
Q 3047 847 3047 1241 
Q 3047 1584 2836 1778 
Q 2625 1972 2144 2069 
L 1759 2144 
Q 1053 2284 737 2584 
Q 422 2884 422 3419 
Q 422 4038 858 4394 
Q 1294 4750 2059 4750 
Q 2388 4750 2728 4690 
Q 3069 4631 3425 4513 
z
" transform="scale(0.015625)"/>
       <path id="DejaVuSans-69" d="M 603 3500 
L 1178 3500 
L 1178 0 
L 603 0 
L 603 3500 
z
M 603 4863 
L 1178 4863 
L 1178 4134 
L 603 4134 
L 603 4863 
z
" transform="scale(0.015625)"/>
       <path id="DejaVuSans-6d" d="M 3328 2828 
Q 3544 3216 3844 3400 
Q 4144 3584 4550 3584 
Q 5097 3584 5394 3201 
Q 5691 2819 5691 2113 
L 5691 0 
L 5113 0 
L 5113 2094 
Q 5113 2597 4934 2840 
Q 4756 3084 4391 3084 
Q 3944 3084 3684 2787 
Q 3425 2491 3425 1978 
L 3425 0 
L 2847 0 
L 2847 2094 
Q 2847 2600 2669 2842 
Q 2491 3084 2119 3084 
Q 1678 3084 1418 2786 
Q 1159 2488 1159 1978 
L 1159 0 
L 581 0 
L 581 3500 
L 1159 3500 
L 1159 2956 
Q 1356 3278 1631 3431 
Q 1906 3584 2284 3584 
Q 2666 3584 2933 3390 
Q 3200 3197 3328 2828 
z
" transform="scale(0.015625)"/>
       <path id="DejaVuSans-75" d="M 544 1381 
L 544 3500 
L 1119 3500 
L 1119 1403 
Q 1119 906 1312 657 
Q 1506 409 1894 409 
Q 2359 409 2629 706 
Q 2900 1003 2900 1516 
L 2900 3500 
L 3475 3500 
L 3475 0 
L 2900 0 
L 2900 538 
Q 2691 219 2414 64 
Q 2138 -91 1772 -91 
Q 1169 -91 856 284 
Q 544 659 544 1381 
z
M 1991 3584 
L 1991 3584 
z
" transform="scale(0.015625)"/>
       <path id="DejaVuSans-6c" d="M 603 4863 
L 1178 4863 
L 1178 0 
L 603 0 
L 603 4863 
z
" transform="scale(0.015625)"/>
       <path id="DejaVuSans-61" d="M 2194 1759 
Q 1497 1759 1228 1600 
Q 959 1441 959 1056 
Q 959 750 1161 570 
Q 1363 391 1709 391 
Q 2188 391 2477 730 
Q 2766 1069 2766 1631 
L 2766 1759 
L 2194 1759 
z
M 3341 1997 
L 3341 0 
L 2766 0 
L 2766 531 
Q 2569 213 2275 61 
Q 1981 -91 1556 -91 
Q 1019 -91 701 211 
Q 384 513 384 1019 
Q 384 1609 779 1909 
Q 1175 2209 1959 2209 
L 2766 2209 
L 2766 2266 
Q 2766 2663 2505 2880 
Q 2244 3097 1772 3097 
Q 1472 3097 1187 3025 
Q 903 2953 641 2809 
L 641 3341 
Q 956 3463 1253 3523 
Q 1550 3584 1831 3584 
Q 2591 3584 2966 3190 
Q 3341 2797 3341 1997 
z
" transform="scale(0.015625)"/>
       <path id="DejaVuSans-74" d="M 1172 4494 
L 1172 3500 
L 2356 3500 
L 2356 3053 
L 1172 3053 
L 1172 1153 
Q 1172 725 1289 603 
Q 1406 481 1766 481 
L 2356 481 
L 2356 0 
L 1766 0 
Q 1100 0 847 248 
Q 594 497 594 1153 
L 594 3053 
L 172 3053 
L 172 3500 
L 594 3500 
L 594 4494 
L 1172 4494 
z
" transform="scale(0.015625)"/>
       <path id="DejaVuSans-6f" d="M 1959 3097 
Q 1497 3097 1228 2736 
Q 959 2375 959 1747 
Q 959 1119 1226 758 
Q 1494 397 1959 397 
Q 2419 397 2687 759 
Q 2956 1122 2956 1747 
Q 2956 2369 2687 2733 
Q 2419 3097 1959 3097 
z
M 1959 3584 
Q 2709 3584 3137 3096 
Q 3566 2609 3566 1747 
Q 3566 888 3137 398 
Q 2709 -91 1959 -91 
Q 1206 -91 779 398 
Q 353 888 353 1747 
Q 353 2609 779 3096 
Q 1206 3584 1959 3584 
z
" transform="scale(0.015625)"/>
       <path id="DejaVuSans-6e" d="M 3513 2113 
L 3513 0 
L 2938 0 
L 2938 2094 
Q 2938 2591 2744 2837 
Q 2550 3084 2163 3084 
Q 1697 3084 1428 2787 
Q 1159 2491 1159 1978 
L 1159 0 
L 581 0 
L 581 3500 
L 1159 3500 
L 1159 2956 
Q 1366 3272 1645 3428 
Q 1925 3584 2291 3584 
Q 2894 3584 3203 3211 
Q 3513 2838 3513 2113 
z
" transform="scale(0.015625)"/>
       <path id="DejaVuSans-20" transform="scale(0.015625)"/>
       <path id="DejaVuSans-44" d="M 1259 4147 
L 1259 519 
L 2022 519 
Q 2988 519 3436 956 
Q 3884 1394 3884 2338 
Q 3884 3275 3436 3711 
Q 2988 4147 2022 4147 
L 1259 4147 
z
M 628 4666 
L 1925 4666 
Q 3281 4666 3915 4102 
Q 4550 3538 4550 2338 
Q 4550 1131 3912 565 
Q 3275 0 1925 0 
L 628 0 
L 628 4666 
z
" transform="scale(0.015625)"/>
       <path id="DejaVuSans-79" d="M 2059 -325 
Q 1816 -950 1584 -1140 
Q 1353 -1331 966 -1331 
L 506 -1331 
L 506 -850 
L 844 -850 
Q 1081 -850 1212 -737 
Q 1344 -625 1503 -206 
L 1606 56 
L 191 3500 
L 800 3500 
L 1894 763 
L 2988 3500 
L 3597 3500 
L 2059 -325 
z
" transform="scale(0.015625)"/>
       <path id="DejaVuSans-73" d="M 2834 3397 
L 2834 2853 
Q 2591 2978 2328 3040 
Q 2066 3103 1784 3103 
Q 1356 3103 1142 2972 
Q 928 2841 928 2578 
Q 928 2378 1081 2264 
Q 1234 2150 1697 2047 
L 1894 2003 
Q 2506 1872 2764 1633 
Q 3022 1394 3022 966 
Q 3022 478 2636 193 
Q 2250 -91 1575 -91 
Q 1294 -91 989 -36 
Q 684 19 347 128 
L 347 722 
Q 666 556 975 473 
Q 1284 391 1588 391 
Q 1994 391 2212 530 
Q 2431 669 2431 922 
Q 2431 1156 2273 1281 
Q 2116 1406 1581 1522 
L 1381 1569 
Q 847 1681 609 1914 
Q 372 2147 372 2553 
Q 372 3047 722 3315 
Q 1072 3584 1716 3584 
Q 2034 3584 2315 3537 
Q 2597 3491 2834 3397 
z
" transform="scale(0.015625)"/>
      </defs>
      <use xlink:href="#DejaVuSans-53"/>
      <use xlink:href="#DejaVuSans-69" transform="translate(63.476562 0)"/>
      <use xlink:href="#DejaVuSans-6d" transform="translate(91.259766 0)"/>
      <use xlink:href="#DejaVuSans-75" transform="translate(188.671875 0)"/>
      <use xlink:href="#DejaVuSans-6c" transform="translate(252.050781 0)"/>
      <use xlink:href="#DejaVuSans-61" transform="translate(279.833984 0)"/>
      <use xlink:href="#DejaVuSans-74" transform="translate(341.113281 0)"/>
      <use xlink:href="#DejaVuSans-69" transform="translate(380.322266 0)"/>
      <use xlink:href="#DejaVuSans-6f" transform="translate(408.105469 0)"/>
      <use xlink:href="#DejaVuSans-6e" transform="translate(469.287109 0)"/>
      <use xlink:href="#DejaVuSans-20" transform="translate(532.666016 0)"/>
      <use xlink:href="#DejaVuSans-44" transform="translate(564.453125 0)"/>
      <use xlink:href="#DejaVuSans-61" transform="translate(641.455078 0)"/>
      <use xlink:href="#DejaVuSans-79" transform="translate(702.734375 0)"/>
      <use xlink:href="#DejaVuSans-73" transform="translate(761.914062 0)"/>
     </g>
    </g>
   </g>
   <g id="matplotlib.axis_2">
    <g id="ytick_1">
     <g id="line2d_9">
      <defs>
       <path id="ma94571304a" d="M 0 0 
L -3.5 0 
" style="stroke: #000000; stroke-width: 0.8"/>
      </defs>
      <g>
       <use xlink:href="#ma94571304a" x="59.78" y="159.267958" style="stroke: #000000; stroke-width: 0.8"/>
      </g>
     </g>
     <g id="text_10">
      <!-- −5.0 -->
      <g transform="translate(28.497187 163.067177) scale(0.1 -0.1)">
       <defs>
        <path id="DejaVuSans-2212" d="M 678 2272 
L 4684 2272 
L 4684 1741 
L 678 1741 
L 678 2272 
z
" transform="scale(0.015625)"/>
        <path id="DejaVuSans-35" d="M 691 4666 
L 3169 4666 
L 3169 4134 
L 1269 4134 
L 1269 2991 
Q 1406 3038 1543 3061 
Q 1681 3084 1819 3084 
Q 2600 3084 3056 2656 
Q 3513 2228 3513 1497 
Q 3513 744 3044 326 
Q 2575 -91 1722 -91 
Q 1428 -91 1123 -41 
Q 819 9 494 109 
L 494 744 
Q 775 591 1075 516 
Q 1375 441 1709 441 
Q 2250 441 2565 725 
Q 2881 1009 2881 1497 
Q 2881 1984 2565 2268 
Q 2250 2553 1709 2553 
Q 1456 2553 1204 2497 
Q 953 2441 691 2322 
L 691 4666 
z
" transform="scale(0.015625)"/>
        <path id="DejaVuSans-2e" d="M 684 794 
L 1344 794 
L 1344 0 
L 684 0 
L 684 794 
z
" transform="scale(0.015625)"/>
       </defs>
       <use xlink:href="#DejaVuSans-2212"/>
       <use xlink:href="#DejaVuSans-35" transform="translate(83.789062 0)"/>
       <use xlink:href="#DejaVuSans-2e" transform="translate(147.412109 0)"/>
       <use xlink:href="#DejaVuSans-30" transform="translate(179.199219 0)"/>
      </g>
     </g>
    </g>
    <g id="ytick_2">
     <g id="line2d_10">
      <g>
       <use xlink:href="#ma94571304a" x="59.78" y="124.293331" style="stroke: #000000; stroke-width: 0.8"/>
      </g>
     </g>
     <g id="text_11">
      <!-- −2.5 -->
      <g transform="translate(28.497187 128.09255) scale(0.1 -0.1)">
       <use xlink:href="#DejaVuSans-2212"/>
       <use xlink:href="#DejaVuSans-32" transform="translate(83.789062 0)"/>
       <use xlink:href="#DejaVuSans-2e" transform="translate(147.412109 0)"/>
       <use xlink:href="#DejaVuSans-35" transform="translate(179.199219 0)"/>
      </g>
     </g>
    </g>
    <g id="ytick_3">
     <g id="line2d_11">
      <g>
       <use xlink:href="#ma94571304a" x="59.78" y="89.318703" style="stroke: #000000; stroke-width: 0.8"/>
      </g>
     </g>
     <g id="text_12">
      <!-- 0.0 -->
      <g transform="translate(36.876875 93.117922) scale(0.1 -0.1)">
       <use xlink:href="#DejaVuSans-30"/>
       <use xlink:href="#DejaVuSans-2e" transform="translate(63.623047 0)"/>
       <use xlink:href="#DejaVuSans-30" transform="translate(95.410156 0)"/>
      </g>
     </g>
    </g>
    <g id="ytick_4">
     <g id="line2d_12">
      <g>
       <use xlink:href="#ma94571304a" x="59.78" y="54.344076" style="stroke: #000000; stroke-width: 0.8"/>
      </g>
     </g>
     <g id="text_13">
      <!-- 2.5 -->
      <g transform="translate(36.876875 58.143295) scale(0.1 -0.1)">
       <use xlink:href="#DejaVuSans-32"/>
       <use xlink:href="#DejaVuSans-2e" transform="translate(63.623047 0)"/>
       <use xlink:href="#DejaVuSans-35" transform="translate(95.410156 0)"/>
      </g>
     </g>
    </g>
    <g id="text_14">
     <!-- Temperature (℃) -->
     <g transform="translate(21.585625 159.986094) rotate(-90) scale(0.14 -0.14)">
      <defs>
       <path id="DejaVuSans-54" d="M -19 4666 
L 3928 4666 
L 3928 4134 
L 2272 4134 
L 2272 0 
L 1638 0 
L 1638 4134 
L -19 4134 
L -19 4666 
z
" transform="scale(0.015625)"/>
       <path id="DejaVuSans-65" d="M 3597 1894 
L 3597 1613 
L 953 1613 
Q 991 1019 1311 708 
Q 1631 397 2203 397 
Q 2534 397 2845 478 
Q 3156 559 3463 722 
L 3463 178 
Q 3153 47 2828 -22 
Q 2503 -91 2169 -91 
Q 1331 -91 842 396 
Q 353 884 353 1716 
Q 353 2575 817 3079 
Q 1281 3584 2069 3584 
Q 2775 3584 3186 3129 
Q 3597 2675 3597 1894 
z
M 3022 2063 
Q 3016 2534 2758 2815 
Q 2500 3097 2075 3097 
Q 1594 3097 1305 2825 
Q 1016 2553 972 2059 
L 3022 2063 
z
" transform="scale(0.015625)"/>
       <path id="DejaVuSans-70" d="M 1159 525 
L 1159 -1331 
L 581 -1331 
L 581 3500 
L 1159 3500 
L 1159 2969 
Q 1341 3281 1617 3432 
Q 1894 3584 2278 3584 
Q 2916 3584 3314 3078 
Q 3713 2572 3713 1747 
Q 3713 922 3314 415 
Q 2916 -91 2278 -91 
Q 1894 -91 1617 61 
Q 1341 213 1159 525 
z
M 3116 1747 
Q 3116 2381 2855 2742 
Q 2594 3103 2138 3103 
Q 1681 3103 1420 2742 
Q 1159 2381 1159 1747 
Q 1159 1113 1420 752 
Q 1681 391 2138 391 
Q 2594 391 2855 752 
Q 3116 1113 3116 1747 
z
" transform="scale(0.015625)"/>
       <path id="DejaVuSans-72" d="M 2631 2963 
Q 2534 3019 2420 3045 
Q 2306 3072 2169 3072 
Q 1681 3072 1420 2755 
Q 1159 2438 1159 1844 
L 1159 0 
L 581 0 
L 581 3500 
L 1159 3500 
L 1159 2956 
Q 1341 3275 1631 3429 
Q 1922 3584 2338 3584 
Q 2397 3584 2469 3576 
Q 2541 3569 2628 3553 
L 2631 2963 
z
" transform="scale(0.015625)"/>
       <path id="DejaVuSans-28" d="M 1984 4856 
Q 1566 4138 1362 3434 
Q 1159 2731 1159 2009 
Q 1159 1288 1364 580 
Q 1569 -128 1984 -844 
L 1484 -844 
Q 1016 -109 783 600 
Q 550 1309 550 2009 
Q 550 2706 781 3412 
Q 1013 4119 1484 4856 
L 1984 4856 
z
" transform="scale(0.015625)"/>
       <path id="DejaVuSans-2103" d="M 1600 4347 
Q 1350 4347 1178 4173 
Q 1006 4000 1006 3750 
Q 1006 3503 1178 3333 
Q 1350 3163 1600 3163 
Q 1850 3163 2022 3333 
Q 2194 3503 2194 3750 
Q 2194 3997 2020 4172 
Q 1847 4347 1600 4347 
z
M 1600 4750 
Q 1800 4750 1984 4673 
Q 2169 4597 2303 4453 
Q 2447 4313 2519 4134 
Q 2591 3956 2591 3750 
Q 2591 3338 2302 3052 
Q 2013 2766 1594 2766 
Q 1172 2766 890 3047 
Q 609 3328 609 3750 
Q 609 4169 896 4459 
Q 1184 4750 1600 4750 
z
M 6741 4306 
L 6741 3641 
Q 6422 3938 6061 4084 
Q 5700 4231 5294 4231 
Q 4494 4231 4069 3742 
Q 3644 3253 3644 2328 
Q 3644 1406 4069 917 
Q 4494 428 5294 428 
Q 5700 428 6061 575 
Q 6422 722 6741 1019 
L 6741 359 
Q 6409 134 6039 21 
Q 5669 -91 5256 -91 
Q 4197 -91 3587 557 
Q 2978 1206 2978 2328 
Q 2978 3453 3587 4101 
Q 4197 4750 5256 4750 
Q 5675 4750 6045 4639 
Q 6416 4528 6741 4306 
z
" transform="scale(0.015625)"/>
       <path id="DejaVuSans-29" d="M 513 4856 
L 1013 4856 
Q 1481 4119 1714 3412 
Q 1947 2706 1947 2009 
Q 1947 1309 1714 600 
Q 1481 -109 1013 -844 
L 513 -844 
Q 928 -128 1133 580 
Q 1338 1288 1338 2009 
Q 1338 2731 1133 3434 
Q 928 4138 513 4856 
z
" transform="scale(0.015625)"/>
      </defs>
      <use xlink:href="#DejaVuSans-54"/>
      <use xlink:href="#DejaVuSans-65" transform="translate(44.083984 0)"/>
      <use xlink:href="#DejaVuSans-6d" transform="translate(105.607422 0)"/>
      <use xlink:href="#DejaVuSans-70" transform="translate(203.019531 0)"/>
      <use xlink:href="#DejaVuSans-65" transform="translate(266.496094 0)"/>
      <use xlink:href="#DejaVuSans-72" transform="translate(328.019531 0)"/>
      <use xlink:href="#DejaVuSans-61" transform="translate(369.132812 0)"/>
      <use xlink:href="#DejaVuSans-74" transform="translate(430.412109 0)"/>
      <use xlink:href="#DejaVuSans-75" transform="translate(469.621094 0)"/>
      <use xlink:href="#DejaVuSans-72" transform="translate(533 0)"/>
      <use xlink:href="#DejaVuSans-65" transform="translate(571.863281 0)"/>
      <use xlink:href="#DejaVuSans-20" transform="translate(633.386719 0)"/>
      <use xlink:href="#DejaVuSans-28" transform="translate(665.173828 0)"/>
      <use xlink:href="#DejaVuSans-2103" transform="translate(704.1875 0)"/>
      <use xlink:href="#DejaVuSans-29" transform="translate(816.492188 0)"/>
     </g>
    </g>
   </g>
   <g id="line2d_13">
    <path d="M 59.78 137.62635 
L 61.097824 137.829344 
L 62.415647 138.295965 
L 63.733471 139.011077 
L 65.051295 139.954772 
L 67.02803 141.751253 
L 69.004766 143.931732 
L 71.640413 147.233028 
L 74.934972 151.375396 
L 76.911708 153.479927 
L 78.229532 154.613136 
L 79.547355 155.494194 
L 80.865179 156.108969 
L 82.183003 156.454785 
L 83.500826 156.53789 
L 84.81865 156.372352 
L 86.136474 155.980377 
L 87.454297 155.393059 
L 89.431033 154.233039 
L 92.725592 151.934016 
L 96.020151 149.713252 
L 98.655799 148.231617 
L 101.291446 147.046824 
L 103.927094 146.098105 
L 107.880565 144.922393 
L 131.601391 138.474183 
L 136.213774 137.623916 
L 146.097452 136.010418 
L 148.733099 135.316808 
L 150.709835 134.594284 
L 152.027658 133.944278 
L 153.345482 133.088091 
L 154.663306 131.948468 
L 155.981129 130.44434 
L 157.298953 128.507244 
L 158.616777 126.101425 
L 159.9346 123.242228 
L 161.911336 118.287328 
L 165.864807 107.944201 
L 167.182631 104.997004 
L 168.500454 102.495219 
L 169.818278 100.470523 
L 171.136102 98.901478 
L 172.453925 97.729561 
L 173.771749 96.877927 
L 175.089573 96.267798 
L 177.066308 95.656906 
L 179.701956 95.158693 
L 184.314339 94.608221 
L 191.562369 93.746548 
L 196.174752 92.967614 
L 202.104958 91.721164 
L 206.717341 90.813841 
L 209.352989 90.520063 
L 211.988636 90.468681 
L 215.283195 90.680098 
L 220.55449 91.060718 
L 223.849049 91.002057 
L 231.09708 90.682599 
L 234.391639 90.889337 
L 239.662934 91.502125 
L 242.298581 91.950082 
L 244.275316 92.478558 
L 245.59314 92.994806 
L 246.910964 93.700558 
L 248.228787 94.651238 
L 249.546611 95.899161 
L 250.864435 97.481434 
L 252.182259 99.40525 
L 254.158994 102.83988 
L 258.771377 111.389181 
L 260.089201 113.32802 
L 261.407024 114.861377 
L 262.724848 115.979504 
L 264.042672 116.730712 
L 265.360495 117.20825 
L 269.972878 118.49681 
L 271.290702 119.216237 
L 272.608526 120.216006 
L 273.926349 121.498004 
L 275.903085 123.848781 
L 280.515468 129.766846 
L 282.492203 131.818109 
L 284.468939 133.429586 
L 286.445674 134.699908 
L 292.375881 138.212493 
L 298.965 142.719278 
L 300.282823 143.288494 
L 301.600647 143.640916 
L 302.918471 143.769787 
L 304.236294 143.692997 
L 306.21303 143.277596 
L 309.507589 142.205356 
L 312.143236 141.403394 
L 314.119972 140.98904 
L 316.096707 140.81467 
L 317.414531 140.868073 
L 318.732355 141.08315 
L 320.050179 141.477979 
L 321.368002 142.0623 
L 322.685826 142.834307 
L 324.662561 144.309975 
L 326.639297 146.079902 
L 333.228415 152.268864 
L 335.205151 153.710827 
L 337.840798 155.285511 
L 341.794269 157.550608 
L 347.724476 161.244842 
L 349.0423 161.659983 
L 350.360123 161.724867 
L 351.677947 161.374346 
L 352.995771 160.584101 
L 354.313594 159.377718 
L 355.631418 157.825302 
L 357.608154 155.085636 
L 360.902713 150.433252 
L 362.879448 148.080396 
L 364.856184 146.166337 
L 366.832919 144.600548 
L 369.468567 142.813884 
L 374.739862 139.334327 
L 376.716597 137.659139 
L 378.034421 136.230082 
L 379.352245 134.436461 
L 380.670068 132.195455 
L 381.987892 129.465011 
L 383.305716 126.265219 
L 385.282451 120.803681 
L 388.57701 111.409287 
L 389.894834 108.10495 
L 391.212658 105.264689 
L 392.530481 102.938845 
L 393.848305 101.116247 
L 395.166129 99.740392 
L 396.483952 98.730259 
L 397.801776 97.999455 
L 399.778512 97.259996 
L 401.755247 96.777626 
L 405.049806 96.234708 
L 411.638925 95.239005 
L 414.933484 94.49824 
L 429.429545 90.698276 
L 432.724104 89.374009 
L 438.654311 86.867731 
L 441.94887 85.747246 
L 446.561253 84.458229 
L 451.173636 83.382509 
L 454.468195 82.80218 
L 457.103842 82.533532 
L 459.080578 82.543412 
L 461.057313 82.837734 
L 462.375137 83.232372 
L 463.692961 83.800232 
L 465.669696 84.967906 
L 467.646432 86.451377 
L 474.23555 91.752507 
L 475.553374 92.461732 
L 476.871197 92.948909 
L 478.189021 93.203153 
L 479.506845 93.237458 
L 480.824669 93.086494 
L 482.801404 92.624267 
L 487.413787 91.367356 
L 489.390523 91.050251 
L 491.367258 90.951528 
L 493.343994 91.103909 
L 495.320729 91.545843 
L 497.297465 92.312311 
L 499.2742 93.416351 
L 501.250936 94.84891 
L 503.227671 96.615143 
L 505.204407 98.783635 
L 506.52223 100.522608 
L 507.840054 102.556507 
L 509.157878 104.929532 
L 510.475702 107.66437 
L 512.452437 112.419943 
L 514.429173 117.811246 
L 522.336115 140.244514 
L 524.31285 144.827066 
L 525.630674 147.458462 
L 526.948498 149.703379 
L 528.266321 151.531066 
L 529.584145 152.925372 
L 530.901969 153.890561 
L 532.219792 154.456072 
L 533.537616 154.676888 
L 534.85544 154.628664 
L 536.832175 154.242746 
L 540.785646 153.317162 
L 542.762382 153.128286 
L 544.739117 153.216762 
L 546.715853 153.574383 
L 549.3515 154.371171 
L 555.940619 156.835539 
L 559.235178 158.176305 
L 561.870825 159.531987 
L 568.459944 163.307565 
L 569.777768 163.746964 
L 571.095591 163.990707 
L 572.413415 164.045455 
L 574.39015 163.852357 
L 579.661445 163.020522 
L 582.297093 162.918048 
L 585.591652 162.843986 
L 587.568387 162.590535 
L 589.545123 162.05361 
L 591.521858 161.192029 
L 593.498594 160.022811 
L 596.134241 158.108956 
L 602.72336 153.036877 
L 606.017919 150.90148 
L 609.312478 149.059018 
L 612.607037 147.458889 
L 615.901597 146.106257 
L 621.172891 144.28591 
L 623.808539 143.212866 
L 625.126362 142.484893 
L 626.444186 141.526669 
L 627.76201 140.238691 
L 629.079834 138.513614 
L 630.397657 136.254363 
L 631.715481 133.398334 
L 633.033305 129.942 
L 635.01004 123.81236 
L 639.622423 108.464237 
L 640.940247 104.79183 
L 642.25807 101.706081 
L 643.575894 99.237183 
L 644.893718 97.349947 
L 646.211541 95.965098 
L 647.529365 94.982992 
L 648.847189 94.30353 
L 650.165013 93.839148 
L 652.141748 93.399585 
L 654.777395 93.068827 
L 660.04869 92.705048 
L 667.955632 92.159145 
L 671.909103 91.693251 
L 675.203663 91.093699 
L 678.498222 90.244577 
L 686.405164 88.012974 
L 689.040811 87.565045 
L 692.994282 87.143599 
L 696.947754 86.687561 
L 698.924489 86.285616 
L 700.901225 85.673548 
L 702.87796 84.818478 
L 706.172519 83.034477 
L 708.149255 82.044306 
L 709.467079 81.56223 
L 710.784902 81.287231 
L 712.102726 81.243052 
L 713.42055 81.420025 
L 715.397285 82.010154 
L 718.032933 83.110884 
L 723.304227 85.556905 
L 725.939875 87.021532 
L 732.528993 90.978021 
L 734.505729 91.871583 
L 741.094847 94.509825 
L 743.071583 95.718383 
L 745.048318 97.234455 
L 747.683966 99.646469 
L 750.978525 103.071006 
L 753.614172 106.120802 
L 756.24982 109.589811 
L 759.544379 114.455255 
L 762.180026 118.233162 
L 764.156762 120.597407 
L 765.474585 121.855671 
L 766.792409 122.849119 
L 768.110233 123.60056 
L 769.428056 124.151255 
L 771.404792 124.708623 
L 774.699351 125.287983 
L 781.28847 126.392749 
L 787.218676 127.63827 
L 791.831059 128.63314 
L 793.807795 128.878809 
L 796.443442 128.942407 
L 806.32712 128.719894 
L 808.962767 128.644271 
L 811.598414 128.339738 
L 814.892974 127.67003 
L 818.846445 126.855942 
L 820.82318 126.647371 
L 822.799916 126.638905 
L 825.435563 126.897915 
L 833.342505 127.981819 
L 835.319241 128.043326 
L 837.295976 127.870053 
L 838.6138 127.539806 
L 839.931624 126.962889 
L 841.249447 126.075762 
L 842.567271 124.831785 
L 843.885095 123.218528 
L 845.202919 121.271541 
L 847.838566 116.772073 
L 849.815301 113.436456 
L 851.133125 111.498246 
L 852.450949 109.892708 
L 853.768772 108.639491 
L 855.086596 107.696567 
L 857.063332 106.662521 
L 859.698979 105.402787 
L 861.016803 104.60849 
L 862.334626 103.633033 
L 864.311362 101.827901 
L 867.605921 98.308064 
L 869.582657 96.29935 
L 871.559392 94.635588 
L 872.877216 93.766588 
L 874.19504 93.087414 
L 876.171775 92.373337 
L 878.148511 91.928996 
L 880.784158 91.586146 
L 884.737629 91.318014 
L 891.985659 91.079597 
L 911.094103 90.595899 
L 913.070838 90.311936 
L 915.047574 89.816478 
L 916.365398 89.319861 
L 917.683221 88.652513 
L 919.001045 87.781486 
L 920.318869 86.677785 
L 921.636692 85.321453 
L 922.954516 83.707591 
L 924.931252 80.842627 
L 927.566899 76.439968 
L 931.52037 69.725638 
L 933.497106 66.81195 
L 934.814929 65.158196 
L 936.132753 63.798764 
L 937.450577 62.800089 
L 938.7684 62.241894 
L 939.427312 62.155152 
L 940.086224 62.210851 
L 940.745136 62.418392 
L 941.404048 62.785323 
L 942.06296 63.316579 
L 942.721871 64.013772 
L 944.039695 65.892303 
L 945.357519 68.348914 
L 947.334254 72.791346 
L 950.628814 80.477727 
L 951.946637 83.0756 
L 953.264461 85.218005 
L 954.582285 86.877953 
L 955.900108 88.087819 
L 957.217932 88.918679 
L 958.535756 89.457338 
L 959.853579 89.787133 
L 961.830315 90.037402 
L 965.124874 90.145506 
L 973.690728 90.231473 
L 975.667464 90.527145 
L 976.985287 90.918517 
L 978.303111 91.549015 
L 979.620935 92.503994 
L 980.938758 93.870001 
L 982.256582 95.720701 
L 983.574406 98.101229 
L 984.89223 101.015233 
L 986.210053 104.418302 
L 988.186789 110.228968 
L 992.799172 124.49307 
L 994.116995 128.029998 
L 995.434819 131.087227 
L 996.752643 133.595622 
L 998.070466 135.537905 
L 999.38829 136.94725 
L 1000.706114 137.897832 
L 1002.023937 138.48859 
L 1003.341761 138.825286 
L 1005.318497 139.064176 
L 1009.271968 139.445698 
L 1011.248703 139.873148 
L 1013.225439 140.52356 
L 1019.155645 142.811703 
L 1020.473469 143.053025 
L 1021.132381 143.102983 
L 1021.132381 143.102983 
" clip-path="url(#p5f5b13f140)" style="fill: none; stroke: #0000ff; stroke-width: 1.5; stroke-linecap: square"/>
   </g>
   <g id="line2d_14">
    <path d="M 59.78 136.904988 
L 61.097824 137.132722 
L 62.415647 137.65815 
L 63.733471 138.467331 
L 65.051295 139.538992 
L 66.369118 140.844637 
L 68.345854 143.159709 
L 71.640413 147.537715 
L 74.276061 150.910852 
L 76.252796 153.005455 
L 77.57062 154.098966 
L 78.888443 154.920699 
L 80.206267 155.467784 
L 81.524091 155.753638 
L 82.841915 155.802516 
L 84.159738 155.643836 
L 85.477562 155.307823 
L 87.454297 154.533074 
L 89.431033 153.510034 
L 92.725592 151.472727 
L 97.996887 148.131997 
L 100.632534 146.703581 
L 103.268182 145.497092 
L 106.562741 144.271772 
L 109.8573 143.289201 
L 115.787507 141.817101 
L 122.376625 140.094536 
L 128.306832 138.539824 
L 132.260303 137.734072 
L 138.190509 136.80886 
L 144.120716 135.831853 
L 146.756363 135.222185 
L 148.733099 134.604081 
L 150.709835 133.747657 
L 152.027658 132.973117 
L 153.345482 131.968803 
L 154.663306 130.668588 
L 155.981129 129.007876 
L 157.298953 126.936661 
L 158.616777 124.434567 
L 159.9346 121.523871 
L 161.911336 116.561572 
L 165.864807 106.203745 
L 167.182631 103.183074 
L 168.500454 100.569512 
L 169.818278 98.410966 
L 171.136102 96.709402 
L 172.453925 95.430582 
L 173.771749 94.517198 
L 175.089573 93.901476 
L 176.407396 93.514672 
L 178.384132 93.225698 
L 181.678691 93.095452 
L 185.632162 92.900153 
L 188.926721 92.519101 
L 192.880193 91.860977 
L 196.174752 91.122272 
L 199.469311 90.149557 
L 205.399518 88.308174 
L 207.376253 87.963929 
L 209.352989 87.869487 
L 211.329724 88.027492 
L 213.965372 88.517299 
L 217.918843 89.270336 
L 219.895578 89.405959 
L 221.872314 89.316245 
L 224.507961 88.927364 
L 228.461432 88.282595 
L 231.09708 88.135243 
L 233.732727 88.256151 
L 239.662934 88.886216 
L 242.298581 89.264248 
L 244.275316 89.747021 
L 245.59314 90.247771 
L 246.910964 90.950421 
L 248.228787 91.901853 
L 249.546611 93.137804 
L 250.864435 94.674804 
L 252.182259 96.502873 
L 254.158994 99.692534 
L 259.430289 108.631073 
L 260.748113 110.402119 
L 262.065936 111.848849 
L 263.38376 112.967223 
L 264.701584 113.794765 
L 266.678319 114.655726 
L 269.972878 115.9126 
L 271.290702 116.634318 
L 272.608526 117.581027 
L 273.926349 118.775382 
L 275.903085 120.99423 
L 278.538732 124.460183 
L 281.833292 128.787904 
L 283.810027 131.049452 
L 285.786763 132.985422 
L 287.763498 134.63436 
L 290.399146 136.509628 
L 293.693705 138.511149 
L 296.329352 139.86854 
L 298.965 140.941104 
L 300.941735 141.506475 
L 302.918471 141.843287 
L 304.895206 141.958067 
L 307.530853 141.82684 
L 311.484325 141.311542 
L 314.119972 141.02447 
L 316.096707 140.990966 
L 318.073443 141.210995 
L 320.050179 141.746136 
L 322.026914 142.613854 
L 324.00365 143.781976 
L 326.639297 145.682529 
L 331.25168 149.410651 
L 338.49971 155.202417 
L 343.771005 159.243643 
L 345.74774 160.552343 
L 347.065564 161.26033 
L 348.383388 161.769832 
L 349.701212 162.017755 
L 351.019035 161.944309 
L 352.336859 161.503124 
L 353.654683 160.671592 
L 354.972506 159.458932 
L 356.29033 157.90932 
L 358.267066 155.125815 
L 362.879448 148.261465 
L 364.856184 145.833218 
L 366.832919 143.868173 
L 368.809655 142.296577 
L 371.445302 140.554176 
L 374.08095 138.81907 
L 376.057685 137.237354 
L 377.375509 135.926463 
L 378.693333 134.331349 
L 380.011156 132.39231 
L 381.32898 130.06947 
L 382.646804 127.355599 
L 384.623539 122.641544 
L 390.553746 107.518933 
L 391.87157 104.83776 
L 393.189393 102.602554 
L 394.507217 100.824149 
L 395.825041 99.472689 
L 397.142864 98.489426 
L 398.460688 97.800637 
L 399.778512 97.330431 
L 401.755247 96.888529 
L 405.049806 96.461992 
L 410.321101 95.781735 
L 413.61566 95.099976 
L 416.91022 94.14639 
L 420.863691 92.74351 
L 429.429545 89.642628 
L 439.313222 86.4312 
L 443.925605 84.379436 
L 447.220164 83.036527 
L 449.1969 82.423748 
L 451.173636 82.001363 
L 453.150371 81.794367 
L 455.127107 81.833221 
L 457.103842 82.154124 
L 459.080578 82.78125 
L 461.057313 83.70395 
L 463.034049 84.867332 
L 466.328608 87.100521 
L 470.282079 89.761073 
L 472.917726 91.251342 
L 474.894462 92.106854 
L 476.871197 92.677347 
L 478.847933 92.942747 
L 480.824669 92.926725 
L 482.801404 92.690421 
L 486.095963 92.02395 
L 490.049434 91.217513 
L 492.02617 90.992578 
L 494.002905 91.008517 
L 495.320729 91.204612 
L 496.638553 91.585103 
L 497.956377 92.177591 
L 499.2742 93.004408 
L 500.592024 94.081376 
L 501.909848 95.417732 
L 503.227671 97.017202 
L 504.545495 98.879636 
L 506.52223 102.160085 
L 508.498966 106.00799 
L 510.475702 110.387278 
L 513.111349 116.927599 
L 517.06482 127.625402 
L 521.018291 138.197384 
L 522.995027 143.012049 
L 524.971762 147.295075 
L 526.289586 149.773941 
L 527.60741 151.898503 
L 528.925233 153.633419 
L 530.243057 154.960124 
L 531.560881 155.88248 
L 532.878704 156.428858 
L 534.196528 156.649317 
L 535.514352 156.608405 
L 537.491087 156.207825 
L 540.126735 155.351291 
L 550.010412 151.914953 
L 561.870825 148.033201 
L 564.506473 147.421428 
L 567.14212 147.069065 
L 569.777768 146.984519 
L 579.002533 147.089058 
L 582.297093 146.748936 
L 594.816418 145.002343 
L 599.428801 144.155115 
L 604.041183 143.056227 
L 607.994655 141.8849 
L 611.948126 140.456345 
L 615.242685 139.051707 
L 618.537244 137.413956 
L 621.172891 135.865645 
L 623.808539 134.026166 
L 626.444186 131.841923 
L 629.079834 129.304016 
L 631.715481 126.44529 
L 635.01004 122.502309 
L 638.963511 117.364661 
L 652.80066 98.862432 
L 657.413043 93.412496 
L 661.366514 89.095312 
L 664.002161 86.503958 
L 666.637809 84.256965 
L 668.614544 82.846688 
L 670.59128 81.684442 
L 672.568015 80.749247 
L 675.203663 79.764593 
L 680.474957 78.13386 
L 685.08734 76.832235 
L 687.722988 76.290308 
L 690.358635 76.000617 
L 692.335371 75.995294 
L 694.312106 76.221985 
L 696.288842 76.735228 
L 698.265577 77.576005 
L 700.242313 78.747153 
L 702.219048 80.204849 
L 704.854696 82.462315 
L 709.467079 86.814346 
L 718.691844 95.916143 
L 727.91661 105.188789 
L 733.187905 110.906247 
L 739.777023 118.008687 
L 743.071583 121.253411 
L 746.366142 124.183655 
L 749.660701 126.786399 
L 752.95526 129.094404 
L 756.908731 131.549611 
L 760.862202 133.734465 
L 764.156762 135.333548 
L 766.792409 136.387828 
L 768.769145 136.9876 
L 770.74588 137.386078 
L 772.722616 137.569678 
L 774.699351 137.551003 
L 777.334999 137.274611 
L 780.629558 136.679008 
L 787.218676 135.206545 
L 808.962767 130.034698 
L 818.187533 127.638801 
L 826.094475 125.316844 
L 837.954888 121.614085 
L 841.249447 120.291556 
L 844.544007 118.701318 
L 849.15639 116.167438 
L 856.40442 112.160258 
L 859.698979 110.556805 
L 862.334626 109.481646 
L 864.970274 108.658754 
L 867.605921 108.107559 
L 870.241569 107.788184 
L 874.19504 107.577376 
L 890.667836 107.034116 
L 894.621307 106.513276 
L 908.458456 104.381164 
L 923.613428 102.511798 
L 936.791665 100.508005 
L 939.427312 99.876762 
L 941.404048 99.123787 
L 942.721871 98.393439 
L 944.039695 97.409882 
L 945.357519 96.114245 
L 946.675343 94.458965 
L 947.993166 92.416544 
L 949.31099 89.985457 
L 951.287725 85.672453 
L 953.264461 80.721686 
L 956.55902 71.639469 
L 964.465962 49.324712 
L 966.442698 44.442588 
L 967.760522 41.625291 
L 969.078345 39.289719 
L 970.396169 37.544337 
L 971.055081 36.92213 
L 971.713993 36.479104 
L 972.372904 36.221808 
L 973.031816 36.154545 
L 973.690728 36.279328 
L 974.34964 36.595951 
L 975.008552 37.102121 
L 975.667464 37.793708 
L 976.985287 39.709008 
L 978.303111 42.28275 
L 979.620935 45.444941 
L 980.938758 49.121794 
L 982.915494 55.440152 
L 985.551141 64.967124 
L 992.799172 92.195604 
L 994.775907 98.426485 
L 996.752643 103.750944 
L 998.070466 106.792043 
L 1000.047202 110.670834 
L 1002.023937 113.890761 
L 1004.000673 116.645701 
L 1006.63632 119.85495 
L 1009.271968 122.714794 
L 1012.566527 125.944414 
L 1015.202174 128.277748 
L 1017.17891 129.771201 
L 1018.496734 130.549837 
L 1019.814557 131.083427 
L 1021.132381 131.322214 
L 1021.132381 131.322214 
" clip-path="url(#p5f5b13f140)" style="fill: none; stroke: #ff0000; stroke-width: 1.5; stroke-linecap: square"/>
   </g>
   <g id="line2d_15">
    <path d="M 540.785646 170.44 
L 540.785646 29.76 
" clip-path="url(#p5f5b13f140)" style="fill: none; stroke: #1f77b4; stroke-width: 1.5; stroke-linecap: square"/>
   </g>
   <g id="patch_3">
    <path d="M 59.78 170.44 
L 59.78 29.76 
" style="fill: none; stroke: #000000; stroke-width: 0.8; stroke-linejoin: miter; stroke-linecap: square"/>
   </g>
   <g id="patch_4">
    <path d="M 1069.2 170.44 
L 1069.2 29.76 
" style="fill: none; stroke: #000000; stroke-width: 0.8; stroke-linejoin: miter; stroke-linecap: square"/>
   </g>
   <g id="patch_5">
    <path d="M 59.78 170.44 
L 1069.2 170.44 
" style="fill: none; stroke: #000000; stroke-width: 0.8; stroke-linejoin: miter; stroke-linecap: square"/>
   </g>
   <g id="patch_6">
    <path d="M 59.78 29.76 
L 1069.2 29.76 
" style="fill: none; stroke: #000000; stroke-width: 0.8; stroke-linejoin: miter; stroke-linecap: square"/>
   </g>
   <g id="text_15">
    <!-- Heat Conduction Equation Solution at x=1.5M -->
    <g transform="translate(380.255 23.76) scale(0.16 -0.16)">
     <defs>
      <path id="DejaVuSans-48" d="M 628 4666 
L 1259 4666 
L 1259 2753 
L 3553 2753 
L 3553 4666 
L 4184 4666 
L 4184 0 
L 3553 0 
L 3553 2222 
L 1259 2222 
L 1259 0 
L 628 0 
L 628 4666 
z
" transform="scale(0.015625)"/>
      <path id="DejaVuSans-43" d="M 4122 4306 
L 4122 3641 
Q 3803 3938 3442 4084 
Q 3081 4231 2675 4231 
Q 1875 4231 1450 3742 
Q 1025 3253 1025 2328 
Q 1025 1406 1450 917 
Q 1875 428 2675 428 
Q 3081 428 3442 575 
Q 3803 722 4122 1019 
L 4122 359 
Q 3791 134 3420 21 
Q 3050 -91 2638 -91 
Q 1578 -91 968 557 
Q 359 1206 359 2328 
Q 359 3453 968 4101 
Q 1578 4750 2638 4750 
Q 3056 4750 3426 4639 
Q 3797 4528 4122 4306 
z
" transform="scale(0.015625)"/>
      <path id="DejaVuSans-64" d="M 2906 2969 
L 2906 4863 
L 3481 4863 
L 3481 0 
L 2906 0 
L 2906 525 
Q 2725 213 2448 61 
Q 2172 -91 1784 -91 
Q 1150 -91 751 415 
Q 353 922 353 1747 
Q 353 2572 751 3078 
Q 1150 3584 1784 3584 
Q 2172 3584 2448 3432 
Q 2725 3281 2906 2969 
z
M 947 1747 
Q 947 1113 1208 752 
Q 1469 391 1925 391 
Q 2381 391 2643 752 
Q 2906 1113 2906 1747 
Q 2906 2381 2643 2742 
Q 2381 3103 1925 3103 
Q 1469 3103 1208 2742 
Q 947 2381 947 1747 
z
" transform="scale(0.015625)"/>
      <path id="DejaVuSans-63" d="M 3122 3366 
L 3122 2828 
Q 2878 2963 2633 3030 
Q 2388 3097 2138 3097 
Q 1578 3097 1268 2742 
Q 959 2388 959 1747 
Q 959 1106 1268 751 
Q 1578 397 2138 397 
Q 2388 397 2633 464 
Q 2878 531 3122 666 
L 3122 134 
Q 2881 22 2623 -34 
Q 2366 -91 2075 -91 
Q 1284 -91 818 406 
Q 353 903 353 1747 
Q 353 2603 823 3093 
Q 1294 3584 2113 3584 
Q 2378 3584 2631 3529 
Q 2884 3475 3122 3366 
z
" transform="scale(0.015625)"/>
      <path id="DejaVuSans-45" d="M 628 4666 
L 3578 4666 
L 3578 4134 
L 1259 4134 
L 1259 2753 
L 3481 2753 
L 3481 2222 
L 1259 2222 
L 1259 531 
L 3634 531 
L 3634 0 
L 628 0 
L 628 4666 
z
" transform="scale(0.015625)"/>
      <path id="DejaVuSans-71" d="M 947 1747 
Q 947 1113 1208 752 
Q 1469 391 1925 391 
Q 2381 391 2643 752 
Q 2906 1113 2906 1747 
Q 2906 2381 2643 2742 
Q 2381 3103 1925 3103 
Q 1469 3103 1208 2742 
Q 947 2381 947 1747 
z
M 2906 525 
Q 2725 213 2448 61 
Q 2172 -91 1784 -91 
Q 1150 -91 751 415 
Q 353 922 353 1747 
Q 353 2572 751 3078 
Q 1150 3584 1784 3584 
Q 2172 3584 2448 3432 
Q 2725 3281 2906 2969 
L 2906 3500 
L 3481 3500 
L 3481 -1331 
L 2906 -1331 
L 2906 525 
z
" transform="scale(0.015625)"/>
      <path id="DejaVuSans-78" d="M 3513 3500 
L 2247 1797 
L 3578 0 
L 2900 0 
L 1881 1375 
L 863 0 
L 184 0 
L 1544 1831 
L 300 3500 
L 978 3500 
L 1906 2253 
L 2834 3500 
L 3513 3500 
z
" transform="scale(0.015625)"/>
      <path id="DejaVuSans-3d" d="M 678 2906 
L 4684 2906 
L 4684 2381 
L 678 2381 
L 678 2906 
z
M 678 1631 
L 4684 1631 
L 4684 1100 
L 678 1100 
L 678 1631 
z
" transform="scale(0.015625)"/>
      <path id="DejaVuSans-4d" d="M 628 4666 
L 1569 4666 
L 2759 1491 
L 3956 4666 
L 4897 4666 
L 4897 0 
L 4281 0 
L 4281 4097 
L 3078 897 
L 2444 897 
L 1241 4097 
L 1241 0 
L 628 0 
L 628 4666 
z
" transform="scale(0.015625)"/>
     </defs>
     <use xlink:href="#DejaVuSans-48"/>
     <use xlink:href="#DejaVuSans-65" transform="translate(75.195312 0)"/>
     <use xlink:href="#DejaVuSans-61" transform="translate(136.71875 0)"/>
     <use xlink:href="#DejaVuSans-74" transform="translate(197.998047 0)"/>
     <use xlink:href="#DejaVuSans-20" transform="translate(237.207031 0)"/>
     <use xlink:href="#DejaVuSans-43" transform="translate(268.994141 0)"/>
     <use xlink:href="#DejaVuSans-6f" transform="translate(338.818359 0)"/>
     <use xlink:href="#DejaVuSans-6e" transform="translate(400 0)"/>
     <use xlink:href="#DejaVuSans-64" transform="translate(463.378906 0)"/>
     <use xlink:href="#DejaVuSans-75" transform="translate(526.855469 0)"/>
     <use xlink:href="#DejaVuSans-63" transform="translate(590.234375 0)"/>
     <use xlink:href="#DejaVuSans-74" transform="translate(645.214844 0)"/>
     <use xlink:href="#DejaVuSans-69" transform="translate(684.423828 0)"/>
     <use xlink:href="#DejaVuSans-6f" transform="translate(712.207031 0)"/>
     <use xlink:href="#DejaVuSans-6e" transform="translate(773.388672 0)"/>
     <use xlink:href="#DejaVuSans-20" transform="translate(836.767578 0)"/>
     <use xlink:href="#DejaVuSans-45" transform="translate(868.554688 0)"/>
     <use xlink:href="#DejaVuSans-71" transform="translate(931.738281 0)"/>
     <use xlink:href="#DejaVuSans-75" transform="translate(995.214844 0)"/>
     <use xlink:href="#DejaVuSans-61" transform="translate(1058.59375 0)"/>
     <use xlink:href="#DejaVuSans-74" transform="translate(1119.873047 0)"/>
     <use xlink:href="#DejaVuSans-69" transform="translate(1159.082031 0)"/>
     <use xlink:href="#DejaVuSans-6f" transform="translate(1186.865234 0)"/>
     <use xlink:href="#DejaVuSans-6e" transform="translate(1248.046875 0)"/>
     <use xlink:href="#DejaVuSans-20" transform="translate(1311.425781 0)"/>
     <use xlink:href="#DejaVuSans-53" transform="translate(1343.212891 0)"/>
     <use xlink:href="#DejaVuSans-6f" transform="translate(1406.689453 0)"/>
     <use xlink:href="#DejaVuSans-6c" transform="translate(1467.871094 0)"/>
     <use xlink:href="#DejaVuSans-75" transform="translate(1495.654297 0)"/>
     <use xlink:href="#DejaVuSans-74" transform="translate(1559.033203 0)"/>
     <use xlink:href="#DejaVuSans-69" transform="translate(1598.242188 0)"/>
     <use xlink:href="#DejaVuSans-6f" transform="translate(1626.025391 0)"/>
     <use xlink:href="#DejaVuSans-6e" transform="translate(1687.207031 0)"/>
     <use xlink:href="#DejaVuSans-20" transform="translate(1750.585938 0)"/>
     <use xlink:href="#DejaVuSans-61" transform="translate(1782.373047 0)"/>
     <use xlink:href="#DejaVuSans-74" transform="translate(1843.652344 0)"/>
     <use xlink:href="#DejaVuSans-20" transform="translate(1882.861328 0)"/>
     <use xlink:href="#DejaVuSans-78" transform="translate(1914.648438 0)"/>
     <use xlink:href="#DejaVuSans-3d" transform="translate(1973.828125 0)"/>
     <use xlink:href="#DejaVuSans-31" transform="translate(2057.617188 0)"/>
     <use xlink:href="#DejaVuSans-2e" transform="translate(2121.240234 0)"/>
     <use xlink:href="#DejaVuSans-35" transform="translate(2153.027344 0)"/>
     <use xlink:href="#DejaVuSans-4d" transform="translate(2216.650391 0)"/>
    </g>
   </g>
   <g id="legend_1">
    <g id="patch_7">
     <path d="M 68.18 74.5875 
L 179.654375 74.5875 
Q 182.054375 74.5875 182.054375 72.1875 
L 182.054375 38.16 
Q 182.054375 35.76 179.654375 35.76 
L 68.18 35.76 
Q 65.78 35.76 65.78 38.16 
L 65.78 72.1875 
Q 65.78 74.5875 68.18 74.5875 
z
" style="fill: #ffffff; opacity: 0.8; stroke: #cccccc; stroke-linejoin: miter"/>
    </g>
    <g id="line2d_16">
     <path d="M 70.58 45.478125 
L 82.58 45.478125 
L 94.58 45.478125 
" style="fill: none; stroke: #0000ff; stroke-width: 1.5; stroke-linecap: square"/>
    </g>
    <g id="text_16">
     <!-- Observation -->
     <g transform="translate(104.18 49.678125) scale(0.12 -0.12)">
      <defs>
       <path id="DejaVuSans-4f" d="M 2522 4238 
Q 1834 4238 1429 3725 
Q 1025 3213 1025 2328 
Q 1025 1447 1429 934 
Q 1834 422 2522 422 
Q 3209 422 3611 934 
Q 4013 1447 4013 2328 
Q 4013 3213 3611 3725 
Q 3209 4238 2522 4238 
z
M 2522 4750 
Q 3503 4750 4090 4092 
Q 4678 3434 4678 2328 
Q 4678 1225 4090 567 
Q 3503 -91 2522 -91 
Q 1538 -91 948 565 
Q 359 1222 359 2328 
Q 359 3434 948 4092 
Q 1538 4750 2522 4750 
z
" transform="scale(0.015625)"/>
       <path id="DejaVuSans-62" d="M 3116 1747 
Q 3116 2381 2855 2742 
Q 2594 3103 2138 3103 
Q 1681 3103 1420 2742 
Q 1159 2381 1159 1747 
Q 1159 1113 1420 752 
Q 1681 391 2138 391 
Q 2594 391 2855 752 
Q 3116 1113 3116 1747 
z
M 1159 2969 
Q 1341 3281 1617 3432 
Q 1894 3584 2278 3584 
Q 2916 3584 3314 3078 
Q 3713 2572 3713 1747 
Q 3713 922 3314 415 
Q 2916 -91 2278 -91 
Q 1894 -91 1617 61 
Q 1341 213 1159 525 
L 1159 0 
L 581 0 
L 581 4863 
L 1159 4863 
L 1159 2969 
z
" transform="scale(0.015625)"/>
       <path id="DejaVuSans-76" d="M 191 3500 
L 800 3500 
L 1894 563 
L 2988 3500 
L 3597 3500 
L 2284 0 
L 1503 0 
L 191 3500 
z
" transform="scale(0.015625)"/>
      </defs>
      <use xlink:href="#DejaVuSans-4f"/>
      <use xlink:href="#DejaVuSans-62" transform="translate(78.710938 0)"/>
      <use xlink:href="#DejaVuSans-73" transform="translate(142.1875 0)"/>
      <use xlink:href="#DejaVuSans-65" transform="translate(194.287109 0)"/>
      <use xlink:href="#DejaVuSans-72" transform="translate(255.810547 0)"/>
      <use xlink:href="#DejaVuSans-76" transform="translate(296.923828 0)"/>
      <use xlink:href="#DejaVuSans-61" transform="translate(356.103516 0)"/>
      <use xlink:href="#DejaVuSans-74" transform="translate(417.382812 0)"/>
      <use xlink:href="#DejaVuSans-69" transform="translate(456.591797 0)"/>
      <use xlink:href="#DejaVuSans-6f" transform="translate(484.375 0)"/>
      <use xlink:href="#DejaVuSans-6e" transform="translate(545.556641 0)"/>
     </g>
    </g>
    <g id="line2d_17">
     <path d="M 70.58 63.091875 
L 82.58 63.091875 
L 94.58 63.091875 
" style="fill: none; stroke: #ff0000; stroke-width: 1.5; stroke-linecap: square"/>
    </g>
    <g id="text_17">
     <!-- Predicted -->
     <g transform="translate(104.18 67.291875) scale(0.12 -0.12)">
      <defs>
       <path id="DejaVuSans-50" d="M 1259 4147 
L 1259 2394 
L 2053 2394 
Q 2494 2394 2734 2622 
Q 2975 2850 2975 3272 
Q 2975 3691 2734 3919 
Q 2494 4147 2053 4147 
L 1259 4147 
z
M 628 4666 
L 2053 4666 
Q 2838 4666 3239 4311 
Q 3641 3956 3641 3272 
Q 3641 2581 3239 2228 
Q 2838 1875 2053 1875 
L 1259 1875 
L 1259 0 
L 628 0 
L 628 4666 
z
" transform="scale(0.015625)"/>
      </defs>
      <use xlink:href="#DejaVuSans-50"/>
      <use xlink:href="#DejaVuSans-72" transform="translate(58.552734 0)"/>
      <use xlink:href="#DejaVuSans-65" transform="translate(97.416016 0)"/>
      <use xlink:href="#DejaVuSans-64" transform="translate(158.939453 0)"/>
      <use xlink:href="#DejaVuSans-69" transform="translate(222.416016 0)"/>
      <use xlink:href="#DejaVuSans-63" transform="translate(250.199219 0)"/>
      <use xlink:href="#DejaVuSans-74" transform="translate(305.179688 0)"/>
      <use xlink:href="#DejaVuSans-65" transform="translate(344.388672 0)"/>
      <use xlink:href="#DejaVuSans-64" transform="translate(405.912109 0)"/>
     </g>
    </g>
   </g>
  </g>
 </g>
 <defs>
  <clipPath id="p5f5b13f140">
   <rect x="59.78" y="29.76" width="1009.42" height="140.68"/>
  </clipPath>
 </defs>
</svg>
