<?xml version="1.0" encoding="utf-8" standalone="no"?>
<!DOCTYPE svg PUBLIC "-//W3C//DTD SVG 1.1//EN"
  "http://www.w3.org/Graphics/SVG/1.1/DTD/svg11.dtd">
<svg xmlns:xlink="http://www.w3.org/1999/xlink" width="1080pt" height="216pt" viewBox="0 0 1080 216" xmlns="http://www.w3.org/2000/svg" version="1.1">
 <metadata>
  <rdf:RDF xmlns:dc="http://purl.org/dc/elements/1.1/" xmlns:cc="http://creativecommons.org/ns#" xmlns:rdf="http://www.w3.org/1999/02/22-rdf-syntax-ns#">
   <cc:Work>
    <dc:type rdf:resource="http://purl.org/dc/dcmitype/StillImage"/>
    <dc:date>2026-02-09T10:07:34.272479</dc:date>
    <dc:format>image/svg+xml</dc:format>
    <dc:creator>
     <cc:Agent>
      <dc:title>Matplotlib v3.10.8, https://matplotlib.org/</dc:title>
     </cc:Agent>
    </dc:creator>
   </cc:Work>
  </rdf:RDF>
 </metadata>
 <defs>
  <style type="text/css">*{stroke-linejoin: round; stroke-linecap: butt}</style>
 </defs>
 <g id="figure_1">
  <g id="patch_1">
   <path d="M 0 216 
L 1080 216 
L 1080 0 
L 0 0 
z
" style="fill: #ffffff"/>
  </g>
  <g id="axes_1">
   <g id="patch_2">
    <path d="M 50.24 170.44 
L 1069.2 170.44 
L 1069.2 29.76 
L 50.24 29.76 
z
" style="fill: #ffffff"/>
   </g>
   <g id="matplotlib.axis_1">
    <g id="xtick_1">
     <g id="line2d_1">
      <defs>
       <path id="m9163ff5b90" d="M 0 0 
L 0 3.5 
" style="stroke: #000000; stroke-width: 0.8"/>
      </defs>
      <g>
       <use xlink:href="#m9163ff5b90" x="50.24" y="170.44" style="stroke: #000000; stroke-width: 0.8"/>
      </g>
     </g>
     <g id="text_1">
      <!-- 0 -->
      <g transform="translate(47.05875 185.038437) scale(0.1 -0.1)">
       <defs>
        <path id="DejaVuSans-30" d="M 2034 4250 
Q 1547 4250 1301 3770 
Q 1056 3291 1056 2328 
Q 1056 1369 1301 889 
Q 1547 409 2034 409 
Q 2525 409 2770 889 
Q 3016 1369 3016 2328 
Q 3016 3291 2770 3770 
Q 2525 4250 2034 4250 
z
M 2034 4750 
Q 2819 4750 3233 4129 
Q 3647 3509 3647 2328 
Q 3647 1150 3233 529 
Q 2819 -91 2034 -91 
Q 1250 -91 836 529 
Q 422 1150 422 2328 
Q 422 3509 836 4129 
Q 1250 4750 2034 4750 
z
" transform="scale(0.015625)"/>
       </defs>
       <use xlink:href="#DejaVuSans-30"/>
      </g>
     </g>
    </g>
    <g id="xtick_2">
     <g id="line2d_2">
      <g>
       <use xlink:href="#m9163ff5b90" x="183.26784" y="170.44" style="stroke: #000000; stroke-width: 0.8"/>
      </g>
     </g>
     <g id="text_2">
      <!-- 200 -->
      <g transform="translate(173.72409 185.038437) scale(0.1 -0.1)">
       <defs>
        <path id="DejaVuSans-32" d="M 1228 531 
L 3431 531 
L 3431 0 
L 469 0 
L 469 531 
Q 828 903 1448 1529 
Q 2069 2156 2228 2338 
Q 2531 2678 2651 2914 
Q 2772 3150 2772 3378 
Q 2772 3750 2511 3984 
Q 2250 4219 1831 4219 
Q 1534 4219 1204 4116 
Q 875 4013 500 3803 
L 500 4441 
Q 881 4594 1212 4672 
Q 1544 4750 1819 4750 
Q 2544 4750 2975 4387 
Q 3406 4025 3406 3419 
Q 3406 3131 3298 2873 
Q 3191 2616 2906 2266 
Q 2828 2175 2409 1742 
Q 1991 1309 1228 531 
z
" transform="scale(0.015625)"/>
       </defs>
       <use xlink:href="#DejaVuSans-32"/>
       <use xlink:href="#DejaVuSans-30" transform="translate(63.623047 0)"/>
       <use xlink:href="#DejaVuSans-30" transform="translate(127.246094 0)"/>
      </g>
     </g>
    </g>
    <g id="xtick_3">
     <g id="line2d_3">
      <g>
       <use xlink:href="#m9163ff5b90" x="316.295681" y="170.44" style="stroke: #000000; stroke-width: 0.8"/>
      </g>
     </g>
     <g id="text_3">
      <!-- 400 -->
      <g transform="translate(306.751931 185.038437) scale(0.1 -0.1)">
       <defs>
        <path id="DejaVuSans-34" d="M 2419 4116 
L 825 1625 
L 2419 1625 
L 2419 4116 
z
M 2253 4666 
L 3047 4666 
L 3047 1625 
L 3713 1625 
L 3713 1100 
L 3047 1100 
L 3047 0 
L 2419 0 
L 2419 1100 
L 313 1100 
L 313 1709 
L 2253 4666 
z
" transform="scale(0.015625)"/>
       </defs>
       <use xlink:href="#DejaVuSans-34"/>
       <use xlink:href="#DejaVuSans-30" transform="translate(63.623047 0)"/>
       <use xlink:href="#DejaVuSans-30" transform="translate(127.246094 0)"/>
      </g>
     </g>
    </g>
    <g id="xtick_4">
     <g id="line2d_4">
      <g>
       <use xlink:href="#m9163ff5b90" x="449.323521" y="170.44" style="stroke: #000000; stroke-width: 0.8"/>
      </g>
     </g>
     <g id="text_4">
      <!-- 600 -->
      <g transform="translate(439.779771 185.038437) scale(0.1 -0.1)">
       <defs>
        <path id="DejaVuSans-36" d="M 2113 2584 
Q 1688 2584 1439 2293 
Q 1191 2003 1191 1497 
Q 1191 994 1439 701 
Q 1688 409 2113 409 
Q 2538 409 2786 701 
Q 3034 994 3034 1497 
Q 3034 2003 2786 2293 
Q 2538 2584 2113 2584 
z
M 3366 4563 
L 3366 3988 
Q 3128 4100 2886 4159 
Q 2644 4219 2406 4219 
Q 1781 4219 1451 3797 
Q 1122 3375 1075 2522 
Q 1259 2794 1537 2939 
Q 1816 3084 2150 3084 
Q 2853 3084 3261 2657 
Q 3669 2231 3669 1497 
Q 3669 778 3244 343 
Q 2819 -91 2113 -91 
Q 1303 -91 875 529 
Q 447 1150 447 2328 
Q 447 3434 972 4092 
Q 1497 4750 2381 4750 
Q 2619 4750 2861 4703 
Q 3103 4656 3366 4563 
z
" transform="scale(0.015625)"/>
       </defs>
       <use xlink:href="#DejaVuSans-36"/>
       <use xlink:href="#DejaVuSans-30" transform="translate(63.623047 0)"/>
       <use xlink:href="#DejaVuSans-30" transform="translate(127.246094 0)"/>
      </g>
     </g>
    </g>
    <g id="xtick_5">
     <g id="line2d_5">
      <g>
       <use xlink:href="#m9163ff5b90" x="582.351361" y="170.44" style="stroke: #000000; stroke-width: 0.8"/>
      </g>
     </g>
     <g id="text_5">
      <!-- 800 -->
      <g transform="translate(572.807611 185.038437) scale(0.1 -0.1)">
       <defs>
        <path id="DejaVuSans-38" d="M 2034 2216 
Q 1584 2216 1326 1975 
Q 1069 1734 1069 1313 
Q 1069 891 1326 650 
Q 1584 409 2034 409 
Q 2484 409 2743 651 
Q 3003 894 3003 1313 
Q 3003 1734 2745 1975 
Q 2488 2216 2034 2216 
z
M 1403 2484 
Q 997 2584 770 2862 
Q 544 3141 544 3541 
Q 544 4100 942 4425 
Q 1341 4750 2034 4750 
Q 2731 4750 3128 4425 
Q 3525 4100 3525 3541 
Q 3525 3141 3298 2862 
Q 3072 2584 2669 2484 
Q 3125 2378 3379 2068 
Q 3634 1759 3634 1313 
Q 3634 634 3220 271 
Q 2806 -91 2034 -91 
Q 1263 -91 848 271 
Q 434 634 434 1313 
Q 434 1759 690 2068 
Q 947 2378 1403 2484 
z
M 1172 3481 
Q 1172 3119 1398 2916 
Q 1625 2713 2034 2713 
Q 2441 2713 2670 2916 
Q 2900 3119 2900 3481 
Q 2900 3844 2670 4047 
Q 2441 4250 2034 4250 
Q 1625 4250 1398 4047 
Q 1172 3844 1172 3481 
z
" transform="scale(0.015625)"/>
       </defs>
       <use xlink:href="#DejaVuSans-38"/>
       <use xlink:href="#DejaVuSans-30" transform="translate(63.623047 0)"/>
       <use xlink:href="#DejaVuSans-30" transform="translate(127.246094 0)"/>
      </g>
     </g>
    </g>
    <g id="xtick_6">
     <g id="line2d_6">
      <g>
       <use xlink:href="#m9163ff5b90" x="715.379202" y="170.44" style="stroke: #000000; stroke-width: 0.8"/>
      </g>
     </g>
     <g id="text_6">
      <!-- 1000 -->
      <g transform="translate(702.654202 185.038437) scale(0.1 -0.1)">
       <defs>
        <path id="DejaVuSans-31" d="M 794 531 
L 1825 531 
L 1825 4091 
L 703 3866 
L 703 4441 
L 1819 4666 
L 2450 4666 
L 2450 531 
L 3481 531 
L 3481 0 
L 794 0 
L 794 531 
z
" transform="scale(0.015625)"/>
       </defs>
       <use xlink:href="#DejaVuSans-31"/>
       <use xlink:href="#DejaVuSans-30" transform="translate(63.623047 0)"/>
       <use xlink:href="#DejaVuSans-30" transform="translate(127.246094 0)"/>
       <use xlink:href="#DejaVuSans-30" transform="translate(190.869141 0)"/>
      </g>
     </g>
    </g>
    <g id="xtick_7">
     <g id="line2d_7">
      <g>
       <use xlink:href="#m9163ff5b90" x="848.407042" y="170.44" style="stroke: #000000; stroke-width: 0.8"/>
      </g>
     </g>
     <g id="text_7">
      <!-- 1200 -->
      <g transform="translate(835.682042 185.038437) scale(0.1 -0.1)">
       <use xlink:href="#DejaVuSans-31"/>
       <use xlink:href="#DejaVuSans-32" transform="translate(63.623047 0)"/>
       <use xlink:href="#DejaVuSans-30" transform="translate(127.246094 0)"/>
       <use xlink:href="#DejaVuSans-30" transform="translate(190.869141 0)"/>
      </g>
     </g>
    </g>
    <g id="xtick_8">
     <g id="line2d_8">
      <g>
       <use xlink:href="#m9163ff5b90" x="981.434882" y="170.44" style="stroke: #000000; stroke-width: 0.8"/>
      </g>
     </g>
     <g id="text_8">
      <!-- 1400 -->
      <g transform="translate(968.709882 185.038437) scale(0.1 -0.1)">
       <use xlink:href="#DejaVuSans-31"/>
       <use xlink:href="#DejaVuSans-34" transform="translate(63.623047 0)"/>
       <use xlink:href="#DejaVuSans-30" transform="translate(127.246094 0)"/>
       <use xlink:href="#DejaVuSans-30" transform="translate(190.869141 0)"/>
      </g>
     </g>
    </g>
    <g id="text_9">
     <!-- Simulation Days -->
     <g transform="translate(502.74 201.755937) scale(0.14 -0.14)">
      <defs>
       <path id="DejaVuSans-53" d="M 3425 4513 
L 3425 3897 
Q 3066 4069 2747 4153 
Q 2428 4238 2131 4238 
Q 1616 4238 1336 4038 
Q 1056 3838 1056 3469 
Q 1056 3159 1242 3001 
Q 1428 2844 1947 2747 
L 2328 2669 
Q 3034 2534 3370 2195 
Q 3706 1856 3706 1288 
Q 3706 609 3251 259 
Q 2797 -91 1919 -91 
Q 1588 -91 1214 -16 
Q 841 59 441 206 
L 441 856 
Q 825 641 1194 531 
Q 1563 422 1919 422 
Q 2459 422 2753 634 
Q 3047 847 3047 1241 
Q 3047 1584 2836 1778 
Q 2625 1972 2144 2069 
L 1759 2144 
Q 1053 2284 737 2584 
Q 422 2884 422 3419 
Q 422 4038 858 4394 
Q 1294 4750 2059 4750 
Q 2388 4750 2728 4690 
Q 3069 4631 3425 4513 
z
" transform="scale(0.015625)"/>
       <path id="DejaVuSans-69" d="M 603 3500 
L 1178 3500 
L 1178 0 
L 603 0 
L 603 3500 
z
M 603 4863 
L 1178 4863 
L 1178 4134 
L 603 4134 
L 603 4863 
z
" transform="scale(0.015625)"/>
       <path id="DejaVuSans-6d" d="M 3328 2828 
Q 3544 3216 3844 3400 
Q 4144 3584 4550 3584 
Q 5097 3584 5394 3201 
Q 5691 2819 5691 2113 
L 5691 0 
L 5113 0 
L 5113 2094 
Q 5113 2597 4934 2840 
Q 4756 3084 4391 3084 
Q 3944 3084 3684 2787 
Q 3425 2491 3425 1978 
L 3425 0 
L 2847 0 
L 2847 2094 
Q 2847 2600 2669 2842 
Q 2491 3084 2119 3084 
Q 1678 3084 1418 2786 
Q 1159 2488 1159 1978 
L 1159 0 
L 581 0 
L 581 3500 
L 1159 3500 
L 1159 2956 
Q 1356 3278 1631 3431 
Q 1906 3584 2284 3584 
Q 2666 3584 2933 3390 
Q 3200 3197 3328 2828 
z
" transform="scale(0.015625)"/>
       <path id="DejaVuSans-75" d="M 544 1381 
L 544 3500 
L 1119 3500 
L 1119 1403 
Q 1119 906 1312 657 
Q 1506 409 1894 409 
Q 2359 409 2629 706 
Q 2900 1003 2900 1516 
L 2900 3500 
L 3475 3500 
L 3475 0 
L 2900 0 
L 2900 538 
Q 2691 219 2414 64 
Q 2138 -91 1772 -91 
Q 1169 -91 856 284 
Q 544 659 544 1381 
z
M 1991 3584 
L 1991 3584 
z
" transform="scale(0.015625)"/>
       <path id="DejaVuSans-6c" d="M 603 4863 
L 1178 4863 
L 1178 0 
L 603 0 
L 603 4863 
z
" transform="scale(0.015625)"/>
       <path id="DejaVuSans-61" d="M 2194 1759 
Q 1497 1759 1228 1600 
Q 959 1441 959 1056 
Q 959 750 1161 570 
Q 1363 391 1709 391 
Q 2188 391 2477 730 
Q 2766 1069 2766 1631 
L 2766 1759 
L 2194 1759 
z
M 3341 1997 
L 3341 0 
L 2766 0 
L 2766 531 
Q 2569 213 2275 61 
Q 1981 -91 1556 -91 
Q 1019 -91 701 211 
Q 384 513 384 1019 
Q 384 1609 779 1909 
Q 1175 2209 1959 2209 
L 2766 2209 
L 2766 2266 
Q 2766 2663 2505 2880 
Q 2244 3097 1772 3097 
Q 1472 3097 1187 3025 
Q 903 2953 641 2809 
L 641 3341 
Q 956 3463 1253 3523 
Q 1550 3584 1831 3584 
Q 2591 3584 2966 3190 
Q 3341 2797 3341 1997 
z
" transform="scale(0.015625)"/>
       <path id="DejaVuSans-74" d="M 1172 4494 
L 1172 3500 
L 2356 3500 
L 2356 3053 
L 1172 3053 
L 1172 1153 
Q 1172 725 1289 603 
Q 1406 481 1766 481 
L 2356 481 
L 2356 0 
L 1766 0 
Q 1100 0 847 248 
Q 594 497 594 1153 
L 594 3053 
L 172 3053 
L 172 3500 
L 594 3500 
L 594 4494 
L 1172 4494 
z
" transform="scale(0.015625)"/>
       <path id="DejaVuSans-6f" d="M 1959 3097 
Q 1497 3097 1228 2736 
Q 959 2375 959 1747 
Q 959 1119 1226 758 
Q 1494 397 1959 397 
Q 2419 397 2687 759 
Q 2956 1122 2956 1747 
Q 2956 2369 2687 2733 
Q 2419 3097 1959 3097 
z
M 1959 3584 
Q 2709 3584 3137 3096 
Q 3566 2609 3566 1747 
Q 3566 888 3137 398 
Q 2709 -91 1959 -91 
Q 1206 -91 779 398 
Q 353 888 353 1747 
Q 353 2609 779 3096 
Q 1206 3584 1959 3584 
z
" transform="scale(0.015625)"/>
       <path id="DejaVuSans-6e" d="M 3513 2113 
L 3513 0 
L 2938 0 
L 2938 2094 
Q 2938 2591 2744 2837 
Q 2550 3084 2163 3084 
Q 1697 3084 1428 2787 
Q 1159 2491 1159 1978 
L 1159 0 
L 581 0 
L 581 3500 
L 1159 3500 
L 1159 2956 
Q 1366 3272 1645 3428 
Q 1925 3584 2291 3584 
Q 2894 3584 3203 3211 
Q 3513 2838 3513 2113 
z
" transform="scale(0.015625)"/>
       <path id="DejaVuSans-20" transform="scale(0.015625)"/>
       <path id="DejaVuSans-44" d="M 1259 4147 
L 1259 519 
L 2022 519 
Q 2988 519 3436 956 
Q 3884 1394 3884 2338 
Q 3884 3275 3436 3711 
Q 2988 4147 2022 4147 
L 1259 4147 
z
M 628 4666 
L 1925 4666 
Q 3281 4666 3915 4102 
Q 4550 3538 4550 2338 
Q 4550 1131 3912 565 
Q 3275 0 1925 0 
L 628 0 
L 628 4666 
z
" transform="scale(0.015625)"/>
       <path id="DejaVuSans-79" d="M 2059 -325 
Q 1816 -950 1584 -1140 
Q 1353 -1331 966 -1331 
L 506 -1331 
L 506 -850 
L 844 -850 
Q 1081 -850 1212 -737 
Q 1344 -625 1503 -206 
L 1606 56 
L 191 3500 
L 800 3500 
L 1894 763 
L 2988 3500 
L 3597 3500 
L 2059 -325 
z
" transform="scale(0.015625)"/>
       <path id="DejaVuSans-73" d="M 2834 3397 
L 2834 2853 
Q 2591 2978 2328 3040 
Q 2066 3103 1784 3103 
Q 1356 3103 1142 2972 
Q 928 2841 928 2578 
Q 928 2378 1081 2264 
Q 1234 2150 1697 2047 
L 1894 2003 
Q 2506 1872 2764 1633 
Q 3022 1394 3022 966 
Q 3022 478 2636 193 
Q 2250 -91 1575 -91 
Q 1294 -91 989 -36 
Q 684 19 347 128 
L 347 722 
Q 666 556 975 473 
Q 1284 391 1588 391 
Q 1994 391 2212 530 
Q 2431 669 2431 922 
Q 2431 1156 2273 1281 
Q 2116 1406 1581 1522 
L 1381 1569 
Q 847 1681 609 1914 
Q 372 2147 372 2553 
Q 372 3047 722 3315 
Q 1072 3584 1716 3584 
Q 2034 3584 2315 3537 
Q 2597 3491 2834 3397 
z
" transform="scale(0.015625)"/>
      </defs>
      <use xlink:href="#DejaVuSans-53"/>
      <use xlink:href="#DejaVuSans-69" transform="translate(63.476562 0)"/>
      <use xlink:href="#DejaVuSans-6d" transform="translate(91.259766 0)"/>
      <use xlink:href="#DejaVuSans-75" transform="translate(188.671875 0)"/>
      <use xlink:href="#DejaVuSans-6c" transform="translate(252.050781 0)"/>
      <use xlink:href="#DejaVuSans-61" transform="translate(279.833984 0)"/>
      <use xlink:href="#DejaVuSans-74" transform="translate(341.113281 0)"/>
      <use xlink:href="#DejaVuSans-69" transform="translate(380.322266 0)"/>
      <use xlink:href="#DejaVuSans-6f" transform="translate(408.105469 0)"/>
      <use xlink:href="#DejaVuSans-6e" transform="translate(469.287109 0)"/>
      <use xlink:href="#DejaVuSans-20" transform="translate(532.666016 0)"/>
      <use xlink:href="#DejaVuSans-44" transform="translate(564.453125 0)"/>
      <use xlink:href="#DejaVuSans-61" transform="translate(641.455078 0)"/>
      <use xlink:href="#DejaVuSans-79" transform="translate(702.734375 0)"/>
      <use xlink:href="#DejaVuSans-73" transform="translate(761.914062 0)"/>
     </g>
    </g>
   </g>
   <g id="matplotlib.axis_2">
    <g id="ytick_1">
     <g id="line2d_9">
      <defs>
       <path id="m4c134f5eda" d="M 0 0 
L -3.5 0 
" style="stroke: #000000; stroke-width: 0.8"/>
      </defs>
      <g>
       <use xlink:href="#m4c134f5eda" x="50.24" y="162.284097" style="stroke: #000000; stroke-width: 0.8"/>
      </g>
     </g>
     <g id="text_10">
      <!-- −6 -->
      <g transform="translate(28.497813 166.083316) scale(0.1 -0.1)">
       <defs>
        <path id="DejaVuSans-2212" d="M 678 2272 
L 4684 2272 
L 4684 1741 
L 678 1741 
L 678 2272 
z
" transform="scale(0.015625)"/>
       </defs>
       <use xlink:href="#DejaVuSans-2212"/>
       <use xlink:href="#DejaVuSans-36" transform="translate(83.789062 0)"/>
      </g>
     </g>
    </g>
    <g id="ytick_2">
     <g id="line2d_10">
      <g>
       <use xlink:href="#m4c134f5eda" x="50.24" y="129.677886" style="stroke: #000000; stroke-width: 0.8"/>
      </g>
     </g>
     <g id="text_11">
      <!-- −3 -->
      <g transform="translate(28.497813 133.477105) scale(0.1 -0.1)">
       <defs>
        <path id="DejaVuSans-33" d="M 2597 2516 
Q 3050 2419 3304 2112 
Q 3559 1806 3559 1356 
Q 3559 666 3084 287 
Q 2609 -91 1734 -91 
Q 1441 -91 1130 -33 
Q 819 25 488 141 
L 488 750 
Q 750 597 1062 519 
Q 1375 441 1716 441 
Q 2309 441 2620 675 
Q 2931 909 2931 1356 
Q 2931 1769 2642 2001 
Q 2353 2234 1838 2234 
L 1294 2234 
L 1294 2753 
L 1863 2753 
Q 2328 2753 2575 2939 
Q 2822 3125 2822 3475 
Q 2822 3834 2567 4026 
Q 2313 4219 1838 4219 
Q 1578 4219 1281 4162 
Q 984 4106 628 3988 
L 628 4550 
Q 988 4650 1302 4700 
Q 1616 4750 1894 4750 
Q 2613 4750 3031 4423 
Q 3450 4097 3450 3541 
Q 3450 3153 3228 2886 
Q 3006 2619 2597 2516 
z
" transform="scale(0.015625)"/>
       </defs>
       <use xlink:href="#DejaVuSans-2212"/>
       <use xlink:href="#DejaVuSans-33" transform="translate(83.789062 0)"/>
      </g>
     </g>
    </g>
    <g id="ytick_3">
     <g id="line2d_11">
      <g>
       <use xlink:href="#m4c134f5eda" x="50.24" y="97.071675" style="stroke: #000000; stroke-width: 0.8"/>
      </g>
     </g>
     <g id="text_12">
      <!-- 0 -->
      <g transform="translate(36.8775 100.870894) scale(0.1 -0.1)">
       <use xlink:href="#DejaVuSans-30"/>
      </g>
     </g>
    </g>
    <g id="ytick_4">
     <g id="line2d_12">
      <g>
       <use xlink:href="#m4c134f5eda" x="50.24" y="64.465465" style="stroke: #000000; stroke-width: 0.8"/>
      </g>
     </g>
     <g id="text_13">
      <!-- 3 -->
      <g transform="translate(36.8775 68.264684) scale(0.1 -0.1)">
       <use xlink:href="#DejaVuSans-33"/>
      </g>
     </g>
    </g>
    <g id="ytick_5">
     <g id="line2d_13">
      <g>
       <use xlink:href="#m4c134f5eda" x="50.24" y="31.859254" style="stroke: #000000; stroke-width: 0.8"/>
      </g>
     </g>
     <g id="text_14">
      <!-- 6 -->
      <g transform="translate(36.8775 35.658473) scale(0.1 -0.1)">
       <use xlink:href="#DejaVuSans-36"/>
      </g>
     </g>
    </g>
    <g id="text_15">
     <!-- Temperature (℃) -->
     <g transform="translate(21.58625 159.986094) rotate(-90) scale(0.14 -0.14)">
      <defs>
       <path id="DejaVuSans-54" d="M -19 4666 
L 3928 4666 
L 3928 4134 
L 2272 4134 
L 2272 0 
L 1638 0 
L 1638 4134 
L -19 4134 
L -19 4666 
z
" transform="scale(0.015625)"/>
       <path id="DejaVuSans-65" d="M 3597 1894 
L 3597 1613 
L 953 1613 
Q 991 1019 1311 708 
Q 1631 397 2203 397 
Q 2534 397 2845 478 
Q 3156 559 3463 722 
L 3463 178 
Q 3153 47 2828 -22 
Q 2503 -91 2169 -91 
Q 1331 -91 842 396 
Q 353 884 353 1716 
Q 353 2575 817 3079 
Q 1281 3584 2069 3584 
Q 2775 3584 3186 3129 
Q 3597 2675 3597 1894 
z
M 3022 2063 
Q 3016 2534 2758 2815 
Q 2500 3097 2075 3097 
Q 1594 3097 1305 2825 
Q 1016 2553 972 2059 
L 3022 2063 
z
" transform="scale(0.015625)"/>
       <path id="DejaVuSans-70" d="M 1159 525 
L 1159 -1331 
L 581 -1331 
L 581 3500 
L 1159 3500 
L 1159 2969 
Q 1341 3281 1617 3432 
Q 1894 3584 2278 3584 
Q 2916 3584 3314 3078 
Q 3713 2572 3713 1747 
Q 3713 922 3314 415 
Q 2916 -91 2278 -91 
Q 1894 -91 1617 61 
Q 1341 213 1159 525 
z
M 3116 1747 
Q 3116 2381 2855 2742 
Q 2594 3103 2138 3103 
Q 1681 3103 1420 2742 
Q 1159 2381 1159 1747 
Q 1159 1113 1420 752 
Q 1681 391 2138 391 
Q 2594 391 2855 752 
Q 3116 1113 3116 1747 
z
" transform="scale(0.015625)"/>
       <path id="DejaVuSans-72" d="M 2631 2963 
Q 2534 3019 2420 3045 
Q 2306 3072 2169 3072 
Q 1681 3072 1420 2755 
Q 1159 2438 1159 1844 
L 1159 0 
L 581 0 
L 581 3500 
L 1159 3500 
L 1159 2956 
Q 1341 3275 1631 3429 
Q 1922 3584 2338 3584 
Q 2397 3584 2469 3576 
Q 2541 3569 2628 3553 
L 2631 2963 
z
" transform="scale(0.015625)"/>
       <path id="DejaVuSans-28" d="M 1984 4856 
Q 1566 4138 1362 3434 
Q 1159 2731 1159 2009 
Q 1159 1288 1364 580 
Q 1569 -128 1984 -844 
L 1484 -844 
Q 1016 -109 783 600 
Q 550 1309 550 2009 
Q 550 2706 781 3412 
Q 1013 4119 1484 4856 
L 1984 4856 
z
" transform="scale(0.015625)"/>
       <path id="DejaVuSans-2103" d="M 1600 4347 
Q 1350 4347 1178 4173 
Q 1006 4000 1006 3750 
Q 1006 3503 1178 3333 
Q 1350 3163 1600 3163 
Q 1850 3163 2022 3333 
Q 2194 3503 2194 3750 
Q 2194 3997 2020 4172 
Q 1847 4347 1600 4347 
z
M 1600 4750 
Q 1800 4750 1984 4673 
Q 2169 4597 2303 4453 
Q 2447 4313 2519 4134 
Q 2591 3956 2591 3750 
Q 2591 3338 2302 3052 
Q 2013 2766 1594 2766 
Q 1172 2766 890 3047 
Q 609 3328 609 3750 
Q 609 4169 896 4459 
Q 1184 4750 1600 4750 
z
M 6741 4306 
L 6741 3641 
Q 6422 3938 6061 4084 
Q 5700 4231 5294 4231 
Q 4494 4231 4069 3742 
Q 3644 3253 3644 2328 
Q 3644 1406 4069 917 
Q 4494 428 5294 428 
Q 5700 428 6061 575 
Q 6422 722 6741 1019 
L 6741 359 
Q 6409 134 6039 21 
Q 5669 -91 5256 -91 
Q 4197 -91 3587 557 
Q 2978 1206 2978 2328 
Q 2978 3453 3587 4101 
Q 4197 4750 5256 4750 
Q 5675 4750 6045 4639 
Q 6416 4528 6741 4306 
z
" transform="scale(0.015625)"/>
       <path id="DejaVuSans-29" d="M 513 4856 
L 1013 4856 
Q 1481 4119 1714 3412 
Q 1947 2706 1947 2009 
Q 1947 1309 1714 600 
Q 1481 -109 1013 -844 
L 513 -844 
Q 928 -128 1133 580 
Q 1338 1288 1338 2009 
Q 1338 2731 1133 3434 
Q 928 4138 513 4856 
z
" transform="scale(0.015625)"/>
      </defs>
      <use xlink:href="#DejaVuSans-54"/>
      <use xlink:href="#DejaVuSans-65" transform="translate(44.083984 0)"/>
      <use xlink:href="#DejaVuSans-6d" transform="translate(105.607422 0)"/>
      <use xlink:href="#DejaVuSans-70" transform="translate(203.019531 0)"/>
      <use xlink:href="#DejaVuSans-65" transform="translate(266.496094 0)"/>
      <use xlink:href="#DejaVuSans-72" transform="translate(328.019531 0)"/>
      <use xlink:href="#DejaVuSans-61" transform="translate(369.132812 0)"/>
      <use xlink:href="#DejaVuSans-74" transform="translate(430.412109 0)"/>
      <use xlink:href="#DejaVuSans-75" transform="translate(469.621094 0)"/>
      <use xlink:href="#DejaVuSans-72" transform="translate(533 0)"/>
      <use xlink:href="#DejaVuSans-65" transform="translate(571.863281 0)"/>
      <use xlink:href="#DejaVuSans-20" transform="translate(633.386719 0)"/>
      <use xlink:href="#DejaVuSans-28" transform="translate(665.173828 0)"/>
      <use xlink:href="#DejaVuSans-2103" transform="translate(704.1875 0)"/>
      <use xlink:href="#DejaVuSans-29" transform="translate(816.492188 0)"/>
     </g>
    </g>
   </g>
   <g id="line2d_14">
    <path d="M 50.24 147.11115 
L 51.570278 147.224173 
L 52.900557 147.491865 
L 54.230835 147.923627 
L 55.561114 148.53248 
L 56.891392 149.331652 
L 58.22167 150.32779 
L 60.217088 152.16565 
L 63.542784 155.740195 
L 65.538202 157.747992 
L 66.86848 158.850258 
L 68.198758 159.691523 
L 69.529037 160.238495 
L 70.859315 160.480764 
L 72.189594 160.425322 
L 73.519872 160.090081 
L 74.85015 159.501053 
L 76.180429 158.691338 
L 78.175846 157.15535 
L 81.501542 154.162647 
L 84.162099 151.830019 
L 86.157517 150.299042 
L 88.152934 149.003297 
L 90.148352 147.929233 
L 92.808909 146.76446 
L 96.134605 145.567413 
L 100.790579 144.125845 
L 112.763085 140.616817 
L 117.419059 139.17207 
L 121.409895 138.176836 
L 125.40073 137.412107 
L 137.373235 135.383493 
L 140.033792 134.650895 
L 142.02921 133.926624 
L 144.024627 132.923903 
L 145.354906 132.004805 
L 146.685184 130.800486 
L 148.015463 129.238385 
L 149.345741 127.264353 
L 150.676019 124.861739 
L 152.006298 122.066654 
L 154.666855 115.7267 
L 157.327411 109.464972 
L 158.65769 106.766116 
L 159.987968 104.495964 
L 161.318247 102.68932 
L 162.648525 101.328198 
L 163.978803 100.356532 
L 165.309082 99.698302 
L 166.63936 99.273874 
L 168.634778 98.921636 
L 171.960474 98.668345 
L 175.28617 98.386886 
L 177.281588 98.038372 
L 179.277005 97.45309 
L 181.272423 96.56317 
L 183.26784 95.332772 
L 185.263258 93.762323 
L 187.258676 91.882111 
L 189.919232 88.97645 
L 194.575207 83.621173 
L 195.905485 82.423542 
L 197.235764 81.593745 
L 197.900903 81.353456 
L 198.566042 81.244894 
L 199.231181 81.275435 
L 199.89632 81.448653 
L 200.56146 81.763958 
L 201.891738 82.797072 
L 203.222016 84.285807 
L 205.217434 87.05065 
L 207.877991 90.791981 
L 209.208269 92.307252 
L 210.538548 93.41976 
L 211.868826 94.066261 
L 213.199104 94.241827 
L 214.529383 94.002207 
L 215.859661 93.459133 
L 219.185357 91.828144 
L 220.515636 91.491411 
L 221.845914 91.500895 
L 223.176192 91.877405 
L 224.506471 92.574674 
L 226.501888 94.01801 
L 234.483559 100.484348 
L 235.813837 101.864165 
L 237.144116 103.509514 
L 238.474394 105.468457 
L 239.804672 107.758387 
L 241.80009 111.756028 
L 247.121204 123.145685 
L 248.451482 125.282433 
L 249.781761 126.844783 
L 250.4469 127.392065 
L 251.112039 127.783461 
L 251.777178 128.025133 
L 252.442317 128.127678 
L 253.772596 127.976183 
L 255.102874 127.476471 
L 259.093709 125.568286 
L 260.423988 125.297826 
L 261.754266 125.395864 
L 263.084545 125.919519 
L 264.414823 126.878796 
L 265.745101 128.232557 
L 267.740519 130.793096 
L 271.066215 135.333164 
L 272.396493 136.866747 
L 273.726772 138.120675 
L 275.05705 139.082908 
L 276.387329 139.785085 
L 278.382746 140.497783 
L 282.373581 141.707422 
L 284.368999 142.616745 
L 287.029556 144.20029 
L 289.690113 145.806127 
L 291.020391 146.422226 
L 292.350669 146.82364 
L 293.680948 146.973429 
L 295.011226 146.866815 
L 296.341505 146.529832 
L 298.336922 145.703179 
L 304.988314 142.508921 
L 306.983732 141.944403 
L 308.31401 141.753884 
L 309.644289 141.745216 
L 310.974567 141.946798 
L 312.304845 142.380165 
L 313.635124 143.053312 
L 314.965402 143.956589 
L 316.96082 145.678588 
L 319.621377 148.412985 
L 322.947073 151.897805 
L 324.94249 153.699674 
L 326.937908 155.148253 
L 328.933326 156.263742 
L 334.919578 159.207094 
L 338.910414 161.541061 
L 340.240692 162.046753 
L 341.57097 162.210734 
L 342.23611 162.128245 
L 342.901249 161.920918 
L 343.566388 161.581166 
L 344.896666 160.492793 
L 346.226945 158.882103 
L 347.557223 156.834749 
L 349.552641 153.264748 
L 352.213198 148.488602 
L 353.543476 146.426644 
L 354.873754 144.68675 
L 356.204033 143.270731 
L 357.534311 142.131286 
L 359.529729 140.775751 
L 362.855425 138.905461 
L 368.176538 135.91974 
L 369.506817 134.992301 
L 370.837095 133.8462 
L 372.167374 132.3747 
L 373.497652 130.479749 
L 374.82793 128.098891 
L 376.158209 125.230811 
L 378.153626 120.197226 
L 382.144462 109.684798 
L 383.47474 106.763893 
L 384.805018 104.352258 
L 386.135297 102.478177 
L 387.465575 101.107506 
L 388.795854 100.163957 
L 390.126132 99.551805 
L 391.45641 99.176882 
L 393.451828 98.88449 
L 399.438081 98.302607 
L 400.768359 97.954454 
L 402.098638 97.418496 
L 403.428916 96.644171 
L 404.759194 95.600094 
L 406.089473 94.289756 
L 408.08489 91.956201 
L 410.745447 88.804957 
L 412.075726 87.540464 
L 413.406004 86.614575 
L 414.736283 86.021204 
L 418.727118 84.775541 
L 420.057396 83.842337 
L 421.387675 82.400868 
L 422.717953 80.463219 
L 424.713371 76.952688 
L 426.708788 73.431863 
L 428.039067 71.468949 
L 429.369345 69.987096 
L 430.699623 69.026677 
L 432.029902 68.545092 
L 433.36018 68.45199 
L 434.690459 68.647646 
L 436.020737 69.051156 
L 438.016155 69.932762 
L 440.676711 71.456547 
L 445.332686 74.236615 
L 447.328103 75.14658 
L 452.649217 77.320432 
L 453.979495 78.208664 
L 455.309774 79.387033 
L 456.640052 80.894448 
L 457.970331 82.736906 
L 459.300609 84.891188 
L 461.296027 88.596535 
L 467.282279 100.448582 
L 468.612558 102.514873 
L 469.942836 104.123886 
L 471.273115 105.201642 
L 471.938254 105.531244 
L 472.603393 105.722725 
L 473.268532 105.781527 
L 473.933671 105.71641 
L 475.26395 105.263716 
L 476.594228 104.483521 
L 479.254785 102.481084 
L 481.250203 101.066972 
L 482.580481 100.326997 
L 483.910759 99.808073 
L 485.241038 99.541904 
L 486.571316 99.554791 
L 487.901595 99.874414 
L 489.231873 100.532184 
L 490.562152 101.555442 
L 491.89243 102.958203 
L 493.222708 104.729667 
L 494.552987 106.828457 
L 496.548404 110.435628 
L 501.204379 119.627166 
L 507.855771 132.91023 
L 511.846606 141.554718 
L 516.50258 151.651016 
L 518.497998 155.441317 
L 519.828276 157.610612 
L 521.158555 159.411141 
L 522.488833 160.783182 
L 523.819112 161.687619 
L 525.14939 162.114186 
L 526.479668 162.088566 
L 527.809947 161.674283 
L 529.140225 160.965614 
L 531.800782 159.119659 
L 533.7962 157.779743 
L 535.126478 157.054624 
L 536.456756 156.513846 
L 537.787035 156.174067 
L 539.117313 156.034365 
L 540.447592 156.079973 
L 542.443009 156.434497 
L 545.103566 157.230989 
L 549.094401 158.45961 
L 555.080654 160.064604 
L 557.076072 160.882385 
L 563.062324 163.653669 
L 564.392603 163.953493 
L 565.722881 164.045455 
L 567.05316 163.941196 
L 569.048577 163.518934 
L 573.039413 162.540765 
L 575.03483 162.29871 
L 580.355944 161.888843 
L 581.686222 161.544897 
L 583.016501 161.019977 
L 584.346779 160.304043 
L 586.342197 158.898929 
L 588.337614 157.192029 
L 594.323867 151.790633 
L 596.319285 150.304881 
L 598.979841 148.656522 
L 601.640398 147.285376 
L 605.631233 145.498179 
L 609.622069 143.96095 
L 612.947765 142.927374 
L 619.599157 140.985264 
L 621.594574 140.089397 
L 622.924853 139.274296 
L 624.255131 138.202781 
L 625.585409 136.794933 
L 626.915688 134.974562 
L 628.245966 132.685769 
L 629.576245 129.911701 
L 630.906523 126.689826 
L 632.901941 121.246468 
L 636.227637 111.95623 
L 637.557915 108.691022 
L 638.888193 105.884992 
L 640.218472 103.595317 
L 641.54875 101.820802 
L 642.879029 100.51399 
L 644.209307 99.598887 
L 645.539585 98.988925 
L 646.869864 98.601292 
L 648.865282 98.287274 
L 652.190978 98.100884 
L 658.84237 97.828844 
L 660.837787 97.555475 
L 662.833205 97.062479 
L 664.163483 96.564294 
L 665.493762 95.897028 
L 666.82404 95.033364 
L 668.154318 93.947551 
L 669.484597 92.616265 
L 670.814875 91.022108 
L 672.145154 89.161305 
L 674.140571 85.92575 
L 678.796546 77.874413 
L 680.126824 76.051979 
L 681.457102 74.667152 
L 682.787381 73.773713 
L 684.117659 73.368896 
L 685.447938 73.40222 
L 686.778216 73.790447 
L 688.108494 74.434955 
L 690.769051 76.096457 
L 692.764469 77.305682 
L 694.094747 77.93531 
L 695.425026 78.336797 
L 696.755304 78.456575 
L 698.085582 78.272707 
L 699.415861 77.81179 
L 701.411278 76.794785 
L 703.406696 75.828589 
L 704.736974 75.495672 
L 705.402114 75.477356 
L 706.067253 75.573982 
L 706.732392 75.791485 
L 708.06267 76.585986 
L 709.392949 77.803603 
L 711.388366 80.152545 
L 715.379202 85.084846 
L 718.704898 88.667997 
L 721.365454 91.647375 
L 724.026011 95.019563 
L 728.016847 100.233693 
L 730.012264 102.490817 
L 732.007682 104.410798 
L 737.993935 109.759946 
L 740.654491 112.690472 
L 743.980187 116.404347 
L 745.975605 118.319803 
L 748.636162 120.46917 
L 751.296719 122.586769 
L 753.292136 124.486041 
L 755.287554 126.72103 
L 758.61325 130.617527 
L 759.943528 131.943484 
L 761.273807 133.008875 
L 762.604085 133.776705 
L 763.934363 134.250739 
L 765.264642 134.468587 
L 766.59492 134.488498 
L 768.590338 134.291292 
L 773.246312 133.712355 
L 775.906869 133.659609 
L 779.232565 133.863109 
L 783.888539 134.406657 
L 788.544514 135.009582 
L 790.539931 135.072425 
L 792.535349 134.926799 
L 795.195906 134.486261 
L 798.521602 133.928147 
L 801.182159 133.710188 
L 806.503272 133.403225 
L 808.49869 133.058311 
L 811.159247 132.347841 
L 815.815221 130.990082 
L 817.810639 130.675278 
L 819.806056 130.630521 
L 821.801474 130.827957 
L 829.783144 131.988141 
L 832.443701 131.990801 
L 834.439119 131.77027 
L 835.769397 131.458173 
L 837.099676 130.953883 
L 838.429954 130.196944 
L 839.760232 129.131709 
L 841.090511 127.722754 
L 842.420789 125.970739 
L 844.416207 122.814832 
L 848.407042 116.03842 
L 849.73732 114.127554 
L 851.067599 112.540238 
L 852.397877 111.28954 
L 853.728156 110.336963 
L 855.723573 109.296034 
L 860.379548 107.150075 
L 862.374965 105.919675 
L 869.026357 101.393377 
L 871.021775 100.457483 
L 873.017192 99.819038 
L 875.01261 99.427497 
L 877.673167 99.160122 
L 882.329141 99.002984 
L 894.966786 98.921961 
L 900.953039 98.830623 
L 902.948457 98.654555 
L 904.278735 98.409116 
L 905.609013 97.989142 
L 906.939292 97.313081 
L 908.26957 96.289935 
L 909.599849 94.83213 
L 910.930127 92.876639 
L 912.260405 90.403251 
L 913.590684 87.448017 
L 915.586101 82.324186 
L 921.572354 66.048892 
L 923.567772 61.290611 
L 925.563189 57.11132 
L 926.893468 54.736615 
L 928.223746 52.762345 
L 929.554025 51.237058 
L 930.884303 50.186393 
L 932.214581 49.614962 
L 932.879721 49.507791 
L 933.54486 49.519746 
L 934.209999 49.652307 
L 934.875138 49.908572 
L 935.540277 50.293413 
L 936.205417 50.813374 
L 937.535695 52.290999 
L 938.865973 54.40947 
L 940.196252 57.220303 
L 941.52653 60.730167 
L 942.856809 64.87493 
L 944.852226 71.943534 
L 948.177922 83.977849 
L 949.508201 88.13863 
L 950.838479 91.651356 
L 952.168757 94.44955 
L 953.499036 96.552046 
L 954.829314 98.043575 
L 956.159593 99.043798 
L 957.489871 99.677839 
L 958.820149 100.052995 
L 960.815567 100.298603 
L 962.810985 100.297891 
L 965.471541 100.057499 
L 970.792655 99.468818 
L 972.788073 99.553281 
L 974.118351 99.845404 
L 975.44863 100.429819 
L 976.778908 101.423025 
L 978.109186 102.95787 
L 979.439465 105.164851 
L 980.769743 108.14372 
L 982.100022 111.933309 
L 983.4303 116.48719 
L 985.425718 124.420165 
L 989.416553 141.041078 
L 990.746831 145.755117 
L 992.07711 149.66957 
L 993.407388 152.653583 
L 994.072527 153.778133 
L 994.737666 154.658228 
L 995.402806 155.300606 
L 996.067945 155.716758 
L 996.733084 155.922619 
L 997.398223 155.937622 
L 998.063362 155.784244 
L 999.393641 155.071552 
L 1000.723919 153.988732 
L 1005.379894 149.753156 
L 1006.710172 148.8582 
L 1008.04045 148.190622 
L 1009.370729 147.761086 
L 1010.701007 147.564717 
L 1012.031286 147.583781 
L 1013.361564 147.7857 
L 1015.356982 148.318029 
L 1018.682678 149.2598 
L 1020.012956 149.465278 
L 1020.678095 149.508278 
L 1020.678095 149.508278 
" clip-path="url(#p5c17d11a9e)" style="fill: none; stroke: #0000ff; stroke-width: 1.5; stroke-linecap: square"/>
   </g>
   <g id="line2d_15">
    <path d="M 50.24 146.015373 
L 51.570278 146.16684 
L 52.900557 146.521829 
L 54.230835 147.083137 
L 55.561114 147.85243 
L 56.891392 148.8263 
L 58.88681 150.636646 
L 61.547366 153.500249 
L 64.207923 156.388657 
L 66.203341 158.182983 
L 67.533619 159.074419 
L 68.863898 159.675986 
L 70.194176 159.976272 
L 71.524454 159.985834 
L 72.854733 159.731165 
L 74.185011 159.247808 
L 75.51529 158.574467 
L 77.510707 157.290686 
L 80.171264 155.24761 
L 86.822656 149.931602 
L 89.483213 148.18561 
L 92.14377 146.759162 
L 94.804327 145.596643 
L 98.795162 144.131331 
L 116.088781 138.251615 
L 119.414477 137.368214 
L 122.740173 136.6962 
L 126.731008 136.129584 
L 136.042957 134.930207 
L 138.703514 134.329174 
L 140.698931 133.68825 
L 142.694349 132.776783 
L 144.024627 131.943335 
L 145.354906 130.861485 
L 146.685184 129.469415 
L 148.015463 127.714156 
L 149.345741 125.565969 
L 150.676019 123.032286 
L 152.671437 118.639517 
L 157.327411 107.826902 
L 158.65769 105.233731 
L 159.987968 103.045142 
L 161.318247 101.288074 
L 162.648525 99.945166 
L 163.978803 98.966593 
L 165.309082 98.284632 
L 166.63936 97.826925 
L 168.634778 97.415649 
L 176.616448 96.255819 
L 178.611866 95.614149 
L 180.607284 94.71194 
L 182.602701 93.5255 
L 184.598119 92.054778 
L 186.593536 90.31638 
L 189.254093 87.633169 
L 194.575207 81.885989 
L 195.905485 80.781783 
L 197.235764 80.027466 
L 197.900903 79.814699 
L 198.566042 79.725289 
L 199.231181 79.76589 
L 199.89632 79.93959 
L 200.56146 80.245557 
L 201.891738 81.230646 
L 203.222016 82.63577 
L 205.217434 85.224449 
L 207.877991 88.691192 
L 209.208269 90.082553 
L 210.538548 91.09991 
L 211.868826 91.692201 
L 213.199104 91.859611 
L 214.529383 91.652021 
L 215.859661 91.162801 
L 219.850496 89.312078 
L 221.180775 88.995371 
L 222.511053 88.972309 
L 223.841332 89.262395 
L 225.17161 89.842054 
L 226.501888 90.657991 
L 228.497306 92.184094 
L 231.157863 94.523935 
L 233.81842 97.12641 
L 235.813837 99.377686 
L 237.809255 102.043876 
L 239.804672 105.216499 
L 241.80009 108.855678 
L 246.456064 117.684526 
L 247.786343 119.763666 
L 249.116621 121.443298 
L 250.4469 122.66319 
L 251.777178 123.410109 
L 253.107457 123.718713 
L 254.437735 123.665695 
L 255.768013 123.359371 
L 259.758849 122.213082 
L 261.089127 122.168302 
L 262.419405 122.449446 
L 263.749684 123.100719 
L 265.079962 124.124188 
L 266.410241 125.480007 
L 268.405658 127.965666 
L 273.061633 134.13502 
L 275.05705 136.310344 
L 277.052468 138.072079 
L 279.047885 139.473186 
L 281.043303 140.605119 
L 283.70386 141.833669 
L 286.364417 142.83435 
L 289.024973 143.618542 
L 291.68553 144.137047 
L 293.680948 144.313303 
L 295.676365 144.29124 
L 297.671783 144.081173 
L 300.33234 143.577159 
L 305.653453 142.435055 
L 307.648871 142.237483 
L 309.644289 142.315108 
L 310.974567 142.559293 
L 312.304845 142.975628 
L 313.635124 143.569519 
L 315.630541 144.779894 
L 317.625959 146.319432 
L 320.286516 148.719248 
L 326.937908 154.967853 
L 330.263604 157.690105 
L 332.924161 159.609623 
L 335.584718 161.253253 
L 337.580135 162.203253 
L 338.910414 162.625393 
L 340.240692 162.812195 
L 341.57097 162.700251 
L 342.901249 162.230244 
L 344.231527 161.358678 
L 345.561806 160.069823 
L 346.892084 158.384716 
L 348.222362 156.364402 
L 350.882919 151.72839 
L 353.543476 147.116254 
L 355.538894 144.167018 
L 356.869172 142.540164 
L 358.19945 141.185541 
L 359.529729 140.070807 
L 361.525146 138.736749 
L 364.850842 136.944623 
L 367.511399 135.437656 
L 369.506817 134.002016 
L 370.837095 132.791144 
L 372.167374 131.303951 
L 373.497652 129.484173 
L 374.82793 127.295079 
L 376.158209 124.733114 
L 378.153626 120.291368 
L 383.47474 107.74727 
L 384.805018 105.211104 
L 386.135297 103.111409 
L 387.465575 101.467924 
L 388.795854 100.256128 
L 390.126132 99.419032 
L 391.45641 98.881674 
L 392.786689 98.564298 
L 394.782106 98.338509 
L 399.438081 97.957487 
L 401.433498 97.485408 
L 402.763777 96.973773 
L 404.094055 96.27393 
L 405.424334 95.376186 
L 407.419751 93.693446 
L 413.406004 88.147008 
L 415.401422 86.822995 
L 419.392257 84.406435 
L 420.722535 83.282026 
L 422.052814 81.873416 
L 424.048231 79.267683 
L 428.039067 73.613052 
L 429.369345 72.106994 
L 430.699623 70.966551 
L 432.029902 70.229282 
L 433.36018 69.885895 
L 434.690459 69.890727 
L 436.020737 70.175613 
L 438.016155 70.958621 
L 444.667547 74.080721 
L 447.993243 75.168083 
L 450.653799 76.097009 
L 451.984078 76.744862 
L 453.314356 77.605243 
L 454.644635 78.736851 
L 455.974913 80.180578 
L 457.305191 81.952401 
L 458.63547 84.039171 
L 460.630887 87.658455 
L 466.61714 99.179244 
L 467.947419 101.167025 
L 469.277697 102.735419 
L 470.607975 103.832795 
L 471.938254 104.445958 
L 473.268532 104.602279 
L 474.598811 104.366133 
L 475.929089 103.830107 
L 477.924507 102.701839 
L 480.585063 101.147389 
L 481.915342 100.541153 
L 483.24562 100.125882 
L 484.575899 99.935972 
L 485.906177 99.993129 
L 487.236455 100.312126 
L 488.566734 100.905071 
L 489.897012 101.783068 
L 491.227291 102.955088 
L 492.557569 104.424943 
L 493.887848 106.187902 
L 495.883265 109.344285 
L 497.878683 113.022451 
L 500.53924 118.496216 
L 505.860353 130.202359 
L 511.846606 143.194754 
L 515.172302 150.054114 
L 517.16772 153.845852 
L 519.163137 157.173678 
L 520.493416 159.022696 
L 521.823694 160.50196 
L 523.153972 161.564812 
L 524.484251 162.189965 
L 525.814529 162.387412 
L 527.144808 162.199009 
L 528.475086 161.693175 
L 529.805364 160.954657 
L 532.465921 159.124276 
L 535.791617 156.827443 
L 538.452174 155.240629 
L 541.77787 153.530163 
L 545.103566 152.032952 
L 547.764123 151.032473 
L 549.75954 150.460048 
L 551.754958 150.082163 
L 553.750376 149.913054 
L 555.745793 149.935966 
L 558.40635 150.182711 
L 564.392603 150.832746 
L 567.05316 150.812502 
L 569.048577 150.599398 
L 571.709134 150.058038 
L 574.369691 149.274172 
L 577.695387 148.06459 
L 583.68164 145.595286 
L 604.300955 136.892898 
L 616.273461 132.466039 
L 618.934017 131.094143 
L 621.594574 129.43329 
L 624.255131 127.474952 
L 627.580827 124.672475 
L 631.571662 120.959542 
L 636.892776 115.679982 
L 642.879029 109.417487 
L 650.860699 100.665321 
L 662.833205 87.428037 
L 665.493762 84.005247 
L 668.819458 79.309381 
L 673.475432 72.648808 
L 675.47085 70.165209 
L 676.801128 68.747963 
L 678.131406 67.562224 
L 679.461685 66.62977 
L 680.791963 65.959585 
L 682.122242 65.548901 
L 683.45252 65.385517 
L 684.782798 65.450491 
L 686.113077 65.720423 
L 687.443355 66.168838 
L 689.438773 67.112487 
L 692.09933 68.712742 
L 702.741557 75.785754 
L 704.736974 77.407517 
L 706.732392 79.401633 
L 708.06267 80.993375 
L 710.058088 83.813037 
L 712.053506 87.130166 
L 714.714062 92.155586 
L 723.360872 109.177042 
L 726.021429 113.679292 
L 728.681986 117.685265 
L 731.342543 121.210769 
L 734.003099 124.288669 
L 736.663656 126.961824 
L 739.324213 129.285811 
L 741.98477 131.325217 
L 745.310466 133.562769 
L 748.636162 135.51619 
L 751.961858 137.188852 
L 754.622415 138.28241 
L 757.282971 139.094029 
L 759.278389 139.48153 
L 761.273807 139.667687 
L 763.269224 139.666545 
L 765.929781 139.440611 
L 771.250895 138.670479 
L 777.237147 137.89418 
L 790.539931 136.27966 
L 796.526184 135.306688 
L 801.847298 134.205125 
L 810.494108 132.095935 
L 827.787727 127.780237 
L 831.113423 126.644179 
L 833.77398 125.5323 
L 836.434536 124.210064 
L 839.760232 122.286901 
L 845.746485 118.442121 
L 849.73732 116.012281 
L 852.397877 114.618732 
L 855.058434 113.462507 
L 857.718991 112.535443 
L 861.044687 111.608945 
L 869.691496 109.548694 
L 875.677749 108.25008 
L 880.333724 107.484091 
L 884.989698 106.96322 
L 890.975951 106.552347 
L 900.953039 106.153955 
L 910.930127 105.720296 
L 913.590684 105.370508 
L 915.586101 104.825184 
L 916.91638 104.224643 
L 918.246658 103.351358 
L 919.576937 102.126863 
L 920.907215 100.475721 
L 922.237493 98.33672 
L 923.567772 95.674385 
L 924.89805 92.488174 
L 926.228329 88.816841 
L 928.223746 82.57482 
L 931.549442 71.152304 
L 934.875138 59.973333 
L 936.870556 53.899603 
L 938.865973 48.492757 
L 940.861391 43.881237 
L 942.191669 41.321019 
L 943.521948 39.228522 
L 944.852226 37.650192 
L 946.182505 36.622759 
L 946.847644 36.32283 
L 947.512783 36.166906 
L 948.177922 36.154545 
L 948.843061 36.284178 
L 949.508201 36.553249 
L 950.17334 36.958416 
L 951.503618 38.161348 
L 952.833897 39.860449 
L 954.164175 42.026078 
L 955.494453 44.635054 
L 956.824732 47.668922 
L 958.820149 52.969232 
L 960.815567 59.051094 
L 964.141263 70.206209 
L 966.80182 78.991723 
L 968.797238 84.869021 
L 970.127516 88.294344 
L 971.457794 91.288659 
L 972.788073 93.863081 
L 974.118351 96.059405 
L 975.44863 97.939771 
L 977.444047 100.32432 
L 980.104604 103.04782 
L 984.095439 107.031401 
L 986.090857 109.28391 
L 988.086274 111.876084 
L 990.081692 114.922106 
L 992.07711 118.515998 
L 994.072527 122.70973 
L 996.067945 127.481918 
L 998.728502 134.506567 
L 1002.719337 145.070411 
L 1004.714754 149.571224 
L 1006.045033 152.068365 
L 1007.375311 154.104916 
L 1008.70559 155.672186 
L 1010.035868 156.796612 
L 1011.366146 157.533181 
L 1012.696425 157.955492 
L 1014.026703 158.144714 
L 1016.022121 158.161356 
L 1020.678095 157.94608 
L 1020.678095 157.94608 
" clip-path="url(#p5c17d11a9e)" style="fill: none; stroke: #ff0000; stroke-width: 1.5; stroke-linecap: square"/>
   </g>
   <g id="line2d_16">
    <path d="M 535.791617 170.44 
L 535.791617 29.76 
" clip-path="url(#p5c17d11a9e)" style="fill: none; stroke: #1f77b4; stroke-width: 1.5; stroke-linecap: square"/>
   </g>
   <g id="patch_3">
    <path d="M 50.24 170.44 
L 50.24 29.76 
" style="fill: none; stroke: #000000; stroke-width: 0.8; stroke-linejoin: miter; stroke-linecap: square"/>
   </g>
   <g id="patch_4">
    <path d="M 1069.2 170.44 
L 1069.2 29.76 
" style="fill: none; stroke: #000000; stroke-width: 0.8; stroke-linejoin: miter; stroke-linecap: square"/>
   </g>
   <g id="patch_5">
    <path d="M 50.24 170.44 
L 1069.2 170.44 
" style="fill: none; stroke: #000000; stroke-width: 0.8; stroke-linejoin: miter; stroke-linecap: square"/>
   </g>
   <g id="patch_6">
    <path d="M 50.24 29.76 
L 1069.2 29.76 
" style="fill: none; stroke: #000000; stroke-width: 0.8; stroke-linejoin: miter; stroke-linecap: square"/>
   </g>
   <g id="text_16">
    <!-- Heat Conduction Equation Solution at x=1M -->
    <g transform="translate(383.1175 23.76) scale(0.16 -0.16)">
     <defs>
      <path id="DejaVuSans-48" d="M 628 4666 
L 1259 4666 
L 1259 2753 
L 3553 2753 
L 3553 4666 
L 4184 4666 
L 4184 0 
L 3553 0 
L 3553 2222 
L 1259 2222 
L 1259 0 
L 628 0 
L 628 4666 
z
" transform="scale(0.015625)"/>
      <path id="DejaVuSans-43" d="M 4122 4306 
L 4122 3641 
Q 3803 3938 3442 4084 
Q 3081 4231 2675 4231 
Q 1875 4231 1450 3742 
Q 1025 3253 1025 2328 
Q 1025 1406 1450 917 
Q 1875 428 2675 428 
Q 3081 428 3442 575 
Q 3803 722 4122 1019 
L 4122 359 
Q 3791 134 3420 21 
Q 3050 -91 2638 -91 
Q 1578 -91 968 557 
Q 359 1206 359 2328 
Q 359 3453 968 4101 
Q 1578 4750 2638 4750 
Q 3056 4750 3426 4639 
Q 3797 4528 4122 4306 
z
" transform="scale(0.015625)"/>
      <path id="DejaVuSans-64" d="M 2906 2969 
L 2906 4863 
L 3481 4863 
L 3481 0 
L 2906 0 
L 2906 525 
Q 2725 213 2448 61 
Q 2172 -91 1784 -91 
Q 1150 -91 751 415 
Q 353 922 353 1747 
Q 353 2572 751 3078 
Q 1150 3584 1784 3584 
Q 2172 3584 2448 3432 
Q 2725 3281 2906 2969 
z
M 947 1747 
Q 947 1113 1208 752 
Q 1469 391 1925 391 
Q 2381 391 2643 752 
Q 2906 1113 2906 1747 
Q 2906 2381 2643 2742 
Q 2381 3103 1925 3103 
Q 1469 3103 1208 2742 
Q 947 2381 947 1747 
z
" transform="scale(0.015625)"/>
      <path id="DejaVuSans-63" d="M 3122 3366 
L 3122 2828 
Q 2878 2963 2633 3030 
Q 2388 3097 2138 3097 
Q 1578 3097 1268 2742 
Q 959 2388 959 1747 
Q 959 1106 1268 751 
Q 1578 397 2138 397 
Q 2388 397 2633 464 
Q 2878 531 3122 666 
L 3122 134 
Q 2881 22 2623 -34 
Q 2366 -91 2075 -91 
Q 1284 -91 818 406 
Q 353 903 353 1747 
Q 353 2603 823 3093 
Q 1294 3584 2113 3584 
Q 2378 3584 2631 3529 
Q 2884 3475 3122 3366 
z
" transform="scale(0.015625)"/>
      <path id="DejaVuSans-45" d="M 628 4666 
L 3578 4666 
L 3578 4134 
L 1259 4134 
L 1259 2753 
L 3481 2753 
L 3481 2222 
L 1259 2222 
L 1259 531 
L 3634 531 
L 3634 0 
L 628 0 
L 628 4666 
z
" transform="scale(0.015625)"/>
      <path id="DejaVuSans-71" d="M 947 1747 
Q 947 1113 1208 752 
Q 1469 391 1925 391 
Q 2381 391 2643 752 
Q 2906 1113 2906 1747 
Q 2906 2381 2643 2742 
Q 2381 3103 1925 3103 
Q 1469 3103 1208 2742 
Q 947 2381 947 1747 
z
M 2906 525 
Q 2725 213 2448 61 
Q 2172 -91 1784 -91 
Q 1150 -91 751 415 
Q 353 922 353 1747 
Q 353 2572 751 3078 
Q 1150 3584 1784 3584 
Q 2172 3584 2448 3432 
Q 2725 3281 2906 2969 
L 2906 3500 
L 3481 3500 
L 3481 -1331 
L 2906 -1331 
L 2906 525 
z
" transform="scale(0.015625)"/>
      <path id="DejaVuSans-78" d="M 3513 3500 
L 2247 1797 
L 3578 0 
L 2900 0 
L 1881 1375 
L 863 0 
L 184 0 
L 1544 1831 
L 300 3500 
L 978 3500 
L 1906 2253 
L 2834 3500 
L 3513 3500 
z
" transform="scale(0.015625)"/>
      <path id="DejaVuSans-3d" d="M 678 2906 
L 4684 2906 
L 4684 2381 
L 678 2381 
L 678 2906 
z
M 678 1631 
L 4684 1631 
L 4684 1100 
L 678 1100 
L 678 1631 
z
" transform="scale(0.015625)"/>
      <path id="DejaVuSans-4d" d="M 628 4666 
L 1569 4666 
L 2759 1491 
L 3956 4666 
L 4897 4666 
L 4897 0 
L 4281 0 
L 4281 4097 
L 3078 897 
L 2444 897 
L 1241 4097 
L 1241 0 
L 628 0 
L 628 4666 
z
" transform="scale(0.015625)"/>
     </defs>
     <use xlink:href="#DejaVuSans-48"/>
     <use xlink:href="#DejaVuSans-65" transform="translate(75.195312 0)"/>
     <use xlink:href="#DejaVuSans-61" transform="translate(136.71875 0)"/>
     <use xlink:href="#DejaVuSans-74" transform="translate(197.998047 0)"/>
     <use xlink:href="#DejaVuSans-20" transform="translate(237.207031 0)"/>
     <use xlink:href="#DejaVuSans-43" transform="translate(268.994141 0)"/>
     <use xlink:href="#DejaVuSans-6f" transform="translate(338.818359 0)"/>
     <use xlink:href="#DejaVuSans-6e" transform="translate(400 0)"/>
     <use xlink:href="#DejaVuSans-64" transform="translate(463.378906 0)"/>
     <use xlink:href="#DejaVuSans-75" transform="translate(526.855469 0)"/>
     <use xlink:href="#DejaVuSans-63" transform="translate(590.234375 0)"/>
     <use xlink:href="#DejaVuSans-74" transform="translate(645.214844 0)"/>
     <use xlink:href="#DejaVuSans-69" transform="translate(684.423828 0)"/>
     <use xlink:href="#DejaVuSans-6f" transform="translate(712.207031 0)"/>
     <use xlink:href="#DejaVuSans-6e" transform="translate(773.388672 0)"/>
     <use xlink:href="#DejaVuSans-20" transform="translate(836.767578 0)"/>
     <use xlink:href="#DejaVuSans-45" transform="translate(868.554688 0)"/>
     <use xlink:href="#DejaVuSans-71" transform="translate(931.738281 0)"/>
     <use xlink:href="#DejaVuSans-75" transform="translate(995.214844 0)"/>
     <use xlink:href="#DejaVuSans-61" transform="translate(1058.59375 0)"/>
     <use xlink:href="#DejaVuSans-74" transform="translate(1119.873047 0)"/>
     <use xlink:href="#DejaVuSans-69" transform="translate(1159.082031 0)"/>
     <use xlink:href="#DejaVuSans-6f" transform="translate(1186.865234 0)"/>
     <use xlink:href="#DejaVuSans-6e" transform="translate(1248.046875 0)"/>
     <use xlink:href="#DejaVuSans-20" transform="translate(1311.425781 0)"/>
     <use xlink:href="#DejaVuSans-53" transform="translate(1343.212891 0)"/>
     <use xlink:href="#DejaVuSans-6f" transform="translate(1406.689453 0)"/>
     <use xlink:href="#DejaVuSans-6c" transform="translate(1467.871094 0)"/>
     <use xlink:href="#DejaVuSans-75" transform="translate(1495.654297 0)"/>
     <use xlink:href="#DejaVuSans-74" transform="translate(1559.033203 0)"/>
     <use xlink:href="#DejaVuSans-69" transform="translate(1598.242188 0)"/>
     <use xlink:href="#DejaVuSans-6f" transform="translate(1626.025391 0)"/>
     <use xlink:href="#DejaVuSans-6e" transform="translate(1687.207031 0)"/>
     <use xlink:href="#DejaVuSans-20" transform="translate(1750.585938 0)"/>
     <use xlink:href="#DejaVuSans-61" transform="translate(1782.373047 0)"/>
     <use xlink:href="#DejaVuSans-74" transform="translate(1843.652344 0)"/>
     <use xlink:href="#DejaVuSans-20" transform="translate(1882.861328 0)"/>
     <use xlink:href="#DejaVuSans-78" transform="translate(1914.648438 0)"/>
     <use xlink:href="#DejaVuSans-3d" transform="translate(1973.828125 0)"/>
     <use xlink:href="#DejaVuSans-31" transform="translate(2057.617188 0)"/>
     <use xlink:href="#DejaVuSans-4d" transform="translate(2121.240234 0)"/>
    </g>
   </g>
   <g id="legend_1">
    <g id="patch_7">
     <path d="M 58.64 74.5875 
L 170.114375 74.5875 
Q 172.514375 74.5875 172.514375 72.1875 
L 172.514375 38.16 
Q 172.514375 35.76 170.114375 35.76 
L 58.64 35.76 
Q 56.24 35.76 56.24 38.16 
L 56.24 72.1875 
Q 56.24 74.5875 58.64 74.5875 
z
" style="fill: #ffffff; opacity: 0.8; stroke: #cccccc; stroke-linejoin: miter"/>
    </g>
    <g id="line2d_17">
     <path d="M 61.04 45.478125 
L 73.04 45.478125 
L 85.04 45.478125 
" style="fill: none; stroke: #0000ff; stroke-width: 1.5; stroke-linecap: square"/>
    </g>
    <g id="text_17">
     <!-- Observation -->
     <g transform="translate(94.64 49.678125) scale(0.12 -0.12)">
      <defs>
       <path id="DejaVuSans-4f" d="M 2522 4238 
Q 1834 4238 1429 3725 
Q 1025 3213 1025 2328 
Q 1025 1447 1429 934 
Q 1834 422 2522 422 
Q 3209 422 3611 934 
Q 4013 1447 4013 2328 
Q 4013 3213 3611 3725 
Q 3209 4238 2522 4238 
z
M 2522 4750 
Q 3503 4750 4090 4092 
Q 4678 3434 4678 2328 
Q 4678 1225 4090 567 
Q 3503 -91 2522 -91 
Q 1538 -91 948 565 
Q 359 1222 359 2328 
Q 359 3434 948 4092 
Q 1538 4750 2522 4750 
z
" transform="scale(0.015625)"/>
       <path id="DejaVuSans-62" d="M 3116 1747 
Q 3116 2381 2855 2742 
Q 2594 3103 2138 3103 
Q 1681 3103 1420 2742 
Q 1159 2381 1159 1747 
Q 1159 1113 1420 752 
Q 1681 391 2138 391 
Q 2594 391 2855 752 
Q 3116 1113 3116 1747 
z
M 1159 2969 
Q 1341 3281 1617 3432 
Q 1894 3584 2278 3584 
Q 2916 3584 3314 3078 
Q 3713 2572 3713 1747 
Q 3713 922 3314 415 
Q 2916 -91 2278 -91 
Q 1894 -91 1617 61 
Q 1341 213 1159 525 
L 1159 0 
L 581 0 
L 581 4863 
L 1159 4863 
L 1159 2969 
z
" transform="scale(0.015625)"/>
       <path id="DejaVuSans-76" d="M 191 3500 
L 800 3500 
L 1894 563 
L 2988 3500 
L 3597 3500 
L 2284 0 
L 1503 0 
L 191 3500 
z
" transform="scale(0.015625)"/>
      </defs>
      <use xlink:href="#DejaVuSans-4f"/>
      <use xlink:href="#DejaVuSans-62" transform="translate(78.710938 0)"/>
      <use xlink:href="#DejaVuSans-73" transform="translate(142.1875 0)"/>
      <use xlink:href="#DejaVuSans-65" transform="translate(194.287109 0)"/>
      <use xlink:href="#DejaVuSans-72" transform="translate(255.810547 0)"/>
      <use xlink:href="#DejaVuSans-76" transform="translate(296.923828 0)"/>
      <use xlink:href="#DejaVuSans-61" transform="translate(356.103516 0)"/>
      <use xlink:href="#DejaVuSans-74" transform="translate(417.382812 0)"/>
      <use xlink:href="#DejaVuSans-69" transform="translate(456.591797 0)"/>
      <use xlink:href="#DejaVuSans-6f" transform="translate(484.375 0)"/>
      <use xlink:href="#DejaVuSans-6e" transform="translate(545.556641 0)"/>
     </g>
    </g>
    <g id="line2d_18">
     <path d="M 61.04 63.091875 
L 73.04 63.091875 
L 85.04 63.091875 
" style="fill: none; stroke: #ff0000; stroke-width: 1.5; stroke-linecap: square"/>
    </g>
    <g id="text_18">
     <!-- Predicted -->
     <g transform="translate(94.64 67.291875) scale(0.12 -0.12)">
      <defs>
       <path id="DejaVuSans-50" d="M 1259 4147 
L 1259 2394 
L 2053 2394 
Q 2494 2394 2734 2622 
Q 2975 2850 2975 3272 
Q 2975 3691 2734 3919 
Q 2494 4147 2053 4147 
L 1259 4147 
z
M 628 4666 
L 2053 4666 
Q 2838 4666 3239 4311 
Q 3641 3956 3641 3272 
Q 3641 2581 3239 2228 
Q 2838 1875 2053 1875 
L 1259 1875 
L 1259 0 
L 628 0 
L 628 4666 
z
" transform="scale(0.015625)"/>
      </defs>
      <use xlink:href="#DejaVuSans-50"/>
      <use xlink:href="#DejaVuSans-72" transform="translate(58.552734 0)"/>
      <use xlink:href="#DejaVuSans-65" transform="translate(97.416016 0)"/>
      <use xlink:href="#DejaVuSans-64" transform="translate(158.939453 0)"/>
      <use xlink:href="#DejaVuSans-69" transform="translate(222.416016 0)"/>
      <use xlink:href="#DejaVuSans-63" transform="translate(250.199219 0)"/>
      <use xlink:href="#DejaVuSans-74" transform="translate(305.179688 0)"/>
      <use xlink:href="#DejaVuSans-65" transform="translate(344.388672 0)"/>
      <use xlink:href="#DejaVuSans-64" transform="translate(405.912109 0)"/>
     </g>
    </g>
   </g>
  </g>
 </g>
 <defs>
  <clipPath id="p5c17d11a9e">
   <rect x="50.24" y="29.76" width="1018.96" height="140.68"/>
  </clipPath>
 </defs>
</svg>
