<?xml version="1.0" encoding="utf-8" standalone="no"?>
<!DOCTYPE svg PUBLIC "-//W3C//DTD SVG 1.1//EN"
  "http://www.w3.org/Graphics/SVG/1.1/DTD/svg11.dtd">
<svg xmlns:xlink="http://www.w3.org/1999/xlink" width="1080pt" height="216pt" viewBox="0 0 1080 216" xmlns="http://www.w3.org/2000/svg" version="1.1">
 <metadata>
  <rdf:RDF xmlns:dc="http://purl.org/dc/elements/1.1/" xmlns:cc="http://creativecommons.org/ns#" xmlns:rdf="http://www.w3.org/1999/02/22-rdf-syntax-ns#">
   <cc:Work>
    <dc:type rdf:resource="http://purl.org/dc/dcmitype/StillImage"/>
    <dc:date>2026-02-09T10:07:34.471704</dc:date>
    <dc:format>image/svg+xml</dc:format>
    <dc:creator>
     <cc:Agent>
      <dc:title>Matplotlib v3.10.8, https://matplotlib.org/</dc:title>
     </cc:Agent>
    </dc:creator>
   </cc:Work>
  </rdf:RDF>
 </metadata>
 <defs>
  <style type="text/css">*{stroke-linejoin: round; stroke-linecap: butt}</style>
 </defs>
 <g id="figure_1">
  <g id="patch_1">
   <path d="M 0 216 
L 1080 216 
L 1080 0 
L 0 0 
z
" style="fill: #ffffff"/>
  </g>
  <g id="axes_1">
   <g id="patch_2">
    <path d="M 59.78 170.44 
L 1069.2 170.44 
L 1069.2 29.76 
L 59.78 29.76 
z
" style="fill: #ffffff"/>
   </g>
   <g id="matplotlib.axis_1">
    <g id="xtick_1">
     <g id="line2d_1">
      <defs>
       <path id="m87e964b2e1" d="M 0 0 
L 0 3.5 
" style="stroke: #000000; stroke-width: 0.8"/>
      </defs>
      <g>
       <use xlink:href="#m87e964b2e1" x="59.78" y="170.44" style="stroke: #000000; stroke-width: 0.8"/>
      </g>
     </g>
     <g id="text_1">
      <!-- 0 -->
      <g transform="translate(56.59875 185.038437) scale(0.1 -0.1)">
       <defs>
        <path id="DejaVuSans-30" d="M 2034 4250 
Q 1547 4250 1301 3770 
Q 1056 3291 1056 2328 
Q 1056 1369 1301 889 
Q 1547 409 2034 409 
Q 2525 409 2770 889 
Q 3016 1369 3016 2328 
Q 3016 3291 2770 3770 
Q 2525 4250 2034 4250 
z
M 2034 4750 
Q 2819 4750 3233 4129 
Q 3647 3509 3647 2328 
Q 3647 1150 3233 529 
Q 2819 -91 2034 -91 
Q 1250 -91 836 529 
Q 422 1150 422 2328 
Q 422 3509 836 4129 
Q 1250 4750 2034 4750 
z
" transform="scale(0.015625)"/>
       </defs>
       <use xlink:href="#DejaVuSans-30"/>
      </g>
     </g>
    </g>
    <g id="xtick_2">
     <g id="line2d_2">
      <g>
       <use xlink:href="#m87e964b2e1" x="191.562369" y="170.44" style="stroke: #000000; stroke-width: 0.8"/>
      </g>
     </g>
     <g id="text_2">
      <!-- 200 -->
      <g transform="translate(182.018619 185.038437) scale(0.1 -0.1)">
       <defs>
        <path id="DejaVuSans-32" d="M 1228 531 
L 3431 531 
L 3431 0 
L 469 0 
L 469 531 
Q 828 903 1448 1529 
Q 2069 2156 2228 2338 
Q 2531 2678 2651 2914 
Q 2772 3150 2772 3378 
Q 2772 3750 2511 3984 
Q 2250 4219 1831 4219 
Q 1534 4219 1204 4116 
Q 875 4013 500 3803 
L 500 4441 
Q 881 4594 1212 4672 
Q 1544 4750 1819 4750 
Q 2544 4750 2975 4387 
Q 3406 4025 3406 3419 
Q 3406 3131 3298 2873 
Q 3191 2616 2906 2266 
Q 2828 2175 2409 1742 
Q 1991 1309 1228 531 
z
" transform="scale(0.015625)"/>
       </defs>
       <use xlink:href="#DejaVuSans-32"/>
       <use xlink:href="#DejaVuSans-30" transform="translate(63.623047 0)"/>
       <use xlink:href="#DejaVuSans-30" transform="translate(127.246094 0)"/>
      </g>
     </g>
    </g>
    <g id="xtick_3">
     <g id="line2d_3">
      <g>
       <use xlink:href="#m87e964b2e1" x="323.344738" y="170.44" style="stroke: #000000; stroke-width: 0.8"/>
      </g>
     </g>
     <g id="text_3">
      <!-- 400 -->
      <g transform="translate(313.800988 185.038437) scale(0.1 -0.1)">
       <defs>
        <path id="DejaVuSans-34" d="M 2419 4116 
L 825 1625 
L 2419 1625 
L 2419 4116 
z
M 2253 4666 
L 3047 4666 
L 3047 1625 
L 3713 1625 
L 3713 1100 
L 3047 1100 
L 3047 0 
L 2419 0 
L 2419 1100 
L 313 1100 
L 313 1709 
L 2253 4666 
z
" transform="scale(0.015625)"/>
       </defs>
       <use xlink:href="#DejaVuSans-34"/>
       <use xlink:href="#DejaVuSans-30" transform="translate(63.623047 0)"/>
       <use xlink:href="#DejaVuSans-30" transform="translate(127.246094 0)"/>
      </g>
     </g>
    </g>
    <g id="xtick_4">
     <g id="line2d_4">
      <g>
       <use xlink:href="#m87e964b2e1" x="455.127107" y="170.44" style="stroke: #000000; stroke-width: 0.8"/>
      </g>
     </g>
     <g id="text_4">
      <!-- 600 -->
      <g transform="translate(445.583357 185.038437) scale(0.1 -0.1)">
       <defs>
        <path id="DejaVuSans-36" d="M 2113 2584 
Q 1688 2584 1439 2293 
Q 1191 2003 1191 1497 
Q 1191 994 1439 701 
Q 1688 409 2113 409 
Q 2538 409 2786 701 
Q 3034 994 3034 1497 
Q 3034 2003 2786 2293 
Q 2538 2584 2113 2584 
z
M 3366 4563 
L 3366 3988 
Q 3128 4100 2886 4159 
Q 2644 4219 2406 4219 
Q 1781 4219 1451 3797 
Q 1122 3375 1075 2522 
Q 1259 2794 1537 2939 
Q 1816 3084 2150 3084 
Q 2853 3084 3261 2657 
Q 3669 2231 3669 1497 
Q 3669 778 3244 343 
Q 2819 -91 2113 -91 
Q 1303 -91 875 529 
Q 447 1150 447 2328 
Q 447 3434 972 4092 
Q 1497 4750 2381 4750 
Q 2619 4750 2861 4703 
Q 3103 4656 3366 4563 
z
" transform="scale(0.015625)"/>
       </defs>
       <use xlink:href="#DejaVuSans-36"/>
       <use xlink:href="#DejaVuSans-30" transform="translate(63.623047 0)"/>
       <use xlink:href="#DejaVuSans-30" transform="translate(127.246094 0)"/>
      </g>
     </g>
    </g>
    <g id="xtick_5">
     <g id="line2d_5">
      <g>
       <use xlink:href="#m87e964b2e1" x="586.909476" y="170.44" style="stroke: #000000; stroke-width: 0.8"/>
      </g>
     </g>
     <g id="text_5">
      <!-- 800 -->
      <g transform="translate(577.365726 185.038437) scale(0.1 -0.1)">
       <defs>
        <path id="DejaVuSans-38" d="M 2034 2216 
Q 1584 2216 1326 1975 
Q 1069 1734 1069 1313 
Q 1069 891 1326 650 
Q 1584 409 2034 409 
Q 2484 409 2743 651 
Q 3003 894 3003 1313 
Q 3003 1734 2745 1975 
Q 2488 2216 2034 2216 
z
M 1403 2484 
Q 997 2584 770 2862 
Q 544 3141 544 3541 
Q 544 4100 942 4425 
Q 1341 4750 2034 4750 
Q 2731 4750 3128 4425 
Q 3525 4100 3525 3541 
Q 3525 3141 3298 2862 
Q 3072 2584 2669 2484 
Q 3125 2378 3379 2068 
Q 3634 1759 3634 1313 
Q 3634 634 3220 271 
Q 2806 -91 2034 -91 
Q 1263 -91 848 271 
Q 434 634 434 1313 
Q 434 1759 690 2068 
Q 947 2378 1403 2484 
z
M 1172 3481 
Q 1172 3119 1398 2916 
Q 1625 2713 2034 2713 
Q 2441 2713 2670 2916 
Q 2900 3119 2900 3481 
Q 2900 3844 2670 4047 
Q 2441 4250 2034 4250 
Q 1625 4250 1398 4047 
Q 1172 3844 1172 3481 
z
" transform="scale(0.015625)"/>
       </defs>
       <use xlink:href="#DejaVuSans-38"/>
       <use xlink:href="#DejaVuSans-30" transform="translate(63.623047 0)"/>
       <use xlink:href="#DejaVuSans-30" transform="translate(127.246094 0)"/>
      </g>
     </g>
    </g>
    <g id="xtick_6">
     <g id="line2d_6">
      <g>
       <use xlink:href="#m87e964b2e1" x="718.691844" y="170.44" style="stroke: #000000; stroke-width: 0.8"/>
      </g>
     </g>
     <g id="text_6">
      <!-- 1000 -->
      <g transform="translate(705.966844 185.038437) scale(0.1 -0.1)">
       <defs>
        <path id="DejaVuSans-31" d="M 794 531 
L 1825 531 
L 1825 4091 
L 703 3866 
L 703 4441 
L 1819 4666 
L 2450 4666 
L 2450 531 
L 3481 531 
L 3481 0 
L 794 0 
L 794 531 
z
" transform="scale(0.015625)"/>
       </defs>
       <use xlink:href="#DejaVuSans-31"/>
       <use xlink:href="#DejaVuSans-30" transform="translate(63.623047 0)"/>
       <use xlink:href="#DejaVuSans-30" transform="translate(127.246094 0)"/>
       <use xlink:href="#DejaVuSans-30" transform="translate(190.869141 0)"/>
      </g>
     </g>
    </g>
    <g id="xtick_7">
     <g id="line2d_7">
      <g>
       <use xlink:href="#m87e964b2e1" x="850.474213" y="170.44" style="stroke: #000000; stroke-width: 0.8"/>
      </g>
     </g>
     <g id="text_7">
      <!-- 1200 -->
      <g transform="translate(837.749213 185.038437) scale(0.1 -0.1)">
       <use xlink:href="#DejaVuSans-31"/>
       <use xlink:href="#DejaVuSans-32" transform="translate(63.623047 0)"/>
       <use xlink:href="#DejaVuSans-30" transform="translate(127.246094 0)"/>
       <use xlink:href="#DejaVuSans-30" transform="translate(190.869141 0)"/>
      </g>
     </g>
    </g>
    <g id="xtick_8">
     <g id="line2d_8">
      <g>
       <use xlink:href="#m87e964b2e1" x="982.256582" y="170.44" style="stroke: #000000; stroke-width: 0.8"/>
      </g>
     </g>
     <g id="text_8">
      <!-- 1400 -->
      <g transform="translate(969.531582 185.038437) scale(0.1 -0.1)">
       <use xlink:href="#DejaVuSans-31"/>
       <use xlink:href="#DejaVuSans-34" transform="translate(63.623047 0)"/>
       <use xlink:href="#DejaVuSans-30" transform="translate(127.246094 0)"/>
       <use xlink:href="#DejaVuSans-30" transform="translate(190.869141 0)"/>
      </g>
     </g>
    </g>
    <g id="text_9">
     <!-- Simulation Days -->
     <g transform="translate(507.51 201.755937) scale(0.14 -0.14)">
      <defs>
       <path id="DejaVuSans-53" d="M 3425 4513 
L 3425 3897 
Q 3066 4069 2747 4153 
Q 2428 4238 2131 4238 
Q 1616 4238 1336 4038 
Q 1056 3838 1056 3469 
Q 1056 3159 1242 3001 
Q 1428 2844 1947 2747 
L 2328 2669 
Q 3034 2534 3370 2195 
Q 3706 1856 3706 1288 
Q 3706 609 3251 259 
Q 2797 -91 1919 -91 
Q 1588 -91 1214 -16 
Q 841 59 441 206 
L 441 856 
Q 825 641 1194 531 
Q 1563 422 1919 422 
Q 2459 422 2753 634 
Q 3047 847 3047 1241 
Q 3047 1584 2836 1778 
Q 2625 1972 2144 2069 
L 1759 2144 
Q 1053 2284 737 2584 
Q 422 2884 422 3419 
Q 422 4038 858 4394 
Q 1294 4750 2059 4750 
Q 2388 4750 2728 4690 
Q 3069 4631 3425 4513 
z
" transform="scale(0.015625)"/>
       <path id="DejaVuSans-69" d="M 603 3500 
L 1178 3500 
L 1178 0 
L 603 0 
L 603 3500 
z
M 603 4863 
L 1178 4863 
L 1178 4134 
L 603 4134 
L 603 4863 
z
" transform="scale(0.015625)"/>
       <path id="DejaVuSans-6d" d="M 3328 2828 
Q 3544 3216 3844 3400 
Q 4144 3584 4550 3584 
Q 5097 3584 5394 3201 
Q 5691 2819 5691 2113 
L 5691 0 
L 5113 0 
L 5113 2094 
Q 5113 2597 4934 2840 
Q 4756 3084 4391 3084 
Q 3944 3084 3684 2787 
Q 3425 2491 3425 1978 
L 3425 0 
L 2847 0 
L 2847 2094 
Q 2847 2600 2669 2842 
Q 2491 3084 2119 3084 
Q 1678 3084 1418 2786 
Q 1159 2488 1159 1978 
L 1159 0 
L 581 0 
L 581 3500 
L 1159 3500 
L 1159 2956 
Q 1356 3278 1631 3431 
Q 1906 3584 2284 3584 
Q 2666 3584 2933 3390 
Q 3200 3197 3328 2828 
z
" transform="scale(0.015625)"/>
       <path id="DejaVuSans-75" d="M 544 1381 
L 544 3500 
L 1119 3500 
L 1119 1403 
Q 1119 906 1312 657 
Q 1506 409 1894 409 
Q 2359 409 2629 706 
Q 2900 1003 2900 1516 
L 2900 3500 
L 3475 3500 
L 3475 0 
L 2900 0 
L 2900 538 
Q 2691 219 2414 64 
Q 2138 -91 1772 -91 
Q 1169 -91 856 284 
Q 544 659 544 1381 
z
M 1991 3584 
L 1991 3584 
z
" transform="scale(0.015625)"/>
       <path id="DejaVuSans-6c" d="M 603 4863 
L 1178 4863 
L 1178 0 
L 603 0 
L 603 4863 
z
" transform="scale(0.015625)"/>
       <path id="DejaVuSans-61" d="M 2194 1759 
Q 1497 1759 1228 1600 
Q 959 1441 959 1056 
Q 959 750 1161 570 
Q 1363 391 1709 391 
Q 2188 391 2477 730 
Q 2766 1069 2766 1631 
L 2766 1759 
L 2194 1759 
z
M 3341 1997 
L 3341 0 
L 2766 0 
L 2766 531 
Q 2569 213 2275 61 
Q 1981 -91 1556 -91 
Q 1019 -91 701 211 
Q 384 513 384 1019 
Q 384 1609 779 1909 
Q 1175 2209 1959 2209 
L 2766 2209 
L 2766 2266 
Q 2766 2663 2505 2880 
Q 2244 3097 1772 3097 
Q 1472 3097 1187 3025 
Q 903 2953 641 2809 
L 641 3341 
Q 956 3463 1253 3523 
Q 1550 3584 1831 3584 
Q 2591 3584 2966 3190 
Q 3341 2797 3341 1997 
z
" transform="scale(0.015625)"/>
       <path id="DejaVuSans-74" d="M 1172 4494 
L 1172 3500 
L 2356 3500 
L 2356 3053 
L 1172 3053 
L 1172 1153 
Q 1172 725 1289 603 
Q 1406 481 1766 481 
L 2356 481 
L 2356 0 
L 1766 0 
Q 1100 0 847 248 
Q 594 497 594 1153 
L 594 3053 
L 172 3053 
L 172 3500 
L 594 3500 
L 594 4494 
L 1172 4494 
z
" transform="scale(0.015625)"/>
       <path id="DejaVuSans-6f" d="M 1959 3097 
Q 1497 3097 1228 2736 
Q 959 2375 959 1747 
Q 959 1119 1226 758 
Q 1494 397 1959 397 
Q 2419 397 2687 759 
Q 2956 1122 2956 1747 
Q 2956 2369 2687 2733 
Q 2419 3097 1959 3097 
z
M 1959 3584 
Q 2709 3584 3137 3096 
Q 3566 2609 3566 1747 
Q 3566 888 3137 398 
Q 2709 -91 1959 -91 
Q 1206 -91 779 398 
Q 353 888 353 1747 
Q 353 2609 779 3096 
Q 1206 3584 1959 3584 
z
" transform="scale(0.015625)"/>
       <path id="DejaVuSans-6e" d="M 3513 2113 
L 3513 0 
L 2938 0 
L 2938 2094 
Q 2938 2591 2744 2837 
Q 2550 3084 2163 3084 
Q 1697 3084 1428 2787 
Q 1159 2491 1159 1978 
L 1159 0 
L 581 0 
L 581 3500 
L 1159 3500 
L 1159 2956 
Q 1366 3272 1645 3428 
Q 1925 3584 2291 3584 
Q 2894 3584 3203 3211 
Q 3513 2838 3513 2113 
z
" transform="scale(0.015625)"/>
       <path id="DejaVuSans-20" transform="scale(0.015625)"/>
       <path id="DejaVuSans-44" d="M 1259 4147 
L 1259 519 
L 2022 519 
Q 2988 519 3436 956 
Q 3884 1394 3884 2338 
Q 3884 3275 3436 3711 
Q 2988 4147 2022 4147 
L 1259 4147 
z
M 628 4666 
L 1925 4666 
Q 3281 4666 3915 4102 
Q 4550 3538 4550 2338 
Q 4550 1131 3912 565 
Q 3275 0 1925 0 
L 628 0 
L 628 4666 
z
" transform="scale(0.015625)"/>
       <path id="DejaVuSans-79" d="M 2059 -325 
Q 1816 -950 1584 -1140 
Q 1353 -1331 966 -1331 
L 506 -1331 
L 506 -850 
L 844 -850 
Q 1081 -850 1212 -737 
Q 1344 -625 1503 -206 
L 1606 56 
L 191 3500 
L 800 3500 
L 1894 763 
L 2988 3500 
L 3597 3500 
L 2059 -325 
z
" transform="scale(0.015625)"/>
       <path id="DejaVuSans-73" d="M 2834 3397 
L 2834 2853 
Q 2591 2978 2328 3040 
Q 2066 3103 1784 3103 
Q 1356 3103 1142 2972 
Q 928 2841 928 2578 
Q 928 2378 1081 2264 
Q 1234 2150 1697 2047 
L 1894 2003 
Q 2506 1872 2764 1633 
Q 3022 1394 3022 966 
Q 3022 478 2636 193 
Q 2250 -91 1575 -91 
Q 1294 -91 989 -36 
Q 684 19 347 128 
L 347 722 
Q 666 556 975 473 
Q 1284 391 1588 391 
Q 1994 391 2212 530 
Q 2431 669 2431 922 
Q 2431 1156 2273 1281 
Q 2116 1406 1581 1522 
L 1381 1569 
Q 847 1681 609 1914 
Q 372 2147 372 2553 
Q 372 3047 722 3315 
Q 1072 3584 1716 3584 
Q 2034 3584 2315 3537 
Q 2597 3491 2834 3397 
z
" transform="scale(0.015625)"/>
      </defs>
      <use xlink:href="#DejaVuSans-53"/>
      <use xlink:href="#DejaVuSans-69" transform="translate(63.476562 0)"/>
      <use xlink:href="#DejaVuSans-6d" transform="translate(91.259766 0)"/>
      <use xlink:href="#DejaVuSans-75" transform="translate(188.671875 0)"/>
      <use xlink:href="#DejaVuSans-6c" transform="translate(252.050781 0)"/>
      <use xlink:href="#DejaVuSans-61" transform="translate(279.833984 0)"/>
      <use xlink:href="#DejaVuSans-74" transform="translate(341.113281 0)"/>
      <use xlink:href="#DejaVuSans-69" transform="translate(380.322266 0)"/>
      <use xlink:href="#DejaVuSans-6f" transform="translate(408.105469 0)"/>
      <use xlink:href="#DejaVuSans-6e" transform="translate(469.287109 0)"/>
      <use xlink:href="#DejaVuSans-20" transform="translate(532.666016 0)"/>
      <use xlink:href="#DejaVuSans-44" transform="translate(564.453125 0)"/>
      <use xlink:href="#DejaVuSans-61" transform="translate(641.455078 0)"/>
      <use xlink:href="#DejaVuSans-79" transform="translate(702.734375 0)"/>
      <use xlink:href="#DejaVuSans-73" transform="translate(761.914062 0)"/>
     </g>
    </g>
   </g>
   <g id="matplotlib.axis_2">
    <g id="ytick_1">
     <g id="line2d_9">
      <defs>
       <path id="m696b869e3a" d="M 0 0 
L -3.5 0 
" style="stroke: #000000; stroke-width: 0.8"/>
      </defs>
      <g>
       <use xlink:href="#m696b869e3a" x="59.78" y="160.034156" style="stroke: #000000; stroke-width: 0.8"/>
      </g>
     </g>
     <g id="text_10">
      <!-- −4.5 -->
      <g transform="translate(28.497187 163.833375) scale(0.1 -0.1)">
       <defs>
        <path id="DejaVuSans-2212" d="M 678 2272 
L 4684 2272 
L 4684 1741 
L 678 1741 
L 678 2272 
z
" transform="scale(0.015625)"/>
        <path id="DejaVuSans-2e" d="M 684 794 
L 1344 794 
L 1344 0 
L 684 0 
L 684 794 
z
" transform="scale(0.015625)"/>
        <path id="DejaVuSans-35" d="M 691 4666 
L 3169 4666 
L 3169 4134 
L 1269 4134 
L 1269 2991 
Q 1406 3038 1543 3061 
Q 1681 3084 1819 3084 
Q 2600 3084 3056 2656 
Q 3513 2228 3513 1497 
Q 3513 744 3044 326 
Q 2575 -91 1722 -91 
Q 1428 -91 1123 -41 
Q 819 9 494 109 
L 494 744 
Q 775 591 1075 516 
Q 1375 441 1709 441 
Q 2250 441 2565 725 
Q 2881 1009 2881 1497 
Q 2881 1984 2565 2268 
Q 2250 2553 1709 2553 
Q 1456 2553 1204 2497 
Q 953 2441 691 2322 
L 691 4666 
z
" transform="scale(0.015625)"/>
       </defs>
       <use xlink:href="#DejaVuSans-2212"/>
       <use xlink:href="#DejaVuSans-34" transform="translate(83.789062 0)"/>
       <use xlink:href="#DejaVuSans-2e" transform="translate(147.412109 0)"/>
       <use xlink:href="#DejaVuSans-35" transform="translate(179.199219 0)"/>
      </g>
     </g>
    </g>
    <g id="ytick_2">
     <g id="line2d_10">
      <g>
       <use xlink:href="#m696b869e3a" x="59.78" y="126.534588" style="stroke: #000000; stroke-width: 0.8"/>
      </g>
     </g>
     <g id="text_11">
      <!-- −3.0 -->
      <g transform="translate(28.497187 130.333807) scale(0.1 -0.1)">
       <defs>
        <path id="DejaVuSans-33" d="M 2597 2516 
Q 3050 2419 3304 2112 
Q 3559 1806 3559 1356 
Q 3559 666 3084 287 
Q 2609 -91 1734 -91 
Q 1441 -91 1130 -33 
Q 819 25 488 141 
L 488 750 
Q 750 597 1062 519 
Q 1375 441 1716 441 
Q 2309 441 2620 675 
Q 2931 909 2931 1356 
Q 2931 1769 2642 2001 
Q 2353 2234 1838 2234 
L 1294 2234 
L 1294 2753 
L 1863 2753 
Q 2328 2753 2575 2939 
Q 2822 3125 2822 3475 
Q 2822 3834 2567 4026 
Q 2313 4219 1838 4219 
Q 1578 4219 1281 4162 
Q 984 4106 628 3988 
L 628 4550 
Q 988 4650 1302 4700 
Q 1616 4750 1894 4750 
Q 2613 4750 3031 4423 
Q 3450 4097 3450 3541 
Q 3450 3153 3228 2886 
Q 3006 2619 2597 2516 
z
" transform="scale(0.015625)"/>
       </defs>
       <use xlink:href="#DejaVuSans-2212"/>
       <use xlink:href="#DejaVuSans-33" transform="translate(83.789062 0)"/>
       <use xlink:href="#DejaVuSans-2e" transform="translate(147.412109 0)"/>
       <use xlink:href="#DejaVuSans-30" transform="translate(179.199219 0)"/>
      </g>
     </g>
    </g>
    <g id="ytick_3">
     <g id="line2d_11">
      <g>
       <use xlink:href="#m696b869e3a" x="59.78" y="93.035021" style="stroke: #000000; stroke-width: 0.8"/>
      </g>
     </g>
     <g id="text_12">
      <!-- −1.5 -->
      <g transform="translate(28.497187 96.834239) scale(0.1 -0.1)">
       <use xlink:href="#DejaVuSans-2212"/>
       <use xlink:href="#DejaVuSans-31" transform="translate(83.789062 0)"/>
       <use xlink:href="#DejaVuSans-2e" transform="translate(147.412109 0)"/>
       <use xlink:href="#DejaVuSans-35" transform="translate(179.199219 0)"/>
      </g>
     </g>
    </g>
    <g id="ytick_4">
     <g id="line2d_12">
      <g>
       <use xlink:href="#m696b869e3a" x="59.78" y="59.535453" style="stroke: #000000; stroke-width: 0.8"/>
      </g>
     </g>
     <g id="text_13">
      <!-- 0.0 -->
      <g transform="translate(36.876875 63.334672) scale(0.1 -0.1)">
       <use xlink:href="#DejaVuSans-30"/>
       <use xlink:href="#DejaVuSans-2e" transform="translate(63.623047 0)"/>
       <use xlink:href="#DejaVuSans-30" transform="translate(95.410156 0)"/>
      </g>
     </g>
    </g>
    <g id="text_14">
     <!-- Temperature (℃) -->
     <g transform="translate(21.585625 159.986094) rotate(-90) scale(0.14 -0.14)">
      <defs>
       <path id="DejaVuSans-54" d="M -19 4666 
L 3928 4666 
L 3928 4134 
L 2272 4134 
L 2272 0 
L 1638 0 
L 1638 4134 
L -19 4134 
L -19 4666 
z
" transform="scale(0.015625)"/>
       <path id="DejaVuSans-65" d="M 3597 1894 
L 3597 1613 
L 953 1613 
Q 991 1019 1311 708 
Q 1631 397 2203 397 
Q 2534 397 2845 478 
Q 3156 559 3463 722 
L 3463 178 
Q 3153 47 2828 -22 
Q 2503 -91 2169 -91 
Q 1331 -91 842 396 
Q 353 884 353 1716 
Q 353 2575 817 3079 
Q 1281 3584 2069 3584 
Q 2775 3584 3186 3129 
Q 3597 2675 3597 1894 
z
M 3022 2063 
Q 3016 2534 2758 2815 
Q 2500 3097 2075 3097 
Q 1594 3097 1305 2825 
Q 1016 2553 972 2059 
L 3022 2063 
z
" transform="scale(0.015625)"/>
       <path id="DejaVuSans-70" d="M 1159 525 
L 1159 -1331 
L 581 -1331 
L 581 3500 
L 1159 3500 
L 1159 2969 
Q 1341 3281 1617 3432 
Q 1894 3584 2278 3584 
Q 2916 3584 3314 3078 
Q 3713 2572 3713 1747 
Q 3713 922 3314 415 
Q 2916 -91 2278 -91 
Q 1894 -91 1617 61 
Q 1341 213 1159 525 
z
M 3116 1747 
Q 3116 2381 2855 2742 
Q 2594 3103 2138 3103 
Q 1681 3103 1420 2742 
Q 1159 2381 1159 1747 
Q 1159 1113 1420 752 
Q 1681 391 2138 391 
Q 2594 391 2855 752 
Q 3116 1113 3116 1747 
z
" transform="scale(0.015625)"/>
       <path id="DejaVuSans-72" d="M 2631 2963 
Q 2534 3019 2420 3045 
Q 2306 3072 2169 3072 
Q 1681 3072 1420 2755 
Q 1159 2438 1159 1844 
L 1159 0 
L 581 0 
L 581 3500 
L 1159 3500 
L 1159 2956 
Q 1341 3275 1631 3429 
Q 1922 3584 2338 3584 
Q 2397 3584 2469 3576 
Q 2541 3569 2628 3553 
L 2631 2963 
z
" transform="scale(0.015625)"/>
       <path id="DejaVuSans-28" d="M 1984 4856 
Q 1566 4138 1362 3434 
Q 1159 2731 1159 2009 
Q 1159 1288 1364 580 
Q 1569 -128 1984 -844 
L 1484 -844 
Q 1016 -109 783 600 
Q 550 1309 550 2009 
Q 550 2706 781 3412 
Q 1013 4119 1484 4856 
L 1984 4856 
z
" transform="scale(0.015625)"/>
       <path id="DejaVuSans-2103" d="M 1600 4347 
Q 1350 4347 1178 4173 
Q 1006 4000 1006 3750 
Q 1006 3503 1178 3333 
Q 1350 3163 1600 3163 
Q 1850 3163 2022 3333 
Q 2194 3503 2194 3750 
Q 2194 3997 2020 4172 
Q 1847 4347 1600 4347 
z
M 1600 4750 
Q 1800 4750 1984 4673 
Q 2169 4597 2303 4453 
Q 2447 4313 2519 4134 
Q 2591 3956 2591 3750 
Q 2591 3338 2302 3052 
Q 2013 2766 1594 2766 
Q 1172 2766 890 3047 
Q 609 3328 609 3750 
Q 609 4169 896 4459 
Q 1184 4750 1600 4750 
z
M 6741 4306 
L 6741 3641 
Q 6422 3938 6061 4084 
Q 5700 4231 5294 4231 
Q 4494 4231 4069 3742 
Q 3644 3253 3644 2328 
Q 3644 1406 4069 917 
Q 4494 428 5294 428 
Q 5700 428 6061 575 
Q 6422 722 6741 1019 
L 6741 359 
Q 6409 134 6039 21 
Q 5669 -91 5256 -91 
Q 4197 -91 3587 557 
Q 2978 1206 2978 2328 
Q 2978 3453 3587 4101 
Q 4197 4750 5256 4750 
Q 5675 4750 6045 4639 
Q 6416 4528 6741 4306 
z
" transform="scale(0.015625)"/>
       <path id="DejaVuSans-29" d="M 513 4856 
L 1013 4856 
Q 1481 4119 1714 3412 
Q 1947 2706 1947 2009 
Q 1947 1309 1714 600 
Q 1481 -109 1013 -844 
L 513 -844 
Q 928 -128 1133 580 
Q 1338 1288 1338 2009 
Q 1338 2731 1133 3434 
Q 928 4138 513 4856 
z
" transform="scale(0.015625)"/>
      </defs>
      <use xlink:href="#DejaVuSans-54"/>
      <use xlink:href="#DejaVuSans-65" transform="translate(44.083984 0)"/>
      <use xlink:href="#DejaVuSans-6d" transform="translate(105.607422 0)"/>
      <use xlink:href="#DejaVuSans-70" transform="translate(203.019531 0)"/>
      <use xlink:href="#DejaVuSans-65" transform="translate(266.496094 0)"/>
      <use xlink:href="#DejaVuSans-72" transform="translate(328.019531 0)"/>
      <use xlink:href="#DejaVuSans-61" transform="translate(369.132812 0)"/>
      <use xlink:href="#DejaVuSans-74" transform="translate(430.412109 0)"/>
      <use xlink:href="#DejaVuSans-75" transform="translate(469.621094 0)"/>
      <use xlink:href="#DejaVuSans-72" transform="translate(533 0)"/>
      <use xlink:href="#DejaVuSans-65" transform="translate(571.863281 0)"/>
      <use xlink:href="#DejaVuSans-20" transform="translate(633.386719 0)"/>
      <use xlink:href="#DejaVuSans-28" transform="translate(665.173828 0)"/>
      <use xlink:href="#DejaVuSans-2103" transform="translate(704.1875 0)"/>
      <use xlink:href="#DejaVuSans-29" transform="translate(816.492188 0)"/>
     </g>
    </g>
   </g>
   <g id="line2d_13">
    <path d="M 59.78 118.178856 
L 60.438912 118.297235 
L 61.756736 118.880081 
L 63.074559 119.893261 
L 64.392383 121.283394 
L 65.710207 122.988824 
L 67.686942 126.009056 
L 70.32259 130.640173 
L 76.911708 142.821492 
L 78.888443 145.816843 
L 80.206267 147.475825 
L 81.524091 148.83014 
L 82.841915 149.864951 
L 84.159738 150.576978 
L 85.477562 150.973409 
L 86.795386 151.071952 
L 88.113209 150.901088 
L 89.431033 150.499168 
L 91.407769 149.564771 
L 94.043416 147.959819 
L 98.655799 145.067904 
L 101.291446 143.67199 
L 103.927094 142.505591 
L 107.221653 141.291209 
L 112.492948 139.630567 
L 119.740978 137.345663 
L 130.942479 133.564816 
L 134.89595 132.520919 
L 139.508333 131.542012 
L 145.43854 130.300133 
L 148.074187 129.567109 
L 150.050923 128.859346 
L 152.027658 127.912291 
L 153.345482 127.065215 
L 154.663306 125.962389 
L 155.981129 124.518216 
L 157.298953 122.646791 
L 158.616777 120.279565 
L 159.9346 117.38541 
L 161.252424 113.987439 
L 163.22916 108.14728 
L 167.841542 93.914313 
L 169.159366 90.433497 
L 170.47719 87.397956 
L 171.795014 84.824247 
L 173.112837 82.686845 
L 174.430661 80.933488 
L 175.748485 79.50037 
L 177.066308 78.323949 
L 179.043044 76.920773 
L 181.019779 75.826174 
L 183.655427 74.683828 
L 186.949986 73.575182 
L 191.562369 72.319682 
L 209.352989 67.884387 
L 213.30646 67.227485 
L 217.918843 66.713212 
L 225.825785 66.115944 
L 236.368374 65.482023 
L 240.980757 65.387234 
L 243.616405 65.50388 
L 245.59314 65.796503 
L 246.910964 66.165585 
L 248.228787 66.741549 
L 249.546611 67.592561 
L 250.864435 68.786373 
L 252.182259 70.376302 
L 253.500082 72.384685 
L 254.817906 74.788248 
L 256.794641 78.954366 
L 260.748113 87.53586 
L 262.065936 89.931072 
L 263.38376 91.942893 
L 264.701584 93.56621 
L 266.019407 94.851682 
L 267.996143 96.359043 
L 270.63179 98.228723 
L 271.949614 99.366091 
L 273.267438 100.747412 
L 274.585261 102.403506 
L 276.561997 105.357694 
L 283.151115 116.073645 
L 285.127851 118.612948 
L 287.104586 120.758635 
L 290.399146 123.876177 
L 293.693705 127.050521 
L 298.965 132.341152 
L 300.941735 133.890722 
L 302.259559 134.652512 
L 303.577382 135.172295 
L 304.895206 135.455824 
L 306.21303 135.530371 
L 308.189765 135.345867 
L 311.484325 134.660853 
L 314.119972 134.153386 
L 316.096707 133.965063 
L 318.073443 134.050051 
L 319.391267 134.307532 
L 320.70909 134.756251 
L 322.026914 135.414239 
L 323.344738 136.288268 
L 324.662561 137.372052 
L 326.639297 139.345691 
L 329.274944 142.440017 
L 333.887327 148.05077 
L 335.864063 150.158495 
L 338.49971 152.614801 
L 343.771005 157.31075 
L 347.724476 160.981201 
L 349.0423 161.940983 
L 350.360123 162.596968 
L 351.677947 162.852413 
L 352.336859 162.807084 
L 352.995771 162.639093 
L 353.654683 162.346607 
L 354.972506 161.396571 
L 356.29033 160.004385 
L 357.608154 158.260365 
L 360.243801 154.201503 
L 362.879448 150.163188 
L 364.856184 147.506929 
L 366.832919 145.223384 
L 369.468567 142.613008 
L 377.375509 135.25549 
L 378.693333 133.584 
L 380.011156 131.551209 
L 381.32898 129.05765 
L 382.646804 126.035704 
L 383.964627 122.472574 
L 385.941363 116.255186 
L 391.212658 98.446391 
L 392.530481 94.678769 
L 393.848305 91.403642 
L 395.166129 88.632835 
L 396.483952 86.333838 
L 397.801776 84.446653 
L 399.1196 82.900162 
L 400.437424 81.624383 
L 402.414159 80.086773 
L 404.390895 78.861881 
L 407.026542 77.528172 
L 411.638925 75.549802 
L 416.91022 73.2268 
L 422.181514 70.875065 
L 425.476074 69.658162 
L 429.429545 68.457415 
L 438.654311 65.966587 
L 443.925605 64.795372 
L 449.855812 63.740982 
L 456.44493 62.811744 
L 462.375137 62.209224 
L 467.646432 61.893627 
L 472.917726 61.789204 
L 497.297465 61.876335 
L 499.933112 62.167681 
L 501.909848 62.631955 
L 503.227671 63.13844 
L 504.545495 63.874377 
L 505.863319 64.915542 
L 507.181142 66.343888 
L 508.498966 68.237834 
L 509.81679 70.660115 
L 511.134613 73.64545 
L 512.452437 77.191846 
L 513.770261 81.257704 
L 515.746996 88.153778 
L 519.041556 100.850713 
L 522.995027 115.932447 
L 524.971762 122.711445 
L 526.948498 128.686769 
L 528.266321 132.137388 
L 529.584145 135.115456 
L 530.901969 137.598739 
L 532.219792 139.586686 
L 533.537616 141.104422 
L 534.85544 142.202843 
L 536.173263 142.953992 
L 537.491087 143.442603 
L 539.467823 143.873035 
L 544.080206 144.674566 
L 546.056941 145.268163 
L 548.033677 146.078653 
L 550.669324 147.44074 
L 555.940619 150.558423 
L 559.89409 153.03052 
L 562.529737 154.946333 
L 565.824296 157.708761 
L 568.459944 159.891579 
L 570.436679 161.223393 
L 571.754503 161.879997 
L 573.072327 162.331642 
L 574.39015 162.591433 
L 576.366886 162.707736 
L 581.638181 162.72836 
L 583.614916 162.993834 
L 589.545123 164.036751 
L 590.862947 164.009154 
L 592.18077 163.782691 
L 593.498594 163.330652 
L 594.816418 162.646697 
L 596.134241 161.746256 
L 598.110977 160.069221 
L 601.405536 156.822795 
L 604.700095 153.61724 
L 607.335743 151.320093 
L 609.97139 149.279049 
L 613.265949 147.040936 
L 616.560509 145.124577 
L 620.51398 143.164989 
L 623.808539 141.52882 
L 625.785274 140.278032 
L 627.103098 139.184185 
L 628.420922 137.765391 
L 629.738745 135.907866 
L 631.056569 133.502357 
L 632.374393 130.466133 
L 633.692216 126.766825 
L 635.01004 122.441264 
L 636.986776 115.044639 
L 641.599159 97.14387 
L 642.916982 92.781704 
L 644.234806 88.983378 
L 645.55263 85.771712 
L 646.870453 83.117671 
L 648.188277 80.958143 
L 649.506101 79.213835 
L 650.823924 77.8037 
L 652.141748 76.654275 
L 654.118484 75.288243 
L 656.095219 74.219666 
L 658.730867 73.088223 
L 662.025426 71.952913 
L 666.637809 70.630608 
L 672.568015 69.164568 
L 678.498222 67.918264 
L 683.769517 67.036213 
L 689.699723 66.274088 
L 699.583401 65.249521 
L 725.939875 62.896022 
L 733.846817 62.579182 
L 739.118112 62.542571 
L 741.753759 62.699761 
L 743.730494 63.019903 
L 745.048318 63.39535 
L 746.366142 63.951145 
L 747.683966 64.731979 
L 749.001789 65.777199 
L 750.319613 67.114958 
L 751.637437 68.757862 
L 752.95526 70.701058 
L 754.931996 74.127068 
L 756.908731 78.041545 
L 764.156762 93.033706 
L 766.133497 96.286193 
L 767.451321 98.123158 
L 768.769145 99.702319 
L 770.74588 101.644885 
L 772.722616 103.182375 
L 774.699351 104.435485 
L 777.334999 105.830147 
L 781.28847 107.606863 
L 789.854324 111.067618 
L 793.148883 112.289684 
L 795.78453 113.012058 
L 798.420178 113.459053 
L 807.644943 114.488129 
L 810.280591 114.643298 
L 812.916238 114.552541 
L 815.551886 114.227377 
L 820.82318 113.485094 
L 822.799916 113.429382 
L 824.776651 113.559832 
L 827.412299 113.963312 
L 834.660329 115.270699 
L 836.637065 115.420665 
L 837.954888 115.383146 
L 839.272712 115.173498 
L 840.590536 114.725589 
L 841.908359 113.971282 
L 843.226183 112.85409 
L 844.544007 111.345613 
L 845.86183 109.459897 
L 847.838566 106.076286 
L 851.792037 98.875048 
L 853.109861 96.818263 
L 854.427684 95.056226 
L 855.745508 93.583878 
L 857.722244 91.796723 
L 862.993538 87.46561 
L 864.970274 85.394711 
L 867.605921 82.210096 
L 871.559392 77.358808 
L 873.536128 75.288678 
L 875.512863 73.570216 
L 877.489599 72.187737 
L 879.466334 71.082836 
L 882.101982 69.931881 
L 884.737629 69.045457 
L 888.032188 68.197378 
L 891.985659 67.435699 
L 896.598042 66.782165 
L 901.869337 66.272323 
L 911.753015 65.616829 
L 920.318869 64.960596 
L 925.590164 64.327244 
L 930.202546 63.551911 
L 937.450577 62.043911 
L 942.721871 60.997799 
L 946.016431 60.557898 
L 949.31099 60.366314 
L 953.923373 60.365438 
L 967.760522 60.428719 
L 981.59767 60.527288 
L 984.233318 60.763389 
L 986.210053 61.212821 
L 987.527877 61.761009 
L 988.845701 62.616335 
L 990.163524 63.889851 
L 991.481348 65.694366 
L 992.799172 68.123338 
L 994.116995 71.226036 
L 995.434819 74.985632 
L 997.411555 81.629742 
L 1002.682849 100.434655 
L 1004.000673 104.293377 
L 1005.318497 107.595717 
L 1006.63632 110.349144 
L 1007.954144 112.612081 
L 1009.271968 114.472607 
L 1010.589791 116.027185 
L 1012.566527 117.969513 
L 1014.543263 119.605659 
L 1016.519998 120.980802 
L 1017.837822 121.716934 
L 1019.155645 122.263302 
L 1020.473469 122.581558 
L 1021.132381 122.646574 
L 1021.132381 122.646574 
" clip-path="url(#p9c7f77a100)" style="fill: none; stroke: #0000ff; stroke-width: 1.5; stroke-linecap: square"/>
   </g>
   <g id="line2d_14">
    <path d="M 59.78 117.523272 
L 60.438912 117.637613 
L 61.756736 118.204024 
L 63.074559 119.202032 
L 64.392383 120.597033 
L 65.710207 122.343372 
L 67.686942 125.502156 
L 70.32259 130.391589 
L 74.934972 139.211576 
L 76.911708 142.463689 
L 78.229532 144.311256 
L 79.547355 145.86461 
L 80.865179 147.11107 
L 82.183003 148.054139 
L 83.500826 148.710658 
L 84.81865 149.107017 
L 86.136474 149.275105 
L 87.454297 149.248631 
L 89.431033 148.914437 
L 91.407769 148.31127 
L 94.043416 147.223888 
L 98.655799 144.974857 
L 103.268182 142.827787 
L 107.880565 140.977121 
L 115.128595 138.362444 
L 122.376625 135.932732 
L 126.330096 134.811369 
L 131.601391 133.600509 
L 138.190509 132.074012 
L 144.779628 130.303179 
L 148.074187 129.20396 
L 150.050923 128.325 
L 151.368746 127.567877 
L 152.68657 126.608132 
L 154.004394 125.377545 
L 155.322217 123.803232 
L 156.640041 121.817636 
L 157.957865 119.371775 
L 159.275689 116.449489 
L 160.593512 113.078882 
L 162.570248 107.363117 
L 167.182631 93.39383 
L 169.159366 88.270397 
L 170.47719 85.349549 
L 171.795014 82.835807 
L 173.112837 80.703386 
L 174.430661 78.909558 
L 175.748485 77.406837 
L 177.066308 76.151236 
L 179.043044 74.652354 
L 181.019779 73.529828 
L 182.996515 72.702282 
L 185.632162 71.92424 
L 188.926721 71.241071 
L 197.492575 69.595804 
L 203.422782 68.098116 
L 210.011901 66.498571 
L 215.283195 65.442034 
L 219.895578 64.792348 
L 225.825785 63.967973 
L 233.732727 62.75348 
L 237.686198 62.427016 
L 240.980757 62.362358 
L 243.616405 62.527464 
L 245.59314 62.895492 
L 246.910964 63.330576 
L 248.228787 63.974168 
L 249.546611 64.874403 
L 250.864435 66.069884 
L 252.182259 67.580891 
L 253.500082 69.40229 
L 255.476818 72.633901 
L 258.771377 78.730412 
L 261.407024 83.426411 
L 263.38376 86.468154 
L 265.360495 89.015247 
L 267.337231 91.152405 
L 273.267438 97.147142 
L 275.244173 99.655021 
L 277.220909 102.546329 
L 280.515468 107.928282 
L 283.810027 113.256548 
L 285.786763 116.111174 
L 287.763498 118.632996 
L 289.740234 120.850953 
L 292.375881 123.450541 
L 295.011528 125.763685 
L 297.647176 127.82824 
L 300.282823 129.585054 
L 302.259559 130.643954 
L 304.236294 131.452065 
L 306.21303 132.014552 
L 308.189765 132.369768 
L 311.484325 132.687647 
L 314.778884 133.0146 
L 316.755619 133.397764 
L 318.732355 134.030685 
L 320.70909 134.980702 
L 322.685826 136.280105 
L 324.662561 137.918339 
L 326.639297 139.844885 
L 329.274944 142.724004 
L 336.522975 150.87678 
L 339.158622 153.489461 
L 341.794269 155.831524 
L 344.429917 157.901755 
L 346.406652 159.244303 
L 348.383388 160.327957 
L 349.701212 160.845648 
L 351.019035 161.144732 
L 352.336859 161.175327 
L 353.654683 160.893282 
L 354.972506 160.269035 
L 356.29033 159.295643 
L 357.608154 157.994062 
L 358.925977 156.413792 
L 360.902713 153.685737 
L 365.515096 147.152687 
L 367.491831 144.780439 
L 369.468567 142.733701 
L 372.763126 139.762018 
L 375.398773 137.346316 
L 377.375509 135.204347 
L 378.693333 133.489438 
L 380.011156 131.458513 
L 381.32898 129.04378 
L 382.646804 126.196443 
L 383.964627 122.900726 
L 385.941363 117.193114 
L 389.235922 106.519933 
L 391.87157 98.309454 
L 393.848305 93.065752 
L 395.166129 90.139044 
L 396.483952 87.675305 
L 397.801776 85.638351 
L 399.1196 83.968358 
L 400.437424 82.595361 
L 402.414159 80.94365 
L 404.390895 79.610721 
L 407.026542 78.099458 
L 411.638925 75.75574 
L 416.251308 73.616566 
L 419.545867 72.279501 
L 422.840426 71.189147 
L 426.134985 70.348055 
L 434.041928 68.497991 
L 446.561253 65.069992 
L 450.514724 64.415839 
L 463.034049 62.762275 
L 466.98752 62.523361 
L 472.917726 62.449579 
L 484.77814 62.391005 
L 489.390523 62.031984 
L 494.002905 61.677756 
L 496.638553 61.688578 
L 498.615288 61.929454 
L 499.933112 62.262361 
L 501.250936 62.780388 
L 502.568759 63.528327 
L 503.886583 64.552829 
L 505.204407 65.900606 
L 506.52223 67.616434 
L 507.840054 69.740255 
L 509.157878 72.303067 
L 510.475702 75.321544 
L 511.793525 78.792219 
L 513.770261 84.777166 
L 515.746996 91.506372 
L 523.653938 119.610685 
L 525.630674 125.629186 
L 527.60741 130.938805 
L 529.584145 135.456094 
L 530.901969 138.004348 
L 532.219792 140.185602 
L 533.537616 142.023147 
L 534.85544 143.558297 
L 536.832175 145.415538 
L 538.808911 146.915348 
L 541.444558 148.628265 
L 544.739117 150.511075 
L 547.374765 151.761379 
L 549.3515 152.488753 
L 551.328236 153.011204 
L 553.304971 153.330138 
L 555.940619 153.47484 
L 558.576266 153.370637 
L 561.870825 153.015017 
L 567.14212 152.185687 
L 584.273828 149.280504 
L 589.545123 148.711729 
L 592.839682 148.288076 
L 594.816418 147.847906 
L 596.793153 147.185114 
L 598.769889 146.272289 
L 600.746624 145.126768 
L 603.382272 143.328417 
L 615.242685 134.763655 
L 620.51398 131.233192 
L 623.149627 129.138239 
L 625.126362 127.304447 
L 627.103098 125.223876 
L 629.738745 122.093089 
L 632.374393 118.623704 
L 635.668952 113.903914 
L 638.963511 108.792691 
L 642.25807 103.282305 
L 646.211541 96.182524 
L 651.482836 86.174161 
L 662.025426 65.99425 
L 664.002161 62.662122 
L 665.978897 59.727427 
L 667.955632 57.270589 
L 669.273456 55.911899 
L 670.59128 54.770104 
L 671.909103 53.830848 
L 673.885839 52.761264 
L 675.862574 52.041312 
L 677.83931 51.610823 
L 679.816046 51.416163 
L 681.792781 51.412226 
L 684.428428 51.654475 
L 687.064076 52.170308 
L 689.040811 52.754919 
L 691.017547 53.51994 
L 693.653194 54.798841 
L 696.947754 56.689019 
L 710.12599 64.794619 
L 713.42055 67.114836 
L 716.056197 69.247894 
L 718.691844 71.652415 
L 721.986404 74.961191 
L 728.575522 81.661075 
L 731.211169 84.006572 
L 733.846817 86.069445 
L 737.141376 88.31165 
L 741.753759 91.102972 
L 749.660701 95.844348 
L 752.95526 98.065843 
L 756.24982 100.558243 
L 759.544379 103.318664 
L 764.156762 107.491749 
L 776.017175 118.417956 
L 777.99391 119.882773 
L 779.970646 121.035413 
L 781.28847 121.588348 
L 782.606293 121.951678 
L 783.924117 122.124025 
L 785.241941 122.116523 
L 787.218676 121.817705 
L 789.195412 121.263126 
L 792.489971 120.037379 
L 801.055825 116.691823 
L 806.986032 114.68094 
L 812.257326 113.130717 
L 816.210797 112.197695 
L 822.799916 110.941545 
L 828.730122 109.715137 
L 833.342505 108.545043 
L 836.637065 107.462192 
L 839.272712 106.330978 
L 841.249447 105.277328 
L 843.885095 103.573252 
L 846.520742 101.560328 
L 850.474213 98.169678 
L 864.311362 85.971099 
L 866.947009 83.94649 
L 869.582657 82.235361 
L 871.559392 81.204387 
L 873.536128 80.390443 
L 876.171775 79.590244 
L 879.466334 78.90025 
L 884.078717 78.2204 
L 890.008924 77.58045 
L 895.939131 77.1761 
L 902.528249 76.971448 
L 909.117367 76.983517 
L 915.706486 77.221408 
L 921.636692 77.408499 
L 925.590164 77.281445 
L 930.202546 76.854993 
L 946.675343 75.084885 
L 960.512491 73.861508 
L 964.465962 73.294339 
L 967.10161 72.677231 
L 969.078345 71.948336 
L 970.396169 71.270538 
L 971.713993 70.395612 
L 973.031816 69.290082 
L 974.34964 67.929944 
L 975.667464 66.305748 
L 977.644199 63.398069 
L 979.620935 60.020327 
L 982.915494 53.774155 
L 988.186789 43.701819 
L 990.163524 40.434327 
L 991.481348 38.628003 
L 992.799172 37.246915 
L 993.458083 36.749355 
L 994.116995 36.395892 
L 994.775907 36.195524 
L 995.434819 36.154545 
L 996.093731 36.276216 
L 996.752643 36.560553 
L 997.411555 37.004338 
L 998.729378 38.342647 
L 1000.047202 40.212578 
L 1001.365026 42.511871 
L 1003.341761 46.540115 
L 1005.977409 52.58888 
L 1009.271968 60.81917 
L 1014.543263 74.295247 
L 1015.861086 77.232713 
L 1017.17891 79.753403 
L 1018.496734 81.727665 
L 1019.155645 82.473888 
L 1019.814557 83.043906 
L 1020.473469 83.428958 
L 1021.132381 83.623019 
L 1021.132381 83.623019 
" clip-path="url(#p9c7f77a100)" style="fill: none; stroke: #ff0000; stroke-width: 1.5; stroke-linecap: square"/>
   </g>
   <g id="line2d_15">
    <path d="M 540.785646 170.44 
L 540.785646 29.76 
" clip-path="url(#p9c7f77a100)" style="fill: none; stroke: #1f77b4; stroke-width: 1.5; stroke-linecap: square"/>
   </g>
   <g id="patch_3">
    <path d="M 59.78 170.44 
L 59.78 29.76 
" style="fill: none; stroke: #000000; stroke-width: 0.8; stroke-linejoin: miter; stroke-linecap: square"/>
   </g>
   <g id="patch_4">
    <path d="M 1069.2 170.44 
L 1069.2 29.76 
" style="fill: none; stroke: #000000; stroke-width: 0.8; stroke-linejoin: miter; stroke-linecap: square"/>
   </g>
   <g id="patch_5">
    <path d="M 59.78 170.44 
L 1069.2 170.44 
" style="fill: none; stroke: #000000; stroke-width: 0.8; stroke-linejoin: miter; stroke-linecap: square"/>
   </g>
   <g id="patch_6">
    <path d="M 59.78 29.76 
L 1069.2 29.76 
" style="fill: none; stroke: #000000; stroke-width: 0.8; stroke-linejoin: miter; stroke-linecap: square"/>
   </g>
   <g id="text_15">
    <!-- Heat Conduction Equation Solution at x=2M -->
    <g transform="translate(387.8875 23.76) scale(0.16 -0.16)">
     <defs>
      <path id="DejaVuSans-48" d="M 628 4666 
L 1259 4666 
L 1259 2753 
L 3553 2753 
L 3553 4666 
L 4184 4666 
L 4184 0 
L 3553 0 
L 3553 2222 
L 1259 2222 
L 1259 0 
L 628 0 
L 628 4666 
z
" transform="scale(0.015625)"/>
      <path id="DejaVuSans-43" d="M 4122 4306 
L 4122 3641 
Q 3803 3938 3442 4084 
Q 3081 4231 2675 4231 
Q 1875 4231 1450 3742 
Q 1025 3253 1025 2328 
Q 1025 1406 1450 917 
Q 1875 428 2675 428 
Q 3081 428 3442 575 
Q 3803 722 4122 1019 
L 4122 359 
Q 3791 134 3420 21 
Q 3050 -91 2638 -91 
Q 1578 -91 968 557 
Q 359 1206 359 2328 
Q 359 3453 968 4101 
Q 1578 4750 2638 4750 
Q 3056 4750 3426 4639 
Q 3797 4528 4122 4306 
z
" transform="scale(0.015625)"/>
      <path id="DejaVuSans-64" d="M 2906 2969 
L 2906 4863 
L 3481 4863 
L 3481 0 
L 2906 0 
L 2906 525 
Q 2725 213 2448 61 
Q 2172 -91 1784 -91 
Q 1150 -91 751 415 
Q 353 922 353 1747 
Q 353 2572 751 3078 
Q 1150 3584 1784 3584 
Q 2172 3584 2448 3432 
Q 2725 3281 2906 2969 
z
M 947 1747 
Q 947 1113 1208 752 
Q 1469 391 1925 391 
Q 2381 391 2643 752 
Q 2906 1113 2906 1747 
Q 2906 2381 2643 2742 
Q 2381 3103 1925 3103 
Q 1469 3103 1208 2742 
Q 947 2381 947 1747 
z
" transform="scale(0.015625)"/>
      <path id="DejaVuSans-63" d="M 3122 3366 
L 3122 2828 
Q 2878 2963 2633 3030 
Q 2388 3097 2138 3097 
Q 1578 3097 1268 2742 
Q 959 2388 959 1747 
Q 959 1106 1268 751 
Q 1578 397 2138 397 
Q 2388 397 2633 464 
Q 2878 531 3122 666 
L 3122 134 
Q 2881 22 2623 -34 
Q 2366 -91 2075 -91 
Q 1284 -91 818 406 
Q 353 903 353 1747 
Q 353 2603 823 3093 
Q 1294 3584 2113 3584 
Q 2378 3584 2631 3529 
Q 2884 3475 3122 3366 
z
" transform="scale(0.015625)"/>
      <path id="DejaVuSans-45" d="M 628 4666 
L 3578 4666 
L 3578 4134 
L 1259 4134 
L 1259 2753 
L 3481 2753 
L 3481 2222 
L 1259 2222 
L 1259 531 
L 3634 531 
L 3634 0 
L 628 0 
L 628 4666 
z
" transform="scale(0.015625)"/>
      <path id="DejaVuSans-71" d="M 947 1747 
Q 947 1113 1208 752 
Q 1469 391 1925 391 
Q 2381 391 2643 752 
Q 2906 1113 2906 1747 
Q 2906 2381 2643 2742 
Q 2381 3103 1925 3103 
Q 1469 3103 1208 2742 
Q 947 2381 947 1747 
z
M 2906 525 
Q 2725 213 2448 61 
Q 2172 -91 1784 -91 
Q 1150 -91 751 415 
Q 353 922 353 1747 
Q 353 2572 751 3078 
Q 1150 3584 1784 3584 
Q 2172 3584 2448 3432 
Q 2725 3281 2906 2969 
L 2906 3500 
L 3481 3500 
L 3481 -1331 
L 2906 -1331 
L 2906 525 
z
" transform="scale(0.015625)"/>
      <path id="DejaVuSans-78" d="M 3513 3500 
L 2247 1797 
L 3578 0 
L 2900 0 
L 1881 1375 
L 863 0 
L 184 0 
L 1544 1831 
L 300 3500 
L 978 3500 
L 1906 2253 
L 2834 3500 
L 3513 3500 
z
" transform="scale(0.015625)"/>
      <path id="DejaVuSans-3d" d="M 678 2906 
L 4684 2906 
L 4684 2381 
L 678 2381 
L 678 2906 
z
M 678 1631 
L 4684 1631 
L 4684 1100 
L 678 1100 
L 678 1631 
z
" transform="scale(0.015625)"/>
      <path id="DejaVuSans-4d" d="M 628 4666 
L 1569 4666 
L 2759 1491 
L 3956 4666 
L 4897 4666 
L 4897 0 
L 4281 0 
L 4281 4097 
L 3078 897 
L 2444 897 
L 1241 4097 
L 1241 0 
L 628 0 
L 628 4666 
z
" transform="scale(0.015625)"/>
     </defs>
     <use xlink:href="#DejaVuSans-48"/>
     <use xlink:href="#DejaVuSans-65" transform="translate(75.195312 0)"/>
     <use xlink:href="#DejaVuSans-61" transform="translate(136.71875 0)"/>
     <use xlink:href="#DejaVuSans-74" transform="translate(197.998047 0)"/>
     <use xlink:href="#DejaVuSans-20" transform="translate(237.207031 0)"/>
     <use xlink:href="#DejaVuSans-43" transform="translate(268.994141 0)"/>
     <use xlink:href="#DejaVuSans-6f" transform="translate(338.818359 0)"/>
     <use xlink:href="#DejaVuSans-6e" transform="translate(400 0)"/>
     <use xlink:href="#DejaVuSans-64" transform="translate(463.378906 0)"/>
     <use xlink:href="#DejaVuSans-75" transform="translate(526.855469 0)"/>
     <use xlink:href="#DejaVuSans-63" transform="translate(590.234375 0)"/>
     <use xlink:href="#DejaVuSans-74" transform="translate(645.214844 0)"/>
     <use xlink:href="#DejaVuSans-69" transform="translate(684.423828 0)"/>
     <use xlink:href="#DejaVuSans-6f" transform="translate(712.207031 0)"/>
     <use xlink:href="#DejaVuSans-6e" transform="translate(773.388672 0)"/>
     <use xlink:href="#DejaVuSans-20" transform="translate(836.767578 0)"/>
     <use xlink:href="#DejaVuSans-45" transform="translate(868.554688 0)"/>
     <use xlink:href="#DejaVuSans-71" transform="translate(931.738281 0)"/>
     <use xlink:href="#DejaVuSans-75" transform="translate(995.214844 0)"/>
     <use xlink:href="#DejaVuSans-61" transform="translate(1058.59375 0)"/>
     <use xlink:href="#DejaVuSans-74" transform="translate(1119.873047 0)"/>
     <use xlink:href="#DejaVuSans-69" transform="translate(1159.082031 0)"/>
     <use xlink:href="#DejaVuSans-6f" transform="translate(1186.865234 0)"/>
     <use xlink:href="#DejaVuSans-6e" transform="translate(1248.046875 0)"/>
     <use xlink:href="#DejaVuSans-20" transform="translate(1311.425781 0)"/>
     <use xlink:href="#DejaVuSans-53" transform="translate(1343.212891 0)"/>
     <use xlink:href="#DejaVuSans-6f" transform="translate(1406.689453 0)"/>
     <use xlink:href="#DejaVuSans-6c" transform="translate(1467.871094 0)"/>
     <use xlink:href="#DejaVuSans-75" transform="translate(1495.654297 0)"/>
     <use xlink:href="#DejaVuSans-74" transform="translate(1559.033203 0)"/>
     <use xlink:href="#DejaVuSans-69" transform="translate(1598.242188 0)"/>
     <use xlink:href="#DejaVuSans-6f" transform="translate(1626.025391 0)"/>
     <use xlink:href="#DejaVuSans-6e" transform="translate(1687.207031 0)"/>
     <use xlink:href="#DejaVuSans-20" transform="translate(1750.585938 0)"/>
     <use xlink:href="#DejaVuSans-61" transform="translate(1782.373047 0)"/>
     <use xlink:href="#DejaVuSans-74" transform="translate(1843.652344 0)"/>
     <use xlink:href="#DejaVuSans-20" transform="translate(1882.861328 0)"/>
     <use xlink:href="#DejaVuSans-78" transform="translate(1914.648438 0)"/>
     <use xlink:href="#DejaVuSans-3d" transform="translate(1973.828125 0)"/>
     <use xlink:href="#DejaVuSans-32" transform="translate(2057.617188 0)"/>
     <use xlink:href="#DejaVuSans-4d" transform="translate(2121.240234 0)"/>
    </g>
   </g>
   <g id="legend_1">
    <g id="patch_7">
     <path d="M 949.325625 164.44 
L 1060.8 164.44 
Q 1063.2 164.44 1063.2 162.04 
L 1063.2 128.0125 
Q 1063.2 125.6125 1060.8 125.6125 
L 949.325625 125.6125 
Q 946.925625 125.6125 946.925625 128.0125 
L 946.925625 162.04 
Q 946.925625 164.44 949.325625 164.44 
z
" style="fill: #ffffff; opacity: 0.8; stroke: #cccccc; stroke-linejoin: miter"/>
    </g>
    <g id="line2d_16">
     <path d="M 951.725625 135.330625 
L 963.725625 135.330625 
L 975.725625 135.330625 
" style="fill: none; stroke: #0000ff; stroke-width: 1.5; stroke-linecap: square"/>
    </g>
    <g id="text_16">
     <!-- Observation -->
     <g transform="translate(985.325625 139.530625) scale(0.12 -0.12)">
      <defs>
       <path id="DejaVuSans-4f" d="M 2522 4238 
Q 1834 4238 1429 3725 
Q 1025 3213 1025 2328 
Q 1025 1447 1429 934 
Q 1834 422 2522 422 
Q 3209 422 3611 934 
Q 4013 1447 4013 2328 
Q 4013 3213 3611 3725 
Q 3209 4238 2522 4238 
z
M 2522 4750 
Q 3503 4750 4090 4092 
Q 4678 3434 4678 2328 
Q 4678 1225 4090 567 
Q 3503 -91 2522 -91 
Q 1538 -91 948 565 
Q 359 1222 359 2328 
Q 359 3434 948 4092 
Q 1538 4750 2522 4750 
z
" transform="scale(0.015625)"/>
       <path id="DejaVuSans-62" d="M 3116 1747 
Q 3116 2381 2855 2742 
Q 2594 3103 2138 3103 
Q 1681 3103 1420 2742 
Q 1159 2381 1159 1747 
Q 1159 1113 1420 752 
Q 1681 391 2138 391 
Q 2594 391 2855 752 
Q 3116 1113 3116 1747 
z
M 1159 2969 
Q 1341 3281 1617 3432 
Q 1894 3584 2278 3584 
Q 2916 3584 3314 3078 
Q 3713 2572 3713 1747 
Q 3713 922 3314 415 
Q 2916 -91 2278 -91 
Q 1894 -91 1617 61 
Q 1341 213 1159 525 
L 1159 0 
L 581 0 
L 581 4863 
L 1159 4863 
L 1159 2969 
z
" transform="scale(0.015625)"/>
       <path id="DejaVuSans-76" d="M 191 3500 
L 800 3500 
L 1894 563 
L 2988 3500 
L 3597 3500 
L 2284 0 
L 1503 0 
L 191 3500 
z
" transform="scale(0.015625)"/>
      </defs>
      <use xlink:href="#DejaVuSans-4f"/>
      <use xlink:href="#DejaVuSans-62" transform="translate(78.710938 0)"/>
      <use xlink:href="#DejaVuSans-73" transform="translate(142.1875 0)"/>
      <use xlink:href="#DejaVuSans-65" transform="translate(194.287109 0)"/>
      <use xlink:href="#DejaVuSans-72" transform="translate(255.810547 0)"/>
      <use xlink:href="#DejaVuSans-76" transform="translate(296.923828 0)"/>
      <use xlink:href="#DejaVuSans-61" transform="translate(356.103516 0)"/>
      <use xlink:href="#DejaVuSans-74" transform="translate(417.382812 0)"/>
      <use xlink:href="#DejaVuSans-69" transform="translate(456.591797 0)"/>
      <use xlink:href="#DejaVuSans-6f" transform="translate(484.375 0)"/>
      <use xlink:href="#DejaVuSans-6e" transform="translate(545.556641 0)"/>
     </g>
    </g>
    <g id="line2d_17">
     <path d="M 951.725625 152.944375 
L 963.725625 152.944375 
L 975.725625 152.944375 
" style="fill: none; stroke: #ff0000; stroke-width: 1.5; stroke-linecap: square"/>
    </g>
    <g id="text_17">
     <!-- Predicted -->
     <g transform="translate(985.325625 157.144375) scale(0.12 -0.12)">
      <defs>
       <path id="DejaVuSans-50" d="M 1259 4147 
L 1259 2394 
L 2053 2394 
Q 2494 2394 2734 2622 
Q 2975 2850 2975 3272 
Q 2975 3691 2734 3919 
Q 2494 4147 2053 4147 
L 1259 4147 
z
M 628 4666 
L 2053 4666 
Q 2838 4666 3239 4311 
Q 3641 3956 3641 3272 
Q 3641 2581 3239 2228 
Q 2838 1875 2053 1875 
L 1259 1875 
L 1259 0 
L 628 0 
L 628 4666 
z
" transform="scale(0.015625)"/>
      </defs>
      <use xlink:href="#DejaVuSans-50"/>
      <use xlink:href="#DejaVuSans-72" transform="translate(58.552734 0)"/>
      <use xlink:href="#DejaVuSans-65" transform="translate(97.416016 0)"/>
      <use xlink:href="#DejaVuSans-64" transform="translate(158.939453 0)"/>
      <use xlink:href="#DejaVuSans-69" transform="translate(222.416016 0)"/>
      <use xlink:href="#DejaVuSans-63" transform="translate(250.199219 0)"/>
      <use xlink:href="#DejaVuSans-74" transform="translate(305.179688 0)"/>
      <use xlink:href="#DejaVuSans-65" transform="translate(344.388672 0)"/>
      <use xlink:href="#DejaVuSans-64" transform="translate(405.912109 0)"/>
     </g>
    </g>
   </g>
  </g>
 </g>
 <defs>
  <clipPath id="p9c7f77a100">
   <rect x="59.78" y="29.76" width="1009.42" height="140.68"/>
  </clipPath>
 </defs>
</svg>
