<?xml version="1.0" encoding="utf-8" standalone="no"?>
<!DOCTYPE svg PUBLIC "-//W3C//DTD SVG 1.1//EN"
  "http://www.w3.org/Graphics/SVG/1.1/DTD/svg11.dtd">
<svg xmlns:xlink="http://www.w3.org/1999/xlink" width="1080pt" height="216pt" viewBox="0 0 1080 216" xmlns="http://www.w3.org/2000/svg" version="1.1">
 <metadata>
  <rdf:RDF xmlns:dc="http://purl.org/dc/elements/1.1/" xmlns:cc="http://creativecommons.org/ns#" xmlns:rdf="http://www.w3.org/1999/02/22-rdf-syntax-ns#">
   <cc:Work>
    <dc:type rdf:resource="http://purl.org/dc/dcmitype/StillImage"/>
    <dc:date>2026-02-09T10:07:34.606562</dc:date>
    <dc:format>image/svg+xml</dc:format>
    <dc:creator>
     <cc:Agent>
      <dc:title>Matplotlib v3.10.8, https://matplotlib.org/</dc:title>
     </cc:Agent>
    </dc:creator>
   </cc:Work>
  </rdf:RDF>
 </metadata>
 <defs>
  <style type="text/css">*{stroke-linejoin: round; stroke-linecap: butt}</style>
 </defs>
 <g id="figure_1">
  <g id="patch_1">
   <path d="M 0 216 
L 1080 216 
L 1080 0 
L 0 0 
z
" style="fill: #ffffff"/>
  </g>
  <g id="axes_1">
   <g id="patch_2">
    <path d="M 50.24 170.44 
L 1069.2 170.44 
L 1069.2 29.76 
L 50.24 29.76 
z
" style="fill: #ffffff"/>
   </g>
   <g id="matplotlib.axis_1">
    <g id="xtick_1">
     <g id="line2d_1">
      <defs>
       <path id="m322fcef74b" d="M 0 0 
L 0 3.5 
" style="stroke: #000000; stroke-width: 0.8"/>
      </defs>
      <g>
       <use xlink:href="#m322fcef74b" x="50.24" y="170.44" style="stroke: #000000; stroke-width: 0.8"/>
      </g>
     </g>
     <g id="text_1">
      <!-- 0 -->
      <g transform="translate(47.05875 185.038437) scale(0.1 -0.1)">
       <defs>
        <path id="DejaVuSans-30" d="M 2034 4250 
Q 1547 4250 1301 3770 
Q 1056 3291 1056 2328 
Q 1056 1369 1301 889 
Q 1547 409 2034 409 
Q 2525 409 2770 889 
Q 3016 1369 3016 2328 
Q 3016 3291 2770 3770 
Q 2525 4250 2034 4250 
z
M 2034 4750 
Q 2819 4750 3233 4129 
Q 3647 3509 3647 2328 
Q 3647 1150 3233 529 
Q 2819 -91 2034 -91 
Q 1250 -91 836 529 
Q 422 1150 422 2328 
Q 422 3509 836 4129 
Q 1250 4750 2034 4750 
z
" transform="scale(0.015625)"/>
       </defs>
       <use xlink:href="#DejaVuSans-30"/>
      </g>
     </g>
    </g>
    <g id="xtick_2">
     <g id="line2d_2">
      <g>
       <use xlink:href="#m322fcef74b" x="183.26784" y="170.44" style="stroke: #000000; stroke-width: 0.8"/>
      </g>
     </g>
     <g id="text_2">
      <!-- 200 -->
      <g transform="translate(173.72409 185.038437) scale(0.1 -0.1)">
       <defs>
        <path id="DejaVuSans-32" d="M 1228 531 
L 3431 531 
L 3431 0 
L 469 0 
L 469 531 
Q 828 903 1448 1529 
Q 2069 2156 2228 2338 
Q 2531 2678 2651 2914 
Q 2772 3150 2772 3378 
Q 2772 3750 2511 3984 
Q 2250 4219 1831 4219 
Q 1534 4219 1204 4116 
Q 875 4013 500 3803 
L 500 4441 
Q 881 4594 1212 4672 
Q 1544 4750 1819 4750 
Q 2544 4750 2975 4387 
Q 3406 4025 3406 3419 
Q 3406 3131 3298 2873 
Q 3191 2616 2906 2266 
Q 2828 2175 2409 1742 
Q 1991 1309 1228 531 
z
" transform="scale(0.015625)"/>
       </defs>
       <use xlink:href="#DejaVuSans-32"/>
       <use xlink:href="#DejaVuSans-30" transform="translate(63.623047 0)"/>
       <use xlink:href="#DejaVuSans-30" transform="translate(127.246094 0)"/>
      </g>
     </g>
    </g>
    <g id="xtick_3">
     <g id="line2d_3">
      <g>
       <use xlink:href="#m322fcef74b" x="316.295681" y="170.44" style="stroke: #000000; stroke-width: 0.8"/>
      </g>
     </g>
     <g id="text_3">
      <!-- 400 -->
      <g transform="translate(306.751931 185.038437) scale(0.1 -0.1)">
       <defs>
        <path id="DejaVuSans-34" d="M 2419 4116 
L 825 1625 
L 2419 1625 
L 2419 4116 
z
M 2253 4666 
L 3047 4666 
L 3047 1625 
L 3713 1625 
L 3713 1100 
L 3047 1100 
L 3047 0 
L 2419 0 
L 2419 1100 
L 313 1100 
L 313 1709 
L 2253 4666 
z
" transform="scale(0.015625)"/>
       </defs>
       <use xlink:href="#DejaVuSans-34"/>
       <use xlink:href="#DejaVuSans-30" transform="translate(63.623047 0)"/>
       <use xlink:href="#DejaVuSans-30" transform="translate(127.246094 0)"/>
      </g>
     </g>
    </g>
    <g id="xtick_4">
     <g id="line2d_4">
      <g>
       <use xlink:href="#m322fcef74b" x="449.323521" y="170.44" style="stroke: #000000; stroke-width: 0.8"/>
      </g>
     </g>
     <g id="text_4">
      <!-- 600 -->
      <g transform="translate(439.779771 185.038437) scale(0.1 -0.1)">
       <defs>
        <path id="DejaVuSans-36" d="M 2113 2584 
Q 1688 2584 1439 2293 
Q 1191 2003 1191 1497 
Q 1191 994 1439 701 
Q 1688 409 2113 409 
Q 2538 409 2786 701 
Q 3034 994 3034 1497 
Q 3034 2003 2786 2293 
Q 2538 2584 2113 2584 
z
M 3366 4563 
L 3366 3988 
Q 3128 4100 2886 4159 
Q 2644 4219 2406 4219 
Q 1781 4219 1451 3797 
Q 1122 3375 1075 2522 
Q 1259 2794 1537 2939 
Q 1816 3084 2150 3084 
Q 2853 3084 3261 2657 
Q 3669 2231 3669 1497 
Q 3669 778 3244 343 
Q 2819 -91 2113 -91 
Q 1303 -91 875 529 
Q 447 1150 447 2328 
Q 447 3434 972 4092 
Q 1497 4750 2381 4750 
Q 2619 4750 2861 4703 
Q 3103 4656 3366 4563 
z
" transform="scale(0.015625)"/>
       </defs>
       <use xlink:href="#DejaVuSans-36"/>
       <use xlink:href="#DejaVuSans-30" transform="translate(63.623047 0)"/>
       <use xlink:href="#DejaVuSans-30" transform="translate(127.246094 0)"/>
      </g>
     </g>
    </g>
    <g id="xtick_5">
     <g id="line2d_5">
      <g>
       <use xlink:href="#m322fcef74b" x="582.351361" y="170.44" style="stroke: #000000; stroke-width: 0.8"/>
      </g>
     </g>
     <g id="text_5">
      <!-- 800 -->
      <g transform="translate(572.807611 185.038437) scale(0.1 -0.1)">
       <defs>
        <path id="DejaVuSans-38" d="M 2034 2216 
Q 1584 2216 1326 1975 
Q 1069 1734 1069 1313 
Q 1069 891 1326 650 
Q 1584 409 2034 409 
Q 2484 409 2743 651 
Q 3003 894 3003 1313 
Q 3003 1734 2745 1975 
Q 2488 2216 2034 2216 
z
M 1403 2484 
Q 997 2584 770 2862 
Q 544 3141 544 3541 
Q 544 4100 942 4425 
Q 1341 4750 2034 4750 
Q 2731 4750 3128 4425 
Q 3525 4100 3525 3541 
Q 3525 3141 3298 2862 
Q 3072 2584 2669 2484 
Q 3125 2378 3379 2068 
Q 3634 1759 3634 1313 
Q 3634 634 3220 271 
Q 2806 -91 2034 -91 
Q 1263 -91 848 271 
Q 434 634 434 1313 
Q 434 1759 690 2068 
Q 947 2378 1403 2484 
z
M 1172 3481 
Q 1172 3119 1398 2916 
Q 1625 2713 2034 2713 
Q 2441 2713 2670 2916 
Q 2900 3119 2900 3481 
Q 2900 3844 2670 4047 
Q 2441 4250 2034 4250 
Q 1625 4250 1398 4047 
Q 1172 3844 1172 3481 
z
" transform="scale(0.015625)"/>
       </defs>
       <use xlink:href="#DejaVuSans-38"/>
       <use xlink:href="#DejaVuSans-30" transform="translate(63.623047 0)"/>
       <use xlink:href="#DejaVuSans-30" transform="translate(127.246094 0)"/>
      </g>
     </g>
    </g>
    <g id="xtick_6">
     <g id="line2d_6">
      <g>
       <use xlink:href="#m322fcef74b" x="715.379202" y="170.44" style="stroke: #000000; stroke-width: 0.8"/>
      </g>
     </g>
     <g id="text_6">
      <!-- 1000 -->
      <g transform="translate(702.654202 185.038437) scale(0.1 -0.1)">
       <defs>
        <path id="DejaVuSans-31" d="M 794 531 
L 1825 531 
L 1825 4091 
L 703 3866 
L 703 4441 
L 1819 4666 
L 2450 4666 
L 2450 531 
L 3481 531 
L 3481 0 
L 794 0 
L 794 531 
z
" transform="scale(0.015625)"/>
       </defs>
       <use xlink:href="#DejaVuSans-31"/>
       <use xlink:href="#DejaVuSans-30" transform="translate(63.623047 0)"/>
       <use xlink:href="#DejaVuSans-30" transform="translate(127.246094 0)"/>
       <use xlink:href="#DejaVuSans-30" transform="translate(190.869141 0)"/>
      </g>
     </g>
    </g>
    <g id="xtick_7">
     <g id="line2d_7">
      <g>
       <use xlink:href="#m322fcef74b" x="848.407042" y="170.44" style="stroke: #000000; stroke-width: 0.8"/>
      </g>
     </g>
     <g id="text_7">
      <!-- 1200 -->
      <g transform="translate(835.682042 185.038437) scale(0.1 -0.1)">
       <use xlink:href="#DejaVuSans-31"/>
       <use xlink:href="#DejaVuSans-32" transform="translate(63.623047 0)"/>
       <use xlink:href="#DejaVuSans-30" transform="translate(127.246094 0)"/>
       <use xlink:href="#DejaVuSans-30" transform="translate(190.869141 0)"/>
      </g>
     </g>
    </g>
    <g id="xtick_8">
     <g id="line2d_8">
      <g>
       <use xlink:href="#m322fcef74b" x="981.434882" y="170.44" style="stroke: #000000; stroke-width: 0.8"/>
      </g>
     </g>
     <g id="text_8">
      <!-- 1400 -->
      <g transform="translate(968.709882 185.038437) scale(0.1 -0.1)">
       <use xlink:href="#DejaVuSans-31"/>
       <use xlink:href="#DejaVuSans-34" transform="translate(63.623047 0)"/>
       <use xlink:href="#DejaVuSans-30" transform="translate(127.246094 0)"/>
       <use xlink:href="#DejaVuSans-30" transform="translate(190.869141 0)"/>
      </g>
     </g>
    </g>
    <g id="text_9">
     <!-- Simulation Days -->
     <g transform="translate(502.74 201.755937) scale(0.14 -0.14)">
      <defs>
       <path id="DejaVuSans-53" d="M 3425 4513 
L 3425 3897 
Q 3066 4069 2747 4153 
Q 2428 4238 2131 4238 
Q 1616 4238 1336 4038 
Q 1056 3838 1056 3469 
Q 1056 3159 1242 3001 
Q 1428 2844 1947 2747 
L 2328 2669 
Q 3034 2534 3370 2195 
Q 3706 1856 3706 1288 
Q 3706 609 3251 259 
Q 2797 -91 1919 -91 
Q 1588 -91 1214 -16 
Q 841 59 441 206 
L 441 856 
Q 825 641 1194 531 
Q 1563 422 1919 422 
Q 2459 422 2753 634 
Q 3047 847 3047 1241 
Q 3047 1584 2836 1778 
Q 2625 1972 2144 2069 
L 1759 2144 
Q 1053 2284 737 2584 
Q 422 2884 422 3419 
Q 422 4038 858 4394 
Q 1294 4750 2059 4750 
Q 2388 4750 2728 4690 
Q 3069 4631 3425 4513 
z
" transform="scale(0.015625)"/>
       <path id="DejaVuSans-69" d="M 603 3500 
L 1178 3500 
L 1178 0 
L 603 0 
L 603 3500 
z
M 603 4863 
L 1178 4863 
L 1178 4134 
L 603 4134 
L 603 4863 
z
" transform="scale(0.015625)"/>
       <path id="DejaVuSans-6d" d="M 3328 2828 
Q 3544 3216 3844 3400 
Q 4144 3584 4550 3584 
Q 5097 3584 5394 3201 
Q 5691 2819 5691 2113 
L 5691 0 
L 5113 0 
L 5113 2094 
Q 5113 2597 4934 2840 
Q 4756 3084 4391 3084 
Q 3944 3084 3684 2787 
Q 3425 2491 3425 1978 
L 3425 0 
L 2847 0 
L 2847 2094 
Q 2847 2600 2669 2842 
Q 2491 3084 2119 3084 
Q 1678 3084 1418 2786 
Q 1159 2488 1159 1978 
L 1159 0 
L 581 0 
L 581 3500 
L 1159 3500 
L 1159 2956 
Q 1356 3278 1631 3431 
Q 1906 3584 2284 3584 
Q 2666 3584 2933 3390 
Q 3200 3197 3328 2828 
z
" transform="scale(0.015625)"/>
       <path id="DejaVuSans-75" d="M 544 1381 
L 544 3500 
L 1119 3500 
L 1119 1403 
Q 1119 906 1312 657 
Q 1506 409 1894 409 
Q 2359 409 2629 706 
Q 2900 1003 2900 1516 
L 2900 3500 
L 3475 3500 
L 3475 0 
L 2900 0 
L 2900 538 
Q 2691 219 2414 64 
Q 2138 -91 1772 -91 
Q 1169 -91 856 284 
Q 544 659 544 1381 
z
M 1991 3584 
L 1991 3584 
z
" transform="scale(0.015625)"/>
       <path id="DejaVuSans-6c" d="M 603 4863 
L 1178 4863 
L 1178 0 
L 603 0 
L 603 4863 
z
" transform="scale(0.015625)"/>
       <path id="DejaVuSans-61" d="M 2194 1759 
Q 1497 1759 1228 1600 
Q 959 1441 959 1056 
Q 959 750 1161 570 
Q 1363 391 1709 391 
Q 2188 391 2477 730 
Q 2766 1069 2766 1631 
L 2766 1759 
L 2194 1759 
z
M 3341 1997 
L 3341 0 
L 2766 0 
L 2766 531 
Q 2569 213 2275 61 
Q 1981 -91 1556 -91 
Q 1019 -91 701 211 
Q 384 513 384 1019 
Q 384 1609 779 1909 
Q 1175 2209 1959 2209 
L 2766 2209 
L 2766 2266 
Q 2766 2663 2505 2880 
Q 2244 3097 1772 3097 
Q 1472 3097 1187 3025 
Q 903 2953 641 2809 
L 641 3341 
Q 956 3463 1253 3523 
Q 1550 3584 1831 3584 
Q 2591 3584 2966 3190 
Q 3341 2797 3341 1997 
z
" transform="scale(0.015625)"/>
       <path id="DejaVuSans-74" d="M 1172 4494 
L 1172 3500 
L 2356 3500 
L 2356 3053 
L 1172 3053 
L 1172 1153 
Q 1172 725 1289 603 
Q 1406 481 1766 481 
L 2356 481 
L 2356 0 
L 1766 0 
Q 1100 0 847 248 
Q 594 497 594 1153 
L 594 3053 
L 172 3053 
L 172 3500 
L 594 3500 
L 594 4494 
L 1172 4494 
z
" transform="scale(0.015625)"/>
       <path id="DejaVuSans-6f" d="M 1959 3097 
Q 1497 3097 1228 2736 
Q 959 2375 959 1747 
Q 959 1119 1226 758 
Q 1494 397 1959 397 
Q 2419 397 2687 759 
Q 2956 1122 2956 1747 
Q 2956 2369 2687 2733 
Q 2419 3097 1959 3097 
z
M 1959 3584 
Q 2709 3584 3137 3096 
Q 3566 2609 3566 1747 
Q 3566 888 3137 398 
Q 2709 -91 1959 -91 
Q 1206 -91 779 398 
Q 353 888 353 1747 
Q 353 2609 779 3096 
Q 1206 3584 1959 3584 
z
" transform="scale(0.015625)"/>
       <path id="DejaVuSans-6e" d="M 3513 2113 
L 3513 0 
L 2938 0 
L 2938 2094 
Q 2938 2591 2744 2837 
Q 2550 3084 2163 3084 
Q 1697 3084 1428 2787 
Q 1159 2491 1159 1978 
L 1159 0 
L 581 0 
L 581 3500 
L 1159 3500 
L 1159 2956 
Q 1366 3272 1645 3428 
Q 1925 3584 2291 3584 
Q 2894 3584 3203 3211 
Q 3513 2838 3513 2113 
z
" transform="scale(0.015625)"/>
       <path id="DejaVuSans-20" transform="scale(0.015625)"/>
       <path id="DejaVuSans-44" d="M 1259 4147 
L 1259 519 
L 2022 519 
Q 2988 519 3436 956 
Q 3884 1394 3884 2338 
Q 3884 3275 3436 3711 
Q 2988 4147 2022 4147 
L 1259 4147 
z
M 628 4666 
L 1925 4666 
Q 3281 4666 3915 4102 
Q 4550 3538 4550 2338 
Q 4550 1131 3912 565 
Q 3275 0 1925 0 
L 628 0 
L 628 4666 
z
" transform="scale(0.015625)"/>
       <path id="DejaVuSans-79" d="M 2059 -325 
Q 1816 -950 1584 -1140 
Q 1353 -1331 966 -1331 
L 506 -1331 
L 506 -850 
L 844 -850 
Q 1081 -850 1212 -737 
Q 1344 -625 1503 -206 
L 1606 56 
L 191 3500 
L 800 3500 
L 1894 763 
L 2988 3500 
L 3597 3500 
L 2059 -325 
z
" transform="scale(0.015625)"/>
       <path id="DejaVuSans-73" d="M 2834 3397 
L 2834 2853 
Q 2591 2978 2328 3040 
Q 2066 3103 1784 3103 
Q 1356 3103 1142 2972 
Q 928 2841 928 2578 
Q 928 2378 1081 2264 
Q 1234 2150 1697 2047 
L 1894 2003 
Q 2506 1872 2764 1633 
Q 3022 1394 3022 966 
Q 3022 478 2636 193 
Q 2250 -91 1575 -91 
Q 1294 -91 989 -36 
Q 684 19 347 128 
L 347 722 
Q 666 556 975 473 
Q 1284 391 1588 391 
Q 1994 391 2212 530 
Q 2431 669 2431 922 
Q 2431 1156 2273 1281 
Q 2116 1406 1581 1522 
L 1381 1569 
Q 847 1681 609 1914 
Q 372 2147 372 2553 
Q 372 3047 722 3315 
Q 1072 3584 1716 3584 
Q 2034 3584 2315 3537 
Q 2597 3491 2834 3397 
z
" transform="scale(0.015625)"/>
      </defs>
      <use xlink:href="#DejaVuSans-53"/>
      <use xlink:href="#DejaVuSans-69" transform="translate(63.476562 0)"/>
      <use xlink:href="#DejaVuSans-6d" transform="translate(91.259766 0)"/>
      <use xlink:href="#DejaVuSans-75" transform="translate(188.671875 0)"/>
      <use xlink:href="#DejaVuSans-6c" transform="translate(252.050781 0)"/>
      <use xlink:href="#DejaVuSans-61" transform="translate(279.833984 0)"/>
      <use xlink:href="#DejaVuSans-74" transform="translate(341.113281 0)"/>
      <use xlink:href="#DejaVuSans-69" transform="translate(380.322266 0)"/>
      <use xlink:href="#DejaVuSans-6f" transform="translate(408.105469 0)"/>
      <use xlink:href="#DejaVuSans-6e" transform="translate(469.287109 0)"/>
      <use xlink:href="#DejaVuSans-20" transform="translate(532.666016 0)"/>
      <use xlink:href="#DejaVuSans-44" transform="translate(564.453125 0)"/>
      <use xlink:href="#DejaVuSans-61" transform="translate(641.455078 0)"/>
      <use xlink:href="#DejaVuSans-79" transform="translate(702.734375 0)"/>
      <use xlink:href="#DejaVuSans-73" transform="translate(761.914062 0)"/>
     </g>
    </g>
   </g>
   <g id="matplotlib.axis_2">
    <g id="ytick_1">
     <g id="line2d_9">
      <defs>
       <path id="m4c7e626af0" d="M 0 0 
L -3.5 0 
" style="stroke: #000000; stroke-width: 0.8"/>
      </defs>
      <g>
       <use xlink:href="#m4c7e626af0" x="50.24" y="158.936065" style="stroke: #000000; stroke-width: 0.8"/>
      </g>
     </g>
     <g id="text_10">
      <!-- −4 -->
      <g transform="translate(28.497813 162.735284) scale(0.1 -0.1)">
       <defs>
        <path id="DejaVuSans-2212" d="M 678 2272 
L 4684 2272 
L 4684 1741 
L 678 1741 
L 678 2272 
z
" transform="scale(0.015625)"/>
       </defs>
       <use xlink:href="#DejaVuSans-2212"/>
       <use xlink:href="#DejaVuSans-34" transform="translate(83.789062 0)"/>
      </g>
     </g>
    </g>
    <g id="ytick_2">
     <g id="line2d_10">
      <g>
       <use xlink:href="#m4c7e626af0" x="50.24" y="125.56162" style="stroke: #000000; stroke-width: 0.8"/>
      </g>
     </g>
     <g id="text_11">
      <!-- −3 -->
      <g transform="translate(28.497813 129.360839) scale(0.1 -0.1)">
       <defs>
        <path id="DejaVuSans-33" d="M 2597 2516 
Q 3050 2419 3304 2112 
Q 3559 1806 3559 1356 
Q 3559 666 3084 287 
Q 2609 -91 1734 -91 
Q 1441 -91 1130 -33 
Q 819 25 488 141 
L 488 750 
Q 750 597 1062 519 
Q 1375 441 1716 441 
Q 2309 441 2620 675 
Q 2931 909 2931 1356 
Q 2931 1769 2642 2001 
Q 2353 2234 1838 2234 
L 1294 2234 
L 1294 2753 
L 1863 2753 
Q 2328 2753 2575 2939 
Q 2822 3125 2822 3475 
Q 2822 3834 2567 4026 
Q 2313 4219 1838 4219 
Q 1578 4219 1281 4162 
Q 984 4106 628 3988 
L 628 4550 
Q 988 4650 1302 4700 
Q 1616 4750 1894 4750 
Q 2613 4750 3031 4423 
Q 3450 4097 3450 3541 
Q 3450 3153 3228 2886 
Q 3006 2619 2597 2516 
z
" transform="scale(0.015625)"/>
       </defs>
       <use xlink:href="#DejaVuSans-2212"/>
       <use xlink:href="#DejaVuSans-33" transform="translate(83.789062 0)"/>
      </g>
     </g>
    </g>
    <g id="ytick_3">
     <g id="line2d_11">
      <g>
       <use xlink:href="#m4c7e626af0" x="50.24" y="92.187174" style="stroke: #000000; stroke-width: 0.8"/>
      </g>
     </g>
     <g id="text_12">
      <!-- −2 -->
      <g transform="translate(28.497813 95.986393) scale(0.1 -0.1)">
       <use xlink:href="#DejaVuSans-2212"/>
       <use xlink:href="#DejaVuSans-32" transform="translate(83.789062 0)"/>
      </g>
     </g>
    </g>
    <g id="ytick_4">
     <g id="line2d_12">
      <g>
       <use xlink:href="#m4c7e626af0" x="50.24" y="58.812729" style="stroke: #000000; stroke-width: 0.8"/>
      </g>
     </g>
     <g id="text_13">
      <!-- −1 -->
      <g transform="translate(28.497813 62.611948) scale(0.1 -0.1)">
       <use xlink:href="#DejaVuSans-2212"/>
       <use xlink:href="#DejaVuSans-31" transform="translate(83.789062 0)"/>
      </g>
     </g>
    </g>
    <g id="text_14">
     <!-- Temperature (℃) -->
     <g transform="translate(21.58625 159.986094) rotate(-90) scale(0.14 -0.14)">
      <defs>
       <path id="DejaVuSans-54" d="M -19 4666 
L 3928 4666 
L 3928 4134 
L 2272 4134 
L 2272 0 
L 1638 0 
L 1638 4134 
L -19 4134 
L -19 4666 
z
" transform="scale(0.015625)"/>
       <path id="DejaVuSans-65" d="M 3597 1894 
L 3597 1613 
L 953 1613 
Q 991 1019 1311 708 
Q 1631 397 2203 397 
Q 2534 397 2845 478 
Q 3156 559 3463 722 
L 3463 178 
Q 3153 47 2828 -22 
Q 2503 -91 2169 -91 
Q 1331 -91 842 396 
Q 353 884 353 1716 
Q 353 2575 817 3079 
Q 1281 3584 2069 3584 
Q 2775 3584 3186 3129 
Q 3597 2675 3597 1894 
z
M 3022 2063 
Q 3016 2534 2758 2815 
Q 2500 3097 2075 3097 
Q 1594 3097 1305 2825 
Q 1016 2553 972 2059 
L 3022 2063 
z
" transform="scale(0.015625)"/>
       <path id="DejaVuSans-70" d="M 1159 525 
L 1159 -1331 
L 581 -1331 
L 581 3500 
L 1159 3500 
L 1159 2969 
Q 1341 3281 1617 3432 
Q 1894 3584 2278 3584 
Q 2916 3584 3314 3078 
Q 3713 2572 3713 1747 
Q 3713 922 3314 415 
Q 2916 -91 2278 -91 
Q 1894 -91 1617 61 
Q 1341 213 1159 525 
z
M 3116 1747 
Q 3116 2381 2855 2742 
Q 2594 3103 2138 3103 
Q 1681 3103 1420 2742 
Q 1159 2381 1159 1747 
Q 1159 1113 1420 752 
Q 1681 391 2138 391 
Q 2594 391 2855 752 
Q 3116 1113 3116 1747 
z
" transform="scale(0.015625)"/>
       <path id="DejaVuSans-72" d="M 2631 2963 
Q 2534 3019 2420 3045 
Q 2306 3072 2169 3072 
Q 1681 3072 1420 2755 
Q 1159 2438 1159 1844 
L 1159 0 
L 581 0 
L 581 3500 
L 1159 3500 
L 1159 2956 
Q 1341 3275 1631 3429 
Q 1922 3584 2338 3584 
Q 2397 3584 2469 3576 
Q 2541 3569 2628 3553 
L 2631 2963 
z
" transform="scale(0.015625)"/>
       <path id="DejaVuSans-28" d="M 1984 4856 
Q 1566 4138 1362 3434 
Q 1159 2731 1159 2009 
Q 1159 1288 1364 580 
Q 1569 -128 1984 -844 
L 1484 -844 
Q 1016 -109 783 600 
Q 550 1309 550 2009 
Q 550 2706 781 3412 
Q 1013 4119 1484 4856 
L 1984 4856 
z
" transform="scale(0.015625)"/>
       <path id="DejaVuSans-2103" d="M 1600 4347 
Q 1350 4347 1178 4173 
Q 1006 4000 1006 3750 
Q 1006 3503 1178 3333 
Q 1350 3163 1600 3163 
Q 1850 3163 2022 3333 
Q 2194 3503 2194 3750 
Q 2194 3997 2020 4172 
Q 1847 4347 1600 4347 
z
M 1600 4750 
Q 1800 4750 1984 4673 
Q 2169 4597 2303 4453 
Q 2447 4313 2519 4134 
Q 2591 3956 2591 3750 
Q 2591 3338 2302 3052 
Q 2013 2766 1594 2766 
Q 1172 2766 890 3047 
Q 609 3328 609 3750 
Q 609 4169 896 4459 
Q 1184 4750 1600 4750 
z
M 6741 4306 
L 6741 3641 
Q 6422 3938 6061 4084 
Q 5700 4231 5294 4231 
Q 4494 4231 4069 3742 
Q 3644 3253 3644 2328 
Q 3644 1406 4069 917 
Q 4494 428 5294 428 
Q 5700 428 6061 575 
Q 6422 722 6741 1019 
L 6741 359 
Q 6409 134 6039 21 
Q 5669 -91 5256 -91 
Q 4197 -91 3587 557 
Q 2978 1206 2978 2328 
Q 2978 3453 3587 4101 
Q 4197 4750 5256 4750 
Q 5675 4750 6045 4639 
Q 6416 4528 6741 4306 
z
" transform="scale(0.015625)"/>
       <path id="DejaVuSans-29" d="M 513 4856 
L 1013 4856 
Q 1481 4119 1714 3412 
Q 1947 2706 1947 2009 
Q 1947 1309 1714 600 
Q 1481 -109 1013 -844 
L 513 -844 
Q 928 -128 1133 580 
Q 1338 1288 1338 2009 
Q 1338 2731 1133 3434 
Q 928 4138 513 4856 
z
" transform="scale(0.015625)"/>
      </defs>
      <use xlink:href="#DejaVuSans-54"/>
      <use xlink:href="#DejaVuSans-65" transform="translate(44.083984 0)"/>
      <use xlink:href="#DejaVuSans-6d" transform="translate(105.607422 0)"/>
      <use xlink:href="#DejaVuSans-70" transform="translate(203.019531 0)"/>
      <use xlink:href="#DejaVuSans-65" transform="translate(266.496094 0)"/>
      <use xlink:href="#DejaVuSans-72" transform="translate(328.019531 0)"/>
      <use xlink:href="#DejaVuSans-61" transform="translate(369.132812 0)"/>
      <use xlink:href="#DejaVuSans-74" transform="translate(430.412109 0)"/>
      <use xlink:href="#DejaVuSans-75" transform="translate(469.621094 0)"/>
      <use xlink:href="#DejaVuSans-72" transform="translate(533 0)"/>
      <use xlink:href="#DejaVuSans-65" transform="translate(571.863281 0)"/>
      <use xlink:href="#DejaVuSans-20" transform="translate(633.386719 0)"/>
      <use xlink:href="#DejaVuSans-28" transform="translate(665.173828 0)"/>
      <use xlink:href="#DejaVuSans-2103" transform="translate(704.1875 0)"/>
      <use xlink:href="#DejaVuSans-29" transform="translate(816.492188 0)"/>
     </g>
    </g>
   </g>
   <g id="line2d_13">
    <path d="M 50.24 85.184696 
L 50.905139 85.346146 
L 51.570278 85.666206 
L 52.235418 86.139349 
L 53.565696 87.51115 
L 54.895974 89.376857 
L 56.226253 91.635656 
L 58.22167 95.543652 
L 60.882227 101.313274 
L 70.194176 122.102105 
L 72.189594 125.919042 
L 74.185011 129.248074 
L 76.180429 132.017193 
L 77.510707 133.534156 
L 78.840986 134.786657 
L 80.171264 135.782757 
L 81.501542 136.538389 
L 82.831821 137.07657 
L 84.162099 137.425795 
L 86.157517 137.664878 
L 88.152934 137.657317 
L 90.813491 137.422455 
L 96.799744 136.578821 
L 111.432807 134.280779 
L 116.75392 133.20285 
L 130.721843 130.184838 
L 140.033792 128.362768 
L 142.694349 127.639079 
L 144.689767 126.919964 
L 146.685184 125.928745 
L 148.015463 125.035257 
L 149.345741 123.885174 
L 150.676019 122.415737 
L 152.006298 120.573029 
L 153.336576 118.323826 
L 154.666855 115.666134 
L 156.662272 111.000773 
L 159.322829 103.958798 
L 162.648525 95.0635 
L 164.643943 90.225529 
L 166.63936 85.954462 
L 168.634778 82.271539 
L 170.630196 79.12889 
L 172.625613 76.451912 
L 174.621031 74.165373 
L 176.616448 72.203252 
L 178.611866 70.508592 
L 181.272423 68.57536 
L 184.598119 66.520707 
L 188.588954 64.343207 
L 193.910068 61.686023 
L 199.231181 59.286603 
L 204.552295 57.149294 
L 209.208269 55.501597 
L 213.864244 54.097524 
L 219.185357 52.761759 
L 225.17161 51.511979 
L 232.488141 50.214612 
L 237.144116 49.584815 
L 239.804672 49.432773 
L 241.80009 49.541346 
L 243.130368 49.785737 
L 244.460647 50.219758 
L 245.790925 50.889821 
L 247.121204 51.835902 
L 248.451482 53.08253 
L 249.781761 54.630486 
L 251.777178 57.44811 
L 254.437735 61.777755 
L 257.763431 67.159891 
L 259.758849 69.995503 
L 261.754266 72.486078 
L 268.405658 80.37173 
L 270.401076 83.277396 
L 273.061633 87.605695 
L 278.382746 96.445437 
L 281.043303 100.3538 
L 283.70386 103.878921 
L 290.355252 112.1181 
L 293.680948 116.054644 
L 295.676365 118.148279 
L 297.671783 119.916207 
L 299.667201 121.30848 
L 301.662618 122.336219 
L 303.658036 123.060426 
L 306.318593 123.70638 
L 312.969985 125.088732 
L 314.965402 125.818219 
L 316.96082 126.8443 
L 318.956237 128.215672 
L 320.951655 129.939393 
L 322.947073 131.978059 
L 325.607629 135.048082 
L 332.924161 143.750564 
L 343.566388 155.567797 
L 344.896666 156.767432 
L 346.226945 157.723799 
L 347.557223 158.372518 
L 348.887502 158.667351 
L 350.21778 158.588123 
L 351.548058 158.144524 
L 352.878337 157.374916 
L 354.208615 156.340244 
L 356.204033 154.453367 
L 363.520564 147.08266 
L 367.511399 143.572938 
L 371.502234 140.082068 
L 373.497652 138.043675 
L 374.82793 136.429654 
L 376.158209 134.520911 
L 377.488487 132.247753 
L 378.818766 129.563538 
L 380.149044 126.45756 
L 382.144462 121.090585 
L 384.805018 113.088781 
L 388.130714 103.075409 
L 390.126132 97.667864 
L 392.12155 92.919048 
L 394.116967 88.842369 
L 396.112385 85.369832 
L 398.107802 82.401464 
L 400.10322 79.837296 
L 402.098638 77.590961 
L 404.759194 74.970136 
L 407.419751 72.658951 
L 410.745447 70.063953 
L 414.736283 67.24444 
L 418.727118 64.677941 
L 423.383092 61.953939 
L 428.704206 59.116351 
L 434.025319 56.533064 
L 439.346433 54.198958 
L 444.667547 52.109538 
L 449.98866 50.268038 
L 455.309774 48.671722 
L 461.296027 47.133842 
L 465.952001 46.139519 
L 470.607975 45.382416 
L 475.929089 44.757573 
L 485.906177 43.85667 
L 494.552987 43.238864 
L 497.878683 43.238327 
L 499.8741 43.450884 
L 501.204379 43.749262 
L 502.534657 44.227267 
L 503.864936 44.940772 
L 505.195214 45.950516 
L 506.525492 47.316668 
L 507.855771 49.091936 
L 509.186049 51.314384 
L 510.516328 54.001399 
L 511.846606 57.146166 
L 513.842024 62.647061 
L 515.837441 68.910862 
L 519.163137 80.328942 
L 523.153972 94.04844 
L 525.14939 100.321797 
L 527.144808 105.93256 
L 529.140225 110.753363 
L 530.470504 113.505201 
L 531.800782 115.899407 
L 533.13106 117.966273 
L 535.126478 120.550902 
L 537.121896 122.674812 
L 539.782452 125.089802 
L 549.094401 133.13551 
L 559.071489 142.31618 
L 563.062324 146.398717 
L 567.05316 150.463166 
L 569.048577 152.22504 
L 571.043995 153.708246 
L 573.039413 154.931602 
L 581.686222 159.783309 
L 585.677057 162.280278 
L 587.007336 162.918323 
L 588.337614 163.369262 
L 589.667893 163.592191 
L 590.998171 163.563683 
L 592.328449 163.28085 
L 593.658728 162.761073 
L 594.989006 162.038333 
L 596.984424 160.67231 
L 600.31012 158.027606 
L 604.966094 154.368747 
L 608.29179 152.028676 
L 611.617486 149.932553 
L 614.943182 148.071745 
L 620.264296 145.419253 
L 622.924853 143.985726 
L 624.92027 142.626978 
L 626.250549 141.467001 
L 627.580827 140.010546 
L 628.911105 138.174075 
L 630.241384 135.883823 
L 631.571662 133.090139 
L 632.901941 129.780757 
L 634.897358 123.935793 
L 637.557915 115.014842 
L 641.54875 101.435636 
L 643.544168 95.416258 
L 645.539585 90.174177 
L 647.535003 85.718447 
L 649.530421 81.966512 
L 651.525838 78.798035 
L 653.521256 76.090854 
L 655.516674 73.738051 
L 658.17723 71.005322 
L 660.837787 68.599735 
L 664.163483 65.911923 
L 667.489179 63.499942 
L 670.814875 61.357735 
L 673.475432 59.868373 
L 676.135989 58.597967 
L 679.461685 57.288752 
L 683.45252 55.985898 
L 692.764469 53.273633 
L 719.370037 45.858319 
L 724.026011 44.872859 
L 728.681986 44.097234 
L 734.668239 43.343957 
L 739.324213 42.971185 
L 741.98477 42.948621 
L 743.980187 43.108468 
L 745.975605 43.499643 
L 747.305883 43.92984 
L 748.636162 44.523986 
L 749.96644 45.303413 
L 751.296719 46.284452 
L 752.626997 47.476693 
L 754.622415 49.661983 
L 756.617832 52.29092 
L 758.61325 55.283767 
L 761.938946 60.738865 
L 765.929781 67.231517 
L 768.590338 71.116579 
L 771.250895 74.528012 
L 773.911451 77.488893 
L 776.572008 80.068156 
L 779.232565 82.340244 
L 782.558261 84.854112 
L 786.549096 87.569362 
L 791.205071 90.504546 
L 794.530767 92.379128 
L 797.856463 93.969014 
L 801.847298 95.563419 
L 806.503272 97.174814 
L 809.828968 98.105713 
L 812.489525 98.640131 
L 815.815221 99.047186 
L 823.131752 99.745071 
L 826.457448 100.357847 
L 837.099676 102.647092 
L 839.095093 102.746068 
L 840.425372 102.633223 
L 841.75565 102.323979 
L 843.085928 101.774721 
L 844.416207 100.953029 
L 845.746485 99.846304 
L 847.076764 98.467878 
L 849.072181 95.986099 
L 856.388712 86.152894 
L 859.049269 83.248377 
L 866.3658 75.664023 
L 870.356636 70.965264 
L 874.347471 66.371906 
L 877.008028 63.656251 
L 879.668584 61.285396 
L 882.329141 59.240114 
L 884.989698 57.480392 
L 887.650255 55.964865 
L 890.975951 54.356017 
L 894.301647 53.007094 
L 897.627343 51.875527 
L 901.618178 50.75721 
L 906.939292 49.539563 
L 913.590684 48.247409 
L 926.893468 45.792489 
L 931.549442 44.591522 
L 938.200834 42.606756 
L 947.512783 39.803586 
L 951.503618 38.843326 
L 954.829314 38.257884 
L 958.820149 37.787617 
L 964.806402 37.339212 
L 973.453212 36.961479 
L 982.765161 36.673252 
L 986.090857 36.773896 
L 988.086274 37.018828 
L 989.416553 37.334702 
L 990.746831 37.840296 
L 992.07711 38.608331 
L 993.407388 39.717799 
L 994.737666 41.24308 
L 996.067945 43.240053 
L 997.398223 45.732214 
L 998.728502 48.700549 
L 1000.723919 53.893497 
L 1004.714754 65.460789 
L 1007.375311 72.692389 
L 1009.370729 77.406211 
L 1011.366146 81.427755 
L 1013.361564 84.768862 
L 1014.691842 86.624666 
L 1016.022121 88.174463 
L 1017.352399 89.398564 
L 1018.682678 90.270755 
L 1020.012956 90.765488 
L 1020.678095 90.865388 
L 1020.678095 90.865388 
" clip-path="url(#pe047b331e4)" style="fill: none; stroke: #0000ff; stroke-width: 1.5; stroke-linecap: square"/>
   </g>
   <g id="line2d_14">
    <path d="M 50.24 82.053107 
L 50.905139 82.246739 
L 51.570278 82.630724 
L 52.235418 83.198629 
L 53.565696 84.846244 
L 54.895974 87.086649 
L 56.226253 89.790961 
L 58.22167 94.417339 
L 65.538202 112.14262 
L 68.198758 117.935865 
L 70.859315 123.252576 
L 72.854733 126.846331 
L 74.85015 130.000609 
L 76.845568 132.624641 
L 78.175846 134.049827 
L 79.506125 135.210042 
L 80.836403 136.112655 
L 82.166682 136.774207 
L 83.49696 137.217759 
L 84.827238 137.469887 
L 86.822656 137.548527 
L 88.818074 137.343035 
L 90.813491 136.925431 
L 93.474048 136.139263 
L 102.785997 133.037845 
L 105.446554 132.532212 
L 108.107111 132.256101 
L 115.423642 131.651012 
L 118.749338 131.052114 
L 126.065869 129.605913 
L 130.056704 129.143598 
L 136.042957 128.520805 
L 138.703514 128.040778 
L 141.364071 127.333695 
L 143.359488 126.597728 
L 145.354906 125.604381 
L 146.685184 124.74282 
L 148.015463 123.671437 
L 149.345741 122.343018 
L 150.676019 120.713135 
L 152.006298 118.747456 
L 153.336576 116.429111 
L 154.666855 113.764449 
L 156.662272 109.195816 
L 159.322829 102.387254 
L 163.313664 92.031518 
L 165.309082 87.341845 
L 167.304499 83.177539 
L 169.299917 79.581102 
L 171.295335 76.531127 
L 173.290752 73.965598 
L 175.28617 71.802973 
L 177.281588 69.960227 
L 179.942144 67.879886 
L 182.602701 66.118291 
L 185.928397 64.226919 
L 190.584372 61.886974 
L 207.212852 53.918965 
L 211.203687 52.372732 
L 217.18994 50.369425 
L 227.832167 46.96975 
L 231.157863 46.249506 
L 234.483559 45.796155 
L 237.809255 45.590824 
L 240.469812 45.660236 
L 242.465229 45.940246 
L 243.795508 46.28888 
L 245.125786 46.806068 
L 246.456064 47.523643 
L 247.786343 48.466398 
L 249.116621 49.646979 
L 250.4469 51.06198 
L 252.442317 53.572909 
L 255.102874 57.414736 
L 260.423988 65.236812 
L 263.749684 69.618987 
L 268.405658 75.731137 
L 271.066215 79.665833 
L 273.726772 84.016487 
L 282.373581 98.655961 
L 285.034138 102.552284 
L 287.694695 106.095002 
L 291.020391 110.123381 
L 293.680948 113.035962 
L 296.341505 115.610335 
L 298.336922 117.277488 
L 300.33234 118.705499 
L 302.327757 119.907011 
L 304.988314 121.213756 
L 308.31401 122.52062 
L 315.630541 125.195753 
L 317.625959 126.164337 
L 319.621377 127.357853 
L 321.616794 128.82405 
L 323.612212 130.580314 
L 325.607629 132.608473 
L 328.268186 135.651366 
L 332.259022 140.647614 
L 341.57097 152.531636 
L 343.566388 154.757591 
L 345.561806 156.623505 
L 346.892084 157.58165 
L 348.222362 158.251254 
L 349.552641 158.589144 
L 350.882919 158.566363 
L 352.213198 158.173148 
L 353.543476 157.421625 
L 354.873754 156.345619 
L 356.204033 154.997609 
L 358.19945 152.611557 
L 364.850842 144.193109 
L 367.511399 141.391474 
L 374.82793 134.188114 
L 376.158209 132.513958 
L 377.488487 130.583473 
L 378.818766 128.34816 
L 380.149044 125.776366 
L 382.144462 121.278256 
L 384.139879 116.10552 
L 387.465575 106.646723 
L 390.791271 97.403953 
L 392.786689 92.467328 
L 394.782106 88.152398 
L 396.777524 84.48237 
L 398.772942 81.415995 
L 400.768359 78.875878 
L 402.763777 76.766581 
L 404.759194 74.984567 
L 407.419751 72.939882 
L 412.740865 69.271915 
L 419.392257 64.877681 
L 424.048231 62.104843 
L 434.690459 56.016529 
L 437.351015 54.782265 
L 440.676711 53.519117 
L 444.667547 52.297285 
L 451.318939 50.553057 
L 458.63547 48.817342 
L 463.291444 47.944175 
L 467.947419 47.321737 
L 473.933671 46.542086 
L 477.259367 45.871823 
L 489.231873 43.129347 
L 492.557569 42.723955 
L 495.218126 42.65921 
L 497.213544 42.858543 
L 498.543822 43.162178 
L 499.8741 43.643874 
L 501.204379 44.343093 
L 502.534657 45.299931 
L 503.864936 46.552082 
L 505.195214 48.131745 
L 506.525492 50.062998 
L 507.855771 52.359881 
L 509.186049 55.02498 
L 511.181467 59.688578 
L 513.176884 65.072132 
L 515.837441 73.122195 
L 525.14939 102.520034 
L 527.144808 107.708588 
L 529.140225 112.207526 
L 531.135643 116.017968 
L 533.13106 119.204917 
L 535.126478 121.870478 
L 537.121896 124.131787 
L 539.782452 126.725511 
L 550.42468 136.470469 
L 556.410932 142.57424 
L 562.397185 148.977237 
L 566.38802 153.199315 
L 569.048577 155.701907 
L 571.043995 157.322885 
L 573.039413 158.720842 
L 575.699969 160.29835 
L 578.360526 161.631672 
L 581.021083 162.743166 
L 583.016501 163.393323 
L 585.011918 163.837106 
L 587.007336 164.036702 
L 589.002753 163.976339 
L 590.998171 163.667397 
L 592.993589 163.143344 
L 595.654145 162.186933 
L 598.979841 160.719089 
L 604.300955 158.072658 
L 620.264296 149.820043 
L 622.259713 148.520675 
L 624.255131 146.935488 
L 625.585409 145.651938 
L 626.915688 144.139104 
L 628.245966 142.361555 
L 629.576245 140.293325 
L 630.906523 137.920616 
L 632.901941 133.792376 
L 634.897358 129.026948 
L 636.892776 123.716864 
L 639.553333 116.007712 
L 647.535003 92.285429 
L 649.530421 87.119711 
L 651.525838 82.497956 
L 653.521256 78.447078 
L 655.516674 74.94327 
L 657.512091 71.925767 
L 659.507509 69.314625 
L 661.502926 67.029978 
L 664.163483 64.384262 
L 666.82404 62.116576 
L 669.484597 60.183135 
L 672.145154 58.549206 
L 674.80571 57.171361 
L 678.131406 55.737832 
L 682.122242 54.325355 
L 688.773634 52.311188 
L 702.076418 48.472032 
L 706.067253 47.580643 
L 710.058088 46.906871 
L 723.360872 44.971862 
L 732.672821 43.18428 
L 736.663656 42.659272 
L 739.324213 42.491526 
L 741.319631 42.53138 
L 743.315048 42.772963 
L 745.310466 43.2726 
L 747.305883 44.083095 
L 749.301301 45.246467 
L 751.296719 46.784133 
L 753.292136 48.687028 
L 755.287554 50.911854 
L 757.948111 54.254368 
L 762.604085 60.602023 
L 768.590338 68.684085 
L 771.916034 72.842404 
L 775.24173 76.616554 
L 777.902287 79.291818 
L 780.562843 81.635201 
L 783.2234 83.667234 
L 786.549096 85.875764 
L 793.200488 89.883705 
L 797.191323 92.145097 
L 799.186741 93.085808 
L 801.182159 93.808224 
L 803.177576 94.28931 
L 805.838133 94.625648 
L 813.819804 95.316808 
L 819.806056 96.286213 
L 827.787727 97.520874 
L 832.443701 98.070518 
L 835.104258 98.184599 
L 837.099676 98.071719 
L 839.095093 97.705685 
L 840.425372 97.285424 
L 841.75565 96.705551 
L 843.751068 95.52277 
L 845.746485 93.981307 
L 847.741903 92.140355 
L 850.40246 89.369112 
L 857.718991 81.203258 
L 872.352053 65.091198 
L 876.342888 60.952907 
L 879.003445 58.468913 
L 880.998863 56.835717 
L 882.99428 55.441247 
L 884.989698 54.292837 
L 886.985116 53.365277 
L 889.645673 52.3867 
L 893.636508 51.222783 
L 900.2879 49.562421 
L 907.604431 47.95539 
L 916.91638 46.149778 
L 930.219164 43.665521 
L 934.209999 42.605164 
L 941.52653 40.312222 
L 946.182505 39.002088 
L 950.17334 38.1179 
L 954.164175 37.459691 
L 958.820149 36.916475 
L 964.806402 36.464531 
L 971.457794 36.191972 
L 976.778908 36.188372 
L 979.439465 36.353865 
L 981.434882 36.636058 
L 983.4303 37.145397 
L 984.760578 37.665367 
L 986.090857 38.372194 
L 987.421135 39.301494 
L 988.751414 40.483488 
L 990.081692 41.938704 
L 991.41197 43.674544 
L 993.407388 46.783958 
L 995.402806 50.419205 
L 998.063362 55.838529 
L 1005.379894 71.182034 
L 1008.04045 76.007013 
L 1010.035868 79.157061 
L 1012.031286 81.848817 
L 1014.026703 84.04765 
L 1015.356982 85.226517 
L 1016.68726 86.167586 
L 1018.017538 86.864304 
L 1019.347817 87.3109 
L 1020.678095 87.503127 
L 1020.678095 87.503127 
" clip-path="url(#pe047b331e4)" style="fill: none; stroke: #ff0000; stroke-width: 1.5; stroke-linecap: square"/>
   </g>
   <g id="line2d_15">
    <path d="M 535.791617 170.44 
L 535.791617 29.76 
" clip-path="url(#pe047b331e4)" style="fill: none; stroke: #1f77b4; stroke-width: 1.5; stroke-linecap: square"/>
   </g>
   <g id="patch_3">
    <path d="M 50.24 170.44 
L 50.24 29.76 
" style="fill: none; stroke: #000000; stroke-width: 0.8; stroke-linejoin: miter; stroke-linecap: square"/>
   </g>
   <g id="patch_4">
    <path d="M 1069.2 170.44 
L 1069.2 29.76 
" style="fill: none; stroke: #000000; stroke-width: 0.8; stroke-linejoin: miter; stroke-linecap: square"/>
   </g>
   <g id="patch_5">
    <path d="M 50.24 170.44 
L 1069.2 170.44 
" style="fill: none; stroke: #000000; stroke-width: 0.8; stroke-linejoin: miter; stroke-linecap: square"/>
   </g>
   <g id="patch_6">
    <path d="M 50.24 29.76 
L 1069.2 29.76 
" style="fill: none; stroke: #000000; stroke-width: 0.8; stroke-linejoin: miter; stroke-linecap: square"/>
   </g>
   <g id="text_15">
    <!-- Heat Conduction Equation Solution at x=3M -->
    <g transform="translate(383.1175 23.76) scale(0.16 -0.16)">
     <defs>
      <path id="DejaVuSans-48" d="M 628 4666 
L 1259 4666 
L 1259 2753 
L 3553 2753 
L 3553 4666 
L 4184 4666 
L 4184 0 
L 3553 0 
L 3553 2222 
L 1259 2222 
L 1259 0 
L 628 0 
L 628 4666 
z
" transform="scale(0.015625)"/>
      <path id="DejaVuSans-43" d="M 4122 4306 
L 4122 3641 
Q 3803 3938 3442 4084 
Q 3081 4231 2675 4231 
Q 1875 4231 1450 3742 
Q 1025 3253 1025 2328 
Q 1025 1406 1450 917 
Q 1875 428 2675 428 
Q 3081 428 3442 575 
Q 3803 722 4122 1019 
L 4122 359 
Q 3791 134 3420 21 
Q 3050 -91 2638 -91 
Q 1578 -91 968 557 
Q 359 1206 359 2328 
Q 359 3453 968 4101 
Q 1578 4750 2638 4750 
Q 3056 4750 3426 4639 
Q 3797 4528 4122 4306 
z
" transform="scale(0.015625)"/>
      <path id="DejaVuSans-64" d="M 2906 2969 
L 2906 4863 
L 3481 4863 
L 3481 0 
L 2906 0 
L 2906 525 
Q 2725 213 2448 61 
Q 2172 -91 1784 -91 
Q 1150 -91 751 415 
Q 353 922 353 1747 
Q 353 2572 751 3078 
Q 1150 3584 1784 3584 
Q 2172 3584 2448 3432 
Q 2725 3281 2906 2969 
z
M 947 1747 
Q 947 1113 1208 752 
Q 1469 391 1925 391 
Q 2381 391 2643 752 
Q 2906 1113 2906 1747 
Q 2906 2381 2643 2742 
Q 2381 3103 1925 3103 
Q 1469 3103 1208 2742 
Q 947 2381 947 1747 
z
" transform="scale(0.015625)"/>
      <path id="DejaVuSans-63" d="M 3122 3366 
L 3122 2828 
Q 2878 2963 2633 3030 
Q 2388 3097 2138 3097 
Q 1578 3097 1268 2742 
Q 959 2388 959 1747 
Q 959 1106 1268 751 
Q 1578 397 2138 397 
Q 2388 397 2633 464 
Q 2878 531 3122 666 
L 3122 134 
Q 2881 22 2623 -34 
Q 2366 -91 2075 -91 
Q 1284 -91 818 406 
Q 353 903 353 1747 
Q 353 2603 823 3093 
Q 1294 3584 2113 3584 
Q 2378 3584 2631 3529 
Q 2884 3475 3122 3366 
z
" transform="scale(0.015625)"/>
      <path id="DejaVuSans-45" d="M 628 4666 
L 3578 4666 
L 3578 4134 
L 1259 4134 
L 1259 2753 
L 3481 2753 
L 3481 2222 
L 1259 2222 
L 1259 531 
L 3634 531 
L 3634 0 
L 628 0 
L 628 4666 
z
" transform="scale(0.015625)"/>
      <path id="DejaVuSans-71" d="M 947 1747 
Q 947 1113 1208 752 
Q 1469 391 1925 391 
Q 2381 391 2643 752 
Q 2906 1113 2906 1747 
Q 2906 2381 2643 2742 
Q 2381 3103 1925 3103 
Q 1469 3103 1208 2742 
Q 947 2381 947 1747 
z
M 2906 525 
Q 2725 213 2448 61 
Q 2172 -91 1784 -91 
Q 1150 -91 751 415 
Q 353 922 353 1747 
Q 353 2572 751 3078 
Q 1150 3584 1784 3584 
Q 2172 3584 2448 3432 
Q 2725 3281 2906 2969 
L 2906 3500 
L 3481 3500 
L 3481 -1331 
L 2906 -1331 
L 2906 525 
z
" transform="scale(0.015625)"/>
      <path id="DejaVuSans-78" d="M 3513 3500 
L 2247 1797 
L 3578 0 
L 2900 0 
L 1881 1375 
L 863 0 
L 184 0 
L 1544 1831 
L 300 3500 
L 978 3500 
L 1906 2253 
L 2834 3500 
L 3513 3500 
z
" transform="scale(0.015625)"/>
      <path id="DejaVuSans-3d" d="M 678 2906 
L 4684 2906 
L 4684 2381 
L 678 2381 
L 678 2906 
z
M 678 1631 
L 4684 1631 
L 4684 1100 
L 678 1100 
L 678 1631 
z
" transform="scale(0.015625)"/>
      <path id="DejaVuSans-4d" d="M 628 4666 
L 1569 4666 
L 2759 1491 
L 3956 4666 
L 4897 4666 
L 4897 0 
L 4281 0 
L 4281 4097 
L 3078 897 
L 2444 897 
L 1241 4097 
L 1241 0 
L 628 0 
L 628 4666 
z
" transform="scale(0.015625)"/>
     </defs>
     <use xlink:href="#DejaVuSans-48"/>
     <use xlink:href="#DejaVuSans-65" transform="translate(75.195312 0)"/>
     <use xlink:href="#DejaVuSans-61" transform="translate(136.71875 0)"/>
     <use xlink:href="#DejaVuSans-74" transform="translate(197.998047 0)"/>
     <use xlink:href="#DejaVuSans-20" transform="translate(237.207031 0)"/>
     <use xlink:href="#DejaVuSans-43" transform="translate(268.994141 0)"/>
     <use xlink:href="#DejaVuSans-6f" transform="translate(338.818359 0)"/>
     <use xlink:href="#DejaVuSans-6e" transform="translate(400 0)"/>
     <use xlink:href="#DejaVuSans-64" transform="translate(463.378906 0)"/>
     <use xlink:href="#DejaVuSans-75" transform="translate(526.855469 0)"/>
     <use xlink:href="#DejaVuSans-63" transform="translate(590.234375 0)"/>
     <use xlink:href="#DejaVuSans-74" transform="translate(645.214844 0)"/>
     <use xlink:href="#DejaVuSans-69" transform="translate(684.423828 0)"/>
     <use xlink:href="#DejaVuSans-6f" transform="translate(712.207031 0)"/>
     <use xlink:href="#DejaVuSans-6e" transform="translate(773.388672 0)"/>
     <use xlink:href="#DejaVuSans-20" transform="translate(836.767578 0)"/>
     <use xlink:href="#DejaVuSans-45" transform="translate(868.554688 0)"/>
     <use xlink:href="#DejaVuSans-71" transform="translate(931.738281 0)"/>
     <use xlink:href="#DejaVuSans-75" transform="translate(995.214844 0)"/>
     <use xlink:href="#DejaVuSans-61" transform="translate(1058.59375 0)"/>
     <use xlink:href="#DejaVuSans-74" transform="translate(1119.873047 0)"/>
     <use xlink:href="#DejaVuSans-69" transform="translate(1159.082031 0)"/>
     <use xlink:href="#DejaVuSans-6f" transform="translate(1186.865234 0)"/>
     <use xlink:href="#DejaVuSans-6e" transform="translate(1248.046875 0)"/>
     <use xlink:href="#DejaVuSans-20" transform="translate(1311.425781 0)"/>
     <use xlink:href="#DejaVuSans-53" transform="translate(1343.212891 0)"/>
     <use xlink:href="#DejaVuSans-6f" transform="translate(1406.689453 0)"/>
     <use xlink:href="#DejaVuSans-6c" transform="translate(1467.871094 0)"/>
     <use xlink:href="#DejaVuSans-75" transform="translate(1495.654297 0)"/>
     <use xlink:href="#DejaVuSans-74" transform="translate(1559.033203 0)"/>
     <use xlink:href="#DejaVuSans-69" transform="translate(1598.242188 0)"/>
     <use xlink:href="#DejaVuSans-6f" transform="translate(1626.025391 0)"/>
     <use xlink:href="#DejaVuSans-6e" transform="translate(1687.207031 0)"/>
     <use xlink:href="#DejaVuSans-20" transform="translate(1750.585938 0)"/>
     <use xlink:href="#DejaVuSans-61" transform="translate(1782.373047 0)"/>
     <use xlink:href="#DejaVuSans-74" transform="translate(1843.652344 0)"/>
     <use xlink:href="#DejaVuSans-20" transform="translate(1882.861328 0)"/>
     <use xlink:href="#DejaVuSans-78" transform="translate(1914.648438 0)"/>
     <use xlink:href="#DejaVuSans-3d" transform="translate(1973.828125 0)"/>
     <use xlink:href="#DejaVuSans-33" transform="translate(2057.617188 0)"/>
     <use xlink:href="#DejaVuSans-4d" transform="translate(2121.240234 0)"/>
    </g>
   </g>
   <g id="legend_1">
    <g id="patch_7">
     <path d="M 58.64 74.5875 
L 170.114375 74.5875 
Q 172.514375 74.5875 172.514375 72.1875 
L 172.514375 38.16 
Q 172.514375 35.76 170.114375 35.76 
L 58.64 35.76 
Q 56.24 35.76 56.24 38.16 
L 56.24 72.1875 
Q 56.24 74.5875 58.64 74.5875 
z
" style="fill: #ffffff; opacity: 0.8; stroke: #cccccc; stroke-linejoin: miter"/>
    </g>
    <g id="line2d_16">
     <path d="M 61.04 45.478125 
L 73.04 45.478125 
L 85.04 45.478125 
" style="fill: none; stroke: #0000ff; stroke-width: 1.5; stroke-linecap: square"/>
    </g>
    <g id="text_16">
     <!-- Observation -->
     <g transform="translate(94.64 49.678125) scale(0.12 -0.12)">
      <defs>
       <path id="DejaVuSans-4f" d="M 2522 4238 
Q 1834 4238 1429 3725 
Q 1025 3213 1025 2328 
Q 1025 1447 1429 934 
Q 1834 422 2522 422 
Q 3209 422 3611 934 
Q 4013 1447 4013 2328 
Q 4013 3213 3611 3725 
Q 3209 4238 2522 4238 
z
M 2522 4750 
Q 3503 4750 4090 4092 
Q 4678 3434 4678 2328 
Q 4678 1225 4090 567 
Q 3503 -91 2522 -91 
Q 1538 -91 948 565 
Q 359 1222 359 2328 
Q 359 3434 948 4092 
Q 1538 4750 2522 4750 
z
" transform="scale(0.015625)"/>
       <path id="DejaVuSans-62" d="M 3116 1747 
Q 3116 2381 2855 2742 
Q 2594 3103 2138 3103 
Q 1681 3103 1420 2742 
Q 1159 2381 1159 1747 
Q 1159 1113 1420 752 
Q 1681 391 2138 391 
Q 2594 391 2855 752 
Q 3116 1113 3116 1747 
z
M 1159 2969 
Q 1341 3281 1617 3432 
Q 1894 3584 2278 3584 
Q 2916 3584 3314 3078 
Q 3713 2572 3713 1747 
Q 3713 922 3314 415 
Q 2916 -91 2278 -91 
Q 1894 -91 1617 61 
Q 1341 213 1159 525 
L 1159 0 
L 581 0 
L 581 4863 
L 1159 4863 
L 1159 2969 
z
" transform="scale(0.015625)"/>
       <path id="DejaVuSans-76" d="M 191 3500 
L 800 3500 
L 1894 563 
L 2988 3500 
L 3597 3500 
L 2284 0 
L 1503 0 
L 191 3500 
z
" transform="scale(0.015625)"/>
      </defs>
      <use xlink:href="#DejaVuSans-4f"/>
      <use xlink:href="#DejaVuSans-62" transform="translate(78.710938 0)"/>
      <use xlink:href="#DejaVuSans-73" transform="translate(142.1875 0)"/>
      <use xlink:href="#DejaVuSans-65" transform="translate(194.287109 0)"/>
      <use xlink:href="#DejaVuSans-72" transform="translate(255.810547 0)"/>
      <use xlink:href="#DejaVuSans-76" transform="translate(296.923828 0)"/>
      <use xlink:href="#DejaVuSans-61" transform="translate(356.103516 0)"/>
      <use xlink:href="#DejaVuSans-74" transform="translate(417.382812 0)"/>
      <use xlink:href="#DejaVuSans-69" transform="translate(456.591797 0)"/>
      <use xlink:href="#DejaVuSans-6f" transform="translate(484.375 0)"/>
      <use xlink:href="#DejaVuSans-6e" transform="translate(545.556641 0)"/>
     </g>
    </g>
    <g id="line2d_17">
     <path d="M 61.04 63.091875 
L 73.04 63.091875 
L 85.04 63.091875 
" style="fill: none; stroke: #ff0000; stroke-width: 1.5; stroke-linecap: square"/>
    </g>
    <g id="text_17">
     <!-- Predicted -->
     <g transform="translate(94.64 67.291875) scale(0.12 -0.12)">
      <defs>
       <path id="DejaVuSans-50" d="M 1259 4147 
L 1259 2394 
L 2053 2394 
Q 2494 2394 2734 2622 
Q 2975 2850 2975 3272 
Q 2975 3691 2734 3919 
Q 2494 4147 2053 4147 
L 1259 4147 
z
M 628 4666 
L 2053 4666 
Q 2838 4666 3239 4311 
Q 3641 3956 3641 3272 
Q 3641 2581 3239 2228 
Q 2838 1875 2053 1875 
L 1259 1875 
L 1259 0 
L 628 0 
L 628 4666 
z
" transform="scale(0.015625)"/>
      </defs>
      <use xlink:href="#DejaVuSans-50"/>
      <use xlink:href="#DejaVuSans-72" transform="translate(58.552734 0)"/>
      <use xlink:href="#DejaVuSans-65" transform="translate(97.416016 0)"/>
      <use xlink:href="#DejaVuSans-64" transform="translate(158.939453 0)"/>
      <use xlink:href="#DejaVuSans-69" transform="translate(222.416016 0)"/>
      <use xlink:href="#DejaVuSans-63" transform="translate(250.199219 0)"/>
      <use xlink:href="#DejaVuSans-74" transform="translate(305.179688 0)"/>
      <use xlink:href="#DejaVuSans-65" transform="translate(344.388672 0)"/>
      <use xlink:href="#DejaVuSans-64" transform="translate(405.912109 0)"/>
     </g>
    </g>
   </g>
  </g>
 </g>
 <defs>
  <clipPath id="pe047b331e4">
   <rect x="50.24" y="29.76" width="1018.96" height="140.68"/>
  </clipPath>
 </defs>
</svg>
