<?xml version="1.0" encoding="utf-8" standalone="no"?>
<!DOCTYPE svg PUBLIC "-//W3C//DTD SVG 1.1//EN"
  "http://www.w3.org/Graphics/SVG/1.1/DTD/svg11.dtd">
<svg xmlns:xlink="http://www.w3.org/1999/xlink" width="1080pt" height="216pt" viewBox="0 0 1080 216" xmlns="http://www.w3.org/2000/svg" version="1.1">
 <metadata>
  <rdf:RDF xmlns:dc="http://purl.org/dc/elements/1.1/" xmlns:cc="http://creativecommons.org/ns#" xmlns:rdf="http://www.w3.org/1999/02/22-rdf-syntax-ns#">
   <cc:Work>
    <dc:type rdf:resource="http://purl.org/dc/dcmitype/StillImage"/>
    <dc:date>2026-02-09T09:40:51.467718</dc:date>
    <dc:format>image/svg+xml</dc:format>
    <dc:creator>
     <cc:Agent>
      <dc:title>Matplotlib v3.10.8, https://matplotlib.org/</dc:title>
     </cc:Agent>
    </dc:creator>
   </cc:Work>
  </rdf:RDF>
 </metadata>
 <defs>
  <style type="text/css">*{stroke-linejoin: round; stroke-linecap: butt}</style>
 </defs>
 <g id="figure_1">
  <g id="patch_1">
   <path d="M 0 216 
L 1080 216 
L 1080 0 
L 0 0 
z
" style="fill: #ffffff"/>
  </g>
  <g id="axes_1">
   <g id="patch_2">
    <path d="M 50.24 170.44 
L 1069.2 170.44 
L 1069.2 29.76 
L 50.24 29.76 
z
" style="fill: #ffffff"/>
   </g>
   <g id="matplotlib.axis_1">
    <g id="xtick_1">
     <g id="line2d_1">
      <defs>
       <path id="mebf8512005" d="M 0 0 
L 0 3.5 
" style="stroke: #000000; stroke-width: 0.8"/>
      </defs>
      <g>
       <use xlink:href="#mebf8512005" x="50.24" y="170.44" style="stroke: #000000; stroke-width: 0.8"/>
      </g>
     </g>
     <g id="text_1">
      <!-- 0 -->
      <g transform="translate(47.05875 185.038437) scale(0.1 -0.1)">
       <defs>
        <path id="DejaVuSans-30" d="M 2034 4250 
Q 1547 4250 1301 3770 
Q 1056 3291 1056 2328 
Q 1056 1369 1301 889 
Q 1547 409 2034 409 
Q 2525 409 2770 889 
Q 3016 1369 3016 2328 
Q 3016 3291 2770 3770 
Q 2525 4250 2034 4250 
z
M 2034 4750 
Q 2819 4750 3233 4129 
Q 3647 3509 3647 2328 
Q 3647 1150 3233 529 
Q 2819 -91 2034 -91 
Q 1250 -91 836 529 
Q 422 1150 422 2328 
Q 422 3509 836 4129 
Q 1250 4750 2034 4750 
z
" transform="scale(0.015625)"/>
       </defs>
       <use xlink:href="#DejaVuSans-30"/>
      </g>
     </g>
    </g>
    <g id="xtick_2">
     <g id="line2d_2">
      <g>
       <use xlink:href="#mebf8512005" x="183.26784" y="170.44" style="stroke: #000000; stroke-width: 0.8"/>
      </g>
     </g>
     <g id="text_2">
      <!-- 200 -->
      <g transform="translate(173.72409 185.038437) scale(0.1 -0.1)">
       <defs>
        <path id="DejaVuSans-32" d="M 1228 531 
L 3431 531 
L 3431 0 
L 469 0 
L 469 531 
Q 828 903 1448 1529 
Q 2069 2156 2228 2338 
Q 2531 2678 2651 2914 
Q 2772 3150 2772 3378 
Q 2772 3750 2511 3984 
Q 2250 4219 1831 4219 
Q 1534 4219 1204 4116 
Q 875 4013 500 3803 
L 500 4441 
Q 881 4594 1212 4672 
Q 1544 4750 1819 4750 
Q 2544 4750 2975 4387 
Q 3406 4025 3406 3419 
Q 3406 3131 3298 2873 
Q 3191 2616 2906 2266 
Q 2828 2175 2409 1742 
Q 1991 1309 1228 531 
z
" transform="scale(0.015625)"/>
       </defs>
       <use xlink:href="#DejaVuSans-32"/>
       <use xlink:href="#DejaVuSans-30" transform="translate(63.623047 0)"/>
       <use xlink:href="#DejaVuSans-30" transform="translate(127.246094 0)"/>
      </g>
     </g>
    </g>
    <g id="xtick_3">
     <g id="line2d_3">
      <g>
       <use xlink:href="#mebf8512005" x="316.295681" y="170.44" style="stroke: #000000; stroke-width: 0.8"/>
      </g>
     </g>
     <g id="text_3">
      <!-- 400 -->
      <g transform="translate(306.751931 185.038437) scale(0.1 -0.1)">
       <defs>
        <path id="DejaVuSans-34" d="M 2419 4116 
L 825 1625 
L 2419 1625 
L 2419 4116 
z
M 2253 4666 
L 3047 4666 
L 3047 1625 
L 3713 1625 
L 3713 1100 
L 3047 1100 
L 3047 0 
L 2419 0 
L 2419 1100 
L 313 1100 
L 313 1709 
L 2253 4666 
z
" transform="scale(0.015625)"/>
       </defs>
       <use xlink:href="#DejaVuSans-34"/>
       <use xlink:href="#DejaVuSans-30" transform="translate(63.623047 0)"/>
       <use xlink:href="#DejaVuSans-30" transform="translate(127.246094 0)"/>
      </g>
     </g>
    </g>
    <g id="xtick_4">
     <g id="line2d_4">
      <g>
       <use xlink:href="#mebf8512005" x="449.323521" y="170.44" style="stroke: #000000; stroke-width: 0.8"/>
      </g>
     </g>
     <g id="text_4">
      <!-- 600 -->
      <g transform="translate(439.779771 185.038437) scale(0.1 -0.1)">
       <defs>
        <path id="DejaVuSans-36" d="M 2113 2584 
Q 1688 2584 1439 2293 
Q 1191 2003 1191 1497 
Q 1191 994 1439 701 
Q 1688 409 2113 409 
Q 2538 409 2786 701 
Q 3034 994 3034 1497 
Q 3034 2003 2786 2293 
Q 2538 2584 2113 2584 
z
M 3366 4563 
L 3366 3988 
Q 3128 4100 2886 4159 
Q 2644 4219 2406 4219 
Q 1781 4219 1451 3797 
Q 1122 3375 1075 2522 
Q 1259 2794 1537 2939 
Q 1816 3084 2150 3084 
Q 2853 3084 3261 2657 
Q 3669 2231 3669 1497 
Q 3669 778 3244 343 
Q 2819 -91 2113 -91 
Q 1303 -91 875 529 
Q 447 1150 447 2328 
Q 447 3434 972 4092 
Q 1497 4750 2381 4750 
Q 2619 4750 2861 4703 
Q 3103 4656 3366 4563 
z
" transform="scale(0.015625)"/>
       </defs>
       <use xlink:href="#DejaVuSans-36"/>
       <use xlink:href="#DejaVuSans-30" transform="translate(63.623047 0)"/>
       <use xlink:href="#DejaVuSans-30" transform="translate(127.246094 0)"/>
      </g>
     </g>
    </g>
    <g id="xtick_5">
     <g id="line2d_5">
      <g>
       <use xlink:href="#mebf8512005" x="582.351361" y="170.44" style="stroke: #000000; stroke-width: 0.8"/>
      </g>
     </g>
     <g id="text_5">
      <!-- 800 -->
      <g transform="translate(572.807611 185.038437) scale(0.1 -0.1)">
       <defs>
        <path id="DejaVuSans-38" d="M 2034 2216 
Q 1584 2216 1326 1975 
Q 1069 1734 1069 1313 
Q 1069 891 1326 650 
Q 1584 409 2034 409 
Q 2484 409 2743 651 
Q 3003 894 3003 1313 
Q 3003 1734 2745 1975 
Q 2488 2216 2034 2216 
z
M 1403 2484 
Q 997 2584 770 2862 
Q 544 3141 544 3541 
Q 544 4100 942 4425 
Q 1341 4750 2034 4750 
Q 2731 4750 3128 4425 
Q 3525 4100 3525 3541 
Q 3525 3141 3298 2862 
Q 3072 2584 2669 2484 
Q 3125 2378 3379 2068 
Q 3634 1759 3634 1313 
Q 3634 634 3220 271 
Q 2806 -91 2034 -91 
Q 1263 -91 848 271 
Q 434 634 434 1313 
Q 434 1759 690 2068 
Q 947 2378 1403 2484 
z
M 1172 3481 
Q 1172 3119 1398 2916 
Q 1625 2713 2034 2713 
Q 2441 2713 2670 2916 
Q 2900 3119 2900 3481 
Q 2900 3844 2670 4047 
Q 2441 4250 2034 4250 
Q 1625 4250 1398 4047 
Q 1172 3844 1172 3481 
z
" transform="scale(0.015625)"/>
       </defs>
       <use xlink:href="#DejaVuSans-38"/>
       <use xlink:href="#DejaVuSans-30" transform="translate(63.623047 0)"/>
       <use xlink:href="#DejaVuSans-30" transform="translate(127.246094 0)"/>
      </g>
     </g>
    </g>
    <g id="xtick_6">
     <g id="line2d_6">
      <g>
       <use xlink:href="#mebf8512005" x="715.379202" y="170.44" style="stroke: #000000; stroke-width: 0.8"/>
      </g>
     </g>
     <g id="text_6">
      <!-- 1000 -->
      <g transform="translate(702.654202 185.038437) scale(0.1 -0.1)">
       <defs>
        <path id="DejaVuSans-31" d="M 794 531 
L 1825 531 
L 1825 4091 
L 703 3866 
L 703 4441 
L 1819 4666 
L 2450 4666 
L 2450 531 
L 3481 531 
L 3481 0 
L 794 0 
L 794 531 
z
" transform="scale(0.015625)"/>
       </defs>
       <use xlink:href="#DejaVuSans-31"/>
       <use xlink:href="#DejaVuSans-30" transform="translate(63.623047 0)"/>
       <use xlink:href="#DejaVuSans-30" transform="translate(127.246094 0)"/>
       <use xlink:href="#DejaVuSans-30" transform="translate(190.869141 0)"/>
      </g>
     </g>
    </g>
    <g id="xtick_7">
     <g id="line2d_7">
      <g>
       <use xlink:href="#mebf8512005" x="848.407042" y="170.44" style="stroke: #000000; stroke-width: 0.8"/>
      </g>
     </g>
     <g id="text_7">
      <!-- 1200 -->
      <g transform="translate(835.682042 185.038437) scale(0.1 -0.1)">
       <use xlink:href="#DejaVuSans-31"/>
       <use xlink:href="#DejaVuSans-32" transform="translate(63.623047 0)"/>
       <use xlink:href="#DejaVuSans-30" transform="translate(127.246094 0)"/>
       <use xlink:href="#DejaVuSans-30" transform="translate(190.869141 0)"/>
      </g>
     </g>
    </g>
    <g id="xtick_8">
     <g id="line2d_8">
      <g>
       <use xlink:href="#mebf8512005" x="981.434882" y="170.44" style="stroke: #000000; stroke-width: 0.8"/>
      </g>
     </g>
     <g id="text_8">
      <!-- 1400 -->
      <g transform="translate(968.709882 185.038437) scale(0.1 -0.1)">
       <use xlink:href="#DejaVuSans-31"/>
       <use xlink:href="#DejaVuSans-34" transform="translate(63.623047 0)"/>
       <use xlink:href="#DejaVuSans-30" transform="translate(127.246094 0)"/>
       <use xlink:href="#DejaVuSans-30" transform="translate(190.869141 0)"/>
      </g>
     </g>
    </g>
    <g id="text_9">
     <!-- Simulation Days -->
     <g transform="translate(502.74 201.755937) scale(0.14 -0.14)">
      <defs>
       <path id="DejaVuSans-53" d="M 3425 4513 
L 3425 3897 
Q 3066 4069 2747 4153 
Q 2428 4238 2131 4238 
Q 1616 4238 1336 4038 
Q 1056 3838 1056 3469 
Q 1056 3159 1242 3001 
Q 1428 2844 1947 2747 
L 2328 2669 
Q 3034 2534 3370 2195 
Q 3706 1856 3706 1288 
Q 3706 609 3251 259 
Q 2797 -91 1919 -91 
Q 1588 -91 1214 -16 
Q 841 59 441 206 
L 441 856 
Q 825 641 1194 531 
Q 1563 422 1919 422 
Q 2459 422 2753 634 
Q 3047 847 3047 1241 
Q 3047 1584 2836 1778 
Q 2625 1972 2144 2069 
L 1759 2144 
Q 1053 2284 737 2584 
Q 422 2884 422 3419 
Q 422 4038 858 4394 
Q 1294 4750 2059 4750 
Q 2388 4750 2728 4690 
Q 3069 4631 3425 4513 
z
" transform="scale(0.015625)"/>
       <path id="DejaVuSans-69" d="M 603 3500 
L 1178 3500 
L 1178 0 
L 603 0 
L 603 3500 
z
M 603 4863 
L 1178 4863 
L 1178 4134 
L 603 4134 
L 603 4863 
z
" transform="scale(0.015625)"/>
       <path id="DejaVuSans-6d" d="M 3328 2828 
Q 3544 3216 3844 3400 
Q 4144 3584 4550 3584 
Q 5097 3584 5394 3201 
Q 5691 2819 5691 2113 
L 5691 0 
L 5113 0 
L 5113 2094 
Q 5113 2597 4934 2840 
Q 4756 3084 4391 3084 
Q 3944 3084 3684 2787 
Q 3425 2491 3425 1978 
L 3425 0 
L 2847 0 
L 2847 2094 
Q 2847 2600 2669 2842 
Q 2491 3084 2119 3084 
Q 1678 3084 1418 2786 
Q 1159 2488 1159 1978 
L 1159 0 
L 581 0 
L 581 3500 
L 1159 3500 
L 1159 2956 
Q 1356 3278 1631 3431 
Q 1906 3584 2284 3584 
Q 2666 3584 2933 3390 
Q 3200 3197 3328 2828 
z
" transform="scale(0.015625)"/>
       <path id="DejaVuSans-75" d="M 544 1381 
L 544 3500 
L 1119 3500 
L 1119 1403 
Q 1119 906 1312 657 
Q 1506 409 1894 409 
Q 2359 409 2629 706 
Q 2900 1003 2900 1516 
L 2900 3500 
L 3475 3500 
L 3475 0 
L 2900 0 
L 2900 538 
Q 2691 219 2414 64 
Q 2138 -91 1772 -91 
Q 1169 -91 856 284 
Q 544 659 544 1381 
z
M 1991 3584 
L 1991 3584 
z
" transform="scale(0.015625)"/>
       <path id="DejaVuSans-6c" d="M 603 4863 
L 1178 4863 
L 1178 0 
L 603 0 
L 603 4863 
z
" transform="scale(0.015625)"/>
       <path id="DejaVuSans-61" d="M 2194 1759 
Q 1497 1759 1228 1600 
Q 959 1441 959 1056 
Q 959 750 1161 570 
Q 1363 391 1709 391 
Q 2188 391 2477 730 
Q 2766 1069 2766 1631 
L 2766 1759 
L 2194 1759 
z
M 3341 1997 
L 3341 0 
L 2766 0 
L 2766 531 
Q 2569 213 2275 61 
Q 1981 -91 1556 -91 
Q 1019 -91 701 211 
Q 384 513 384 1019 
Q 384 1609 779 1909 
Q 1175 2209 1959 2209 
L 2766 2209 
L 2766 2266 
Q 2766 2663 2505 2880 
Q 2244 3097 1772 3097 
Q 1472 3097 1187 3025 
Q 903 2953 641 2809 
L 641 3341 
Q 956 3463 1253 3523 
Q 1550 3584 1831 3584 
Q 2591 3584 2966 3190 
Q 3341 2797 3341 1997 
z
" transform="scale(0.015625)"/>
       <path id="DejaVuSans-74" d="M 1172 4494 
L 1172 3500 
L 2356 3500 
L 2356 3053 
L 1172 3053 
L 1172 1153 
Q 1172 725 1289 603 
Q 1406 481 1766 481 
L 2356 481 
L 2356 0 
L 1766 0 
Q 1100 0 847 248 
Q 594 497 594 1153 
L 594 3053 
L 172 3053 
L 172 3500 
L 594 3500 
L 594 4494 
L 1172 4494 
z
" transform="scale(0.015625)"/>
       <path id="DejaVuSans-6f" d="M 1959 3097 
Q 1497 3097 1228 2736 
Q 959 2375 959 1747 
Q 959 1119 1226 758 
Q 1494 397 1959 397 
Q 2419 397 2687 759 
Q 2956 1122 2956 1747 
Q 2956 2369 2687 2733 
Q 2419 3097 1959 3097 
z
M 1959 3584 
Q 2709 3584 3137 3096 
Q 3566 2609 3566 1747 
Q 3566 888 3137 398 
Q 2709 -91 1959 -91 
Q 1206 -91 779 398 
Q 353 888 353 1747 
Q 353 2609 779 3096 
Q 1206 3584 1959 3584 
z
" transform="scale(0.015625)"/>
       <path id="DejaVuSans-6e" d="M 3513 2113 
L 3513 0 
L 2938 0 
L 2938 2094 
Q 2938 2591 2744 2837 
Q 2550 3084 2163 3084 
Q 1697 3084 1428 2787 
Q 1159 2491 1159 1978 
L 1159 0 
L 581 0 
L 581 3500 
L 1159 3500 
L 1159 2956 
Q 1366 3272 1645 3428 
Q 1925 3584 2291 3584 
Q 2894 3584 3203 3211 
Q 3513 2838 3513 2113 
z
" transform="scale(0.015625)"/>
       <path id="DejaVuSans-20" transform="scale(0.015625)"/>
       <path id="DejaVuSans-44" d="M 1259 4147 
L 1259 519 
L 2022 519 
Q 2988 519 3436 956 
Q 3884 1394 3884 2338 
Q 3884 3275 3436 3711 
Q 2988 4147 2022 4147 
L 1259 4147 
z
M 628 4666 
L 1925 4666 
Q 3281 4666 3915 4102 
Q 4550 3538 4550 2338 
Q 4550 1131 3912 565 
Q 3275 0 1925 0 
L 628 0 
L 628 4666 
z
" transform="scale(0.015625)"/>
       <path id="DejaVuSans-79" d="M 2059 -325 
Q 1816 -950 1584 -1140 
Q 1353 -1331 966 -1331 
L 506 -1331 
L 506 -850 
L 844 -850 
Q 1081 -850 1212 -737 
Q 1344 -625 1503 -206 
L 1606 56 
L 191 3500 
L 800 3500 
L 1894 763 
L 2988 3500 
L 3597 3500 
L 2059 -325 
z
" transform="scale(0.015625)"/>
       <path id="DejaVuSans-73" d="M 2834 3397 
L 2834 2853 
Q 2591 2978 2328 3040 
Q 2066 3103 1784 3103 
Q 1356 3103 1142 2972 
Q 928 2841 928 2578 
Q 928 2378 1081 2264 
Q 1234 2150 1697 2047 
L 1894 2003 
Q 2506 1872 2764 1633 
Q 3022 1394 3022 966 
Q 3022 478 2636 193 
Q 2250 -91 1575 -91 
Q 1294 -91 989 -36 
Q 684 19 347 128 
L 347 722 
Q 666 556 975 473 
Q 1284 391 1588 391 
Q 1994 391 2212 530 
Q 2431 669 2431 922 
Q 2431 1156 2273 1281 
Q 2116 1406 1581 1522 
L 1381 1569 
Q 847 1681 609 1914 
Q 372 2147 372 2553 
Q 372 3047 722 3315 
Q 1072 3584 1716 3584 
Q 2034 3584 2315 3537 
Q 2597 3491 2834 3397 
z
" transform="scale(0.015625)"/>
      </defs>
      <use xlink:href="#DejaVuSans-53"/>
      <use xlink:href="#DejaVuSans-69" transform="translate(63.476562 0)"/>
      <use xlink:href="#DejaVuSans-6d" transform="translate(91.259766 0)"/>
      <use xlink:href="#DejaVuSans-75" transform="translate(188.671875 0)"/>
      <use xlink:href="#DejaVuSans-6c" transform="translate(252.050781 0)"/>
      <use xlink:href="#DejaVuSans-61" transform="translate(279.833984 0)"/>
      <use xlink:href="#DejaVuSans-74" transform="translate(341.113281 0)"/>
      <use xlink:href="#DejaVuSans-69" transform="translate(380.322266 0)"/>
      <use xlink:href="#DejaVuSans-6f" transform="translate(408.105469 0)"/>
      <use xlink:href="#DejaVuSans-6e" transform="translate(469.287109 0)"/>
      <use xlink:href="#DejaVuSans-20" transform="translate(532.666016 0)"/>
      <use xlink:href="#DejaVuSans-44" transform="translate(564.453125 0)"/>
      <use xlink:href="#DejaVuSans-61" transform="translate(641.455078 0)"/>
      <use xlink:href="#DejaVuSans-79" transform="translate(702.734375 0)"/>
      <use xlink:href="#DejaVuSans-73" transform="translate(761.914062 0)"/>
     </g>
    </g>
   </g>
   <g id="matplotlib.axis_2">
    <g id="ytick_1">
     <g id="line2d_9">
      <defs>
       <path id="m922afa3f2b" d="M 0 0 
L -3.5 0 
" style="stroke: #000000; stroke-width: 0.8"/>
      </defs>
      <g>
       <use xlink:href="#m922afa3f2b" x="50.24" y="162.944545" style="stroke: #000000; stroke-width: 0.8"/>
      </g>
     </g>
     <g id="text_10">
      <!-- −8 -->
      <g transform="translate(28.497813 166.743764) scale(0.1 -0.1)">
       <defs>
        <path id="DejaVuSans-2212" d="M 678 2272 
L 4684 2272 
L 4684 1741 
L 678 1741 
L 678 2272 
z
" transform="scale(0.015625)"/>
       </defs>
       <use xlink:href="#DejaVuSans-2212"/>
       <use xlink:href="#DejaVuSans-38" transform="translate(83.789062 0)"/>
      </g>
     </g>
    </g>
    <g id="ytick_2">
     <g id="line2d_10">
      <g>
       <use xlink:href="#m922afa3f2b" x="50.24" y="132.239049" style="stroke: #000000; stroke-width: 0.8"/>
      </g>
     </g>
     <g id="text_11">
      <!-- −4 -->
      <g transform="translate(28.497813 136.038267) scale(0.1 -0.1)">
       <use xlink:href="#DejaVuSans-2212"/>
       <use xlink:href="#DejaVuSans-34" transform="translate(83.789062 0)"/>
      </g>
     </g>
    </g>
    <g id="ytick_3">
     <g id="line2d_11">
      <g>
       <use xlink:href="#m922afa3f2b" x="50.24" y="101.533552" style="stroke: #000000; stroke-width: 0.8"/>
      </g>
     </g>
     <g id="text_12">
      <!-- 0 -->
      <g transform="translate(36.8775 105.332771) scale(0.1 -0.1)">
       <use xlink:href="#DejaVuSans-30"/>
      </g>
     </g>
    </g>
    <g id="ytick_4">
     <g id="line2d_12">
      <g>
       <use xlink:href="#m922afa3f2b" x="50.24" y="70.828056" style="stroke: #000000; stroke-width: 0.8"/>
      </g>
     </g>
     <g id="text_13">
      <!-- 4 -->
      <g transform="translate(36.8775 74.627275) scale(0.1 -0.1)">
       <use xlink:href="#DejaVuSans-34"/>
      </g>
     </g>
    </g>
    <g id="ytick_5">
     <g id="line2d_13">
      <g>
       <use xlink:href="#m922afa3f2b" x="50.24" y="40.12256" style="stroke: #000000; stroke-width: 0.8"/>
      </g>
     </g>
     <g id="text_14">
      <!-- 8 -->
      <g transform="translate(36.8775 43.921779) scale(0.1 -0.1)">
       <use xlink:href="#DejaVuSans-38"/>
      </g>
     </g>
    </g>
    <g id="text_15">
     <!-- Temperature (℃) -->
     <g transform="translate(21.58625 159.986094) rotate(-90) scale(0.14 -0.14)">
      <defs>
       <path id="DejaVuSans-54" d="M -19 4666 
L 3928 4666 
L 3928 4134 
L 2272 4134 
L 2272 0 
L 1638 0 
L 1638 4134 
L -19 4134 
L -19 4666 
z
" transform="scale(0.015625)"/>
       <path id="DejaVuSans-65" d="M 3597 1894 
L 3597 1613 
L 953 1613 
Q 991 1019 1311 708 
Q 1631 397 2203 397 
Q 2534 397 2845 478 
Q 3156 559 3463 722 
L 3463 178 
Q 3153 47 2828 -22 
Q 2503 -91 2169 -91 
Q 1331 -91 842 396 
Q 353 884 353 1716 
Q 353 2575 817 3079 
Q 1281 3584 2069 3584 
Q 2775 3584 3186 3129 
Q 3597 2675 3597 1894 
z
M 3022 2063 
Q 3016 2534 2758 2815 
Q 2500 3097 2075 3097 
Q 1594 3097 1305 2825 
Q 1016 2553 972 2059 
L 3022 2063 
z
" transform="scale(0.015625)"/>
       <path id="DejaVuSans-70" d="M 1159 525 
L 1159 -1331 
L 581 -1331 
L 581 3500 
L 1159 3500 
L 1159 2969 
Q 1341 3281 1617 3432 
Q 1894 3584 2278 3584 
Q 2916 3584 3314 3078 
Q 3713 2572 3713 1747 
Q 3713 922 3314 415 
Q 2916 -91 2278 -91 
Q 1894 -91 1617 61 
Q 1341 213 1159 525 
z
M 3116 1747 
Q 3116 2381 2855 2742 
Q 2594 3103 2138 3103 
Q 1681 3103 1420 2742 
Q 1159 2381 1159 1747 
Q 1159 1113 1420 752 
Q 1681 391 2138 391 
Q 2594 391 2855 752 
Q 3116 1113 3116 1747 
z
" transform="scale(0.015625)"/>
       <path id="DejaVuSans-72" d="M 2631 2963 
Q 2534 3019 2420 3045 
Q 2306 3072 2169 3072 
Q 1681 3072 1420 2755 
Q 1159 2438 1159 1844 
L 1159 0 
L 581 0 
L 581 3500 
L 1159 3500 
L 1159 2956 
Q 1341 3275 1631 3429 
Q 1922 3584 2338 3584 
Q 2397 3584 2469 3576 
Q 2541 3569 2628 3553 
L 2631 2963 
z
" transform="scale(0.015625)"/>
       <path id="DejaVuSans-28" d="M 1984 4856 
Q 1566 4138 1362 3434 
Q 1159 2731 1159 2009 
Q 1159 1288 1364 580 
Q 1569 -128 1984 -844 
L 1484 -844 
Q 1016 -109 783 600 
Q 550 1309 550 2009 
Q 550 2706 781 3412 
Q 1013 4119 1484 4856 
L 1984 4856 
z
" transform="scale(0.015625)"/>
       <path id="DejaVuSans-2103" d="M 1600 4347 
Q 1350 4347 1178 4173 
Q 1006 4000 1006 3750 
Q 1006 3503 1178 3333 
Q 1350 3163 1600 3163 
Q 1850 3163 2022 3333 
Q 2194 3503 2194 3750 
Q 2194 3997 2020 4172 
Q 1847 4347 1600 4347 
z
M 1600 4750 
Q 1800 4750 1984 4673 
Q 2169 4597 2303 4453 
Q 2447 4313 2519 4134 
Q 2591 3956 2591 3750 
Q 2591 3338 2302 3052 
Q 2013 2766 1594 2766 
Q 1172 2766 890 3047 
Q 609 3328 609 3750 
Q 609 4169 896 4459 
Q 1184 4750 1600 4750 
z
M 6741 4306 
L 6741 3641 
Q 6422 3938 6061 4084 
Q 5700 4231 5294 4231 
Q 4494 4231 4069 3742 
Q 3644 3253 3644 2328 
Q 3644 1406 4069 917 
Q 4494 428 5294 428 
Q 5700 428 6061 575 
Q 6422 722 6741 1019 
L 6741 359 
Q 6409 134 6039 21 
Q 5669 -91 5256 -91 
Q 4197 -91 3587 557 
Q 2978 1206 2978 2328 
Q 2978 3453 3587 4101 
Q 4197 4750 5256 4750 
Q 5675 4750 6045 4639 
Q 6416 4528 6741 4306 
z
" transform="scale(0.015625)"/>
       <path id="DejaVuSans-29" d="M 513 4856 
L 1013 4856 
Q 1481 4119 1714 3412 
Q 1947 2706 1947 2009 
Q 1947 1309 1714 600 
Q 1481 -109 1013 -844 
L 513 -844 
Q 928 -128 1133 580 
Q 1338 1288 1338 2009 
Q 1338 2731 1133 3434 
Q 928 4138 513 4856 
z
" transform="scale(0.015625)"/>
      </defs>
      <use xlink:href="#DejaVuSans-54"/>
      <use xlink:href="#DejaVuSans-65" transform="translate(44.083984 0)"/>
      <use xlink:href="#DejaVuSans-6d" transform="translate(105.607422 0)"/>
      <use xlink:href="#DejaVuSans-70" transform="translate(203.019531 0)"/>
      <use xlink:href="#DejaVuSans-65" transform="translate(266.496094 0)"/>
      <use xlink:href="#DejaVuSans-72" transform="translate(328.019531 0)"/>
      <use xlink:href="#DejaVuSans-61" transform="translate(369.132812 0)"/>
      <use xlink:href="#DejaVuSans-74" transform="translate(430.412109 0)"/>
      <use xlink:href="#DejaVuSans-75" transform="translate(469.621094 0)"/>
      <use xlink:href="#DejaVuSans-72" transform="translate(533 0)"/>
      <use xlink:href="#DejaVuSans-65" transform="translate(571.863281 0)"/>
      <use xlink:href="#DejaVuSans-20" transform="translate(633.386719 0)"/>
      <use xlink:href="#DejaVuSans-28" transform="translate(665.173828 0)"/>
      <use xlink:href="#DejaVuSans-2103" transform="translate(704.1875 0)"/>
      <use xlink:href="#DejaVuSans-29" transform="translate(816.492188 0)"/>
     </g>
    </g>
   </g>
   <g id="line2d_14">
    <path d="M 50.24 154.212812 
L 52.900557 154.365347 
L 54.895974 154.665691 
L 56.891392 155.179209 
L 58.88681 155.960823 
L 60.882227 157.012791 
L 65.538202 159.716419 
L 66.86848 160.231476 
L 68.198758 160.514478 
L 69.529037 160.536605 
L 70.859315 160.295244 
L 72.189594 159.808578 
L 73.519872 159.107605 
L 75.51529 157.736574 
L 78.175846 155.515121 
L 84.827238 149.711923 
L 87.487795 147.785891 
L 90.148352 146.185252 
L 92.808909 144.886055 
L 95.469466 143.83063 
L 98.795162 142.742122 
L 108.107111 139.865062 
L 111.432807 138.443215 
L 116.75392 136.098985 
L 119.414477 135.205768 
L 122.075034 134.549905 
L 126.065869 133.857286 
L 133.3824 132.664823 
L 137.373235 131.771485 
L 140.698931 130.847557 
L 143.359488 129.893339 
L 145.354906 128.908606 
L 146.685184 128.037674 
L 148.015463 126.933075 
L 149.345741 125.549448 
L 150.676019 123.86285 
L 152.006298 121.883042 
L 154.001715 118.484911 
L 157.992551 111.459639 
L 159.322829 109.476016 
L 160.653107 107.806247 
L 161.983386 106.473469 
L 163.313664 105.463749 
L 164.643943 104.736399 
L 165.974221 104.236577 
L 167.969639 103.788441 
L 170.630196 103.498601 
L 175.28617 103.076025 
L 177.281588 102.691619 
L 179.277005 102.050818 
L 180.607284 101.43645 
L 181.937562 100.642612 
L 183.26784 99.642693 
L 184.598119 98.408879 
L 185.928397 96.907699 
L 187.258676 95.098472 
L 188.588954 92.942265 
L 189.919232 90.417294 
L 191.91465 86.003339 
L 195.240346 78.187089 
L 196.570624 75.66539 
L 197.235764 74.691725 
L 197.900903 73.956407 
L 198.566042 73.486808 
L 199.231181 73.302195 
L 199.89632 73.412361 
L 200.56146 73.816868 
L 201.226599 74.504667 
L 201.891738 75.454533 
L 203.222016 78.010854 
L 205.217434 82.82769 
L 207.212852 87.61657 
L 208.54313 90.171961 
L 209.208269 91.153675 
L 209.873408 91.909539 
L 210.538548 92.429145 
L 211.203687 92.711526 
L 211.868826 92.765019 
L 212.533965 92.606407 
L 213.199104 92.26061 
L 214.529383 91.138997 
L 217.855079 87.680107 
L 219.185357 86.820963 
L 219.850496 86.608794 
L 220.515636 86.556159 
L 221.180775 86.665055 
L 221.845914 86.930802 
L 222.511053 87.343655 
L 223.841332 88.550855 
L 225.17161 90.155018 
L 227.167028 93.027712 
L 229.827584 97.321954 
L 233.15328 103.171918 
L 241.80009 118.861684 
L 244.460647 123.102045 
L 246.456064 125.782625 
L 247.786343 127.222623 
L 249.116621 128.331166 
L 250.4469 129.087857 
L 251.777178 129.499734 
L 253.107457 129.603295 
L 254.437735 129.461371 
L 257.098292 128.80898 
L 258.42857 128.534367 
L 259.758849 128.471417 
L 261.089127 128.744456 
L 262.419405 129.443905 
L 263.749684 130.603084 
L 265.079962 132.18339 
L 267.07538 135.088751 
L 269.735937 139.051135 
L 271.066215 140.687108 
L 272.396493 141.941608 
L 273.726772 142.779006 
L 275.05705 143.223985 
L 276.387329 143.345327 
L 277.717607 143.238084 
L 283.038721 142.425094 
L 284.368999 142.464791 
L 286.364417 142.796802 
L 289.024973 143.573905 
L 291.68553 144.313249 
L 293.680948 144.584393 
L 295.011226 144.576989 
L 297.006644 144.285971 
L 299.002061 143.717007 
L 301.662618 142.680252 
L 307.648871 140.201496 
L 309.644289 139.721066 
L 310.974567 139.6255 
L 312.304845 139.758788 
L 313.635124 140.147306 
L 314.965402 140.796864 
L 316.295681 141.690636 
L 318.291098 143.403617 
L 320.951655 146.088787 
L 324.277351 149.421581 
L 326.272769 151.141476 
L 328.268186 152.59204 
L 330.928743 154.212251 
L 334.919578 156.371493 
L 336.914996 157.269496 
L 338.245274 157.657565 
L 339.575553 157.754236 
L 340.240692 157.657336 
L 340.905831 157.44533 
L 341.57097 157.106626 
L 342.23611 156.632063 
L 343.566388 155.255353 
L 344.896666 153.316037 
L 346.226945 150.886633 
L 348.222362 146.647399 
L 350.882919 140.925605 
L 352.213198 138.452177 
L 353.543476 136.387313 
L 354.873754 134.749194 
L 356.204033 133.488393 
L 357.534311 132.513812 
L 359.529729 131.373228 
L 362.190286 130.118702 
L 364.850842 129.072774 
L 370.837095 127.017529 
L 372.167374 126.171057 
L 373.497652 124.98747 
L 374.82793 123.417835 
L 376.158209 121.466835 
L 378.153626 117.981526 
L 382.144462 110.692049 
L 383.47474 108.689284 
L 384.805018 107.048617 
L 386.135297 105.783537 
L 387.465575 104.864413 
L 388.795854 104.233823 
L 390.126132 103.820997 
L 392.12155 103.459915 
L 396.112385 102.900007 
L 397.442663 102.529454 
L 398.772942 101.93395 
L 400.10322 101.014864 
L 401.433498 99.672484 
L 402.763777 97.826715 
L 404.094055 95.445591 
L 405.424334 92.572805 
L 408.08489 85.991039 
L 410.080308 81.335278 
L 411.410587 78.86445 
L 412.740865 77.076498 
L 414.071143 75.940864 
L 415.401422 75.251301 
L 417.396839 74.304422 
L 418.061979 73.825925 
L 418.727118 73.201886 
L 419.392257 72.408674 
L 420.722535 70.287783 
L 422.052814 67.545981 
L 425.37851 60.06393 
L 426.708788 57.817029 
L 427.373927 56.990655 
L 428.039067 56.377097 
L 428.704206 55.973653 
L 429.369345 55.768238 
L 430.034484 55.741013 
L 430.699623 55.867155 
L 432.029902 56.47182 
L 433.36018 57.383746 
L 435.355598 59.044288 
L 437.351015 60.944304 
L 439.346433 63.121951 
L 445.332686 70.112795 
L 447.328103 71.811633 
L 452.649217 75.711068 
L 453.979495 77.189821 
L 455.309774 79.072372 
L 456.640052 81.397289 
L 457.970331 84.160352 
L 459.965748 89.026176 
L 462.626305 96.392711 
L 465.286862 103.774366 
L 466.61714 107.060567 
L 467.947419 109.861407 
L 469.277697 112.049763 
L 469.942836 112.887103 
L 470.607975 113.545539 
L 471.273115 114.023875 
L 471.938254 114.324362 
L 472.603393 114.452707 
L 473.268532 114.418335 
L 473.933671 114.233485 
L 475.26395 113.473646 
L 476.594228 112.312396 
L 478.589646 110.15637 
L 481.250203 107.257974 
L 482.580481 106.048438 
L 483.910759 105.098945 
L 485.241038 104.461288 
L 486.571316 104.179864 
L 487.901595 104.303416 
L 488.566734 104.53433 
L 489.231873 104.887242 
L 490.562152 105.984889 
L 491.89243 107.635915 
L 493.222708 109.848173 
L 494.552987 112.584048 
L 496.548404 117.470963 
L 503.864936 136.882494 
L 505.860353 141.293761 
L 507.855771 145.170349 
L 509.851188 148.572157 
L 512.511745 152.589102 
L 516.50258 158.110125 
L 518.497998 160.609666 
L 519.828276 162.031325 
L 521.158555 163.139031 
L 522.488833 163.834333 
L 523.153972 164.003366 
L 523.819112 164.045455 
L 524.484251 163.958762 
L 525.14939 163.744851 
L 526.479668 162.959774 
L 527.809947 161.772036 
L 529.805364 159.512925 
L 532.465921 156.375509 
L 533.7962 155.041512 
L 535.126478 153.978469 
L 536.456756 153.227533 
L 537.787035 152.798144 
L 539.117313 152.674585 
L 540.447592 152.822039 
L 541.77787 153.190924 
L 543.773288 154.027458 
L 549.094401 156.491692 
L 551.089819 157.142684 
L 553.750376 157.781922 
L 559.736628 158.923887 
L 561.732046 159.096827 
L 563.727464 158.981004 
L 565.722881 158.529207 
L 567.718299 157.816113 
L 571.709134 156.295677 
L 574.369691 155.598065 
L 578.360526 154.639899 
L 580.355944 153.831772 
L 581.686222 153.090481 
L 583.68164 151.670751 
L 585.677057 149.95516 
L 590.998171 145.155712 
L 592.993589 143.756591 
L 594.989006 142.720703 
L 596.984424 142.012804 
L 599.644981 141.39719 
L 606.961512 139.915108 
L 614.278043 138.048737 
L 617.603739 137.05247 
L 620.264296 136.025074 
L 622.259713 135.012995 
L 624.255131 133.674092 
L 625.585409 132.527506 
L 626.915688 131.121475 
L 628.245966 129.414148 
L 629.576245 127.382432 
L 631.571662 123.755716 
L 634.232219 118.202009 
L 636.892776 112.713466 
L 638.223054 110.31992 
L 639.553333 108.284288 
L 640.883611 106.644731 
L 642.213889 105.394652 
L 643.544168 104.492494 
L 644.874446 103.876019 
L 646.204725 103.476157 
L 648.200142 103.144556 
L 651.525838 102.915869 
L 654.851534 102.6481 
L 656.846952 102.255195 
L 658.17723 101.807279 
L 659.507509 101.155588 
L 660.837787 100.261262 
L 662.168066 99.104073 
L 663.498344 97.690344 
L 665.493762 95.170531 
L 668.154318 91.369754 
L 672.145154 85.304162 
L 674.80571 80.819668 
L 676.801128 77.031634 
L 679.461685 71.418784 
L 683.45252 62.281531 
L 690.103912 46.89085 
L 692.09933 42.719881 
L 693.429608 40.279342 
L 694.759886 38.262686 
L 696.090165 36.831142 
L 696.755304 36.388619 
L 697.420443 36.15638 
L 698.085582 36.154545 
L 698.750722 36.400296 
L 699.415861 36.907048 
L 700.081 37.683801 
L 700.746139 38.733796 
L 701.411278 40.053825 
L 702.741557 43.455594 
L 704.071835 47.717974 
L 706.067253 55.091107 
L 708.72781 64.815464 
L 710.058088 68.861104 
L 711.388366 72.085324 
L 712.718645 74.466596 
L 714.048923 76.135303 
L 715.379202 77.335998 
L 718.039758 79.517649 
L 719.370037 81.012118 
L 720.700315 82.98163 
L 722.030594 85.457672 
L 723.360872 88.386002 
L 725.35629 93.362607 
L 729.347125 103.560448 
L 731.342543 108.021405 
L 733.33796 111.945858 
L 736.663656 117.831352 
L 740.654491 124.571573 
L 742.649909 127.488066 
L 743.980187 129.057462 
L 745.310466 130.253366 
L 746.640744 131.07106 
L 747.971023 131.565611 
L 749.96644 131.943118 
L 751.961858 132.293305 
L 753.292136 132.703318 
L 754.622415 133.320652 
L 756.617832 134.591067 
L 759.943528 136.893695 
L 761.273807 137.573464 
L 762.604085 138.007234 
L 763.934363 138.178076 
L 765.264642 138.107279 
L 766.59492 137.843125 
L 768.590338 137.22089 
L 772.581173 135.869051 
L 774.576591 135.383141 
L 777.237147 134.996972 
L 780.562843 134.808676 
L 785.218818 134.795101 
L 790.539931 134.804554 
L 793.200488 134.603915 
L 797.856463 133.947046 
L 801.182159 133.576359 
L 808.49869 132.926697 
L 811.159247 132.371822 
L 818.475778 130.62442 
L 820.471196 130.439295 
L 823.131752 130.444989 
L 831.113423 130.729085 
L 833.77398 130.503744 
L 835.769397 130.088263 
L 837.099676 129.618297 
L 838.429954 128.930153 
L 839.760232 127.968771 
L 841.090511 126.693368 
L 842.420789 125.092708 
L 844.416207 122.159908 
L 849.73732 113.69659 
L 851.067599 112.072576 
L 852.397877 110.776338 
L 853.728156 109.791504 
L 855.058434 109.063244 
L 857.053852 108.283596 
L 863.040104 106.246382 
L 868.361218 104.254286 
L 871.021775 103.585121 
L 873.682332 103.194365 
L 877.008028 102.973835 
L 882.99428 102.868571 
L 896.297065 102.684691 
L 898.292482 102.404817 
L 899.622761 102.032688 
L 900.953039 101.41706 
L 902.283317 100.452884 
L 903.613596 99.024675 
L 904.943874 97.020026 
L 906.274153 94.353656 
L 907.604431 90.992502 
L 908.934709 86.973625 
L 910.930127 79.997294 
L 914.920962 65.43669 
L 916.251241 61.273319 
L 917.581519 57.699984 
L 918.911797 54.727472 
L 920.242076 52.291588 
L 921.572354 50.294691 
L 922.902633 48.652807 
L 924.232911 47.327669 
L 925.563189 46.333627 
L 926.893468 45.714074 
L 928.223746 45.509264 
L 929.554025 45.728015 
L 930.884303 46.342139 
L 932.214581 47.306043 
L 933.54486 48.590228 
L 934.875138 50.213166 
L 936.205417 52.253143 
L 937.535695 54.833807 
L 938.865973 58.085469 
L 940.196252 62.094326 
L 941.52653 66.859514 
L 943.521948 75.137881 
L 946.847644 89.639503 
L 948.177922 94.716392 
L 949.508201 98.977073 
L 950.838479 102.300548 
L 952.168757 104.692786 
L 952.833897 105.570714 
L 953.499036 106.263079 
L 954.829314 107.184443 
L 956.159593 107.642766 
L 957.489871 107.796347 
L 958.820149 107.754297 
L 960.815567 107.442769 
L 962.810985 106.880348 
L 964.806402 106.100652 
L 970.127516 103.794787 
L 972.122934 103.264988 
L 973.453212 103.133231 
L 974.78349 103.24774 
L 976.113769 103.692218 
L 977.444047 104.576984 
L 978.109186 105.224109 
L 979.439465 107.007141 
L 980.769743 109.530245 
L 982.100022 112.855789 
L 983.4303 116.972518 
L 984.760578 121.782351 
L 986.755996 129.882126 
L 990.081692 143.521624 
L 991.41197 148.200737 
L 992.742249 152.077066 
L 994.072527 155.000905 
L 994.737666 156.083498 
L 995.402806 156.913811 
L 996.067945 157.500027 
L 996.733084 157.856121 
L 997.398223 158.001152 
L 998.063362 157.958262 
L 998.728502 157.753518 
L 1000.05878 156.970024 
L 1002.054198 155.264161 
L 1004.714754 152.88882 
L 1006.710172 151.459112 
L 1008.04045 150.749894 
L 1009.370729 150.249821 
L 1010.701007 149.955794 
L 1012.031286 149.852528 
L 1014.026703 149.985903 
L 1020.678095 150.915477 
L 1020.678095 150.915477 
" clip-path="url(#p6c3aa3865b)" style="fill: none; stroke: #0000ff; stroke-width: 1.5; stroke-linecap: square"/>
   </g>
   <g id="line2d_15">
    <path d="M 50.24 151.841297 
L 52.235418 151.967207 
L 54.230835 152.302714 
L 56.226253 152.895077 
L 58.22167 153.79347 
L 60.217088 155.002193 
L 66.203341 159.118789 
L 67.533619 159.699526 
L 68.863898 160.034272 
L 70.194176 160.103284 
L 71.524454 159.909196 
L 72.854733 159.471554 
L 74.185011 158.820153 
L 76.180429 157.517273 
L 78.175846 155.926893 
L 81.501542 152.937398 
L 85.492378 149.368234 
L 88.152934 147.290416 
L 90.813491 145.552262 
L 93.474048 144.136021 
L 96.134605 142.967532 
L 100.12544 141.479459 
L 120.079616 134.584119 
L 124.070451 133.596728 
L 129.391565 132.552374 
L 136.042957 131.209878 
L 139.368653 130.334317 
L 142.02921 129.412939 
L 144.024627 128.488914 
L 146.020045 127.242267 
L 147.350323 126.165337 
L 148.680602 124.848904 
L 150.01088 123.270828 
L 152.006298 120.423668 
L 154.001715 117.129386 
L 157.992551 110.373085 
L 159.987968 107.564755 
L 161.318247 106.054251 
L 162.648525 104.851975 
L 163.978803 103.94115 
L 165.309082 103.283907 
L 166.63936 102.830341 
L 168.634778 102.414832 
L 176.616448 101.231723 
L 178.611866 100.566741 
L 180.607284 99.604452 
L 181.937562 98.757748 
L 183.26784 97.71253 
L 184.598119 96.431949 
L 185.928397 94.872637 
L 187.258676 92.989323 
L 188.588954 90.745943 
L 189.919232 88.133671 
L 191.91465 83.630892 
L 195.240346 75.87663 
L 196.570624 73.423129 
L 197.235764 72.477195 
L 197.900903 71.758926 
L 198.566042 71.291563 
L 199.231181 71.090952 
L 199.89632 71.164582 
L 200.56146 71.510909 
L 201.226599 72.119243 
L 201.891738 72.97006 
L 203.222016 75.281714 
L 205.217434 79.681609 
L 207.212852 84.116158 
L 208.54313 86.530511 
L 209.208269 87.479608 
L 209.873408 88.230139 
L 210.538548 88.772063 
L 211.203687 89.103473 
L 211.868826 89.230448 
L 212.533965 89.16661 
L 213.199104 88.932391 
L 214.529383 88.06239 
L 218.520218 84.67481 
L 219.185357 84.335164 
L 219.850496 84.122679 
L 220.515636 84.048905 
L 221.180775 84.119503 
L 221.845914 84.334651 
L 222.511053 84.689595 
L 223.841332 85.78017 
L 225.17161 87.288683 
L 227.167028 90.075055 
L 229.827584 94.268191 
L 234.483559 102.065136 
L 244.460647 119.162997 
L 246.456064 121.805391 
L 247.786343 123.215301 
L 249.116621 124.301142 
L 250.4469 125.050067 
L 251.777178 125.475896 
L 253.107457 125.620843 
L 254.437735 125.55377 
L 258.42857 125.053462 
L 259.758849 125.145859 
L 261.089127 125.525594 
L 262.419405 126.24843 
L 263.749684 127.329327 
L 265.079962 128.73786 
L 267.07538 131.29647 
L 271.066215 136.639774 
L 272.396493 138.112393 
L 273.726772 139.333386 
L 275.05705 140.296553 
L 276.387329 141.023819 
L 277.717607 141.554702 
L 279.713025 142.083612 
L 282.373581 142.501353 
L 287.029556 142.943575 
L 291.020391 143.137517 
L 293.680948 143.081227 
L 296.341505 142.795048 
L 299.002061 142.250581 
L 302.327757 141.284654 
L 306.318593 140.09894 
L 308.31401 139.73214 
L 309.644289 139.654474 
L 310.974567 139.749897 
L 312.304845 140.043752 
L 313.635124 140.549137 
L 314.965402 141.264156 
L 316.96082 142.68796 
L 318.956237 144.429938 
L 326.937908 151.874771 
L 329.598465 153.908936 
L 332.259022 155.647837 
L 334.254439 156.73893 
L 336.249857 157.570107 
L 337.580135 157.908802 
L 338.910414 158.003343 
L 340.240692 157.781055 
L 341.57097 157.170024 
L 342.901249 156.112866 
L 344.231527 154.581824 
L 345.561806 152.591488 
L 346.892084 150.205195 
L 348.887502 146.131803 
L 352.213198 139.256485 
L 353.543476 136.873515 
L 354.873754 134.82779 
L 356.204033 133.140373 
L 357.534311 131.791102 
L 358.86459 130.731638 
L 360.194868 129.900585 
L 362.190286 128.950058 
L 364.850842 127.98218 
L 368.841678 126.577275 
L 370.837095 125.591963 
L 372.167374 124.706859 
L 373.497652 123.577322 
L 374.82793 122.168153 
L 376.158209 120.472765 
L 378.153626 117.469308 
L 383.47474 108.932859 
L 384.805018 107.241485 
L 386.135297 105.859803 
L 387.465575 104.792297 
L 388.795854 104.011494 
L 390.126132 103.467584 
L 392.12155 102.959127 
L 396.777524 102.039895 
L 398.107802 101.531395 
L 399.438081 100.771385 
L 400.768359 99.679338 
L 402.098638 98.187221 
L 403.428916 96.256706 
L 404.759194 93.898025 
L 406.754612 89.735492 
L 410.080308 82.523275 
L 411.410587 80.111251 
L 412.740865 78.169167 
L 414.071143 76.696535 
L 415.401422 75.577799 
L 418.061979 73.543859 
L 419.392257 72.176463 
L 420.722535 70.387617 
L 422.052814 68.188175 
L 426.043649 60.910885 
L 427.373927 59.072452 
L 428.039067 58.376207 
L 428.704206 57.844658 
L 429.369345 57.481969 
L 430.034484 57.286387 
L 430.699623 57.250999 
L 431.364763 57.364709 
L 432.029902 57.613296 
L 433.36018 58.449169 
L 434.690459 59.62197 
L 436.685876 61.738157 
L 441.341851 66.861375 
L 443.337268 68.761094 
L 445.332686 70.406066 
L 451.984078 75.510889 
L 453.314356 76.985727 
L 454.644635 78.792239 
L 455.974913 80.978666 
L 457.305191 83.562827 
L 459.300609 88.134567 
L 461.961166 95.131642 
L 464.621723 102.216297 
L 465.952001 105.397563 
L 467.282279 108.136352 
L 468.612558 110.314713 
L 469.942836 111.857006 
L 470.607975 112.379461 
L 471.273115 112.737133 
L 471.938254 112.934675 
L 472.603393 112.979637 
L 473.268532 112.882205 
L 474.598811 112.311888 
L 475.929089 111.343471 
L 477.924507 109.442595 
L 481.250203 106.175034 
L 482.580481 105.151118 
L 483.910759 104.411315 
L 485.241038 104.017274 
L 486.571316 104.021865 
L 487.236455 104.188312 
L 488.566734 104.874478 
L 489.897012 106.056097 
L 491.227291 107.746441 
L 492.557569 109.934274 
L 493.887848 112.579339 
L 495.883265 117.245746 
L 498.543822 124.244621 
L 501.869518 133.041243 
L 503.864936 137.851418 
L 505.860353 142.145758 
L 507.855771 145.921525 
L 509.851188 149.257142 
L 512.511745 153.217227 
L 515.172302 156.794484 
L 517.16772 159.199522 
L 519.163137 161.21074 
L 520.493416 162.229482 
L 521.823694 162.919318 
L 523.153972 163.2369 
L 524.484251 163.166445 
L 525.814529 162.725896 
L 527.144808 161.967176 
L 529.140225 160.413055 
L 533.13106 157.026651 
L 534.461339 156.125238 
L 535.791617 155.419271 
L 537.121896 154.918978 
L 538.452174 154.613296 
L 540.447592 154.461661 
L 542.443009 154.578581 
L 545.103566 154.974275 
L 552.420097 156.432593 
L 556.410932 157.115916 
L 559.071489 157.399925 
L 561.732046 157.457298 
L 564.392603 157.234626 
L 567.05316 156.73169 
L 569.713717 156.001521 
L 573.704552 154.645288 
L 581.021083 151.849851 
L 594.323867 146.482654 
L 610.287208 139.863251 
L 615.608321 137.403783 
L 618.934017 135.618301 
L 621.594574 133.900752 
L 623.589992 132.357543 
L 625.585409 130.539635 
L 627.580827 128.418591 
L 629.576245 125.998803 
L 632.236801 122.388539 
L 638.888193 112.981459 
L 640.883611 110.583664 
L 642.879029 108.560337 
L 644.874446 106.937799 
L 646.869864 105.689372 
L 648.865282 104.74752 
L 651.525838 103.806467 
L 656.181813 102.302066 
L 658.17723 101.419243 
L 660.172648 100.24529 
L 662.168066 98.713398 
L 664.163483 96.800424 
L 666.158901 94.524991 
L 668.154318 91.929854 
L 670.814875 88.041644 
L 673.475432 83.693951 
L 676.135989 78.848312 
L 678.796546 73.448228 
L 681.457102 67.50144 
L 685.447938 57.871056 
L 688.773634 49.885135 
L 690.769051 45.596809 
L 692.09933 43.167257 
L 693.429608 41.23451 
L 694.094747 40.49791 
L 694.759886 39.936993 
L 695.425026 39.567163 
L 696.090165 39.401853 
L 696.755304 39.451861 
L 697.420443 39.724677 
L 698.085582 40.223963 
L 698.750722 40.949092 
L 699.415861 41.894832 
L 700.746139 44.40377 
L 702.076418 47.617628 
L 704.071835 53.326101 
L 708.06267 65.112833 
L 709.392949 68.472953 
L 710.723227 71.405095 
L 712.053506 73.931416 
L 714.048923 77.148049 
L 718.704898 84.112618 
L 720.700315 87.626502 
L 722.695733 91.576006 
L 726.021429 98.741761 
L 730.012264 107.27814 
L 732.672821 112.503025 
L 735.333378 117.224492 
L 737.328795 120.390959 
L 739.324213 123.197682 
L 741.319631 125.617303 
L 743.315048 127.646488 
L 745.310466 129.315151 
L 747.305883 130.681661 
L 749.96644 132.154979 
L 752.626997 133.357654 
L 755.952693 134.582267 
L 758.61325 135.326012 
L 761.273807 135.805028 
L 763.269224 135.967267 
L 765.929781 135.929382 
L 768.590338 135.660102 
L 773.246312 134.910083 
L 779.232565 133.970614 
L 784.553679 133.397292 
L 803.842715 131.599963 
L 825.792309 129.094443 
L 829.783144 128.461626 
L 832.443701 127.781712 
L 834.439119 127.028411 
L 836.434536 125.988944 
L 838.429954 124.610684 
L 840.425372 122.87667 
L 842.420789 120.818746 
L 845.081346 117.722902 
L 849.73732 112.258295 
L 851.732738 110.262071 
L 853.728156 108.595733 
L 855.723573 107.259928 
L 857.718991 106.203146 
L 860.379548 105.099383 
L 863.705244 104.006274 
L 867.03094 103.117695 
L 870.356636 102.442977 
L 873.682332 102.01257 
L 877.008028 101.806185 
L 881.664002 101.767223 
L 892.306229 101.798127 
L 894.301647 101.542151 
L 895.631925 101.204205 
L 896.962204 100.664405 
L 898.292482 99.852737 
L 899.622761 98.694388 
L 900.953039 97.118056 
L 902.283317 95.066462 
L 903.613596 92.507493 
L 904.943874 89.443797 
L 906.274153 85.918575 
L 908.26957 79.958331 
L 913.590684 63.281995 
L 915.586101 57.974023 
L 916.91638 54.946387 
L 918.246658 52.359929 
L 919.576937 50.218482 
L 920.907215 48.513949 
L 922.237493 47.233423 
L 923.567772 46.363893 
L 924.89805 45.894639 
L 926.228329 45.818276 
L 927.558607 46.131748 
L 928.888885 46.837901 
L 930.219164 47.947271 
L 931.549442 49.478957 
L 932.879721 51.45874 
L 934.209999 53.913398 
L 935.540277 56.861168 
L 936.870556 60.299927 
L 938.865973 66.294199 
L 941.52653 75.35947 
L 944.852226 86.745649 
L 946.847644 92.629572 
L 948.177922 95.896744 
L 949.508201 98.567356 
L 950.838479 100.632826 
L 952.168757 102.126381 
L 953.499036 103.112844 
L 954.829314 103.676118 
L 956.159593 103.90679 
L 957.489871 103.892018 
L 959.485289 103.57478 
L 966.80182 101.994583 
L 968.132098 101.986267 
L 969.462377 102.178928 
L 970.792655 102.632267 
L 972.122934 103.410332 
L 973.453212 104.576946 
L 974.78349 106.189225 
L 976.113769 108.289753 
L 977.444047 110.898076 
L 978.774326 114.002955 
L 980.769743 119.477352 
L 983.4303 127.76914 
L 986.755996 138.119073 
L 988.751414 143.435014 
L 990.081692 146.370149 
L 991.41197 148.745728 
L 992.742249 150.543604 
L 994.072527 151.78298 
L 995.402806 152.515202 
L 996.733084 152.815903 
L 998.063362 152.775426 
L 999.393641 152.488837 
L 1001.389058 151.792442 
L 1006.045033 150.046082 
L 1008.70559 149.367246 
L 1011.366146 148.944307 
L 1014.691842 148.650364 
L 1019.347817 148.472045 
L 1020.678095 148.4593 
L 1020.678095 148.4593 
" clip-path="url(#p6c3aa3865b)" style="fill: none; stroke: #ff0000; stroke-width: 1.5; stroke-linecap: square"/>
   </g>
   <g id="line2d_16">
    <path d="M 535.791617 170.44 
L 535.791617 29.76 
" clip-path="url(#p6c3aa3865b)" style="fill: none; stroke: #1f77b4; stroke-width: 1.5; stroke-linecap: square"/>
   </g>
   <g id="patch_3">
    <path d="M 50.24 170.44 
L 50.24 29.76 
" style="fill: none; stroke: #000000; stroke-width: 0.8; stroke-linejoin: miter; stroke-linecap: square"/>
   </g>
   <g id="patch_4">
    <path d="M 1069.2 170.44 
L 1069.2 29.76 
" style="fill: none; stroke: #000000; stroke-width: 0.8; stroke-linejoin: miter; stroke-linecap: square"/>
   </g>
   <g id="patch_5">
    <path d="M 50.24 170.44 
L 1069.2 170.44 
" style="fill: none; stroke: #000000; stroke-width: 0.8; stroke-linejoin: miter; stroke-linecap: square"/>
   </g>
   <g id="patch_6">
    <path d="M 50.24 29.76 
L 1069.2 29.76 
" style="fill: none; stroke: #000000; stroke-width: 0.8; stroke-linejoin: miter; stroke-linecap: square"/>
   </g>
   <g id="text_16">
    <!-- Heat Conduction Equation Solution at x=0.1M -->
    <g transform="translate(375.485 23.76) scale(0.16 -0.16)">
     <defs>
      <path id="DejaVuSans-48" d="M 628 4666 
L 1259 4666 
L 1259 2753 
L 3553 2753 
L 3553 4666 
L 4184 4666 
L 4184 0 
L 3553 0 
L 3553 2222 
L 1259 2222 
L 1259 0 
L 628 0 
L 628 4666 
z
" transform="scale(0.015625)"/>
      <path id="DejaVuSans-43" d="M 4122 4306 
L 4122 3641 
Q 3803 3938 3442 4084 
Q 3081 4231 2675 4231 
Q 1875 4231 1450 3742 
Q 1025 3253 1025 2328 
Q 1025 1406 1450 917 
Q 1875 428 2675 428 
Q 3081 428 3442 575 
Q 3803 722 4122 1019 
L 4122 359 
Q 3791 134 3420 21 
Q 3050 -91 2638 -91 
Q 1578 -91 968 557 
Q 359 1206 359 2328 
Q 359 3453 968 4101 
Q 1578 4750 2638 4750 
Q 3056 4750 3426 4639 
Q 3797 4528 4122 4306 
z
" transform="scale(0.015625)"/>
      <path id="DejaVuSans-64" d="M 2906 2969 
L 2906 4863 
L 3481 4863 
L 3481 0 
L 2906 0 
L 2906 525 
Q 2725 213 2448 61 
Q 2172 -91 1784 -91 
Q 1150 -91 751 415 
Q 353 922 353 1747 
Q 353 2572 751 3078 
Q 1150 3584 1784 3584 
Q 2172 3584 2448 3432 
Q 2725 3281 2906 2969 
z
M 947 1747 
Q 947 1113 1208 752 
Q 1469 391 1925 391 
Q 2381 391 2643 752 
Q 2906 1113 2906 1747 
Q 2906 2381 2643 2742 
Q 2381 3103 1925 3103 
Q 1469 3103 1208 2742 
Q 947 2381 947 1747 
z
" transform="scale(0.015625)"/>
      <path id="DejaVuSans-63" d="M 3122 3366 
L 3122 2828 
Q 2878 2963 2633 3030 
Q 2388 3097 2138 3097 
Q 1578 3097 1268 2742 
Q 959 2388 959 1747 
Q 959 1106 1268 751 
Q 1578 397 2138 397 
Q 2388 397 2633 464 
Q 2878 531 3122 666 
L 3122 134 
Q 2881 22 2623 -34 
Q 2366 -91 2075 -91 
Q 1284 -91 818 406 
Q 353 903 353 1747 
Q 353 2603 823 3093 
Q 1294 3584 2113 3584 
Q 2378 3584 2631 3529 
Q 2884 3475 3122 3366 
z
" transform="scale(0.015625)"/>
      <path id="DejaVuSans-45" d="M 628 4666 
L 3578 4666 
L 3578 4134 
L 1259 4134 
L 1259 2753 
L 3481 2753 
L 3481 2222 
L 1259 2222 
L 1259 531 
L 3634 531 
L 3634 0 
L 628 0 
L 628 4666 
z
" transform="scale(0.015625)"/>
      <path id="DejaVuSans-71" d="M 947 1747 
Q 947 1113 1208 752 
Q 1469 391 1925 391 
Q 2381 391 2643 752 
Q 2906 1113 2906 1747 
Q 2906 2381 2643 2742 
Q 2381 3103 1925 3103 
Q 1469 3103 1208 2742 
Q 947 2381 947 1747 
z
M 2906 525 
Q 2725 213 2448 61 
Q 2172 -91 1784 -91 
Q 1150 -91 751 415 
Q 353 922 353 1747 
Q 353 2572 751 3078 
Q 1150 3584 1784 3584 
Q 2172 3584 2448 3432 
Q 2725 3281 2906 2969 
L 2906 3500 
L 3481 3500 
L 3481 -1331 
L 2906 -1331 
L 2906 525 
z
" transform="scale(0.015625)"/>
      <path id="DejaVuSans-78" d="M 3513 3500 
L 2247 1797 
L 3578 0 
L 2900 0 
L 1881 1375 
L 863 0 
L 184 0 
L 1544 1831 
L 300 3500 
L 978 3500 
L 1906 2253 
L 2834 3500 
L 3513 3500 
z
" transform="scale(0.015625)"/>
      <path id="DejaVuSans-3d" d="M 678 2906 
L 4684 2906 
L 4684 2381 
L 678 2381 
L 678 2906 
z
M 678 1631 
L 4684 1631 
L 4684 1100 
L 678 1100 
L 678 1631 
z
" transform="scale(0.015625)"/>
      <path id="DejaVuSans-2e" d="M 684 794 
L 1344 794 
L 1344 0 
L 684 0 
L 684 794 
z
" transform="scale(0.015625)"/>
      <path id="DejaVuSans-4d" d="M 628 4666 
L 1569 4666 
L 2759 1491 
L 3956 4666 
L 4897 4666 
L 4897 0 
L 4281 0 
L 4281 4097 
L 3078 897 
L 2444 897 
L 1241 4097 
L 1241 0 
L 628 0 
L 628 4666 
z
" transform="scale(0.015625)"/>
     </defs>
     <use xlink:href="#DejaVuSans-48"/>
     <use xlink:href="#DejaVuSans-65" transform="translate(75.195312 0)"/>
     <use xlink:href="#DejaVuSans-61" transform="translate(136.71875 0)"/>
     <use xlink:href="#DejaVuSans-74" transform="translate(197.998047 0)"/>
     <use xlink:href="#DejaVuSans-20" transform="translate(237.207031 0)"/>
     <use xlink:href="#DejaVuSans-43" transform="translate(268.994141 0)"/>
     <use xlink:href="#DejaVuSans-6f" transform="translate(338.818359 0)"/>
     <use xlink:href="#DejaVuSans-6e" transform="translate(400 0)"/>
     <use xlink:href="#DejaVuSans-64" transform="translate(463.378906 0)"/>
     <use xlink:href="#DejaVuSans-75" transform="translate(526.855469 0)"/>
     <use xlink:href="#DejaVuSans-63" transform="translate(590.234375 0)"/>
     <use xlink:href="#DejaVuSans-74" transform="translate(645.214844 0)"/>
     <use xlink:href="#DejaVuSans-69" transform="translate(684.423828 0)"/>
     <use xlink:href="#DejaVuSans-6f" transform="translate(712.207031 0)"/>
     <use xlink:href="#DejaVuSans-6e" transform="translate(773.388672 0)"/>
     <use xlink:href="#DejaVuSans-20" transform="translate(836.767578 0)"/>
     <use xlink:href="#DejaVuSans-45" transform="translate(868.554688 0)"/>
     <use xlink:href="#DejaVuSans-71" transform="translate(931.738281 0)"/>
     <use xlink:href="#DejaVuSans-75" transform="translate(995.214844 0)"/>
     <use xlink:href="#DejaVuSans-61" transform="translate(1058.59375 0)"/>
     <use xlink:href="#DejaVuSans-74" transform="translate(1119.873047 0)"/>
     <use xlink:href="#DejaVuSans-69" transform="translate(1159.082031 0)"/>
     <use xlink:href="#DejaVuSans-6f" transform="translate(1186.865234 0)"/>
     <use xlink:href="#DejaVuSans-6e" transform="translate(1248.046875 0)"/>
     <use xlink:href="#DejaVuSans-20" transform="translate(1311.425781 0)"/>
     <use xlink:href="#DejaVuSans-53" transform="translate(1343.212891 0)"/>
     <use xlink:href="#DejaVuSans-6f" transform="translate(1406.689453 0)"/>
     <use xlink:href="#DejaVuSans-6c" transform="translate(1467.871094 0)"/>
     <use xlink:href="#DejaVuSans-75" transform="translate(1495.654297 0)"/>
     <use xlink:href="#DejaVuSans-74" transform="translate(1559.033203 0)"/>
     <use xlink:href="#DejaVuSans-69" transform="translate(1598.242188 0)"/>
     <use xlink:href="#DejaVuSans-6f" transform="translate(1626.025391 0)"/>
     <use xlink:href="#DejaVuSans-6e" transform="translate(1687.207031 0)"/>
     <use xlink:href="#DejaVuSans-20" transform="translate(1750.585938 0)"/>
     <use xlink:href="#DejaVuSans-61" transform="translate(1782.373047 0)"/>
     <use xlink:href="#DejaVuSans-74" transform="translate(1843.652344 0)"/>
     <use xlink:href="#DejaVuSans-20" transform="translate(1882.861328 0)"/>
     <use xlink:href="#DejaVuSans-78" transform="translate(1914.648438 0)"/>
     <use xlink:href="#DejaVuSans-3d" transform="translate(1973.828125 0)"/>
     <use xlink:href="#DejaVuSans-30" transform="translate(2057.617188 0)"/>
     <use xlink:href="#DejaVuSans-2e" transform="translate(2121.240234 0)"/>
     <use xlink:href="#DejaVuSans-31" transform="translate(2153.027344 0)"/>
     <use xlink:href="#DejaVuSans-4d" transform="translate(2216.650391 0)"/>
    </g>
   </g>
   <g id="legend_1">
    <g id="patch_7">
     <path d="M 949.325625 74.5875 
L 1060.8 74.5875 
Q 1063.2 74.5875 1063.2 72.1875 
L 1063.2 38.16 
Q 1063.2 35.76 1060.8 35.76 
L 949.325625 35.76 
Q 946.925625 35.76 946.925625 38.16 
L 946.925625 72.1875 
Q 946.925625 74.5875 949.325625 74.5875 
z
" style="fill: #ffffff; opacity: 0.8; stroke: #cccccc; stroke-linejoin: miter"/>
    </g>
    <g id="line2d_17">
     <path d="M 951.725625 45.478125 
L 963.725625 45.478125 
L 975.725625 45.478125 
" style="fill: none; stroke: #0000ff; stroke-width: 1.5; stroke-linecap: square"/>
    </g>
    <g id="text_17">
     <!-- Observation -->
     <g transform="translate(985.325625 49.678125) scale(0.12 -0.12)">
      <defs>
       <path id="DejaVuSans-4f" d="M 2522 4238 
Q 1834 4238 1429 3725 
Q 1025 3213 1025 2328 
Q 1025 1447 1429 934 
Q 1834 422 2522 422 
Q 3209 422 3611 934 
Q 4013 1447 4013 2328 
Q 4013 3213 3611 3725 
Q 3209 4238 2522 4238 
z
M 2522 4750 
Q 3503 4750 4090 4092 
Q 4678 3434 4678 2328 
Q 4678 1225 4090 567 
Q 3503 -91 2522 -91 
Q 1538 -91 948 565 
Q 359 1222 359 2328 
Q 359 3434 948 4092 
Q 1538 4750 2522 4750 
z
" transform="scale(0.015625)"/>
       <path id="DejaVuSans-62" d="M 3116 1747 
Q 3116 2381 2855 2742 
Q 2594 3103 2138 3103 
Q 1681 3103 1420 2742 
Q 1159 2381 1159 1747 
Q 1159 1113 1420 752 
Q 1681 391 2138 391 
Q 2594 391 2855 752 
Q 3116 1113 3116 1747 
z
M 1159 2969 
Q 1341 3281 1617 3432 
Q 1894 3584 2278 3584 
Q 2916 3584 3314 3078 
Q 3713 2572 3713 1747 
Q 3713 922 3314 415 
Q 2916 -91 2278 -91 
Q 1894 -91 1617 61 
Q 1341 213 1159 525 
L 1159 0 
L 581 0 
L 581 4863 
L 1159 4863 
L 1159 2969 
z
" transform="scale(0.015625)"/>
       <path id="DejaVuSans-76" d="M 191 3500 
L 800 3500 
L 1894 563 
L 2988 3500 
L 3597 3500 
L 2284 0 
L 1503 0 
L 191 3500 
z
" transform="scale(0.015625)"/>
      </defs>
      <use xlink:href="#DejaVuSans-4f"/>
      <use xlink:href="#DejaVuSans-62" transform="translate(78.710938 0)"/>
      <use xlink:href="#DejaVuSans-73" transform="translate(142.1875 0)"/>
      <use xlink:href="#DejaVuSans-65" transform="translate(194.287109 0)"/>
      <use xlink:href="#DejaVuSans-72" transform="translate(255.810547 0)"/>
      <use xlink:href="#DejaVuSans-76" transform="translate(296.923828 0)"/>
      <use xlink:href="#DejaVuSans-61" transform="translate(356.103516 0)"/>
      <use xlink:href="#DejaVuSans-74" transform="translate(417.382812 0)"/>
      <use xlink:href="#DejaVuSans-69" transform="translate(456.591797 0)"/>
      <use xlink:href="#DejaVuSans-6f" transform="translate(484.375 0)"/>
      <use xlink:href="#DejaVuSans-6e" transform="translate(545.556641 0)"/>
     </g>
    </g>
    <g id="line2d_18">
     <path d="M 951.725625 63.091875 
L 963.725625 63.091875 
L 975.725625 63.091875 
" style="fill: none; stroke: #ff0000; stroke-width: 1.5; stroke-linecap: square"/>
    </g>
    <g id="text_18">
     <!-- Predicted -->
     <g transform="translate(985.325625 67.291875) scale(0.12 -0.12)">
      <defs>
       <path id="DejaVuSans-50" d="M 1259 4147 
L 1259 2394 
L 2053 2394 
Q 2494 2394 2734 2622 
Q 2975 2850 2975 3272 
Q 2975 3691 2734 3919 
Q 2494 4147 2053 4147 
L 1259 4147 
z
M 628 4666 
L 2053 4666 
Q 2838 4666 3239 4311 
Q 3641 3956 3641 3272 
Q 3641 2581 3239 2228 
Q 2838 1875 2053 1875 
L 1259 1875 
L 1259 0 
L 628 0 
L 628 4666 
z
" transform="scale(0.015625)"/>
      </defs>
      <use xlink:href="#DejaVuSans-50"/>
      <use xlink:href="#DejaVuSans-72" transform="translate(58.552734 0)"/>
      <use xlink:href="#DejaVuSans-65" transform="translate(97.416016 0)"/>
      <use xlink:href="#DejaVuSans-64" transform="translate(158.939453 0)"/>
      <use xlink:href="#DejaVuSans-69" transform="translate(222.416016 0)"/>
      <use xlink:href="#DejaVuSans-63" transform="translate(250.199219 0)"/>
      <use xlink:href="#DejaVuSans-74" transform="translate(305.179688 0)"/>
      <use xlink:href="#DejaVuSans-65" transform="translate(344.388672 0)"/>
      <use xlink:href="#DejaVuSans-64" transform="translate(405.912109 0)"/>
     </g>
    </g>
   </g>
  </g>
 </g>
 <defs>
  <clipPath id="p6c3aa3865b">
   <rect x="50.24" y="29.76" width="1018.96" height="140.68"/>
  </clipPath>
 </defs>
</svg>
