<?xml version="1.0" encoding="utf-8" standalone="no"?>
<!DOCTYPE svg PUBLIC "-//W3C//DTD SVG 1.1//EN"
  "http://www.w3.org/Graphics/SVG/1.1/DTD/svg11.dtd">
<svg xmlns:xlink="http://www.w3.org/1999/xlink" width="1080pt" height="216pt" viewBox="0 0 1080 216" xmlns="http://www.w3.org/2000/svg" version="1.1">
 <metadata>
  <rdf:RDF xmlns:dc="http://purl.org/dc/elements/1.1/" xmlns:cc="http://creativecommons.org/ns#" xmlns:rdf="http://www.w3.org/1999/02/22-rdf-syntax-ns#">
   <cc:Work>
    <dc:type rdf:resource="http://purl.org/dc/dcmitype/StillImage"/>
    <dc:date>2026-02-09T09:40:51.537715</dc:date>
    <dc:format>image/svg+xml</dc:format>
    <dc:creator>
     <cc:Agent>
      <dc:title>Matplotlib v3.10.8, https://matplotlib.org/</dc:title>
     </cc:Agent>
    </dc:creator>
   </cc:Work>
  </rdf:RDF>
 </metadata>
 <defs>
  <style type="text/css">*{stroke-linejoin: round; stroke-linecap: butt}</style>
 </defs>
 <g id="figure_1">
  <g id="patch_1">
   <path d="M 0 216 
L 1080 216 
L 1080 0 
L 0 0 
z
" style="fill: #ffffff"/>
  </g>
  <g id="axes_1">
   <g id="patch_2">
    <path d="M 50.24 170.44 
L 1069.2 170.44 
L 1069.2 29.76 
L 50.24 29.76 
z
" style="fill: #ffffff"/>
   </g>
   <g id="matplotlib.axis_1">
    <g id="xtick_1">
     <g id="line2d_1">
      <defs>
       <path id="mb99bd68724" d="M 0 0 
L 0 3.5 
" style="stroke: #000000; stroke-width: 0.8"/>
      </defs>
      <g>
       <use xlink:href="#mb99bd68724" x="50.24" y="170.44" style="stroke: #000000; stroke-width: 0.8"/>
      </g>
     </g>
     <g id="text_1">
      <!-- 0 -->
      <g transform="translate(47.05875 185.038437) scale(0.1 -0.1)">
       <defs>
        <path id="DejaVuSans-30" d="M 2034 4250 
Q 1547 4250 1301 3770 
Q 1056 3291 1056 2328 
Q 1056 1369 1301 889 
Q 1547 409 2034 409 
Q 2525 409 2770 889 
Q 3016 1369 3016 2328 
Q 3016 3291 2770 3770 
Q 2525 4250 2034 4250 
z
M 2034 4750 
Q 2819 4750 3233 4129 
Q 3647 3509 3647 2328 
Q 3647 1150 3233 529 
Q 2819 -91 2034 -91 
Q 1250 -91 836 529 
Q 422 1150 422 2328 
Q 422 3509 836 4129 
Q 1250 4750 2034 4750 
z
" transform="scale(0.015625)"/>
       </defs>
       <use xlink:href="#DejaVuSans-30"/>
      </g>
     </g>
    </g>
    <g id="xtick_2">
     <g id="line2d_2">
      <g>
       <use xlink:href="#mb99bd68724" x="183.26784" y="170.44" style="stroke: #000000; stroke-width: 0.8"/>
      </g>
     </g>
     <g id="text_2">
      <!-- 200 -->
      <g transform="translate(173.72409 185.038437) scale(0.1 -0.1)">
       <defs>
        <path id="DejaVuSans-32" d="M 1228 531 
L 3431 531 
L 3431 0 
L 469 0 
L 469 531 
Q 828 903 1448 1529 
Q 2069 2156 2228 2338 
Q 2531 2678 2651 2914 
Q 2772 3150 2772 3378 
Q 2772 3750 2511 3984 
Q 2250 4219 1831 4219 
Q 1534 4219 1204 4116 
Q 875 4013 500 3803 
L 500 4441 
Q 881 4594 1212 4672 
Q 1544 4750 1819 4750 
Q 2544 4750 2975 4387 
Q 3406 4025 3406 3419 
Q 3406 3131 3298 2873 
Q 3191 2616 2906 2266 
Q 2828 2175 2409 1742 
Q 1991 1309 1228 531 
z
" transform="scale(0.015625)"/>
       </defs>
       <use xlink:href="#DejaVuSans-32"/>
       <use xlink:href="#DejaVuSans-30" transform="translate(63.623047 0)"/>
       <use xlink:href="#DejaVuSans-30" transform="translate(127.246094 0)"/>
      </g>
     </g>
    </g>
    <g id="xtick_3">
     <g id="line2d_3">
      <g>
       <use xlink:href="#mb99bd68724" x="316.295681" y="170.44" style="stroke: #000000; stroke-width: 0.8"/>
      </g>
     </g>
     <g id="text_3">
      <!-- 400 -->
      <g transform="translate(306.751931 185.038437) scale(0.1 -0.1)">
       <defs>
        <path id="DejaVuSans-34" d="M 2419 4116 
L 825 1625 
L 2419 1625 
L 2419 4116 
z
M 2253 4666 
L 3047 4666 
L 3047 1625 
L 3713 1625 
L 3713 1100 
L 3047 1100 
L 3047 0 
L 2419 0 
L 2419 1100 
L 313 1100 
L 313 1709 
L 2253 4666 
z
" transform="scale(0.015625)"/>
       </defs>
       <use xlink:href="#DejaVuSans-34"/>
       <use xlink:href="#DejaVuSans-30" transform="translate(63.623047 0)"/>
       <use xlink:href="#DejaVuSans-30" transform="translate(127.246094 0)"/>
      </g>
     </g>
    </g>
    <g id="xtick_4">
     <g id="line2d_4">
      <g>
       <use xlink:href="#mb99bd68724" x="449.323521" y="170.44" style="stroke: #000000; stroke-width: 0.8"/>
      </g>
     </g>
     <g id="text_4">
      <!-- 600 -->
      <g transform="translate(439.779771 185.038437) scale(0.1 -0.1)">
       <defs>
        <path id="DejaVuSans-36" d="M 2113 2584 
Q 1688 2584 1439 2293 
Q 1191 2003 1191 1497 
Q 1191 994 1439 701 
Q 1688 409 2113 409 
Q 2538 409 2786 701 
Q 3034 994 3034 1497 
Q 3034 2003 2786 2293 
Q 2538 2584 2113 2584 
z
M 3366 4563 
L 3366 3988 
Q 3128 4100 2886 4159 
Q 2644 4219 2406 4219 
Q 1781 4219 1451 3797 
Q 1122 3375 1075 2522 
Q 1259 2794 1537 2939 
Q 1816 3084 2150 3084 
Q 2853 3084 3261 2657 
Q 3669 2231 3669 1497 
Q 3669 778 3244 343 
Q 2819 -91 2113 -91 
Q 1303 -91 875 529 
Q 447 1150 447 2328 
Q 447 3434 972 4092 
Q 1497 4750 2381 4750 
Q 2619 4750 2861 4703 
Q 3103 4656 3366 4563 
z
" transform="scale(0.015625)"/>
       </defs>
       <use xlink:href="#DejaVuSans-36"/>
       <use xlink:href="#DejaVuSans-30" transform="translate(63.623047 0)"/>
       <use xlink:href="#DejaVuSans-30" transform="translate(127.246094 0)"/>
      </g>
     </g>
    </g>
    <g id="xtick_5">
     <g id="line2d_5">
      <g>
       <use xlink:href="#mb99bd68724" x="582.351361" y="170.44" style="stroke: #000000; stroke-width: 0.8"/>
      </g>
     </g>
     <g id="text_5">
      <!-- 800 -->
      <g transform="translate(572.807611 185.038437) scale(0.1 -0.1)">
       <defs>
        <path id="DejaVuSans-38" d="M 2034 2216 
Q 1584 2216 1326 1975 
Q 1069 1734 1069 1313 
Q 1069 891 1326 650 
Q 1584 409 2034 409 
Q 2484 409 2743 651 
Q 3003 894 3003 1313 
Q 3003 1734 2745 1975 
Q 2488 2216 2034 2216 
z
M 1403 2484 
Q 997 2584 770 2862 
Q 544 3141 544 3541 
Q 544 4100 942 4425 
Q 1341 4750 2034 4750 
Q 2731 4750 3128 4425 
Q 3525 4100 3525 3541 
Q 3525 3141 3298 2862 
Q 3072 2584 2669 2484 
Q 3125 2378 3379 2068 
Q 3634 1759 3634 1313 
Q 3634 634 3220 271 
Q 2806 -91 2034 -91 
Q 1263 -91 848 271 
Q 434 634 434 1313 
Q 434 1759 690 2068 
Q 947 2378 1403 2484 
z
M 1172 3481 
Q 1172 3119 1398 2916 
Q 1625 2713 2034 2713 
Q 2441 2713 2670 2916 
Q 2900 3119 2900 3481 
Q 2900 3844 2670 4047 
Q 2441 4250 2034 4250 
Q 1625 4250 1398 4047 
Q 1172 3844 1172 3481 
z
" transform="scale(0.015625)"/>
       </defs>
       <use xlink:href="#DejaVuSans-38"/>
       <use xlink:href="#DejaVuSans-30" transform="translate(63.623047 0)"/>
       <use xlink:href="#DejaVuSans-30" transform="translate(127.246094 0)"/>
      </g>
     </g>
    </g>
    <g id="xtick_6">
     <g id="line2d_6">
      <g>
       <use xlink:href="#mb99bd68724" x="715.379202" y="170.44" style="stroke: #000000; stroke-width: 0.8"/>
      </g>
     </g>
     <g id="text_6">
      <!-- 1000 -->
      <g transform="translate(702.654202 185.038437) scale(0.1 -0.1)">
       <defs>
        <path id="DejaVuSans-31" d="M 794 531 
L 1825 531 
L 1825 4091 
L 703 3866 
L 703 4441 
L 1819 4666 
L 2450 4666 
L 2450 531 
L 3481 531 
L 3481 0 
L 794 0 
L 794 531 
z
" transform="scale(0.015625)"/>
       </defs>
       <use xlink:href="#DejaVuSans-31"/>
       <use xlink:href="#DejaVuSans-30" transform="translate(63.623047 0)"/>
       <use xlink:href="#DejaVuSans-30" transform="translate(127.246094 0)"/>
       <use xlink:href="#DejaVuSans-30" transform="translate(190.869141 0)"/>
      </g>
     </g>
    </g>
    <g id="xtick_7">
     <g id="line2d_7">
      <g>
       <use xlink:href="#mb99bd68724" x="848.407042" y="170.44" style="stroke: #000000; stroke-width: 0.8"/>
      </g>
     </g>
     <g id="text_7">
      <!-- 1200 -->
      <g transform="translate(835.682042 185.038437) scale(0.1 -0.1)">
       <use xlink:href="#DejaVuSans-31"/>
       <use xlink:href="#DejaVuSans-32" transform="translate(63.623047 0)"/>
       <use xlink:href="#DejaVuSans-30" transform="translate(127.246094 0)"/>
       <use xlink:href="#DejaVuSans-30" transform="translate(190.869141 0)"/>
      </g>
     </g>
    </g>
    <g id="xtick_8">
     <g id="line2d_8">
      <g>
       <use xlink:href="#mb99bd68724" x="981.434882" y="170.44" style="stroke: #000000; stroke-width: 0.8"/>
      </g>
     </g>
     <g id="text_8">
      <!-- 1400 -->
      <g transform="translate(968.709882 185.038437) scale(0.1 -0.1)">
       <use xlink:href="#DejaVuSans-31"/>
       <use xlink:href="#DejaVuSans-34" transform="translate(63.623047 0)"/>
       <use xlink:href="#DejaVuSans-30" transform="translate(127.246094 0)"/>
       <use xlink:href="#DejaVuSans-30" transform="translate(190.869141 0)"/>
      </g>
     </g>
    </g>
    <g id="text_9">
     <!-- Simulation Days -->
     <g transform="translate(502.74 201.755937) scale(0.14 -0.14)">
      <defs>
       <path id="DejaVuSans-53" d="M 3425 4513 
L 3425 3897 
Q 3066 4069 2747 4153 
Q 2428 4238 2131 4238 
Q 1616 4238 1336 4038 
Q 1056 3838 1056 3469 
Q 1056 3159 1242 3001 
Q 1428 2844 1947 2747 
L 2328 2669 
Q 3034 2534 3370 2195 
Q 3706 1856 3706 1288 
Q 3706 609 3251 259 
Q 2797 -91 1919 -91 
Q 1588 -91 1214 -16 
Q 841 59 441 206 
L 441 856 
Q 825 641 1194 531 
Q 1563 422 1919 422 
Q 2459 422 2753 634 
Q 3047 847 3047 1241 
Q 3047 1584 2836 1778 
Q 2625 1972 2144 2069 
L 1759 2144 
Q 1053 2284 737 2584 
Q 422 2884 422 3419 
Q 422 4038 858 4394 
Q 1294 4750 2059 4750 
Q 2388 4750 2728 4690 
Q 3069 4631 3425 4513 
z
" transform="scale(0.015625)"/>
       <path id="DejaVuSans-69" d="M 603 3500 
L 1178 3500 
L 1178 0 
L 603 0 
L 603 3500 
z
M 603 4863 
L 1178 4863 
L 1178 4134 
L 603 4134 
L 603 4863 
z
" transform="scale(0.015625)"/>
       <path id="DejaVuSans-6d" d="M 3328 2828 
Q 3544 3216 3844 3400 
Q 4144 3584 4550 3584 
Q 5097 3584 5394 3201 
Q 5691 2819 5691 2113 
L 5691 0 
L 5113 0 
L 5113 2094 
Q 5113 2597 4934 2840 
Q 4756 3084 4391 3084 
Q 3944 3084 3684 2787 
Q 3425 2491 3425 1978 
L 3425 0 
L 2847 0 
L 2847 2094 
Q 2847 2600 2669 2842 
Q 2491 3084 2119 3084 
Q 1678 3084 1418 2786 
Q 1159 2488 1159 1978 
L 1159 0 
L 581 0 
L 581 3500 
L 1159 3500 
L 1159 2956 
Q 1356 3278 1631 3431 
Q 1906 3584 2284 3584 
Q 2666 3584 2933 3390 
Q 3200 3197 3328 2828 
z
" transform="scale(0.015625)"/>
       <path id="DejaVuSans-75" d="M 544 1381 
L 544 3500 
L 1119 3500 
L 1119 1403 
Q 1119 906 1312 657 
Q 1506 409 1894 409 
Q 2359 409 2629 706 
Q 2900 1003 2900 1516 
L 2900 3500 
L 3475 3500 
L 3475 0 
L 2900 0 
L 2900 538 
Q 2691 219 2414 64 
Q 2138 -91 1772 -91 
Q 1169 -91 856 284 
Q 544 659 544 1381 
z
M 1991 3584 
L 1991 3584 
z
" transform="scale(0.015625)"/>
       <path id="DejaVuSans-6c" d="M 603 4863 
L 1178 4863 
L 1178 0 
L 603 0 
L 603 4863 
z
" transform="scale(0.015625)"/>
       <path id="DejaVuSans-61" d="M 2194 1759 
Q 1497 1759 1228 1600 
Q 959 1441 959 1056 
Q 959 750 1161 570 
Q 1363 391 1709 391 
Q 2188 391 2477 730 
Q 2766 1069 2766 1631 
L 2766 1759 
L 2194 1759 
z
M 3341 1997 
L 3341 0 
L 2766 0 
L 2766 531 
Q 2569 213 2275 61 
Q 1981 -91 1556 -91 
Q 1019 -91 701 211 
Q 384 513 384 1019 
Q 384 1609 779 1909 
Q 1175 2209 1959 2209 
L 2766 2209 
L 2766 2266 
Q 2766 2663 2505 2880 
Q 2244 3097 1772 3097 
Q 1472 3097 1187 3025 
Q 903 2953 641 2809 
L 641 3341 
Q 956 3463 1253 3523 
Q 1550 3584 1831 3584 
Q 2591 3584 2966 3190 
Q 3341 2797 3341 1997 
z
" transform="scale(0.015625)"/>
       <path id="DejaVuSans-74" d="M 1172 4494 
L 1172 3500 
L 2356 3500 
L 2356 3053 
L 1172 3053 
L 1172 1153 
Q 1172 725 1289 603 
Q 1406 481 1766 481 
L 2356 481 
L 2356 0 
L 1766 0 
Q 1100 0 847 248 
Q 594 497 594 1153 
L 594 3053 
L 172 3053 
L 172 3500 
L 594 3500 
L 594 4494 
L 1172 4494 
z
" transform="scale(0.015625)"/>
       <path id="DejaVuSans-6f" d="M 1959 3097 
Q 1497 3097 1228 2736 
Q 959 2375 959 1747 
Q 959 1119 1226 758 
Q 1494 397 1959 397 
Q 2419 397 2687 759 
Q 2956 1122 2956 1747 
Q 2956 2369 2687 2733 
Q 2419 3097 1959 3097 
z
M 1959 3584 
Q 2709 3584 3137 3096 
Q 3566 2609 3566 1747 
Q 3566 888 3137 398 
Q 2709 -91 1959 -91 
Q 1206 -91 779 398 
Q 353 888 353 1747 
Q 353 2609 779 3096 
Q 1206 3584 1959 3584 
z
" transform="scale(0.015625)"/>
       <path id="DejaVuSans-6e" d="M 3513 2113 
L 3513 0 
L 2938 0 
L 2938 2094 
Q 2938 2591 2744 2837 
Q 2550 3084 2163 3084 
Q 1697 3084 1428 2787 
Q 1159 2491 1159 1978 
L 1159 0 
L 581 0 
L 581 3500 
L 1159 3500 
L 1159 2956 
Q 1366 3272 1645 3428 
Q 1925 3584 2291 3584 
Q 2894 3584 3203 3211 
Q 3513 2838 3513 2113 
z
" transform="scale(0.015625)"/>
       <path id="DejaVuSans-20" transform="scale(0.015625)"/>
       <path id="DejaVuSans-44" d="M 1259 4147 
L 1259 519 
L 2022 519 
Q 2988 519 3436 956 
Q 3884 1394 3884 2338 
Q 3884 3275 3436 3711 
Q 2988 4147 2022 4147 
L 1259 4147 
z
M 628 4666 
L 1925 4666 
Q 3281 4666 3915 4102 
Q 4550 3538 4550 2338 
Q 4550 1131 3912 565 
Q 3275 0 1925 0 
L 628 0 
L 628 4666 
z
" transform="scale(0.015625)"/>
       <path id="DejaVuSans-79" d="M 2059 -325 
Q 1816 -950 1584 -1140 
Q 1353 -1331 966 -1331 
L 506 -1331 
L 506 -850 
L 844 -850 
Q 1081 -850 1212 -737 
Q 1344 -625 1503 -206 
L 1606 56 
L 191 3500 
L 800 3500 
L 1894 763 
L 2988 3500 
L 3597 3500 
L 2059 -325 
z
" transform="scale(0.015625)"/>
       <path id="DejaVuSans-73" d="M 2834 3397 
L 2834 2853 
Q 2591 2978 2328 3040 
Q 2066 3103 1784 3103 
Q 1356 3103 1142 2972 
Q 928 2841 928 2578 
Q 928 2378 1081 2264 
Q 1234 2150 1697 2047 
L 1894 2003 
Q 2506 1872 2764 1633 
Q 3022 1394 3022 966 
Q 3022 478 2636 193 
Q 2250 -91 1575 -91 
Q 1294 -91 989 -36 
Q 684 19 347 128 
L 347 722 
Q 666 556 975 473 
Q 1284 391 1588 391 
Q 1994 391 2212 530 
Q 2431 669 2431 922 
Q 2431 1156 2273 1281 
Q 2116 1406 1581 1522 
L 1381 1569 
Q 847 1681 609 1914 
Q 372 2147 372 2553 
Q 372 3047 722 3315 
Q 1072 3584 1716 3584 
Q 2034 3584 2315 3537 
Q 2597 3491 2834 3397 
z
" transform="scale(0.015625)"/>
      </defs>
      <use xlink:href="#DejaVuSans-53"/>
      <use xlink:href="#DejaVuSans-69" transform="translate(63.476562 0)"/>
      <use xlink:href="#DejaVuSans-6d" transform="translate(91.259766 0)"/>
      <use xlink:href="#DejaVuSans-75" transform="translate(188.671875 0)"/>
      <use xlink:href="#DejaVuSans-6c" transform="translate(252.050781 0)"/>
      <use xlink:href="#DejaVuSans-61" transform="translate(279.833984 0)"/>
      <use xlink:href="#DejaVuSans-74" transform="translate(341.113281 0)"/>
      <use xlink:href="#DejaVuSans-69" transform="translate(380.322266 0)"/>
      <use xlink:href="#DejaVuSans-6f" transform="translate(408.105469 0)"/>
      <use xlink:href="#DejaVuSans-6e" transform="translate(469.287109 0)"/>
      <use xlink:href="#DejaVuSans-20" transform="translate(532.666016 0)"/>
      <use xlink:href="#DejaVuSans-44" transform="translate(564.453125 0)"/>
      <use xlink:href="#DejaVuSans-61" transform="translate(641.455078 0)"/>
      <use xlink:href="#DejaVuSans-79" transform="translate(702.734375 0)"/>
      <use xlink:href="#DejaVuSans-73" transform="translate(761.914062 0)"/>
     </g>
    </g>
   </g>
   <g id="matplotlib.axis_2">
    <g id="ytick_1">
     <g id="line2d_9">
      <defs>
       <path id="m48f891afcd" d="M 0 0 
L -3.5 0 
" style="stroke: #000000; stroke-width: 0.8"/>
      </defs>
      <g>
       <use xlink:href="#m48f891afcd" x="50.24" y="136.501784" style="stroke: #000000; stroke-width: 0.8"/>
      </g>
     </g>
     <g id="text_10">
      <!-- −4 -->
      <g transform="translate(28.497813 140.301002) scale(0.1 -0.1)">
       <defs>
        <path id="DejaVuSans-2212" d="M 678 2272 
L 4684 2272 
L 4684 1741 
L 678 1741 
L 678 2272 
z
" transform="scale(0.015625)"/>
       </defs>
       <use xlink:href="#DejaVuSans-2212"/>
       <use xlink:href="#DejaVuSans-34" transform="translate(83.789062 0)"/>
      </g>
     </g>
    </g>
    <g id="ytick_2">
     <g id="line2d_10">
      <g>
       <use xlink:href="#m48f891afcd" x="50.24" y="99.525698" style="stroke: #000000; stroke-width: 0.8"/>
      </g>
     </g>
     <g id="text_11">
      <!-- 0 -->
      <g transform="translate(36.8775 103.324917) scale(0.1 -0.1)">
       <use xlink:href="#DejaVuSans-30"/>
      </g>
     </g>
    </g>
    <g id="ytick_3">
     <g id="line2d_11">
      <g>
       <use xlink:href="#m48f891afcd" x="50.24" y="62.549612" style="stroke: #000000; stroke-width: 0.8"/>
      </g>
     </g>
     <g id="text_12">
      <!-- 4 -->
      <g transform="translate(36.8775 66.348831) scale(0.1 -0.1)">
       <use xlink:href="#DejaVuSans-34"/>
      </g>
     </g>
    </g>
    <g id="text_13">
     <!-- Temperature (℃) -->
     <g transform="translate(21.58625 159.986094) rotate(-90) scale(0.14 -0.14)">
      <defs>
       <path id="DejaVuSans-54" d="M -19 4666 
L 3928 4666 
L 3928 4134 
L 2272 4134 
L 2272 0 
L 1638 0 
L 1638 4134 
L -19 4134 
L -19 4666 
z
" transform="scale(0.015625)"/>
       <path id="DejaVuSans-65" d="M 3597 1894 
L 3597 1613 
L 953 1613 
Q 991 1019 1311 708 
Q 1631 397 2203 397 
Q 2534 397 2845 478 
Q 3156 559 3463 722 
L 3463 178 
Q 3153 47 2828 -22 
Q 2503 -91 2169 -91 
Q 1331 -91 842 396 
Q 353 884 353 1716 
Q 353 2575 817 3079 
Q 1281 3584 2069 3584 
Q 2775 3584 3186 3129 
Q 3597 2675 3597 1894 
z
M 3022 2063 
Q 3016 2534 2758 2815 
Q 2500 3097 2075 3097 
Q 1594 3097 1305 2825 
Q 1016 2553 972 2059 
L 3022 2063 
z
" transform="scale(0.015625)"/>
       <path id="DejaVuSans-70" d="M 1159 525 
L 1159 -1331 
L 581 -1331 
L 581 3500 
L 1159 3500 
L 1159 2969 
Q 1341 3281 1617 3432 
Q 1894 3584 2278 3584 
Q 2916 3584 3314 3078 
Q 3713 2572 3713 1747 
Q 3713 922 3314 415 
Q 2916 -91 2278 -91 
Q 1894 -91 1617 61 
Q 1341 213 1159 525 
z
M 3116 1747 
Q 3116 2381 2855 2742 
Q 2594 3103 2138 3103 
Q 1681 3103 1420 2742 
Q 1159 2381 1159 1747 
Q 1159 1113 1420 752 
Q 1681 391 2138 391 
Q 2594 391 2855 752 
Q 3116 1113 3116 1747 
z
" transform="scale(0.015625)"/>
       <path id="DejaVuSans-72" d="M 2631 2963 
Q 2534 3019 2420 3045 
Q 2306 3072 2169 3072 
Q 1681 3072 1420 2755 
Q 1159 2438 1159 1844 
L 1159 0 
L 581 0 
L 581 3500 
L 1159 3500 
L 1159 2956 
Q 1341 3275 1631 3429 
Q 1922 3584 2338 3584 
Q 2397 3584 2469 3576 
Q 2541 3569 2628 3553 
L 2631 2963 
z
" transform="scale(0.015625)"/>
       <path id="DejaVuSans-28" d="M 1984 4856 
Q 1566 4138 1362 3434 
Q 1159 2731 1159 2009 
Q 1159 1288 1364 580 
Q 1569 -128 1984 -844 
L 1484 -844 
Q 1016 -109 783 600 
Q 550 1309 550 2009 
Q 550 2706 781 3412 
Q 1013 4119 1484 4856 
L 1984 4856 
z
" transform="scale(0.015625)"/>
       <path id="DejaVuSans-2103" d="M 1600 4347 
Q 1350 4347 1178 4173 
Q 1006 4000 1006 3750 
Q 1006 3503 1178 3333 
Q 1350 3163 1600 3163 
Q 1850 3163 2022 3333 
Q 2194 3503 2194 3750 
Q 2194 3997 2020 4172 
Q 1847 4347 1600 4347 
z
M 1600 4750 
Q 1800 4750 1984 4673 
Q 2169 4597 2303 4453 
Q 2447 4313 2519 4134 
Q 2591 3956 2591 3750 
Q 2591 3338 2302 3052 
Q 2013 2766 1594 2766 
Q 1172 2766 890 3047 
Q 609 3328 609 3750 
Q 609 4169 896 4459 
Q 1184 4750 1600 4750 
z
M 6741 4306 
L 6741 3641 
Q 6422 3938 6061 4084 
Q 5700 4231 5294 4231 
Q 4494 4231 4069 3742 
Q 3644 3253 3644 2328 
Q 3644 1406 4069 917 
Q 4494 428 5294 428 
Q 5700 428 6061 575 
Q 6422 722 6741 1019 
L 6741 359 
Q 6409 134 6039 21 
Q 5669 -91 5256 -91 
Q 4197 -91 3587 557 
Q 2978 1206 2978 2328 
Q 2978 3453 3587 4101 
Q 4197 4750 5256 4750 
Q 5675 4750 6045 4639 
Q 6416 4528 6741 4306 
z
" transform="scale(0.015625)"/>
       <path id="DejaVuSans-29" d="M 513 4856 
L 1013 4856 
Q 1481 4119 1714 3412 
Q 1947 2706 1947 2009 
Q 1947 1309 1714 600 
Q 1481 -109 1013 -844 
L 513 -844 
Q 928 -128 1133 580 
Q 1338 1288 1338 2009 
Q 1338 2731 1133 3434 
Q 928 4138 513 4856 
z
" transform="scale(0.015625)"/>
      </defs>
      <use xlink:href="#DejaVuSans-54"/>
      <use xlink:href="#DejaVuSans-65" transform="translate(44.083984 0)"/>
      <use xlink:href="#DejaVuSans-6d" transform="translate(105.607422 0)"/>
      <use xlink:href="#DejaVuSans-70" transform="translate(203.019531 0)"/>
      <use xlink:href="#DejaVuSans-65" transform="translate(266.496094 0)"/>
      <use xlink:href="#DejaVuSans-72" transform="translate(328.019531 0)"/>
      <use xlink:href="#DejaVuSans-61" transform="translate(369.132812 0)"/>
      <use xlink:href="#DejaVuSans-74" transform="translate(430.412109 0)"/>
      <use xlink:href="#DejaVuSans-75" transform="translate(469.621094 0)"/>
      <use xlink:href="#DejaVuSans-72" transform="translate(533 0)"/>
      <use xlink:href="#DejaVuSans-65" transform="translate(571.863281 0)"/>
      <use xlink:href="#DejaVuSans-20" transform="translate(633.386719 0)"/>
      <use xlink:href="#DejaVuSans-28" transform="translate(665.173828 0)"/>
      <use xlink:href="#DejaVuSans-2103" transform="translate(704.1875 0)"/>
      <use xlink:href="#DejaVuSans-29" transform="translate(816.492188 0)"/>
     </g>
    </g>
   </g>
   <g id="line2d_12">
    <path d="M 50.24 150.218586 
L 52.235418 150.364633 
L 54.230835 150.753912 
L 56.226253 151.445155 
L 57.556531 152.109421 
L 58.88681 152.952577 
L 60.882227 154.529359 
L 66.203341 159.157098 
L 67.533619 159.952442 
L 68.863898 160.466848 
L 70.194176 160.674939 
L 71.524454 160.575928 
L 72.854733 160.186847 
L 74.185011 159.536678 
L 75.51529 158.662398 
L 77.510707 157.026895 
L 80.836403 153.854257 
L 84.162099 150.769825 
L 86.157517 149.169532 
L 88.152934 147.798618 
L 90.813491 146.292184 
L 93.474048 145.062586 
L 96.799744 143.773394 
L 100.790579 142.471539 
L 110.767667 139.448906 
L 118.084199 136.74566 
L 121.409895 135.854307 
L 125.40073 135.083208 
L 136.708096 133.136987 
L 140.033792 132.265899 
L 142.694349 131.351256 
L 144.689767 130.409838 
L 146.020045 129.573732 
L 147.350323 128.500335 
L 148.680602 127.129486 
L 150.01088 125.416454 
L 151.341159 123.347486 
L 153.336576 119.654475 
L 158.65769 108.946447 
L 159.987968 106.776211 
L 161.318247 104.979992 
L 162.648525 103.568102 
L 163.978803 102.512783 
L 165.309082 101.761302 
L 166.63936 101.249845 
L 168.634778 100.795306 
L 171.295335 100.500272 
L 175.28617 100.120684 
L 177.281588 99.741067 
L 179.277005 99.105957 
L 180.607284 98.497948 
L 181.937562 97.719223 
L 183.26784 96.753892 
L 184.598119 95.590036 
L 185.928397 94.217955 
L 187.923815 91.745798 
L 189.919232 88.764266 
L 192.579789 84.162785 
L 195.240346 79.625844 
L 196.570624 77.84619 
L 197.235764 77.173415 
L 197.900903 76.677737 
L 198.566042 76.378386 
L 199.231181 76.289004 
L 199.89632 76.416956 
L 200.56146 76.762629 
L 201.226599 77.319362 
L 201.891738 78.073424 
L 203.222016 80.086893 
L 205.217434 83.923803 
L 207.877991 89.11052 
L 209.208269 91.157783 
L 210.538548 92.600459 
L 211.203687 93.06682 
L 211.868826 93.35959 
L 212.533965 93.483398 
L 213.199104 93.448628 
L 213.864244 93.271182 
L 215.194522 92.575372 
L 219.185357 89.806923 
L 220.515636 89.391161 
L 221.180775 89.361604 
L 221.845914 89.457432 
L 223.176192 90.010443 
L 224.506471 90.973775 
L 226.501888 92.915195 
L 233.15328 100.16993 
L 235.148698 102.684736 
L 236.478976 104.644903 
L 237.809255 106.890967 
L 239.804672 110.824754 
L 241.80009 115.32334 
L 245.125786 123.059366 
L 246.456064 125.751007 
L 247.786343 127.9555 
L 249.116621 129.551867 
L 249.781761 130.102927 
L 250.4469 130.488882 
L 251.112039 130.715685 
L 251.777178 130.793697 
L 252.442317 130.737314 
L 253.772596 130.293743 
L 255.102874 129.549102 
L 258.42857 127.51851 
L 259.758849 127.05383 
L 261.089127 126.974146 
L 261.754266 127.103863 
L 262.419405 127.354239 
L 263.749684 128.218935 
L 265.079962 129.534139 
L 266.410241 131.206568 
L 271.066215 137.661118 
L 272.396493 139.063468 
L 273.726772 140.112716 
L 275.05705 140.813857 
L 276.387329 141.218172 
L 278.382746 141.454264 
L 281.708442 141.646241 
L 283.70386 142.044095 
L 285.699277 142.768162 
L 291.68553 145.414501 
L 293.015809 145.653474 
L 294.346087 145.664687 
L 295.676365 145.451601 
L 297.006644 145.043211 
L 299.002061 144.166738 
L 305.653453 140.88826 
L 307.648871 140.256707 
L 308.979149 140.027362 
L 310.309428 139.996132 
L 311.639706 140.198345 
L 312.969985 140.657766 
L 314.300263 141.380205 
L 315.630541 142.350041 
L 317.625959 144.186114 
L 320.286516 147.051584 
L 323.612212 150.585204 
L 325.607629 152.351179 
L 327.603047 153.751965 
L 329.598465 154.852596 
L 334.919578 157.57546 
L 338.245274 159.417931 
L 339.575553 159.903367 
L 340.905831 160.05391 
L 341.57097 159.963119 
L 342.23611 159.743355 
L 342.901249 159.384323 
L 343.566388 158.879314 
L 344.896666 157.425578 
L 346.226945 155.417417 
L 347.557223 152.963702 
L 352.878337 142.356373 
L 354.208615 140.342434 
L 355.538894 138.729571 
L 356.869172 137.473912 
L 358.19945 136.490588 
L 360.194868 135.3199 
L 364.185703 133.348601 
L 370.171956 130.458451 
L 371.502234 129.50218 
L 372.832513 128.237153 
L 374.162791 126.580364 
L 375.49307 124.490452 
L 376.823348 121.986624 
L 378.818766 117.658376 
L 382.144462 110.252571 
L 383.47474 107.711342 
L 384.805018 105.582316 
L 386.135297 103.90058 
L 387.465575 102.647188 
L 388.795854 101.764669 
L 390.126132 101.175047 
L 391.45641 100.798642 
L 393.451828 100.474966 
L 397.442663 99.962976 
L 398.772942 99.616118 
L 400.10322 99.058999 
L 401.433498 98.204092 
L 402.763777 96.968223 
L 404.094055 95.295204 
L 405.424334 93.182674 
L 407.419751 89.379474 
L 410.080308 84.149192 
L 411.410587 82.023976 
L 412.740865 80.487019 
L 413.406004 79.959588 
L 414.071143 79.583996 
L 415.401422 79.199522 
L 418.061979 78.864927 
L 418.727118 78.622597 
L 419.392257 78.241513 
L 420.057396 77.697844 
L 420.722535 76.978987 
L 422.052814 75.024977 
L 423.383092 72.514933 
L 426.708788 65.80884 
L 428.039067 63.791307 
L 428.704206 63.029736 
L 429.369345 62.442397 
L 430.034484 62.025958 
L 430.699623 61.770253 
L 431.364763 61.660128 
L 432.695041 61.803416 
L 434.025319 62.308279 
L 435.355598 63.055474 
L 437.351015 64.484366 
L 439.346433 66.198651 
L 445.332686 71.729144 
L 447.328103 73.073531 
L 449.98866 74.448152 
L 451.984078 75.539346 
L 453.314356 76.500132 
L 454.644635 77.754849 
L 455.974913 79.358725 
L 457.305191 81.329292 
L 458.63547 83.649271 
L 460.630887 87.682604 
L 463.291444 93.731608 
L 466.61714 101.318569 
L 467.947419 103.978946 
L 469.277697 106.228057 
L 470.607975 107.952311 
L 471.273115 108.591847 
L 471.938254 109.075497 
L 472.603393 109.402042 
L 473.268532 109.574221 
L 473.933671 109.598695 
L 474.598811 109.485643 
L 475.929089 108.90364 
L 477.259367 107.961797 
L 479.919924 105.603729 
L 481.915342 103.945294 
L 483.24562 103.071896 
L 484.575899 102.452891 
L 485.906177 102.13008 
L 487.236455 102.141798 
L 488.566734 102.531378 
L 489.897012 103.344305 
L 491.227291 104.619223 
L 492.557569 106.374473 
L 493.887848 108.594193 
L 495.218126 111.221915 
L 497.213544 115.71991 
L 503.199796 129.838321 
L 505.860353 135.354881 
L 509.186049 141.601941 
L 516.50258 154.605463 
L 518.497998 157.835843 
L 519.828276 159.708279 
L 521.158555 161.248278 
L 522.488833 162.370827 
L 523.819112 163.014263 
L 524.484251 163.146507 
L 525.14939 163.152587 
L 525.814529 163.036326 
L 527.144808 162.467727 
L 528.475086 161.527536 
L 530.470504 159.685515 
L 533.13106 157.107493 
L 534.461339 156.01107 
L 535.791617 155.135348 
L 537.121896 154.511497 
L 538.452174 154.145518 
L 539.782452 154.023982 
L 541.112731 154.118113 
L 543.108148 154.570666 
L 546.433844 155.718773 
L 549.094401 156.570155 
L 552.420097 157.350671 
L 555.745793 158.153664 
L 558.40635 159.051065 
L 561.732046 160.213463 
L 563.062324 160.515421 
L 564.392603 160.649812 
L 565.722881 160.598645 
L 567.718299 160.212766 
L 574.369691 158.438581 
L 581.021083 157.455158 
L 582.351361 156.947953 
L 583.68164 156.258091 
L 585.677057 154.88623 
L 587.672475 153.182642 
L 594.323867 147.150404 
L 596.319285 145.792767 
L 598.314702 144.714087 
L 600.975259 143.583713 
L 605.631233 141.939609 
L 610.952347 140.265399 
L 620.264296 137.618066 
L 622.259713 136.699845 
L 623.589992 135.889777 
L 624.92027 134.85646 
L 626.250549 133.537051 
L 627.580827 131.871935 
L 628.911105 129.818183 
L 630.241384 127.36488 
L 632.236801 123.023105 
L 638.223054 109.037411 
L 639.553333 106.634802 
L 640.883611 104.674298 
L 642.213889 103.153343 
L 643.544168 102.030548 
L 644.874446 101.240778 
L 646.204725 100.710356 
L 648.200142 100.250034 
L 650.860699 99.982798 
L 658.17723 99.48207 
L 660.172648 99.041154 
L 661.502926 98.576603 
L 662.833205 97.938927 
L 664.163483 97.103467 
L 665.493762 96.054515 
L 666.82404 94.784838 
L 668.154318 93.292227 
L 670.149736 90.631976 
L 672.145154 87.464403 
L 674.140571 83.83743 
L 678.796546 74.967282 
L 680.126824 72.886858 
L 681.457102 71.227636 
L 682.787381 70.046439 
L 684.117659 69.345005 
L 685.447938 69.077226 
L 686.778216 69.162208 
L 688.108494 69.501706 
L 690.769051 70.540923 
L 692.764469 71.264556 
L 694.094747 71.564759 
L 695.425026 71.645348 
L 696.755304 71.476737 
L 698.085582 71.072455 
L 702.741557 69.294553 
L 703.406696 69.2634 
L 704.071835 69.348753 
L 704.736974 69.56363 
L 705.402114 69.915516 
L 706.732392 71.030881 
L 708.06267 72.63543 
L 710.058088 75.636937 
L 712.718645 79.798071 
L 714.714062 82.480928 
L 716.70948 84.736489 
L 720.700315 89.030588 
L 722.695733 91.544595 
L 725.35629 95.340539 
L 730.012264 102.174172 
L 732.672821 105.675376 
L 737.993935 112.49238 
L 743.315048 119.722306 
L 744.645327 121.206828 
L 745.975605 122.443678 
L 747.305883 123.4363 
L 749.301301 124.590821 
L 751.961858 126.014476 
L 753.957275 127.386363 
L 755.952693 129.117495 
L 759.943528 132.756267 
L 761.273807 133.66585 
L 762.604085 134.31204 
L 763.934363 134.684395 
L 765.264642 134.80839 
L 766.59492 134.733542 
L 768.590338 134.382134 
L 773.911451 133.271564 
L 776.572008 133.007996 
L 779.897704 132.934604 
L 783.888539 133.075978 
L 789.874792 133.37453 
L 791.87021 133.246668 
L 794.530767 132.832357 
L 799.186741 132.037219 
L 801.847298 131.837131 
L 806.503272 131.551829 
L 808.49869 131.222985 
L 811.159247 130.527143 
L 816.48036 128.963754 
L 818.475778 128.666614 
L 820.471196 128.62655 
L 823.131752 128.891183 
L 828.452866 129.588181 
L 831.113423 129.673356 
L 833.10884 129.567704 
L 835.104258 129.258164 
L 836.434536 128.879775 
L 837.764815 128.302903 
L 839.095093 127.469149 
L 840.425372 126.327939 
L 841.75565 124.85238 
L 843.085928 123.053715 
L 845.081346 119.887524 
L 848.407042 114.342476 
L 849.73732 112.413443 
L 851.067599 110.791568 
L 852.397877 109.505329 
L 853.728156 108.532083 
L 855.058434 107.809758 
L 857.053852 107.013116 
L 861.044687 105.531933 
L 863.705244 104.260198 
L 868.361218 101.930928 
L 870.356636 101.161199 
L 872.352053 100.598443 
L 875.01261 100.132289 
L 878.338306 99.850394 
L 883.65942 99.690822 
L 900.2879 99.396607 
L 902.283317 99.035057 
L 903.613596 98.575748 
L 904.943874 97.843123 
L 906.274153 96.73557 
L 907.604431 95.15212 
L 908.934709 93.009835 
L 910.264988 90.270106 
L 911.595266 86.957947 
L 913.590684 81.148977 
L 918.246658 66.820101 
L 920.242076 61.568493 
L 922.237493 57.075739 
L 924.232911 53.296579 
L 925.563189 51.192523 
L 926.893468 49.471899 
L 928.223746 48.187127 
L 929.554025 47.373229 
L 930.219164 47.145763 
L 930.884303 47.035888 
L 931.549442 47.040667 
L 932.879721 47.381867 
L 934.209999 48.155397 
L 935.540277 49.377162 
L 936.870556 51.099215 
L 938.200834 53.398009 
L 939.531113 56.345336 
L 940.861391 59.974025 
L 942.191669 64.248722 
L 944.187087 71.58599 
L 948.177922 86.68385 
L 949.508201 90.902508 
L 950.838479 94.410804 
L 952.168757 97.156062 
L 953.499036 99.171729 
L 954.829314 100.55768 
L 956.159593 101.447181 
L 957.489871 101.975592 
L 958.820149 102.255436 
L 960.815567 102.374644 
L 962.810985 102.247174 
L 965.471541 101.79505 
L 971.457794 100.573929 
L 972.788073 100.536783 
L 974.118351 100.71029 
L 975.44863 101.184351 
L 976.778908 102.072349 
L 978.109186 103.505593 
L 979.439465 105.61633 
L 980.769743 108.510557 
L 982.100022 112.237635 
L 983.4303 116.764187 
L 985.425718 124.746791 
L 990.081692 144.338138 
L 991.41197 148.853582 
L 992.742249 152.45701 
L 993.407388 153.876877 
L 994.072527 155.032218 
L 994.737666 155.922925 
L 995.402806 156.554738 
L 996.067945 156.939003 
L 996.733084 157.092317 
L 997.398223 157.035628 
L 998.063362 156.793589 
L 999.393641 155.864069 
L 1000.723919 154.533381 
L 1004.714754 150.119483 
L 1006.045033 148.938736 
L 1007.375311 148.00152 
L 1008.70559 147.318967 
L 1010.035868 146.886705 
L 1011.366146 146.687813 
L 1012.696425 146.69459 
L 1014.691842 146.996711 
L 1019.347817 148.009891 
L 1020.678095 148.116211 
L 1020.678095 148.116211 
" clip-path="url(#p3ad493bb88)" style="fill: none; stroke: #0000ff; stroke-width: 1.5; stroke-linecap: square"/>
   </g>
   <g id="line2d_13">
    <path d="M 50.24 150.566766 
L 52.235418 150.773999 
L 53.565696 151.09313 
L 54.895974 151.568975 
L 56.226253 152.211091 
L 58.22167 153.487572 
L 60.217088 155.083199 
L 64.873062 158.995649 
L 66.203341 159.820035 
L 67.533619 160.395799 
L 68.863898 160.694015 
L 70.194176 160.712065 
L 71.524454 160.469 
L 72.854733 159.997731 
L 74.185011 159.336877 
L 76.180429 158.071878 
L 78.840986 156.037508 
L 84.162099 151.498819 
L 87.487795 148.84116 
L 90.148352 147.024658 
L 92.808909 145.512724 
L 96.134605 143.948676 
L 101.455719 141.781593 
L 108.107111 139.308179 
L 113.428224 137.554027 
L 118.084199 136.242505 
L 122.075034 135.365636 
L 126.731008 134.591777 
L 134.712679 133.294446 
L 138.703514 132.417758 
L 141.364071 131.618504 
L 143.359488 130.774168 
L 144.689767 130.016713 
L 146.020045 129.041771 
L 147.350323 127.795142 
L 148.680602 126.232473 
L 150.01088 124.331377 
L 151.341159 122.102562 
L 153.336576 118.266055 
L 157.992551 108.924657 
L 159.322829 106.697199 
L 160.653107 104.818043 
L 161.983386 103.308023 
L 163.313664 102.151162 
L 164.643943 101.304574 
L 165.974221 100.710448 
L 167.969639 100.158136 
L 170.630196 99.768647 
L 175.28617 99.154202 
L 177.281588 98.661346 
L 179.277005 97.909702 
L 181.272423 96.825358 
L 182.602701 95.884947 
L 183.93298 94.749242 
L 185.263258 93.400217 
L 186.593536 91.820657 
L 188.588954 88.995107 
L 190.584372 85.654297 
L 195.240346 77.433032 
L 196.570624 75.730435 
L 197.235764 75.114533 
L 197.900903 74.684327 
L 198.566042 74.455899 
L 199.231181 74.439711 
L 199.89632 74.639911 
L 200.56146 75.053848 
L 201.226599 75.672057 
L 202.556877 77.451402 
L 203.887156 79.784235 
L 207.877991 87.456861 
L 209.208269 89.386256 
L 210.538548 90.702549 
L 211.203687 91.108531 
L 211.868826 91.345802 
L 212.533965 91.420843 
L 213.199104 91.345349 
L 214.529383 90.812538 
L 215.859661 89.922824 
L 218.520218 87.924981 
L 219.850496 87.217567 
L 221.180775 86.8942 
L 221.845914 86.897167 
L 223.176192 87.234836 
L 224.506471 87.974957 
L 225.836749 89.036655 
L 227.832167 91.029405 
L 230.492724 94.076448 
L 233.15328 97.43745 
L 235.148698 100.273368 
L 237.144116 103.490077 
L 239.139533 107.110886 
L 242.465229 113.730986 
L 245.125786 118.856303 
L 246.456064 121.081143 
L 247.786343 122.94945 
L 249.116621 124.389652 
L 250.4469 125.365251 
L 251.777178 125.881677 
L 253.107457 125.987324 
L 254.437735 125.769135 
L 256.433153 125.095376 
L 258.42857 124.417007 
L 259.758849 124.18686 
L 261.089127 124.26484 
L 262.419405 124.724603 
L 263.749684 125.594995 
L 265.079962 126.855747 
L 266.410241 128.4404 
L 269.070797 132.154371 
L 271.731354 135.808938 
L 273.726772 138.082771 
L 275.05705 139.305596 
L 276.387329 140.299016 
L 277.717607 141.090083 
L 279.713025 141.977735 
L 281.708442 142.616016 
L 284.368999 143.241602 
L 287.694695 143.82068 
L 291.020391 144.185521 
L 293.680948 144.234215 
L 295.676365 144.07684 
L 297.671783 143.739196 
L 300.33234 143.047672 
L 306.318593 141.309649 
L 308.31401 141.056023 
L 309.644289 141.079178 
L 310.974567 141.28753 
L 312.304845 141.696459 
L 313.635124 142.308222 
L 314.965402 143.111322 
L 316.96082 144.619954 
L 319.621377 147.013934 
L 326.272769 153.250785 
L 329.598465 155.974241 
L 332.924161 158.368547 
L 335.584718 159.980469 
L 337.580135 160.87026 
L 338.910414 161.212356 
L 340.240692 161.270325 
L 341.57097 160.967335 
L 342.901249 160.235074 
L 344.231527 159.02888 
L 345.561806 157.342195 
L 346.892084 155.216101 
L 348.887502 151.410666 
L 352.878337 143.323333 
L 354.873754 139.934955 
L 356.204033 138.088779 
L 357.534311 136.576608 
L 358.86459 135.363487 
L 360.194868 134.39547 
L 362.190286 133.272901 
L 364.850842 132.112177 
L 368.176538 130.690376 
L 370.171956 129.550415 
L 371.502234 128.540499 
L 372.832513 127.255541 
L 374.162791 125.646069 
L 375.49307 123.690144 
L 376.823348 121.404027 
L 378.818766 117.496567 
L 382.809601 109.387617 
L 384.139879 107.0604 
L 385.470158 105.07549 
L 386.800436 103.467546 
L 388.130714 102.230975 
L 389.460993 101.328276 
L 390.791271 100.701669 
L 392.12155 100.284427 
L 394.116967 99.904493 
L 398.107802 99.256433 
L 399.438081 98.843245 
L 400.768359 98.217867 
L 402.098638 97.312514 
L 403.428916 96.073606 
L 404.759194 94.478045 
L 406.089473 92.54971 
L 408.08489 89.226733 
L 410.745447 84.796899 
L 412.075726 82.961363 
L 413.406004 81.528466 
L 414.736283 80.501514 
L 416.066561 79.78176 
L 418.727118 78.503842 
L 420.057396 77.531341 
L 421.387675 76.149064 
L 422.717953 74.343492 
L 424.713371 71.082484 
L 426.708788 67.764209 
L 428.039067 65.889993 
L 429.369345 64.487445 
L 430.034484 63.994123 
L 430.699623 63.645771 
L 431.364763 63.441071 
L 432.029902 63.374503 
L 432.695041 63.437058 
L 434.025319 63.900865 
L 435.355598 64.720759 
L 437.351015 66.358757 
L 442.00699 70.43496 
L 444.002407 71.842191 
L 445.997825 72.984726 
L 451.318939 75.749724 
L 452.649217 76.736907 
L 453.979495 77.984724 
L 455.309774 79.54546 
L 456.640052 81.449104 
L 457.970331 83.698597 
L 459.965748 87.6552 
L 462.626305 93.654093 
L 465.952001 101.101786 
L 467.282279 103.656573 
L 468.612558 105.78871 
L 469.942836 107.408803 
L 471.273115 108.46506 
L 471.938254 108.777885 
L 472.603393 108.951089 
L 473.268532 108.991267 
L 473.933671 108.907684 
L 475.26395 108.417644 
L 476.594228 107.59435 
L 478.589646 106.016854 
L 481.250203 103.920347 
L 482.580481 103.103537 
L 483.910759 102.54335 
L 485.241038 102.299528 
L 486.571316 102.423569 
L 487.901595 102.96041 
L 489.231873 103.9458 
L 490.562152 105.39974 
L 491.89243 107.318422 
L 493.222708 109.668019 
L 495.218126 113.850427 
L 497.878683 120.140097 
L 501.204379 128.024136 
L 503.864936 133.73863 
L 506.525492 138.838782 
L 509.851188 144.65285 
L 517.16772 156.869727 
L 519.163137 159.783899 
L 520.493416 161.412501 
L 521.823694 162.695352 
L 523.153972 163.568913 
L 524.484251 163.998347 
L 525.814529 163.985036 
L 527.144808 163.567709 
L 528.475086 162.816917 
L 530.470504 161.267768 
L 535.791617 156.769769 
L 537.787035 155.491833 
L 539.782452 154.542478 
L 541.77787 153.916505 
L 543.773288 153.588571 
L 545.768705 153.51968 
L 547.764123 153.659348 
L 550.42468 154.072597 
L 555.745793 155.227319 
L 559.736628 155.983903 
L 562.397185 156.238975 
L 564.392603 156.227642 
L 566.38802 156.017597 
L 568.383438 155.613446 
L 571.043995 154.822287 
L 574.369691 153.561268 
L 579.025665 151.542422 
L 585.011918 148.714058 
L 592.328449 144.992426 
L 600.975259 140.339304 
L 615.608321 132.174861 
L 618.268878 130.442037 
L 620.929435 128.469999 
L 623.589992 126.243451 
L 627.580827 122.552984 
L 634.897358 115.669956 
L 638.223054 112.830335 
L 641.54875 110.247712 
L 654.186395 100.795739 
L 657.512091 97.853338 
L 660.172648 95.188987 
L 662.168066 92.935891 
L 664.163483 90.41495 
L 666.158901 87.594135 
L 668.154318 84.454518 
L 670.149736 80.985994 
L 672.810293 75.840643 
L 675.47085 70.114068 
L 678.796546 62.341075 
L 682.122242 54.664077 
L 683.45252 51.953884 
L 684.782798 49.631475 
L 686.113077 47.816336 
L 686.778216 47.131592 
L 687.443355 46.609314 
L 688.108494 46.257163 
L 688.773634 46.080261 
L 689.438773 46.081015 
L 690.103912 46.259023 
L 690.769051 46.611024 
L 691.43419 47.130988 
L 692.764469 48.637526 
L 694.094747 50.680854 
L 695.425026 53.1327 
L 698.085582 58.670018 
L 700.746139 64.111318 
L 702.741557 67.647664 
L 704.736974 70.601312 
L 706.732392 73.091754 
L 710.723227 77.790662 
L 712.718645 80.58548 
L 714.714062 83.922514 
L 716.70948 87.811893 
L 719.370037 93.644506 
L 726.021429 108.648687 
L 728.681986 113.889495 
L 730.677403 117.372522 
L 732.672821 120.456372 
L 734.668239 123.15285 
L 736.663656 125.4904 
L 738.659074 127.508432 
L 740.654491 129.252578 
L 743.315048 131.234096 
L 745.975605 132.917865 
L 749.301301 134.722097 
L 752.626997 136.251889 
L 755.287554 137.256842 
L 757.948111 138.011002 
L 759.943528 138.378625 
L 761.938946 138.563659 
L 764.599503 138.542977 
L 767.260059 138.282541 
L 771.916034 137.547071 
L 777.902287 136.632716 
L 785.218818 135.786385 
L 803.177576 133.725223 
L 815.150082 132.123955 
L 820.471196 131.226078 
L 825.12717 130.20858 
L 829.118005 129.08559 
L 831.778562 128.128195 
L 834.439119 126.901437 
L 836.434536 125.734319 
L 838.429954 124.299947 
L 840.425372 122.564637 
L 842.420789 120.532188 
L 845.081346 117.475514 
L 849.072181 112.824562 
L 851.067599 110.817564 
L 853.063016 109.162853 
L 855.058434 107.870779 
L 857.053852 106.887732 
L 859.714408 105.914831 
L 863.040104 105.009718 
L 867.03094 104.190791 
L 870.356636 103.719345 
L 873.682332 103.446351 
L 878.338306 103.321053 
L 893.636508 103.179161 
L 895.631925 102.893297 
L 896.962204 102.552244 
L 898.292482 102.029662 
L 899.622761 101.260572 
L 900.953039 100.172262 
L 902.283317 98.690138 
L 903.613596 96.745947 
L 904.943874 94.287691 
L 906.274153 91.289899 
L 907.604431 87.762396 
L 909.599849 81.599154 
L 912.260405 72.315674 
L 915.586101 60.600248 
L 917.581519 54.303665 
L 919.576937 48.89273 
L 920.907215 45.827759 
L 922.237493 43.199434 
L 923.567772 40.99841 
L 924.89805 39.214143 
L 926.228329 37.839586 
L 927.558607 36.87197 
L 928.888885 36.310717 
L 930.219164 36.154545 
L 931.549442 36.399585 
L 932.879721 37.039999 
L 934.209999 38.071075 
L 935.540277 39.493538 
L 936.870556 41.31692 
L 938.200834 43.55977 
L 939.531113 46.245469 
L 940.861391 49.39348 
L 942.191669 53.007837 
L 944.187087 59.2439 
L 946.847644 68.671437 
L 950.838479 82.982872 
L 952.833897 89.080532 
L 954.164175 92.477462 
L 955.494453 95.272643 
L 956.824732 97.458386 
L 958.15501 99.06664 
L 959.485289 100.160143 
L 960.815567 100.821447 
L 962.145845 101.142029 
L 963.476124 101.213224 
L 965.471541 101.035758 
L 969.462377 100.508189 
L 971.457794 100.529958 
L 972.788073 100.755656 
L 974.118351 101.197246 
L 975.44863 101.891757 
L 976.778908 102.874036 
L 978.109186 104.17764 
L 979.439465 105.835436 
L 980.769743 107.879081 
L 982.100022 110.336068 
L 983.4303 113.224001 
L 984.760578 116.542671 
L 986.755996 122.261261 
L 989.416553 130.86296 
L 992.742249 141.726009 
L 994.737666 147.394943 
L 996.067945 150.558082 
L 997.398223 153.145013 
L 998.728502 155.136001 
L 1000.05878 156.555448 
L 1001.389058 157.463836 
L 1002.719337 157.945724 
L 1004.049615 158.096329 
L 1005.379894 158.009215 
L 1007.375311 157.6096 
L 1015.356982 155.621112 
L 1018.017538 155.258686 
L 1020.678095 155.115513 
L 1020.678095 155.115513 
" clip-path="url(#p3ad493bb88)" style="fill: none; stroke: #ff0000; stroke-width: 1.5; stroke-linecap: square"/>
   </g>
   <g id="line2d_14">
    <path d="M 535.791617 170.44 
L 535.791617 29.76 
" clip-path="url(#p3ad493bb88)" style="fill: none; stroke: #1f77b4; stroke-width: 1.5; stroke-linecap: square"/>
   </g>
   <g id="patch_3">
    <path d="M 50.24 170.44 
L 50.24 29.76 
" style="fill: none; stroke: #000000; stroke-width: 0.8; stroke-linejoin: miter; stroke-linecap: square"/>
   </g>
   <g id="patch_4">
    <path d="M 1069.2 170.44 
L 1069.2 29.76 
" style="fill: none; stroke: #000000; stroke-width: 0.8; stroke-linejoin: miter; stroke-linecap: square"/>
   </g>
   <g id="patch_5">
    <path d="M 50.24 170.44 
L 1069.2 170.44 
" style="fill: none; stroke: #000000; stroke-width: 0.8; stroke-linejoin: miter; stroke-linecap: square"/>
   </g>
   <g id="patch_6">
    <path d="M 50.24 29.76 
L 1069.2 29.76 
" style="fill: none; stroke: #000000; stroke-width: 0.8; stroke-linejoin: miter; stroke-linecap: square"/>
   </g>
   <g id="text_14">
    <!-- Heat Conduction Equation Solution at x=0.6M -->
    <g transform="translate(375.485 23.76) scale(0.16 -0.16)">
     <defs>
      <path id="DejaVuSans-48" d="M 628 4666 
L 1259 4666 
L 1259 2753 
L 3553 2753 
L 3553 4666 
L 4184 4666 
L 4184 0 
L 3553 0 
L 3553 2222 
L 1259 2222 
L 1259 0 
L 628 0 
L 628 4666 
z
" transform="scale(0.015625)"/>
      <path id="DejaVuSans-43" d="M 4122 4306 
L 4122 3641 
Q 3803 3938 3442 4084 
Q 3081 4231 2675 4231 
Q 1875 4231 1450 3742 
Q 1025 3253 1025 2328 
Q 1025 1406 1450 917 
Q 1875 428 2675 428 
Q 3081 428 3442 575 
Q 3803 722 4122 1019 
L 4122 359 
Q 3791 134 3420 21 
Q 3050 -91 2638 -91 
Q 1578 -91 968 557 
Q 359 1206 359 2328 
Q 359 3453 968 4101 
Q 1578 4750 2638 4750 
Q 3056 4750 3426 4639 
Q 3797 4528 4122 4306 
z
" transform="scale(0.015625)"/>
      <path id="DejaVuSans-64" d="M 2906 2969 
L 2906 4863 
L 3481 4863 
L 3481 0 
L 2906 0 
L 2906 525 
Q 2725 213 2448 61 
Q 2172 -91 1784 -91 
Q 1150 -91 751 415 
Q 353 922 353 1747 
Q 353 2572 751 3078 
Q 1150 3584 1784 3584 
Q 2172 3584 2448 3432 
Q 2725 3281 2906 2969 
z
M 947 1747 
Q 947 1113 1208 752 
Q 1469 391 1925 391 
Q 2381 391 2643 752 
Q 2906 1113 2906 1747 
Q 2906 2381 2643 2742 
Q 2381 3103 1925 3103 
Q 1469 3103 1208 2742 
Q 947 2381 947 1747 
z
" transform="scale(0.015625)"/>
      <path id="DejaVuSans-63" d="M 3122 3366 
L 3122 2828 
Q 2878 2963 2633 3030 
Q 2388 3097 2138 3097 
Q 1578 3097 1268 2742 
Q 959 2388 959 1747 
Q 959 1106 1268 751 
Q 1578 397 2138 397 
Q 2388 397 2633 464 
Q 2878 531 3122 666 
L 3122 134 
Q 2881 22 2623 -34 
Q 2366 -91 2075 -91 
Q 1284 -91 818 406 
Q 353 903 353 1747 
Q 353 2603 823 3093 
Q 1294 3584 2113 3584 
Q 2378 3584 2631 3529 
Q 2884 3475 3122 3366 
z
" transform="scale(0.015625)"/>
      <path id="DejaVuSans-45" d="M 628 4666 
L 3578 4666 
L 3578 4134 
L 1259 4134 
L 1259 2753 
L 3481 2753 
L 3481 2222 
L 1259 2222 
L 1259 531 
L 3634 531 
L 3634 0 
L 628 0 
L 628 4666 
z
" transform="scale(0.015625)"/>
      <path id="DejaVuSans-71" d="M 947 1747 
Q 947 1113 1208 752 
Q 1469 391 1925 391 
Q 2381 391 2643 752 
Q 2906 1113 2906 1747 
Q 2906 2381 2643 2742 
Q 2381 3103 1925 3103 
Q 1469 3103 1208 2742 
Q 947 2381 947 1747 
z
M 2906 525 
Q 2725 213 2448 61 
Q 2172 -91 1784 -91 
Q 1150 -91 751 415 
Q 353 922 353 1747 
Q 353 2572 751 3078 
Q 1150 3584 1784 3584 
Q 2172 3584 2448 3432 
Q 2725 3281 2906 2969 
L 2906 3500 
L 3481 3500 
L 3481 -1331 
L 2906 -1331 
L 2906 525 
z
" transform="scale(0.015625)"/>
      <path id="DejaVuSans-78" d="M 3513 3500 
L 2247 1797 
L 3578 0 
L 2900 0 
L 1881 1375 
L 863 0 
L 184 0 
L 1544 1831 
L 300 3500 
L 978 3500 
L 1906 2253 
L 2834 3500 
L 3513 3500 
z
" transform="scale(0.015625)"/>
      <path id="DejaVuSans-3d" d="M 678 2906 
L 4684 2906 
L 4684 2381 
L 678 2381 
L 678 2906 
z
M 678 1631 
L 4684 1631 
L 4684 1100 
L 678 1100 
L 678 1631 
z
" transform="scale(0.015625)"/>
      <path id="DejaVuSans-2e" d="M 684 794 
L 1344 794 
L 1344 0 
L 684 0 
L 684 794 
z
" transform="scale(0.015625)"/>
      <path id="DejaVuSans-4d" d="M 628 4666 
L 1569 4666 
L 2759 1491 
L 3956 4666 
L 4897 4666 
L 4897 0 
L 4281 0 
L 4281 4097 
L 3078 897 
L 2444 897 
L 1241 4097 
L 1241 0 
L 628 0 
L 628 4666 
z
" transform="scale(0.015625)"/>
     </defs>
     <use xlink:href="#DejaVuSans-48"/>
     <use xlink:href="#DejaVuSans-65" transform="translate(75.195312 0)"/>
     <use xlink:href="#DejaVuSans-61" transform="translate(136.71875 0)"/>
     <use xlink:href="#DejaVuSans-74" transform="translate(197.998047 0)"/>
     <use xlink:href="#DejaVuSans-20" transform="translate(237.207031 0)"/>
     <use xlink:href="#DejaVuSans-43" transform="translate(268.994141 0)"/>
     <use xlink:href="#DejaVuSans-6f" transform="translate(338.818359 0)"/>
     <use xlink:href="#DejaVuSans-6e" transform="translate(400 0)"/>
     <use xlink:href="#DejaVuSans-64" transform="translate(463.378906 0)"/>
     <use xlink:href="#DejaVuSans-75" transform="translate(526.855469 0)"/>
     <use xlink:href="#DejaVuSans-63" transform="translate(590.234375 0)"/>
     <use xlink:href="#DejaVuSans-74" transform="translate(645.214844 0)"/>
     <use xlink:href="#DejaVuSans-69" transform="translate(684.423828 0)"/>
     <use xlink:href="#DejaVuSans-6f" transform="translate(712.207031 0)"/>
     <use xlink:href="#DejaVuSans-6e" transform="translate(773.388672 0)"/>
     <use xlink:href="#DejaVuSans-20" transform="translate(836.767578 0)"/>
     <use xlink:href="#DejaVuSans-45" transform="translate(868.554688 0)"/>
     <use xlink:href="#DejaVuSans-71" transform="translate(931.738281 0)"/>
     <use xlink:href="#DejaVuSans-75" transform="translate(995.214844 0)"/>
     <use xlink:href="#DejaVuSans-61" transform="translate(1058.59375 0)"/>
     <use xlink:href="#DejaVuSans-74" transform="translate(1119.873047 0)"/>
     <use xlink:href="#DejaVuSans-69" transform="translate(1159.082031 0)"/>
     <use xlink:href="#DejaVuSans-6f" transform="translate(1186.865234 0)"/>
     <use xlink:href="#DejaVuSans-6e" transform="translate(1248.046875 0)"/>
     <use xlink:href="#DejaVuSans-20" transform="translate(1311.425781 0)"/>
     <use xlink:href="#DejaVuSans-53" transform="translate(1343.212891 0)"/>
     <use xlink:href="#DejaVuSans-6f" transform="translate(1406.689453 0)"/>
     <use xlink:href="#DejaVuSans-6c" transform="translate(1467.871094 0)"/>
     <use xlink:href="#DejaVuSans-75" transform="translate(1495.654297 0)"/>
     <use xlink:href="#DejaVuSans-74" transform="translate(1559.033203 0)"/>
     <use xlink:href="#DejaVuSans-69" transform="translate(1598.242188 0)"/>
     <use xlink:href="#DejaVuSans-6f" transform="translate(1626.025391 0)"/>
     <use xlink:href="#DejaVuSans-6e" transform="translate(1687.207031 0)"/>
     <use xlink:href="#DejaVuSans-20" transform="translate(1750.585938 0)"/>
     <use xlink:href="#DejaVuSans-61" transform="translate(1782.373047 0)"/>
     <use xlink:href="#DejaVuSans-74" transform="translate(1843.652344 0)"/>
     <use xlink:href="#DejaVuSans-20" transform="translate(1882.861328 0)"/>
     <use xlink:href="#DejaVuSans-78" transform="translate(1914.648438 0)"/>
     <use xlink:href="#DejaVuSans-3d" transform="translate(1973.828125 0)"/>
     <use xlink:href="#DejaVuSans-30" transform="translate(2057.617188 0)"/>
     <use xlink:href="#DejaVuSans-2e" transform="translate(2121.240234 0)"/>
     <use xlink:href="#DejaVuSans-36" transform="translate(2153.027344 0)"/>
     <use xlink:href="#DejaVuSans-4d" transform="translate(2216.650391 0)"/>
    </g>
   </g>
   <g id="legend_1">
    <g id="patch_7">
     <path d="M 58.64 74.5875 
L 170.114375 74.5875 
Q 172.514375 74.5875 172.514375 72.1875 
L 172.514375 38.16 
Q 172.514375 35.76 170.114375 35.76 
L 58.64 35.76 
Q 56.24 35.76 56.24 38.16 
L 56.24 72.1875 
Q 56.24 74.5875 58.64 74.5875 
z
" style="fill: #ffffff; opacity: 0.8; stroke: #cccccc; stroke-linejoin: miter"/>
    </g>
    <g id="line2d_15">
     <path d="M 61.04 45.478125 
L 73.04 45.478125 
L 85.04 45.478125 
" style="fill: none; stroke: #0000ff; stroke-width: 1.5; stroke-linecap: square"/>
    </g>
    <g id="text_15">
     <!-- Observation -->
     <g transform="translate(94.64 49.678125) scale(0.12 -0.12)">
      <defs>
       <path id="DejaVuSans-4f" d="M 2522 4238 
Q 1834 4238 1429 3725 
Q 1025 3213 1025 2328 
Q 1025 1447 1429 934 
Q 1834 422 2522 422 
Q 3209 422 3611 934 
Q 4013 1447 4013 2328 
Q 4013 3213 3611 3725 
Q 3209 4238 2522 4238 
z
M 2522 4750 
Q 3503 4750 4090 4092 
Q 4678 3434 4678 2328 
Q 4678 1225 4090 567 
Q 3503 -91 2522 -91 
Q 1538 -91 948 565 
Q 359 1222 359 2328 
Q 359 3434 948 4092 
Q 1538 4750 2522 4750 
z
" transform="scale(0.015625)"/>
       <path id="DejaVuSans-62" d="M 3116 1747 
Q 3116 2381 2855 2742 
Q 2594 3103 2138 3103 
Q 1681 3103 1420 2742 
Q 1159 2381 1159 1747 
Q 1159 1113 1420 752 
Q 1681 391 2138 391 
Q 2594 391 2855 752 
Q 3116 1113 3116 1747 
z
M 1159 2969 
Q 1341 3281 1617 3432 
Q 1894 3584 2278 3584 
Q 2916 3584 3314 3078 
Q 3713 2572 3713 1747 
Q 3713 922 3314 415 
Q 2916 -91 2278 -91 
Q 1894 -91 1617 61 
Q 1341 213 1159 525 
L 1159 0 
L 581 0 
L 581 4863 
L 1159 4863 
L 1159 2969 
z
" transform="scale(0.015625)"/>
       <path id="DejaVuSans-76" d="M 191 3500 
L 800 3500 
L 1894 563 
L 2988 3500 
L 3597 3500 
L 2284 0 
L 1503 0 
L 191 3500 
z
" transform="scale(0.015625)"/>
      </defs>
      <use xlink:href="#DejaVuSans-4f"/>
      <use xlink:href="#DejaVuSans-62" transform="translate(78.710938 0)"/>
      <use xlink:href="#DejaVuSans-73" transform="translate(142.1875 0)"/>
      <use xlink:href="#DejaVuSans-65" transform="translate(194.287109 0)"/>
      <use xlink:href="#DejaVuSans-72" transform="translate(255.810547 0)"/>
      <use xlink:href="#DejaVuSans-76" transform="translate(296.923828 0)"/>
      <use xlink:href="#DejaVuSans-61" transform="translate(356.103516 0)"/>
      <use xlink:href="#DejaVuSans-74" transform="translate(417.382812 0)"/>
      <use xlink:href="#DejaVuSans-69" transform="translate(456.591797 0)"/>
      <use xlink:href="#DejaVuSans-6f" transform="translate(484.375 0)"/>
      <use xlink:href="#DejaVuSans-6e" transform="translate(545.556641 0)"/>
     </g>
    </g>
    <g id="line2d_16">
     <path d="M 61.04 63.091875 
L 73.04 63.091875 
L 85.04 63.091875 
" style="fill: none; stroke: #ff0000; stroke-width: 1.5; stroke-linecap: square"/>
    </g>
    <g id="text_16">
     <!-- Predicted -->
     <g transform="translate(94.64 67.291875) scale(0.12 -0.12)">
      <defs>
       <path id="DejaVuSans-50" d="M 1259 4147 
L 1259 2394 
L 2053 2394 
Q 2494 2394 2734 2622 
Q 2975 2850 2975 3272 
Q 2975 3691 2734 3919 
Q 2494 4147 2053 4147 
L 1259 4147 
z
M 628 4666 
L 2053 4666 
Q 2838 4666 3239 4311 
Q 3641 3956 3641 3272 
Q 3641 2581 3239 2228 
Q 2838 1875 2053 1875 
L 1259 1875 
L 1259 0 
L 628 0 
L 628 4666 
z
" transform="scale(0.015625)"/>
      </defs>
      <use xlink:href="#DejaVuSans-50"/>
      <use xlink:href="#DejaVuSans-72" transform="translate(58.552734 0)"/>
      <use xlink:href="#DejaVuSans-65" transform="translate(97.416016 0)"/>
      <use xlink:href="#DejaVuSans-64" transform="translate(158.939453 0)"/>
      <use xlink:href="#DejaVuSans-69" transform="translate(222.416016 0)"/>
      <use xlink:href="#DejaVuSans-63" transform="translate(250.199219 0)"/>
      <use xlink:href="#DejaVuSans-74" transform="translate(305.179688 0)"/>
      <use xlink:href="#DejaVuSans-65" transform="translate(344.388672 0)"/>
      <use xlink:href="#DejaVuSans-64" transform="translate(405.912109 0)"/>
     </g>
    </g>
   </g>
  </g>
 </g>
 <defs>
  <clipPath id="p3ad493bb88">
   <rect x="50.24" y="29.76" width="1018.96" height="140.68"/>
  </clipPath>
 </defs>
</svg>
