<?xml version="1.0" encoding="utf-8" standalone="no"?>
<!DOCTYPE svg PUBLIC "-//W3C//DTD SVG 1.1//EN"
  "http://www.w3.org/Graphics/SVG/1.1/DTD/svg11.dtd">
<svg xmlns:xlink="http://www.w3.org/1999/xlink" width="1080pt" height="216pt" viewBox="0 0 1080 216" xmlns="http://www.w3.org/2000/svg" version="1.1">
 <metadata>
  <rdf:RDF xmlns:dc="http://purl.org/dc/elements/1.1/" xmlns:cc="http://creativecommons.org/ns#" xmlns:rdf="http://www.w3.org/1999/02/22-rdf-syntax-ns#">
   <cc:Work>
    <dc:type rdf:resource="http://purl.org/dc/dcmitype/StillImage"/>
    <dc:date>2026-02-09T09:40:51.610652</dc:date>
    <dc:format>image/svg+xml</dc:format>
    <dc:creator>
     <cc:Agent>
      <dc:title>Matplotlib v3.10.8, https://matplotlib.org/</dc:title>
     </cc:Agent>
    </dc:creator>
   </cc:Work>
  </rdf:RDF>
 </metadata>
 <defs>
  <style type="text/css">*{stroke-linejoin: round; stroke-linecap: butt}</style>
 </defs>
 <g id="figure_1">
  <g id="patch_1">
   <path d="M 0 216 
L 1080 216 
L 1080 0 
L 0 0 
z
" style="fill: #ffffff"/>
  </g>
  <g id="axes_1">
   <g id="patch_2">
    <path d="M 50.24 170.44 
L 1069.2 170.44 
L 1069.2 29.76 
L 50.24 29.76 
z
" style="fill: #ffffff"/>
   </g>
   <g id="matplotlib.axis_1">
    <g id="xtick_1">
     <g id="line2d_1">
      <defs>
       <path id="mbb8102da37" d="M 0 0 
L 0 3.5 
" style="stroke: #000000; stroke-width: 0.8"/>
      </defs>
      <g>
       <use xlink:href="#mbb8102da37" x="50.24" y="170.44" style="stroke: #000000; stroke-width: 0.8"/>
      </g>
     </g>
     <g id="text_1">
      <!-- 0 -->
      <g transform="translate(47.05875 185.038437) scale(0.1 -0.1)">
       <defs>
        <path id="DejaVuSans-30" d="M 2034 4250 
Q 1547 4250 1301 3770 
Q 1056 3291 1056 2328 
Q 1056 1369 1301 889 
Q 1547 409 2034 409 
Q 2525 409 2770 889 
Q 3016 1369 3016 2328 
Q 3016 3291 2770 3770 
Q 2525 4250 2034 4250 
z
M 2034 4750 
Q 2819 4750 3233 4129 
Q 3647 3509 3647 2328 
Q 3647 1150 3233 529 
Q 2819 -91 2034 -91 
Q 1250 -91 836 529 
Q 422 1150 422 2328 
Q 422 3509 836 4129 
Q 1250 4750 2034 4750 
z
" transform="scale(0.015625)"/>
       </defs>
       <use xlink:href="#DejaVuSans-30"/>
      </g>
     </g>
    </g>
    <g id="xtick_2">
     <g id="line2d_2">
      <g>
       <use xlink:href="#mbb8102da37" x="183.26784" y="170.44" style="stroke: #000000; stroke-width: 0.8"/>
      </g>
     </g>
     <g id="text_2">
      <!-- 200 -->
      <g transform="translate(173.72409 185.038437) scale(0.1 -0.1)">
       <defs>
        <path id="DejaVuSans-32" d="M 1228 531 
L 3431 531 
L 3431 0 
L 469 0 
L 469 531 
Q 828 903 1448 1529 
Q 2069 2156 2228 2338 
Q 2531 2678 2651 2914 
Q 2772 3150 2772 3378 
Q 2772 3750 2511 3984 
Q 2250 4219 1831 4219 
Q 1534 4219 1204 4116 
Q 875 4013 500 3803 
L 500 4441 
Q 881 4594 1212 4672 
Q 1544 4750 1819 4750 
Q 2544 4750 2975 4387 
Q 3406 4025 3406 3419 
Q 3406 3131 3298 2873 
Q 3191 2616 2906 2266 
Q 2828 2175 2409 1742 
Q 1991 1309 1228 531 
z
" transform="scale(0.015625)"/>
       </defs>
       <use xlink:href="#DejaVuSans-32"/>
       <use xlink:href="#DejaVuSans-30" transform="translate(63.623047 0)"/>
       <use xlink:href="#DejaVuSans-30" transform="translate(127.246094 0)"/>
      </g>
     </g>
    </g>
    <g id="xtick_3">
     <g id="line2d_3">
      <g>
       <use xlink:href="#mbb8102da37" x="316.295681" y="170.44" style="stroke: #000000; stroke-width: 0.8"/>
      </g>
     </g>
     <g id="text_3">
      <!-- 400 -->
      <g transform="translate(306.751931 185.038437) scale(0.1 -0.1)">
       <defs>
        <path id="DejaVuSans-34" d="M 2419 4116 
L 825 1625 
L 2419 1625 
L 2419 4116 
z
M 2253 4666 
L 3047 4666 
L 3047 1625 
L 3713 1625 
L 3713 1100 
L 3047 1100 
L 3047 0 
L 2419 0 
L 2419 1100 
L 313 1100 
L 313 1709 
L 2253 4666 
z
" transform="scale(0.015625)"/>
       </defs>
       <use xlink:href="#DejaVuSans-34"/>
       <use xlink:href="#DejaVuSans-30" transform="translate(63.623047 0)"/>
       <use xlink:href="#DejaVuSans-30" transform="translate(127.246094 0)"/>
      </g>
     </g>
    </g>
    <g id="xtick_4">
     <g id="line2d_4">
      <g>
       <use xlink:href="#mbb8102da37" x="449.323521" y="170.44" style="stroke: #000000; stroke-width: 0.8"/>
      </g>
     </g>
     <g id="text_4">
      <!-- 600 -->
      <g transform="translate(439.779771 185.038437) scale(0.1 -0.1)">
       <defs>
        <path id="DejaVuSans-36" d="M 2113 2584 
Q 1688 2584 1439 2293 
Q 1191 2003 1191 1497 
Q 1191 994 1439 701 
Q 1688 409 2113 409 
Q 2538 409 2786 701 
Q 3034 994 3034 1497 
Q 3034 2003 2786 2293 
Q 2538 2584 2113 2584 
z
M 3366 4563 
L 3366 3988 
Q 3128 4100 2886 4159 
Q 2644 4219 2406 4219 
Q 1781 4219 1451 3797 
Q 1122 3375 1075 2522 
Q 1259 2794 1537 2939 
Q 1816 3084 2150 3084 
Q 2853 3084 3261 2657 
Q 3669 2231 3669 1497 
Q 3669 778 3244 343 
Q 2819 -91 2113 -91 
Q 1303 -91 875 529 
Q 447 1150 447 2328 
Q 447 3434 972 4092 
Q 1497 4750 2381 4750 
Q 2619 4750 2861 4703 
Q 3103 4656 3366 4563 
z
" transform="scale(0.015625)"/>
       </defs>
       <use xlink:href="#DejaVuSans-36"/>
       <use xlink:href="#DejaVuSans-30" transform="translate(63.623047 0)"/>
       <use xlink:href="#DejaVuSans-30" transform="translate(127.246094 0)"/>
      </g>
     </g>
    </g>
    <g id="xtick_5">
     <g id="line2d_5">
      <g>
       <use xlink:href="#mbb8102da37" x="582.351361" y="170.44" style="stroke: #000000; stroke-width: 0.8"/>
      </g>
     </g>
     <g id="text_5">
      <!-- 800 -->
      <g transform="translate(572.807611 185.038437) scale(0.1 -0.1)">
       <defs>
        <path id="DejaVuSans-38" d="M 2034 2216 
Q 1584 2216 1326 1975 
Q 1069 1734 1069 1313 
Q 1069 891 1326 650 
Q 1584 409 2034 409 
Q 2484 409 2743 651 
Q 3003 894 3003 1313 
Q 3003 1734 2745 1975 
Q 2488 2216 2034 2216 
z
M 1403 2484 
Q 997 2584 770 2862 
Q 544 3141 544 3541 
Q 544 4100 942 4425 
Q 1341 4750 2034 4750 
Q 2731 4750 3128 4425 
Q 3525 4100 3525 3541 
Q 3525 3141 3298 2862 
Q 3072 2584 2669 2484 
Q 3125 2378 3379 2068 
Q 3634 1759 3634 1313 
Q 3634 634 3220 271 
Q 2806 -91 2034 -91 
Q 1263 -91 848 271 
Q 434 634 434 1313 
Q 434 1759 690 2068 
Q 947 2378 1403 2484 
z
M 1172 3481 
Q 1172 3119 1398 2916 
Q 1625 2713 2034 2713 
Q 2441 2713 2670 2916 
Q 2900 3119 2900 3481 
Q 2900 3844 2670 4047 
Q 2441 4250 2034 4250 
Q 1625 4250 1398 4047 
Q 1172 3844 1172 3481 
z
" transform="scale(0.015625)"/>
       </defs>
       <use xlink:href="#DejaVuSans-38"/>
       <use xlink:href="#DejaVuSans-30" transform="translate(63.623047 0)"/>
       <use xlink:href="#DejaVuSans-30" transform="translate(127.246094 0)"/>
      </g>
     </g>
    </g>
    <g id="xtick_6">
     <g id="line2d_6">
      <g>
       <use xlink:href="#mbb8102da37" x="715.379202" y="170.44" style="stroke: #000000; stroke-width: 0.8"/>
      </g>
     </g>
     <g id="text_6">
      <!-- 1000 -->
      <g transform="translate(702.654202 185.038437) scale(0.1 -0.1)">
       <defs>
        <path id="DejaVuSans-31" d="M 794 531 
L 1825 531 
L 1825 4091 
L 703 3866 
L 703 4441 
L 1819 4666 
L 2450 4666 
L 2450 531 
L 3481 531 
L 3481 0 
L 794 0 
L 794 531 
z
" transform="scale(0.015625)"/>
       </defs>
       <use xlink:href="#DejaVuSans-31"/>
       <use xlink:href="#DejaVuSans-30" transform="translate(63.623047 0)"/>
       <use xlink:href="#DejaVuSans-30" transform="translate(127.246094 0)"/>
       <use xlink:href="#DejaVuSans-30" transform="translate(190.869141 0)"/>
      </g>
     </g>
    </g>
    <g id="xtick_7">
     <g id="line2d_7">
      <g>
       <use xlink:href="#mbb8102da37" x="848.407042" y="170.44" style="stroke: #000000; stroke-width: 0.8"/>
      </g>
     </g>
     <g id="text_7">
      <!-- 1200 -->
      <g transform="translate(835.682042 185.038437) scale(0.1 -0.1)">
       <use xlink:href="#DejaVuSans-31"/>
       <use xlink:href="#DejaVuSans-32" transform="translate(63.623047 0)"/>
       <use xlink:href="#DejaVuSans-30" transform="translate(127.246094 0)"/>
       <use xlink:href="#DejaVuSans-30" transform="translate(190.869141 0)"/>
      </g>
     </g>
    </g>
    <g id="xtick_8">
     <g id="line2d_8">
      <g>
       <use xlink:href="#mbb8102da37" x="981.434882" y="170.44" style="stroke: #000000; stroke-width: 0.8"/>
      </g>
     </g>
     <g id="text_8">
      <!-- 1400 -->
      <g transform="translate(968.709882 185.038437) scale(0.1 -0.1)">
       <use xlink:href="#DejaVuSans-31"/>
       <use xlink:href="#DejaVuSans-34" transform="translate(63.623047 0)"/>
       <use xlink:href="#DejaVuSans-30" transform="translate(127.246094 0)"/>
       <use xlink:href="#DejaVuSans-30" transform="translate(190.869141 0)"/>
      </g>
     </g>
    </g>
    <g id="text_9">
     <!-- Simulation Days -->
     <g transform="translate(502.74 201.755937) scale(0.14 -0.14)">
      <defs>
       <path id="DejaVuSans-53" d="M 3425 4513 
L 3425 3897 
Q 3066 4069 2747 4153 
Q 2428 4238 2131 4238 
Q 1616 4238 1336 4038 
Q 1056 3838 1056 3469 
Q 1056 3159 1242 3001 
Q 1428 2844 1947 2747 
L 2328 2669 
Q 3034 2534 3370 2195 
Q 3706 1856 3706 1288 
Q 3706 609 3251 259 
Q 2797 -91 1919 -91 
Q 1588 -91 1214 -16 
Q 841 59 441 206 
L 441 856 
Q 825 641 1194 531 
Q 1563 422 1919 422 
Q 2459 422 2753 634 
Q 3047 847 3047 1241 
Q 3047 1584 2836 1778 
Q 2625 1972 2144 2069 
L 1759 2144 
Q 1053 2284 737 2584 
Q 422 2884 422 3419 
Q 422 4038 858 4394 
Q 1294 4750 2059 4750 
Q 2388 4750 2728 4690 
Q 3069 4631 3425 4513 
z
" transform="scale(0.015625)"/>
       <path id="DejaVuSans-69" d="M 603 3500 
L 1178 3500 
L 1178 0 
L 603 0 
L 603 3500 
z
M 603 4863 
L 1178 4863 
L 1178 4134 
L 603 4134 
L 603 4863 
z
" transform="scale(0.015625)"/>
       <path id="DejaVuSans-6d" d="M 3328 2828 
Q 3544 3216 3844 3400 
Q 4144 3584 4550 3584 
Q 5097 3584 5394 3201 
Q 5691 2819 5691 2113 
L 5691 0 
L 5113 0 
L 5113 2094 
Q 5113 2597 4934 2840 
Q 4756 3084 4391 3084 
Q 3944 3084 3684 2787 
Q 3425 2491 3425 1978 
L 3425 0 
L 2847 0 
L 2847 2094 
Q 2847 2600 2669 2842 
Q 2491 3084 2119 3084 
Q 1678 3084 1418 2786 
Q 1159 2488 1159 1978 
L 1159 0 
L 581 0 
L 581 3500 
L 1159 3500 
L 1159 2956 
Q 1356 3278 1631 3431 
Q 1906 3584 2284 3584 
Q 2666 3584 2933 3390 
Q 3200 3197 3328 2828 
z
" transform="scale(0.015625)"/>
       <path id="DejaVuSans-75" d="M 544 1381 
L 544 3500 
L 1119 3500 
L 1119 1403 
Q 1119 906 1312 657 
Q 1506 409 1894 409 
Q 2359 409 2629 706 
Q 2900 1003 2900 1516 
L 2900 3500 
L 3475 3500 
L 3475 0 
L 2900 0 
L 2900 538 
Q 2691 219 2414 64 
Q 2138 -91 1772 -91 
Q 1169 -91 856 284 
Q 544 659 544 1381 
z
M 1991 3584 
L 1991 3584 
z
" transform="scale(0.015625)"/>
       <path id="DejaVuSans-6c" d="M 603 4863 
L 1178 4863 
L 1178 0 
L 603 0 
L 603 4863 
z
" transform="scale(0.015625)"/>
       <path id="DejaVuSans-61" d="M 2194 1759 
Q 1497 1759 1228 1600 
Q 959 1441 959 1056 
Q 959 750 1161 570 
Q 1363 391 1709 391 
Q 2188 391 2477 730 
Q 2766 1069 2766 1631 
L 2766 1759 
L 2194 1759 
z
M 3341 1997 
L 3341 0 
L 2766 0 
L 2766 531 
Q 2569 213 2275 61 
Q 1981 -91 1556 -91 
Q 1019 -91 701 211 
Q 384 513 384 1019 
Q 384 1609 779 1909 
Q 1175 2209 1959 2209 
L 2766 2209 
L 2766 2266 
Q 2766 2663 2505 2880 
Q 2244 3097 1772 3097 
Q 1472 3097 1187 3025 
Q 903 2953 641 2809 
L 641 3341 
Q 956 3463 1253 3523 
Q 1550 3584 1831 3584 
Q 2591 3584 2966 3190 
Q 3341 2797 3341 1997 
z
" transform="scale(0.015625)"/>
       <path id="DejaVuSans-74" d="M 1172 4494 
L 1172 3500 
L 2356 3500 
L 2356 3053 
L 1172 3053 
L 1172 1153 
Q 1172 725 1289 603 
Q 1406 481 1766 481 
L 2356 481 
L 2356 0 
L 1766 0 
Q 1100 0 847 248 
Q 594 497 594 1153 
L 594 3053 
L 172 3053 
L 172 3500 
L 594 3500 
L 594 4494 
L 1172 4494 
z
" transform="scale(0.015625)"/>
       <path id="DejaVuSans-6f" d="M 1959 3097 
Q 1497 3097 1228 2736 
Q 959 2375 959 1747 
Q 959 1119 1226 758 
Q 1494 397 1959 397 
Q 2419 397 2687 759 
Q 2956 1122 2956 1747 
Q 2956 2369 2687 2733 
Q 2419 3097 1959 3097 
z
M 1959 3584 
Q 2709 3584 3137 3096 
Q 3566 2609 3566 1747 
Q 3566 888 3137 398 
Q 2709 -91 1959 -91 
Q 1206 -91 779 398 
Q 353 888 353 1747 
Q 353 2609 779 3096 
Q 1206 3584 1959 3584 
z
" transform="scale(0.015625)"/>
       <path id="DejaVuSans-6e" d="M 3513 2113 
L 3513 0 
L 2938 0 
L 2938 2094 
Q 2938 2591 2744 2837 
Q 2550 3084 2163 3084 
Q 1697 3084 1428 2787 
Q 1159 2491 1159 1978 
L 1159 0 
L 581 0 
L 581 3500 
L 1159 3500 
L 1159 2956 
Q 1366 3272 1645 3428 
Q 1925 3584 2291 3584 
Q 2894 3584 3203 3211 
Q 3513 2838 3513 2113 
z
" transform="scale(0.015625)"/>
       <path id="DejaVuSans-20" transform="scale(0.015625)"/>
       <path id="DejaVuSans-44" d="M 1259 4147 
L 1259 519 
L 2022 519 
Q 2988 519 3436 956 
Q 3884 1394 3884 2338 
Q 3884 3275 3436 3711 
Q 2988 4147 2022 4147 
L 1259 4147 
z
M 628 4666 
L 1925 4666 
Q 3281 4666 3915 4102 
Q 4550 3538 4550 2338 
Q 4550 1131 3912 565 
Q 3275 0 1925 0 
L 628 0 
L 628 4666 
z
" transform="scale(0.015625)"/>
       <path id="DejaVuSans-79" d="M 2059 -325 
Q 1816 -950 1584 -1140 
Q 1353 -1331 966 -1331 
L 506 -1331 
L 506 -850 
L 844 -850 
Q 1081 -850 1212 -737 
Q 1344 -625 1503 -206 
L 1606 56 
L 191 3500 
L 800 3500 
L 1894 763 
L 2988 3500 
L 3597 3500 
L 2059 -325 
z
" transform="scale(0.015625)"/>
       <path id="DejaVuSans-73" d="M 2834 3397 
L 2834 2853 
Q 2591 2978 2328 3040 
Q 2066 3103 1784 3103 
Q 1356 3103 1142 2972 
Q 928 2841 928 2578 
Q 928 2378 1081 2264 
Q 1234 2150 1697 2047 
L 1894 2003 
Q 2506 1872 2764 1633 
Q 3022 1394 3022 966 
Q 3022 478 2636 193 
Q 2250 -91 1575 -91 
Q 1294 -91 989 -36 
Q 684 19 347 128 
L 347 722 
Q 666 556 975 473 
Q 1284 391 1588 391 
Q 1994 391 2212 530 
Q 2431 669 2431 922 
Q 2431 1156 2273 1281 
Q 2116 1406 1581 1522 
L 1381 1569 
Q 847 1681 609 1914 
Q 372 2147 372 2553 
Q 372 3047 722 3315 
Q 1072 3584 1716 3584 
Q 2034 3584 2315 3537 
Q 2597 3491 2834 3397 
z
" transform="scale(0.015625)"/>
      </defs>
      <use xlink:href="#DejaVuSans-53"/>
      <use xlink:href="#DejaVuSans-69" transform="translate(63.476562 0)"/>
      <use xlink:href="#DejaVuSans-6d" transform="translate(91.259766 0)"/>
      <use xlink:href="#DejaVuSans-75" transform="translate(188.671875 0)"/>
      <use xlink:href="#DejaVuSans-6c" transform="translate(252.050781 0)"/>
      <use xlink:href="#DejaVuSans-61" transform="translate(279.833984 0)"/>
      <use xlink:href="#DejaVuSans-74" transform="translate(341.113281 0)"/>
      <use xlink:href="#DejaVuSans-69" transform="translate(380.322266 0)"/>
      <use xlink:href="#DejaVuSans-6f" transform="translate(408.105469 0)"/>
      <use xlink:href="#DejaVuSans-6e" transform="translate(469.287109 0)"/>
      <use xlink:href="#DejaVuSans-20" transform="translate(532.666016 0)"/>
      <use xlink:href="#DejaVuSans-44" transform="translate(564.453125 0)"/>
      <use xlink:href="#DejaVuSans-61" transform="translate(641.455078 0)"/>
      <use xlink:href="#DejaVuSans-79" transform="translate(702.734375 0)"/>
      <use xlink:href="#DejaVuSans-73" transform="translate(761.914062 0)"/>
     </g>
    </g>
   </g>
   <g id="matplotlib.axis_2">
    <g id="ytick_1">
     <g id="line2d_9">
      <defs>
       <path id="mcd089ad3e1" d="M 0 0 
L -3.5 0 
" style="stroke: #000000; stroke-width: 0.8"/>
      </defs>
      <g>
       <use xlink:href="#mcd089ad3e1" x="50.24" y="150.326278" style="stroke: #000000; stroke-width: 0.8"/>
      </g>
     </g>
     <g id="text_10">
      <!-- −4 -->
      <g transform="translate(28.497813 154.125497) scale(0.1 -0.1)">
       <defs>
        <path id="DejaVuSans-2212" d="M 678 2272 
L 4684 2272 
L 4684 1741 
L 678 1741 
L 678 2272 
z
" transform="scale(0.015625)"/>
       </defs>
       <use xlink:href="#DejaVuSans-2212"/>
       <use xlink:href="#DejaVuSans-34" transform="translate(83.789062 0)"/>
      </g>
     </g>
    </g>
    <g id="ytick_2">
     <g id="line2d_10">
      <g>
       <use xlink:href="#mcd089ad3e1" x="50.24" y="120.496507" style="stroke: #000000; stroke-width: 0.8"/>
      </g>
     </g>
     <g id="text_11">
      <!-- −3 -->
      <g transform="translate(28.497813 124.295725) scale(0.1 -0.1)">
       <defs>
        <path id="DejaVuSans-33" d="M 2597 2516 
Q 3050 2419 3304 2112 
Q 3559 1806 3559 1356 
Q 3559 666 3084 287 
Q 2609 -91 1734 -91 
Q 1441 -91 1130 -33 
Q 819 25 488 141 
L 488 750 
Q 750 597 1062 519 
Q 1375 441 1716 441 
Q 2309 441 2620 675 
Q 2931 909 2931 1356 
Q 2931 1769 2642 2001 
Q 2353 2234 1838 2234 
L 1294 2234 
L 1294 2753 
L 1863 2753 
Q 2328 2753 2575 2939 
Q 2822 3125 2822 3475 
Q 2822 3834 2567 4026 
Q 2313 4219 1838 4219 
Q 1578 4219 1281 4162 
Q 984 4106 628 3988 
L 628 4550 
Q 988 4650 1302 4700 
Q 1616 4750 1894 4750 
Q 2613 4750 3031 4423 
Q 3450 4097 3450 3541 
Q 3450 3153 3228 2886 
Q 3006 2619 2597 2516 
z
" transform="scale(0.015625)"/>
       </defs>
       <use xlink:href="#DejaVuSans-2212"/>
       <use xlink:href="#DejaVuSans-33" transform="translate(83.789062 0)"/>
      </g>
     </g>
    </g>
    <g id="ytick_3">
     <g id="line2d_11">
      <g>
       <use xlink:href="#mcd089ad3e1" x="50.24" y="90.666735" style="stroke: #000000; stroke-width: 0.8"/>
      </g>
     </g>
     <g id="text_12">
      <!-- −2 -->
      <g transform="translate(28.497813 94.465953) scale(0.1 -0.1)">
       <use xlink:href="#DejaVuSans-2212"/>
       <use xlink:href="#DejaVuSans-32" transform="translate(83.789062 0)"/>
      </g>
     </g>
    </g>
    <g id="ytick_4">
     <g id="line2d_12">
      <g>
       <use xlink:href="#mcd089ad3e1" x="50.24" y="60.836963" style="stroke: #000000; stroke-width: 0.8"/>
      </g>
     </g>
     <g id="text_13">
      <!-- −1 -->
      <g transform="translate(28.497813 64.636182) scale(0.1 -0.1)">
       <use xlink:href="#DejaVuSans-2212"/>
       <use xlink:href="#DejaVuSans-31" transform="translate(83.789062 0)"/>
      </g>
     </g>
    </g>
    <g id="ytick_5">
     <g id="line2d_13">
      <g>
       <use xlink:href="#mcd089ad3e1" x="50.24" y="31.007191" style="stroke: #000000; stroke-width: 0.8"/>
      </g>
     </g>
     <g id="text_14">
      <!-- 0 -->
      <g transform="translate(36.8775 34.80641) scale(0.1 -0.1)">
       <use xlink:href="#DejaVuSans-30"/>
      </g>
     </g>
    </g>
    <g id="text_15">
     <!-- Temperature (℃) -->
     <g transform="translate(21.58625 159.986094) rotate(-90) scale(0.14 -0.14)">
      <defs>
       <path id="DejaVuSans-54" d="M -19 4666 
L 3928 4666 
L 3928 4134 
L 2272 4134 
L 2272 0 
L 1638 0 
L 1638 4134 
L -19 4134 
L -19 4666 
z
" transform="scale(0.015625)"/>
       <path id="DejaVuSans-65" d="M 3597 1894 
L 3597 1613 
L 953 1613 
Q 991 1019 1311 708 
Q 1631 397 2203 397 
Q 2534 397 2845 478 
Q 3156 559 3463 722 
L 3463 178 
Q 3153 47 2828 -22 
Q 2503 -91 2169 -91 
Q 1331 -91 842 396 
Q 353 884 353 1716 
Q 353 2575 817 3079 
Q 1281 3584 2069 3584 
Q 2775 3584 3186 3129 
Q 3597 2675 3597 1894 
z
M 3022 2063 
Q 3016 2534 2758 2815 
Q 2500 3097 2075 3097 
Q 1594 3097 1305 2825 
Q 1016 2553 972 2059 
L 3022 2063 
z
" transform="scale(0.015625)"/>
       <path id="DejaVuSans-70" d="M 1159 525 
L 1159 -1331 
L 581 -1331 
L 581 3500 
L 1159 3500 
L 1159 2969 
Q 1341 3281 1617 3432 
Q 1894 3584 2278 3584 
Q 2916 3584 3314 3078 
Q 3713 2572 3713 1747 
Q 3713 922 3314 415 
Q 2916 -91 2278 -91 
Q 1894 -91 1617 61 
Q 1341 213 1159 525 
z
M 3116 1747 
Q 3116 2381 2855 2742 
Q 2594 3103 2138 3103 
Q 1681 3103 1420 2742 
Q 1159 2381 1159 1747 
Q 1159 1113 1420 752 
Q 1681 391 2138 391 
Q 2594 391 2855 752 
Q 3116 1113 3116 1747 
z
" transform="scale(0.015625)"/>
       <path id="DejaVuSans-72" d="M 2631 2963 
Q 2534 3019 2420 3045 
Q 2306 3072 2169 3072 
Q 1681 3072 1420 2755 
Q 1159 2438 1159 1844 
L 1159 0 
L 581 0 
L 581 3500 
L 1159 3500 
L 1159 2956 
Q 1341 3275 1631 3429 
Q 1922 3584 2338 3584 
Q 2397 3584 2469 3576 
Q 2541 3569 2628 3553 
L 2631 2963 
z
" transform="scale(0.015625)"/>
       <path id="DejaVuSans-28" d="M 1984 4856 
Q 1566 4138 1362 3434 
Q 1159 2731 1159 2009 
Q 1159 1288 1364 580 
Q 1569 -128 1984 -844 
L 1484 -844 
Q 1016 -109 783 600 
Q 550 1309 550 2009 
Q 550 2706 781 3412 
Q 1013 4119 1484 4856 
L 1984 4856 
z
" transform="scale(0.015625)"/>
       <path id="DejaVuSans-2103" d="M 1600 4347 
Q 1350 4347 1178 4173 
Q 1006 4000 1006 3750 
Q 1006 3503 1178 3333 
Q 1350 3163 1600 3163 
Q 1850 3163 2022 3333 
Q 2194 3503 2194 3750 
Q 2194 3997 2020 4172 
Q 1847 4347 1600 4347 
z
M 1600 4750 
Q 1800 4750 1984 4673 
Q 2169 4597 2303 4453 
Q 2447 4313 2519 4134 
Q 2591 3956 2591 3750 
Q 2591 3338 2302 3052 
Q 2013 2766 1594 2766 
Q 1172 2766 890 3047 
Q 609 3328 609 3750 
Q 609 4169 896 4459 
Q 1184 4750 1600 4750 
z
M 6741 4306 
L 6741 3641 
Q 6422 3938 6061 4084 
Q 5700 4231 5294 4231 
Q 4494 4231 4069 3742 
Q 3644 3253 3644 2328 
Q 3644 1406 4069 917 
Q 4494 428 5294 428 
Q 5700 428 6061 575 
Q 6422 722 6741 1019 
L 6741 359 
Q 6409 134 6039 21 
Q 5669 -91 5256 -91 
Q 4197 -91 3587 557 
Q 2978 1206 2978 2328 
Q 2978 3453 3587 4101 
Q 4197 4750 5256 4750 
Q 5675 4750 6045 4639 
Q 6416 4528 6741 4306 
z
" transform="scale(0.015625)"/>
       <path id="DejaVuSans-29" d="M 513 4856 
L 1013 4856 
Q 1481 4119 1714 3412 
Q 1947 2706 1947 2009 
Q 1947 1309 1714 600 
Q 1481 -109 1013 -844 
L 513 -844 
Q 928 -128 1133 580 
Q 1338 1288 1338 2009 
Q 1338 2731 1133 3434 
Q 928 4138 513 4856 
z
" transform="scale(0.015625)"/>
      </defs>
      <use xlink:href="#DejaVuSans-54"/>
      <use xlink:href="#DejaVuSans-65" transform="translate(44.083984 0)"/>
      <use xlink:href="#DejaVuSans-6d" transform="translate(105.607422 0)"/>
      <use xlink:href="#DejaVuSans-70" transform="translate(203.019531 0)"/>
      <use xlink:href="#DejaVuSans-65" transform="translate(266.496094 0)"/>
      <use xlink:href="#DejaVuSans-72" transform="translate(328.019531 0)"/>
      <use xlink:href="#DejaVuSans-61" transform="translate(369.132812 0)"/>
      <use xlink:href="#DejaVuSans-74" transform="translate(430.412109 0)"/>
      <use xlink:href="#DejaVuSans-75" transform="translate(469.621094 0)"/>
      <use xlink:href="#DejaVuSans-72" transform="translate(533 0)"/>
      <use xlink:href="#DejaVuSans-65" transform="translate(571.863281 0)"/>
      <use xlink:href="#DejaVuSans-20" transform="translate(633.386719 0)"/>
      <use xlink:href="#DejaVuSans-28" transform="translate(665.173828 0)"/>
      <use xlink:href="#DejaVuSans-2103" transform="translate(704.1875 0)"/>
      <use xlink:href="#DejaVuSans-29" transform="translate(816.492188 0)"/>
     </g>
    </g>
   </g>
   <g id="line2d_14">
    <path d="M 50.24 95.416837 
L 50.905139 95.573223 
L 51.570278 95.883269 
L 52.235418 96.341648 
L 53.565696 97.671019 
L 54.895974 99.480708 
L 56.226253 101.676269 
L 58.22167 105.494092 
L 60.882227 111.192273 
L 68.863898 128.964765 
L 70.859315 132.703691 
L 72.854733 135.842115 
L 74.185011 137.55556 
L 75.51529 138.950249 
L 76.845568 140.024448 
L 78.175846 140.786784 
L 79.506125 141.256253 
L 80.836403 141.461538 
L 82.166682 141.439352 
L 83.49696 141.231719 
L 85.492378 140.668047 
L 88.818074 139.383206 
L 94.139187 137.314342 
L 98.130023 136.029942 
L 104.781415 134.174475 
L 112.763085 131.957079 
L 126.731008 127.797478 
L 131.386983 126.744001 
L 138.038375 125.264574 
L 140.698931 124.482933 
L 142.694349 123.732142 
L 144.689767 122.730113 
L 146.020045 121.83852 
L 147.350323 120.686826 
L 148.680602 119.194117 
L 150.01088 117.281426 
L 151.341159 114.887604 
L 152.671437 111.986332 
L 154.001715 108.599423 
L 155.997133 102.78559 
L 161.983386 84.510523 
L 163.978803 79.550923 
L 165.309082 76.718281 
L 166.63936 74.247568 
L 167.969639 72.103201 
L 169.965056 69.404085 
L 171.960474 67.200025 
L 173.955892 65.371761 
L 175.951309 63.827816 
L 178.611866 62.09609 
L 181.272423 60.632318 
L 184.598119 59.054088 
L 189.254093 57.119336 
L 195.905485 54.627928 
L 201.891738 52.600041 
L 206.547712 51.23579 
L 211.203687 50.119003 
L 216.5248 49.111373 
L 223.176192 48.096761 
L 229.827584 47.29794 
L 234.483559 46.926618 
L 237.144116 46.87786 
L 239.139533 47.029236 
L 240.469812 47.287824 
L 241.80009 47.733227 
L 243.130368 48.42708 
L 244.460647 49.431834 
L 245.790925 50.799358 
L 247.121204 52.557307 
L 248.451482 54.696792 
L 250.4469 58.495158 
L 255.768013 69.359356 
L 257.763431 72.652944 
L 259.758849 75.319621 
L 261.754266 77.541055 
L 265.079962 81.125161 
L 267.07538 83.698817 
L 269.070797 86.770146 
L 271.731354 91.493554 
L 275.722189 98.779878 
L 277.717607 102.031583 
L 279.713025 104.91094 
L 282.373581 108.292228 
L 293.015809 120.919722 
L 295.011226 122.821638 
L 296.341505 123.835545 
L 297.671783 124.6258 
L 299.002061 125.196977 
L 300.33234 125.571125 
L 302.327757 125.840435 
L 304.988314 125.87184 
L 308.979149 125.829469 
L 310.974567 126.003479 
L 312.969985 126.447617 
L 314.300263 126.943494 
L 315.630541 127.627124 
L 316.96082 128.51269 
L 318.291098 129.603084 
L 320.286516 131.59945 
L 322.281933 133.954239 
L 325.607629 138.315917 
L 328.933326 142.622587 
L 331.593882 145.740876 
L 342.23611 157.472496 
L 343.566388 158.640698 
L 344.896666 159.503402 
L 346.226945 159.974405 
L 346.892084 160.04287 
L 347.557223 159.993587 
L 348.222362 159.824961 
L 349.552641 159.136859 
L 350.882919 158.019104 
L 352.213198 156.54876 
L 354.208615 153.906399 
L 358.86459 147.417435 
L 361.525146 144.202956 
L 364.185703 141.373956 
L 371.502234 134.011411 
L 372.832513 132.329835 
L 374.162791 130.34044 
L 375.49307 127.944753 
L 376.823348 125.064396 
L 378.153626 121.661585 
L 379.483905 117.75459 
L 381.479322 111.137737 
L 386.800436 92.740365 
L 388.795854 86.952055 
L 390.126132 83.62737 
L 391.45641 80.723966 
L 392.786689 78.206467 
L 394.116967 76.026045 
L 396.112385 73.27347 
L 398.107802 71.000983 
L 400.10322 69.080324 
L 402.763777 66.904747 
L 405.424334 65.022197 
L 409.415169 62.50374 
L 414.736283 59.443995 
L 418.727118 57.382842 
L 422.717953 55.55648 
L 428.704206 53.105824 
L 435.355598 50.63128 
L 440.676711 48.885929 
L 445.997825 47.37102 
L 451.318939 46.067126 
L 456.640052 44.976037 
L 463.291444 43.86552 
L 468.612558 43.178571 
L 473.933671 42.729831 
L 481.250203 42.384042 
L 493.222708 42.010122 
L 495.883265 42.121276 
L 497.878683 42.402278 
L 499.208961 42.758854 
L 500.53924 43.319807 
L 501.869518 44.159085 
L 503.199796 45.358929 
L 504.530075 47.001858 
L 505.860353 49.159928 
L 507.190632 51.883332 
L 508.52091 55.191041 
L 509.851188 59.065679 
L 511.846606 65.81579 
L 513.842024 73.418883 
L 521.823694 105.077931 
L 523.819112 111.739825 
L 525.814529 117.438794 
L 527.144808 120.641768 
L 528.475086 123.355541 
L 529.805364 125.598005 
L 531.135643 127.411757 
L 532.465921 128.859456 
L 533.7962 130.016227 
L 535.791617 131.37754 
L 539.117313 133.220317 
L 542.443009 135.154621 
L 545.103566 136.973036 
L 549.094401 140.058822 
L 556.410932 146.036879 
L 559.071489 148.477895 
L 563.062324 152.522042 
L 565.722881 155.091552 
L 567.718299 156.676853 
L 569.048577 157.509276 
L 570.378856 158.157988 
L 572.374273 158.843738 
L 579.025665 160.667104 
L 581.686222 161.857267 
L 585.011918 163.382984 
L 586.342197 163.807161 
L 587.672475 164.02769 
L 589.002753 163.995414 
L 590.333032 163.682636 
L 591.66331 163.087275 
L 592.993589 162.232594 
L 594.989006 160.564045 
L 597.649563 157.922406 
L 602.305537 153.243967 
L 604.966094 150.859481 
L 608.29179 148.212499 
L 611.617486 145.900778 
L 614.943182 143.896412 
L 622.259713 139.720979 
L 623.589992 138.671615 
L 624.92027 137.361511 
L 626.250549 135.688131 
L 627.580827 133.545126 
L 628.911105 130.838769 
L 630.241384 127.507908 
L 631.571662 123.542777 
L 633.56708 116.540682 
L 636.227637 105.983391 
L 638.888193 95.427608 
L 640.883611 88.332596 
L 642.213889 84.184383 
L 643.544168 80.538754 
L 644.874446 77.380821 
L 646.204725 74.668192 
L 647.535003 72.343963 
L 648.865282 70.347212 
L 650.860699 67.841352 
L 652.856117 65.778842 
L 654.851534 64.034692 
L 657.512091 62.051093 
L 660.837787 59.923167 
L 664.828622 57.670922 
L 668.819458 55.643865 
L 672.145154 54.16024 
L 675.47085 52.942107 
L 678.131406 52.182935 
L 681.457102 51.469157 
L 686.113077 50.750009 
L 705.402114 48.089697 
L 722.695733 44.757674 
L 728.016847 44.156412 
L 734.668239 43.666787 
L 738.659074 43.554428 
L 741.319631 43.70457 
L 743.315048 44.065506 
L 744.645327 44.488157 
L 745.975605 45.10159 
L 747.305883 45.943189 
L 748.636162 47.044252 
L 749.96644 48.425793 
L 751.296719 50.095445 
L 752.626997 52.045877 
L 754.622415 55.444789 
L 757.282971 60.634424 
L 763.269224 72.69176 
L 765.264642 76.149778 
L 767.260059 79.165451 
L 769.255477 81.75146 
L 771.250895 83.96479 
L 773.246312 85.877862 
L 775.906869 88.077349 
L 778.567426 89.987498 
L 781.893122 92.102789 
L 787.879375 95.563174 
L 791.87021 97.669793 
L 794.530767 98.825255 
L 797.191323 99.732202 
L 801.182159 100.809249 
L 806.503272 102.071573 
L 809.163829 102.509949 
L 811.824386 102.706488 
L 814.484943 102.67557 
L 820.471196 102.498532 
L 823.131752 102.732503 
L 825.792309 103.208695 
L 835.104258 105.166324 
L 837.099676 105.252395 
L 838.429954 105.117577 
L 839.760232 104.763953 
L 841.090511 104.133265 
L 842.420789 103.176437 
L 843.751068 101.866226 
L 845.081346 100.208295 
L 847.076764 97.176749 
L 853.063016 87.21512 
L 855.058434 84.541881 
L 857.053852 82.280544 
L 864.370383 74.629525 
L 867.03094 71.296068 
L 872.352053 64.527727 
L 874.347471 62.32929 
L 876.342888 60.403508 
L 878.338306 58.739079 
L 880.333724 57.304605 
L 882.99428 55.691665 
L 885.654837 54.35916 
L 888.315394 53.249786 
L 891.64109 52.102933 
L 895.631925 50.99455 
L 899.622761 50.126129 
L 904.943874 49.234819 
L 912.925545 48.1544 
L 923.567772 46.725762 
L 928.223746 45.822928 
L 934.209999 44.374902 
L 944.187087 41.929016 
L 948.843061 41.02461 
L 953.499036 40.358184 
L 958.15501 39.935201 
L 964.806402 39.603041 
L 978.774326 39.202168 
L 984.760578 39.119638 
L 986.755996 39.328144 
L 988.086274 39.665652 
L 989.416553 40.260031 
L 990.746831 41.215794 
L 992.07711 42.645175 
L 993.407388 44.65118 
L 994.737666 47.305845 
L 996.067945 50.62874 
L 997.398223 54.572038 
L 999.393641 61.376395 
L 1004.049615 78.029425 
L 1006.045033 84.079278 
L 1007.375311 87.530072 
L 1008.70559 90.521963 
L 1010.035868 93.100053 
L 1011.366146 95.323246 
L 1012.696425 97.246905 
L 1014.026703 98.910061 
L 1015.356982 100.328911 
L 1016.68726 101.49688 
L 1018.017538 102.390542 
L 1019.347817 102.979526 
L 1020.678095 103.237413 
L 1020.678095 103.237413 
" clip-path="url(#p37c8def1e4)" style="fill: none; stroke: #0000ff; stroke-width: 1.5; stroke-linecap: square"/>
   </g>
   <g id="line2d_15">
    <path d="M 50.24 91.431912 
L 50.905139 91.582323 
L 51.570278 91.881395 
L 52.235418 92.325709 
L 53.565696 93.628693 
L 54.895974 95.435859 
L 56.226253 97.676557 
L 58.22167 101.678734 
L 60.882227 107.806409 
L 68.198758 125.302549 
L 70.194176 129.373869 
L 72.189594 132.863351 
L 73.519872 134.818574 
L 74.85015 136.455629 
L 76.180429 137.766586 
L 77.510707 138.753806 
L 78.840986 139.430766 
L 80.171264 139.822138 
L 81.501542 139.962514 
L 82.831821 139.893535 
L 84.827238 139.495179 
L 87.487795 138.628841 
L 93.474048 136.2798 
L 107.441971 130.8946 
L 110.767667 129.784998 
L 114.093363 128.927998 
L 126.731008 126.125049 
L 140.698931 122.307115 
L 142.694349 121.403951 
L 144.024627 120.618861 
L 145.354906 119.626769 
L 146.685184 118.366862 
L 148.015463 116.776469 
L 149.345741 114.79991 
L 150.676019 112.399207 
L 152.006298 109.564254 
L 154.001715 104.562276 
L 156.662272 96.899951 
L 160.653107 85.119443 
L 162.648525 79.863945 
L 164.643943 75.300143 
L 166.63936 71.47303 
L 167.969639 69.314867 
L 169.299917 67.445876 
L 170.630196 65.83798 
L 172.625613 63.845327 
L 174.621031 62.250517 
L 176.616448 60.93365 
L 179.942144 59.07707 
L 186.593536 55.744773 
L 192.579789 52.975615 
L 197.235764 51.069194 
L 201.226599 49.686337 
L 205.882573 48.357858 
L 222.511053 44.068863 
L 225.836749 43.569598 
L 230.492724 43.186669 
L 236.478976 42.829063 
L 238.474394 42.931311 
L 239.804672 43.164789 
L 241.134951 43.581489 
L 242.465229 44.222837 
L 243.795508 45.123754 
L 245.125786 46.308221 
L 246.456064 47.784839 
L 247.786343 49.543246 
L 249.781761 52.636226 
L 252.442317 57.306438 
L 256.433153 64.337276 
L 259.093709 68.45684 
L 261.754266 72.112002 
L 265.745101 77.492273 
L 268.405658 81.535471 
L 271.066215 86.071395 
L 278.382746 99.030755 
L 281.043303 103.049111 
L 283.70386 106.558144 
L 286.364417 109.678515 
L 289.690113 113.220021 
L 293.015809 116.415458 
L 295.676365 118.633952 
L 297.671783 120.036604 
L 299.667201 121.189141 
L 301.662618 122.099111 
L 304.323175 123.003313 
L 308.31401 124.009259 
L 311.639706 124.918595 
L 313.635124 125.66888 
L 315.630541 126.675238 
L 317.625959 128.004053 
L 319.621377 129.687514 
L 321.616794 131.712733 
L 324.277351 134.842805 
L 328.268186 140.022262 
L 332.259022 145.141182 
L 334.919578 148.261324 
L 337.580135 151.044175 
L 339.575553 152.871781 
L 341.57097 154.433115 
L 343.566388 155.657996 
L 344.896666 156.237564 
L 346.226945 156.585695 
L 347.557223 156.666957 
L 348.887502 156.452559 
L 350.21778 155.926458 
L 351.548058 155.090233 
L 352.878337 153.96573 
L 354.208615 152.594528 
L 356.204033 150.203775 
L 362.855425 141.852684 
L 365.515982 139.020868 
L 370.837095 133.544215 
L 372.832513 131.005995 
L 374.162791 128.984723 
L 375.49307 126.625711 
L 376.823348 123.882715 
L 378.153626 120.735533 
L 380.149044 115.29545 
L 382.809601 107.043622 
L 387.465575 92.263159 
L 389.460993 86.687942 
L 391.45641 81.849792 
L 393.451828 77.782719 
L 394.782106 75.478578 
L 396.112385 73.470638 
L 398.107802 70.943587 
L 400.10322 68.892231 
L 402.098638 67.195553 
L 404.759194 65.293214 
L 408.75003 62.80731 
L 414.736283 59.364532 
L 418.061979 57.689602 
L 422.052814 55.968119 
L 428.704206 53.134153 
L 434.025319 50.850369 
L 437.351015 49.678318 
L 441.341851 48.540989 
L 446.662964 47.286605 
L 452.649217 46.103662 
L 458.63547 45.140172 
L 466.61714 44.093072 
L 474.598811 43.226697 
L 483.910759 42.529341 
L 487.901595 42.345668 
L 490.562152 42.391891 
L 493.222708 42.656109 
L 495.218126 43.063121 
L 497.213544 43.747483 
L 498.543822 44.425049 
L 499.8741 45.337803 
L 501.204379 46.538934 
L 502.534657 48.078825 
L 503.864936 49.999493 
L 505.195214 52.329889 
L 506.525492 55.082713 
L 507.855771 58.253215 
L 509.851188 63.742132 
L 511.846606 69.99443 
L 514.507163 79.218473 
L 522.488833 107.816231 
L 524.484251 113.729593 
L 525.814529 117.143823 
L 527.144808 120.108428 
L 528.475086 122.635446 
L 529.805364 124.765773 
L 531.135643 126.562115 
L 533.13106 128.794499 
L 535.791617 131.291292 
L 542.443009 137.301911 
L 549.094401 143.44455 
L 552.420097 146.172133 
L 555.745793 148.601462 
L 559.736628 151.204621 
L 563.062324 153.096676 
L 565.722881 154.30793 
L 567.718299 154.962971 
L 569.713717 155.364698 
L 571.709134 155.510493 
L 573.704552 155.42542 
L 576.365109 155.028159 
L 579.690805 154.227494 
L 583.68164 153.010337 
L 588.337614 151.360601 
L 594.989006 148.721746 
L 602.305537 145.636516 
L 604.966094 144.275591 
L 606.961512 143.037944 
L 608.956929 141.546599 
L 610.952347 139.763116 
L 612.947765 137.677437 
L 614.943182 135.301278 
L 617.603739 131.710507 
L 620.264296 127.650937 
L 622.924853 123.122104 
L 625.585409 118.170522 
L 630.906523 107.632244 
L 635.562497 98.601042 
L 642.213889 86.269239 
L 649.530421 73.049307 
L 653.521256 66.31572 
L 656.181813 62.22922 
L 658.17723 59.474297 
L 660.172648 57.052448 
L 662.168066 55.003331 
L 664.163483 53.328077 
L 666.158901 51.984507 
L 668.154318 50.899099 
L 670.814875 49.71098 
L 675.47085 47.939173 
L 680.791963 46.125454 
L 684.782798 44.983075 
L 690.103912 43.734057 
L 701.411278 41.187859 
L 704.736974 40.125396 
L 709.392949 38.332634 
L 712.718645 37.128372 
L 714.714062 36.584929 
L 716.70948 36.248611 
L 718.704898 36.154545 
L 720.700315 36.31088 
L 722.695733 36.704449 
L 724.69115 37.316123 
L 726.686568 38.13889 
L 728.681986 39.188622 
L 730.677403 40.500386 
L 732.672821 42.110744 
L 734.668239 44.034984 
L 736.663656 46.251857 
L 739.324213 49.560215 
L 745.310466 57.576213 
L 749.301301 62.743181 
L 752.626997 66.744408 
L 755.952693 70.405097 
L 759.278389 73.69257 
L 762.604085 76.628477 
L 767.925199 80.910247 
L 771.916034 84.259876 
L 774.576591 86.77436 
L 777.237147 89.562978 
L 785.883957 99.030648 
L 787.214235 100.138836 
L 788.544514 101.02902 
L 789.874792 101.666942 
L 791.205071 102.033678 
L 792.535349 102.129149 
L 793.865627 101.972444 
L 795.195906 101.598923 
L 797.191323 100.734321 
L 800.517019 98.889028 
L 803.842715 97.059217 
L 806.503272 95.841853 
L 809.163829 94.914708 
L 811.824386 94.261403 
L 815.150082 93.724939 
L 819.806056 93.237058 
L 833.77398 91.951285 
L 835.769397 91.472862 
L 837.764815 90.769531 
L 839.760232 89.790454 
L 841.75565 88.5076 
L 843.751068 86.924134 
L 845.746485 85.075082 
L 848.407042 82.298131 
L 852.397877 77.760476 
L 859.714408 69.052218 
L 869.691496 57.117569 
L 872.352053 54.385026 
L 874.347471 52.649003 
L 876.342888 51.227352 
L 878.338306 50.113742 
L 880.333724 49.259235 
L 882.99428 48.394963 
L 887.650255 47.197634 
L 900.2879 44.198332 
L 905.609013 43.182256 
L 911.595266 42.274909 
L 918.246658 41.480498 
L 923.567772 41.050624 
L 928.223746 40.905451 
L 932.879721 41.005173 
L 937.535695 41.334711 
L 950.17334 42.405956 
L 953.499036 42.371961 
L 964.141263 42.02127 
L 966.80182 42.250526 
L 969.462377 42.674706 
L 972.122934 43.303048 
L 974.78349 44.161349 
L 976.778908 44.989374 
L 978.774326 46.017461 
L 980.769743 47.293989 
L 982.765161 48.866387 
L 984.760578 50.764366 
L 986.755996 52.982325 
L 989.416553 56.344056 
L 996.733084 65.974697 
L 998.728502 68.074994 
L 1000.05878 69.193444 
L 1001.389058 70.01849 
L 1002.719337 70.487997 
L 1004.049615 70.541412 
L 1004.714754 70.395296 
L 1005.379894 70.126788 
L 1006.710172 69.20887 
L 1008.04045 67.776921 
L 1009.370729 65.851557 
L 1010.701007 63.489874 
L 1012.696425 59.35167 
L 1016.022121 52.18622 
L 1017.352399 49.804264 
L 1018.682678 48.00349 
L 1019.347817 47.373643 
L 1020.012956 46.945189 
L 1020.678095 46.72835 
L 1020.678095 46.72835 
" clip-path="url(#p37c8def1e4)" style="fill: none; stroke: #ff0000; stroke-width: 1.5; stroke-linecap: square"/>
   </g>
   <g id="line2d_16">
    <path d="M 535.791617 170.44 
L 535.791617 29.76 
" clip-path="url(#p37c8def1e4)" style="fill: none; stroke: #1f77b4; stroke-width: 1.5; stroke-linecap: square"/>
   </g>
   <g id="patch_3">
    <path d="M 50.24 170.44 
L 50.24 29.76 
" style="fill: none; stroke: #000000; stroke-width: 0.8; stroke-linejoin: miter; stroke-linecap: square"/>
   </g>
   <g id="patch_4">
    <path d="M 1069.2 170.44 
L 1069.2 29.76 
" style="fill: none; stroke: #000000; stroke-width: 0.8; stroke-linejoin: miter; stroke-linecap: square"/>
   </g>
   <g id="patch_5">
    <path d="M 50.24 170.44 
L 1069.2 170.44 
" style="fill: none; stroke: #000000; stroke-width: 0.8; stroke-linejoin: miter; stroke-linecap: square"/>
   </g>
   <g id="patch_6">
    <path d="M 50.24 29.76 
L 1069.2 29.76 
" style="fill: none; stroke: #000000; stroke-width: 0.8; stroke-linejoin: miter; stroke-linecap: square"/>
   </g>
   <g id="text_16">
    <!-- Heat Conduction Equation Solution at x=2.5M -->
    <g transform="translate(375.485 23.76) scale(0.16 -0.16)">
     <defs>
      <path id="DejaVuSans-48" d="M 628 4666 
L 1259 4666 
L 1259 2753 
L 3553 2753 
L 3553 4666 
L 4184 4666 
L 4184 0 
L 3553 0 
L 3553 2222 
L 1259 2222 
L 1259 0 
L 628 0 
L 628 4666 
z
" transform="scale(0.015625)"/>
      <path id="DejaVuSans-43" d="M 4122 4306 
L 4122 3641 
Q 3803 3938 3442 4084 
Q 3081 4231 2675 4231 
Q 1875 4231 1450 3742 
Q 1025 3253 1025 2328 
Q 1025 1406 1450 917 
Q 1875 428 2675 428 
Q 3081 428 3442 575 
Q 3803 722 4122 1019 
L 4122 359 
Q 3791 134 3420 21 
Q 3050 -91 2638 -91 
Q 1578 -91 968 557 
Q 359 1206 359 2328 
Q 359 3453 968 4101 
Q 1578 4750 2638 4750 
Q 3056 4750 3426 4639 
Q 3797 4528 4122 4306 
z
" transform="scale(0.015625)"/>
      <path id="DejaVuSans-64" d="M 2906 2969 
L 2906 4863 
L 3481 4863 
L 3481 0 
L 2906 0 
L 2906 525 
Q 2725 213 2448 61 
Q 2172 -91 1784 -91 
Q 1150 -91 751 415 
Q 353 922 353 1747 
Q 353 2572 751 3078 
Q 1150 3584 1784 3584 
Q 2172 3584 2448 3432 
Q 2725 3281 2906 2969 
z
M 947 1747 
Q 947 1113 1208 752 
Q 1469 391 1925 391 
Q 2381 391 2643 752 
Q 2906 1113 2906 1747 
Q 2906 2381 2643 2742 
Q 2381 3103 1925 3103 
Q 1469 3103 1208 2742 
Q 947 2381 947 1747 
z
" transform="scale(0.015625)"/>
      <path id="DejaVuSans-63" d="M 3122 3366 
L 3122 2828 
Q 2878 2963 2633 3030 
Q 2388 3097 2138 3097 
Q 1578 3097 1268 2742 
Q 959 2388 959 1747 
Q 959 1106 1268 751 
Q 1578 397 2138 397 
Q 2388 397 2633 464 
Q 2878 531 3122 666 
L 3122 134 
Q 2881 22 2623 -34 
Q 2366 -91 2075 -91 
Q 1284 -91 818 406 
Q 353 903 353 1747 
Q 353 2603 823 3093 
Q 1294 3584 2113 3584 
Q 2378 3584 2631 3529 
Q 2884 3475 3122 3366 
z
" transform="scale(0.015625)"/>
      <path id="DejaVuSans-45" d="M 628 4666 
L 3578 4666 
L 3578 4134 
L 1259 4134 
L 1259 2753 
L 3481 2753 
L 3481 2222 
L 1259 2222 
L 1259 531 
L 3634 531 
L 3634 0 
L 628 0 
L 628 4666 
z
" transform="scale(0.015625)"/>
      <path id="DejaVuSans-71" d="M 947 1747 
Q 947 1113 1208 752 
Q 1469 391 1925 391 
Q 2381 391 2643 752 
Q 2906 1113 2906 1747 
Q 2906 2381 2643 2742 
Q 2381 3103 1925 3103 
Q 1469 3103 1208 2742 
Q 947 2381 947 1747 
z
M 2906 525 
Q 2725 213 2448 61 
Q 2172 -91 1784 -91 
Q 1150 -91 751 415 
Q 353 922 353 1747 
Q 353 2572 751 3078 
Q 1150 3584 1784 3584 
Q 2172 3584 2448 3432 
Q 2725 3281 2906 2969 
L 2906 3500 
L 3481 3500 
L 3481 -1331 
L 2906 -1331 
L 2906 525 
z
" transform="scale(0.015625)"/>
      <path id="DejaVuSans-78" d="M 3513 3500 
L 2247 1797 
L 3578 0 
L 2900 0 
L 1881 1375 
L 863 0 
L 184 0 
L 1544 1831 
L 300 3500 
L 978 3500 
L 1906 2253 
L 2834 3500 
L 3513 3500 
z
" transform="scale(0.015625)"/>
      <path id="DejaVuSans-3d" d="M 678 2906 
L 4684 2906 
L 4684 2381 
L 678 2381 
L 678 2906 
z
M 678 1631 
L 4684 1631 
L 4684 1100 
L 678 1100 
L 678 1631 
z
" transform="scale(0.015625)"/>
      <path id="DejaVuSans-2e" d="M 684 794 
L 1344 794 
L 1344 0 
L 684 0 
L 684 794 
z
" transform="scale(0.015625)"/>
      <path id="DejaVuSans-35" d="M 691 4666 
L 3169 4666 
L 3169 4134 
L 1269 4134 
L 1269 2991 
Q 1406 3038 1543 3061 
Q 1681 3084 1819 3084 
Q 2600 3084 3056 2656 
Q 3513 2228 3513 1497 
Q 3513 744 3044 326 
Q 2575 -91 1722 -91 
Q 1428 -91 1123 -41 
Q 819 9 494 109 
L 494 744 
Q 775 591 1075 516 
Q 1375 441 1709 441 
Q 2250 441 2565 725 
Q 2881 1009 2881 1497 
Q 2881 1984 2565 2268 
Q 2250 2553 1709 2553 
Q 1456 2553 1204 2497 
Q 953 2441 691 2322 
L 691 4666 
z
" transform="scale(0.015625)"/>
      <path id="DejaVuSans-4d" d="M 628 4666 
L 1569 4666 
L 2759 1491 
L 3956 4666 
L 4897 4666 
L 4897 0 
L 4281 0 
L 4281 4097 
L 3078 897 
L 2444 897 
L 1241 4097 
L 1241 0 
L 628 0 
L 628 4666 
z
" transform="scale(0.015625)"/>
     </defs>
     <use xlink:href="#DejaVuSans-48"/>
     <use xlink:href="#DejaVuSans-65" transform="translate(75.195312 0)"/>
     <use xlink:href="#DejaVuSans-61" transform="translate(136.71875 0)"/>
     <use xlink:href="#DejaVuSans-74" transform="translate(197.998047 0)"/>
     <use xlink:href="#DejaVuSans-20" transform="translate(237.207031 0)"/>
     <use xlink:href="#DejaVuSans-43" transform="translate(268.994141 0)"/>
     <use xlink:href="#DejaVuSans-6f" transform="translate(338.818359 0)"/>
     <use xlink:href="#DejaVuSans-6e" transform="translate(400 0)"/>
     <use xlink:href="#DejaVuSans-64" transform="translate(463.378906 0)"/>
     <use xlink:href="#DejaVuSans-75" transform="translate(526.855469 0)"/>
     <use xlink:href="#DejaVuSans-63" transform="translate(590.234375 0)"/>
     <use xlink:href="#DejaVuSans-74" transform="translate(645.214844 0)"/>
     <use xlink:href="#DejaVuSans-69" transform="translate(684.423828 0)"/>
     <use xlink:href="#DejaVuSans-6f" transform="translate(712.207031 0)"/>
     <use xlink:href="#DejaVuSans-6e" transform="translate(773.388672 0)"/>
     <use xlink:href="#DejaVuSans-20" transform="translate(836.767578 0)"/>
     <use xlink:href="#DejaVuSans-45" transform="translate(868.554688 0)"/>
     <use xlink:href="#DejaVuSans-71" transform="translate(931.738281 0)"/>
     <use xlink:href="#DejaVuSans-75" transform="translate(995.214844 0)"/>
     <use xlink:href="#DejaVuSans-61" transform="translate(1058.59375 0)"/>
     <use xlink:href="#DejaVuSans-74" transform="translate(1119.873047 0)"/>
     <use xlink:href="#DejaVuSans-69" transform="translate(1159.082031 0)"/>
     <use xlink:href="#DejaVuSans-6f" transform="translate(1186.865234 0)"/>
     <use xlink:href="#DejaVuSans-6e" transform="translate(1248.046875 0)"/>
     <use xlink:href="#DejaVuSans-20" transform="translate(1311.425781 0)"/>
     <use xlink:href="#DejaVuSans-53" transform="translate(1343.212891 0)"/>
     <use xlink:href="#DejaVuSans-6f" transform="translate(1406.689453 0)"/>
     <use xlink:href="#DejaVuSans-6c" transform="translate(1467.871094 0)"/>
     <use xlink:href="#DejaVuSans-75" transform="translate(1495.654297 0)"/>
     <use xlink:href="#DejaVuSans-74" transform="translate(1559.033203 0)"/>
     <use xlink:href="#DejaVuSans-69" transform="translate(1598.242188 0)"/>
     <use xlink:href="#DejaVuSans-6f" transform="translate(1626.025391 0)"/>
     <use xlink:href="#DejaVuSans-6e" transform="translate(1687.207031 0)"/>
     <use xlink:href="#DejaVuSans-20" transform="translate(1750.585938 0)"/>
     <use xlink:href="#DejaVuSans-61" transform="translate(1782.373047 0)"/>
     <use xlink:href="#DejaVuSans-74" transform="translate(1843.652344 0)"/>
     <use xlink:href="#DejaVuSans-20" transform="translate(1882.861328 0)"/>
     <use xlink:href="#DejaVuSans-78" transform="translate(1914.648438 0)"/>
     <use xlink:href="#DejaVuSans-3d" transform="translate(1973.828125 0)"/>
     <use xlink:href="#DejaVuSans-32" transform="translate(2057.617188 0)"/>
     <use xlink:href="#DejaVuSans-2e" transform="translate(2121.240234 0)"/>
     <use xlink:href="#DejaVuSans-35" transform="translate(2153.027344 0)"/>
     <use xlink:href="#DejaVuSans-4d" transform="translate(2216.650391 0)"/>
    </g>
   </g>
   <g id="legend_1">
    <g id="patch_7">
     <path d="M 949.325625 164.44 
L 1060.8 164.44 
Q 1063.2 164.44 1063.2 162.04 
L 1063.2 128.0125 
Q 1063.2 125.6125 1060.8 125.6125 
L 949.325625 125.6125 
Q 946.925625 125.6125 946.925625 128.0125 
L 946.925625 162.04 
Q 946.925625 164.44 949.325625 164.44 
z
" style="fill: #ffffff; opacity: 0.8; stroke: #cccccc; stroke-linejoin: miter"/>
    </g>
    <g id="line2d_17">
     <path d="M 951.725625 135.330625 
L 963.725625 135.330625 
L 975.725625 135.330625 
" style="fill: none; stroke: #0000ff; stroke-width: 1.5; stroke-linecap: square"/>
    </g>
    <g id="text_17">
     <!-- Observation -->
     <g transform="translate(985.325625 139.530625) scale(0.12 -0.12)">
      <defs>
       <path id="DejaVuSans-4f" d="M 2522 4238 
Q 1834 4238 1429 3725 
Q 1025 3213 1025 2328 
Q 1025 1447 1429 934 
Q 1834 422 2522 422 
Q 3209 422 3611 934 
Q 4013 1447 4013 2328 
Q 4013 3213 3611 3725 
Q 3209 4238 2522 4238 
z
M 2522 4750 
Q 3503 4750 4090 4092 
Q 4678 3434 4678 2328 
Q 4678 1225 4090 567 
Q 3503 -91 2522 -91 
Q 1538 -91 948 565 
Q 359 1222 359 2328 
Q 359 3434 948 4092 
Q 1538 4750 2522 4750 
z
" transform="scale(0.015625)"/>
       <path id="DejaVuSans-62" d="M 3116 1747 
Q 3116 2381 2855 2742 
Q 2594 3103 2138 3103 
Q 1681 3103 1420 2742 
Q 1159 2381 1159 1747 
Q 1159 1113 1420 752 
Q 1681 391 2138 391 
Q 2594 391 2855 752 
Q 3116 1113 3116 1747 
z
M 1159 2969 
Q 1341 3281 1617 3432 
Q 1894 3584 2278 3584 
Q 2916 3584 3314 3078 
Q 3713 2572 3713 1747 
Q 3713 922 3314 415 
Q 2916 -91 2278 -91 
Q 1894 -91 1617 61 
Q 1341 213 1159 525 
L 1159 0 
L 581 0 
L 581 4863 
L 1159 4863 
L 1159 2969 
z
" transform="scale(0.015625)"/>
       <path id="DejaVuSans-76" d="M 191 3500 
L 800 3500 
L 1894 563 
L 2988 3500 
L 3597 3500 
L 2284 0 
L 1503 0 
L 191 3500 
z
" transform="scale(0.015625)"/>
      </defs>
      <use xlink:href="#DejaVuSans-4f"/>
      <use xlink:href="#DejaVuSans-62" transform="translate(78.710938 0)"/>
      <use xlink:href="#DejaVuSans-73" transform="translate(142.1875 0)"/>
      <use xlink:href="#DejaVuSans-65" transform="translate(194.287109 0)"/>
      <use xlink:href="#DejaVuSans-72" transform="translate(255.810547 0)"/>
      <use xlink:href="#DejaVuSans-76" transform="translate(296.923828 0)"/>
      <use xlink:href="#DejaVuSans-61" transform="translate(356.103516 0)"/>
      <use xlink:href="#DejaVuSans-74" transform="translate(417.382812 0)"/>
      <use xlink:href="#DejaVuSans-69" transform="translate(456.591797 0)"/>
      <use xlink:href="#DejaVuSans-6f" transform="translate(484.375 0)"/>
      <use xlink:href="#DejaVuSans-6e" transform="translate(545.556641 0)"/>
     </g>
    </g>
    <g id="line2d_18">
     <path d="M 951.725625 152.944375 
L 963.725625 152.944375 
L 975.725625 152.944375 
" style="fill: none; stroke: #ff0000; stroke-width: 1.5; stroke-linecap: square"/>
    </g>
    <g id="text_18">
     <!-- Predicted -->
     <g transform="translate(985.325625 157.144375) scale(0.12 -0.12)">
      <defs>
       <path id="DejaVuSans-50" d="M 1259 4147 
L 1259 2394 
L 2053 2394 
Q 2494 2394 2734 2622 
Q 2975 2850 2975 3272 
Q 2975 3691 2734 3919 
Q 2494 4147 2053 4147 
L 1259 4147 
z
M 628 4666 
L 2053 4666 
Q 2838 4666 3239 4311 
Q 3641 3956 3641 3272 
Q 3641 2581 3239 2228 
Q 2838 1875 2053 1875 
L 1259 1875 
L 1259 0 
L 628 0 
L 628 4666 
z
" transform="scale(0.015625)"/>
      </defs>
      <use xlink:href="#DejaVuSans-50"/>
      <use xlink:href="#DejaVuSans-72" transform="translate(58.552734 0)"/>
      <use xlink:href="#DejaVuSans-65" transform="translate(97.416016 0)"/>
      <use xlink:href="#DejaVuSans-64" transform="translate(158.939453 0)"/>
      <use xlink:href="#DejaVuSans-69" transform="translate(222.416016 0)"/>
      <use xlink:href="#DejaVuSans-63" transform="translate(250.199219 0)"/>
      <use xlink:href="#DejaVuSans-74" transform="translate(305.179688 0)"/>
      <use xlink:href="#DejaVuSans-65" transform="translate(344.388672 0)"/>
      <use xlink:href="#DejaVuSans-64" transform="translate(405.912109 0)"/>
     </g>
    </g>
   </g>
  </g>
 </g>
 <defs>
  <clipPath id="p37c8def1e4">
   <rect x="50.24" y="29.76" width="1018.96" height="140.68"/>
  </clipPath>
 </defs>
</svg>
