<?xml version="1.0" encoding="utf-8" standalone="no"?>
<!DOCTYPE svg PUBLIC "-//W3C//DTD SVG 1.1//EN"
  "http://www.w3.org/Graphics/SVG/1.1/DTD/svg11.dtd">
<svg xmlns:xlink="http://www.w3.org/1999/xlink" width="1080pt" height="216pt" viewBox="0 0 1080 216" xmlns="http://www.w3.org/2000/svg" version="1.1">
 <metadata>
  <rdf:RDF xmlns:dc="http://purl.org/dc/elements/1.1/" xmlns:cc="http://creativecommons.org/ns#" xmlns:rdf="http://www.w3.org/1999/02/22-rdf-syntax-ns#">
   <cc:Work>
    <dc:type rdf:resource="http://purl.org/dc/dcmitype/StillImage"/>
    <dc:date>2026-02-09T09:39:34.593755</dc:date>
    <dc:format>image/svg+xml</dc:format>
    <dc:creator>
     <cc:Agent>
      <dc:title>Matplotlib v3.10.8, https://matplotlib.org/</dc:title>
     </cc:Agent>
    </dc:creator>
   </cc:Work>
  </rdf:RDF>
 </metadata>
 <defs>
  <style type="text/css">*{stroke-linejoin: round; stroke-linecap: butt}</style>
 </defs>
 <g id="figure_1">
  <g id="patch_1">
   <path d="M 0 216 
L 1080 216 
L 1080 0 
L 0 0 
z
" style="fill: #ffffff"/>
  </g>
  <g id="axes_1">
   <g id="patch_2">
    <path d="M 56.63 170.44 
L 1069.2 170.44 
L 1069.2 29.76 
L 56.63 29.76 
z
" style="fill: #ffffff"/>
   </g>
   <g id="matplotlib.axis_1">
    <g id="xtick_1">
     <g id="line2d_1">
      <defs>
       <path id="m90f2fcfdf4" d="M 0 0 
L 0 3.5 
" style="stroke: #000000; stroke-width: 0.8"/>
      </defs>
      <g>
       <use xlink:href="#m90f2fcfdf4" x="56.63" y="170.44" style="stroke: #000000; stroke-width: 0.8"/>
      </g>
     </g>
     <g id="text_1">
      <text style="font-size: 10px; font-family: 'DejaVu Sans', 'Bitstream Vera Sans', 'Computer Modern Sans Serif', 'Lucida Grande', 'Verdana', 'Geneva', 'Lucid', 'Arial', 'Helvetica', 'Avant Garde', sans-serif; text-anchor: middle" x="56.63" y="185.038437" transform="rotate(-0 56.63 185.038437)">0</text>
     </g>
    </g>
    <g id="xtick_2">
     <g id="line2d_2">
      <g>
       <use xlink:href="#m90f2fcfdf4" x="188.823609" y="170.44" style="stroke: #000000; stroke-width: 0.8"/>
      </g>
     </g>
     <g id="text_2">
      <text style="font-size: 10px; font-family: 'DejaVu Sans', 'Bitstream Vera Sans', 'Computer Modern Sans Serif', 'Lucida Grande', 'Verdana', 'Geneva', 'Lucid', 'Arial', 'Helvetica', 'Avant Garde', sans-serif; text-anchor: middle" x="188.823609" y="185.038437" transform="rotate(-0 188.823609 185.038437)">200</text>
     </g>
    </g>
    <g id="xtick_3">
     <g id="line2d_3">
      <g>
       <use xlink:href="#m90f2fcfdf4" x="321.017219" y="170.44" style="stroke: #000000; stroke-width: 0.8"/>
      </g>
     </g>
     <g id="text_3">
      <text style="font-size: 10px; font-family: 'DejaVu Sans', 'Bitstream Vera Sans', 'Computer Modern Sans Serif', 'Lucida Grande', 'Verdana', 'Geneva', 'Lucid', 'Arial', 'Helvetica', 'Avant Garde', sans-serif; text-anchor: middle" x="321.017219" y="185.038437" transform="rotate(-0 321.017219 185.038437)">400</text>
     </g>
    </g>
    <g id="xtick_4">
     <g id="line2d_4">
      <g>
       <use xlink:href="#m90f2fcfdf4" x="453.210828" y="170.44" style="stroke: #000000; stroke-width: 0.8"/>
      </g>
     </g>
     <g id="text_4">
      <text style="font-size: 10px; font-family: 'DejaVu Sans', 'Bitstream Vera Sans', 'Computer Modern Sans Serif', 'Lucida Grande', 'Verdana', 'Geneva', 'Lucid', 'Arial', 'Helvetica', 'Avant Garde', sans-serif; text-anchor: middle" x="453.210828" y="185.038437" transform="rotate(-0 453.210828 185.038437)">600</text>
     </g>
    </g>
    <g id="xtick_5">
     <g id="line2d_5">
      <g>
       <use xlink:href="#m90f2fcfdf4" x="585.404438" y="170.44" style="stroke: #000000; stroke-width: 0.8"/>
      </g>
     </g>
     <g id="text_5">
      <text style="font-size: 10px; font-family: 'DejaVu Sans', 'Bitstream Vera Sans', 'Computer Modern Sans Serif', 'Lucida Grande', 'Verdana', 'Geneva', 'Lucid', 'Arial', 'Helvetica', 'Avant Garde', sans-serif; text-anchor: middle" x="585.404438" y="185.038437" transform="rotate(-0 585.404438 185.038437)">800</text>
     </g>
    </g>
    <g id="xtick_6">
     <g id="line2d_6">
      <g>
       <use xlink:href="#m90f2fcfdf4" x="717.598047" y="170.44" style="stroke: #000000; stroke-width: 0.8"/>
      </g>
     </g>
     <g id="text_6">
      <text style="font-size: 10px; font-family: 'DejaVu Sans', 'Bitstream Vera Sans', 'Computer Modern Sans Serif', 'Lucida Grande', 'Verdana', 'Geneva', 'Lucid', 'Arial', 'Helvetica', 'Avant Garde', sans-serif; text-anchor: middle" x="717.598047" y="185.038437" transform="rotate(-0 717.598047 185.038437)">1000</text>
     </g>
    </g>
    <g id="xtick_7">
     <g id="line2d_7">
      <g>
       <use xlink:href="#m90f2fcfdf4" x="849.791657" y="170.44" style="stroke: #000000; stroke-width: 0.8"/>
      </g>
     </g>
     <g id="text_7">
      <text style="font-size: 10px; font-family: 'DejaVu Sans', 'Bitstream Vera Sans', 'Computer Modern Sans Serif', 'Lucida Grande', 'Verdana', 'Geneva', 'Lucid', 'Arial', 'Helvetica', 'Avant Garde', sans-serif; text-anchor: middle" x="849.791657" y="185.038437" transform="rotate(-0 849.791657 185.038437)">1200</text>
     </g>
    </g>
    <g id="xtick_8">
     <g id="line2d_8">
      <g>
       <use xlink:href="#m90f2fcfdf4" x="981.985266" y="170.44" style="stroke: #000000; stroke-width: 0.8"/>
      </g>
     </g>
     <g id="text_8">
      <text style="font-size: 10px; font-family: 'DejaVu Sans', 'Bitstream Vera Sans', 'Computer Modern Sans Serif', 'Lucida Grande', 'Verdana', 'Geneva', 'Lucid', 'Arial', 'Helvetica', 'Avant Garde', sans-serif; text-anchor: middle" x="981.985266" y="185.038437" transform="rotate(-0 981.985266 185.038437)">1400</text>
     </g>
    </g>
    <g id="text_9">
     <text style="font-size: 14px; font-family: 'DejaVu Sans', 'Bitstream Vera Sans', 'Computer Modern Sans Serif', 'Lucida Grande', 'Verdana', 'Geneva', 'Lucid', 'Arial', 'Helvetica', 'Avant Garde', sans-serif; text-anchor: middle" x="562.915" y="201.755937" transform="rotate(-0 562.915 201.755937)">Simulation Days</text>
    </g>
   </g>
   <g id="matplotlib.axis_2">
    <g id="ytick_1">
     <g id="line2d_9">
      <defs>
       <path id="mad9787fca0" d="M 0 0 
L -3.5 0 
" style="stroke: #000000; stroke-width: 0.8"/>
      </defs>
      <g>
       <use xlink:href="#mad9787fca0" x="56.63" y="165.079486" style="stroke: #000000; stroke-width: 0.8"/>
      </g>
     </g>
     <g id="text_10">
      <text style="font-size: 10px; font-family: 'DejaVu Sans', 'Bitstream Vera Sans', 'Computer Modern Sans Serif', 'Lucida Grande', 'Verdana', 'Geneva', 'Lucid', 'Arial', 'Helvetica', 'Avant Garde', sans-serif; text-anchor: end" x="49.63" y="168.878705" transform="rotate(-0 49.63 168.878705)">−12</text>
     </g>
    </g>
    <g id="ytick_2">
     <g id="line2d_10">
      <g>
       <use xlink:href="#mad9787fca0" x="56.63" y="132.282724" style="stroke: #000000; stroke-width: 0.8"/>
      </g>
     </g>
     <g id="text_11">
      <text style="font-size: 10px; font-family: 'DejaVu Sans', 'Bitstream Vera Sans', 'Computer Modern Sans Serif', 'Lucida Grande', 'Verdana', 'Geneva', 'Lucid', 'Arial', 'Helvetica', 'Avant Garde', sans-serif; text-anchor: end" x="49.63" y="136.081943" transform="rotate(-0 49.63 136.081943)">−6</text>
     </g>
    </g>
    <g id="ytick_3">
     <g id="line2d_11">
      <g>
       <use xlink:href="#mad9787fca0" x="56.63" y="99.485962" style="stroke: #000000; stroke-width: 0.8"/>
      </g>
     </g>
     <g id="text_12">
      <text style="font-size: 10px; font-family: 'DejaVu Sans', 'Bitstream Vera Sans', 'Computer Modern Sans Serif', 'Lucida Grande', 'Verdana', 'Geneva', 'Lucid', 'Arial', 'Helvetica', 'Avant Garde', sans-serif; text-anchor: end" x="49.63" y="103.285181" transform="rotate(-0 49.63 103.285181)">0</text>
     </g>
    </g>
    <g id="ytick_4">
     <g id="line2d_12">
      <g>
       <use xlink:href="#mad9787fca0" x="56.63" y="66.6892" style="stroke: #000000; stroke-width: 0.8"/>
      </g>
     </g>
     <g id="text_13">
      <text style="font-size: 10px; font-family: 'DejaVu Sans', 'Bitstream Vera Sans', 'Computer Modern Sans Serif', 'Lucida Grande', 'Verdana', 'Geneva', 'Lucid', 'Arial', 'Helvetica', 'Avant Garde', sans-serif; text-anchor: end" x="49.63" y="70.488419" transform="rotate(-0 49.63 70.488419)">6</text>
     </g>
    </g>
    <g id="ytick_5">
     <g id="line2d_13">
      <g>
       <use xlink:href="#mad9787fca0" x="56.63" y="33.892438" style="stroke: #000000; stroke-width: 0.8"/>
      </g>
     </g>
     <g id="text_14">
      <text style="font-size: 10px; font-family: 'DejaVu Sans', 'Bitstream Vera Sans', 'Computer Modern Sans Serif', 'Lucida Grande', 'Verdana', 'Geneva', 'Lucid', 'Arial', 'Helvetica', 'Avant Garde', sans-serif; text-anchor: end" x="49.63" y="37.691657" transform="rotate(-0 49.63 37.691657)">12</text>
     </g>
    </g>
    <g id="text_15">
     <text style="font-size: 14px; font-family: 'DejaVu Sans', 'Bitstream Vera Sans', 'Computer Modern Sans Serif', 'Lucida Grande', 'Verdana', 'Geneva', 'Lucid', 'Arial', 'Helvetica', 'Avant Garde', sans-serif; text-anchor: middle" x="21.61375" y="100.1" transform="rotate(-90 21.61375 100.1)">Temperature</text>
    </g>
   </g>
   <g id="line2d_14">
    <path d="M 56.63 158.024872 
L 60.595808 157.935343 
L 63.23968 157.695313 
L 75.137105 156.064253 
L 76.459041 155.607649 
L 77.780978 154.978516 
L 79.763882 153.754026 
L 87.03453 148.80968 
L 89.678402 147.046553 
L 91.661307 145.48971 
L 93.644211 143.693587 
L 96.288083 140.977778 
L 98.931955 137.883284 
L 100.914859 135.231329 
L 102.897763 132.257524 
L 109.507444 121.799087 
L 110.82938 120.176894 
L 112.151316 118.84747 
L 113.473252 117.795353 
L 115.456156 116.588628 
L 118.760996 114.701976 
L 120.082933 113.724018 
L 122.065837 111.907032 
L 124.048741 109.74868 
L 131.980357 100.672248 
L 135.285198 97.303393 
L 137.268102 95.53168 
L 139.251006 94.036701 
L 141.23391 92.807367 
L 147.182622 89.42149 
L 150.487463 87.127617 
L 154.453271 84.127994 
L 156.436175 82.430424 
L 158.419079 80.475843 
L 160.401983 78.241013 
L 167.011664 70.375407 
L 168.994568 68.479419 
L 170.977472 66.899304 
L 172.960376 65.58508 
L 175.604249 64.130753 
L 178.909089 62.60178 
L 182.874897 60.749565 
L 184.857801 59.568549 
L 186.840705 58.113061 
L 189.484577 55.805268 
L 193.450386 52.264868 
L 195.43329 50.856258 
L 196.755226 50.146364 
L 198.077162 49.638789 
L 199.399098 49.329256 
L 200.721034 49.19764 
L 202.703938 49.266226 
L 204.686843 49.562692 
L 207.330715 50.217168 
L 209.313619 50.920243 
L 211.296523 51.876964 
L 213.279427 53.162539 
L 215.262331 54.813992 
L 217.245235 56.781809 
L 221.872012 61.619325 
L 223.854916 63.376184 
L 228.481692 67.212687 
L 229.803628 68.593786 
L 231.125564 70.21342 
L 233.108469 73.086152 
L 235.752341 77.476845 
L 239.057181 82.998322 
L 241.040085 85.955912 
L 243.022989 88.551578 
L 245.005893 90.822406 
L 247.649766 93.502083 
L 254.920414 100.547123 
L 257.564286 103.574772 
L 260.208159 107.052947 
L 263.512999 111.903634 
L 280.698168 137.94418 
L 284.003008 142.385273 
L 286.64688 145.607128 
L 288.629785 147.750436 
L 290.612689 149.547213 
L 291.934625 150.500614 
L 293.256561 151.239235 
L 294.578497 151.771879 
L 296.561401 152.268778 
L 301.188177 153.137038 
L 303.171082 153.792116 
L 305.814954 154.937281 
L 309.119794 156.33749 
L 311.102698 156.877981 
L 312.424634 157.02116 
L 313.74657 156.943528 
L 315.068506 156.612312 
L 316.390443 156.009621 
L 317.712379 155.139973 
L 319.034315 154.036261 
L 321.017219 152.083384 
L 324.322059 148.777336 
L 326.304963 147.200896 
L 327.626899 146.392033 
L 329.609804 145.472443 
L 333.575612 143.815528 
L 335.558516 142.636049 
L 337.54142 141.128071 
L 340.185292 138.755182 
L 344.812069 134.205983 
L 348.116909 130.680594 
L 351.421749 126.770649 
L 359.353366 117.057977 
L 363.319174 112.81473 
L 377.860471 97.713125 
L 381.165311 94.71585 
L 384.470151 92.053085 
L 387.114024 90.197791 
L 389.757896 88.618692 
L 393.062736 86.953609 
L 396.367576 85.252571 
L 398.35048 83.985566 
L 400.333385 82.429026 
L 402.316289 80.570547 
L 404.960161 77.730592 
L 410.247905 71.858547 
L 412.230809 69.952793 
L 414.213714 68.339194 
L 416.196618 67.040371 
L 418.179522 66.010492 
L 424.789202 62.878043 
L 430.737915 59.497003 
L 432.720819 58.758449 
L 435.364691 58.089758 
L 439.330499 57.133309 
L 442.63534 56.306395 
L 444.618244 56.066713 
L 446.601148 56.142657 
L 449.24502 56.604355 
L 451.888892 57.054155 
L 453.871796 57.181435 
L 457.176637 57.281277 
L 458.498573 57.520231 
L 459.820509 57.998451 
L 461.142445 58.761604 
L 462.464381 59.814602 
L 463.786317 61.12462 
L 465.769221 63.441597 
L 469.73503 68.618101 
L 475.022774 75.868547 
L 482.293422 86.119719 
L 484.937295 89.384997 
L 490.225039 95.426958 
L 496.173751 102.329197 
L 500.13956 107.262181 
L 503.4444 111.754589 
L 508.071176 118.539106 
L 511.376017 123.206521 
L 513.358921 125.695711 
L 516.002793 128.616633 
L 521.951505 134.901474 
L 525.256346 138.969358 
L 528.561186 142.955274 
L 530.54409 144.940842 
L 531.866026 146.020977 
L 533.187962 146.903598 
L 535.170866 147.913638 
L 537.814738 148.921684 
L 540.458611 149.938855 
L 542.441515 150.902698 
L 544.424419 152.086846 
L 547.729259 154.402729 
L 551.034099 156.666491 
L 553.017003 157.69942 
L 554.33894 158.150518 
L 555.660876 158.365952 
L 556.982812 158.32538 
L 558.304748 158.032499 
L 559.626684 157.515828 
L 561.609588 156.431265 
L 564.914428 154.251526 
L 570.202173 150.532985 
L 578.133789 144.689149 
L 584.74347 140.365814 
L 586.726374 138.722865 
L 588.709278 136.718597 
L 590.692182 134.302104 
L 592.675086 131.52026 
L 598.623799 122.856792 
L 599.945735 121.309794 
L 601.267671 120.00621 
L 602.589607 118.948943 
L 603.911543 118.109192 
L 605.894447 117.125452 
L 609.199288 115.541733 
L 610.521224 114.707106 
L 611.84316 113.691467 
L 613.826064 111.832095 
L 616.469936 108.910561 
L 622.418648 101.840698 
L 624.401553 99.213313 
L 626.384457 96.210682 
L 628.367361 92.77173 
L 631.672201 86.409037 
L 634.316073 81.503824 
L 636.298977 78.373538 
L 637.620914 76.615653 
L 639.603818 74.413935 
L 642.24769 71.973655 
L 646.874466 68.104169 
L 649.518338 66.190679 
L 652.162211 64.587891 
L 659.432859 60.58033 
L 662.076731 59.360988 
L 667.364476 57.033372 
L 672.65222 54.431849 
L 674.635124 53.836684 
L 675.95706 53.641059 
L 677.939964 53.620633 
L 681.244805 53.967363 
L 684.549645 54.222643 
L 689.176421 54.46488 
L 690.498357 54.723761 
L 691.820293 55.1512 
L 693.14223 55.774262 
L 694.464166 56.598722 
L 696.44707 58.168065 
L 699.090942 60.636826 
L 703.717718 64.970844 
L 709.666431 70.428872 
L 715.615143 76.239289 
L 717.598047 78.403912 
L 719.580951 80.865383 
L 721.563856 83.683539 
L 724.207728 87.916481 
L 730.817408 98.850642 
L 734.122248 103.705327 
L 740.731929 112.798947 
L 746.680641 120.799499 
L 759.900002 137.805329 
L 761.882906 139.916398 
L 763.865811 141.641639 
L 765.848715 143.027346 
L 769.153555 144.942749 
L 772.458395 146.914204 
L 774.441299 148.303805 
L 776.424203 149.929658 
L 778.407108 151.842233 
L 781.05098 154.799567 
L 784.35582 158.558603 
L 785.677756 159.813813 
L 786.999692 160.816126 
L 788.321628 161.529753 
L 789.643564 161.950758 
L 790.965501 162.095286 
L 792.287437 161.985043 
L 793.609373 161.633118 
L 794.931309 161.041368 
L 796.253245 160.209417 
L 797.575181 159.150609 
L 799.558085 157.234623 
L 802.862925 153.876944 
L 804.845829 152.237985 
L 806.828734 150.991052 
L 810.794542 148.774291 
L 812.116478 147.790282 
L 813.438414 146.594743 
L 815.421318 144.42395 
L 818.06519 141.064265 
L 824.013903 133.357092 
L 827.979711 128.679055 
L 830.623583 125.843699 
L 833.267456 123.342004 
L 835.25036 121.743377 
L 837.233264 120.393361 
L 839.877136 118.875836 
L 843.181976 116.959568 
L 845.16488 115.503811 
L 847.147785 113.700942 
L 849.130689 111.577941 
L 852.435529 107.619764 
L 857.723273 100.903292 
L 861.689082 95.462971 
L 868.95973 84.921249 
L 872.925538 79.369397 
L 874.908443 76.920019 
L 876.891347 74.794119 
L 879.535219 72.346213 
L 882.840059 69.284598 
L 884.822963 67.143929 
L 886.805867 64.715617 
L 894.076516 55.388215 
L 895.398452 54.100806 
L 896.720388 53.030554 
L 898.042324 52.170555 
L 900.025228 51.218505 
L 902.008132 50.56896 
L 904.652005 50.001677 
L 907.956845 49.56492 
L 912.583621 49.000411 
L 913.905557 48.664714 
L 915.227493 48.155913 
L 916.549429 47.435195 
L 917.871366 46.487953 
L 919.85427 44.68094 
L 922.498142 41.805436 
L 925.142014 38.905282 
L 926.46395 37.669031 
L 927.785886 36.728199 
L 929.107822 36.213107 
L 929.76879 36.154545 
L 930.429758 36.246653 
L 931.090727 36.500044 
L 931.751695 36.921942 
L 932.412663 37.515976 
L 933.734599 39.215006 
L 935.056535 41.546739 
L 936.378471 44.406108 
L 938.361375 49.364018 
L 942.327183 59.70309 
L 944.310087 64.175666 
L 945.632024 66.710246 
L 946.95396 68.861088 
L 948.275896 70.646191 
L 949.597832 72.109349 
L 950.919768 73.311768 
L 952.902672 74.773527 
L 956.207512 76.800588 
L 960.173321 79.298555 
L 962.817193 81.211861 
L 964.800097 82.854311 
L 966.783001 84.778638 
L 968.765905 87.098881 
L 970.748809 89.888618 
L 972.731714 93.133285 
L 975.375586 97.974741 
L 981.324298 109.163415 
L 984.629138 114.797847 
L 989.916883 123.258695 
L 993.221723 128.277694 
L 995.865595 131.93679 
L 999.170435 136.042483 
L 1004.45818 142.463875 
L 1009.084956 148.24371 
L 1011.06786 150.310301 
L 1012.389796 151.421857 
L 1013.711732 152.29746 
L 1015.033669 152.945671 
L 1016.355605 153.395129 
L 1018.338509 153.78305 
L 1020.321413 153.939023 
L 1020.982381 153.954699 
L 1020.982381 153.954699 
" clip-path="url(#pfd13848a93)" style="fill: none; stroke: #0000ff; stroke-width: 1.5; stroke-linecap: square"/>
   </g>
   <g id="line2d_15">
    <path d="M 56.63 162.874693 
L 60.595808 162.749031 
L 64.561617 162.384534 
L 67.866457 161.844608 
L 70.510329 161.217657 
L 73.154201 160.401624 
L 76.459041 159.129586 
L 79.763882 157.613496 
L 83.068722 155.864254 
L 85.712594 154.261067 
L 88.356466 152.413243 
L 91.000338 150.255569 
L 93.644211 147.749418 
L 96.288083 144.903772 
L 99.592923 140.952505 
L 104.219699 134.958847 
L 112.151316 124.582159 
L 116.117124 119.78195 
L 121.404869 113.792041 
L 129.336485 105.176193 
L 134.62423 99.730933 
L 139.251006 95.277623 
L 145.860686 89.255222 
L 160.401983 76.359929 
L 168.994568 69.023557 
L 174.282312 64.778668 
L 178.248121 61.849557 
L 182.213929 59.165701 
L 186.179737 56.709758 
L 189.484577 54.876163 
L 192.12845 53.629346 
L 194.111354 52.880564 
L 196.094258 52.335107 
L 198.077162 52.024053 
L 200.060066 51.964047 
L 202.04297 52.155225 
L 204.025875 52.5848 
L 206.008779 53.234526 
L 207.991683 54.088233 
L 209.974587 55.135662 
L 212.618459 56.824367 
L 215.262331 58.834332 
L 217.906204 61.137464 
L 221.211044 64.359092 
L 225.176852 68.605159 
L 229.14266 73.187464 
L 233.108469 78.118901 
L 237.074277 83.407117 
L 243.022989 91.771639 
L 275.410424 137.696975 
L 280.698168 144.794452 
L 284.663976 149.806003 
L 287.968817 153.630978 
L 290.612689 156.327118 
L 292.595593 158.07525 
L 294.578497 159.564692 
L 296.561401 160.797851 
L 298.544305 161.795888 
L 300.527209 162.58813 
L 303.171082 163.367016 
L 305.814954 163.853515 
L 307.797858 164.025573 
L 309.780762 164.026485 
L 311.763666 163.85387 
L 314.407538 163.360687 
L 317.051411 162.588114 
L 319.695283 161.564362 
L 322.339155 160.314542 
L 325.643995 158.465916 
L 328.948835 156.339061 
L 332.914644 153.501645 
L 337.54142 149.927386 
L 342.168196 146.080314 
L 345.473037 143.073232 
L 348.777877 139.78992 
L 352.743685 135.515241 
L 360.014334 127.227395 
L 372.572727 112.763425 
L 384.470151 98.092043 
L 387.774992 94.602295 
L 391.7408 90.804642 
L 398.35048 84.887239 
L 412.230809 72.776085 
L 416.857586 69.007225 
L 420.162426 66.575118 
L 423.467266 64.424198 
L 426.772106 62.551097 
L 430.076947 60.94375 
L 432.720819 59.865536 
L 435.364691 58.998714 
L 438.008563 58.361803 
L 440.652435 57.959524 
L 443.296308 57.788074 
L 445.94018 57.845981 
L 448.584052 58.140589 
L 451.227924 58.685035 
L 453.871796 59.49139 
L 456.515669 60.570454 
L 459.159541 61.939806 
L 461.803413 63.628894 
L 464.447285 65.670179 
L 467.091157 68.078252 
L 469.73503 70.831393 
L 473.03987 74.66618 
L 477.005678 79.647532 
L 484.276327 89.240229 
L 498.156656 107.565022 
L 510.05408 122.995358 
L 516.002793 130.389084 
L 519.968601 134.987015 
L 523.273441 138.51519 
L 526.578282 141.745914 
L 529.883122 144.703106 
L 533.84893 147.932068 
L 537.814738 150.833149 
L 541.119579 152.997432 
L 544.424419 154.910996 
L 547.729259 156.536286 
L 550.373131 157.589611 
L 553.017003 158.371082 
L 554.999908 158.739562 
L 556.982812 158.891169 
L 558.965716 158.807376 
L 560.94862 158.482446 
L 562.931524 157.922434 
L 564.914428 157.140456 
L 566.897332 156.152011 
L 569.541205 154.541015 
L 572.185077 152.635625 
L 575.489917 149.923825 
L 579.455725 146.340652 
L 584.74347 141.252817 
L 591.35315 134.582606 
L 597.301863 128.256417 
L 602.589607 122.299772 
L 609.199288 114.49471 
L 635.638009 82.549205 
L 644.230594 72.280325 
L 648.196402 67.899986 
L 651.501243 64.54765 
L 654.806083 61.488923 
L 658.110923 58.712134 
L 661.415763 56.207935 
L 664.720603 54.004315 
L 667.364476 52.509244 
L 670.008348 51.311589 
L 671.991252 50.639651 
L 673.974156 50.178236 
L 675.95706 49.934345 
L 677.939964 49.909933 
L 679.922869 50.105323 
L 681.905773 50.521229 
L 683.888677 51.157887 
L 685.871581 52.011672 
L 687.854485 53.071268 
L 690.498357 54.767068 
L 693.14223 56.721784 
L 697.108038 59.978427 
L 702.395782 64.648103 
L 709.005463 70.768131 
L 713.632239 75.301883 
L 717.598047 79.5136 
L 721.563856 84.113639 
L 726.190632 89.875891 
L 734.783216 101.041695 
L 755.934194 128.648297 
L 762.543874 136.80156 
L 768.492587 143.789623 
L 773.119363 148.91198 
L 776.424203 152.28303 
L 779.068076 154.694999 
L 781.05098 156.273331 
L 783.033884 157.606902 
L 785.016788 158.659596 
L 786.999692 159.407809 
L 788.982596 159.846371 
L 790.965501 159.99141 
L 792.948405 159.877701 
L 794.931309 159.550398 
L 797.575181 158.856894 
L 800.219053 157.93178 
L 802.862925 156.789273 
L 805.506798 155.399257 
L 808.15067 153.726707 
L 810.794542 151.7691 
L 814.099382 148.979966 
L 818.06519 145.270979 
L 822.691967 140.611471 
L 827.979711 134.976248 
L 835.25036 126.868692 
L 845.825848 114.69456 
L 867.637794 89.527698 
L 876.891347 79.217085 
L 884.161995 71.427903 
L 889.44974 66.073467 
L 894.076516 61.725175 
L 897.381356 58.911121 
L 900.025228 56.937375 
L 902.008132 55.677288 
L 903.991037 54.639836 
L 905.973941 53.840338 
L 907.956845 53.279654 
L 909.939749 52.948952 
L 911.922653 52.834305 
L 913.905557 52.91767 
L 916.549429 53.296012 
L 919.193302 53.920685 
L 921.837174 54.743886 
L 924.481046 55.768696 
L 927.124918 57.055444 
L 929.107822 58.240343 
L 931.090727 59.636205 
L 933.734599 61.812762 
L 936.378471 64.279467 
L 940.344279 68.306551 
L 947.614928 76.073949 
L 960.173321 89.845963 
L 978.680426 110.155632 
L 987.273011 119.252694 
L 995.204627 127.330621 
L 1001.814308 133.764214 
L 1007.102052 138.605149 
L 1011.06786 141.959205 
L 1013.711732 143.960356 
L 1015.694637 145.240817 
L 1017.677541 146.233573 
L 1018.999477 146.688139 
L 1020.321413 146.949081 
L 1020.982381 147.002029 
L 1020.982381 147.002029 
" clip-path="url(#pfd13848a93)" style="fill: none; stroke: #ff0000; stroke-width: 1.5; stroke-linecap: square"/>
   </g>
   <g id="line2d_16">
    <path d="M 539.136674 170.44 
L 539.136674 29.76 
" clip-path="url(#pfd13848a93)" style="fill: none; stroke: #1f77b4; stroke-width: 1.5; stroke-linecap: square"/>
   </g>
   <g id="patch_3">
    <path d="M 56.63 170.44 
L 56.63 29.76 
" style="fill: none; stroke: #000000; stroke-width: 0.8; stroke-linejoin: miter; stroke-linecap: square"/>
   </g>
   <g id="patch_4">
    <path d="M 1069.2 170.44 
L 1069.2 29.76 
" style="fill: none; stroke: #000000; stroke-width: 0.8; stroke-linejoin: miter; stroke-linecap: square"/>
   </g>
   <g id="patch_5">
    <path d="M 56.63 170.44 
L 1069.2 170.44 
" style="fill: none; stroke: #000000; stroke-width: 0.8; stroke-linejoin: miter; stroke-linecap: square"/>
   </g>
   <g id="patch_6">
    <path d="M 56.63 29.76 
L 1069.2 29.76 
" style="fill: none; stroke: #000000; stroke-width: 0.8; stroke-linejoin: miter; stroke-linecap: square"/>
   </g>
   <g id="text_16">
    <text style="font-size: 16px; font-family: 'DejaVu Sans', 'Bitstream Vera Sans', 'Computer Modern Sans Serif', 'Lucida Grande', 'Verdana', 'Geneva', 'Lucid', 'Arial', 'Helvetica', 'Avant Garde', sans-serif; text-anchor: middle" x="562.915" y="23.76" transform="rotate(-0 562.915 23.76)">Heat Conduction Equation Solution at x=0.2M</text>
   </g>
  </g>
 </g>
 <defs>
  <clipPath id="pfd13848a93">
   <rect x="56.63" y="29.76" width="1012.57" height="140.68"/>
  </clipPath>
 </defs>
</svg>
