<?xml version="1.0" encoding="utf-8" standalone="no"?>
<!DOCTYPE svg PUBLIC "-//W3C//DTD SVG 1.1//EN"
  "http://www.w3.org/Graphics/SVG/1.1/DTD/svg11.dtd">
<svg xmlns:xlink="http://www.w3.org/1999/xlink" width="1080pt" height="216pt" viewBox="0 0 1080 216" xmlns="http://www.w3.org/2000/svg" version="1.1">
 <metadata>
  <rdf:RDF xmlns:dc="http://purl.org/dc/elements/1.1/" xmlns:cc="http://creativecommons.org/ns#" xmlns:rdf="http://www.w3.org/1999/02/22-rdf-syntax-ns#">
   <cc:Work>
    <dc:type rdf:resource="http://purl.org/dc/dcmitype/StillImage"/>
    <dc:date>2026-02-09T09:39:34.535806</dc:date>
    <dc:format>image/svg+xml</dc:format>
    <dc:creator>
     <cc:Agent>
      <dc:title>Matplotlib v3.10.8, https://matplotlib.org/</dc:title>
     </cc:Agent>
    </dc:creator>
   </cc:Work>
  </rdf:RDF>
 </metadata>
 <defs>
  <style type="text/css">*{stroke-linejoin: round; stroke-linecap: butt}</style>
 </defs>
 <g id="figure_1">
  <g id="patch_1">
   <path d="M 0 216 
L 1080 216 
L 1080 0 
L 0 0 
z
" style="fill: #ffffff"/>
  </g>
  <g id="axes_1">
   <g id="patch_2">
    <path d="M 56.63 170.44 
L 1069.2 170.44 
L 1069.2 29.76 
L 56.63 29.76 
z
" style="fill: #ffffff"/>
   </g>
   <g id="matplotlib.axis_1">
    <g id="xtick_1">
     <g id="line2d_1">
      <defs>
       <path id="m6f9f3c5652" d="M 0 0 
L 0 3.5 
" style="stroke: #000000; stroke-width: 0.8"/>
      </defs>
      <g>
       <use xlink:href="#m6f9f3c5652" x="56.63" y="170.44" style="stroke: #000000; stroke-width: 0.8"/>
      </g>
     </g>
     <g id="text_1">
      <text style="font-size: 10px; font-family: 'DejaVu Sans', 'Bitstream Vera Sans', 'Computer Modern Sans Serif', 'Lucida Grande', 'Verdana', 'Geneva', 'Lucid', 'Arial', 'Helvetica', 'Avant Garde', sans-serif; text-anchor: middle" x="56.63" y="185.038437" transform="rotate(-0 56.63 185.038437)">0</text>
     </g>
    </g>
    <g id="xtick_2">
     <g id="line2d_2">
      <g>
       <use xlink:href="#m6f9f3c5652" x="188.823609" y="170.44" style="stroke: #000000; stroke-width: 0.8"/>
      </g>
     </g>
     <g id="text_2">
      <text style="font-size: 10px; font-family: 'DejaVu Sans', 'Bitstream Vera Sans', 'Computer Modern Sans Serif', 'Lucida Grande', 'Verdana', 'Geneva', 'Lucid', 'Arial', 'Helvetica', 'Avant Garde', sans-serif; text-anchor: middle" x="188.823609" y="185.038437" transform="rotate(-0 188.823609 185.038437)">200</text>
     </g>
    </g>
    <g id="xtick_3">
     <g id="line2d_3">
      <g>
       <use xlink:href="#m6f9f3c5652" x="321.017219" y="170.44" style="stroke: #000000; stroke-width: 0.8"/>
      </g>
     </g>
     <g id="text_3">
      <text style="font-size: 10px; font-family: 'DejaVu Sans', 'Bitstream Vera Sans', 'Computer Modern Sans Serif', 'Lucida Grande', 'Verdana', 'Geneva', 'Lucid', 'Arial', 'Helvetica', 'Avant Garde', sans-serif; text-anchor: middle" x="321.017219" y="185.038437" transform="rotate(-0 321.017219 185.038437)">400</text>
     </g>
    </g>
    <g id="xtick_4">
     <g id="line2d_4">
      <g>
       <use xlink:href="#m6f9f3c5652" x="453.210828" y="170.44" style="stroke: #000000; stroke-width: 0.8"/>
      </g>
     </g>
     <g id="text_4">
      <text style="font-size: 10px; font-family: 'DejaVu Sans', 'Bitstream Vera Sans', 'Computer Modern Sans Serif', 'Lucida Grande', 'Verdana', 'Geneva', 'Lucid', 'Arial', 'Helvetica', 'Avant Garde', sans-serif; text-anchor: middle" x="453.210828" y="185.038437" transform="rotate(-0 453.210828 185.038437)">600</text>
     </g>
    </g>
    <g id="xtick_5">
     <g id="line2d_5">
      <g>
       <use xlink:href="#m6f9f3c5652" x="585.404438" y="170.44" style="stroke: #000000; stroke-width: 0.8"/>
      </g>
     </g>
     <g id="text_5">
      <text style="font-size: 10px; font-family: 'DejaVu Sans', 'Bitstream Vera Sans', 'Computer Modern Sans Serif', 'Lucida Grande', 'Verdana', 'Geneva', 'Lucid', 'Arial', 'Helvetica', 'Avant Garde', sans-serif; text-anchor: middle" x="585.404438" y="185.038437" transform="rotate(-0 585.404438 185.038437)">800</text>
     </g>
    </g>
    <g id="xtick_6">
     <g id="line2d_6">
      <g>
       <use xlink:href="#m6f9f3c5652" x="717.598047" y="170.44" style="stroke: #000000; stroke-width: 0.8"/>
      </g>
     </g>
     <g id="text_6">
      <text style="font-size: 10px; font-family: 'DejaVu Sans', 'Bitstream Vera Sans', 'Computer Modern Sans Serif', 'Lucida Grande', 'Verdana', 'Geneva', 'Lucid', 'Arial', 'Helvetica', 'Avant Garde', sans-serif; text-anchor: middle" x="717.598047" y="185.038437" transform="rotate(-0 717.598047 185.038437)">1000</text>
     </g>
    </g>
    <g id="xtick_7">
     <g id="line2d_7">
      <g>
       <use xlink:href="#m6f9f3c5652" x="849.791657" y="170.44" style="stroke: #000000; stroke-width: 0.8"/>
      </g>
     </g>
     <g id="text_7">
      <text style="font-size: 10px; font-family: 'DejaVu Sans', 'Bitstream Vera Sans', 'Computer Modern Sans Serif', 'Lucida Grande', 'Verdana', 'Geneva', 'Lucid', 'Arial', 'Helvetica', 'Avant Garde', sans-serif; text-anchor: middle" x="849.791657" y="185.038437" transform="rotate(-0 849.791657 185.038437)">1200</text>
     </g>
    </g>
    <g id="xtick_8">
     <g id="line2d_8">
      <g>
       <use xlink:href="#m6f9f3c5652" x="981.985266" y="170.44" style="stroke: #000000; stroke-width: 0.8"/>
      </g>
     </g>
     <g id="text_8">
      <text style="font-size: 10px; font-family: 'DejaVu Sans', 'Bitstream Vera Sans', 'Computer Modern Sans Serif', 'Lucida Grande', 'Verdana', 'Geneva', 'Lucid', 'Arial', 'Helvetica', 'Avant Garde', sans-serif; text-anchor: middle" x="981.985266" y="185.038437" transform="rotate(-0 981.985266 185.038437)">1400</text>
     </g>
    </g>
    <g id="text_9">
     <text style="font-size: 14px; font-family: 'DejaVu Sans', 'Bitstream Vera Sans', 'Computer Modern Sans Serif', 'Lucida Grande', 'Verdana', 'Geneva', 'Lucid', 'Arial', 'Helvetica', 'Avant Garde', sans-serif; text-anchor: middle" x="562.915" y="201.755937" transform="rotate(-0 562.915 201.755937)">Simulation Days</text>
    </g>
   </g>
   <g id="matplotlib.axis_2">
    <g id="ytick_1">
     <g id="line2d_9">
      <defs>
       <path id="m92a223e4b6" d="M 0 0 
L -3.5 0 
" style="stroke: #000000; stroke-width: 0.8"/>
      </defs>
      <g>
       <use xlink:href="#m92a223e4b6" x="56.63" y="161.413146" style="stroke: #000000; stroke-width: 0.8"/>
      </g>
     </g>
     <g id="text_10">
      <text style="font-size: 10px; font-family: 'DejaVu Sans', 'Bitstream Vera Sans', 'Computer Modern Sans Serif', 'Lucida Grande', 'Verdana', 'Geneva', 'Lucid', 'Arial', 'Helvetica', 'Avant Garde', sans-serif; text-anchor: end" x="49.63" y="165.212365" transform="rotate(-0 49.63 165.212365)">−12</text>
     </g>
    </g>
    <g id="ytick_2">
     <g id="line2d_10">
      <g>
       <use xlink:href="#m92a223e4b6" x="56.63" y="130.693599" style="stroke: #000000; stroke-width: 0.8"/>
      </g>
     </g>
     <g id="text_11">
      <text style="font-size: 10px; font-family: 'DejaVu Sans', 'Bitstream Vera Sans', 'Computer Modern Sans Serif', 'Lucida Grande', 'Verdana', 'Geneva', 'Lucid', 'Arial', 'Helvetica', 'Avant Garde', sans-serif; text-anchor: end" x="49.63" y="134.492818" transform="rotate(-0 49.63 134.492818)">−6</text>
     </g>
    </g>
    <g id="ytick_3">
     <g id="line2d_11">
      <g>
       <use xlink:href="#m92a223e4b6" x="56.63" y="99.974052" style="stroke: #000000; stroke-width: 0.8"/>
      </g>
     </g>
     <g id="text_12">
      <text style="font-size: 10px; font-family: 'DejaVu Sans', 'Bitstream Vera Sans', 'Computer Modern Sans Serif', 'Lucida Grande', 'Verdana', 'Geneva', 'Lucid', 'Arial', 'Helvetica', 'Avant Garde', sans-serif; text-anchor: end" x="49.63" y="103.773271" transform="rotate(-0 49.63 103.773271)">0</text>
     </g>
    </g>
    <g id="ytick_4">
     <g id="line2d_12">
      <g>
       <use xlink:href="#m92a223e4b6" x="56.63" y="69.254505" style="stroke: #000000; stroke-width: 0.8"/>
      </g>
     </g>
     <g id="text_13">
      <text style="font-size: 10px; font-family: 'DejaVu Sans', 'Bitstream Vera Sans', 'Computer Modern Sans Serif', 'Lucida Grande', 'Verdana', 'Geneva', 'Lucid', 'Arial', 'Helvetica', 'Avant Garde', sans-serif; text-anchor: end" x="49.63" y="73.053723" transform="rotate(-0 49.63 73.053723)">6</text>
     </g>
    </g>
    <g id="ytick_5">
     <g id="line2d_13">
      <g>
       <use xlink:href="#m92a223e4b6" x="56.63" y="38.534958" style="stroke: #000000; stroke-width: 0.8"/>
      </g>
     </g>
     <g id="text_14">
      <text style="font-size: 10px; font-family: 'DejaVu Sans', 'Bitstream Vera Sans', 'Computer Modern Sans Serif', 'Lucida Grande', 'Verdana', 'Geneva', 'Lucid', 'Arial', 'Helvetica', 'Avant Garde', sans-serif; text-anchor: end" x="49.63" y="42.334176" transform="rotate(-0 49.63 42.334176)">12</text>
     </g>
    </g>
    <g id="text_15">
     <text style="font-size: 14px; font-family: 'DejaVu Sans', 'Bitstream Vera Sans', 'Computer Modern Sans Serif', 'Lucida Grande', 'Verdana', 'Geneva', 'Lucid', 'Arial', 'Helvetica', 'Avant Garde', sans-serif; text-anchor: middle" x="21.61375" y="100.1" transform="rotate(-90 21.61375 100.1)">Temperature</text>
    </g>
   </g>
   <g id="line2d_14">
    <path d="M 56.63 161.217487 
L 59.93484 161.095903 
L 62.578712 160.752219 
L 65.883553 160.006158 
L 69.188393 159.283462 
L 73.154201 158.536785 
L 74.476137 158.1226 
L 75.798073 157.532857 
L 77.120009 156.744876 
L 79.102914 155.235926 
L 85.051626 150.275772 
L 89.678402 146.783501 
L 91.661307 144.955435 
L 94.305179 142.12579 
L 96.949051 138.930867 
L 98.931955 136.252745 
L 100.914859 133.246442 
L 103.558731 128.718343 
L 107.52454 121.689107 
L 108.846476 119.665514 
L 110.168412 117.954064 
L 111.490348 116.591876 
L 112.812284 115.556056 
L 114.795188 114.41936 
L 117.43906 112.97285 
L 118.760996 111.991934 
L 120.082933 110.743417 
L 121.404869 109.224766 
L 123.387773 106.547754 
L 131.980357 94.16072 
L 133.963262 91.662325 
L 135.946166 89.528442 
L 137.268102 88.397432 
L 138.590038 87.53081 
L 139.911974 86.908017 
L 141.894878 86.277857 
L 144.53875 85.494401 
L 146.521654 84.621593 
L 148.504559 83.454659 
L 152.470367 80.719742 
L 155.775207 78.220998 
L 157.758111 76.415995 
L 159.741015 74.278624 
L 163.045856 70.226145 
L 165.689728 67.091838 
L 167.672632 65.087496 
L 169.655536 63.449361 
L 171.63844 62.138208 
L 173.621344 61.076223 
L 176.265217 59.923637 
L 182.874897 57.307592 
L 184.857801 56.128974 
L 186.840705 54.612112 
L 189.484577 52.199127 
L 192.12845 49.764488 
L 194.111354 48.250929 
L 195.43329 47.492875 
L 196.755226 46.969909 
L 198.077162 46.685913 
L 199.399098 46.62354 
L 200.721034 46.748943 
L 202.703938 47.197545 
L 205.347811 48.103534 
L 207.991683 49.282038 
L 209.974587 50.410581 
L 211.957491 51.84626 
L 213.940395 53.656134 
L 215.923299 55.82583 
L 221.211044 62.02055 
L 223.193948 63.891712 
L 227.820724 67.826338 
L 229.14266 69.279378 
L 230.464596 71.017269 
L 232.447501 74.14951 
L 235.091373 78.963244 
L 238.396213 84.917347 
L 240.379117 88.013333 
L 242.362021 90.672897 
L 245.005893 93.716 
L 250.293638 99.52637 
L 252.93751 102.863422 
L 255.581382 106.646765 
L 258.225254 110.852371 
L 266.156871 123.924846 
L 280.0372 144.888966 
L 283.34204 149.403693 
L 285.985912 152.665409 
L 287.968817 154.816862 
L 289.951721 156.579063 
L 291.273657 157.471873 
L 292.595593 158.112845 
L 293.917529 158.509874 
L 295.239465 158.704522 
L 297.883337 158.784105 
L 299.866241 158.902655 
L 301.849146 159.282846 
L 303.83205 159.931598 
L 308.458826 161.600511 
L 309.780762 161.855052 
L 311.102698 161.915007 
L 312.424634 161.73456 
L 313.74657 161.273889 
L 315.068506 160.50503 
L 316.390443 159.422752 
L 317.712379 158.05241 
L 319.695283 155.60069 
L 323.000123 151.331064 
L 324.322059 149.879835 
L 325.643995 148.685017 
L 326.965931 147.755638 
L 328.287867 147.049365 
L 333.575612 144.575934 
L 334.897548 143.61947 
L 336.880452 141.832642 
L 339.524324 139.01523 
L 345.473037 132.195587 
L 348.116909 128.891738 
L 350.760781 125.275491 
L 358.03143 115.044568 
L 361.997238 110.1622 
L 365.963046 105.200346 
L 375.877567 92.374171 
L 377.860471 90.311726 
L 379.843375 88.560008 
L 381.826279 87.092858 
L 384.470151 85.483194 
L 387.114024 84.189565 
L 389.757896 83.179192 
L 395.706608 81.142296 
L 397.689512 80.070721 
L 399.011448 79.146187 
L 400.994353 77.429046 
L 402.977257 75.370387 
L 406.943065 70.76743 
L 409.586937 67.843482 
L 411.569841 65.948413 
L 413.552746 64.399079 
L 415.53565 63.216801 
L 417.518554 62.342265 
L 422.806298 60.335613 
L 425.45017 58.924475 
L 428.755011 57.097129 
L 430.737915 56.330189 
L 432.720819 55.904306 
L 439.330499 54.969818 
L 442.63534 54.269997 
L 443.957276 54.162517 
L 445.279212 54.220453 
L 447.262116 54.596055 
L 451.888892 55.742174 
L 453.871796 55.923594 
L 456.515669 56.125323 
L 457.837605 56.441172 
L 459.159541 57.033785 
L 460.481477 57.957629 
L 461.803413 59.215954 
L 463.125349 60.764593 
L 465.108253 63.462471 
L 473.03987 75.135243 
L 482.293422 88.979336 
L 490.886007 100.56174 
L 495.512783 107.619753 
L 509.393112 128.870309 
L 511.376017 131.514467 
L 513.358921 133.813586 
L 516.002793 136.437457 
L 519.307633 139.604271 
L 521.290537 141.776831 
L 523.934409 145.078423 
L 527.23925 149.283807 
L 529.222154 151.402568 
L 530.54409 152.534025 
L 531.866026 153.426081 
L 533.187962 154.100276 
L 535.170866 154.809215 
L 539.797643 156.201168 
L 541.780547 157.124124 
L 543.763451 158.327841 
L 547.068291 160.70998 
L 549.712163 162.520794 
L 551.034099 163.239447 
L 552.356035 163.756505 
L 553.677972 164.020784 
L 554.999908 163.994201 
L 556.321844 163.660452 
L 557.64378 163.031647 
L 558.965716 162.149705 
L 560.94862 160.498098 
L 576.150885 146.762673 
L 578.794757 144.81986 
L 583.421534 141.564337 
L 585.404438 139.863199 
L 586.726374 138.511783 
L 588.04831 136.941633 
L 590.031214 134.14484 
L 592.014118 130.879788 
L 597.301863 121.770106 
L 598.623799 119.913139 
L 599.945735 118.367964 
L 601.267671 117.150606 
L 602.589607 116.235747 
L 603.911543 115.558346 
L 608.538319 113.595229 
L 609.860256 112.742975 
L 611.182192 111.651112 
L 612.504128 110.318617 
L 614.487032 107.943329 
L 617.130904 104.344675 
L 620.435744 99.500419 
L 623.079617 95.211517 
L 625.062521 91.576698 
L 627.706393 86.146165 
L 632.333169 76.344309 
L 634.316073 72.856833 
L 635.638009 70.962927 
L 636.959945 69.427064 
L 638.281882 68.205579 
L 640.264786 66.778191 
L 647.535434 62.290356 
L 650.179306 60.930776 
L 660.093827 56.572581 
L 663.398667 55.483457 
L 666.04254 54.564714 
L 669.34738 53.107507 
L 671.991252 52.023528 
L 673.313188 51.660245 
L 674.635124 51.462529 
L 675.95706 51.430339 
L 677.939964 51.624118 
L 682.566741 52.275963 
L 685.871581 52.378748 
L 687.854485 52.48585 
L 689.176421 52.702925 
L 690.498357 53.105404 
L 691.820293 53.736247 
L 693.14223 54.615973 
L 694.464166 55.736599 
L 696.44707 57.779943 
L 703.717718 65.812934 
L 712.310303 74.568192 
L 715.615143 78.136311 
L 717.598047 80.58014 
L 719.580951 83.425307 
L 721.563856 86.724224 
L 724.207728 91.703424 
L 730.817408 104.589215 
L 733.46128 109.191117 
L 736.766121 114.504408 
L 741.392897 121.467233 
L 745.358705 127.026674 
L 749.985482 133.021656 
L 753.95129 138.295526 
L 759.239034 145.537136 
L 761.221938 147.756447 
L 762.543874 148.964569 
L 763.865811 149.956931 
L 765.848715 151.117699 
L 768.492587 152.327592 
L 774.441299 154.966584 
L 777.74614 156.646377 
L 779.729044 157.860847 
L 786.338724 162.204966 
L 787.66066 162.672289 
L 788.982596 162.900085 
L 790.304532 162.888579 
L 791.626469 162.649183 
L 792.948405 162.188772 
L 794.270341 161.503958 
L 795.592277 160.586223 
L 796.914213 159.439184 
L 798.897117 157.36465 
L 802.862925 152.996022 
L 804.184861 151.819018 
L 805.506798 150.851783 
L 807.489702 149.692216 
L 810.133574 148.17845 
L 811.45551 147.209142 
L 812.777446 146.018229 
L 814.76035 143.818922 
L 817.404222 140.362521 
L 822.691967 133.303044 
L 825.996807 129.292662 
L 829.301647 125.624433 
L 831.945519 123.020604 
L 833.928424 121.332724 
L 835.911328 119.905022 
L 838.5552 118.353326 
L 842.521008 116.153709 
L 844.503912 114.718232 
L 846.486816 112.891672 
L 848.469721 110.681644 
L 851.113593 107.306615 
L 855.079401 101.762861 
L 859.045209 95.799836 
L 865.65489 85.71124 
L 870.281666 79.170176 
L 872.925538 75.729932 
L 874.908443 73.461179 
L 876.891347 71.525136 
L 880.196187 68.749987 
L 882.179091 67.005921 
L 884.161995 64.984343 
L 886.144899 62.644931 
L 890.110708 57.437798 
L 892.093612 54.970829 
L 894.076516 52.88481 
L 895.398452 51.773882 
L 896.720388 50.896889 
L 898.042324 50.235644 
L 900.025228 49.569925 
L 902.008132 49.174055 
L 904.652005 48.883972 
L 909.278781 48.65485 
L 911.922653 48.452641 
L 913.244589 48.209817 
L 914.566525 47.79835 
L 915.888461 47.1736 
L 917.210398 46.315305 
L 918.532334 45.232921 
L 920.515238 43.278803 
L 925.802982 37.744358 
L 927.124918 36.780568 
L 928.446854 36.230815 
L 929.107822 36.154545 
L 929.76879 36.23134 
L 930.429758 36.474018 
L 931.090727 36.892237 
L 931.751695 37.491633 
L 932.412663 38.273749 
L 933.734599 40.369647 
L 935.056535 43.104396 
L 936.378471 46.346313 
L 939.022343 53.663794 
L 941.666215 60.924101 
L 943.649119 65.654655 
L 944.971056 68.313419 
L 946.292992 70.546606 
L 947.614928 72.374573 
L 948.936864 73.846468 
L 950.2588 75.030612 
L 952.241704 76.432244 
L 955.546544 78.328754 
L 958.851385 80.271053 
L 961.495257 82.054685 
L 963.478161 83.585144 
L 965.461065 85.378657 
L 967.443969 87.575213 
L 968.765905 89.329636 
L 970.748809 92.442687 
L 972.731714 96.086048 
L 975.375586 101.480784 
L 979.341394 109.632711 
L 981.985266 114.529836 
L 984.629138 118.935134 
L 989.916883 127.121089 
L 993.221723 131.963857 
L 995.865595 135.452675 
L 998.509467 138.577232 
L 1004.45818 145.424482 
L 1008.423988 150.150976 
L 1010.406892 152.148146 
L 1011.728828 153.218188 
L 1013.050764 154.051554 
L 1014.3727 154.656272 
L 1015.694637 155.062906 
L 1017.677541 155.397546 
L 1020.321413 155.547153 
L 1020.982381 155.555524 
L 1020.982381 155.555524 
" clip-path="url(#ped50c5e454)" style="fill: none; stroke: #0000ff; stroke-width: 1.5; stroke-linecap: square"/>
   </g>
   <g id="line2d_15">
    <path d="M 56.63 161.51686 
L 59.93484 161.374836 
L 63.23968 160.989085 
L 66.544521 160.348035 
L 69.849361 159.454186 
L 73.154201 158.334554 
L 77.120009 156.745661 
L 81.085818 154.909663 
L 84.390658 153.128088 
L 87.03453 151.455114 
L 89.678402 149.493419 
L 92.322275 147.209396 
L 94.966147 144.611363 
L 98.270987 140.986113 
L 102.236795 136.226454 
L 110.168412 126.170546 
L 115.456156 119.685955 
L 122.065837 111.991015 
L 135.285198 97.002213 
L 140.572942 91.3206 
L 145.860686 85.986663 
L 159.741015 72.487594 
L 164.367792 68.301618 
L 167.672632 65.583653 
L 170.977472 63.122879 
L 174.94328 60.457457 
L 180.231025 57.218857 
L 184.857801 54.635868 
L 188.162641 53.064216 
L 190.145546 52.317162 
L 192.12845 51.772829 
L 194.111354 51.466769 
L 196.094258 51.416281 
L 198.077162 51.618568 
L 200.060066 52.05593 
L 202.04297 52.704773 
L 204.025875 53.543833 
L 206.669747 54.933075 
L 209.313619 56.610843 
L 211.957491 58.555532 
L 215.262331 61.319114 
L 218.567172 64.404088 
L 221.872012 67.787642 
L 225.176852 71.473803 
L 228.481692 75.457814 
L 233.108469 81.442069 
L 242.362021 93.966547 
L 256.24235 113.031107 
L 275.410424 139.382502 
L 280.0372 145.351518 
L 283.34204 149.29539 
L 285.985912 152.130392 
L 288.629785 154.595063 
L 290.612689 156.17835 
L 292.595593 157.540156 
L 295.239465 159.044172 
L 297.883337 160.230527 
L 300.527209 161.109254 
L 302.510114 161.553749 
L 304.493018 161.803126 
L 306.475922 161.856816 
L 308.458826 161.725861 
L 311.102698 161.295101 
L 313.74657 160.60494 
L 316.390443 159.670247 
L 319.034315 158.491534 
L 321.678187 157.078688 
L 324.983027 155.035989 
L 328.948835 152.307992 
L 334.897548 147.917847 
L 340.185292 143.777317 
L 344.151101 140.408702 
L 347.455941 137.342729 
L 350.760781 134.016402 
L 354.726589 129.676605 
L 358.692398 124.948266 
L 363.319174 119.033962 
L 377.199503 101.023864 
L 381.826279 95.464896 
L 385.131119 91.832971 
L 388.43596 88.540561 
L 392.401768 84.951595 
L 398.35048 79.925702 
L 407.604033 72.397933 
L 412.891777 68.368712 
L 416.196618 66.095442 
L 419.501458 64.080538 
L 422.806298 62.327815 
L 426.111138 60.823757 
L 429.415979 59.584745 
L 432.059851 58.813194 
L 434.703723 58.256015 
L 437.347595 57.917758 
L 439.991467 57.7988 
L 442.63534 57.909779 
L 445.279212 58.274227 
L 447.923084 58.912792 
L 450.566956 59.82604 
L 453.210828 60.995981 
L 455.854701 62.403549 
L 458.498573 64.041811 
L 461.142445 65.916224 
L 463.786317 68.039838 
L 466.430189 70.428274 
L 469.074061 73.08927 
L 472.378902 76.772751 
L 476.34471 81.59153 
L 482.293422 89.253174 
L 488.903103 98.129207 
L 495.512783 107.408892 
L 502.783432 117.553599 
L 508.071176 124.506129 
L 513.358921 131.075908 
L 517.985697 136.466185 
L 521.290537 140.00885 
L 524.595377 143.215084 
L 527.900218 146.066864 
L 531.205058 148.602256 
L 534.509898 150.879756 
L 538.475706 153.322596 
L 541.780547 155.105387 
L 544.424419 156.329622 
L 547.068291 157.329676 
L 549.712163 158.052776 
L 551.695067 158.378069 
L 553.677972 158.492423 
L 555.660876 158.381243 
L 557.64378 158.040588 
L 559.626684 157.477223 
L 561.609588 156.70595 
L 564.25346 155.387761 
L 566.897332 153.784548 
L 570.202173 151.459435 
L 574.167981 148.333446 
L 579.455725 143.824665 
L 584.74347 139.035165 
L 589.370246 134.566967 
L 593.997022 129.811588 
L 599.284767 124.0667 
L 604.572511 117.977784 
L 609.860256 111.532837 
L 627.706393 89.41912 
L 638.281882 76.990223 
L 644.230594 70.304587 
L 648.196402 66.16437 
L 651.501243 63.011555 
L 654.806083 60.166707 
L 658.110923 57.623499 
L 661.415763 55.375154 
L 664.059635 53.811778 
L 666.703508 52.503936 
L 668.686412 51.723694 
L 670.669316 51.138966 
L 672.65222 50.764978 
L 674.635124 50.610663 
L 676.618028 50.680238 
L 678.600932 50.975101 
L 680.583837 51.494127 
L 682.566741 52.231899 
L 684.549645 53.176026 
L 687.193517 54.718332 
L 689.837389 56.520015 
L 693.803198 59.545375 
L 699.090942 63.900416 
L 705.039654 69.06325 
L 709.666431 73.368797 
L 713.632239 77.404712 
L 717.598047 81.789547 
L 722.885792 88.017909 
L 730.15644 96.965782 
L 750.64645 122.486572 
L 757.917098 131.080261 
L 764.526779 138.537177 
L 770.475491 144.899 
L 775.102267 149.547501 
L 778.407108 152.596206 
L 781.05098 154.760427 
L 783.033884 156.156554 
L 785.016788 157.310013 
L 786.999692 158.187178 
L 788.982596 158.771364 
L 790.965501 159.067277 
L 792.948405 159.099918 
L 794.931309 158.907602 
L 797.575181 158.37095 
L 800.219053 157.577504 
L 802.862925 156.550493 
L 805.506798 155.273866 
L 808.15067 153.726336 
L 810.794542 151.912905 
L 814.099382 149.328861 
L 818.06519 145.885846 
L 822.691967 141.550548 
L 828.640679 135.652266 
L 836.572296 127.441818 
L 846.486816 116.825765 
L 879.535219 81.12337 
L 887.466835 73.034146 
L 894.076516 66.589478 
L 898.703292 62.353278 
L 902.008132 59.608463 
L 904.652005 57.702453 
L 906.634909 56.505977 
L 908.617813 55.547959 
L 910.600717 54.848306 
L 912.583621 54.408903 
L 914.566525 54.214228 
L 916.549429 54.235971 
L 919.193302 54.543794 
L 921.837174 55.111417 
L 924.481046 55.918153 
L 927.124918 56.997459 
L 929.107822 58.021321 
L 931.090727 59.247753 
L 933.734599 61.188339 
L 936.378471 63.415831 
L 940.344279 67.091597 
L 946.95396 73.582458 
L 958.190416 84.962512 
L 987.273011 114.592308 
L 995.865595 122.968466 
L 1003.797212 130.396057 
L 1009.745924 135.695984 
L 1013.050764 138.393158 
L 1015.033669 139.805918 
L 1017.016573 140.955528 
L 1018.338509 141.524118 
L 1019.660445 141.901393 
L 1020.982381 142.067001 
L 1020.982381 142.067001 
" clip-path="url(#ped50c5e454)" style="fill: none; stroke: #ff0000; stroke-width: 1.5; stroke-linecap: square"/>
   </g>
   <g id="line2d_16">
    <path d="M 539.136674 170.44 
L 539.136674 29.76 
" clip-path="url(#ped50c5e454)" style="fill: none; stroke: #1f77b4; stroke-width: 1.5; stroke-linecap: square"/>
   </g>
   <g id="patch_3">
    <path d="M 56.63 170.44 
L 56.63 29.76 
" style="fill: none; stroke: #000000; stroke-width: 0.8; stroke-linejoin: miter; stroke-linecap: square"/>
   </g>
   <g id="patch_4">
    <path d="M 1069.2 170.44 
L 1069.2 29.76 
" style="fill: none; stroke: #000000; stroke-width: 0.8; stroke-linejoin: miter; stroke-linecap: square"/>
   </g>
   <g id="patch_5">
    <path d="M 56.63 170.44 
L 1069.2 170.44 
" style="fill: none; stroke: #000000; stroke-width: 0.8; stroke-linejoin: miter; stroke-linecap: square"/>
   </g>
   <g id="patch_6">
    <path d="M 56.63 29.76 
L 1069.2 29.76 
" style="fill: none; stroke: #000000; stroke-width: 0.8; stroke-linejoin: miter; stroke-linecap: square"/>
   </g>
   <g id="text_16">
    <text style="font-size: 16px; font-family: 'DejaVu Sans', 'Bitstream Vera Sans', 'Computer Modern Sans Serif', 'Lucida Grande', 'Verdana', 'Geneva', 'Lucid', 'Arial', 'Helvetica', 'Avant Garde', sans-serif; text-anchor: middle" x="562.915" y="23.76" transform="rotate(-0 562.915 23.76)">Heat Conduction Equation Solution at x=0M</text>
   </g>
  </g>
 </g>
 <defs>
  <clipPath id="ped50c5e454">
   <rect x="56.63" y="29.76" width="1012.57" height="140.68"/>
  </clipPath>
 </defs>
</svg>
