<?xml version="1.0" encoding="utf-8" standalone="no"?>
<!DOCTYPE svg PUBLIC "-//W3C//DTD SVG 1.1//EN"
  "http://www.w3.org/Graphics/SVG/1.1/DTD/svg11.dtd">
<svg xmlns:xlink="http://www.w3.org/1999/xlink" width="1080pt" height="216pt" viewBox="0 0 1080 216" xmlns="http://www.w3.org/2000/svg" version="1.1">
 <metadata>
  <rdf:RDF xmlns:dc="http://purl.org/dc/elements/1.1/" xmlns:cc="http://creativecommons.org/ns#" xmlns:rdf="http://www.w3.org/1999/02/22-rdf-syntax-ns#">
   <cc:Work>
    <dc:type rdf:resource="http://purl.org/dc/dcmitype/StillImage"/>
    <dc:date>2026-02-09T09:39:34.654293</dc:date>
    <dc:format>image/svg+xml</dc:format>
    <dc:creator>
     <cc:Agent>
      <dc:title>Matplotlib v3.10.8, https://matplotlib.org/</dc:title>
     </cc:Agent>
    </dc:creator>
   </cc:Work>
  </rdf:RDF>
 </metadata>
 <defs>
  <style type="text/css">*{stroke-linejoin: round; stroke-linecap: butt}</style>
 </defs>
 <g id="figure_1">
  <g id="patch_1">
   <path d="M 0 216 
L 1080 216 
L 1080 0 
L 0 0 
z
" style="fill: #ffffff"/>
  </g>
  <g id="axes_1">
   <g id="patch_2">
    <path d="M 59.78 170.44 
L 1069.2 170.44 
L 1069.2 29.76 
L 59.78 29.76 
z
" style="fill: #ffffff"/>
   </g>
   <g id="matplotlib.axis_1">
    <g id="xtick_1">
     <g id="line2d_1">
      <defs>
       <path id="m2ac9c5a815" d="M 0 0 
L 0 3.5 
" style="stroke: #000000; stroke-width: 0.8"/>
      </defs>
      <g>
       <use xlink:href="#m2ac9c5a815" x="59.78" y="170.44" style="stroke: #000000; stroke-width: 0.8"/>
      </g>
     </g>
     <g id="text_1">
      <text style="font-size: 10px; font-family: 'DejaVu Sans', 'Bitstream Vera Sans', 'Computer Modern Sans Serif', 'Lucida Grande', 'Verdana', 'Geneva', 'Lucid', 'Arial', 'Helvetica', 'Avant Garde', sans-serif; text-anchor: middle" x="59.78" y="185.038437" transform="rotate(-0 59.78 185.038437)">0</text>
     </g>
    </g>
    <g id="xtick_2">
     <g id="line2d_2">
      <g>
       <use xlink:href="#m2ac9c5a815" x="191.562369" y="170.44" style="stroke: #000000; stroke-width: 0.8"/>
      </g>
     </g>
     <g id="text_2">
      <text style="font-size: 10px; font-family: 'DejaVu Sans', 'Bitstream Vera Sans', 'Computer Modern Sans Serif', 'Lucida Grande', 'Verdana', 'Geneva', 'Lucid', 'Arial', 'Helvetica', 'Avant Garde', sans-serif; text-anchor: middle" x="191.562369" y="185.038437" transform="rotate(-0 191.562369 185.038437)">200</text>
     </g>
    </g>
    <g id="xtick_3">
     <g id="line2d_3">
      <g>
       <use xlink:href="#m2ac9c5a815" x="323.344738" y="170.44" style="stroke: #000000; stroke-width: 0.8"/>
      </g>
     </g>
     <g id="text_3">
      <text style="font-size: 10px; font-family: 'DejaVu Sans', 'Bitstream Vera Sans', 'Computer Modern Sans Serif', 'Lucida Grande', 'Verdana', 'Geneva', 'Lucid', 'Arial', 'Helvetica', 'Avant Garde', sans-serif; text-anchor: middle" x="323.344738" y="185.038437" transform="rotate(-0 323.344738 185.038437)">400</text>
     </g>
    </g>
    <g id="xtick_4">
     <g id="line2d_4">
      <g>
       <use xlink:href="#m2ac9c5a815" x="455.127107" y="170.44" style="stroke: #000000; stroke-width: 0.8"/>
      </g>
     </g>
     <g id="text_4">
      <text style="font-size: 10px; font-family: 'DejaVu Sans', 'Bitstream Vera Sans', 'Computer Modern Sans Serif', 'Lucida Grande', 'Verdana', 'Geneva', 'Lucid', 'Arial', 'Helvetica', 'Avant Garde', sans-serif; text-anchor: middle" x="455.127107" y="185.038437" transform="rotate(-0 455.127107 185.038437)">600</text>
     </g>
    </g>
    <g id="xtick_5">
     <g id="line2d_5">
      <g>
       <use xlink:href="#m2ac9c5a815" x="586.909476" y="170.44" style="stroke: #000000; stroke-width: 0.8"/>
      </g>
     </g>
     <g id="text_5">
      <text style="font-size: 10px; font-family: 'DejaVu Sans', 'Bitstream Vera Sans', 'Computer Modern Sans Serif', 'Lucida Grande', 'Verdana', 'Geneva', 'Lucid', 'Arial', 'Helvetica', 'Avant Garde', sans-serif; text-anchor: middle" x="586.909476" y="185.038437" transform="rotate(-0 586.909476 185.038437)">800</text>
     </g>
    </g>
    <g id="xtick_6">
     <g id="line2d_6">
      <g>
       <use xlink:href="#m2ac9c5a815" x="718.691844" y="170.44" style="stroke: #000000; stroke-width: 0.8"/>
      </g>
     </g>
     <g id="text_6">
      <text style="font-size: 10px; font-family: 'DejaVu Sans', 'Bitstream Vera Sans', 'Computer Modern Sans Serif', 'Lucida Grande', 'Verdana', 'Geneva', 'Lucid', 'Arial', 'Helvetica', 'Avant Garde', sans-serif; text-anchor: middle" x="718.691844" y="185.038437" transform="rotate(-0 718.691844 185.038437)">1000</text>
     </g>
    </g>
    <g id="xtick_7">
     <g id="line2d_7">
      <g>
       <use xlink:href="#m2ac9c5a815" x="850.474213" y="170.44" style="stroke: #000000; stroke-width: 0.8"/>
      </g>
     </g>
     <g id="text_7">
      <text style="font-size: 10px; font-family: 'DejaVu Sans', 'Bitstream Vera Sans', 'Computer Modern Sans Serif', 'Lucida Grande', 'Verdana', 'Geneva', 'Lucid', 'Arial', 'Helvetica', 'Avant Garde', sans-serif; text-anchor: middle" x="850.474213" y="185.038437" transform="rotate(-0 850.474213 185.038437)">1200</text>
     </g>
    </g>
    <g id="xtick_8">
     <g id="line2d_8">
      <g>
       <use xlink:href="#m2ac9c5a815" x="982.256582" y="170.44" style="stroke: #000000; stroke-width: 0.8"/>
      </g>
     </g>
     <g id="text_8">
      <text style="font-size: 10px; font-family: 'DejaVu Sans', 'Bitstream Vera Sans', 'Computer Modern Sans Serif', 'Lucida Grande', 'Verdana', 'Geneva', 'Lucid', 'Arial', 'Helvetica', 'Avant Garde', sans-serif; text-anchor: middle" x="982.256582" y="185.038437" transform="rotate(-0 982.256582 185.038437)">1400</text>
     </g>
    </g>
    <g id="text_9">
     <text style="font-size: 14px; font-family: 'DejaVu Sans', 'Bitstream Vera Sans', 'Computer Modern Sans Serif', 'Lucida Grande', 'Verdana', 'Geneva', 'Lucid', 'Arial', 'Helvetica', 'Avant Garde', sans-serif; text-anchor: middle" x="564.49" y="201.755937" transform="rotate(-0 564.49 201.755937)">Simulation Days</text>
    </g>
   </g>
   <g id="matplotlib.axis_2">
    <g id="ytick_1">
     <g id="line2d_9">
      <defs>
       <path id="mfd6101562b" d="M 0 0 
L -3.5 0 
" style="stroke: #000000; stroke-width: 0.8"/>
      </defs>
      <g>
       <use xlink:href="#mfd6101562b" x="59.78" y="147.235461" style="stroke: #000000; stroke-width: 0.8"/>
      </g>
     </g>
     <g id="text_10">
      <text style="font-size: 10px; font-family: 'DejaVu Sans', 'Bitstream Vera Sans', 'Computer Modern Sans Serif', 'Lucida Grande', 'Verdana', 'Geneva', 'Lucid', 'Arial', 'Helvetica', 'Avant Garde', sans-serif; text-anchor: end" x="52.78" y="151.03468" transform="rotate(-0 52.78 151.03468)">−5.0</text>
     </g>
    </g>
    <g id="ytick_2">
     <g id="line2d_10">
      <g>
       <use xlink:href="#mfd6101562b" x="59.78" y="116.106293" style="stroke: #000000; stroke-width: 0.8"/>
      </g>
     </g>
     <g id="text_11">
      <text style="font-size: 10px; font-family: 'DejaVu Sans', 'Bitstream Vera Sans', 'Computer Modern Sans Serif', 'Lucida Grande', 'Verdana', 'Geneva', 'Lucid', 'Arial', 'Helvetica', 'Avant Garde', sans-serif; text-anchor: end" x="52.78" y="119.905511" transform="rotate(-0 52.78 119.905511)">−2.5</text>
     </g>
    </g>
    <g id="ytick_3">
     <g id="line2d_11">
      <g>
       <use xlink:href="#mfd6101562b" x="59.78" y="84.977124" style="stroke: #000000; stroke-width: 0.8"/>
      </g>
     </g>
     <g id="text_12">
      <text style="font-size: 10px; font-family: 'DejaVu Sans', 'Bitstream Vera Sans', 'Computer Modern Sans Serif', 'Lucida Grande', 'Verdana', 'Geneva', 'Lucid', 'Arial', 'Helvetica', 'Avant Garde', sans-serif; text-anchor: end" x="52.78" y="88.776343" transform="rotate(-0 52.78 88.776343)">0.0</text>
     </g>
    </g>
    <g id="ytick_4">
     <g id="line2d_12">
      <g>
       <use xlink:href="#mfd6101562b" x="59.78" y="53.847955" style="stroke: #000000; stroke-width: 0.8"/>
      </g>
     </g>
     <g id="text_13">
      <text style="font-size: 10px; font-family: 'DejaVu Sans', 'Bitstream Vera Sans', 'Computer Modern Sans Serif', 'Lucida Grande', 'Verdana', 'Geneva', 'Lucid', 'Arial', 'Helvetica', 'Avant Garde', sans-serif; text-anchor: end" x="52.78" y="57.647174" transform="rotate(-0 52.78 57.647174)">2.5</text>
     </g>
    </g>
    <g id="text_14">
     <text style="font-size: 14px; font-family: 'DejaVu Sans', 'Bitstream Vera Sans', 'Computer Modern Sans Serif', 'Lucida Grande', 'Verdana', 'Geneva', 'Lucid', 'Arial', 'Helvetica', 'Avant Garde', sans-serif; text-anchor: middle" x="21.585625" y="100.1" transform="rotate(-90 21.585625 100.1)">Temperature</text>
    </g>
   </g>
   <g id="line2d_13">
    <path d="M 59.78 133.957586 
L 61.097824 134.238968 
L 62.415647 134.877065 
L 63.733471 135.830446 
L 65.051295 137.041622 
L 67.02803 139.198806 
L 70.981501 144.018657 
L 74.934972 148.737178 
L 78.229532 152.31169 
L 80.206267 154.198646 
L 82.183003 155.807439 
L 84.159738 157.086089 
L 86.136474 158.028785 
L 88.113209 158.67842 
L 90.089945 159.09968 
L 92.06668 159.33966 
L 94.043416 159.40429 
L 96.020151 159.265823 
L 97.996887 158.889979 
L 99.973623 158.256445 
L 101.950358 157.357019 
L 103.927094 156.17935 
L 105.903829 154.696776 
L 107.880565 152.877378 
L 109.8573 150.70865 
L 111.834036 148.223486 
L 115.128595 143.646111 
L 119.082066 138.230484 
L 121.717713 135.030236 
L 125.012273 131.435521 
L 130.942479 125.047205 
L 139.508333 115.553356 
L 142.802892 112.278898 
L 146.097452 109.316103 
L 149.392011 106.667936 
L 152.68657 104.32559 
L 155.981129 102.245748 
L 160.593512 99.631759 
L 169.159366 95.137544 
L 177.72522 90.52181 
L 181.678691 88.188175 
L 184.314339 86.354216 
L 186.291074 84.721267 
L 188.26781 82.80785 
L 190.244545 80.592004 
L 192.221281 78.086688 
L 194.856928 74.371981 
L 198.810399 68.311789 
L 203.422782 61.242284 
L 206.058429 57.601545 
L 208.035165 55.210707 
L 210.011901 53.175229 
L 211.988636 51.525179 
L 213.965372 50.269222 
L 215.283195 49.649729 
L 216.601019 49.202817 
L 217.918843 48.927295 
L 219.236666 48.821757 
L 220.55449 48.882922 
L 221.872314 49.103459 
L 223.849049 49.70127 
L 225.825785 50.549713 
L 229.120344 52.264939 
L 233.073815 54.541188 
L 235.709462 56.336801 
L 237.686198 57.971618 
L 239.662934 59.902917 
L 242.298581 62.889475 
L 251.523347 73.993226 
L 254.158994 76.657585 
L 256.794641 79.021202 
L 259.430289 81.084277 
L 262.065936 82.824191 
L 264.042672 83.901614 
L 266.019407 84.782308 
L 268.655055 85.671979 
L 271.290702 86.290091 
L 274.585261 86.812276 
L 279.197644 87.535362 
L 281.17438 88.079511 
L 282.492203 88.608257 
L 283.810027 89.316217 
L 285.127851 90.240022 
L 286.445674 91.408066 
L 287.763498 92.835948 
L 289.081322 94.523392 
L 291.058057 97.500093 
L 293.034793 100.903981 
L 296.329352 107.103269 
L 302.918471 119.566946 
L 314.778884 141.195582 
L 317.414531 145.457564 
L 319.391267 148.232407 
L 321.368002 150.531083 
L 322.685826 151.763989 
L 324.00365 152.74939 
L 325.321473 153.496513 
L 326.639297 154.028937 
L 328.616033 154.504318 
L 330.592768 154.719785 
L 334.546239 154.845805 
L 338.49971 154.804295 
L 341.135358 154.549553 
L 343.112093 154.168028 
L 345.088829 153.6053 
L 347.065564 152.859215 
L 349.0423 151.926531 
L 351.019035 150.796905 
L 352.995771 149.456808 
L 354.972506 147.898591 
L 357.608154 145.496326 
L 360.243801 142.788846 
L 364.197272 138.390882 
L 370.127479 131.451748 
L 376.057685 124.110071 
L 381.32898 117.65978 
L 384.623539 113.957103 
L 387.918099 110.627424 
L 390.553746 108.248611 
L 393.848305 105.607536 
L 397.142864 103.291357 
L 400.437424 101.248754 
L 404.390895 99.066157 
L 417.569131 92.053223 
L 422.840426 88.820917 
L 426.134985 86.58616 
L 428.770633 84.513728 
L 430.747368 82.712324 
L 433.383016 79.969829 
L 437.336487 75.405383 
L 443.925605 67.79821 
L 447.879076 63.55692 
L 450.514724 61.084292 
L 452.491459 59.490105 
L 455.127107 57.668452 
L 459.080578 55.291468 
L 461.716225 53.903697 
L 463.692961 53.103526 
L 465.010784 52.756832 
L 466.328608 52.599037 
L 467.646432 52.651908 
L 468.964255 52.923678 
L 470.282079 53.409672 
L 471.599903 54.09515 
L 473.576638 55.451001 
L 475.553374 57.130749 
L 478.189021 59.749191 
L 481.48358 63.410048 
L 488.072699 70.851571 
L 492.02617 74.897287 
L 495.979641 78.623127 
L 498.615288 80.86191 
L 501.250936 82.780746 
L 503.227671 83.956338 
L 505.204407 84.892826 
L 507.181142 85.602698 
L 509.157878 86.113888 
L 511.793525 86.552321 
L 516.405908 86.983693 
L 519.041556 87.305846 
L 521.018291 87.735487 
L 522.995027 88.434641 
L 524.31285 89.097838 
L 525.630674 89.946488 
L 526.948498 90.996407 
L 528.266321 92.253545 
L 530.243057 94.513262 
L 532.219792 97.16278 
L 534.85544 101.127643 
L 539.467823 108.616159 
L 544.080206 116.461012 
L 547.374765 122.472598 
L 551.328236 130.187438 
L 555.940619 139.219851 
L 558.576266 143.919773 
L 560.553002 147.042254 
L 562.529737 149.744008 
L 564.506473 151.999304 
L 566.483208 153.823359 
L 568.459944 155.258511 
L 570.436679 156.35243 
L 572.413415 157.143142 
L 574.39015 157.66001 
L 576.366886 157.935289 
L 578.343622 158.010273 
L 580.979269 157.867515 
L 583.614916 157.478011 
L 585.591652 156.989705 
L 587.568387 156.276175 
L 589.545123 155.284425 
L 591.521858 153.979838 
L 593.498594 152.355976 
L 595.475329 150.43509 
L 598.110977 147.491494 
L 601.405536 143.411267 
L 606.676831 136.847392 
L 609.312478 133.954472 
L 611.948126 131.423543 
L 615.901597 128.047445 
L 619.855068 124.60843 
L 623.149627 121.440794 
L 628.420922 115.99481 
L 635.668952 108.567661 
L 641.599159 102.814995 
L 645.55263 99.239353 
L 649.506101 95.962225 
L 653.459572 92.974893 
L 663.343249 85.806615 
L 665.319985 84.045424 
L 667.296721 82.038971 
L 669.273456 79.774365 
L 671.909103 76.408311 
L 681.133869 64.07347 
L 684.428428 60.297594 
L 688.3819 56.149763 
L 691.676459 52.967814 
L 693.653194 51.298623 
L 695.62993 49.936022 
L 696.947754 49.248192 
L 698.265577 48.762331 
L 699.583401 48.488323 
L 700.901225 48.42352 
L 702.219048 48.553427 
L 703.536872 48.854552 
L 705.513607 49.566082 
L 707.490343 50.510914 
L 710.12599 52.024571 
L 713.42055 54.203993 
L 717.374021 57.098316 
L 720.66858 59.752111 
L 723.304227 62.178787 
L 725.280963 64.258836 
L 727.91661 67.400752 
L 731.870081 72.617607 
L 735.16464 76.863919 
L 737.141376 79.130502 
L 739.118112 81.09269 
L 741.094847 82.720445 
L 743.071583 84.019573 
L 745.048318 85.021371 
L 747.025054 85.772403 
L 749.660701 86.481067 
L 757.567643 88.231731 
L 759.544379 89.0836 
L 760.862202 89.859005 
L 762.180026 90.829726 
L 763.49785 92.008439 
L 765.474585 94.158908 
L 767.451321 96.704832 
L 770.086968 100.509188 
L 781.947381 118.521515 
L 785.241941 123.921311 
L 789.854324 132.045588 
L 793.807795 138.872333 
L 796.443442 142.913262 
L 798.420178 145.516697 
L 800.396913 147.675735 
L 801.714737 148.852238 
L 803.03256 149.823787 
L 805.009296 150.940277 
L 806.986032 151.738877 
L 809.621679 152.487053 
L 812.257326 152.98079 
L 814.234062 153.150505 
L 816.210797 153.073641 
L 818.187533 152.691576 
L 820.164268 151.984523 
L 822.141004 150.975461 
L 824.117739 149.714857 
L 826.753387 147.74196 
L 830.047946 144.969987 
L 841.908359 134.645116 
L 852.450949 126.295646 
L 855.745508 123.129741 
L 866.947009 111.952971 
L 870.90048 108.430809 
L 875.512863 104.628238 
L 880.784158 100.581909 
L 888.032188 95.32299 
L 894.621307 90.504498 
L 897.256954 88.275671 
L 899.23369 86.331438 
L 901.210425 84.087412 
L 903.187161 81.543258 
L 906.48172 76.848871 
L 911.094103 70.26569 
L 914.388662 66.04222 
L 922.954516 55.59001 
L 926.249075 50.992349 
L 930.861458 44.521557 
L 932.838194 42.180846 
L 934.156017 40.924032 
L 935.473841 39.983564 
L 936.791665 39.409029 
L 938.109489 39.230944 
L 939.427312 39.457033 
L 940.745136 40.071673 
L 942.06296 41.038225 
L 943.380783 42.30342 
L 945.357519 44.618672 
L 948.652078 49.015853 
L 951.946637 53.295724 
L 953.923373 55.571954 
L 955.900108 57.581374 
L 958.535756 59.881501 
L 961.171403 61.860969 
L 970.396169 68.39177 
L 973.031816 70.700756 
L 975.667464 73.319516 
L 982.256582 80.127247 
L 984.233318 81.842154 
L 986.210053 83.290345 
L 988.186789 84.461071 
L 990.163524 85.370658 
L 992.14026 86.054524 
L 994.775907 86.705272 
L 1000.706114 88.007443 
L 1002.682849 88.790859 
L 1004.000673 89.521349 
L 1005.318497 90.455206 
L 1006.63632 91.611526 
L 1007.954144 92.993567 
L 1009.93088 95.450011 
L 1012.566527 99.200689 
L 1015.202174 102.952966 
L 1016.519998 104.600174 
L 1017.837822 105.968918 
L 1019.155645 106.976239 
L 1020.473469 107.558139 
L 1021.132381 107.676485 
L 1021.132381 107.676485 
" clip-path="url(#p6cefd681ce)" style="fill: none; stroke: #0000ff; stroke-width: 1.5; stroke-linecap: square"/>
   </g>
   <g id="line2d_14">
    <path d="M 59.78 141.018985 
L 61.097824 141.214421 
L 62.415647 141.659199 
L 63.733471 142.328245 
L 65.710207 143.67589 
L 67.686942 145.3216 
L 70.981501 148.424803 
L 79.547355 156.708397 
L 82.183003 158.849602 
L 84.159738 160.157408 
L 86.136474 161.14866 
L 88.113209 161.804655 
L 90.089945 162.143492 
L 92.06668 162.206233 
L 94.043416 162.034528 
L 96.020151 161.652176 
L 97.996887 161.059349 
L 99.973623 160.240128 
L 101.950358 159.176701 
L 103.927094 157.862251 
L 105.903829 156.307212 
L 108.539476 153.907438 
L 111.834036 150.513314 
L 116.446419 145.34969 
L 131.601391 128.051706 
L 134.89595 124.725232 
L 138.190509 121.741472 
L 141.485069 119.068108 
L 146.097452 115.640612 
L 158.616777 106.745805 
L 167.841542 100.099258 
L 173.112837 96.005827 
L 180.360868 90.023 
L 202.104958 71.709799 
L 208.694077 65.96219 
L 211.329724 63.939383 
L 213.965372 62.210128 
L 215.942107 61.144957 
L 217.918843 60.3059 
L 219.895578 59.719073 
L 221.872314 59.410188 
L 223.849049 59.398176 
L 225.825785 59.687141 
L 227.80252 60.260347 
L 229.779256 61.079084 
L 232.414903 62.455314 
L 236.368374 64.841329 
L 261.407024 80.622457 
L 264.701584 83.090442 
L 267.996143 85.893198 
L 271.290702 89.036215 
L 274.585261 92.475527 
L 278.538732 96.921675 
L 283.151115 102.489342 
L 287.763498 108.412216 
L 308.848677 136.036185 
L 322.685826 153.633159 
L 325.321473 156.577133 
L 327.298209 158.540501 
L 329.274944 160.239742 
L 331.25168 161.638105 
L 333.228415 162.714529 
L 335.205151 163.464472 
L 337.181886 163.899347 
L 339.158622 164.045455 
L 341.135358 163.940445 
L 343.112093 163.625145 
L 345.74774 162.930716 
L 348.383388 161.938663 
L 350.360123 160.973678 
L 352.336859 159.785262 
L 354.313594 158.350711 
L 356.29033 156.669941 
L 358.925977 154.096694 
L 362.220537 150.518853 
L 380.670068 129.846308 
L 383.305716 127.305064 
L 385.941363 125.071051 
L 388.57701 123.149213 
L 391.87157 121.070882 
L 399.778512 116.527175 
L 404.390895 113.742535 
L 407.685454 111.509547 
L 410.321101 109.490718 
L 413.61566 106.654016 
L 417.569131 102.89372 
L 423.499338 96.882492 
L 434.041928 86.122747 
L 438.654311 81.772834 
L 444.584517 76.52355 
L 450.514724 71.521828 
L 453.809283 68.970445 
L 456.44493 67.16877 
L 458.421666 66.01938 
L 460.398401 65.089754 
L 462.375137 64.419326 
L 464.351872 64.040732 
L 466.328608 63.975394 
L 468.305344 64.229213 
L 470.282079 64.789001 
L 472.258815 65.620729 
L 474.894462 67.058499 
L 478.847933 69.595284 
L 485.437051 73.848483 
L 507.181142 87.242616 
L 511.134613 89.22713 
L 515.746996 91.228954 
L 524.971762 95.134266 
L 528.925233 97.073536 
L 532.219792 98.932383 
L 535.514352 101.058878 
L 538.808911 103.457999 
L 542.10347 106.120573 
L 545.398029 109.040478 
L 549.3515 112.871632 
L 553.963883 117.704654 
L 561.211914 125.371793 
L 564.506473 128.503455 
L 567.14212 130.70724 
L 569.777768 132.567941 
L 571.754503 133.700102 
L 573.731239 134.584956 
L 575.707974 135.216911 
L 577.68471 135.607064 
L 579.661445 135.781327 
L 582.297093 135.735283 
L 584.93274 135.434042 
L 587.568387 134.916163 
L 590.204035 134.191821 
L 592.839682 133.264925 
L 596.134241 131.851686 
L 600.087712 129.885068 
L 604.700095 127.358474 
L 608.653566 124.962103 
L 611.948126 122.702375 
L 615.242685 120.164411 
L 619.196156 116.822185 
L 625.785274 110.898563 
L 642.25807 95.661103 
L 649.506101 88.789098 
L 655.436307 82.826395 
L 664.661073 73.13612 
L 678.498222 58.644875 
L 683.769517 53.48281 
L 687.722988 49.946149 
L 690.358635 47.851998 
L 692.994282 46.047046 
L 694.971018 44.91354 
L 696.947754 43.979931 
L 698.924489 43.244306 
L 700.901225 42.694038 
L 703.536872 42.211647 
L 706.172519 41.964885 
L 708.808167 41.915761 
L 711.443814 42.06002 
L 714.079461 42.417153 
L 716.715109 43.009594 
L 719.350756 43.85684 
L 721.986404 44.989126 
L 723.963139 46.056748 
L 725.939875 47.343226 
L 727.91661 48.875347 
L 729.893346 50.67046 
L 731.870081 52.731839 
L 734.505729 55.872431 
L 737.141376 59.402226 
L 740.435935 64.229888 
L 745.048318 71.478305 
L 750.319613 80.204525 
L 755.590908 89.353138 
L 764.815673 105.93674 
L 774.040439 122.364687 
L 777.334999 127.853325 
L 779.970646 131.879889 
L 782.606293 135.495655 
L 785.241941 138.717713 
L 788.5365 142.362955 
L 803.03256 157.695196 
L 805.009296 159.458609 
L 806.986032 160.900565 
L 808.303855 161.634198 
L 809.621679 162.161156 
L 810.939503 162.472003 
L 812.257326 162.569015 
L 813.57515 162.465472 
L 814.892974 162.183409 
L 816.869709 161.486356 
L 818.846445 160.547918 
L 822.141004 158.675054 
L 828.730122 154.541911 
L 837.954888 148.537424 
L 841.249447 146.134949 
L 843.885095 143.894892 
L 845.86183 141.936815 
L 847.838566 139.698473 
L 849.815301 137.178384 
L 852.450949 133.438393 
L 855.745508 128.329485 
L 860.357891 120.723718 
L 866.288098 110.505013 
L 890.008924 69.038445 
L 893.962395 62.621437 
L 897.256954 57.678976 
L 899.892602 54.149543 
L 901.869337 51.82836 
L 903.846073 49.824369 
L 905.822808 48.143736 
L 907.799544 46.763357 
L 909.776279 45.637071 
L 912.411927 44.432027 
L 915.706486 43.227616 
L 920.318869 41.813733 
L 927.566899 39.840385 
L 934.156017 38.257226 
L 940.745136 36.90149 
L 944.698607 36.305065 
L 947.334254 36.154545 
L 949.31099 36.258275 
L 951.287725 36.594502 
L 953.264461 37.177286 
L 955.241197 37.98821 
L 957.876844 39.346486 
L 961.830315 41.727388 
L 967.10161 45.175332 
L 970.396169 47.568804 
L 972.372904 49.229096 
L 974.34964 51.170658 
L 976.326376 53.483101 
L 978.303111 56.221022 
L 980.279847 59.382822 
L 982.915494 64.151486 
L 986.210053 70.679718 
L 996.752643 92.479487 
L 1007.954144 115.319463 
L 1011.907615 123.025257 
L 1014.543263 127.659394 
L 1016.519998 130.564825 
L 1017.837822 132.092805 
L 1019.155645 133.207341 
L 1020.473469 133.848276 
L 1021.132381 133.978413 
L 1021.132381 133.978413 
" clip-path="url(#p6cefd681ce)" style="fill: none; stroke: #ff0000; stroke-width: 1.5; stroke-linecap: square"/>
   </g>
   <g id="line2d_15">
    <path d="M 540.785646 170.44 
L 540.785646 29.76 
" clip-path="url(#p6cefd681ce)" style="fill: none; stroke: #1f77b4; stroke-width: 1.5; stroke-linecap: square"/>
   </g>
   <g id="patch_3">
    <path d="M 59.78 170.44 
L 59.78 29.76 
" style="fill: none; stroke: #000000; stroke-width: 0.8; stroke-linejoin: miter; stroke-linecap: square"/>
   </g>
   <g id="patch_4">
    <path d="M 1069.2 170.44 
L 1069.2 29.76 
" style="fill: none; stroke: #000000; stroke-width: 0.8; stroke-linejoin: miter; stroke-linecap: square"/>
   </g>
   <g id="patch_5">
    <path d="M 59.78 170.44 
L 1069.2 170.44 
" style="fill: none; stroke: #000000; stroke-width: 0.8; stroke-linejoin: miter; stroke-linecap: square"/>
   </g>
   <g id="patch_6">
    <path d="M 59.78 29.76 
L 1069.2 29.76 
" style="fill: none; stroke: #000000; stroke-width: 0.8; stroke-linejoin: miter; stroke-linecap: square"/>
   </g>
   <g id="text_15">
    <text style="font-size: 16px; font-family: 'DejaVu Sans', 'Bitstream Vera Sans', 'Computer Modern Sans Serif', 'Lucida Grande', 'Verdana', 'Geneva', 'Lucid', 'Arial', 'Helvetica', 'Avant Garde', sans-serif; text-anchor: middle" x="564.49" y="23.76" transform="rotate(-0 564.49 23.76)">Heat Conduction Equation Solution at x=1.75M</text>
   </g>
  </g>
 </g>
 <defs>
  <clipPath id="p6cefd681ce">
   <rect x="59.78" y="29.76" width="1009.42" height="140.68"/>
  </clipPath>
 </defs>
</svg>
