<?xml version="1.0" encoding="utf-8" standalone="no"?>
<!DOCTYPE svg PUBLIC "-//W3C//DTD SVG 1.1//EN"
  "http://www.w3.org/Graphics/SVG/1.1/DTD/svg11.dtd">
<svg xmlns:xlink="http://www.w3.org/1999/xlink" width="1080pt" height="216pt" viewBox="0 0 1080 216" xmlns="http://www.w3.org/2000/svg" version="1.1">
 <metadata>
  <rdf:RDF xmlns:dc="http://purl.org/dc/elements/1.1/" xmlns:cc="http://creativecommons.org/ns#" xmlns:rdf="http://www.w3.org/1999/02/22-rdf-syntax-ns#">
   <cc:Work>
    <dc:type rdf:resource="http://purl.org/dc/dcmitype/StillImage"/>
    <dc:date>2026-02-09T09:39:34.765048</dc:date>
    <dc:format>image/svg+xml</dc:format>
    <dc:creator>
     <cc:Agent>
      <dc:title>Matplotlib v3.10.8, https://matplotlib.org/</dc:title>
     </cc:Agent>
    </dc:creator>
   </cc:Work>
  </rdf:RDF>
 </metadata>
 <defs>
  <style type="text/css">*{stroke-linejoin: round; stroke-linecap: butt}</style>
 </defs>
 <g id="figure_1">
  <g id="patch_1">
   <path d="M 0 216 
L 1080 216 
L 1080 0 
L 0 0 
z
" style="fill: #ffffff"/>
  </g>
  <g id="axes_1">
   <g id="patch_2">
    <path d="M 59.78 170.44 
L 1069.2 170.44 
L 1069.2 29.76 
L 59.78 29.76 
z
" style="fill: #ffffff"/>
   </g>
   <g id="matplotlib.axis_1">
    <g id="xtick_1">
     <g id="line2d_1">
      <defs>
       <path id="m534add4cfe" d="M 0 0 
L 0 3.5 
" style="stroke: #000000; stroke-width: 0.8"/>
      </defs>
      <g>
       <use xlink:href="#m534add4cfe" x="59.78" y="170.44" style="stroke: #000000; stroke-width: 0.8"/>
      </g>
     </g>
     <g id="text_1">
      <text style="font-size: 10px; font-family: 'DejaVu Sans', 'Bitstream Vera Sans', 'Computer Modern Sans Serif', 'Lucida Grande', 'Verdana', 'Geneva', 'Lucid', 'Arial', 'Helvetica', 'Avant Garde', sans-serif; text-anchor: middle" x="59.78" y="185.038437" transform="rotate(-0 59.78 185.038437)">0</text>
     </g>
    </g>
    <g id="xtick_2">
     <g id="line2d_2">
      <g>
       <use xlink:href="#m534add4cfe" x="191.562369" y="170.44" style="stroke: #000000; stroke-width: 0.8"/>
      </g>
     </g>
     <g id="text_2">
      <text style="font-size: 10px; font-family: 'DejaVu Sans', 'Bitstream Vera Sans', 'Computer Modern Sans Serif', 'Lucida Grande', 'Verdana', 'Geneva', 'Lucid', 'Arial', 'Helvetica', 'Avant Garde', sans-serif; text-anchor: middle" x="191.562369" y="185.038437" transform="rotate(-0 191.562369 185.038437)">200</text>
     </g>
    </g>
    <g id="xtick_3">
     <g id="line2d_3">
      <g>
       <use xlink:href="#m534add4cfe" x="323.344738" y="170.44" style="stroke: #000000; stroke-width: 0.8"/>
      </g>
     </g>
     <g id="text_3">
      <text style="font-size: 10px; font-family: 'DejaVu Sans', 'Bitstream Vera Sans', 'Computer Modern Sans Serif', 'Lucida Grande', 'Verdana', 'Geneva', 'Lucid', 'Arial', 'Helvetica', 'Avant Garde', sans-serif; text-anchor: middle" x="323.344738" y="185.038437" transform="rotate(-0 323.344738 185.038437)">400</text>
     </g>
    </g>
    <g id="xtick_4">
     <g id="line2d_4">
      <g>
       <use xlink:href="#m534add4cfe" x="455.127107" y="170.44" style="stroke: #000000; stroke-width: 0.8"/>
      </g>
     </g>
     <g id="text_4">
      <text style="font-size: 10px; font-family: 'DejaVu Sans', 'Bitstream Vera Sans', 'Computer Modern Sans Serif', 'Lucida Grande', 'Verdana', 'Geneva', 'Lucid', 'Arial', 'Helvetica', 'Avant Garde', sans-serif; text-anchor: middle" x="455.127107" y="185.038437" transform="rotate(-0 455.127107 185.038437)">600</text>
     </g>
    </g>
    <g id="xtick_5">
     <g id="line2d_5">
      <g>
       <use xlink:href="#m534add4cfe" x="586.909476" y="170.44" style="stroke: #000000; stroke-width: 0.8"/>
      </g>
     </g>
     <g id="text_5">
      <text style="font-size: 10px; font-family: 'DejaVu Sans', 'Bitstream Vera Sans', 'Computer Modern Sans Serif', 'Lucida Grande', 'Verdana', 'Geneva', 'Lucid', 'Arial', 'Helvetica', 'Avant Garde', sans-serif; text-anchor: middle" x="586.909476" y="185.038437" transform="rotate(-0 586.909476 185.038437)">800</text>
     </g>
    </g>
    <g id="xtick_6">
     <g id="line2d_6">
      <g>
       <use xlink:href="#m534add4cfe" x="718.691844" y="170.44" style="stroke: #000000; stroke-width: 0.8"/>
      </g>
     </g>
     <g id="text_6">
      <text style="font-size: 10px; font-family: 'DejaVu Sans', 'Bitstream Vera Sans', 'Computer Modern Sans Serif', 'Lucida Grande', 'Verdana', 'Geneva', 'Lucid', 'Arial', 'Helvetica', 'Avant Garde', sans-serif; text-anchor: middle" x="718.691844" y="185.038437" transform="rotate(-0 718.691844 185.038437)">1000</text>
     </g>
    </g>
    <g id="xtick_7">
     <g id="line2d_7">
      <g>
       <use xlink:href="#m534add4cfe" x="850.474213" y="170.44" style="stroke: #000000; stroke-width: 0.8"/>
      </g>
     </g>
     <g id="text_7">
      <text style="font-size: 10px; font-family: 'DejaVu Sans', 'Bitstream Vera Sans', 'Computer Modern Sans Serif', 'Lucida Grande', 'Verdana', 'Geneva', 'Lucid', 'Arial', 'Helvetica', 'Avant Garde', sans-serif; text-anchor: middle" x="850.474213" y="185.038437" transform="rotate(-0 850.474213 185.038437)">1200</text>
     </g>
    </g>
    <g id="xtick_8">
     <g id="line2d_8">
      <g>
       <use xlink:href="#m534add4cfe" x="982.256582" y="170.44" style="stroke: #000000; stroke-width: 0.8"/>
      </g>
     </g>
     <g id="text_8">
      <text style="font-size: 10px; font-family: 'DejaVu Sans', 'Bitstream Vera Sans', 'Computer Modern Sans Serif', 'Lucida Grande', 'Verdana', 'Geneva', 'Lucid', 'Arial', 'Helvetica', 'Avant Garde', sans-serif; text-anchor: middle" x="982.256582" y="185.038437" transform="rotate(-0 982.256582 185.038437)">1400</text>
     </g>
    </g>
    <g id="text_9">
     <text style="font-size: 14px; font-family: 'DejaVu Sans', 'Bitstream Vera Sans', 'Computer Modern Sans Serif', 'Lucida Grande', 'Verdana', 'Geneva', 'Lucid', 'Arial', 'Helvetica', 'Avant Garde', sans-serif; text-anchor: middle" x="564.49" y="201.755937" transform="rotate(-0 564.49 201.755937)">Simulation Days</text>
    </g>
   </g>
   <g id="matplotlib.axis_2">
    <g id="ytick_1">
     <g id="line2d_9">
      <defs>
       <path id="mca4000a9a3" d="M 0 0 
L -3.5 0 
" style="stroke: #000000; stroke-width: 0.8"/>
      </defs>
      <g>
       <use xlink:href="#mca4000a9a3" x="59.78" y="156.3309" style="stroke: #000000; stroke-width: 0.8"/>
      </g>
     </g>
     <g id="text_10">
      <text style="font-size: 10px; font-family: 'DejaVu Sans', 'Bitstream Vera Sans', 'Computer Modern Sans Serif', 'Lucida Grande', 'Verdana', 'Geneva', 'Lucid', 'Arial', 'Helvetica', 'Avant Garde', sans-serif; text-anchor: end" x="52.78" y="160.130119" transform="rotate(-0 52.78 160.130119)">−4.5</text>
     </g>
    </g>
    <g id="ytick_2">
     <g id="line2d_10">
      <g>
       <use xlink:href="#mca4000a9a3" x="59.78" y="125.788273" style="stroke: #000000; stroke-width: 0.8"/>
      </g>
     </g>
     <g id="text_11">
      <text style="font-size: 10px; font-family: 'DejaVu Sans', 'Bitstream Vera Sans', 'Computer Modern Sans Serif', 'Lucida Grande', 'Verdana', 'Geneva', 'Lucid', 'Arial', 'Helvetica', 'Avant Garde', sans-serif; text-anchor: end" x="52.78" y="129.587491" transform="rotate(-0 52.78 129.587491)">−3.0</text>
     </g>
    </g>
    <g id="ytick_3">
     <g id="line2d_11">
      <g>
       <use xlink:href="#mca4000a9a3" x="59.78" y="95.245645" style="stroke: #000000; stroke-width: 0.8"/>
      </g>
     </g>
     <g id="text_12">
      <text style="font-size: 10px; font-family: 'DejaVu Sans', 'Bitstream Vera Sans', 'Computer Modern Sans Serif', 'Lucida Grande', 'Verdana', 'Geneva', 'Lucid', 'Arial', 'Helvetica', 'Avant Garde', sans-serif; text-anchor: end" x="52.78" y="99.044864" transform="rotate(-0 52.78 99.044864)">−1.5</text>
     </g>
    </g>
    <g id="ytick_4">
     <g id="line2d_12">
      <g>
       <use xlink:href="#mca4000a9a3" x="59.78" y="64.703017" style="stroke: #000000; stroke-width: 0.8"/>
      </g>
     </g>
     <g id="text_13">
      <text style="font-size: 10px; font-family: 'DejaVu Sans', 'Bitstream Vera Sans', 'Computer Modern Sans Serif', 'Lucida Grande', 'Verdana', 'Geneva', 'Lucid', 'Arial', 'Helvetica', 'Avant Garde', sans-serif; text-anchor: end" x="52.78" y="68.502236" transform="rotate(-0 52.78 68.502236)">0.0</text>
     </g>
    </g>
    <g id="ytick_5">
     <g id="line2d_13">
      <g>
       <use xlink:href="#mca4000a9a3" x="59.78" y="34.16039" style="stroke: #000000; stroke-width: 0.8"/>
      </g>
     </g>
     <g id="text_14">
      <text style="font-size: 10px; font-family: 'DejaVu Sans', 'Bitstream Vera Sans', 'Computer Modern Sans Serif', 'Lucida Grande', 'Verdana', 'Geneva', 'Lucid', 'Arial', 'Helvetica', 'Avant Garde', sans-serif; text-anchor: end" x="52.78" y="37.959608" transform="rotate(-0 52.78 37.959608)">1.5</text>
     </g>
    </g>
    <g id="text_15">
     <text style="font-size: 14px; font-family: 'DejaVu Sans', 'Bitstream Vera Sans', 'Computer Modern Sans Serif', 'Lucida Grande', 'Verdana', 'Geneva', 'Lucid', 'Arial', 'Helvetica', 'Avant Garde', sans-serif; text-anchor: middle" x="21.585625" y="100.1" transform="rotate(-90 21.585625 100.1)">Temperature</text>
    </g>
   </g>
   <g id="line2d_14">
    <path d="M 59.78 95.407202 
L 60.438912 95.630232 
L 61.097824 96.072007 
L 61.756736 96.724148 
L 62.415647 97.574562 
L 63.733471 99.806579 
L 65.051295 102.619973 
L 67.02803 107.569498 
L 74.276061 126.765238 
L 76.911708 132.843662 
L 79.547355 138.311002 
L 82.183003 143.165465 
L 84.159738 146.379246 
L 86.136474 149.205453 
L 88.113209 151.641712 
L 90.089945 153.708298 
L 92.06668 155.439971 
L 94.043416 156.868503 
L 96.020151 158.007773 
L 97.996887 158.851216 
L 99.973623 159.380766 
L 101.291446 159.549821 
L 102.60927 159.56575 
L 103.927094 159.423601 
L 105.244917 159.117999 
L 106.562741 158.643055 
L 107.880565 157.993148 
L 109.198388 157.164482 
L 111.175124 155.587632 
L 113.151859 153.634212 
L 115.128595 151.364059 
L 118.423154 147.135435 
L 124.353361 139.40193 
L 137.531598 122.806436 
L 142.802892 116.081627 
L 146.756363 111.40774 
L 150.709835 107.110012 
L 154.004394 103.838297 
L 157.957865 100.264211 
L 161.911336 96.985137 
L 166.523719 93.42529 
L 172.453925 89.136333 
L 179.701956 84.161952 
L 201.446047 69.578176 
L 203.422782 67.957971 
L 205.399518 66.046283 
L 207.376253 63.776933 
L 209.352989 61.162793 
L 215.942107 51.926791 
L 217.918843 49.754487 
L 219.236666 48.573377 
L 220.55449 47.608931 
L 221.872314 46.850293 
L 223.190137 46.279358 
L 225.166873 45.726726 
L 227.143608 45.469788 
L 229.120344 45.438027 
L 231.755991 45.66221 
L 234.391639 46.165721 
L 236.368374 46.759193 
L 238.34511 47.576601 
L 240.321845 48.635861 
L 242.298581 49.922719 
L 244.934228 51.909056 
L 255.476818 60.234573 
L 258.771377 62.433307 
L 261.407024 63.959258 
L 264.042672 65.227761 
L 266.678319 66.220016 
L 269.313967 66.95698 
L 272.608526 67.595652 
L 276.561997 68.104028 
L 285.786763 68.967938 
L 293.034793 69.73208 
L 295.011528 70.129032 
L 296.329352 70.540333 
L 297.647176 71.13373 
L 298.965 71.972716 
L 300.282823 73.121096 
L 301.600647 74.6352 
L 302.918471 76.55658 
L 304.236294 78.906371 
L 305.554118 81.682582 
L 307.530853 86.586533 
L 309.507589 92.226497 
L 312.143236 100.495532 
L 318.073443 119.410342 
L 320.70909 126.854542 
L 322.685826 131.770348 
L 324.662561 136.041367 
L 326.639297 139.651371 
L 328.616033 142.63132 
L 330.592768 145.054342 
L 332.569504 147.020869 
L 334.546239 148.635796 
L 336.522975 149.985435 
L 338.49971 151.12234 
L 340.476446 152.063281 
L 342.453181 152.798785 
L 344.429917 153.308223 
L 346.406652 153.572607 
L 348.383388 153.580201 
L 350.360123 153.324814 
L 352.336859 152.801665 
L 354.313594 152.005832 
L 356.29033 150.935067 
L 358.267066 149.594487 
L 360.243801 148.000573 
L 362.879448 145.531984 
L 365.515096 142.753273 
L 368.809655 138.967377 
L 372.763126 134.061776 
L 376.716597 128.793387 
L 387.259187 114.484155 
L 390.553746 110.458349 
L 393.848305 106.754888 
L 397.142864 103.380913 
L 400.437424 100.315455 
L 404.390895 96.967951 
L 409.003278 93.385131 
L 415.592396 88.605878 
L 421.522603 84.230538 
L 428.111721 79.031396 
L 432.065192 76.041015 
L 434.700839 74.299364 
L 437.336487 72.812018 
L 441.289958 70.905431 
L 444.584517 69.291674 
L 447.220164 67.736954 
L 449.1969 66.308731 
L 451.173636 64.601879 
L 453.150371 62.61021 
L 455.786018 59.6066 
L 461.057313 53.480382 
L 463.034049 51.537303 
L 465.010784 49.927511 
L 466.98752 48.694785 
L 468.305344 48.092878 
L 469.623167 47.668456 
L 470.940991 47.418891 
L 472.258815 47.338329 
L 473.576638 47.418126 
L 475.553374 47.814289 
L 477.530109 48.504028 
L 479.506845 49.440951 
L 482.142492 50.990573 
L 485.437051 53.241296 
L 497.956377 62.12974 
L 500.592024 63.713092 
L 503.227671 65.035054 
L 505.863319 66.055222 
L 508.498966 66.780164 
L 511.134613 67.246216 
L 514.429173 67.5564 
L 527.60741 68.431662 
L 535.514352 69.16707 
L 537.491087 69.649566 
L 538.808911 70.170468 
L 540.126735 70.913945 
L 541.444558 71.935724 
L 542.762382 73.287457 
L 544.080206 75.011305 
L 545.398029 77.135215 
L 546.715853 79.669651 
L 548.033677 82.606146 
L 550.010412 87.701312 
L 551.987148 93.479895 
L 555.281707 104.031919 
L 559.89409 118.878381 
L 562.529737 126.536763 
L 564.506473 131.665506 
L 566.483208 136.215536 
L 568.459944 140.188969 
L 570.436679 143.619562 
L 572.413415 146.557252 
L 574.39015 149.053843 
L 576.366886 151.154717 
L 578.343622 152.897824 
L 580.320357 154.31546 
L 582.297093 155.433708 
L 584.273828 156.267258 
L 586.250564 156.814354 
L 588.227299 157.057342 
L 589.545123 157.037279 
L 590.862947 156.86227 
L 592.18077 156.525871 
L 593.498594 156.024111 
L 594.816418 155.356215 
L 596.793153 154.050084 
L 598.769889 152.403055 
L 600.746624 150.460093 
L 603.382272 147.518957 
L 613.924861 135.166838 
L 625.126362 123.271047 
L 630.397657 116.974806 
L 641.599159 103.500969 
L 646.870453 97.448039 
L 650.823924 93.220794 
L 654.777395 89.34285 
L 659.389778 85.182709 
L 667.296721 78.420145 
L 671.250192 75.278062 
L 673.885839 73.430255 
L 677.180398 71.389786 
L 681.133869 68.942515 
L 683.110605 67.47919 
L 685.08734 65.71435 
L 687.064076 63.583705 
L 689.040811 61.095734 
L 692.335371 56.459762 
L 694.971018 52.815674 
L 696.947754 50.41938 
L 698.924489 48.45136 
L 700.242313 47.401695 
L 701.560136 46.559154 
L 702.87796 45.910122 
L 704.195784 45.435066 
L 706.172519 45.00085 
L 708.149255 44.839716 
L 710.12599 44.897451 
L 712.761638 45.24986 
L 715.397285 45.854684 
L 718.691844 46.888217 
L 721.327492 47.933368 
L 723.963139 49.24363 
L 725.939875 50.456798 
L 727.91661 51.893027 
L 730.552258 54.130144 
L 734.505729 57.888429 
L 737.800288 60.939022 
L 740.435935 63.052872 
L 742.412671 64.374034 
L 744.389406 65.455337 
L 746.366142 66.309358 
L 748.342877 66.964315 
L 750.978525 67.594532 
L 754.273084 68.125478 
L 758.885467 68.605622 
L 763.49785 68.860262 
L 770.74588 69.201104 
L 772.722616 69.548017 
L 774.040439 69.94326 
L 775.358263 70.523282 
L 776.676087 71.337644 
L 777.99391 72.434263 
L 779.311734 73.854136 
L 780.629558 75.626412 
L 781.947381 77.764705 
L 783.265205 80.265724 
L 785.241941 84.651419 
L 787.218676 89.688115 
L 789.854324 97.129602 
L 797.102354 118.325282 
L 799.738001 125.075956 
L 801.714737 129.542026 
L 803.691472 133.454161 
L 805.668208 136.819057 
L 807.644943 139.679975 
L 809.621679 142.103574 
L 811.598414 144.157694 
L 813.57515 145.888111 
L 815.551886 147.306657 
L 817.528621 148.396192 
L 818.846445 148.925606 
L 820.164268 149.289027 
L 821.482092 149.483279 
L 822.799916 149.509852 
L 824.117739 149.374951 
L 826.094475 148.892521 
L 828.071211 148.113787 
L 830.047946 147.087485 
L 832.683593 145.416306 
L 835.978153 142.985766 
L 841.249447 138.716465 
L 851.792037 129.884001 
L 855.086596 126.744234 
L 858.381155 123.300893 
L 864.311362 116.699664 
L 871.559392 108.705893 
L 876.830687 103.186929 
L 882.101982 98.000353 
L 888.032188 92.478726 
L 893.962395 87.236191 
L 899.892602 81.997089 
L 909.776279 72.945524 
L 912.411927 71.021319 
L 917.02431 67.786244 
L 919.001045 66.086952 
L 920.977781 63.995504 
L 922.954516 61.434747 
L 924.931252 58.416079 
L 927.566899 53.871214 
L 932.179282 45.723154 
L 934.156017 42.652265 
L 936.132753 40.066065 
L 937.450577 38.671987 
L 938.7684 37.573455 
L 940.086224 36.78664 
L 941.404048 36.316239 
L 942.721871 36.154545 
L 944.039695 36.281403 
L 945.357519 36.665345 
L 946.675343 37.265755 
L 948.652078 38.469038 
L 951.946637 40.879015 
L 955.241197 43.263336 
L 957.876844 44.927818 
L 960.512491 46.355868 
L 965.124874 48.539625 
L 969.078345 50.506734 
L 971.713993 52.073687 
L 974.34964 53.934105 
L 976.985287 56.07897 
L 984.89223 62.824532 
L 987.527877 64.613919 
L 989.504612 65.703429 
L 991.481348 66.572923 
L 993.458083 67.238015 
L 996.093731 67.8613 
L 999.38829 68.359221 
L 1005.977409 69.030437 
L 1010.589791 69.320628 
L 1015.202174 69.357095 
L 1021.132381 69.301895 
L 1021.132381 69.301895 
" clip-path="url(#p35bb13046c)" style="fill: none; stroke: #0000ff; stroke-width: 1.5; stroke-linecap: square"/>
   </g>
   <g id="line2d_15">
    <path d="M 59.78 100.738172 
L 60.438912 100.885051 
L 61.097824 101.176602 
L 61.756736 101.608503 
L 63.074559 102.866767 
L 64.392383 104.592184 
L 65.710207 106.701912 
L 67.686942 110.399244 
L 70.32259 115.933749 
L 75.593884 127.719581 
L 82.183003 142.317385 
L 85.477562 149.059884 
L 87.454297 152.701829 
L 89.431033 155.90283 
L 91.407769 158.562647 
L 92.725592 160.002673 
L 94.043416 161.168442 
L 95.36124 162.065362 
L 96.679063 162.707774 
L 97.996887 163.116135 
L 99.314711 163.313824 
L 100.632534 163.324408 
L 101.950358 163.16971 
L 103.927094 162.669141 
L 105.903829 161.893314 
L 107.880565 160.885544 
L 110.516212 159.241692 
L 113.151859 157.31433 
L 116.446419 154.571712 
L 119.740978 151.49165 
L 123.035537 148.081406 
L 126.989008 143.612316 
L 136.213774 132.95441 
L 140.826157 128.109218 
L 146.756363 122.246774 
L 158.616777 110.906362 
L 167.182631 102.993371 
L 179.701956 91.476635 
L 196.833664 75.249531 
L 200.128223 72.527707 
L 203.422782 70.067653 
L 207.376253 67.397771 
L 214.624283 62.828581 
L 218.577754 60.583648 
L 221.213402 59.301525 
L 223.849049 58.230163 
L 226.484697 57.376192 
L 229.120344 56.747742 
L 231.755991 56.373915 
L 233.732727 56.285912 
L 235.709462 56.377857 
L 237.686198 56.652393 
L 240.321845 57.28686 
L 242.957493 58.193139 
L 245.59314 59.334064 
L 248.228787 60.683875 
L 251.523347 62.631258 
L 255.476818 65.252796 
L 267.996143 73.788238 
L 275.244173 78.408091 
L 287.104586 85.779694 
L 290.399146 88.205089 
L 293.034793 90.383607 
L 295.67044 92.805711 
L 298.306088 95.484912 
L 301.600647 99.193912 
L 304.895206 103.294503 
L 308.189765 107.791546 
L 311.484325 112.692969 
L 314.778884 117.976063 
L 318.732355 124.719455 
L 329.933856 144.163728 
L 332.569504 148.147137 
L 334.546239 150.820819 
L 336.522975 153.194525 
L 338.49971 155.265622 
L 340.476446 157.052559 
L 342.453181 158.588493 
L 345.088829 160.31365 
L 347.724476 161.742238 
L 350.360123 162.90091 
L 352.336859 163.556633 
L 354.313594 163.959227 
L 355.631418 164.045455 
L 356.949242 163.957537 
L 358.267066 163.677125 
L 359.584889 163.19509 
L 360.902713 162.513366 
L 362.879448 161.147198 
L 364.856184 159.440702 
L 367.491831 156.802332 
L 371.445302 152.455244 
L 377.375509 145.604127 
L 381.32898 140.741415 
L 386.600275 133.834694 
L 390.553746 128.751906 
L 393.848305 124.884046 
L 397.142864 121.430411 
L 400.437424 118.332368 
L 406.36763 113.176679 
L 412.956749 107.345678 
L 424.817162 96.711 
L 429.429545 92.961488 
L 434.041928 89.528847 
L 439.313222 85.885268 
L 445.243429 82.042091 
L 453.150371 77.192753 
L 461.057313 72.584672 
L 465.669696 70.121766 
L 468.964255 68.560883 
L 472.258815 67.25041 
L 474.894462 66.414746 
L 478.189021 65.624402 
L 480.824669 65.190952 
L 483.460316 64.988143 
L 485.437051 65.047239 
L 487.413787 65.332192 
L 489.390523 65.861227 
L 491.367258 66.622023 
L 494.002905 67.920915 
L 504.545495 73.561438 
L 507.840054 74.895578 
L 511.793525 76.250052 
L 519.700467 78.87979 
L 523.653938 80.469489 
L 526.289586 81.738075 
L 528.925233 83.26633 
L 530.901969 84.634277 
L 532.878704 86.219921 
L 535.514352 88.679614 
L 538.149999 91.49374 
L 541.444558 95.377797 
L 548.033677 103.639827 
L 553.304971 110.063683 
L 557.258443 114.552425 
L 561.870825 119.45797 
L 569.118856 126.780751 
L 575.049062 132.485279 
L 578.343622 135.372623 
L 580.979269 137.401475 
L 582.956004 138.695654 
L 584.93274 139.750669 
L 586.909476 140.53153 
L 588.886211 141.011579 
L 590.862947 141.177238 
L 592.839682 141.033139 
L 594.816418 140.605544 
L 596.793153 139.94065 
L 599.428801 138.78343 
L 602.72336 137.055302 
L 606.017919 135.056951 
L 608.653566 133.178111 
L 611.289214 130.959729 
L 613.924861 128.374557 
L 616.560509 125.470446 
L 620.51398 120.743371 
L 628.420922 111.195805 
L 635.01004 103.680914 
L 640.940247 97.16178 
L 644.893718 93.143497 
L 649.506101 88.825235 
L 660.04869 79.096564 
L 669.932368 69.862324 
L 676.521486 64.068171 
L 681.792781 59.670046 
L 685.746252 56.648794 
L 689.040811 54.434593 
L 691.676459 52.909654 
L 694.312106 51.614589 
L 696.947754 50.537619 
L 699.583401 49.659658 
L 702.219048 48.970726 
L 704.854696 48.473869 
L 707.490343 48.171354 
L 710.784902 48.038953 
L 714.738373 48.130495 
L 721.986404 48.581693 
L 726.598787 49.026184 
L 730.552258 49.643788 
L 733.846817 50.38253 
L 737.800288 51.512478 
L 742.412671 53.063108 
L 747.025054 54.844468 
L 750.319613 56.364928 
L 752.95526 57.803868 
L 755.590908 59.476567 
L 758.226555 61.403421 
L 760.862202 63.603745 
L 763.49785 66.100511 
L 766.133497 68.916971 
L 768.769145 72.070947 
L 771.404792 75.572486 
L 774.040439 79.420711 
L 777.334999 84.671071 
L 787.877588 102.047948 
L 791.172147 106.787232 
L 795.125618 112.077005 
L 802.373649 121.331853 
L 810.939503 131.928605 
L 818.187533 140.599247 
L 821.482092 144.241411 
L 823.458828 146.174035 
L 825.435563 147.802372 
L 826.753387 148.67464 
L 828.071211 149.354608 
L 829.389034 149.835118 
L 830.706858 150.120657 
L 832.024682 150.226371 
L 834.001417 150.098772 
L 835.978153 149.705364 
L 838.6138 148.88604 
L 841.249447 147.787488 
L 843.226183 146.764192 
L 845.202919 145.542648 
L 847.179654 144.112147 
L 849.815301 141.908116 
L 853.109861 138.809805 
L 859.040067 132.832569 
L 866.947009 124.911111 
L 871.559392 120.624574 
L 876.171775 116.672185 
L 882.101982 111.67997 
L 884.078717 109.772692 
L 886.055453 107.584579 
L 888.032188 105.041428 
L 890.008924 102.120134 
L 892.644571 97.707801 
L 896.598042 90.444317 
L 900.551513 83.239402 
L 903.187161 78.909026 
L 905.163896 76.059459 
L 907.140632 73.605141 
L 909.117367 71.548225 
L 911.094103 69.849672 
L 913.070838 68.442806 
L 915.706486 66.893015 
L 919.001045 65.285025 
L 922.954516 63.650172 
L 927.566899 62.029249 
L 934.156017 60.021779 
L 942.06296 57.58625 
L 952.605549 54.004445 
L 966.442698 49.409071 
L 976.326376 46.319638 
L 978.962023 45.680537 
L 980.938758 45.378764 
L 982.915494 45.311532 
L 984.89223 45.542364 
L 986.868965 46.101915 
L 988.845701 46.976436 
L 990.822436 48.113323 
L 993.458083 49.912293 
L 998.070466 53.428285 
L 1013.884351 65.783705 
L 1015.861086 67.035476 
L 1017.837822 68.015853 
L 1019.155645 68.467256 
L 1020.473469 68.727034 
L 1021.132381 68.779797 
L 1021.132381 68.779797 
" clip-path="url(#p35bb13046c)" style="fill: none; stroke: #ff0000; stroke-width: 1.5; stroke-linecap: square"/>
   </g>
   <g id="line2d_16">
    <path d="M 540.785646 170.44 
L 540.785646 29.76 
" clip-path="url(#p35bb13046c)" style="fill: none; stroke: #1f77b4; stroke-width: 1.5; stroke-linecap: square"/>
   </g>
   <g id="patch_3">
    <path d="M 59.78 170.44 
L 59.78 29.76 
" style="fill: none; stroke: #000000; stroke-width: 0.8; stroke-linejoin: miter; stroke-linecap: square"/>
   </g>
   <g id="patch_4">
    <path d="M 1069.2 170.44 
L 1069.2 29.76 
" style="fill: none; stroke: #000000; stroke-width: 0.8; stroke-linejoin: miter; stroke-linecap: square"/>
   </g>
   <g id="patch_5">
    <path d="M 59.78 170.44 
L 1069.2 170.44 
" style="fill: none; stroke: #000000; stroke-width: 0.8; stroke-linejoin: miter; stroke-linecap: square"/>
   </g>
   <g id="patch_6">
    <path d="M 59.78 29.76 
L 1069.2 29.76 
" style="fill: none; stroke: #000000; stroke-width: 0.8; stroke-linejoin: miter; stroke-linecap: square"/>
   </g>
   <g id="text_16">
    <text style="font-size: 16px; font-family: 'DejaVu Sans', 'Bitstream Vera Sans', 'Computer Modern Sans Serif', 'Lucida Grande', 'Verdana', 'Geneva', 'Lucid', 'Arial', 'Helvetica', 'Avant Garde', sans-serif; text-anchor: middle" x="564.49" y="23.76" transform="rotate(-0 564.49 23.76)">Heat Conduction Equation Solution at x=2.8M</text>
   </g>
  </g>
 </g>
 <defs>
  <clipPath id="p35bb13046c">
   <rect x="59.78" y="29.76" width="1009.42" height="140.68"/>
  </clipPath>
 </defs>
</svg>
