<?xml version="1.0" encoding="utf-8" standalone="no"?>
<!DOCTYPE svg PUBLIC "-//W3C//DTD SVG 1.1//EN"
  "http://www.w3.org/Graphics/SVG/1.1/DTD/svg11.dtd">
<svg xmlns:xlink="http://www.w3.org/1999/xlink" width="1080pt" height="216pt" viewBox="0 0 1080 216" xmlns="http://www.w3.org/2000/svg" version="1.1">
 <metadata>
  <rdf:RDF xmlns:dc="http://purl.org/dc/elements/1.1/" xmlns:cc="http://creativecommons.org/ns#" xmlns:rdf="http://www.w3.org/1999/02/22-rdf-syntax-ns#">
   <cc:Work>
    <dc:type rdf:resource="http://purl.org/dc/dcmitype/StillImage"/>
    <dc:date>2026-02-09T09:39:34.822927</dc:date>
    <dc:format>image/svg+xml</dc:format>
    <dc:creator>
     <cc:Agent>
      <dc:title>Matplotlib v3.10.8, https://matplotlib.org/</dc:title>
     </cc:Agent>
    </dc:creator>
   </cc:Work>
  </rdf:RDF>
 </metadata>
 <defs>
  <style type="text/css">*{stroke-linejoin: round; stroke-linecap: butt}</style>
 </defs>
 <g id="figure_1">
  <g id="patch_1">
   <path d="M 0 216 
L 1080 216 
L 1080 0 
L 0 0 
z
" style="fill: #ffffff"/>
  </g>
  <g id="axes_1">
   <g id="patch_2">
    <path d="M 59.78 170.44 
L 1069.2 170.44 
L 1069.2 29.76 
L 59.78 29.76 
z
" style="fill: #ffffff"/>
   </g>
   <g id="matplotlib.axis_1">
    <g id="xtick_1">
     <g id="line2d_1">
      <defs>
       <path id="md76603d798" d="M 0 0 
L 0 3.5 
" style="stroke: #000000; stroke-width: 0.8"/>
      </defs>
      <g>
       <use xlink:href="#md76603d798" x="59.78" y="170.44" style="stroke: #000000; stroke-width: 0.8"/>
      </g>
     </g>
     <g id="text_1">
      <text style="font-size: 10px; font-family: 'DejaVu Sans', 'Bitstream Vera Sans', 'Computer Modern Sans Serif', 'Lucida Grande', 'Verdana', 'Geneva', 'Lucid', 'Arial', 'Helvetica', 'Avant Garde', sans-serif; text-anchor: middle" x="59.78" y="185.038437" transform="rotate(-0 59.78 185.038437)">0</text>
     </g>
    </g>
    <g id="xtick_2">
     <g id="line2d_2">
      <g>
       <use xlink:href="#md76603d798" x="191.562369" y="170.44" style="stroke: #000000; stroke-width: 0.8"/>
      </g>
     </g>
     <g id="text_2">
      <text style="font-size: 10px; font-family: 'DejaVu Sans', 'Bitstream Vera Sans', 'Computer Modern Sans Serif', 'Lucida Grande', 'Verdana', 'Geneva', 'Lucid', 'Arial', 'Helvetica', 'Avant Garde', sans-serif; text-anchor: middle" x="191.562369" y="185.038437" transform="rotate(-0 191.562369 185.038437)">200</text>
     </g>
    </g>
    <g id="xtick_3">
     <g id="line2d_3">
      <g>
       <use xlink:href="#md76603d798" x="323.344738" y="170.44" style="stroke: #000000; stroke-width: 0.8"/>
      </g>
     </g>
     <g id="text_3">
      <text style="font-size: 10px; font-family: 'DejaVu Sans', 'Bitstream Vera Sans', 'Computer Modern Sans Serif', 'Lucida Grande', 'Verdana', 'Geneva', 'Lucid', 'Arial', 'Helvetica', 'Avant Garde', sans-serif; text-anchor: middle" x="323.344738" y="185.038437" transform="rotate(-0 323.344738 185.038437)">400</text>
     </g>
    </g>
    <g id="xtick_4">
     <g id="line2d_4">
      <g>
       <use xlink:href="#md76603d798" x="455.127107" y="170.44" style="stroke: #000000; stroke-width: 0.8"/>
      </g>
     </g>
     <g id="text_4">
      <text style="font-size: 10px; font-family: 'DejaVu Sans', 'Bitstream Vera Sans', 'Computer Modern Sans Serif', 'Lucida Grande', 'Verdana', 'Geneva', 'Lucid', 'Arial', 'Helvetica', 'Avant Garde', sans-serif; text-anchor: middle" x="455.127107" y="185.038437" transform="rotate(-0 455.127107 185.038437)">600</text>
     </g>
    </g>
    <g id="xtick_5">
     <g id="line2d_5">
      <g>
       <use xlink:href="#md76603d798" x="586.909476" y="170.44" style="stroke: #000000; stroke-width: 0.8"/>
      </g>
     </g>
     <g id="text_5">
      <text style="font-size: 10px; font-family: 'DejaVu Sans', 'Bitstream Vera Sans', 'Computer Modern Sans Serif', 'Lucida Grande', 'Verdana', 'Geneva', 'Lucid', 'Arial', 'Helvetica', 'Avant Garde', sans-serif; text-anchor: middle" x="586.909476" y="185.038437" transform="rotate(-0 586.909476 185.038437)">800</text>
     </g>
    </g>
    <g id="xtick_6">
     <g id="line2d_6">
      <g>
       <use xlink:href="#md76603d798" x="718.691844" y="170.44" style="stroke: #000000; stroke-width: 0.8"/>
      </g>
     </g>
     <g id="text_6">
      <text style="font-size: 10px; font-family: 'DejaVu Sans', 'Bitstream Vera Sans', 'Computer Modern Sans Serif', 'Lucida Grande', 'Verdana', 'Geneva', 'Lucid', 'Arial', 'Helvetica', 'Avant Garde', sans-serif; text-anchor: middle" x="718.691844" y="185.038437" transform="rotate(-0 718.691844 185.038437)">1000</text>
     </g>
    </g>
    <g id="xtick_7">
     <g id="line2d_7">
      <g>
       <use xlink:href="#md76603d798" x="850.474213" y="170.44" style="stroke: #000000; stroke-width: 0.8"/>
      </g>
     </g>
     <g id="text_7">
      <text style="font-size: 10px; font-family: 'DejaVu Sans', 'Bitstream Vera Sans', 'Computer Modern Sans Serif', 'Lucida Grande', 'Verdana', 'Geneva', 'Lucid', 'Arial', 'Helvetica', 'Avant Garde', sans-serif; text-anchor: middle" x="850.474213" y="185.038437" transform="rotate(-0 850.474213 185.038437)">1200</text>
     </g>
    </g>
    <g id="xtick_8">
     <g id="line2d_8">
      <g>
       <use xlink:href="#md76603d798" x="982.256582" y="170.44" style="stroke: #000000; stroke-width: 0.8"/>
      </g>
     </g>
     <g id="text_8">
      <text style="font-size: 10px; font-family: 'DejaVu Sans', 'Bitstream Vera Sans', 'Computer Modern Sans Serif', 'Lucida Grande', 'Verdana', 'Geneva', 'Lucid', 'Arial', 'Helvetica', 'Avant Garde', sans-serif; text-anchor: middle" x="982.256582" y="185.038437" transform="rotate(-0 982.256582 185.038437)">1400</text>
     </g>
    </g>
    <g id="text_9">
     <text style="font-size: 14px; font-family: 'DejaVu Sans', 'Bitstream Vera Sans', 'Computer Modern Sans Serif', 'Lucida Grande', 'Verdana', 'Geneva', 'Lucid', 'Arial', 'Helvetica', 'Avant Garde', sans-serif; text-anchor: middle" x="564.49" y="201.755937" transform="rotate(-0 564.49 201.755937)">Simulation Days</text>
    </g>
   </g>
   <g id="matplotlib.axis_2">
    <g id="ytick_1">
     <g id="line2d_9">
      <defs>
       <path id="m9c21faec3e" d="M 0 0 
L -3.5 0 
" style="stroke: #000000; stroke-width: 0.8"/>
      </defs>
      <g>
       <use xlink:href="#m9c21faec3e" x="59.78" y="158.348982" style="stroke: #000000; stroke-width: 0.8"/>
      </g>
     </g>
     <g id="text_10">
      <text style="font-size: 10px; font-family: 'DejaVu Sans', 'Bitstream Vera Sans', 'Computer Modern Sans Serif', 'Lucida Grande', 'Verdana', 'Geneva', 'Lucid', 'Arial', 'Helvetica', 'Avant Garde', sans-serif; text-anchor: end" x="52.78" y="162.148201" transform="rotate(-0 52.78 162.148201)">−4.5</text>
     </g>
    </g>
    <g id="ytick_2">
     <g id="line2d_10">
      <g>
       <use xlink:href="#m9c21faec3e" x="59.78" y="125.449448" style="stroke: #000000; stroke-width: 0.8"/>
      </g>
     </g>
     <g id="text_11">
      <text style="font-size: 10px; font-family: 'DejaVu Sans', 'Bitstream Vera Sans', 'Computer Modern Sans Serif', 'Lucida Grande', 'Verdana', 'Geneva', 'Lucid', 'Arial', 'Helvetica', 'Avant Garde', sans-serif; text-anchor: end" x="52.78" y="129.248667" transform="rotate(-0 52.78 129.248667)">−3.0</text>
     </g>
    </g>
    <g id="ytick_3">
     <g id="line2d_11">
      <g>
       <use xlink:href="#m9c21faec3e" x="59.78" y="92.549914" style="stroke: #000000; stroke-width: 0.8"/>
      </g>
     </g>
     <g id="text_12">
      <text style="font-size: 10px; font-family: 'DejaVu Sans', 'Bitstream Vera Sans', 'Computer Modern Sans Serif', 'Lucida Grande', 'Verdana', 'Geneva', 'Lucid', 'Arial', 'Helvetica', 'Avant Garde', sans-serif; text-anchor: end" x="52.78" y="96.349133" transform="rotate(-0 52.78 96.349133)">−1.5</text>
     </g>
    </g>
    <g id="ytick_4">
     <g id="line2d_12">
      <g>
       <use xlink:href="#m9c21faec3e" x="59.78" y="59.650381" style="stroke: #000000; stroke-width: 0.8"/>
      </g>
     </g>
     <g id="text_13">
      <text style="font-size: 10px; font-family: 'DejaVu Sans', 'Bitstream Vera Sans', 'Computer Modern Sans Serif', 'Lucida Grande', 'Verdana', 'Geneva', 'Lucid', 'Arial', 'Helvetica', 'Avant Garde', sans-serif; text-anchor: end" x="52.78" y="63.449599" transform="rotate(-0 52.78 63.449599)">0.0</text>
     </g>
    </g>
    <g id="text_14">
     <text style="font-size: 14px; font-family: 'DejaVu Sans', 'Bitstream Vera Sans', 'Computer Modern Sans Serif', 'Lucida Grande', 'Verdana', 'Geneva', 'Lucid', 'Arial', 'Helvetica', 'Avant Garde', sans-serif; text-anchor: middle" x="21.585625" y="100.1" transform="rotate(-90 21.585625 100.1)">Temperature</text>
    </g>
   </g>
   <g id="line2d_13">
    <path d="M 59.78 86.706394 
L 60.438912 86.947813 
L 61.097824 87.42598 
L 61.756736 88.131759 
L 62.415647 89.051969 
L 63.733471 91.466372 
L 65.051295 94.507978 
L 67.02803 99.854509 
L 74.276061 120.55001 
L 76.911708 127.100853 
L 79.547355 133.006322 
L 82.183003 138.284412 
L 84.159738 141.81702 
L 86.136474 144.965223 
L 88.113209 147.722127 
L 90.089945 150.100198 
L 92.06668 152.127953 
L 94.043416 153.836057 
L 96.020151 155.242107 
L 97.996887 156.344544 
L 99.973623 157.128079 
L 101.291446 157.463665 
L 102.60927 157.643441 
L 103.927094 157.662186 
L 105.244917 157.514587 
L 106.562741 157.195112 
L 107.880565 156.698561 
L 109.198388 156.021275 
L 110.516212 155.162692 
L 112.492948 153.545413 
L 114.469683 151.570046 
L 117.10533 148.50579 
L 121.717713 142.610394 
L 126.989008 136.012111 
L 133.578127 127.800493 
L 146.097452 111.734955 
L 150.050923 107.211257 
L 153.345482 103.738849 
L 157.298953 99.928936 
L 161.252424 96.428157 
L 165.864807 92.63024 
L 171.136102 88.579488 
L 178.384132 83.320929 
L 204.081694 65.186334 
L 206.058429 63.493964 
L 208.035165 61.529507 
L 210.011901 59.283601 
L 213.965372 54.31598 
L 216.601019 51.179993 
L 218.577754 49.179936 
L 220.55449 47.565535 
L 222.531226 46.341172 
L 224.507961 45.469 
L 226.484697 44.893445 
L 228.461432 44.558446 
L 230.438168 44.4195 
L 232.414903 44.4526 
L 234.391639 44.657753 
L 236.368374 45.052849 
L 238.34511 45.65836 
L 240.321845 46.480667 
L 242.957493 47.879838 
L 246.252052 49.961549 
L 254.817906 55.579986 
L 258.771377 57.876613 
L 262.065936 59.52045 
L 264.701584 60.589607 
L 267.337231 61.41911 
L 269.972878 62.029476 
L 273.267438 62.555032 
L 277.87982 63.037678 
L 295.011528 64.585495 
L 296.988264 65.028475 
L 298.306088 65.504296 
L 299.623911 66.197986 
L 300.941735 67.179601 
L 302.259559 68.517807 
L 303.577382 70.271556 
L 304.895206 72.481776 
L 306.21303 75.164918 
L 307.530853 78.309389 
L 309.507589 83.798288 
L 311.484325 90.004333 
L 320.050179 118.195519 
L 322.026914 123.738245 
L 324.00365 128.659454 
L 325.980385 132.925242 
L 327.957121 136.543414 
L 329.933856 139.561471 
L 331.910592 142.059106 
L 333.887327 144.132658 
L 335.864063 145.874969 
L 337.840798 147.356818 
L 339.817534 148.616815 
L 341.794269 149.662433 
L 343.771005 150.480592 
L 345.74774 151.051668 
L 347.724476 151.359982 
L 349.701212 151.396911 
L 351.677947 151.158036 
L 353.654683 150.639649 
L 355.631418 149.838875 
L 357.608154 148.757099 
L 359.584889 147.404331 
L 361.561625 145.801702 
L 364.197272 143.331715 
L 366.832919 140.561896 
L 370.127479 136.784158 
L 373.422038 132.70324 
L 377.375509 127.431182 
L 388.57701 112.120737 
L 391.87157 108.075321 
L 395.166129 104.346155 
L 398.460688 100.940505 
L 401.755247 97.834782 
L 405.708718 94.432183 
L 410.321101 90.790351 
L 423.499338 80.696393 
L 427.452809 77.206394 
L 432.065192 73.152651 
L 434.700839 71.203392 
L 436.677575 69.996378 
L 439.313222 68.664765 
L 447.220164 64.941254 
L 449.855812 63.334466 
L 451.832547 61.911097 
L 454.468195 59.688787 
L 457.103842 57.150976 
L 462.375137 51.939579 
L 464.351872 50.256014 
L 466.328608 48.84135 
L 468.305344 47.737161 
L 470.282079 46.964578 
L 472.258815 46.527909 
L 474.23555 46.416274 
L 476.212286 46.605738 
L 478.189021 47.062838 
L 480.165757 47.748282 
L 482.801404 48.94339 
L 486.095963 50.741899 
L 492.02617 54.320337 
L 497.956377 57.858993 
L 501.250936 59.561734 
L 503.886583 60.663139 
L 506.52223 61.499103 
L 509.157878 62.08017 
L 511.793525 62.440712 
L 515.088084 62.668991 
L 524.31285 63.168197 
L 537.491087 64.375149 
L 539.467823 64.956544 
L 540.785646 65.574191 
L 542.10347 66.444025 
L 543.421294 67.627197 
L 544.739117 69.180867 
L 546.056941 71.151464 
L 547.374765 73.567973 
L 548.692589 76.436867 
L 550.010412 79.739645 
L 551.987148 85.407744 
L 554.622795 93.92571 
L 561.211914 115.931973 
L 563.847561 123.665833 
L 565.824296 128.816481 
L 567.801032 133.384977 
L 569.777768 137.389652 
L 571.754503 140.872613 
L 573.731239 143.885108 
L 575.707974 146.474938 
L 577.68471 148.680697 
L 579.661445 150.532538 
L 581.638181 152.054679 
L 583.614916 153.264655 
L 585.591652 154.168931 
L 587.568387 154.760133 
L 588.886211 154.971406 
L 590.204035 155.028584 
L 591.521858 154.925288 
L 592.839682 154.656522 
L 594.157506 154.219531 
L 595.475329 153.614464 
L 597.452065 152.400274 
L 599.428801 150.843665 
L 601.405536 148.990502 
L 604.041183 146.168023 
L 609.312478 139.999991 
L 613.265949 135.542457 
L 617.878332 130.731567 
L 622.490715 125.867977 
L 626.444186 121.336468 
L 631.715481 114.891197 
L 643.575894 100.33276 
L 648.847189 94.216928 
L 652.80066 89.985192 
L 656.754131 86.080853 
L 670.59128 73.041746 
L 673.226927 70.934116 
L 675.862574 69.179293 
L 679.816046 66.942574 
L 683.110605 64.978297 
L 685.08734 63.572331 
L 687.064076 61.915864 
L 689.040811 59.983353 
L 691.676459 57.038772 
L 696.947754 50.938679 
L 698.924489 49.010987 
L 700.901225 47.422622 
L 702.87796 46.189333 
L 704.854696 45.28729 
L 706.831431 44.674242 
L 708.808167 44.306598 
L 710.784902 44.1474 
L 713.42055 44.206752 
L 716.056197 44.51664 
L 718.691844 45.027078 
L 721.327492 45.735293 
L 723.963139 46.699457 
L 725.939875 47.640456 
L 727.91661 48.792469 
L 730.552258 50.640406 
L 733.846817 53.295693 
L 738.4592 57.027515 
L 741.094847 58.844118 
L 743.071583 59.973719 
L 745.048318 60.892461 
L 747.025054 61.612848 
L 749.660701 62.314227 
L 752.95526 62.901061 
L 757.567643 63.441241 
L 762.180026 63.763526 
L 772.722616 64.260912 
L 774.699351 64.679238 
L 776.017175 65.143232 
L 777.334999 65.815495 
L 778.652822 66.752653 
L 779.970646 68.009815 
L 781.28847 69.633544 
L 782.606293 71.655317 
L 783.924117 74.086782 
L 785.241941 76.917887 
L 787.218676 81.841562 
L 789.195412 87.417946 
L 792.489971 97.538898 
L 796.443442 109.706397 
L 799.079089 117.132332 
L 801.055825 122.145358 
L 803.03256 126.621025 
L 805.009296 130.546951 
L 806.986032 133.944792 
L 808.962767 136.863721 
L 810.939503 139.36606 
L 812.916238 141.506645 
L 814.892974 143.315622 
L 816.869709 144.793416 
L 818.846445 145.920242 
L 820.164268 146.464719 
L 821.482092 146.838593 
L 822.799916 147.041679 
L 824.117739 147.078214 
L 825.435563 146.956354 
L 827.412299 146.50171 
L 829.389034 145.761151 
L 831.36577 144.781999 
L 834.001417 143.183377 
L 837.295976 140.851422 
L 841.908359 137.261136 
L 849.815301 130.845851 
L 853.109861 127.929961 
L 856.40442 124.70263 
L 860.357891 120.448017 
L 878.148511 100.724886 
L 883.419805 95.429141 
L 890.008924 89.133601 
L 899.23369 80.460111 
L 903.187161 76.27315 
L 907.140632 72.127599 
L 909.117367 70.329262 
L 911.094103 68.785979 
L 913.72975 67.04714 
L 918.342133 64.106439 
L 920.318869 62.541946 
L 922.295604 60.640275 
L 924.27234 58.351766 
L 926.249075 55.690927 
L 928.884723 51.713829 
L 934.156017 43.613206 
L 936.132753 41.02654 
L 937.450577 39.556859 
L 938.7684 38.329848 
L 940.086224 37.369151 
L 941.404048 36.687737 
L 942.721871 36.286654 
L 944.039695 36.154545 
L 945.357519 36.268316 
L 946.675343 36.594865 
L 948.652078 37.394261 
L 951.287725 38.806078 
L 956.55902 41.732859 
L 959.853579 43.234678 
L 964.465962 45.01397 
L 968.419433 46.61023 
L 971.055081 47.899959 
L 973.690728 49.460142 
L 976.326376 51.302076 
L 980.279847 54.406651 
L 984.233318 57.44201 
L 986.868965 59.174121 
L 988.845701 60.256891 
L 990.822436 61.140265 
L 992.799172 61.829727 
L 995.434819 62.486137 
L 998.729378 63.007884 
L 1004.659585 63.624381 
L 1009.93088 63.992607 
L 1013.884351 64.042292 
L 1021.132381 63.950263 
L 1021.132381 63.950263 
" clip-path="url(#p4cd17dd51c)" style="fill: none; stroke: #0000ff; stroke-width: 1.5; stroke-linecap: square"/>
   </g>
   <g id="line2d_14">
    <path d="M 59.78 94.076711 
L 60.438912 94.228827 
L 61.097824 94.530957 
L 61.756736 94.97899 
L 63.074559 96.287333 
L 64.392383 98.088752 
L 65.710207 100.302485 
L 67.686942 104.209174 
L 70.32259 110.110032 
L 75.593884 122.774002 
L 81.524091 136.849725 
L 84.81865 144.164328 
L 87.454297 149.541331 
L 89.431033 153.177138 
L 91.407769 156.372873 
L 93.384504 159.046353 
L 94.702328 160.510112 
L 96.020151 161.710452 
L 97.337975 162.649247 
L 98.655799 163.335386 
L 99.973623 163.782978 
L 101.291446 164.009331 
L 102.60927 164.033469 
L 103.927094 163.875044 
L 105.903829 163.337907 
L 107.880565 162.496899 
L 109.8573 161.406655 
L 112.492948 159.636421 
L 115.128595 157.562107 
L 117.764242 155.225421 
L 121.058802 151.994922 
L 125.012273 147.768807 
L 130.283567 141.73726 
L 138.849421 131.855021 
L 143.461804 126.890789 
L 149.392011 120.872503 
L 164.546983 105.701694 
L 173.112837 96.69723 
L 184.97325 84.140436 
L 189.585633 79.6461 
L 193.539104 76.063619 
L 197.492575 72.781393 
L 200.787135 70.315403 
L 205.399518 67.19597 
L 215.942107 60.430406 
L 219.236666 58.615894 
L 221.872314 57.401664 
L 224.507961 56.408617 
L 227.143608 55.631758 
L 229.779256 55.084988 
L 232.414903 54.806249 
L 234.391639 54.796447 
L 236.368374 54.964535 
L 239.004022 55.451049 
L 241.639669 56.194824 
L 244.934228 57.405572 
L 248.228787 58.869896 
L 251.523347 60.584565 
L 254.817906 62.567579 
L 258.771377 65.267772 
L 276.561997 77.972883 
L 283.151115 82.227546 
L 289.081322 86.09494 
L 292.375881 88.506807 
L 295.67044 91.219261 
L 298.965 94.284022 
L 301.600647 97.01442 
L 304.895206 100.788679 
L 308.189765 104.951021 
L 311.484325 109.465057 
L 315.437796 115.275355 
L 320.050179 122.474701 
L 325.321473 131.112898 
L 332.569504 143.025348 
L 335.205151 146.893976 
L 337.181886 149.481592 
L 339.158622 151.77064 
L 341.135358 153.768356 
L 343.112093 155.503763 
L 345.74774 157.475207 
L 348.383388 159.128316 
L 351.019035 160.503293 
L 352.995771 161.335903 
L 354.972506 161.94671 
L 356.949242 162.259815 
L 358.267066 162.260955 
L 359.584889 162.070569 
L 360.902713 161.675375 
L 362.220537 161.072851 
L 363.53836 160.272014 
L 365.515096 158.742974 
L 367.491831 156.903285 
L 370.127479 154.133922 
L 374.739862 148.877824 
L 382.646804 139.473276 
L 391.87157 128.489347 
L 396.483952 123.418903 
L 400.437424 119.390307 
L 405.708718 114.393883 
L 413.61566 106.91778 
L 421.522603 99.393348 
L 425.476074 95.972321 
L 429.429545 92.858845 
L 434.041928 89.525262 
L 439.313222 85.997039 
L 447.220164 81.027439 
L 463.034049 71.389611 
L 471.599903 66.459471 
L 475.553374 64.395923 
L 478.847933 62.908212 
L 481.48358 61.914124 
L 484.119228 61.146254 
L 486.095963 60.770883 
L 488.072699 60.618925 
L 490.049434 60.731841 
L 492.02617 61.13284 
L 494.002905 61.819025 
L 495.979641 62.760927 
L 498.615288 64.325905 
L 502.568759 67.034033 
L 507.840054 70.622209 
L 511.134613 72.582089 
L 514.429173 74.248199 
L 517.723732 75.619409 
L 521.677203 76.964423 
L 528.266321 79.146937 
L 530.901969 80.256991 
L 533.537616 81.625161 
L 535.514352 82.864656 
L 537.491087 84.314797 
L 539.467823 85.991869 
L 541.444558 87.901894 
L 544.080206 90.798859 
L 546.715853 94.048162 
L 550.010412 98.473692 
L 556.599531 107.832018 
L 567.14212 122.728397 
L 573.072327 130.771324 
L 577.025798 135.73072 
L 580.320357 139.4574 
L 582.956004 142.085094 
L 584.93274 143.802721 
L 586.909476 145.269732 
L 588.886211 146.462004 
L 590.862947 147.366814 
L 592.839682 147.985862 
L 594.816418 148.334862 
L 596.793153 148.440064 
L 598.769889 148.333146 
L 601.405536 147.915529 
L 604.041183 147.241673 
L 606.676831 146.353283 
L 609.312478 145.263394 
L 611.948126 143.958495 
L 614.583773 142.409024 
L 617.21942 140.58015 
L 619.855068 138.438765 
L 622.490715 135.964995 
L 625.126362 133.170275 
L 628.420922 129.302436 
L 632.374393 124.285733 
L 637.645688 117.215795 
L 643.575894 108.881344 
L 650.165013 99.673956 
L 654.118484 94.547861 
L 660.707602 86.43602 
L 666.637809 79.389823 
L 671.250192 74.287076 
L 675.862574 69.560625 
L 679.816046 65.840583 
L 683.110605 63.045264 
L 685.746252 61.04992 
L 688.3819 59.286893 
L 691.017547 57.755189 
L 693.653194 56.438278 
L 696.947754 55.062347 
L 700.242313 53.971881 
L 702.87796 53.316398 
L 705.513607 52.863685 
L 708.808167 52.562346 
L 712.761638 52.481221 
L 718.032933 52.622288 
L 721.986404 52.910474 
L 725.280963 53.360261 
L 728.575522 54.043623 
L 732.528993 55.106464 
L 749.001789 60.007127 
L 752.296348 61.195634 
L 755.590908 62.639728 
L 758.226555 64.030188 
L 760.862202 65.666438 
L 763.49785 67.590794 
L 766.133497 69.852198 
L 768.769145 72.485808 
L 771.404792 75.481541 
L 774.699351 79.602732 
L 780.629558 87.137293 
L 784.583029 91.720392 
L 795.78453 104.309194 
L 800.396913 110.029993 
L 808.303855 120.35165 
L 816.210797 130.491847 
L 821.482092 136.94588 
L 824.117739 139.901279 
L 826.094475 141.862417 
L 828.071211 143.500084 
L 829.389034 144.370486 
L 830.706858 145.04476 
L 832.024682 145.518121 
L 833.342505 145.797148 
L 834.660329 145.89858 
L 836.637065 145.771546 
L 838.6138 145.392102 
L 841.249447 144.630578 
L 844.544007 143.397821 
L 847.179654 142.164568 
L 849.15639 141.037562 
L 851.133125 139.696957 
L 853.109861 138.130695 
L 855.745508 135.72867 
L 859.040067 132.389157 
L 869.582657 121.488602 
L 874.853951 116.428502 
L 878.807423 112.903649 
L 882.760894 109.65809 
L 890.667836 103.339803 
L 892.644571 101.438367 
L 894.621307 99.229353 
L 896.598042 96.657367 
L 898.574778 93.731712 
L 901.869337 88.331162 
L 905.163896 82.934861 
L 907.140632 80.032175 
L 909.117367 77.527965 
L 911.094103 75.462328 
L 913.070838 73.804708 
L 915.047574 72.473267 
L 917.683221 71.030221 
L 921.636692 69.197829 
L 926.907987 67.020997 
L 931.52037 65.359372 
L 937.450577 63.490183 
L 953.923373 58.505024 
L 961.830315 55.687274 
L 979.620935 49.338962 
L 982.915494 48.344605 
L 984.89223 47.9117 
L 986.868965 47.692748 
L 988.845701 47.766597 
L 990.163524 48.008172 
L 991.481348 48.412891 
L 993.458083 49.316477 
L 995.434819 50.530071 
L 998.070466 52.497076 
L 1002.023937 55.832448 
L 1012.566527 64.894833 
L 1015.202174 66.833471 
L 1017.17891 68.000903 
L 1018.496734 68.580923 
L 1019.814557 68.966699 
L 1021.132381 69.136265 
L 1021.132381 69.136265 
" clip-path="url(#p4cd17dd51c)" style="fill: none; stroke: #ff0000; stroke-width: 1.5; stroke-linecap: square"/>
   </g>
   <g id="line2d_15">
    <path d="M 540.785646 170.44 
L 540.785646 29.76 
" clip-path="url(#p4cd17dd51c)" style="fill: none; stroke: #1f77b4; stroke-width: 1.5; stroke-linecap: square"/>
   </g>
   <g id="patch_3">
    <path d="M 59.78 170.44 
L 59.78 29.76 
" style="fill: none; stroke: #000000; stroke-width: 0.8; stroke-linejoin: miter; stroke-linecap: square"/>
   </g>
   <g id="patch_4">
    <path d="M 1069.2 170.44 
L 1069.2 29.76 
" style="fill: none; stroke: #000000; stroke-width: 0.8; stroke-linejoin: miter; stroke-linecap: square"/>
   </g>
   <g id="patch_5">
    <path d="M 59.78 170.44 
L 1069.2 170.44 
" style="fill: none; stroke: #000000; stroke-width: 0.8; stroke-linejoin: miter; stroke-linecap: square"/>
   </g>
   <g id="patch_6">
    <path d="M 59.78 29.76 
L 1069.2 29.76 
" style="fill: none; stroke: #000000; stroke-width: 0.8; stroke-linejoin: miter; stroke-linecap: square"/>
   </g>
   <g id="text_15">
    <text style="font-size: 16px; font-family: 'DejaVu Sans', 'Bitstream Vera Sans', 'Computer Modern Sans Serif', 'Lucida Grande', 'Verdana', 'Geneva', 'Lucid', 'Arial', 'Helvetica', 'Avant Garde', sans-serif; text-anchor: middle" x="564.49" y="23.76" transform="rotate(-0 564.49 23.76)">Heat Conduction Equation Solution at x=3M</text>
   </g>
  </g>
 </g>
 <defs>
  <clipPath id="p4cd17dd51c">
   <rect x="59.78" y="29.76" width="1009.42" height="140.68"/>
  </clipPath>
 </defs>
</svg>
