<?xml version="1.0" encoding="utf-8" standalone="no"?>
<!DOCTYPE svg PUBLIC "-//W3C//DTD SVG 1.1//EN"
  "http://www.w3.org/Graphics/SVG/1.1/DTD/svg11.dtd">
<svg xmlns:xlink="http://www.w3.org/1999/xlink" width="1080pt" height="216pt" viewBox="0 0 1080 216" xmlns="http://www.w3.org/2000/svg" version="1.1">
 <metadata>
  <rdf:RDF xmlns:dc="http://purl.org/dc/elements/1.1/" xmlns:cc="http://creativecommons.org/ns#" xmlns:rdf="http://www.w3.org/1999/02/22-rdf-syntax-ns#">
   <cc:Work>
    <dc:type rdf:resource="http://purl.org/dc/dcmitype/StillImage"/>
    <dc:date>2026-02-09T09:40:17.534619</dc:date>
    <dc:format>image/svg+xml</dc:format>
    <dc:creator>
     <cc:Agent>
      <dc:title>Matplotlib v3.10.8, https://matplotlib.org/</dc:title>
     </cc:Agent>
    </dc:creator>
   </cc:Work>
  </rdf:RDF>
 </metadata>
 <defs>
  <style type="text/css">*{stroke-linejoin: round; stroke-linecap: butt}</style>
 </defs>
 <g id="figure_1">
  <g id="patch_1">
   <path d="M 0 216 
L 1080 216 
L 1080 0 
L 0 0 
z
" style="fill: #ffffff"/>
  </g>
  <g id="axes_1">
   <g id="patch_2">
    <path d="M 56.63 170.44 
L 1069.2 170.44 
L 1069.2 29.76 
L 56.63 29.76 
z
" style="fill: #ffffff"/>
   </g>
   <g id="matplotlib.axis_1">
    <g id="xtick_1">
     <g id="line2d_1">
      <defs>
       <path id="m36ce36364b" d="M 0 0 
L 0 3.5 
" style="stroke: #000000; stroke-width: 0.8"/>
      </defs>
      <g>
       <use xlink:href="#m36ce36364b" x="56.63" y="170.44" style="stroke: #000000; stroke-width: 0.8"/>
      </g>
     </g>
     <g id="text_1">
      <!-- 0 -->
      <g transform="translate(53.44875 185.038437) scale(0.1 -0.1)">
       <defs>
        <path id="DejaVuSans-30" d="M 2034 4250 
Q 1547 4250 1301 3770 
Q 1056 3291 1056 2328 
Q 1056 1369 1301 889 
Q 1547 409 2034 409 
Q 2525 409 2770 889 
Q 3016 1369 3016 2328 
Q 3016 3291 2770 3770 
Q 2525 4250 2034 4250 
z
M 2034 4750 
Q 2819 4750 3233 4129 
Q 3647 3509 3647 2328 
Q 3647 1150 3233 529 
Q 2819 -91 2034 -91 
Q 1250 -91 836 529 
Q 422 1150 422 2328 
Q 422 3509 836 4129 
Q 1250 4750 2034 4750 
z
" transform="scale(0.015625)"/>
       </defs>
       <use xlink:href="#DejaVuSans-30"/>
      </g>
     </g>
    </g>
    <g id="xtick_2">
     <g id="line2d_2">
      <g>
       <use xlink:href="#m36ce36364b" x="195.585674" y="170.44" style="stroke: #000000; stroke-width: 0.8"/>
      </g>
     </g>
     <g id="text_2">
      <!-- 100 -->
      <g transform="translate(186.041924 185.038437) scale(0.1 -0.1)">
       <defs>
        <path id="DejaVuSans-31" d="M 794 531 
L 1825 531 
L 1825 4091 
L 703 3866 
L 703 4441 
L 1819 4666 
L 2450 4666 
L 2450 531 
L 3481 531 
L 3481 0 
L 794 0 
L 794 531 
z
" transform="scale(0.015625)"/>
       </defs>
       <use xlink:href="#DejaVuSans-31"/>
       <use xlink:href="#DejaVuSans-30" transform="translate(63.623047 0)"/>
       <use xlink:href="#DejaVuSans-30" transform="translate(127.246094 0)"/>
      </g>
     </g>
    </g>
    <g id="xtick_3">
     <g id="line2d_3">
      <g>
       <use xlink:href="#m36ce36364b" x="334.541349" y="170.44" style="stroke: #000000; stroke-width: 0.8"/>
      </g>
     </g>
     <g id="text_3">
      <!-- 200 -->
      <g transform="translate(324.997599 185.038437) scale(0.1 -0.1)">
       <defs>
        <path id="DejaVuSans-32" d="M 1228 531 
L 3431 531 
L 3431 0 
L 469 0 
L 469 531 
Q 828 903 1448 1529 
Q 2069 2156 2228 2338 
Q 2531 2678 2651 2914 
Q 2772 3150 2772 3378 
Q 2772 3750 2511 3984 
Q 2250 4219 1831 4219 
Q 1534 4219 1204 4116 
Q 875 4013 500 3803 
L 500 4441 
Q 881 4594 1212 4672 
Q 1544 4750 1819 4750 
Q 2544 4750 2975 4387 
Q 3406 4025 3406 3419 
Q 3406 3131 3298 2873 
Q 3191 2616 2906 2266 
Q 2828 2175 2409 1742 
Q 1991 1309 1228 531 
z
" transform="scale(0.015625)"/>
       </defs>
       <use xlink:href="#DejaVuSans-32"/>
       <use xlink:href="#DejaVuSans-30" transform="translate(63.623047 0)"/>
       <use xlink:href="#DejaVuSans-30" transform="translate(127.246094 0)"/>
      </g>
     </g>
    </g>
    <g id="xtick_4">
     <g id="line2d_4">
      <g>
       <use xlink:href="#m36ce36364b" x="473.497023" y="170.44" style="stroke: #000000; stroke-width: 0.8"/>
      </g>
     </g>
     <g id="text_4">
      <!-- 300 -->
      <g transform="translate(463.953273 185.038437) scale(0.1 -0.1)">
       <defs>
        <path id="DejaVuSans-33" d="M 2597 2516 
Q 3050 2419 3304 2112 
Q 3559 1806 3559 1356 
Q 3559 666 3084 287 
Q 2609 -91 1734 -91 
Q 1441 -91 1130 -33 
Q 819 25 488 141 
L 488 750 
Q 750 597 1062 519 
Q 1375 441 1716 441 
Q 2309 441 2620 675 
Q 2931 909 2931 1356 
Q 2931 1769 2642 2001 
Q 2353 2234 1838 2234 
L 1294 2234 
L 1294 2753 
L 1863 2753 
Q 2328 2753 2575 2939 
Q 2822 3125 2822 3475 
Q 2822 3834 2567 4026 
Q 2313 4219 1838 4219 
Q 1578 4219 1281 4162 
Q 984 4106 628 3988 
L 628 4550 
Q 988 4650 1302 4700 
Q 1616 4750 1894 4750 
Q 2613 4750 3031 4423 
Q 3450 4097 3450 3541 
Q 3450 3153 3228 2886 
Q 3006 2619 2597 2516 
z
" transform="scale(0.015625)"/>
       </defs>
       <use xlink:href="#DejaVuSans-33"/>
       <use xlink:href="#DejaVuSans-30" transform="translate(63.623047 0)"/>
       <use xlink:href="#DejaVuSans-30" transform="translate(127.246094 0)"/>
      </g>
     </g>
    </g>
    <g id="xtick_5">
     <g id="line2d_5">
      <g>
       <use xlink:href="#m36ce36364b" x="612.452698" y="170.44" style="stroke: #000000; stroke-width: 0.8"/>
      </g>
     </g>
     <g id="text_5">
      <!-- 400 -->
      <g transform="translate(602.908948 185.038437) scale(0.1 -0.1)">
       <defs>
        <path id="DejaVuSans-34" d="M 2419 4116 
L 825 1625 
L 2419 1625 
L 2419 4116 
z
M 2253 4666 
L 3047 4666 
L 3047 1625 
L 3713 1625 
L 3713 1100 
L 3047 1100 
L 3047 0 
L 2419 0 
L 2419 1100 
L 313 1100 
L 313 1709 
L 2253 4666 
z
" transform="scale(0.015625)"/>
       </defs>
       <use xlink:href="#DejaVuSans-34"/>
       <use xlink:href="#DejaVuSans-30" transform="translate(63.623047 0)"/>
       <use xlink:href="#DejaVuSans-30" transform="translate(127.246094 0)"/>
      </g>
     </g>
    </g>
    <g id="xtick_6">
     <g id="line2d_6">
      <g>
       <use xlink:href="#m36ce36364b" x="751.408372" y="170.44" style="stroke: #000000; stroke-width: 0.8"/>
      </g>
     </g>
     <g id="text_6">
      <!-- 500 -->
      <g transform="translate(741.864622 185.038437) scale(0.1 -0.1)">
       <defs>
        <path id="DejaVuSans-35" d="M 691 4666 
L 3169 4666 
L 3169 4134 
L 1269 4134 
L 1269 2991 
Q 1406 3038 1543 3061 
Q 1681 3084 1819 3084 
Q 2600 3084 3056 2656 
Q 3513 2228 3513 1497 
Q 3513 744 3044 326 
Q 2575 -91 1722 -91 
Q 1428 -91 1123 -41 
Q 819 9 494 109 
L 494 744 
Q 775 591 1075 516 
Q 1375 441 1709 441 
Q 2250 441 2565 725 
Q 2881 1009 2881 1497 
Q 2881 1984 2565 2268 
Q 2250 2553 1709 2553 
Q 1456 2553 1204 2497 
Q 953 2441 691 2322 
L 691 4666 
z
" transform="scale(0.015625)"/>
       </defs>
       <use xlink:href="#DejaVuSans-35"/>
       <use xlink:href="#DejaVuSans-30" transform="translate(63.623047 0)"/>
       <use xlink:href="#DejaVuSans-30" transform="translate(127.246094 0)"/>
      </g>
     </g>
    </g>
    <g id="xtick_7">
     <g id="line2d_7">
      <g>
       <use xlink:href="#m36ce36364b" x="890.364047" y="170.44" style="stroke: #000000; stroke-width: 0.8"/>
      </g>
     </g>
     <g id="text_7">
      <!-- 600 -->
      <g transform="translate(880.820297 185.038437) scale(0.1 -0.1)">
       <defs>
        <path id="DejaVuSans-36" d="M 2113 2584 
Q 1688 2584 1439 2293 
Q 1191 2003 1191 1497 
Q 1191 994 1439 701 
Q 1688 409 2113 409 
Q 2538 409 2786 701 
Q 3034 994 3034 1497 
Q 3034 2003 2786 2293 
Q 2538 2584 2113 2584 
z
M 3366 4563 
L 3366 3988 
Q 3128 4100 2886 4159 
Q 2644 4219 2406 4219 
Q 1781 4219 1451 3797 
Q 1122 3375 1075 2522 
Q 1259 2794 1537 2939 
Q 1816 3084 2150 3084 
Q 2853 3084 3261 2657 
Q 3669 2231 3669 1497 
Q 3669 778 3244 343 
Q 2819 -91 2113 -91 
Q 1303 -91 875 529 
Q 447 1150 447 2328 
Q 447 3434 972 4092 
Q 1497 4750 2381 4750 
Q 2619 4750 2861 4703 
Q 3103 4656 3366 4563 
z
" transform="scale(0.015625)"/>
       </defs>
       <use xlink:href="#DejaVuSans-36"/>
       <use xlink:href="#DejaVuSans-30" transform="translate(63.623047 0)"/>
       <use xlink:href="#DejaVuSans-30" transform="translate(127.246094 0)"/>
      </g>
     </g>
    </g>
    <g id="xtick_8">
     <g id="line2d_8">
      <g>
       <use xlink:href="#m36ce36364b" x="1029.319721" y="170.44" style="stroke: #000000; stroke-width: 0.8"/>
      </g>
     </g>
     <g id="text_8">
      <!-- 700 -->
      <g transform="translate(1019.775971 185.038437) scale(0.1 -0.1)">
       <defs>
        <path id="DejaVuSans-37" d="M 525 4666 
L 3525 4666 
L 3525 4397 
L 1831 0 
L 1172 0 
L 2766 4134 
L 525 4134 
L 525 4666 
z
" transform="scale(0.015625)"/>
       </defs>
       <use xlink:href="#DejaVuSans-37"/>
       <use xlink:href="#DejaVuSans-30" transform="translate(63.623047 0)"/>
       <use xlink:href="#DejaVuSans-30" transform="translate(127.246094 0)"/>
      </g>
     </g>
    </g>
    <g id="text_9">
     <!-- Simulation Days -->
     <g transform="translate(505.935 201.755937) scale(0.14 -0.14)">
      <defs>
       <path id="DejaVuSans-53" d="M 3425 4513 
L 3425 3897 
Q 3066 4069 2747 4153 
Q 2428 4238 2131 4238 
Q 1616 4238 1336 4038 
Q 1056 3838 1056 3469 
Q 1056 3159 1242 3001 
Q 1428 2844 1947 2747 
L 2328 2669 
Q 3034 2534 3370 2195 
Q 3706 1856 3706 1288 
Q 3706 609 3251 259 
Q 2797 -91 1919 -91 
Q 1588 -91 1214 -16 
Q 841 59 441 206 
L 441 856 
Q 825 641 1194 531 
Q 1563 422 1919 422 
Q 2459 422 2753 634 
Q 3047 847 3047 1241 
Q 3047 1584 2836 1778 
Q 2625 1972 2144 2069 
L 1759 2144 
Q 1053 2284 737 2584 
Q 422 2884 422 3419 
Q 422 4038 858 4394 
Q 1294 4750 2059 4750 
Q 2388 4750 2728 4690 
Q 3069 4631 3425 4513 
z
" transform="scale(0.015625)"/>
       <path id="DejaVuSans-69" d="M 603 3500 
L 1178 3500 
L 1178 0 
L 603 0 
L 603 3500 
z
M 603 4863 
L 1178 4863 
L 1178 4134 
L 603 4134 
L 603 4863 
z
" transform="scale(0.015625)"/>
       <path id="DejaVuSans-6d" d="M 3328 2828 
Q 3544 3216 3844 3400 
Q 4144 3584 4550 3584 
Q 5097 3584 5394 3201 
Q 5691 2819 5691 2113 
L 5691 0 
L 5113 0 
L 5113 2094 
Q 5113 2597 4934 2840 
Q 4756 3084 4391 3084 
Q 3944 3084 3684 2787 
Q 3425 2491 3425 1978 
L 3425 0 
L 2847 0 
L 2847 2094 
Q 2847 2600 2669 2842 
Q 2491 3084 2119 3084 
Q 1678 3084 1418 2786 
Q 1159 2488 1159 1978 
L 1159 0 
L 581 0 
L 581 3500 
L 1159 3500 
L 1159 2956 
Q 1356 3278 1631 3431 
Q 1906 3584 2284 3584 
Q 2666 3584 2933 3390 
Q 3200 3197 3328 2828 
z
" transform="scale(0.015625)"/>
       <path id="DejaVuSans-75" d="M 544 1381 
L 544 3500 
L 1119 3500 
L 1119 1403 
Q 1119 906 1312 657 
Q 1506 409 1894 409 
Q 2359 409 2629 706 
Q 2900 1003 2900 1516 
L 2900 3500 
L 3475 3500 
L 3475 0 
L 2900 0 
L 2900 538 
Q 2691 219 2414 64 
Q 2138 -91 1772 -91 
Q 1169 -91 856 284 
Q 544 659 544 1381 
z
M 1991 3584 
L 1991 3584 
z
" transform="scale(0.015625)"/>
       <path id="DejaVuSans-6c" d="M 603 4863 
L 1178 4863 
L 1178 0 
L 603 0 
L 603 4863 
z
" transform="scale(0.015625)"/>
       <path id="DejaVuSans-61" d="M 2194 1759 
Q 1497 1759 1228 1600 
Q 959 1441 959 1056 
Q 959 750 1161 570 
Q 1363 391 1709 391 
Q 2188 391 2477 730 
Q 2766 1069 2766 1631 
L 2766 1759 
L 2194 1759 
z
M 3341 1997 
L 3341 0 
L 2766 0 
L 2766 531 
Q 2569 213 2275 61 
Q 1981 -91 1556 -91 
Q 1019 -91 701 211 
Q 384 513 384 1019 
Q 384 1609 779 1909 
Q 1175 2209 1959 2209 
L 2766 2209 
L 2766 2266 
Q 2766 2663 2505 2880 
Q 2244 3097 1772 3097 
Q 1472 3097 1187 3025 
Q 903 2953 641 2809 
L 641 3341 
Q 956 3463 1253 3523 
Q 1550 3584 1831 3584 
Q 2591 3584 2966 3190 
Q 3341 2797 3341 1997 
z
" transform="scale(0.015625)"/>
       <path id="DejaVuSans-74" d="M 1172 4494 
L 1172 3500 
L 2356 3500 
L 2356 3053 
L 1172 3053 
L 1172 1153 
Q 1172 725 1289 603 
Q 1406 481 1766 481 
L 2356 481 
L 2356 0 
L 1766 0 
Q 1100 0 847 248 
Q 594 497 594 1153 
L 594 3053 
L 172 3053 
L 172 3500 
L 594 3500 
L 594 4494 
L 1172 4494 
z
" transform="scale(0.015625)"/>
       <path id="DejaVuSans-6f" d="M 1959 3097 
Q 1497 3097 1228 2736 
Q 959 2375 959 1747 
Q 959 1119 1226 758 
Q 1494 397 1959 397 
Q 2419 397 2687 759 
Q 2956 1122 2956 1747 
Q 2956 2369 2687 2733 
Q 2419 3097 1959 3097 
z
M 1959 3584 
Q 2709 3584 3137 3096 
Q 3566 2609 3566 1747 
Q 3566 888 3137 398 
Q 2709 -91 1959 -91 
Q 1206 -91 779 398 
Q 353 888 353 1747 
Q 353 2609 779 3096 
Q 1206 3584 1959 3584 
z
" transform="scale(0.015625)"/>
       <path id="DejaVuSans-6e" d="M 3513 2113 
L 3513 0 
L 2938 0 
L 2938 2094 
Q 2938 2591 2744 2837 
Q 2550 3084 2163 3084 
Q 1697 3084 1428 2787 
Q 1159 2491 1159 1978 
L 1159 0 
L 581 0 
L 581 3500 
L 1159 3500 
L 1159 2956 
Q 1366 3272 1645 3428 
Q 1925 3584 2291 3584 
Q 2894 3584 3203 3211 
Q 3513 2838 3513 2113 
z
" transform="scale(0.015625)"/>
       <path id="DejaVuSans-20" transform="scale(0.015625)"/>
       <path id="DejaVuSans-44" d="M 1259 4147 
L 1259 519 
L 2022 519 
Q 2988 519 3436 956 
Q 3884 1394 3884 2338 
Q 3884 3275 3436 3711 
Q 2988 4147 2022 4147 
L 1259 4147 
z
M 628 4666 
L 1925 4666 
Q 3281 4666 3915 4102 
Q 4550 3538 4550 2338 
Q 4550 1131 3912 565 
Q 3275 0 1925 0 
L 628 0 
L 628 4666 
z
" transform="scale(0.015625)"/>
       <path id="DejaVuSans-79" d="M 2059 -325 
Q 1816 -950 1584 -1140 
Q 1353 -1331 966 -1331 
L 506 -1331 
L 506 -850 
L 844 -850 
Q 1081 -850 1212 -737 
Q 1344 -625 1503 -206 
L 1606 56 
L 191 3500 
L 800 3500 
L 1894 763 
L 2988 3500 
L 3597 3500 
L 2059 -325 
z
" transform="scale(0.015625)"/>
       <path id="DejaVuSans-73" d="M 2834 3397 
L 2834 2853 
Q 2591 2978 2328 3040 
Q 2066 3103 1784 3103 
Q 1356 3103 1142 2972 
Q 928 2841 928 2578 
Q 928 2378 1081 2264 
Q 1234 2150 1697 2047 
L 1894 2003 
Q 2506 1872 2764 1633 
Q 3022 1394 3022 966 
Q 3022 478 2636 193 
Q 2250 -91 1575 -91 
Q 1294 -91 989 -36 
Q 684 19 347 128 
L 347 722 
Q 666 556 975 473 
Q 1284 391 1588 391 
Q 1994 391 2212 530 
Q 2431 669 2431 922 
Q 2431 1156 2273 1281 
Q 2116 1406 1581 1522 
L 1381 1569 
Q 847 1681 609 1914 
Q 372 2147 372 2553 
Q 372 3047 722 3315 
Q 1072 3584 1716 3584 
Q 2034 3584 2315 3537 
Q 2597 3491 2834 3397 
z
" transform="scale(0.015625)"/>
      </defs>
      <use xlink:href="#DejaVuSans-53"/>
      <use xlink:href="#DejaVuSans-69" transform="translate(63.476562 0)"/>
      <use xlink:href="#DejaVuSans-6d" transform="translate(91.259766 0)"/>
      <use xlink:href="#DejaVuSans-75" transform="translate(188.671875 0)"/>
      <use xlink:href="#DejaVuSans-6c" transform="translate(252.050781 0)"/>
      <use xlink:href="#DejaVuSans-61" transform="translate(279.833984 0)"/>
      <use xlink:href="#DejaVuSans-74" transform="translate(341.113281 0)"/>
      <use xlink:href="#DejaVuSans-69" transform="translate(380.322266 0)"/>
      <use xlink:href="#DejaVuSans-6f" transform="translate(408.105469 0)"/>
      <use xlink:href="#DejaVuSans-6e" transform="translate(469.287109 0)"/>
      <use xlink:href="#DejaVuSans-20" transform="translate(532.666016 0)"/>
      <use xlink:href="#DejaVuSans-44" transform="translate(564.453125 0)"/>
      <use xlink:href="#DejaVuSans-61" transform="translate(641.455078 0)"/>
      <use xlink:href="#DejaVuSans-79" transform="translate(702.734375 0)"/>
      <use xlink:href="#DejaVuSans-73" transform="translate(761.914062 0)"/>
     </g>
    </g>
   </g>
   <g id="matplotlib.axis_2">
    <g id="ytick_1">
     <g id="line2d_9">
      <defs>
       <path id="m0ed5e1343b" d="M 0 0 
L -3.5 0 
" style="stroke: #000000; stroke-width: 0.8"/>
      </defs>
      <g>
       <use xlink:href="#m0ed5e1343b" x="56.63" y="145.767494" style="stroke: #000000; stroke-width: 0.8"/>
      </g>
     </g>
     <g id="text_10">
      <!-- −10 -->
      <g transform="translate(28.525313 149.566712) scale(0.1 -0.1)">
       <defs>
        <path id="DejaVuSans-2212" d="M 678 2272 
L 4684 2272 
L 4684 1741 
L 678 1741 
L 678 2272 
z
" transform="scale(0.015625)"/>
       </defs>
       <use xlink:href="#DejaVuSans-2212"/>
       <use xlink:href="#DejaVuSans-31" transform="translate(83.789062 0)"/>
       <use xlink:href="#DejaVuSans-30" transform="translate(147.412109 0)"/>
      </g>
     </g>
    </g>
    <g id="ytick_2">
     <g id="line2d_10">
      <g>
       <use xlink:href="#m0ed5e1343b" x="56.63" y="112.041503" style="stroke: #000000; stroke-width: 0.8"/>
      </g>
     </g>
     <g id="text_11">
      <!-- −5 -->
      <g transform="translate(34.887813 115.840721) scale(0.1 -0.1)">
       <use xlink:href="#DejaVuSans-2212"/>
       <use xlink:href="#DejaVuSans-35" transform="translate(83.789062 0)"/>
      </g>
     </g>
    </g>
    <g id="ytick_3">
     <g id="line2d_11">
      <g>
       <use xlink:href="#m0ed5e1343b" x="56.63" y="78.315511" style="stroke: #000000; stroke-width: 0.8"/>
      </g>
     </g>
     <g id="text_12">
      <!-- 0 -->
      <g transform="translate(43.2675 82.11473) scale(0.1 -0.1)">
       <use xlink:href="#DejaVuSans-30"/>
      </g>
     </g>
    </g>
    <g id="ytick_4">
     <g id="line2d_12">
      <g>
       <use xlink:href="#m0ed5e1343b" x="56.63" y="44.58952" style="stroke: #000000; stroke-width: 0.8"/>
      </g>
     </g>
     <g id="text_13">
      <!-- 5 -->
      <g transform="translate(43.2675 48.388739) scale(0.1 -0.1)">
       <use xlink:href="#DejaVuSans-35"/>
      </g>
     </g>
    </g>
    <g id="text_14">
     <!-- Temperature (℃) -->
     <g transform="translate(21.61375 159.986094) rotate(-90) scale(0.14 -0.14)">
      <defs>
       <path id="DejaVuSans-54" d="M -19 4666 
L 3928 4666 
L 3928 4134 
L 2272 4134 
L 2272 0 
L 1638 0 
L 1638 4134 
L -19 4134 
L -19 4666 
z
" transform="scale(0.015625)"/>
       <path id="DejaVuSans-65" d="M 3597 1894 
L 3597 1613 
L 953 1613 
Q 991 1019 1311 708 
Q 1631 397 2203 397 
Q 2534 397 2845 478 
Q 3156 559 3463 722 
L 3463 178 
Q 3153 47 2828 -22 
Q 2503 -91 2169 -91 
Q 1331 -91 842 396 
Q 353 884 353 1716 
Q 353 2575 817 3079 
Q 1281 3584 2069 3584 
Q 2775 3584 3186 3129 
Q 3597 2675 3597 1894 
z
M 3022 2063 
Q 3016 2534 2758 2815 
Q 2500 3097 2075 3097 
Q 1594 3097 1305 2825 
Q 1016 2553 972 2059 
L 3022 2063 
z
" transform="scale(0.015625)"/>
       <path id="DejaVuSans-70" d="M 1159 525 
L 1159 -1331 
L 581 -1331 
L 581 3500 
L 1159 3500 
L 1159 2969 
Q 1341 3281 1617 3432 
Q 1894 3584 2278 3584 
Q 2916 3584 3314 3078 
Q 3713 2572 3713 1747 
Q 3713 922 3314 415 
Q 2916 -91 2278 -91 
Q 1894 -91 1617 61 
Q 1341 213 1159 525 
z
M 3116 1747 
Q 3116 2381 2855 2742 
Q 2594 3103 2138 3103 
Q 1681 3103 1420 2742 
Q 1159 2381 1159 1747 
Q 1159 1113 1420 752 
Q 1681 391 2138 391 
Q 2594 391 2855 752 
Q 3116 1113 3116 1747 
z
" transform="scale(0.015625)"/>
       <path id="DejaVuSans-72" d="M 2631 2963 
Q 2534 3019 2420 3045 
Q 2306 3072 2169 3072 
Q 1681 3072 1420 2755 
Q 1159 2438 1159 1844 
L 1159 0 
L 581 0 
L 581 3500 
L 1159 3500 
L 1159 2956 
Q 1341 3275 1631 3429 
Q 1922 3584 2338 3584 
Q 2397 3584 2469 3576 
Q 2541 3569 2628 3553 
L 2631 2963 
z
" transform="scale(0.015625)"/>
       <path id="DejaVuSans-28" d="M 1984 4856 
Q 1566 4138 1362 3434 
Q 1159 2731 1159 2009 
Q 1159 1288 1364 580 
Q 1569 -128 1984 -844 
L 1484 -844 
Q 1016 -109 783 600 
Q 550 1309 550 2009 
Q 550 2706 781 3412 
Q 1013 4119 1484 4856 
L 1984 4856 
z
" transform="scale(0.015625)"/>
       <path id="DejaVuSans-2103" d="M 1600 4347 
Q 1350 4347 1178 4173 
Q 1006 4000 1006 3750 
Q 1006 3503 1178 3333 
Q 1350 3163 1600 3163 
Q 1850 3163 2022 3333 
Q 2194 3503 2194 3750 
Q 2194 3997 2020 4172 
Q 1847 4347 1600 4347 
z
M 1600 4750 
Q 1800 4750 1984 4673 
Q 2169 4597 2303 4453 
Q 2447 4313 2519 4134 
Q 2591 3956 2591 3750 
Q 2591 3338 2302 3052 
Q 2013 2766 1594 2766 
Q 1172 2766 890 3047 
Q 609 3328 609 3750 
Q 609 4169 896 4459 
Q 1184 4750 1600 4750 
z
M 6741 4306 
L 6741 3641 
Q 6422 3938 6061 4084 
Q 5700 4231 5294 4231 
Q 4494 4231 4069 3742 
Q 3644 3253 3644 2328 
Q 3644 1406 4069 917 
Q 4494 428 5294 428 
Q 5700 428 6061 575 
Q 6422 722 6741 1019 
L 6741 359 
Q 6409 134 6039 21 
Q 5669 -91 5256 -91 
Q 4197 -91 3587 557 
Q 2978 1206 2978 2328 
Q 2978 3453 3587 4101 
Q 4197 4750 5256 4750 
Q 5675 4750 6045 4639 
Q 6416 4528 6741 4306 
z
" transform="scale(0.015625)"/>
       <path id="DejaVuSans-29" d="M 513 4856 
L 1013 4856 
Q 1481 4119 1714 3412 
Q 1947 2706 1947 2009 
Q 1947 1309 1714 600 
Q 1481 -109 1013 -844 
L 513 -844 
Q 928 -128 1133 580 
Q 1338 1288 1338 2009 
Q 1338 2731 1133 3434 
Q 928 4138 513 4856 
z
" transform="scale(0.015625)"/>
      </defs>
      <use xlink:href="#DejaVuSans-54"/>
      <use xlink:href="#DejaVuSans-65" transform="translate(44.083984 0)"/>
      <use xlink:href="#DejaVuSans-6d" transform="translate(105.607422 0)"/>
      <use xlink:href="#DejaVuSans-70" transform="translate(203.019531 0)"/>
      <use xlink:href="#DejaVuSans-65" transform="translate(266.496094 0)"/>
      <use xlink:href="#DejaVuSans-72" transform="translate(328.019531 0)"/>
      <use xlink:href="#DejaVuSans-61" transform="translate(369.132812 0)"/>
      <use xlink:href="#DejaVuSans-74" transform="translate(430.412109 0)"/>
      <use xlink:href="#DejaVuSans-75" transform="translate(469.621094 0)"/>
      <use xlink:href="#DejaVuSans-72" transform="translate(533 0)"/>
      <use xlink:href="#DejaVuSans-65" transform="translate(571.863281 0)"/>
      <use xlink:href="#DejaVuSans-20" transform="translate(633.386719 0)"/>
      <use xlink:href="#DejaVuSans-28" transform="translate(665.173828 0)"/>
      <use xlink:href="#DejaVuSans-2103" transform="translate(704.1875 0)"/>
      <use xlink:href="#DejaVuSans-29" transform="translate(816.492188 0)"/>
     </g>
    </g>
   </g>
   <g id="line2d_13">
    <path d="M 56.63 76.304804 
L 60.79867 76.471289 
L 66.356897 76.977017 
L 76.083794 77.938227 
L 83.031578 78.375939 
L 105.264486 79.58337 
L 110.822713 80.07149 
L 114.991383 80.614035 
L 119.160054 81.407203 
L 123.328724 82.511997 
L 127.497394 83.910487 
L 141.392961 88.945317 
L 146.951188 90.539388 
L 155.288529 92.899114 
L 160.846756 94.704084 
L 166.404983 96.731744 
L 170.573653 98.453962 
L 174.742323 100.459257 
L 177.521437 102.010307 
L 180.30055 103.757483 
L 184.469221 106.72821 
L 196.975231 116.222718 
L 199.754345 117.946041 
L 202.533458 119.458458 
L 213.649912 125.093343 
L 216.429026 126.918504 
L 219.208139 128.98459 
L 226.155923 134.446203 
L 228.935036 136.273235 
L 230.324593 137.017678 
L 231.71415 137.626164 
L 233.103707 138.086626 
L 234.493263 138.391819 
L 235.88282 138.539255 
L 237.272377 138.530954 
L 238.661934 138.373016 
L 240.05149 138.074951 
L 242.830604 137.109858 
L 245.609717 135.757731 
L 249.778388 133.326766 
L 253.947058 130.922978 
L 256.726171 129.651008 
L 258.115728 129.187399 
L 259.505285 128.869134 
L 260.894841 128.716286 
L 262.284398 128.745363 
L 263.673955 128.968573 
L 265.063512 129.393099 
L 266.453068 130.020631 
L 267.842625 130.847208 
L 269.232182 131.863512 
L 270.621739 133.055134 
L 273.400852 135.885786 
L 276.179966 139.154987 
L 285.906863 151.271658 
L 288.685976 154.320506 
L 291.46509 157.023512 
L 294.244203 159.332001 
L 297.023317 161.207375 
L 299.80243 162.618923 
L 301.191987 163.144326 
L 302.581544 163.548049 
L 303.971101 163.830878 
L 305.360657 163.995269 
L 308.139771 163.987422 
L 310.918884 163.578689 
L 313.697998 162.843529 
L 316.477111 161.863123 
L 320.645782 160.086739 
L 324.814452 158.066267 
L 328.983122 155.825445 
L 333.151792 153.324203 
L 337.320462 150.534258 
L 341.489133 147.452348 
L 345.657803 144.046254 
L 348.436916 141.544859 
L 351.21603 138.806428 
L 353.995143 135.790437 
L 356.774257 132.479972 
L 360.942927 127.019355 
L 372.059381 111.774613 
L 374.838495 108.431502 
L 377.617608 105.439166 
L 380.396722 102.816727 
L 383.175835 100.547819 
L 385.954949 98.590341 
L 388.734062 96.88809 
L 392.902732 94.683238 
L 398.460959 92.125723 
L 410.96697 86.607429 
L 415.13564 84.501714 
L 419.30431 82.15095 
L 424.862537 78.707319 
L 431.810321 74.415208 
L 435.978991 72.172268 
L 438.758105 70.885529 
L 441.537218 69.769226 
L 445.705889 68.372511 
L 451.264116 66.861601 
L 462.38057 64.018701 
L 466.54924 62.696177 
L 470.71791 61.125026 
L 476.276137 58.708718 
L 481.834364 56.2864 
L 484.613477 55.25232 
L 487.392591 54.422634 
L 490.171704 53.833028 
L 492.950818 53.487474 
L 495.729931 53.360533 
L 499.898602 53.477644 
L 505.456829 53.94753 
L 512.404612 54.744438 
L 517.962839 55.614496 
L 522.13151 56.508204 
L 526.30018 57.63968 
L 531.858407 59.446142 
L 548.533088 65.361099 
L 554.091315 67.485288 
L 559.649542 69.869442 
L 569.376439 74.189761 
L 573.545109 75.716065 
L 576.324223 76.54165 
L 580.492893 77.489164 
L 584.661563 78.148698 
L 590.21979 78.75443 
L 612.452698 80.87159 
L 616.621368 81.550445 
L 619.400482 82.163658 
L 622.179595 82.96199 
L 624.958709 83.999752 
L 627.737822 85.330578 
L 630.516936 86.999227 
L 633.296049 89.032292 
L 636.075163 91.430421 
L 638.854276 94.163052 
L 641.63339 97.169958 
L 645.80206 102.011733 
L 655.528957 113.487111 
L 661.087184 119.624407 
L 665.255854 123.831427 
L 668.034968 126.279282 
L 670.814081 128.272319 
L 672.203638 129.04879 
L 673.593195 129.655269 
L 674.982751 130.078813 
L 676.372308 130.311775 
L 677.761865 130.353023 
L 679.151422 130.208518 
L 680.540978 129.891461 
L 681.930535 129.421974 
L 684.709649 128.13446 
L 691.657432 124.382522 
L 694.436546 123.241579 
L 697.215659 122.459279 
L 699.994773 122.004245 
L 702.773886 121.786328 
L 706.942557 121.693458 
L 712.500784 121.770062 
L 716.669454 122.040816 
L 720.838124 122.582767 
L 729.175465 123.955215 
L 731.954578 124.170952 
L 734.733692 124.10396 
L 737.512805 123.683348 
L 740.291918 122.873812 
L 743.071032 121.686331 
L 745.850145 120.187529 
L 754.187486 115.311102 
L 756.966599 114.209194 
L 758.356156 113.85747 
L 759.745713 113.656616 
L 761.13527 113.612899 
L 762.524826 113.726252 
L 763.914383 113.990301 
L 765.30394 114.392788 
L 768.083053 115.539208 
L 770.862167 116.985813 
L 776.420394 120.020559 
L 779.199507 121.340587 
L 781.978621 122.473778 
L 787.536848 124.406877 
L 793.095075 126.421428 
L 801.432415 129.68818 
L 804.211529 130.513887 
L 806.990642 131.043184 
L 809.769756 131.21891 
L 812.548869 131.026498 
L 815.327983 130.489186 
L 818.107096 129.656158 
L 820.88621 128.588817 
L 825.05488 126.684379 
L 832.002664 123.142913 
L 840.340004 118.955674 
L 850.066901 114.161529 
L 854.235572 111.807297 
L 858.404242 109.132095 
L 862.572912 106.166096 
L 873.689366 97.977843 
L 877.858036 95.24598 
L 882.026706 92.82072 
L 886.195377 90.702085 
L 890.364047 88.863509 
L 894.532717 87.261318 
L 900.090944 85.376347 
L 908.428285 82.609816 
L 912.596955 81.016276 
L 916.765625 79.173852 
L 920.934295 77.061168 
L 925.102966 74.716148 
L 947.335873 61.714221 
L 958.452327 55.672444 
L 964.010554 52.874632 
L 968.179225 50.988089 
L 972.347895 49.345033 
L 976.516565 47.98629 
L 980.685235 46.937126 
L 984.853906 46.214063 
L 987.633019 45.921619 
L 990.412133 45.786626 
L 993.191246 45.810844 
L 997.359916 46.130183 
L 1001.528587 46.724063 
L 1014.034597 48.812296 
L 1018.203267 49.1849 
L 1020.982381 49.280871 
L 1020.982381 49.280871 
" clip-path="url(#p16f21ec5f2)" style="fill: none; stroke: #0000ff; stroke-width: 1.5; stroke-linecap: square"/>
   </g>
   <g id="line2d_14">
    <path d="M 56.63 73.8543 
L 63.577784 73.974557 
L 71.915124 74.365896 
L 80.252465 75.001526 
L 88.589805 75.878532 
L 95.537589 76.814267 
L 101.095816 77.737699 
L 106.654043 78.871561 
L 112.21227 80.259782 
L 117.770497 81.909604 
L 123.328724 83.789924 
L 130.276507 86.399004 
L 137.224291 89.24117 
L 145.561632 92.904302 
L 158.067642 98.708434 
L 171.96321 105.115326 
L 180.30055 108.721356 
L 188.637891 112.098673 
L 217.818582 123.649019 
L 230.324593 128.841229 
L 237.272377 131.507428 
L 245.609717 134.473518 
L 273.400852 144.131678 
L 281.738193 147.373365 
L 288.685976 150.321604 
L 294.244203 152.902373 
L 305.360657 158.172214 
L 308.139771 159.23728 
L 310.918884 160.065338 
L 313.697998 160.591934 
L 316.477111 160.768133 
L 319.256225 160.565688 
L 322.035338 159.978317 
L 324.814452 159.019159 
L 327.593565 157.715812 
L 330.372679 156.104518 
L 333.151792 154.225018 
L 335.930906 152.116893 
L 340.099576 148.606807 
L 344.268246 144.777697 
L 349.826473 139.335524 
L 358.163814 130.77569 
L 372.059381 116.432279 
L 377.617608 111.100173 
L 381.786278 107.417999 
L 385.954949 104.056092 
L 390.123619 101.013345 
L 394.292289 98.249074 
L 399.850516 94.880818 
L 408.187856 90.175522 
L 424.862537 81.064936 
L 433.199878 76.773425 
L 440.147662 73.478352 
L 445.705889 71.059173 
L 452.653672 68.296086 
L 460.991013 65.276952 
L 472.107467 61.537788 
L 481.834364 58.481692 
L 488.782148 56.551278 
L 494.340375 55.285267 
L 498.509045 54.558646 
L 502.677715 54.054258 
L 506.846385 53.78245 
L 511.015056 53.735959 
L 515.183726 53.894953 
L 519.352396 54.236003 
L 524.910623 54.944137 
L 530.46885 55.930971 
L 536.027077 57.209643 
L 540.195747 58.372739 
L 544.364417 59.717742 
L 548.533088 61.247285 
L 552.701758 62.961372 
L 558.259985 65.528756 
L 563.818212 68.399906 
L 569.376439 71.534037 
L 576.324223 75.72713 
L 587.440677 82.772514 
L 611.063141 97.853183 
L 620.790038 103.750346 
L 629.127379 108.534048 
L 637.464719 113.069046 
L 645.80206 117.364957 
L 652.749844 120.722062 
L 658.308071 123.207078 
L 663.866298 125.449901 
L 668.034968 126.927423 
L 672.203638 128.190739 
L 676.372308 129.209866 
L 680.540978 129.968294 
L 684.709649 130.469451 
L 688.878319 130.737969 
L 694.436546 130.806156 
L 701.38433 130.584793 
L 712.500784 129.931907 
L 741.681475 128.162432 
L 788.926405 125.368903 
L 825.05488 123.017624 
L 837.560891 122.004796 
L 845.898231 121.110329 
L 851.456458 120.296174 
L 855.625128 119.487745 
L 859.793799 118.437838 
L 863.962469 117.0822 
L 866.741582 115.98315 
L 869.520696 114.716795 
L 872.299809 113.279535 
L 876.468479 110.80659 
L 880.63715 107.969316 
L 884.80582 104.792574 
L 888.97449 101.304446 
L 893.14316 97.538446 
L 898.701387 92.16387 
L 905.649171 85.087016 
L 916.765625 73.72398 
L 922.323852 68.343553 
L 926.492522 64.53813 
L 930.661193 60.983128 
L 934.829863 57.729415 
L 938.998533 54.824773 
L 943.167203 52.301685 
L 945.946317 50.835314 
L 950.114987 48.942366 
L 954.283657 47.373265 
L 958.452327 46.062723 
L 964.010554 44.60108 
L 970.958338 43.052556 
L 980.685235 41.141224 
L 991.801689 39.176703 
L 1000.13903 37.896015 
L 1007.086814 37.020892 
L 1012.64504 36.503263 
L 1018.203267 36.205959 
L 1020.982381 36.154545 
L 1020.982381 36.154545 
" clip-path="url(#p16f21ec5f2)" style="fill: none; stroke: #ff0000; stroke-width: 1.5; stroke-linecap: square"/>
   </g>
   <g id="line2d_15">
    <path d="M 563.818212 170.44 
L 563.818212 29.76 
" clip-path="url(#p16f21ec5f2)" style="fill: none; stroke: #1f77b4; stroke-width: 1.5; stroke-linecap: square"/>
   </g>
   <g id="patch_3">
    <path d="M 56.63 170.44 
L 56.63 29.76 
" style="fill: none; stroke: #000000; stroke-width: 0.8; stroke-linejoin: miter; stroke-linecap: square"/>
   </g>
   <g id="patch_4">
    <path d="M 1069.2 170.44 
L 1069.2 29.76 
" style="fill: none; stroke: #000000; stroke-width: 0.8; stroke-linejoin: miter; stroke-linecap: square"/>
   </g>
   <g id="patch_5">
    <path d="M 56.63 170.44 
L 1069.2 170.44 
" style="fill: none; stroke: #000000; stroke-width: 0.8; stroke-linejoin: miter; stroke-linecap: square"/>
   </g>
   <g id="patch_6">
    <path d="M 56.63 29.76 
L 1069.2 29.76 
" style="fill: none; stroke: #000000; stroke-width: 0.8; stroke-linejoin: miter; stroke-linecap: square"/>
   </g>
   <g id="text_15">
    <!-- Heat Conduction Equation Solution at x=0.5M -->
    <g transform="translate(378.68 23.76) scale(0.16 -0.16)">
     <defs>
      <path id="DejaVuSans-48" d="M 628 4666 
L 1259 4666 
L 1259 2753 
L 3553 2753 
L 3553 4666 
L 4184 4666 
L 4184 0 
L 3553 0 
L 3553 2222 
L 1259 2222 
L 1259 0 
L 628 0 
L 628 4666 
z
" transform="scale(0.015625)"/>
      <path id="DejaVuSans-43" d="M 4122 4306 
L 4122 3641 
Q 3803 3938 3442 4084 
Q 3081 4231 2675 4231 
Q 1875 4231 1450 3742 
Q 1025 3253 1025 2328 
Q 1025 1406 1450 917 
Q 1875 428 2675 428 
Q 3081 428 3442 575 
Q 3803 722 4122 1019 
L 4122 359 
Q 3791 134 3420 21 
Q 3050 -91 2638 -91 
Q 1578 -91 968 557 
Q 359 1206 359 2328 
Q 359 3453 968 4101 
Q 1578 4750 2638 4750 
Q 3056 4750 3426 4639 
Q 3797 4528 4122 4306 
z
" transform="scale(0.015625)"/>
      <path id="DejaVuSans-64" d="M 2906 2969 
L 2906 4863 
L 3481 4863 
L 3481 0 
L 2906 0 
L 2906 525 
Q 2725 213 2448 61 
Q 2172 -91 1784 -91 
Q 1150 -91 751 415 
Q 353 922 353 1747 
Q 353 2572 751 3078 
Q 1150 3584 1784 3584 
Q 2172 3584 2448 3432 
Q 2725 3281 2906 2969 
z
M 947 1747 
Q 947 1113 1208 752 
Q 1469 391 1925 391 
Q 2381 391 2643 752 
Q 2906 1113 2906 1747 
Q 2906 2381 2643 2742 
Q 2381 3103 1925 3103 
Q 1469 3103 1208 2742 
Q 947 2381 947 1747 
z
" transform="scale(0.015625)"/>
      <path id="DejaVuSans-63" d="M 3122 3366 
L 3122 2828 
Q 2878 2963 2633 3030 
Q 2388 3097 2138 3097 
Q 1578 3097 1268 2742 
Q 959 2388 959 1747 
Q 959 1106 1268 751 
Q 1578 397 2138 397 
Q 2388 397 2633 464 
Q 2878 531 3122 666 
L 3122 134 
Q 2881 22 2623 -34 
Q 2366 -91 2075 -91 
Q 1284 -91 818 406 
Q 353 903 353 1747 
Q 353 2603 823 3093 
Q 1294 3584 2113 3584 
Q 2378 3584 2631 3529 
Q 2884 3475 3122 3366 
z
" transform="scale(0.015625)"/>
      <path id="DejaVuSans-45" d="M 628 4666 
L 3578 4666 
L 3578 4134 
L 1259 4134 
L 1259 2753 
L 3481 2753 
L 3481 2222 
L 1259 2222 
L 1259 531 
L 3634 531 
L 3634 0 
L 628 0 
L 628 4666 
z
" transform="scale(0.015625)"/>
      <path id="DejaVuSans-71" d="M 947 1747 
Q 947 1113 1208 752 
Q 1469 391 1925 391 
Q 2381 391 2643 752 
Q 2906 1113 2906 1747 
Q 2906 2381 2643 2742 
Q 2381 3103 1925 3103 
Q 1469 3103 1208 2742 
Q 947 2381 947 1747 
z
M 2906 525 
Q 2725 213 2448 61 
Q 2172 -91 1784 -91 
Q 1150 -91 751 415 
Q 353 922 353 1747 
Q 353 2572 751 3078 
Q 1150 3584 1784 3584 
Q 2172 3584 2448 3432 
Q 2725 3281 2906 2969 
L 2906 3500 
L 3481 3500 
L 3481 -1331 
L 2906 -1331 
L 2906 525 
z
" transform="scale(0.015625)"/>
      <path id="DejaVuSans-78" d="M 3513 3500 
L 2247 1797 
L 3578 0 
L 2900 0 
L 1881 1375 
L 863 0 
L 184 0 
L 1544 1831 
L 300 3500 
L 978 3500 
L 1906 2253 
L 2834 3500 
L 3513 3500 
z
" transform="scale(0.015625)"/>
      <path id="DejaVuSans-3d" d="M 678 2906 
L 4684 2906 
L 4684 2381 
L 678 2381 
L 678 2906 
z
M 678 1631 
L 4684 1631 
L 4684 1100 
L 678 1100 
L 678 1631 
z
" transform="scale(0.015625)"/>
      <path id="DejaVuSans-2e" d="M 684 794 
L 1344 794 
L 1344 0 
L 684 0 
L 684 794 
z
" transform="scale(0.015625)"/>
      <path id="DejaVuSans-4d" d="M 628 4666 
L 1569 4666 
L 2759 1491 
L 3956 4666 
L 4897 4666 
L 4897 0 
L 4281 0 
L 4281 4097 
L 3078 897 
L 2444 897 
L 1241 4097 
L 1241 0 
L 628 0 
L 628 4666 
z
" transform="scale(0.015625)"/>
     </defs>
     <use xlink:href="#DejaVuSans-48"/>
     <use xlink:href="#DejaVuSans-65" transform="translate(75.195312 0)"/>
     <use xlink:href="#DejaVuSans-61" transform="translate(136.71875 0)"/>
     <use xlink:href="#DejaVuSans-74" transform="translate(197.998047 0)"/>
     <use xlink:href="#DejaVuSans-20" transform="translate(237.207031 0)"/>
     <use xlink:href="#DejaVuSans-43" transform="translate(268.994141 0)"/>
     <use xlink:href="#DejaVuSans-6f" transform="translate(338.818359 0)"/>
     <use xlink:href="#DejaVuSans-6e" transform="translate(400 0)"/>
     <use xlink:href="#DejaVuSans-64" transform="translate(463.378906 0)"/>
     <use xlink:href="#DejaVuSans-75" transform="translate(526.855469 0)"/>
     <use xlink:href="#DejaVuSans-63" transform="translate(590.234375 0)"/>
     <use xlink:href="#DejaVuSans-74" transform="translate(645.214844 0)"/>
     <use xlink:href="#DejaVuSans-69" transform="translate(684.423828 0)"/>
     <use xlink:href="#DejaVuSans-6f" transform="translate(712.207031 0)"/>
     <use xlink:href="#DejaVuSans-6e" transform="translate(773.388672 0)"/>
     <use xlink:href="#DejaVuSans-20" transform="translate(836.767578 0)"/>
     <use xlink:href="#DejaVuSans-45" transform="translate(868.554688 0)"/>
     <use xlink:href="#DejaVuSans-71" transform="translate(931.738281 0)"/>
     <use xlink:href="#DejaVuSans-75" transform="translate(995.214844 0)"/>
     <use xlink:href="#DejaVuSans-61" transform="translate(1058.59375 0)"/>
     <use xlink:href="#DejaVuSans-74" transform="translate(1119.873047 0)"/>
     <use xlink:href="#DejaVuSans-69" transform="translate(1159.082031 0)"/>
     <use xlink:href="#DejaVuSans-6f" transform="translate(1186.865234 0)"/>
     <use xlink:href="#DejaVuSans-6e" transform="translate(1248.046875 0)"/>
     <use xlink:href="#DejaVuSans-20" transform="translate(1311.425781 0)"/>
     <use xlink:href="#DejaVuSans-53" transform="translate(1343.212891 0)"/>
     <use xlink:href="#DejaVuSans-6f" transform="translate(1406.689453 0)"/>
     <use xlink:href="#DejaVuSans-6c" transform="translate(1467.871094 0)"/>
     <use xlink:href="#DejaVuSans-75" transform="translate(1495.654297 0)"/>
     <use xlink:href="#DejaVuSans-74" transform="translate(1559.033203 0)"/>
     <use xlink:href="#DejaVuSans-69" transform="translate(1598.242188 0)"/>
     <use xlink:href="#DejaVuSans-6f" transform="translate(1626.025391 0)"/>
     <use xlink:href="#DejaVuSans-6e" transform="translate(1687.207031 0)"/>
     <use xlink:href="#DejaVuSans-20" transform="translate(1750.585938 0)"/>
     <use xlink:href="#DejaVuSans-61" transform="translate(1782.373047 0)"/>
     <use xlink:href="#DejaVuSans-74" transform="translate(1843.652344 0)"/>
     <use xlink:href="#DejaVuSans-20" transform="translate(1882.861328 0)"/>
     <use xlink:href="#DejaVuSans-78" transform="translate(1914.648438 0)"/>
     <use xlink:href="#DejaVuSans-3d" transform="translate(1973.828125 0)"/>
     <use xlink:href="#DejaVuSans-30" transform="translate(2057.617188 0)"/>
     <use xlink:href="#DejaVuSans-2e" transform="translate(2121.240234 0)"/>
     <use xlink:href="#DejaVuSans-35" transform="translate(2153.027344 0)"/>
     <use xlink:href="#DejaVuSans-4d" transform="translate(2216.650391 0)"/>
    </g>
   </g>
   <g id="legend_1">
    <g id="patch_7">
     <path d="M 65.03 164.44 
L 176.504375 164.44 
Q 178.904375 164.44 178.904375 162.04 
L 178.904375 128.0125 
Q 178.904375 125.6125 176.504375 125.6125 
L 65.03 125.6125 
Q 62.63 125.6125 62.63 128.0125 
L 62.63 162.04 
Q 62.63 164.44 65.03 164.44 
z
" style="fill: #ffffff; opacity: 0.8; stroke: #cccccc; stroke-linejoin: miter"/>
    </g>
    <g id="line2d_16">
     <path d="M 67.43 135.330625 
L 79.43 135.330625 
L 91.43 135.330625 
" style="fill: none; stroke: #0000ff; stroke-width: 1.5; stroke-linecap: square"/>
    </g>
    <g id="text_16">
     <!-- Observation -->
     <g transform="translate(101.03 139.530625) scale(0.12 -0.12)">
      <defs>
       <path id="DejaVuSans-4f" d="M 2522 4238 
Q 1834 4238 1429 3725 
Q 1025 3213 1025 2328 
Q 1025 1447 1429 934 
Q 1834 422 2522 422 
Q 3209 422 3611 934 
Q 4013 1447 4013 2328 
Q 4013 3213 3611 3725 
Q 3209 4238 2522 4238 
z
M 2522 4750 
Q 3503 4750 4090 4092 
Q 4678 3434 4678 2328 
Q 4678 1225 4090 567 
Q 3503 -91 2522 -91 
Q 1538 -91 948 565 
Q 359 1222 359 2328 
Q 359 3434 948 4092 
Q 1538 4750 2522 4750 
z
" transform="scale(0.015625)"/>
       <path id="DejaVuSans-62" d="M 3116 1747 
Q 3116 2381 2855 2742 
Q 2594 3103 2138 3103 
Q 1681 3103 1420 2742 
Q 1159 2381 1159 1747 
Q 1159 1113 1420 752 
Q 1681 391 2138 391 
Q 2594 391 2855 752 
Q 3116 1113 3116 1747 
z
M 1159 2969 
Q 1341 3281 1617 3432 
Q 1894 3584 2278 3584 
Q 2916 3584 3314 3078 
Q 3713 2572 3713 1747 
Q 3713 922 3314 415 
Q 2916 -91 2278 -91 
Q 1894 -91 1617 61 
Q 1341 213 1159 525 
L 1159 0 
L 581 0 
L 581 4863 
L 1159 4863 
L 1159 2969 
z
" transform="scale(0.015625)"/>
       <path id="DejaVuSans-76" d="M 191 3500 
L 800 3500 
L 1894 563 
L 2988 3500 
L 3597 3500 
L 2284 0 
L 1503 0 
L 191 3500 
z
" transform="scale(0.015625)"/>
      </defs>
      <use xlink:href="#DejaVuSans-4f"/>
      <use xlink:href="#DejaVuSans-62" transform="translate(78.710938 0)"/>
      <use xlink:href="#DejaVuSans-73" transform="translate(142.1875 0)"/>
      <use xlink:href="#DejaVuSans-65" transform="translate(194.287109 0)"/>
      <use xlink:href="#DejaVuSans-72" transform="translate(255.810547 0)"/>
      <use xlink:href="#DejaVuSans-76" transform="translate(296.923828 0)"/>
      <use xlink:href="#DejaVuSans-61" transform="translate(356.103516 0)"/>
      <use xlink:href="#DejaVuSans-74" transform="translate(417.382812 0)"/>
      <use xlink:href="#DejaVuSans-69" transform="translate(456.591797 0)"/>
      <use xlink:href="#DejaVuSans-6f" transform="translate(484.375 0)"/>
      <use xlink:href="#DejaVuSans-6e" transform="translate(545.556641 0)"/>
     </g>
    </g>
    <g id="line2d_17">
     <path d="M 67.43 152.944375 
L 79.43 152.944375 
L 91.43 152.944375 
" style="fill: none; stroke: #ff0000; stroke-width: 1.5; stroke-linecap: square"/>
    </g>
    <g id="text_17">
     <!-- Predicted -->
     <g transform="translate(101.03 157.144375) scale(0.12 -0.12)">
      <defs>
       <path id="DejaVuSans-50" d="M 1259 4147 
L 1259 2394 
L 2053 2394 
Q 2494 2394 2734 2622 
Q 2975 2850 2975 3272 
Q 2975 3691 2734 3919 
Q 2494 4147 2053 4147 
L 1259 4147 
z
M 628 4666 
L 2053 4666 
Q 2838 4666 3239 4311 
Q 3641 3956 3641 3272 
Q 3641 2581 3239 2228 
Q 2838 1875 2053 1875 
L 1259 1875 
L 1259 0 
L 628 0 
L 628 4666 
z
" transform="scale(0.015625)"/>
      </defs>
      <use xlink:href="#DejaVuSans-50"/>
      <use xlink:href="#DejaVuSans-72" transform="translate(58.552734 0)"/>
      <use xlink:href="#DejaVuSans-65" transform="translate(97.416016 0)"/>
      <use xlink:href="#DejaVuSans-64" transform="translate(158.939453 0)"/>
      <use xlink:href="#DejaVuSans-69" transform="translate(222.416016 0)"/>
      <use xlink:href="#DejaVuSans-63" transform="translate(250.199219 0)"/>
      <use xlink:href="#DejaVuSans-74" transform="translate(305.179688 0)"/>
      <use xlink:href="#DejaVuSans-65" transform="translate(344.388672 0)"/>
      <use xlink:href="#DejaVuSans-64" transform="translate(405.912109 0)"/>
     </g>
    </g>
   </g>
  </g>
 </g>
 <defs>
  <clipPath id="p16f21ec5f2">
   <rect x="56.63" y="29.76" width="1012.57" height="140.68"/>
  </clipPath>
 </defs>
</svg>
