<?xml version="1.0" encoding="utf-8" standalone="no"?>
<!DOCTYPE svg PUBLIC "-//W3C//DTD SVG 1.1//EN"
  "http://www.w3.org/Graphics/SVG/1.1/DTD/svg11.dtd">
<svg xmlns:xlink="http://www.w3.org/1999/xlink" width="1080pt" height="216pt" viewBox="0 0 1080 216" xmlns="http://www.w3.org/2000/svg" version="1.1">
 <metadata>
  <rdf:RDF xmlns:dc="http://purl.org/dc/elements/1.1/" xmlns:cc="http://creativecommons.org/ns#" xmlns:rdf="http://www.w3.org/1999/02/22-rdf-syntax-ns#">
   <cc:Work>
    <dc:type rdf:resource="http://purl.org/dc/dcmitype/StillImage"/>
    <dc:date>2026-02-09T09:43:09.271842</dc:date>
    <dc:format>image/svg+xml</dc:format>
    <dc:creator>
     <cc:Agent>
      <dc:title>Matplotlib v3.10.8, https://matplotlib.org/</dc:title>
     </cc:Agent>
    </dc:creator>
   </cc:Work>
  </rdf:RDF>
 </metadata>
 <defs>
  <style type="text/css">*{stroke-linejoin: round; stroke-linecap: butt}</style>
 </defs>
 <g id="figure_1">
  <g id="patch_1">
   <path d="M 0 216 
L 1080 216 
L 1080 0 
L 0 0 
z
" style="fill: #ffffff"/>
  </g>
  <g id="axes_1">
   <g id="patch_2">
    <path d="M 56.63 170.44 
L 1069.2 170.44 
L 1069.2 29.76 
L 56.63 29.76 
z
" style="fill: #ffffff"/>
   </g>
   <g id="matplotlib.axis_1">
    <g id="xtick_1">
     <g id="line2d_1">
      <defs>
       <path id="m9d1aa4c277" d="M 0 0 
L 0 3.5 
" style="stroke: #000000; stroke-width: 0.8"/>
      </defs>
      <g>
       <use xlink:href="#m9d1aa4c277" x="56.63" y="170.44" style="stroke: #000000; stroke-width: 0.8"/>
      </g>
     </g>
     <g id="text_1">
      <text style="font-size: 10px; font-family: 'DejaVu Sans', 'Bitstream Vera Sans', 'Computer Modern Sans Serif', 'Lucida Grande', 'Verdana', 'Geneva', 'Lucid', 'Arial', 'Helvetica', 'Avant Garde', sans-serif; text-anchor: middle" x="56.63" y="185.038437" transform="rotate(-0 56.63 185.038437)">0</text>
     </g>
    </g>
    <g id="xtick_2">
     <g id="line2d_2">
      <g>
       <use xlink:href="#m9d1aa4c277" x="242.618887" y="170.44" style="stroke: #000000; stroke-width: 0.8"/>
      </g>
     </g>
     <g id="text_2">
      <text style="font-size: 10px; font-family: 'DejaVu Sans', 'Bitstream Vera Sans', 'Computer Modern Sans Serif', 'Lucida Grande', 'Verdana', 'Geneva', 'Lucid', 'Arial', 'Helvetica', 'Avant Garde', sans-serif; text-anchor: middle" x="242.618887" y="185.038437" transform="rotate(-0 242.618887 185.038437)">200</text>
     </g>
    </g>
    <g id="xtick_3">
     <g id="line2d_3">
      <g>
       <use xlink:href="#m9d1aa4c277" x="428.607775" y="170.44" style="stroke: #000000; stroke-width: 0.8"/>
      </g>
     </g>
     <g id="text_3">
      <text style="font-size: 10px; font-family: 'DejaVu Sans', 'Bitstream Vera Sans', 'Computer Modern Sans Serif', 'Lucida Grande', 'Verdana', 'Geneva', 'Lucid', 'Arial', 'Helvetica', 'Avant Garde', sans-serif; text-anchor: middle" x="428.607775" y="185.038437" transform="rotate(-0 428.607775 185.038437)">400</text>
     </g>
    </g>
    <g id="xtick_4">
     <g id="line2d_4">
      <g>
       <use xlink:href="#m9d1aa4c277" x="614.596662" y="170.44" style="stroke: #000000; stroke-width: 0.8"/>
      </g>
     </g>
     <g id="text_4">
      <text style="font-size: 10px; font-family: 'DejaVu Sans', 'Bitstream Vera Sans', 'Computer Modern Sans Serif', 'Lucida Grande', 'Verdana', 'Geneva', 'Lucid', 'Arial', 'Helvetica', 'Avant Garde', sans-serif; text-anchor: middle" x="614.596662" y="185.038437" transform="rotate(-0 614.596662 185.038437)">600</text>
     </g>
    </g>
    <g id="xtick_5">
     <g id="line2d_5">
      <g>
       <use xlink:href="#m9d1aa4c277" x="800.585549" y="170.44" style="stroke: #000000; stroke-width: 0.8"/>
      </g>
     </g>
     <g id="text_5">
      <text style="font-size: 10px; font-family: 'DejaVu Sans', 'Bitstream Vera Sans', 'Computer Modern Sans Serif', 'Lucida Grande', 'Verdana', 'Geneva', 'Lucid', 'Arial', 'Helvetica', 'Avant Garde', sans-serif; text-anchor: middle" x="800.585549" y="185.038437" transform="rotate(-0 800.585549 185.038437)">800</text>
     </g>
    </g>
    <g id="xtick_6">
     <g id="line2d_6">
      <g>
       <use xlink:href="#m9d1aa4c277" x="986.574437" y="170.44" style="stroke: #000000; stroke-width: 0.8"/>
      </g>
     </g>
     <g id="text_6">
      <text style="font-size: 10px; font-family: 'DejaVu Sans', 'Bitstream Vera Sans', 'Computer Modern Sans Serif', 'Lucida Grande', 'Verdana', 'Geneva', 'Lucid', 'Arial', 'Helvetica', 'Avant Garde', sans-serif; text-anchor: middle" x="986.574437" y="185.038437" transform="rotate(-0 986.574437 185.038437)">1000</text>
     </g>
    </g>
    <g id="text_7">
     <text style="font-size: 14px; font-family: 'DejaVu Sans', 'Bitstream Vera Sans', 'Computer Modern Sans Serif', 'Lucida Grande', 'Verdana', 'Geneva', 'Lucid', 'Arial', 'Helvetica', 'Avant Garde', sans-serif; text-anchor: middle" x="562.915" y="201.755937" transform="rotate(-0 562.915 201.755937)">Simulation Days</text>
    </g>
   </g>
   <g id="matplotlib.axis_2">
    <g id="ytick_1">
     <g id="line2d_7">
      <defs>
       <path id="ma631086430" d="M 0 0 
L -3.5 0 
" style="stroke: #000000; stroke-width: 0.8"/>
      </defs>
      <g>
       <use xlink:href="#ma631086430" x="56.63" y="162.352187" style="stroke: #000000; stroke-width: 0.8"/>
      </g>
     </g>
     <g id="text_8">
      <text style="font-size: 10px; font-family: 'DejaVu Sans', 'Bitstream Vera Sans', 'Computer Modern Sans Serif', 'Lucida Grande', 'Verdana', 'Geneva', 'Lucid', 'Arial', 'Helvetica', 'Avant Garde', sans-serif; text-anchor: end" x="49.63" y="166.151406" transform="rotate(-0 49.63 166.151406)">−30</text>
     </g>
    </g>
    <g id="ytick_2">
     <g id="line2d_8">
      <g>
       <use xlink:href="#ma631086430" x="56.63" y="131.500794" style="stroke: #000000; stroke-width: 0.8"/>
      </g>
     </g>
     <g id="text_9">
      <text style="font-size: 10px; font-family: 'DejaVu Sans', 'Bitstream Vera Sans', 'Computer Modern Sans Serif', 'Lucida Grande', 'Verdana', 'Geneva', 'Lucid', 'Arial', 'Helvetica', 'Avant Garde', sans-serif; text-anchor: end" x="49.63" y="135.300013" transform="rotate(-0 49.63 135.300013)">−20</text>
     </g>
    </g>
    <g id="ytick_3">
     <g id="line2d_9">
      <g>
       <use xlink:href="#ma631086430" x="56.63" y="100.649401" style="stroke: #000000; stroke-width: 0.8"/>
      </g>
     </g>
     <g id="text_10">
      <text style="font-size: 10px; font-family: 'DejaVu Sans', 'Bitstream Vera Sans', 'Computer Modern Sans Serif', 'Lucida Grande', 'Verdana', 'Geneva', 'Lucid', 'Arial', 'Helvetica', 'Avant Garde', sans-serif; text-anchor: end" x="49.63" y="104.44862" transform="rotate(-0 49.63 104.44862)">−10</text>
     </g>
    </g>
    <g id="ytick_4">
     <g id="line2d_10">
      <g>
       <use xlink:href="#ma631086430" x="56.63" y="69.798008" style="stroke: #000000; stroke-width: 0.8"/>
      </g>
     </g>
     <g id="text_11">
      <text style="font-size: 10px; font-family: 'DejaVu Sans', 'Bitstream Vera Sans', 'Computer Modern Sans Serif', 'Lucida Grande', 'Verdana', 'Geneva', 'Lucid', 'Arial', 'Helvetica', 'Avant Garde', sans-serif; text-anchor: end" x="49.63" y="73.597226" transform="rotate(-0 49.63 73.597226)">0</text>
     </g>
    </g>
    <g id="ytick_5">
     <g id="line2d_11">
      <g>
       <use xlink:href="#ma631086430" x="56.63" y="38.946614" style="stroke: #000000; stroke-width: 0.8"/>
      </g>
     </g>
     <g id="text_12">
      <text style="font-size: 10px; font-family: 'DejaVu Sans', 'Bitstream Vera Sans', 'Computer Modern Sans Serif', 'Lucida Grande', 'Verdana', 'Geneva', 'Lucid', 'Arial', 'Helvetica', 'Avant Garde', sans-serif; text-anchor: end" x="49.63" y="42.745833" transform="rotate(-0 49.63 42.745833)">10</text>
     </g>
    </g>
    <g id="text_13">
     <text style="font-size: 14px; font-family: 'DejaVu Sans', 'Bitstream Vera Sans', 'Computer Modern Sans Serif', 'Lucida Grande', 'Verdana', 'Geneva', 'Lucid', 'Arial', 'Helvetica', 'Avant Garde', sans-serif; text-anchor: middle" x="21.61375" y="100.1" transform="rotate(-90 21.61375 100.1)">Temperature (℃)</text>
    </g>
   </g>
   <g id="line2d_12">
    <path d="M 56.63 51.567871 
L 58.489889 51.76806 
L 60.349778 52.198528 
L 64.069555 53.421693 
L 66.859389 54.295091 
L 69.649222 54.903421 
L 72.439055 55.225853 
L 78.948666 55.69862 
L 80.808555 56.03565 
L 82.668444 56.556281 
L 84.528333 57.283496 
L 86.388222 58.214954 
L 89.178055 59.927703 
L 97.547555 65.482407 
L 100.337389 66.889029 
L 103.127222 67.971269 
L 105.917055 68.775605 
L 109.636833 69.555059 
L 117.076388 70.972873 
L 119.866222 71.759575 
L 122.656055 72.812927 
L 125.445888 74.163963 
L 128.235722 75.781254 
L 132.885444 78.816943 
L 140.324999 83.944502 
L 143.114833 86.128746 
L 145.904666 88.601826 
L 148.694499 91.354208 
L 158.923888 101.855354 
L 162.643666 105.164819 
L 168.223332 109.696825 
L 171.94311 112.821861 
L 176.592832 117.074925 
L 179.382666 119.556034 
L 181.242555 121.004083 
L 183.102443 122.188471 
L 184.962332 123.057069 
L 186.822221 123.604199 
L 188.68211 123.875566 
L 191.471943 123.968972 
L 195.191721 124.099937 
L 197.05161 124.366802 
L 198.911499 124.811778 
L 201.701332 125.759564 
L 206.351054 127.693596 
L 210.070832 129.377049 
L 212.860665 130.863885 
L 215.650499 132.684653 
L 218.440332 134.818141 
L 222.16011 137.748046 
L 224.019999 139.021313 
L 225.879887 140.048406 
L 227.739776 140.78715 
L 229.599665 141.244767 
L 231.459554 141.473861 
L 235.179332 141.585473 
L 238.89911 141.766019 
L 241.688943 142.128802 
L 251.918332 143.773836 
L 262.147721 144.582585 
L 264.937554 144.750095 
L 266.797443 144.720772 
L 268.657332 144.497831 
L 270.51722 144.023723 
L 272.377109 143.268807 
L 274.236998 142.24223 
L 277.026832 140.316852 
L 281.676554 136.928091 
L 283.536443 135.831465 
L 285.396331 134.997193 
L 287.25622 134.440329 
L 289.116109 134.126973 
L 291.905943 133.945898 
L 295.62572 133.74116 
L 297.485609 133.472509 
L 299.345498 133.034315 
L 301.205387 132.420087 
L 303.99522 131.20929 
L 307.714998 129.231221 
L 321.664164 121.199711 
L 324.453998 119.342893 
L 327.243831 117.161577 
L 329.10372 115.469412 
L 330.963609 113.556859 
L 332.823498 111.410679 
L 335.613331 107.758765 
L 338.403164 103.644757 
L 342.122942 97.62608 
L 347.702609 88.020312 
L 353.282275 78.534034 
L 356.072109 74.13209 
L 358.861942 70.068026 
L 361.651775 66.334818 
L 365.371553 61.716152 
L 370.95122 55.114968 
L 373.741053 52.021289 
L 376.530886 49.29049 
L 378.390775 47.767609 
L 380.250664 46.525261 
L 382.110553 45.569765 
L 383.970442 44.878915 
L 385.830331 44.40702 
L 388.620164 43.973391 
L 396.059719 43.027729 
L 399.779497 42.46952 
L 401.639386 42.353623 
L 403.499275 42.468176 
L 405.359164 42.887362 
L 407.219053 43.647183 
L 409.078942 44.735189 
L 410.93883 46.092845 
L 413.728664 48.435038 
L 418.378386 52.402288 
L 421.168219 54.535444 
L 424.887997 57.072706 
L 429.537719 59.9557 
L 435.117386 63.190082 
L 439.767108 65.631898 
L 442.556941 66.889489 
L 445.346775 67.924428 
L 448.136608 68.713647 
L 450.926441 69.287435 
L 458.365997 70.606808 
L 460.225886 71.161191 
L 462.085774 71.919046 
L 463.945663 72.92776 
L 465.805552 74.217322 
L 467.665441 75.793581 
L 469.52533 77.63518 
L 472.315163 80.788258 
L 477.89483 87.68045 
L 483.474496 94.359781 
L 489.984108 102.096394 
L 494.63383 108.010176 
L 503.933274 120.042933 
L 506.723107 123.231859 
L 509.512941 126.084986 
L 513.232718 129.466513 
L 528.111829 142.158537 
L 530.901663 144.139557 
L 533.691496 145.787124 
L 535.551385 146.682778 
L 537.411274 147.408397 
L 539.271163 147.95798 
L 541.131052 148.327291 
L 542.99094 148.518336 
L 545.780774 148.504817 
L 549.500551 148.120549 
L 553.220329 147.716498 
L 556.010163 147.657745 
L 557.870051 147.795894 
L 560.659885 148.27154 
L 564.379662 149.241432 
L 568.09944 150.174353 
L 569.959329 150.466336 
L 571.819218 150.581534 
L 573.679107 150.511982 
L 576.46894 150.141371 
L 580.188718 149.590173 
L 582.048607 149.525026 
L 583.908496 149.716022 
L 585.768385 150.203499 
L 587.628273 150.980291 
L 589.488162 151.996309 
L 593.20794 154.414762 
L 596.927718 156.778647 
L 599.717551 158.232679 
L 602.507384 159.335969 
L 605.297218 160.096681 
L 608.087051 160.534759 
L 609.94694 160.643986 
L 611.806829 160.590176 
L 613.666718 160.348373 
L 615.526607 159.888845 
L 617.386495 159.184288 
L 619.246384 158.218596 
L 621.106273 156.995357 
L 622.966162 155.542694 
L 625.755995 153.053598 
L 632.265606 147.054838 
L 635.05544 144.850799 
L 637.845273 142.942677 
L 641.565051 140.730719 
L 648.074662 136.946785 
L 650.864495 135.035495 
L 653.654328 132.822593 
L 656.444162 130.273532 
L 659.233995 127.383535 
L 662.023828 124.14802 
L 664.813662 120.522481 
L 667.603495 116.397435 
L 669.463384 113.293996 
L 671.323273 109.859404 
L 673.183162 106.075732 
L 675.972995 99.797742 
L 680.622717 88.430494 
L 684.342495 79.598214 
L 687.132328 73.628336 
L 689.922161 68.327781 
L 692.711995 63.606174 
L 696.431773 57.886769 
L 702.941384 48.421025 
L 705.731217 44.594495 
L 707.591106 42.268479 
L 709.450995 40.225136 
L 711.310884 38.545212 
L 713.170772 37.289188 
L 715.030661 36.490491 
L 716.89055 36.154545 
L 718.750439 36.261687 
L 720.610328 36.771076 
L 722.470217 37.62221 
L 724.330106 38.735518 
L 728.049883 41.350668 
L 730.839717 43.248466 
L 733.62955 44.836708 
L 737.349328 46.557014 
L 740.139161 47.900727 
L 741.99905 48.976624 
L 744.788883 50.900525 
L 749.438605 54.300172 
L 751.298494 55.401559 
L 753.158383 56.239588 
L 755.018272 56.815043 
L 757.808105 57.325539 
L 761.527883 57.88169 
L 763.387772 58.313033 
L 765.247661 58.910911 
L 768.037494 60.111819 
L 771.757272 62.081418 
L 777.336939 65.0686 
L 780.126772 66.341868 
L 782.916605 67.403213 
L 785.706438 68.250499 
L 789.426216 69.116249 
L 795.935827 70.522121 
L 798.725661 71.392584 
L 801.515494 72.573142 
L 804.305327 74.105299 
L 807.09516 75.959895 
L 810.814938 78.760922 
L 818.254494 84.441472 
L 823.83416 88.639988 
L 827.553938 91.749679 
L 832.20366 95.990844 
L 837.783327 101.029286 
L 841.503105 104.043383 
L 845.222882 106.704917 
L 850.802549 110.297752 
L 855.452271 113.404191 
L 866.611604 121.220037 
L 869.401438 122.721076 
L 872.191271 123.980922 
L 876.840993 125.767041 
L 883.350604 128.225919 
L 887.070382 129.896827 
L 889.860215 131.421644 
L 892.650049 133.274648 
L 895.439882 135.516447 
L 898.229715 138.156172 
L 901.019549 141.130662 
L 911.248937 152.542395 
L 914.968715 156.156542 
L 917.758548 158.593999 
L 920.548382 160.724044 
L 922.408271 161.912675 
L 924.26816 162.867134 
L 926.128048 163.551802 
L 927.987937 163.945355 
L 929.847826 164.045455 
L 931.707715 163.869537 
L 933.567604 163.4512 
L 935.427493 162.833051 
L 938.217326 161.623783 
L 941.007159 160.172758 
L 944.726937 157.962991 
L 949.376659 154.875605 
L 957.746159 149.232384 
L 962.395881 146.424568 
L 969.835437 141.996284 
L 980.064826 135.55608 
L 982.854659 134.22661 
L 985.644492 133.192078 
L 994.013992 130.48631 
L 995.873881 129.598829 
L 997.73377 128.527924 
L 1000.523603 126.593115 
L 1003.313437 124.353671 
L 1012.612881 116.578297 
L 1014.47277 115.317608 
L 1016.332659 114.2784 
L 1018.192548 113.515666 
L 1020.052437 113.075163 
L 1020.982381 112.985546 
L 1020.982381 112.985546 
" clip-path="url(#pfb4a3cbe3d)" style="fill: none; stroke: #0000ff; stroke-width: 1.5; stroke-linecap: square"/>
   </g>
   <g id="line2d_13">
    <path d="M 56.63 54.116148 
L 59.419833 54.266679 
L 62.209667 54.62443 
L 65.929444 55.35248 
L 70.579167 56.51424 
L 78.018722 58.641066 
L 85.458278 60.974508 
L 92.897833 63.551584 
L 100.337389 66.128426 
L 104.987111 67.493845 
L 110.566777 68.860137 
L 117.076388 70.479648 
L 120.796166 71.675954 
L 123.585999 72.792307 
L 126.375833 74.12425 
L 129.165666 75.667544 
L 132.885444 78 
L 137.535166 81.215075 
L 143.114833 85.375995 
L 147.764555 89.156219 
L 152.414277 93.277445 
L 164.503555 104.324258 
L 168.223332 107.361577 
L 171.94311 110.136501 
L 175.662888 112.650264 
L 179.382666 114.905757 
L 183.102443 116.900796 
L 186.822221 118.639626 
L 190.541999 120.147739 
L 195.191721 121.783524 
L 201.701332 123.810377 
L 210.070832 126.428222 
L 213.79061 127.8288 
L 217.510388 129.519899 
L 221.230165 131.516817 
L 230.52961 136.813816 
L 233.319443 138.122821 
L 236.109276 139.21419 
L 238.89911 140.092889 
L 242.618887 140.976643 
L 246.338665 141.596139 
L 250.988387 142.09029 
L 255.638109 142.348399 
L 260.287832 142.400888 
L 264.007609 142.263646 
L 267.727387 141.896669 
L 270.51722 141.425261 
L 273.307054 140.767287 
L 277.026832 139.626106 
L 282.606498 137.587955 
L 289.116109 135.255835 
L 294.695776 133.529701 
L 307.714998 129.702534 
L 311.434776 128.314984 
L 315.154553 126.672861 
L 318.874331 124.746126 
L 322.594109 122.513236 
L 325.383942 120.613999 
L 328.173776 118.488402 
L 330.963609 116.09436 
L 333.753442 113.388282 
L 336.543275 110.339078 
L 339.333109 106.941982 
L 342.122942 103.226246 
L 345.84272 97.886835 
L 357.931998 80.06316 
L 361.651775 75.215751 
L 364.441609 71.895436 
L 368.161386 67.859804 
L 371.881164 64.217559 
L 374.670997 61.7385 
L 377.460831 59.507439 
L 380.250664 57.570723 
L 383.040497 55.969881 
L 385.830331 54.724417 
L 388.620164 53.825381 
L 391.409997 53.240098 
L 394.199831 52.923374 
L 396.989664 52.829382 
L 399.779497 52.919907 
L 403.499275 53.281644 
L 407.219053 53.884319 
L 410.93883 54.707024 
L 414.658608 55.738612 
L 418.378386 56.975775 
L 422.098164 58.42199 
L 425.817941 60.079543 
L 430.467664 62.425578 
L 436.04733 65.530161 
L 450.926441 74.218145 
L 458.365997 78.696045 
L 462.085774 81.156764 
L 465.805552 83.921081 
L 468.595385 86.2454 
L 472.315163 89.676537 
L 476.964885 94.352136 
L 488.124219 105.769561 
L 493.703885 111.057436 
L 499.283552 115.996308 
L 505.793163 121.418207 
L 515.092607 128.832255 
L 525.321996 136.763422 
L 530.901663 140.832763 
L 535.551385 143.920574 
L 539.271163 146.118975 
L 542.99094 148.039208 
L 546.710718 149.670292 
L 550.430496 151.023288 
L 554.150274 152.127815 
L 557.870051 153.024308 
L 562.519774 153.915189 
L 568.09944 154.73299 
L 574.609051 155.437657 
L 582.048607 156.013926 
L 591.348051 156.507053 
L 600.647496 156.797844 
L 608.087051 156.830774 
L 613.666718 156.646391 
L 618.31644 156.26801 
L 622.036218 155.7598 
L 625.755995 155.017879 
L 628.545829 154.275663 
L 631.335662 153.343816 
L 634.125495 152.188836 
L 636.915329 150.772423 
L 639.705162 149.056574 
L 642.494995 147.012333 
L 645.284828 144.628412 
L 648.074662 141.915317 
L 650.864495 138.902397 
L 654.584273 134.487546 
L 658.304051 129.698909 
L 662.023828 124.586423 
L 665.743606 119.132303 
L 669.463384 113.230028 
L 672.253217 108.395552 
L 675.04305 103.107939 
L 677.832884 97.301701 
L 680.622717 90.986246 
L 685.272439 79.717928 
L 688.992217 70.776201 
L 691.78205 64.629387 
L 693.641939 60.954576 
L 695.501828 57.680679 
L 697.361717 54.831834 
L 699.221606 52.407602 
L 701.081495 50.387437 
L 702.941384 48.736591 
L 704.801272 47.412192 
L 706.661161 46.368582 
L 708.52105 45.561386 
L 710.380939 44.95019 
L 713.170772 44.325884 
L 715.960606 43.97152 
L 718.750439 43.820687 
L 722.470217 43.862652 
L 726.189994 44.130938 
L 729.909772 44.601905 
L 733.62955 45.273731 
L 737.349328 46.156152 
L 741.069105 47.261951 
L 744.788883 48.599179 
L 748.508661 50.164287 
L 753.158383 52.408797 
L 758.73805 55.415566 
L 772.687216 63.150425 
L 778.266883 65.892856 
L 783.84655 68.362564 
L 800.585549 75.490243 
L 804.305327 77.477823 
L 807.09516 79.183361 
L 809.884994 81.106761 
L 812.674827 83.266975 
L 815.46466 85.668179 
L 819.184438 89.219066 
L 822.904216 93.092159 
L 831.273716 102.294966 
L 835.923438 107.224808 
L 839.643216 110.88576 
L 843.362994 114.23775 
L 847.082771 117.272413 
L 850.802549 120.009843 
L 854.522327 122.482389 
L 858.242105 124.721253 
L 862.891827 127.225745 
L 867.541549 129.428813 
L 872.191271 131.348599 
L 876.840993 133.002079 
L 881.490715 134.409065 
L 886.140438 135.593278 
L 891.720104 136.758026 
L 897.299771 137.686667 
L 903.809382 138.524616 
L 911.248937 139.223152 
L 919.618437 139.771369 
L 930.777771 140.265756 
L 945.656882 140.685687 
L 966.115659 141.017299 
L 996.803826 141.267929 
L 1020.982381 141.348998 
L 1020.982381 141.348998 
" clip-path="url(#pfb4a3cbe3d)" style="fill: none; stroke: #ff0000; stroke-width: 1.5; stroke-linecap: square"/>
   </g>
   <g id="line2d_14">
    <path d="M 396.059719 170.44 
L 396.059719 29.76 
" clip-path="url(#pfb4a3cbe3d)" style="fill: none; stroke: #1f77b4; stroke-width: 1.5; stroke-linecap: square"/>
   </g>
   <g id="patch_3">
    <path d="M 56.63 170.44 
L 56.63 29.76 
" style="fill: none; stroke: #000000; stroke-width: 0.8; stroke-linejoin: miter; stroke-linecap: square"/>
   </g>
   <g id="patch_4">
    <path d="M 1069.2 170.44 
L 1069.2 29.76 
" style="fill: none; stroke: #000000; stroke-width: 0.8; stroke-linejoin: miter; stroke-linecap: square"/>
   </g>
   <g id="patch_5">
    <path d="M 56.63 170.44 
L 1069.2 170.44 
" style="fill: none; stroke: #000000; stroke-width: 0.8; stroke-linejoin: miter; stroke-linecap: square"/>
   </g>
   <g id="patch_6">
    <path d="M 56.63 29.76 
L 1069.2 29.76 
" style="fill: none; stroke: #000000; stroke-width: 0.8; stroke-linejoin: miter; stroke-linecap: square"/>
   </g>
   <g id="text_14">
    <text style="font-size: 16px; font-family: 'DejaVu Sans', 'Bitstream Vera Sans', 'Computer Modern Sans Serif', 'Lucida Grande', 'Verdana', 'Geneva', 'Lucid', 'Arial', 'Helvetica', 'Avant Garde', sans-serif; text-anchor: middle" x="562.915" y="23.76" transform="rotate(-0 562.915 23.76)">Heat Conduction Equation Solution at x=0.41M</text>
   </g>
   <g id="legend_1">
    <g id="patch_7">
     <path d="M 949.325625 74.5875 
L 1060.8 74.5875 
Q 1063.2 74.5875 1063.2 72.1875 
L 1063.2 38.16 
Q 1063.2 35.76 1060.8 35.76 
L 949.325625 35.76 
Q 946.925625 35.76 946.925625 38.16 
L 946.925625 72.1875 
Q 946.925625 74.5875 949.325625 74.5875 
z
" style="fill: #ffffff; opacity: 0.8; stroke: #cccccc; stroke-linejoin: miter"/>
    </g>
    <g id="line2d_15">
     <path d="M 951.725625 45.478125 
L 963.725625 45.478125 
L 975.725625 45.478125 
" style="fill: none; stroke: #0000ff; stroke-width: 1.5; stroke-linecap: square"/>
    </g>
    <g id="text_15">
     <text style="font-size: 12px; font-family: 'DejaVu Sans', 'Bitstream Vera Sans', 'Computer Modern Sans Serif', 'Lucida Grande', 'Verdana', 'Geneva', 'Lucid', 'Arial', 'Helvetica', 'Avant Garde', sans-serif; text-anchor: start" x="985.325625" y="49.678125" transform="rotate(-0 985.325625 49.678125)">Observation</text>
    </g>
    <g id="line2d_16">
     <path d="M 951.725625 63.091875 
L 963.725625 63.091875 
L 975.725625 63.091875 
" style="fill: none; stroke: #ff0000; stroke-width: 1.5; stroke-linecap: square"/>
    </g>
    <g id="text_16">
     <text style="font-size: 12px; font-family: 'DejaVu Sans', 'Bitstream Vera Sans', 'Computer Modern Sans Serif', 'Lucida Grande', 'Verdana', 'Geneva', 'Lucid', 'Arial', 'Helvetica', 'Avant Garde', sans-serif; text-anchor: start" x="985.325625" y="67.291875" transform="rotate(-0 985.325625 67.291875)">Predicted</text>
    </g>
   </g>
  </g>
 </g>
 <defs>
  <clipPath id="pfb4a3cbe3d">
   <rect x="56.63" y="29.76" width="1012.57" height="140.68"/>
  </clipPath>
 </defs>
</svg>
