<?xml version="1.0" encoding="utf-8" standalone="no"?>
<!DOCTYPE svg PUBLIC "-//W3C//DTD SVG 1.1//EN"
  "http://www.w3.org/Graphics/SVG/1.1/DTD/svg11.dtd">
<svg xmlns:xlink="http://www.w3.org/1999/xlink" width="1080pt" height="216pt" viewBox="0 0 1080 216" xmlns="http://www.w3.org/2000/svg" version="1.1">
 <metadata>
  <rdf:RDF xmlns:dc="http://purl.org/dc/elements/1.1/" xmlns:cc="http://creativecommons.org/ns#" xmlns:rdf="http://www.w3.org/1999/02/22-rdf-syntax-ns#">
   <cc:Work>
    <dc:type rdf:resource="http://purl.org/dc/dcmitype/StillImage"/>
    <dc:date>2026-02-09T09:43:09.216719</dc:date>
    <dc:format>image/svg+xml</dc:format>
    <dc:creator>
     <cc:Agent>
      <dc:title>Matplotlib v3.10.8, https://matplotlib.org/</dc:title>
     </cc:Agent>
    </dc:creator>
   </cc:Work>
  </rdf:RDF>
 </metadata>
 <defs>
  <style type="text/css">*{stroke-linejoin: round; stroke-linecap: butt}</style>
 </defs>
 <g id="figure_1">
  <g id="patch_1">
   <path d="M 0 216 
L 1080 216 
L 1080 0 
L 0 0 
z
" style="fill: #ffffff"/>
  </g>
  <g id="axes_1">
   <g id="patch_2">
    <path d="M 56.63 170.44 
L 1069.2 170.44 
L 1069.2 29.76 
L 56.63 29.76 
z
" style="fill: #ffffff"/>
   </g>
   <g id="matplotlib.axis_1">
    <g id="xtick_1">
     <g id="line2d_1">
      <defs>
       <path id="mc04c3f2dba" d="M 0 0 
L 0 3.5 
" style="stroke: #000000; stroke-width: 0.8"/>
      </defs>
      <g>
       <use xlink:href="#mc04c3f2dba" x="56.63" y="170.44" style="stroke: #000000; stroke-width: 0.8"/>
      </g>
     </g>
     <g id="text_1">
      <text style="font-size: 10px; font-family: 'DejaVu Sans', 'Bitstream Vera Sans', 'Computer Modern Sans Serif', 'Lucida Grande', 'Verdana', 'Geneva', 'Lucid', 'Arial', 'Helvetica', 'Avant Garde', sans-serif; text-anchor: middle" x="56.63" y="185.038437" transform="rotate(-0 56.63 185.038437)">0</text>
     </g>
    </g>
    <g id="xtick_2">
     <g id="line2d_2">
      <g>
       <use xlink:href="#mc04c3f2dba" x="242.618887" y="170.44" style="stroke: #000000; stroke-width: 0.8"/>
      </g>
     </g>
     <g id="text_2">
      <text style="font-size: 10px; font-family: 'DejaVu Sans', 'Bitstream Vera Sans', 'Computer Modern Sans Serif', 'Lucida Grande', 'Verdana', 'Geneva', 'Lucid', 'Arial', 'Helvetica', 'Avant Garde', sans-serif; text-anchor: middle" x="242.618887" y="185.038437" transform="rotate(-0 242.618887 185.038437)">200</text>
     </g>
    </g>
    <g id="xtick_3">
     <g id="line2d_3">
      <g>
       <use xlink:href="#mc04c3f2dba" x="428.607775" y="170.44" style="stroke: #000000; stroke-width: 0.8"/>
      </g>
     </g>
     <g id="text_3">
      <text style="font-size: 10px; font-family: 'DejaVu Sans', 'Bitstream Vera Sans', 'Computer Modern Sans Serif', 'Lucida Grande', 'Verdana', 'Geneva', 'Lucid', 'Arial', 'Helvetica', 'Avant Garde', sans-serif; text-anchor: middle" x="428.607775" y="185.038437" transform="rotate(-0 428.607775 185.038437)">400</text>
     </g>
    </g>
    <g id="xtick_4">
     <g id="line2d_4">
      <g>
       <use xlink:href="#mc04c3f2dba" x="614.596662" y="170.44" style="stroke: #000000; stroke-width: 0.8"/>
      </g>
     </g>
     <g id="text_4">
      <text style="font-size: 10px; font-family: 'DejaVu Sans', 'Bitstream Vera Sans', 'Computer Modern Sans Serif', 'Lucida Grande', 'Verdana', 'Geneva', 'Lucid', 'Arial', 'Helvetica', 'Avant Garde', sans-serif; text-anchor: middle" x="614.596662" y="185.038437" transform="rotate(-0 614.596662 185.038437)">600</text>
     </g>
    </g>
    <g id="xtick_5">
     <g id="line2d_5">
      <g>
       <use xlink:href="#mc04c3f2dba" x="800.585549" y="170.44" style="stroke: #000000; stroke-width: 0.8"/>
      </g>
     </g>
     <g id="text_5">
      <text style="font-size: 10px; font-family: 'DejaVu Sans', 'Bitstream Vera Sans', 'Computer Modern Sans Serif', 'Lucida Grande', 'Verdana', 'Geneva', 'Lucid', 'Arial', 'Helvetica', 'Avant Garde', sans-serif; text-anchor: middle" x="800.585549" y="185.038437" transform="rotate(-0 800.585549 185.038437)">800</text>
     </g>
    </g>
    <g id="xtick_6">
     <g id="line2d_6">
      <g>
       <use xlink:href="#mc04c3f2dba" x="986.574437" y="170.44" style="stroke: #000000; stroke-width: 0.8"/>
      </g>
     </g>
     <g id="text_6">
      <text style="font-size: 10px; font-family: 'DejaVu Sans', 'Bitstream Vera Sans', 'Computer Modern Sans Serif', 'Lucida Grande', 'Verdana', 'Geneva', 'Lucid', 'Arial', 'Helvetica', 'Avant Garde', sans-serif; text-anchor: middle" x="986.574437" y="185.038437" transform="rotate(-0 986.574437 185.038437)">1000</text>
     </g>
    </g>
    <g id="text_7">
     <text style="font-size: 14px; font-family: 'DejaVu Sans', 'Bitstream Vera Sans', 'Computer Modern Sans Serif', 'Lucida Grande', 'Verdana', 'Geneva', 'Lucid', 'Arial', 'Helvetica', 'Avant Garde', sans-serif; text-anchor: middle" x="562.915" y="201.755937" transform="rotate(-0 562.915 201.755937)">Simulation Days</text>
    </g>
   </g>
   <g id="matplotlib.axis_2">
    <g id="ytick_1">
     <g id="line2d_7">
      <defs>
       <path id="m9a35685185" d="M 0 0 
L -3.5 0 
" style="stroke: #000000; stroke-width: 0.8"/>
      </defs>
      <g>
       <use xlink:href="#m9a35685185" x="56.63" y="153.199653" style="stroke: #000000; stroke-width: 0.8"/>
      </g>
     </g>
     <g id="text_8">
      <text style="font-size: 10px; font-family: 'DejaVu Sans', 'Bitstream Vera Sans', 'Computer Modern Sans Serif', 'Lucida Grande', 'Verdana', 'Geneva', 'Lucid', 'Arial', 'Helvetica', 'Avant Garde', sans-serif; text-anchor: end" x="49.63" y="156.998871" transform="rotate(-0 49.63 156.998871)">−30</text>
     </g>
    </g>
    <g id="ytick_2">
     <g id="line2d_8">
      <g>
       <use xlink:href="#m9a35685185" x="56.63" y="117.489488" style="stroke: #000000; stroke-width: 0.8"/>
      </g>
     </g>
     <g id="text_9">
      <text style="font-size: 10px; font-family: 'DejaVu Sans', 'Bitstream Vera Sans', 'Computer Modern Sans Serif', 'Lucida Grande', 'Verdana', 'Geneva', 'Lucid', 'Arial', 'Helvetica', 'Avant Garde', sans-serif; text-anchor: end" x="49.63" y="121.288707" transform="rotate(-0 49.63 121.288707)">−15</text>
     </g>
    </g>
    <g id="ytick_3">
     <g id="line2d_9">
      <g>
       <use xlink:href="#m9a35685185" x="56.63" y="81.779324" style="stroke: #000000; stroke-width: 0.8"/>
      </g>
     </g>
     <g id="text_10">
      <text style="font-size: 10px; font-family: 'DejaVu Sans', 'Bitstream Vera Sans', 'Computer Modern Sans Serif', 'Lucida Grande', 'Verdana', 'Geneva', 'Lucid', 'Arial', 'Helvetica', 'Avant Garde', sans-serif; text-anchor: end" x="49.63" y="85.578542" transform="rotate(-0 49.63 85.578542)">0</text>
     </g>
    </g>
    <g id="ytick_4">
     <g id="line2d_10">
      <g>
       <use xlink:href="#m9a35685185" x="56.63" y="46.069159" style="stroke: #000000; stroke-width: 0.8"/>
      </g>
     </g>
     <g id="text_11">
      <text style="font-size: 10px; font-family: 'DejaVu Sans', 'Bitstream Vera Sans', 'Computer Modern Sans Serif', 'Lucida Grande', 'Verdana', 'Geneva', 'Lucid', 'Arial', 'Helvetica', 'Avant Garde', sans-serif; text-anchor: end" x="49.63" y="49.868378" transform="rotate(-0 49.63 49.868378)">15</text>
     </g>
    </g>
    <g id="text_12">
     <text style="font-size: 14px; font-family: 'DejaVu Sans', 'Bitstream Vera Sans', 'Computer Modern Sans Serif', 'Lucida Grande', 'Verdana', 'Geneva', 'Lucid', 'Arial', 'Helvetica', 'Avant Garde', sans-serif; text-anchor: middle" x="21.61375" y="100.1" transform="rotate(-90 21.61375 100.1)">Temperature (℃)</text>
    </g>
   </g>
   <g id="line2d_11">
    <path d="M 56.63 65.018404 
L 58.489889 65.175079 
L 61.279722 65.727937 
L 67.789333 67.295349 
L 70.579167 67.654092 
L 74.298944 67.846851 
L 78.018722 68.084125 
L 79.878611 68.37619 
L 81.7385 68.85519 
L 83.598389 69.551229 
L 85.458278 70.468843 
L 88.248111 72.20389 
L 91.967889 74.907275 
L 96.617611 78.237977 
L 99.407444 79.981452 
L 103.127222 81.984446 
L 107.776944 84.167649 
L 115.2165 87.63206 
L 118.936277 89.618015 
L 122.656055 91.897816 
L 131.025555 97.317816 
L 133.815388 98.653173 
L 136.605222 99.688797 
L 140.324999 101.041539 
L 142.184888 101.922558 
L 144.044777 103.030069 
L 145.904666 104.376477 
L 148.694499 106.760606 
L 156.134055 113.509763 
L 158.923888 115.606882 
L 161.713721 117.318825 
L 164.503555 118.660345 
L 168.223332 120.087719 
L 171.94311 121.5672 
L 174.732943 122.952474 
L 181.242555 126.499361 
L 183.102443 127.201711 
L 184.962332 127.634271 
L 186.822221 127.798901 
L 189.612054 127.686 
L 193.331832 127.445455 
L 195.191721 127.521913 
L 197.05161 127.799497 
L 198.911499 128.266039 
L 201.701332 129.203053 
L 209.140888 132.019927 
L 211.930721 133.318718 
L 213.79061 134.381847 
L 216.580443 136.27577 
L 221.230165 139.620515 
L 223.090054 140.695887 
L 224.949943 141.475074 
L 226.809832 141.923341 
L 228.669721 142.065113 
L 230.52961 141.976019 
L 237.039221 141.346803 
L 239.829054 141.455666 
L 243.548832 141.950367 
L 248.198554 142.598048 
L 251.918332 142.860423 
L 265.867498 143.304153 
L 267.727387 142.998437 
L 269.587276 142.416152 
L 271.447165 141.531491 
L 273.307054 140.365243 
L 276.096887 138.252676 
L 279.816665 135.395075 
L 281.676554 134.239641 
L 283.536443 133.391315 
L 285.396331 132.879973 
L 287.25622 132.676195 
L 289.116109 132.700098 
L 294.695776 133.008284 
L 296.555665 132.864314 
L 298.415554 132.513646 
L 300.275442 131.959702 
L 303.065276 130.811527 
L 306.785053 128.901964 
L 317.014442 123.142783 
L 320.73422 120.914259 
L 323.524053 119.049807 
L 326.313887 116.935338 
L 329.10372 114.514066 
L 331.893553 111.750445 
L 334.683387 108.629742 
L 337.47322 105.152716 
L 340.263053 101.320805 
L 343.052887 97.12785 
L 345.84272 92.583955 
L 355.142164 76.798993 
L 357.002053 74.120805 
L 358.861942 71.746869 
L 360.721831 69.665524 
L 363.511664 66.966155 
L 368.161386 62.946591 
L 372.811109 59.0538 
L 375.600942 57.021921 
L 377.460831 55.933937 
L 379.32072 55.108688 
L 381.180608 54.552132 
L 383.040497 54.237977 
L 384.900386 54.115743 
L 388.620164 54.183935 
L 392.339942 54.246055 
L 396.059719 54.038808 
L 399.779497 53.808621 
L 401.639386 53.897256 
L 403.499275 54.249985 
L 405.359164 54.93251 
L 407.219053 55.962415 
L 409.078942 57.303974 
L 411.868775 59.717457 
L 417.448441 64.764933 
L 420.238275 66.979629 
L 423.958053 69.579646 
L 428.607775 72.509446 
L 436.04733 76.904364 
L 441.626997 79.99283 
L 447.206663 82.798247 
L 453.716275 85.989701 
L 456.506108 87.608616 
L 458.365997 88.876326 
L 460.225886 90.337176 
L 462.085774 92.009244 
L 464.875608 94.890489 
L 468.595385 99.17775 
L 472.315163 103.424488 
L 475.104997 106.253805 
L 477.89483 108.688705 
L 481.614608 111.512592 
L 486.26433 115.044651 
L 489.054163 117.418559 
L 492.773941 120.890802 
L 503.00333 130.786921 
L 505.793163 133.097097 
L 508.582996 135.087081 
L 511.37283 136.808416 
L 521.602218 142.818349 
L 527.181885 146.186037 
L 529.971718 147.660993 
L 532.761552 148.90932 
L 535.551385 149.857712 
L 537.411274 150.27357 
L 539.271163 150.478224 
L 541.131052 150.447726 
L 542.99094 150.178108 
L 544.850829 149.693514 
L 547.640663 148.688779 
L 551.36044 147.263529 
L 553.220329 146.704414 
L 555.080218 146.331956 
L 556.940107 146.17537 
L 558.799996 146.232183 
L 561.589829 146.641147 
L 568.09944 147.914198 
L 569.959329 148.026743 
L 571.819218 147.945567 
L 574.609051 147.505325 
L 579.258773 146.60124 
L 581.118662 146.509565 
L 582.978551 146.716607 
L 584.83844 147.262036 
L 586.698329 148.130842 
L 588.558218 149.259364 
L 596.927718 154.84052 
L 598.787607 155.699127 
L 600.647496 156.342687 
L 602.507384 156.780655 
L 604.367273 157.032978 
L 606.227162 157.120302 
L 609.016995 156.968363 
L 610.876884 156.67685 
L 612.736773 156.215322 
L 614.596662 155.559831 
L 616.456551 154.686887 
L 618.31644 153.582784 
L 620.176329 152.252282 
L 622.966162 149.899018 
L 633.195551 140.647758 
L 635.985384 138.604007 
L 639.705162 136.195495 
L 646.214773 132.075986 
L 649.004606 130.006939 
L 651.79444 127.611179 
L 654.584273 124.86383 
L 657.374106 121.801546 
L 661.093884 117.343083 
L 664.813662 112.512328 
L 667.603495 108.530749 
L 670.393328 104.034728 
L 672.253217 100.651922 
L 674.113106 96.919471 
L 676.902939 90.695279 
L 680.622717 81.621755 
L 684.342495 72.56851 
L 687.132328 66.398416 
L 688.992217 62.735008 
L 690.852106 59.457484 
L 692.711995 56.537462 
L 695.501828 52.679257 
L 699.221606 48.07074 
L 703.871328 42.653224 
L 706.661161 39.778491 
L 708.52105 38.209704 
L 710.380939 37.036284 
L 711.310884 36.623132 
L 712.240828 36.335671 
L 713.170772 36.178577 
L 714.100717 36.154545 
L 715.030661 36.26437 
L 715.960606 36.506973 
L 716.89055 36.879444 
L 718.750439 37.99501 
L 720.610328 39.554448 
L 722.470217 41.471931 
L 725.26005 44.754967 
L 728.979828 49.123162 
L 730.839717 51.012366 
L 732.699606 52.62673 
L 735.489439 54.632576 
L 739.209217 57.157648 
L 741.069105 58.622035 
L 743.858939 61.149642 
L 747.578717 64.62545 
L 749.438605 66.080002 
L 751.298494 67.197947 
L 753.158383 67.957648 
L 755.018272 68.417927 
L 761.527883 69.485367 
L 763.387772 70.087771 
L 765.247661 70.895162 
L 768.037494 72.409126 
L 776.406994 77.344478 
L 780.126772 79.180319 
L 793.145994 85.19745 
L 797.795716 87.826513 
L 803.375383 91.250592 
L 812.674827 97.049695 
L 816.394605 99.001073 
L 822.904216 102.218586 
L 825.694049 103.903366 
L 828.483883 105.891313 
L 832.20366 108.909229 
L 837.783327 113.5409 
L 840.57316 115.595033 
L 843.362994 117.386776 
L 847.082771 119.474143 
L 851.732493 122.080132 
L 855.452271 124.482087 
L 861.961882 128.910037 
L 864.751716 130.475932 
L 867.541549 131.706725 
L 870.331382 132.648672 
L 874.981104 133.880092 
L 881.490715 135.601977 
L 885.210493 136.863774 
L 888.000326 138.066911 
L 890.79016 139.54647 
L 893.579993 141.314984 
L 896.369826 143.350283 
L 900.089604 146.37967 
L 910.318993 154.954527 
L 915.89866 159.295701 
L 918.688493 161.243078 
L 920.548382 162.34 
L 922.408271 163.201128 
L 924.26816 163.775274 
L 926.128048 164.034762 
L 927.987937 163.979479 
L 929.847826 163.634597 
L 931.707715 163.043459 
L 933.567604 162.256113 
L 936.357437 160.802644 
L 939.147271 159.099362 
L 941.937104 157.16838 
L 945.656882 154.255333 
L 954.956326 146.588938 
L 957.746159 144.624833 
L 961.465937 142.296263 
L 968.905492 137.787311 
L 976.345048 132.986246 
L 979.134881 131.549163 
L 980.99477 130.806135 
L 983.784603 130.006242 
L 991.224159 128.337121 
L 993.084048 127.578413 
L 994.943937 126.557134 
L 996.803826 125.263551 
L 998.663714 123.721651 
L 1001.453548 121.053346 
L 1006.10327 116.155733 
L 1010.752992 111.358613 
L 1013.542825 108.812294 
L 1015.402714 107.375579 
L 1017.262603 106.23528 
L 1019.122492 105.465852 
L 1020.982381 105.124604 
L 1020.982381 105.124604 
" clip-path="url(#p2d25bb6408)" style="fill: none; stroke: #0000ff; stroke-width: 1.5; stroke-linecap: square"/>
   </g>
   <g id="line2d_12">
    <path d="M 56.63 56.624988 
L 58.489889 56.876042 
L 60.349778 57.441346 
L 62.209667 58.274895 
L 64.9995 59.885733 
L 74.298944 65.753665 
L 78.018722 67.663912 
L 90.108 73.527436 
L 101.267333 79.322914 
L 104.987111 80.961638 
L 109.636833 82.753985 
L 118.006333 85.88001 
L 121.726111 87.497257 
L 126.375833 89.782758 
L 132.885444 93.294508 
L 139.395055 97.023548 
L 144.044777 99.934543 
L 148.694499 103.131928 
L 161.713721 112.405365 
L 166.363444 115.312608 
L 171.013166 117.912512 
L 175.662888 120.218716 
L 180.31261 122.238815 
L 184.962332 123.973698 
L 189.612054 125.447105 
L 195.191721 126.968394 
L 203.561221 129.201273 
L 207.280999 130.403968 
L 211.000777 131.836476 
L 215.650499 133.90072 
L 222.16011 136.810026 
L 225.879887 138.195709 
L 229.599665 139.281492 
L 233.319443 140.078903 
L 237.039221 140.639182 
L 241.688943 141.090971 
L 247.26861 141.376291 
L 253.778221 141.461422 
L 259.357887 141.327905 
L 263.077665 141.066896 
L 266.797443 140.581936 
L 269.587276 140.029609 
L 273.307054 139.028852 
L 277.026832 137.784133 
L 289.116109 133.531595 
L 294.695776 131.920153 
L 303.99522 129.267691 
L 308.644942 127.652612 
L 312.36472 126.129371 
L 316.084498 124.359151 
L 318.874331 122.836627 
L 321.664164 121.106607 
L 324.453998 119.118119 
L 327.243831 116.811002 
L 330.033664 114.125895 
L 332.823498 111.018653 
L 335.613331 107.475806 
L 338.403164 103.526671 
L 342.122942 97.767829 
L 352.352331 81.442098 
L 355.142164 77.457129 
L 357.931998 73.807089 
L 360.721831 70.496307 
L 363.511664 67.50597 
L 366.301497 64.814478 
L 369.091331 62.414334 
L 371.881164 60.318756 
L 374.670997 58.556303 
L 377.460831 57.157375 
L 379.32072 56.436133 
L 381.180608 55.884153 
L 383.040497 55.495732 
L 385.830331 55.195466 
L 388.620164 55.18786 
L 391.409997 55.414625 
L 395.129775 55.989674 
L 398.849553 56.794516 
L 403.499275 58.061245 
L 407.219053 59.279911 
L 410.93883 60.694708 
L 414.658608 62.312309 
L 419.30833 64.602807 
L 423.958053 67.137745 
L 430.467664 70.944855 
L 459.295941 88.310822 
L 463.015719 90.987693 
L 466.735497 93.981118 
L 470.455274 97.256682 
L 476.964885 103.367487 
L 490.914052 116.536151 
L 500.213496 125.019785 
L 505.793163 129.812962 
L 509.512941 132.766537 
L 513.232718 135.455429 
L 516.952496 137.834567 
L 520.672274 139.88202 
L 524.392052 141.60136 
L 528.111829 143.018265 
L 531.831607 144.172214 
L 535.551385 145.106435 
L 540.201107 146.024804 
L 544.850829 146.723494 
L 550.430496 147.33911 
L 556.940107 147.835885 
L 566.239551 148.301238 
L 580.188718 148.744841 
L 596.927718 149.045872 
L 607.157107 149.043443 
L 613.666718 148.842232 
L 618.31644 148.500965 
L 622.036218 148.048394 
L 625.755995 147.384632 
L 629.475773 146.451278 
L 632.265606 145.531584 
L 635.05544 144.387774 
L 637.845273 142.992256 
L 640.635106 141.328808 
L 643.42494 139.396774 
L 646.214773 137.210464 
L 649.934551 133.942354 
L 653.654328 130.325753 
L 657.374106 126.391383 
L 661.093884 122.1033 
L 663.883717 118.581176 
L 666.673551 114.705133 
L 669.463384 110.388663 
L 672.253217 105.581337 
L 675.04305 100.310925 
L 679.692773 90.902155 
L 683.41255 83.488125 
L 686.202384 78.428092 
L 688.062273 75.41645 
L 689.922161 72.740363 
L 691.78205 70.415449 
L 693.641939 68.437942 
L 695.501828 66.788526 
L 697.361717 65.437054 
L 699.221606 64.347299 
L 701.081495 63.48108 
L 702.941384 62.801414 
L 705.731217 62.059136 
L 708.52105 61.566912 
L 712.240828 61.179404 
L 716.89055 60.977367 
L 722.470217 61.000523 
L 728.049883 61.2392 
L 733.62955 61.684966 
L 739.209217 62.369357 
L 743.858939 63.158309 
L 748.508661 64.177443 
L 753.158383 65.445217 
L 757.808105 66.958788 
L 763.387772 69.053645 
L 770.827327 72.139212 
L 781.986661 76.781219 
L 790.356161 79.993441 
L 799.655605 83.571861 
L 804.305327 85.611341 
L 808.025105 87.482151 
L 811.744883 89.63102 
L 815.46466 92.095679 
L 819.184438 94.878531 
L 822.904216 97.938621 
L 828.483883 102.860452 
L 835.923438 109.450805 
L 840.57316 113.262887 
L 844.292938 116.046151 
L 848.012716 118.571602 
L 851.732493 120.843878 
L 855.452271 122.879501 
L 859.172049 124.698357 
L 863.821771 126.695066 
L 868.471493 128.412485 
L 873.121216 129.877455 
L 877.770938 131.115749 
L 883.350604 132.3388 
L 888.930271 133.316802 
L 895.439882 134.20428 
L 902.879437 134.957183 
L 911.248937 135.558341 
L 921.478326 136.049808 
L 933.567604 136.404334 
L 951.236548 136.677354 
L 981.924715 136.900624 
L 1020.982381 137.007968 
L 1020.982381 137.007968 
" clip-path="url(#p2d25bb6408)" style="fill: none; stroke: #ff0000; stroke-width: 1.5; stroke-linecap: square"/>
   </g>
   <g id="line2d_13">
    <path d="M 396.059719 170.44 
L 396.059719 29.76 
" clip-path="url(#p2d25bb6408)" style="fill: none; stroke: #1f77b4; stroke-width: 1.5; stroke-linecap: square"/>
   </g>
   <g id="patch_3">
    <path d="M 56.63 170.44 
L 56.63 29.76 
" style="fill: none; stroke: #000000; stroke-width: 0.8; stroke-linejoin: miter; stroke-linecap: square"/>
   </g>
   <g id="patch_4">
    <path d="M 1069.2 170.44 
L 1069.2 29.76 
" style="fill: none; stroke: #000000; stroke-width: 0.8; stroke-linejoin: miter; stroke-linecap: square"/>
   </g>
   <g id="patch_5">
    <path d="M 56.63 170.44 
L 1069.2 170.44 
" style="fill: none; stroke: #000000; stroke-width: 0.8; stroke-linejoin: miter; stroke-linecap: square"/>
   </g>
   <g id="patch_6">
    <path d="M 56.63 29.76 
L 1069.2 29.76 
" style="fill: none; stroke: #000000; stroke-width: 0.8; stroke-linejoin: miter; stroke-linecap: square"/>
   </g>
   <g id="text_13">
    <text style="font-size: 16px; font-family: 'DejaVu Sans', 'Bitstream Vera Sans', 'Computer Modern Sans Serif', 'Lucida Grande', 'Verdana', 'Geneva', 'Lucid', 'Arial', 'Helvetica', 'Avant Garde', sans-serif; text-anchor: middle" x="562.915" y="23.76" transform="rotate(-0 562.915 23.76)">Heat Conduction Equation Solution at x=0M</text>
   </g>
   <g id="legend_1">
    <g id="patch_7">
     <path d="M 949.325625 74.5875 
L 1060.8 74.5875 
Q 1063.2 74.5875 1063.2 72.1875 
L 1063.2 38.16 
Q 1063.2 35.76 1060.8 35.76 
L 949.325625 35.76 
Q 946.925625 35.76 946.925625 38.16 
L 946.925625 72.1875 
Q 946.925625 74.5875 949.325625 74.5875 
z
" style="fill: #ffffff; opacity: 0.8; stroke: #cccccc; stroke-linejoin: miter"/>
    </g>
    <g id="line2d_14">
     <path d="M 951.725625 45.478125 
L 963.725625 45.478125 
L 975.725625 45.478125 
" style="fill: none; stroke: #0000ff; stroke-width: 1.5; stroke-linecap: square"/>
    </g>
    <g id="text_14">
     <text style="font-size: 12px; font-family: 'DejaVu Sans', 'Bitstream Vera Sans', 'Computer Modern Sans Serif', 'Lucida Grande', 'Verdana', 'Geneva', 'Lucid', 'Arial', 'Helvetica', 'Avant Garde', sans-serif; text-anchor: start" x="985.325625" y="49.678125" transform="rotate(-0 985.325625 49.678125)">Observation</text>
    </g>
    <g id="line2d_15">
     <path d="M 951.725625 63.091875 
L 963.725625 63.091875 
L 975.725625 63.091875 
" style="fill: none; stroke: #ff0000; stroke-width: 1.5; stroke-linecap: square"/>
    </g>
    <g id="text_15">
     <text style="font-size: 12px; font-family: 'DejaVu Sans', 'Bitstream Vera Sans', 'Computer Modern Sans Serif', 'Lucida Grande', 'Verdana', 'Geneva', 'Lucid', 'Arial', 'Helvetica', 'Avant Garde', sans-serif; text-anchor: start" x="985.325625" y="67.291875" transform="rotate(-0 985.325625 67.291875)">Predicted</text>
    </g>
   </g>
  </g>
 </g>
 <defs>
  <clipPath id="p2d25bb6408">
   <rect x="56.63" y="29.76" width="1012.57" height="140.68"/>
  </clipPath>
 </defs>
</svg>
